<svg width="39" height="35" viewBox="0 0 39 35" fill="none" xmlns="http://www.w3.org/2000/svg">
<path fill-rule="evenodd" clip-rule="evenodd" d="M3.99623 11.3425C3.36319 11.3425 2.85 11.8531 2.85 12.4829V30.0516C2.85 30.6814 3.36319 31.192 3.99623 31.192H33.0538C33.6868 31.192 34.2 30.6814 34.2 30.0516V12.4829C34.2 11.8531 33.6868 11.3425 33.0538 11.3425H3.99623ZM0 12.4829C0 10.287 1.78918 8.50684 3.99623 8.50684H33.0538C35.2608 8.50684 37.05 10.287 37.05 12.4829V30.0516C37.05 32.2475 35.2608 34.0277 33.0538 34.0277H3.99623C1.78918 34.0277 0 32.2475 0 30.0516V12.4829Z" fill="#9FA1A8"/>
<path fill-rule="evenodd" clip-rule="evenodd" d="M7.06885 1.45833C7.06885 0.652918 7.70999 0 8.50088 0H28.5493C29.3402 0 29.9814 0.652918 29.9814 1.45833C29.9814 2.26375 29.3402 2.91667 28.5493 2.91667H8.50088C7.70999 2.91667 7.06885 2.26375 7.06885 1.45833Z" fill="#9FA1A8"/>
<path fill-rule="evenodd" clip-rule="evenodd" d="M4.3877 5.71181C4.3877 4.97351 5.02065 4.375 5.80145 4.375H31.2489C32.0297 4.375 32.6627 4.97351 32.6627 5.71181C32.6627 6.4501 32.0297 7.04861 31.2489 7.04861H5.80145C5.02065 7.04861 4.3877 6.4501 4.3877 5.71181Z" fill="#9FA1A8"/>
</svg>
