<svg width="67" height="35" viewBox="0 0 67 35" fill="none" xmlns="http://www.w3.org/2000/svg">
<path d="M46.5647 9.64551C46.5848 9.67122 44.3302 11.3956 46.5848 14.9181C48.8395 18.4405 49.1915 19.0156 49.1915 19.0156L52.996 18.2245L46.5647 9.64551Z" fill="#F52D44"/>
<path d="M52.2233 17.3624C51.7408 17.3624 51.1845 17.1721 50.5691 16.7964L50.2863 14.8701C50.2828 14.845 50.2657 14.824 50.2417 14.8148C50.2331 14.8114 50.2246 14.8098 50.2151 14.8098C50.1988 14.8098 50.1826 14.8148 50.1697 14.8257L49.3854 15.4496C49.3092 15.51 49.2132 15.5435 49.1146 15.5435C48.9912 15.5435 48.8737 15.4915 48.7923 15.401C47.9969 14.5095 46.2561 12.2587 47.2572 10.6268C48.0338 9.36056 49.094 9.09473 49.8466 9.09473C50.264 9.09473 50.5503 9.17943 50.5528 9.18026C50.5554 9.1811 50.558 9.18194 50.5614 9.18194C50.5803 9.1853 52.4642 9.55428 53.0205 11.7321C53.5562 13.8303 54.0361 15.2743 54.0944 15.4471C54.0559 15.6366 53.6659 17.3624 52.2233 17.3624Z" fill="#FEC5A7"/>
<path d="M46.6496 8.01849C46.2045 8.3458 45.9063 8.84365 45.8622 9.39318C45.8061 10.0866 46.1336 10.9065 47.9235 11.034C51.1049 11.2605 54.0495 15.2847 54.0495 15.2847C54.0495 15.2847 57.5991 14.2571 60.4097 16.2597L54.9276 9.69809C54.3183 8.88585 53.5569 8.19506 52.6727 7.69291C51.2052 6.85741 49.0125 6.28376 46.6496 8.01849Z" fill="#F52D44"/>
<path d="M56.7838 33.6218C54.9825 33.6218 53.5308 33.547 53.2355 33.5309L52.6756 30.7344C52.6688 30.7004 52.6391 30.6775 52.6059 30.6775C52.6025 30.6775 52.5991 30.6775 52.5948 30.6783L51.2385 30.8814C50.9279 28.9092 49.3971 26.6693 49.3818 26.6464C49.3682 26.6268 49.346 26.6158 49.3231 26.6158C49.318 26.6158 49.3129 26.6166 49.3086 26.6175C49.2805 26.6234 49.2584 26.6455 49.2533 26.6744C48.8151 29.0435 47.1456 30.7225 45.8224 31.7142C44.5299 32.6828 43.3063 33.2029 43.0621 33.3014L39.541 29.5788C39.9197 29.4845 41.122 29.1412 42.4128 28.3237C43.8483 27.4145 45.6931 25.7142 46.3245 22.7818C46.9456 19.9004 48.0612 18.4414 48.8883 17.7243C49.6924 17.0266 50.3859 16.8779 50.5211 16.855C51.0615 17.1915 51.5703 17.3623 52.0341 17.3623C53.4849 17.3623 53.929 15.6985 54.0184 15.4147C54.7195 15.2439 55.5534 15.1572 56.2188 15.1572C59.0856 15.1572 61.5974 16.7284 63.6839 19.8273C65.3806 22.3476 66.3472 25.2316 66.7718 26.7271C67.2968 28.5761 66.9037 30.5466 65.7192 31.9988C65.6843 32.0413 65.6486 32.0846 65.612 32.1271C64.5441 33.3618 60.2215 33.6218 56.7838 33.6218Z" fill="#F7F7F7"/>
<path opacity="0.4" fill-rule="evenodd" clip-rule="evenodd" d="M57.7608 20.4032C57.8024 20.3814 57.8537 20.3978 57.8752 20.4399L61.4094 27.337C61.667 27.8393 61.399 28.4527 60.8597 28.6L60.8597 28.6L52.5537 30.863C52.5085 30.8754 52.4619 30.8482 52.4497 30.8024C52.4375 30.7566 52.4643 30.7095 52.5096 30.6972L60.8155 28.4342C61.2505 28.3153 61.4663 27.8208 61.2588 27.4162L61.2588 27.4161L57.7245 20.519C57.703 20.4769 57.7192 20.425 57.7608 20.4032Z" fill="#1F2B60"/>
<path opacity="0.4" fill-rule="evenodd" clip-rule="evenodd" d="M48.8789 20.6759C48.9235 20.6945 48.9442 20.7449 48.9251 20.7883L48.9249 20.7886L48.9243 20.79C48.9238 20.7913 48.9229 20.7933 48.9218 20.796C48.9195 20.8015 48.916 20.8099 48.9115 20.8211C48.9024 20.8434 48.8893 20.8769 48.8733 20.9209C48.8411 21.0089 48.7973 21.1388 48.751 21.3048C48.6585 21.6369 48.5564 22.1131 48.5187 22.6881C48.4434 23.8376 48.6256 25.3804 49.6565 26.9565C49.6566 26.9567 49.6567 26.9569 49.6568 26.957L49.6575 26.9579L49.6612 26.9634C49.6644 26.9683 49.6692 26.9754 49.6754 26.9848C49.6878 27.0035 49.706 27.031 49.729 27.0665C49.7752 27.1374 49.841 27.24 49.92 27.3671C50.078 27.6212 50.2886 27.9738 50.4994 28.3671C50.7101 28.7603 50.9216 29.1955 51.0806 29.6149C51.239 30.0326 51.3481 30.4416 51.3481 30.7802C51.3481 30.8275 51.3087 30.8658 51.2601 30.8658C51.2115 30.8658 51.1721 30.8275 51.1721 30.7802C51.1721 30.4722 51.0716 30.0858 50.9154 29.6741C50.7599 29.264 50.552 28.8358 50.3433 28.4463C50.1347 28.057 49.926 27.7077 49.7694 27.4557C49.6911 27.3297 49.6259 27.2281 49.5803 27.1581C49.5575 27.1231 49.5397 27.096 49.5275 27.0777C49.5214 27.0685 49.5168 27.0616 49.5137 27.0569L49.5102 27.0517L49.5091 27.0501C49.5091 27.0501 49.509 27.05 49.5826 27.003L49.509 27.05L49.5084 27.049C48.4528 25.4356 48.2659 23.8544 48.343 22.6772C48.3816 22.0888 48.4861 21.601 48.5812 21.26C48.6287 21.0894 48.6739 20.9553 48.7074 20.8636C48.7241 20.8177 48.7379 20.7824 48.7476 20.7584C48.7525 20.7464 48.7563 20.7372 48.759 20.7309C48.7603 20.7278 48.7613 20.7253 48.7621 20.7237L48.7629 20.7217L48.7632 20.7211L48.7632 20.721C48.7633 20.7209 48.7633 20.7208 48.8442 20.7546L48.7633 20.7208C48.7824 20.6774 48.8342 20.6573 48.8789 20.6759Z" fill="#1F2B60"/>
<path d="M46.3773 33.4416C46.1818 33.6167 45.8724 33.4849 45.8592 33.2187C45.8224 32.5166 46.1257 31.4562 48.1978 31.2081C51.3586 30.83 52.6822 30.5908 52.6822 30.5908L53.2704 33.5544C53.2704 33.5544 51.7268 34.538 49.595 33.1763C49.5933 33.1772 47.8069 32.1619 46.3773 33.4416Z" fill="#FEC5A7"/>
<path d="M50.25 14.7163L51.0617 14.0547C51.0617 14.0547 51.2094 15.1791 50.4716 15.7082L50.25 14.7163Z" fill="#FF896F"/>
<path opacity="0.1" d="M66.7378 26.457C66.7378 26.457 69.3611 34.0378 55.1924 33.5384C55.1924 33.5384 58.7041 33.8931 63.2475 33.1445C65.6213 32.7532 66.2816 31.5647 66.7472 29.9271C67.0311 28.9292 67.1366 27.8377 66.7378 26.457Z" fill="black"/>
<path opacity="0.1" d="M57.9385 20.6689L60.5936 28.6611C60.5936 28.6611 62.0698 28.642 61.2712 27.0313L57.9385 20.6689Z" fill="black"/>
<path opacity="0.1" d="M43.6597 32.086C43.6597 32.086 47.6527 29.9 48.6654 25.6299L49.1515 26.6022C49.1515 26.6022 48.4511 30.7852 43.9092 32.7952L43.6597 32.086Z" fill="black"/>
<path d="M16.7848 15.9845C16.679 15.9845 16.5689 15.9794 16.4589 15.97C16.3731 15.9511 14.7319 15.5678 13.73 13.8355C13.955 13.646 14.7452 12.749 14.8202 9.44061C14.8361 8.75372 15.0278 8.10627 15.3753 7.56859C15.903 6.7522 16.6473 6.33887 17.5867 6.33887C17.8976 6.33887 18.2326 6.38517 18.5835 6.47779C19.1762 6.63386 19.6238 6.9786 19.913 7.50427C20.7348 8.99726 20.1089 11.6196 19.8013 12.6778C19.7271 12.9342 19.4929 13.1126 19.2328 13.1126C19.1637 13.1126 19.0953 13.0998 19.0295 13.0757L18.0159 12.6967L18.0434 12.8245C18.0493 12.8519 18.201 13.4942 19.4904 14.2077C19.3562 14.519 18.6252 15.9845 16.7848 15.9845Z" fill="#FEC5A7"/>
<path d="M17.6291 6.33887V6.4808C17.9515 6.4808 18.2994 6.52642 18.664 6.61513C19.27 6.76383 19.7271 7.09247 20.0231 7.59263C20.8774 9.03986 20.2204 11.6006 19.8989 12.6347C19.8293 12.8569 19.6118 13.0123 19.3687 13.0123C19.3044 13.0123 19.2401 13.0014 19.1793 12.9802L18.2342 12.6508L17.9814 12.562L18.0396 12.8147C18.0457 12.8425 18.2087 13.4863 19.5448 14.1935C19.351 14.5804 18.583 15.8418 16.7809 15.8418C16.6726 15.8418 16.5598 15.8375 16.4471 15.8282C16.3256 15.8029 14.6785 15.4269 13.6471 13.809C13.9466 13.5362 14.704 12.5451 14.7789 9.4682C14.7947 8.80499 14.9938 8.1798 15.3532 7.66106C15.8957 6.87788 16.662 6.4808 17.6282 6.4808L17.6291 6.33887ZM17.6282 6.33887C16.4075 6.33887 15.6685 6.95054 15.2299 7.58249C14.8441 8.13925 14.6468 8.79654 14.6309 9.46482C14.5402 13.1915 13.4551 13.7769 13.4551 13.7769C14.5631 15.6196 16.4251 15.9693 16.4251 15.9693C16.5475 15.9795 16.6655 15.9845 16.78 15.9845C19.026 15.9845 19.7333 14.1318 19.7333 14.1318C18.3293 13.4229 18.1822 12.7851 18.1822 12.7851L19.1273 13.1146C19.2066 13.1425 19.2876 13.1551 19.3678 13.1551C19.6681 13.1551 19.9482 12.9693 20.0398 12.6761C20.5375 11.0785 21.4535 7.15246 18.7001 6.47827C18.3073 6.38195 17.9515 6.33887 17.6282 6.33887Z" fill="#FEC5A7"/>
<path d="M14.4459 11.5743L16.2617 10.4209C16.2617 10.4209 16.0433 8.92841 16.6977 8.78603C17.3521 8.64365 17.2793 10.2073 17.2793 10.2073H17.5697C17.5697 10.2073 17.3677 7.48087 20.3762 8.13345C23.3847 8.78603 22.7312 5.58753 22.7312 5.58753C22.7312 5.58753 22.4408 4.09507 20.8408 4.94766C19.7114 5.55024 17.7491 6.01044 16.6925 6.2291C15.759 6.42233 14.9703 7.05033 14.6201 7.91818C14.3003 8.70975 14.1321 9.87677 14.4459 11.5743Z" fill="#180049"/>
<path opacity="0.4" fill-rule="evenodd" clip-rule="evenodd" d="M34.5938 13.2484C34.6022 13.2684 34.5983 13.2949 34.5851 13.3076L33.8179 14.0486C33.8047 14.0613 33.7872 14.0554 33.7788 14.0354C33.7705 14.0154 33.7743 13.9889 33.7875 13.9762L34.5547 13.2352C34.5679 13.2225 34.5854 13.2284 34.5938 13.2484Z" fill="#1F2B60"/>
<path d="M35.2844 11.8506C35.2844 11.8506 37.7232 11.8714 37.2937 13.5436C36.8651 15.2158 35.321 15.7089 35.321 15.7089C35.321 15.7089 30.6308 13.9578 35.2844 11.8506Z" fill="#FEC5A7"/>
<path d="M31.8521 15.5801L32.908 13.4799C33.3529 12.5953 34.0506 11.8812 34.9275 11.4144L37.1405 10.2351C37.1881 10.2098 37.2398 10.1963 37.2933 10.1963C37.4334 10.1963 37.5573 10.2849 37.6015 10.4175C37.6363 10.5213 37.6167 10.6327 37.5505 10.7171C37.2874 11.0497 37.0471 11.243 36.2 11.8044C36.1609 11.8305 36.1142 11.8609 36.0625 11.8947C35.6533 12.1606 34.9683 12.6063 34.8027 12.9363L34.4589 13.6201L34.4802 13.6589C34.4937 13.6808 34.5192 13.6952 34.5455 13.6952H34.5667L34.5871 13.6825C34.7127 13.6015 35.8299 12.8891 36.5098 12.8891C36.6906 12.8891 36.8171 12.938 36.8969 13.0402C36.9538 13.1127 36.9724 13.1913 36.9563 13.2807C36.9054 13.5559 36.5175 13.924 35.8638 14.3182C35.6058 14.4735 35.5047 14.7909 35.6227 15.072C35.8256 15.554 35.953 16.2917 35.4317 17.0861L31.8521 15.5801Z" fill="#FEC5A7"/>
<path d="M37.3564 10.1963C37.4692 10.1963 37.5689 10.2672 37.6048 10.3726C37.6328 10.4556 37.617 10.5446 37.5637 10.612C37.2987 10.9448 37.0538 11.1402 36.1889 11.7098C36.1487 11.7366 36.1015 11.7668 36.0481 11.8014C35.4945 12.1592 34.8902 12.5681 34.7241 12.8957L34.3882 13.5604C34.3646 13.607 34.3672 13.6615 34.3952 13.7064C34.4223 13.7505 34.4722 13.7773 34.5247 13.7773L34.571 13.7764L34.6077 13.7531C34.7345 13.671 35.8688 12.9518 36.5484 12.9518C36.7101 12.9518 36.8221 12.9933 36.8894 13.0789C36.9349 13.136 36.9498 13.1965 36.9366 13.2673C36.8885 13.5241 36.4906 13.894 35.8452 14.2804C35.5487 14.4584 35.4316 14.8206 35.5671 15.1421C35.7648 15.6097 35.8907 16.3185 35.4088 17.0861L31.8521 15.5985L32.905 13.5171C33.3563 12.6251 34.0646 11.9043 34.9549 11.434L37.2349 10.2265C37.2716 10.2067 37.3127 10.1963 37.3564 10.1963Z" fill="#FEC5A7"/>
<path fill-rule="evenodd" clip-rule="evenodd" d="M37.2811 10.0957C37.2527 10.0957 37.227 10.1027 37.2043 10.1156L37.2036 10.116L35.0028 11.3372L35.0028 11.3373C34.1588 11.8043 33.4875 12.5201 33.0597 13.4061L32.0835 15.4279L35.3664 16.8665C35.7692 16.1461 35.6545 15.4867 35.476 15.0442C35.3295 14.68 35.4559 14.2672 35.7785 14.0642L35.7786 14.0642C36.087 13.8707 36.3335 13.6831 36.5075 13.5138C36.685 13.3411 36.7748 13.1992 36.7929 13.0986C36.8012 13.0514 36.7928 13.0157 36.764 12.9779L36.7637 12.9775C36.7212 12.921 36.6442 12.8827 36.5011 12.8827C36.1951 12.8827 35.7735 13.0551 35.4021 13.2475C35.0352 13.4376 34.7339 13.6382 34.6741 13.6788L34.6735 13.6792L34.6179 13.7162L34.5484 13.7176H34.5476C34.4687 13.7176 34.3927 13.6756 34.3506 13.604C34.3087 13.5333 34.3044 13.4462 34.3404 13.3717C34.3404 13.3716 34.3404 13.3717 34.3404 13.3717L34.6646 12.6993C34.754 12.5146 34.9538 12.3181 35.1866 12.1279C35.4225 11.9353 35.7047 11.7396 35.9719 11.5586C35.9853 11.5495 35.9982 11.5408 36.0107 11.5323C36.0466 11.508 36.0785 11.4864 36.1069 11.4666L36.1073 11.4663C36.9422 10.8902 37.1682 10.6993 37.4147 10.3749C37.4147 10.3749 37.4147 10.3749 37.4147 10.3749L37.4812 10.4288L37.4148 10.3747C37.4148 10.3748 37.4148 10.3749 37.4147 10.3749C37.4486 10.33 37.4589 10.2707 37.4408 10.2144C37.4408 10.2144 37.4408 10.2145 37.4408 10.2144L37.5209 10.1867L37.4408 10.2143C37.4408 10.2143 37.4408 10.2144 37.4408 10.2144C37.4177 10.1434 37.3538 10.0957 37.2811 10.0957ZM37.1236 9.96204C37.1717 9.93484 37.2252 9.9209 37.2811 9.9209C37.4262 9.9209 37.5547 10.0165 37.6009 10.1588L37.6009 10.159C37.6368 10.2705 37.6167 10.3912 37.5477 10.4827L37.5475 10.4829C37.2825 10.8315 37.0357 11.0358 36.2011 11.6117C36.1717 11.6322 36.1384 11.6548 36.1022 11.6793C36.0899 11.6876 36.0774 11.6961 36.0645 11.7048L36.0644 11.7049C35.7972 11.8858 35.5206 12.0778 35.2912 12.2652C35.0587 12.4551 34.8866 12.6309 34.8156 12.7776C34.8156 12.7776 34.8156 12.7776 34.8156 12.7776L34.4915 13.4498C34.4819 13.4695 34.4826 13.4925 34.4946 13.5126L34.4948 13.513C34.505 13.5304 34.525 13.5425 34.547 13.5427L34.5668 13.5423L34.5816 13.5325C34.5817 13.5325 34.5818 13.5324 34.5819 13.5323C34.6451 13.4894 34.9521 13.2852 35.3266 13.0911C35.6973 12.8991 36.1511 12.7079 36.5011 12.7079C36.6702 12.7079 36.8092 12.7535 36.8968 12.8699C36.9557 12.9474 36.9759 13.034 36.9589 13.1301L36.9589 13.1303C36.9305 13.2893 36.805 13.4642 36.6231 13.6412C36.4377 13.8216 36.1807 14.0164 35.8661 14.2137C35.6164 14.3709 35.5167 14.6907 35.6318 14.9769C35.8296 15.4672 35.9566 16.2154 35.4728 17.0227L35.4347 17.0863L31.8521 15.5163L32.9087 13.3279C33.3521 12.4096 34.0483 11.6673 34.9231 11.1831M34.9232 11.1831L37.1232 9.96224C37.1233 9.96217 37.1235 9.96211 37.1236 9.96204" fill="#FF896F"/>
<path d="M13.5038 13.8095C13.5038 13.8095 4.72178 12.7998 2.22322 22.4645C-0.275334 32.1291 0.00985067 32.0577 0.00985067 32.0577C0.00985067 32.0577 -0.275334 35.2311 5.72121 34.654C11.7186 34.077 17.5015 34.1492 17.5015 34.1492L18.0727 29.6772L22.1427 31.1917C22.1427 31.1917 24.0701 34.5096 27.3544 32.3458C30.6387 30.1821 35.4221 16.9106 35.4221 16.9106L31.7096 15.3239L26.0689 26.2871C26.0689 26.2871 27.7826 14.8913 19.5718 14.1698C19.5727 14.1698 16.9311 18.2814 13.5038 13.8095Z" fill="#4D68F4"/>
<path opacity="0.4" fill-rule="evenodd" clip-rule="evenodd" d="M6.31698 27.3528C6.32583 27.3062 6.36997 27.2757 6.41557 27.2848L18.0547 29.5931C18.1003 29.6021 18.1301 29.6472 18.1213 29.6939C18.1124 29.7405 18.0683 29.771 18.0227 29.7619L6.38354 27.4536C6.33794 27.4446 6.30814 27.3995 6.31698 27.3528Z" fill="#1F2B60"/>
<path opacity="0.4" fill-rule="evenodd" clip-rule="evenodd" d="M9.25886 21.772C9.30632 21.777 9.34062 21.819 9.33547 21.8656L8.68459 27.7587C8.67944 27.8053 8.63679 27.839 8.58933 27.834C8.54187 27.8289 8.50757 27.787 8.51272 27.7404L9.1636 21.8473C9.16875 21.8006 9.2114 21.7669 9.25886 21.772Z" fill="#1F2B60"/>
<path opacity="0.4" fill-rule="evenodd" clip-rule="evenodd" d="M23.0041 22.0473C23.0417 22.0521 23.069 22.094 23.0651 22.1409L22.378 30.5135C22.3741 30.5604 22.3406 30.5945 22.303 30.5897C22.2655 30.5849 22.2382 30.543 22.2421 30.4961L22.9292 22.1235C22.9331 22.0766 22.9666 22.0425 23.0041 22.0473Z" fill="#1F2B60"/>
<path d="M25.0884 31.2737C23.6439 30.504 18.152 29.4883 18.152 29.4883L17.5737 34.0993C18.8028 34.3916 21.3324 33.7337 22.7062 33.5871C24.08 33.4405 24.1154 33.4771 25.0919 33.5138C26.1968 33.5548 25.6055 32.6315 25.6055 32.6315C25.6055 32.6315 25.9589 32.416 25.6702 32.1228C25.6693 32.1228 26.2416 31.8889 25.0884 31.2737Z" fill="#FEC5A7"/>
<path d="M25.5366 32.7953C25.5366 32.7953 24.4229 32.0449 21.6924 32.2953L25.5366 32.7953Z" fill="#FEC5A7"/>
<path fill-rule="evenodd" clip-rule="evenodd" d="M25.4997 32.6138C25.4998 32.6138 25.4998 32.6138 25.4527 32.6961L25.4998 32.6138C25.5382 32.6446 25.5482 32.7064 25.5222 32.7519C25.4962 32.7973 25.4441 32.8092 25.4057 32.7785L25.4057 32.7784M25.4057 32.7784L25.4056 32.7783L25.4039 32.7771C25.4023 32.7758 25.3997 32.7738 25.3959 32.7711C25.3885 32.7656 25.3768 32.7573 25.3607 32.7465C25.3285 32.7251 25.2789 32.6941 25.2108 32.6575C25.0746 32.5842 24.8646 32.4882 24.5731 32.4006C23.9903 32.2255 23.0808 32.0837 21.784 32.2254C21.7379 32.2304 21.697 32.1902 21.6927 32.1356C21.6885 32.0809 21.7224 32.0325 21.7686 32.0275C23.083 31.8838 24.0118 32.0269 24.6144 32.2079C24.9156 32.2984 25.1351 32.3984 25.2802 32.4765C25.3528 32.5155 25.4067 32.5491 25.443 32.5733C25.4612 32.5854 25.4749 32.5952 25.4843 32.6021C25.489 32.6056 25.4927 32.6083 25.4952 32.6103L25.4983 32.6127L25.4993 32.6134L25.4996 32.6137L25.4997 32.6138" fill="#FF896F"/>
<path d="M25.537 32.244C25.537 32.244 24.3431 31.2538 21.9673 31.1416L25.537 32.244Z" fill="#FEC5A7"/>
<path fill-rule="evenodd" clip-rule="evenodd" d="M21.9674 31.2174C21.9696 31.1737 22.0112 31.1397 22.0604 31.1417C23.2915 31.1902 24.2181 31.4283 24.8383 31.6554C25.1484 31.769 25.3817 31.8797 25.5382 31.9625C25.6165 32.0039 25.6755 32.0383 25.7154 32.0626C25.7353 32.0747 25.7504 32.0843 25.7606 32.091C25.7658 32.0944 25.7697 32.097 25.7725 32.0988L25.7757 32.101L25.7766 32.1016L25.7769 32.1018L25.777 32.1019C25.777 32.1019 25.7771 32.102 25.7224 32.1646L25.7771 32.102C25.816 32.1289 25.823 32.1787 25.7928 32.2133C25.7626 32.2479 25.7066 32.2542 25.6677 32.2273L25.6677 32.2273L25.6677 32.2273L25.6673 32.227L25.6651 32.2255C25.663 32.2242 25.6598 32.222 25.6554 32.2191C25.6465 32.2134 25.6329 32.2047 25.6145 32.1934C25.5777 32.171 25.5219 32.1385 25.4471 32.0989C25.2975 32.0197 25.0719 31.9126 24.7704 31.8022C24.1677 31.5815 23.2613 31.3478 22.0525 31.3002C22.0033 31.2983 21.9652 31.2612 21.9674 31.2174Z" fill="#FF896F"/>
<path d="M18.0015 12.6984L16.4756 12.126C16.4756 12.126 16.6212 13.7795 18.9469 13.7795C18.9469 13.7795 18.0743 13.1434 18.0015 12.6984Z" fill="#FF896F"/>
<path opacity="0.1" d="M0.4109 30.0391C0.4109 30.0391 0.0927225 32.6166 3.37489 32.8323C6.65705 33.0489 17.5738 33.5534 17.5738 33.5534L17.5023 34.2745C17.5023 34.2745 14.1614 33.8792 6.02325 34.6467C-2.26128 35.4279 0.4109 30.0391 0.4109 30.0391Z" fill="black"/>
<g opacity="0.1">
<path opacity="0.1" d="M26.205 26.2292L25.2622 27.8344L26.3606 24.5273L26.205 26.2292Z" fill="black"/>
</g>
<path d="M50.4534 34.9998H44.2095V33.8975H50.4534C50.7947 33.8975 51.0716 34.1417 51.0742 34.4448C51.076 34.7509 50.7973 34.9998 50.4534 34.9998Z" fill="#CFD8E2"/>
<path d="M29.1069 33.8975C29.1069 34.5058 29.6514 34.9998 30.3239 34.9998H44.2094V33.8975H29.1069Z" fill="#CFD8E2"/>
<path d="M44.2092 33.8975H29.1558L25.5584 22.3611C25.4673 22.0693 25.68 21.7715 25.9786 21.7715H40.1056C40.2979 21.7715 40.468 21.8986 40.5259 22.0859L44.2092 33.8975Z" fill="#CFD8E2"/>
<path d="M12.1531 5.7874H3.22377C2.3527 5.7874 1.64746 5.05109 1.64746 4.14359V1.64381C1.64746 0.736308 2.3527 0 3.22377 0H12.1531C13.0242 0 13.7294 0.736308 13.7294 1.64381V4.14272C13.7294 5.05109 13.0234 5.7874 12.1531 5.7874Z" fill="#CFD8E2"/>
<path d="M12.2196 1.65352H3.15743C3.08204 1.65352 3.02051 1.59141 3.02051 1.51572C3.02051 1.43933 3.08204 1.37793 3.15743 1.37793H12.2196C12.295 1.37793 12.3566 1.44004 12.3566 1.51572C12.3566 1.59141 12.295 1.65352 12.2196 1.65352Z" fill="white"/>
<path d="M12.2196 4.13399H3.15743C3.08204 4.13399 3.02051 4.07187 3.02051 3.99619C3.02051 3.9198 3.08204 3.8584 3.15743 3.8584H12.2196C12.295 3.8584 12.3566 3.92051 12.3566 3.99619C12.3566 4.07187 12.295 4.13399 12.2196 4.13399Z" fill="white"/>
<path d="M5.6292 3.03165H3.70717C3.63154 3.03165 3.56982 2.90742 3.56982 2.75606C3.56982 2.60327 3.63154 2.48047 3.70717 2.48047H5.6292C5.70483 2.48047 5.76655 2.6047 5.76655 2.75606C5.76568 2.90742 5.70483 3.03165 5.6292 3.03165Z" fill="white"/>
<path d="M11.6748 3.03165H6.44886C6.37566 3.03165 6.31592 2.90742 6.31592 2.75606C6.31592 2.60327 6.37566 2.48047 6.44886 2.48047H11.6748C11.748 2.48047 11.8077 2.6047 11.8077 2.75606C11.8077 2.90742 11.748 3.03165 11.6748 3.03165Z" fill="white"/>
<path d="M64.0497 6.06279H55.1212C54.2502 6.06279 53.5449 5.32637 53.5449 4.41873V1.91945C53.5449 1.01094 54.251 0.275391 55.1212 0.275391H64.0506C64.9217 0.275391 65.6269 1.01181 65.6269 1.91945V4.41873C65.6269 5.32637 64.9208 6.06279 64.0497 6.06279Z" fill="#CFD8E2"/>
<path d="M64.1171 2.2045H55.0549C54.9795 2.2045 54.918 2.08027 54.918 1.92891C54.918 1.77612 54.9795 1.65332 55.0549 1.65332H64.1171C64.1925 1.65332 64.254 1.77755 64.254 1.92891C64.2532 2.08027 64.1925 2.2045 64.1171 2.2045Z" fill="white"/>
<path d="M64.1171 4.40938H55.0549C54.9795 4.40938 54.918 4.34726 54.918 4.27158C54.918 4.19519 54.9795 4.13379 55.0549 4.13379H64.1171C64.1925 4.13379 64.254 4.1959 64.254 4.27158C64.2532 4.34726 64.1925 4.40938 64.1171 4.40938Z" fill="white"/>
<path d="M57.5258 3.30704H55.6046C55.529 3.30704 55.4673 3.18281 55.4673 3.03145C55.4673 2.87866 55.529 2.75586 55.6046 2.75586H57.5267C57.6023 2.75586 57.664 2.88009 57.664 3.03145C57.6631 3.18424 57.6014 3.30704 57.5258 3.30704Z" fill="white"/>
<path d="M63.5722 3.30704H58.3463C58.2731 3.30704 58.2134 3.18281 58.2134 3.03145C58.2134 2.87866 58.2731 2.75586 58.3463 2.75586H63.5722C63.6454 2.75586 63.7052 2.88009 63.7052 3.03145C63.7043 3.18424 63.6454 3.30704 63.5722 3.30704Z" fill="white"/>
</svg>
