<svg width="49" height="48" viewBox="0 0 49 48" fill="none" xmlns="http://www.w3.org/2000/svg">
<path d="M15.7544 9.35969C15.6026 9.51147 15.4874 9.69441 15.3912 9.89497L15.3803 9.88413L0.181073 44.1231L0.195979 44.138C-0.0858901 44.6841 0.385699 45.7954 1.35191 46.7629C2.31813 47.7291 3.42935 48.2007 3.97547 47.9189L3.98902 47.9324L38.228 32.7318L38.2172 32.7196C38.4164 32.6247 38.5993 32.5096 38.7524 32.3551C40.8692 30.2383 37.4366 23.3746 31.0878 17.0244C24.7362 10.6742 17.8724 7.24296 15.7544 9.35969Z" fill="#DD2E44"/>
<path d="M17.6163 15.4746L0.563222 43.2631L0.181073 44.1236L0.195979 44.1385C-0.0858901 44.6847 0.385699 45.7959 1.35191 46.7635C1.66631 47.0778 1.9929 47.3164 2.31271 47.5183L23.0369 22.2503L17.6163 15.4746Z" fill="#EA596E"/>
<path d="M31.1841 16.919C37.5126 23.2502 41.0265 29.9988 39.029 31.9936C37.0329 33.9911 30.2843 30.4785 23.9517 24.15C17.6218 17.8188 14.1093 11.0675 16.1054 9.07137C18.1029 7.07525 24.8515 10.5878 31.1841 16.919Z" fill="#A0041E"/>
<path d="M25.1919 17.6548C24.9222 17.8729 24.5699 17.9868 24.1972 17.9461C23.021 17.8187 22.0317 17.4095 21.3392 16.7631C20.6061 16.0787 20.2443 15.16 20.3432 14.2398C20.5166 12.6245 22.1374 11.142 24.9005 11.4401C25.9752 11.5553 26.4549 11.2097 26.4711 11.0444C26.4901 10.8804 26.0958 10.44 25.0211 10.3235C23.8449 10.1961 22.8556 9.78682 22.1618 9.14042C21.4287 8.45608 21.0655 7.53729 21.1658 6.61715C21.3419 5.00182 22.9613 3.5193 25.7217 3.81878C26.505 3.9028 26.9183 3.74154 27.0931 3.63719C27.2327 3.55182 27.2883 3.47051 27.2937 3.42308C27.31 3.25911 26.921 2.81869 25.8437 2.70215C25.0997 2.62084 24.5604 1.95411 24.6431 1.20878C24.723 0.46481 25.3884 -0.0731812 26.1351 0.00812724C28.8955 0.304903 30.1639 2.09775 29.9891 3.71444C29.8129 5.33248 28.1935 6.81229 25.4304 6.51551C24.6471 6.43014 24.2379 6.59276 24.0617 6.6971C23.9221 6.78112 23.8652 6.86378 23.8598 6.90986C23.8422 7.07519 24.2338 7.51425 25.3111 7.63079C28.0716 7.92893 29.34 9.72042 29.1652 11.3371C28.9903 12.9524 27.371 14.435 24.6092 14.1355C23.8259 14.0515 23.4139 14.2141 23.2378 14.3171C23.0968 14.4038 23.0426 14.4851 23.0372 14.5312C23.0196 14.6951 23.4112 15.1356 24.4872 15.2521C25.2298 15.3334 25.7705 16.0015 25.6879 16.7455C25.6499 17.1168 25.4616 17.4379 25.1919 17.6548Z" fill="#AA8DD8"/>
<path d="M41.5501 30.1866C44.2238 29.4318 46.0682 30.6243 46.5073 32.1895C46.9463 33.7533 45.995 35.7332 43.3227 36.4853C42.2792 36.778 41.9662 37.2767 42.0082 37.4353C42.0543 37.5952 42.5841 37.8581 43.6249 37.564C46.2972 36.8119 48.1416 38.0044 48.5806 39.5682C49.0224 41.1334 48.0684 43.1106 45.3947 43.864C44.3526 44.1567 44.0382 44.6568 44.0843 44.8153C44.129 44.9739 44.6575 45.2368 45.6996 44.9441C46.4178 44.7422 47.1686 45.1609 47.3705 45.8805C47.571 46.6014 47.1523 47.3495 46.4314 47.5527C43.7604 48.3048 41.9147 47.115 41.4729 45.5485C41.0338 43.9846 41.9865 42.0075 44.6616 41.254C45.705 40.96 46.018 40.4626 45.972 40.3027C45.9286 40.1442 45.4001 39.8799 44.3594 40.1726C41.6843 40.9261 39.8413 39.7363 39.4009 38.1684C38.9605 36.6045 39.9131 34.6274 42.5868 33.8726C43.6276 33.5812 43.9406 33.0798 43.8973 32.9226C43.8512 32.7627 43.324 32.4998 42.2819 32.7925C41.561 32.9958 40.8143 32.5757 40.611 31.8561C40.4091 31.1379 40.8292 30.3899 41.5501 30.1866Z" fill="#77B255"/>
<path d="M31.1694 26.5319C30.771 26.5319 30.378 26.357 30.1097 26.0237C29.6421 25.4383 29.7384 24.5859 30.3211 24.1184C30.6165 23.8812 37.6632 18.3468 47.6221 19.7711C48.3634 19.8768 48.8784 20.5625 48.7727 21.3037C48.667 22.0436 47.9867 22.564 47.2386 22.4529C38.4397 21.2034 32.0787 26.1849 32.0163 26.2351C31.7643 26.4356 31.4662 26.5319 31.1694 26.5319Z" fill="#AA8DD8"/>
<path d="M7.79741 20.8953C7.66867 20.8953 7.53722 20.8763 7.40713 20.8384C6.69026 20.6229 6.28372 19.8681 6.49918 19.1512C8.03456 14.0383 9.42629 5.87899 7.7161 3.75142C7.52503 3.5102 7.23638 3.27305 6.57507 3.32319C5.30395 3.42076 5.42456 6.10258 5.42591 6.12969C5.48283 6.87637 4.9218 7.52684 4.17647 7.5824C3.41895 7.62847 2.77932 7.07829 2.72376 6.3316C2.58418 4.46286 3.16554 0.86361 6.3718 0.62104C7.80283 0.512629 8.99129 1.00997 9.83012 2.05342C13.0432 6.05244 9.78134 17.6457 9.09563 19.9304C8.91947 20.5172 8.38012 20.8953 7.79741 20.8953Z" fill="#77B255"/>
<path d="M34.5561 14.1191C35.6788 14.1191 36.5889 13.2091 36.5889 12.0864C36.5889 10.9638 35.6788 10.0537 34.5561 10.0537C33.4335 10.0537 32.5234 10.9638 32.5234 12.0864C32.5234 13.2091 33.4335 14.1191 34.5561 14.1191Z" fill="#5C913B"/>
<path d="M2.71028 26.3151C4.20713 26.3151 5.42056 25.1017 5.42056 23.6048C5.42056 22.108 4.20713 20.8945 2.71028 20.8945C1.21343 20.8945 0 22.108 0 23.6048C0 25.1017 1.21343 26.3151 2.71028 26.3151Z" fill="#9266CC"/>
<path d="M44.0421 27.6709C45.1647 27.6709 46.0748 26.7608 46.0748 25.6382C46.0748 24.5155 45.1647 23.6055 44.0421 23.6055C42.9195 23.6055 42.0094 24.5155 42.0094 25.6382C42.0094 26.7608 42.9195 27.6709 44.0421 27.6709Z" fill="#5C913B"/>
<path d="M31.8458 43.9326C32.9685 43.9326 33.8785 43.0225 33.8785 41.8999C33.8785 40.7773 32.9685 39.8672 31.8458 39.8672C30.7232 39.8672 29.8131 40.7773 29.8131 41.8999C29.8131 43.0225 30.7232 43.9326 31.8458 43.9326Z" fill="#5C913B"/>
<path d="M37.9439 7.34341C39.4408 7.34341 40.6542 6.12998 40.6542 4.63313C40.6542 3.13629 39.4408 1.92285 37.9439 1.92285C36.4471 1.92285 35.2336 3.13629 35.2336 4.63313C35.2336 6.12998 36.4471 7.34341 37.9439 7.34341Z" fill="#FFCC4D"/>
<path d="M44.0421 12.7637C45.1647 12.7637 46.0748 11.8536 46.0748 10.731C46.0748 9.60832 45.1647 8.69824 44.0421 8.69824C42.9195 8.69824 42.0094 9.60832 42.0094 10.731C42.0094 11.8536 42.9195 12.7637 44.0421 12.7637Z" fill="#FFCC4D"/>
<path d="M39.9767 18.1846C41.0993 18.1846 42.0094 17.2745 42.0094 16.1519C42.0094 15.0292 41.0993 14.1191 39.9767 14.1191C38.854 14.1191 37.944 15.0292 37.944 16.1519C37.944 17.2745 38.854 18.1846 39.9767 18.1846Z" fill="#FFCC4D"/>
<path d="M10.1636 33.0908C11.2862 33.0908 12.1963 32.1807 12.1963 31.0581C12.1963 29.9355 11.2862 29.0254 10.1636 29.0254C9.04094 29.0254 8.13086 29.9355 8.13086 31.0581C8.13086 32.1807 9.04094 33.0908 10.1636 33.0908Z" fill="#FFCC4D"/>
</svg>
