<svg width="294" height="196" viewBox="0 0 294 196" fill="none" xmlns="http://www.w3.org/2000/svg">
<path d="M152.146 46.5115C152.146 46.5115 160.021 39.1454 162.363 40.6186C164.704 42.0918 161.171 44.0281 161.554 46.0064C161.937 47.9847 152.146 46.5115 152.146 46.5115Z" fill="#FEC0D9"/>
<path d="M281.612 48.2901L169.498 60.2178C164.155 60.7776 159.366 56.8591 158.812 51.455C158.259 46.051 162.133 41.2067 167.476 40.6469L279.59 28.7192C284.933 28.1595 289.722 32.0779 290.276 37.482C290.808 42.886 286.934 47.7303 281.612 48.2901Z" fill="#D6D4D4"/>
<path d="M172.357 43.2754C175.859 43.2754 178.695 46.1114 178.695 49.6134C178.695 53.1154 175.859 55.9513 172.357 55.9513C168.856 55.9513 166.02 53.1154 166.02 49.6134C166.02 46.1114 168.856 43.2754 172.357 43.2754ZM172.357 42.6309C168.512 42.6309 165.375 45.7676 165.375 49.6134C165.375 53.4591 168.512 56.5959 172.357 56.5959C176.203 56.5959 179.34 53.4591 179.34 49.6134C179.34 45.7676 176.203 42.6309 172.357 42.6309Z" fill="white"/>
<path fill-rule="evenodd" clip-rule="evenodd" d="M177.135 47.5448L171.383 52.921L169.05 50.2094L169.521 49.757L171.431 51.9776L176.713 47.041L177.135 47.5448Z" fill="white"/>
<path d="M284.263 19.845H171.435C166.067 19.845 161.699 15.394 161.699 9.9225C161.699 4.45101 166.067 0 171.435 0H284.263C289.632 0 293.999 4.45101 293.999 9.9225C293.999 15.394 289.653 19.845 284.263 19.845Z" fill="#D6D4D4"/>
<path fill-rule="evenodd" clip-rule="evenodd" d="M171.707 83.6854C171.081 83.6854 170.469 83.7464 169.878 83.8629C169.706 83.8968 169.538 83.7858 169.504 83.615C169.47 83.4441 169.582 83.2782 169.754 83.2443C170.386 83.1199 171.039 83.0547 171.707 83.0547H173.866C174.042 83.0547 174.184 83.1959 174.184 83.37C174.184 83.5442 174.042 83.6854 173.866 83.6854H171.707ZM177.867 83.37C177.867 83.1959 178.009 83.0547 178.185 83.0547H182.503C182.679 83.0547 182.821 83.1959 182.821 83.37C182.821 83.5442 182.679 83.6854 182.503 83.6854H178.185C178.009 83.6854 177.867 83.5442 177.867 83.37ZM186.504 83.37C186.504 83.1959 186.646 83.0547 186.822 83.0547H191.141C191.316 83.0547 191.459 83.1959 191.459 83.37C191.459 83.5442 191.316 83.6854 191.141 83.6854H186.822C186.646 83.6854 186.504 83.5442 186.504 83.37ZM195.141 83.37C195.141 83.1959 195.284 83.0547 195.459 83.0547H199.778C199.954 83.0547 200.096 83.1959 200.096 83.37C200.096 83.5442 199.954 83.6854 199.778 83.6854H195.459C195.284 83.6854 195.141 83.5442 195.141 83.37ZM203.779 83.37C203.779 83.1959 203.921 83.0547 204.097 83.0547H208.415C208.591 83.0547 208.733 83.1959 208.733 83.37C208.733 83.5442 208.591 83.6854 208.415 83.6854H204.097C203.921 83.6854 203.779 83.5442 203.779 83.37ZM212.416 83.37C212.416 83.1959 212.558 83.0547 212.734 83.0547H217.053C217.228 83.0547 217.371 83.1959 217.371 83.37C217.371 83.5442 217.228 83.6854 217.053 83.6854H212.734C212.558 83.6854 212.416 83.5442 212.416 83.37ZM221.053 83.37C221.053 83.1959 221.196 83.0547 221.371 83.0547H225.69C225.866 83.0547 226.008 83.1959 226.008 83.37C226.008 83.5442 225.866 83.6854 225.69 83.6854H221.371C221.196 83.6854 221.053 83.5442 221.053 83.37ZM229.691 83.37C229.691 83.1959 229.833 83.0547 230.009 83.0547H234.327C234.503 83.0547 234.645 83.1959 234.645 83.37C234.645 83.5442 234.503 83.6854 234.327 83.6854H230.009C229.833 83.6854 229.691 83.5442 229.691 83.37ZM238.328 83.37C238.328 83.1959 238.47 83.0547 238.646 83.0547H242.965C243.14 83.0547 243.283 83.1959 243.283 83.37C243.283 83.5442 243.14 83.6854 242.965 83.6854H238.646C238.47 83.6854 238.328 83.5442 238.328 83.37ZM246.965 83.37C246.965 83.1959 247.108 83.0547 247.283 83.0547H251.602C251.778 83.0547 251.92 83.1959 251.92 83.37C251.92 83.5442 251.778 83.6854 251.602 83.6854H247.283C247.108 83.6854 246.965 83.5442 246.965 83.37ZM255.603 83.37C255.603 83.1959 255.745 83.0547 255.921 83.0547H260.239C260.415 83.0547 260.557 83.1959 260.557 83.37C260.557 83.5442 260.415 83.6854 260.239 83.6854H255.921C255.745 83.6854 255.603 83.5442 255.603 83.37ZM264.24 83.37C264.24 83.1959 264.382 83.0547 264.558 83.0547H268.877C269.052 83.0547 269.195 83.1959 269.195 83.37C269.195 83.5442 269.052 83.6854 268.877 83.6854H264.558C264.382 83.6854 264.24 83.5442 264.24 83.37ZM272.877 83.37C272.877 83.1959 273.02 83.0547 273.195 83.0547H277.514C277.69 83.0547 277.832 83.1959 277.832 83.37C277.832 83.5442 277.69 83.6854 277.514 83.6854H273.195C273.02 83.6854 272.877 83.5442 272.877 83.37ZM281.515 83.37C281.515 83.1959 281.657 83.0547 281.833 83.0547H283.992C284.66 83.0547 285.312 83.1199 285.944 83.2443C286.117 83.2782 286.228 83.4441 286.194 83.615C286.16 83.7858 285.993 83.8968 285.82 83.8629C285.229 83.7464 284.618 83.6854 283.992 83.6854H281.833C281.657 83.6854 281.515 83.5442 281.515 83.37ZM289.109 84.8156C289.207 84.6709 289.404 84.6323 289.55 84.7292C290.64 85.4538 291.58 86.3851 292.31 87.4662C292.408 87.6108 292.369 87.8067 292.223 87.9037C292.077 88.0006 291.88 87.962 291.782 87.8173C291.097 86.8045 290.217 85.9319 289.196 85.2531C289.05 85.1561 289.011 84.9603 289.109 84.8156ZM166.59 84.8156C166.687 84.9603 166.648 85.1561 166.503 85.2531C165.481 85.9319 164.601 86.8045 163.916 87.8173C163.819 87.962 163.621 88.0006 163.475 87.9037C163.329 87.8067 163.29 87.6108 163.388 87.4662C164.119 86.3851 165.058 85.4538 166.148 84.7292C166.294 84.6323 166.492 84.6709 166.59 84.8156ZM293.434 90.7935C293.606 90.7596 293.774 90.8706 293.808 91.0414C293.933 91.6679 293.999 92.3152 293.999 92.9772C293.999 93.6393 293.934 94.2868 293.809 94.9134C293.775 95.0843 293.607 95.1954 293.435 95.1616C293.263 95.1278 293.151 94.9619 293.185 94.7911C293.302 94.2045 293.363 93.598 293.363 92.9772C293.363 92.3567 293.302 91.7505 293.184 91.1642C293.15 90.9934 293.262 90.8274 293.434 90.7935ZM162.264 90.7935C162.437 90.8274 162.548 90.9934 162.514 91.1642C162.397 91.7505 162.335 92.3567 162.335 92.9772C162.335 93.5977 162.397 94.2039 162.514 94.7902C162.548 94.961 162.437 95.127 162.264 95.1609C162.092 95.1948 161.925 95.0838 161.89 94.913C161.765 94.2865 161.699 93.6392 161.699 92.9772C161.699 92.3152 161.765 91.6679 161.89 91.0414C161.925 90.8706 162.092 90.7596 162.264 90.7935ZM163.475 98.0507C163.621 97.9537 163.819 97.9924 163.916 98.1371C164.601 99.1498 165.481 100.022 166.503 100.701C166.648 100.798 166.687 100.994 166.59 101.139C166.492 101.283 166.294 101.322 166.148 101.225C165.058 100.501 164.119 99.5693 163.388 98.4882C163.29 98.3435 163.329 98.1477 163.475 98.0507ZM292.227 98.0536C292.372 98.1505 292.412 98.3463 292.314 98.491C291.584 99.5729 290.645 100.505 289.553 101.229C289.407 101.326 289.21 101.287 289.112 101.143C289.014 100.998 289.053 100.802 289.199 100.705C290.222 100.027 291.101 99.1537 291.785 98.1403C291.883 97.9956 292.081 97.9568 292.227 98.0536ZM169.504 102.339C169.538 102.169 169.706 102.058 169.878 102.092C170.469 102.208 171.081 102.269 171.707 102.269H173.866C174.041 102.269 174.184 102.41 174.184 102.584C174.184 102.759 174.041 102.9 173.866 102.9H171.707C171.039 102.9 170.386 102.834 169.754 102.71C169.582 102.676 169.47 102.51 169.504 102.339ZM286.195 102.341C286.229 102.512 286.117 102.677 285.945 102.711C285.313 102.835 284.66 102.9 283.992 102.9H281.833C281.657 102.9 281.515 102.759 281.515 102.584C281.515 102.41 281.657 102.269 281.833 102.269H283.992C284.619 102.269 285.23 102.208 285.821 102.092C285.994 102.059 286.161 102.17 286.195 102.341ZM177.866 102.584C177.866 102.41 178.009 102.269 178.185 102.269H182.503C182.679 102.269 182.821 102.41 182.821 102.584C182.821 102.759 182.679 102.9 182.503 102.9H178.185C178.009 102.9 177.866 102.759 177.866 102.584ZM186.504 102.584C186.504 102.41 186.646 102.269 186.822 102.269H191.141C191.316 102.269 191.459 102.41 191.459 102.584C191.459 102.759 191.316 102.9 191.141 102.9H186.822C186.646 102.9 186.504 102.759 186.504 102.584ZM195.141 102.584C195.141 102.41 195.284 102.269 195.459 102.269H199.778C199.954 102.269 200.096 102.41 200.096 102.584C200.096 102.759 199.954 102.9 199.778 102.9H195.459C195.284 102.9 195.141 102.759 195.141 102.584ZM203.779 102.584C203.779 102.41 203.921 102.269 204.097 102.269H208.415C208.591 102.269 208.733 102.41 208.733 102.584C208.733 102.759 208.591 102.9 208.415 102.9H204.097C203.921 102.9 203.779 102.759 203.779 102.584ZM212.416 102.584C212.416 102.41 212.558 102.269 212.734 102.269H217.053C217.228 102.269 217.371 102.41 217.371 102.584C217.371 102.759 217.228 102.9 217.053 102.9H212.734C212.558 102.9 212.416 102.759 212.416 102.584ZM221.053 102.584C221.053 102.41 221.196 102.269 221.371 102.269H225.69C225.866 102.269 226.008 102.41 226.008 102.584C226.008 102.759 225.866 102.9 225.69 102.9H221.371C221.196 102.9 221.053 102.759 221.053 102.584ZM229.691 102.584C229.691 102.41 229.833 102.269 230.009 102.269H234.327C234.503 102.269 234.645 102.41 234.645 102.584C234.645 102.759 234.503 102.9 234.327 102.9H230.009C229.833 102.9 229.691 102.759 229.691 102.584ZM238.328 102.584C238.328 102.41 238.47 102.269 238.646 102.269H242.965C243.14 102.269 243.283 102.41 243.283 102.584C243.283 102.759 243.14 102.9 242.965 102.9H238.646C238.47 102.9 238.328 102.759 238.328 102.584ZM246.965 102.584C246.965 102.41 247.108 102.269 247.283 102.269H251.602C251.778 102.269 251.92 102.41 251.92 102.584C251.92 102.759 251.778 102.9 251.602 102.9H247.283C247.108 102.9 246.965 102.759 246.965 102.584ZM255.603 102.584C255.603 102.41 255.745 102.269 255.921 102.269H260.239C260.415 102.269 260.557 102.41 260.557 102.584C260.557 102.759 260.415 102.9 260.239 102.9H255.921C255.745 102.9 255.603 102.759 255.603 102.584ZM264.24 102.584C264.24 102.41 264.382 102.269 264.558 102.269H268.877C269.052 102.269 269.195 102.41 269.195 102.584C269.195 102.759 269.052 102.9 268.877 102.9H264.558C264.382 102.9 264.24 102.759 264.24 102.584ZM272.877 102.584C272.877 102.41 273.02 102.269 273.195 102.269H277.514C277.69 102.269 277.832 102.41 277.832 102.584C277.832 102.759 277.69 102.9 277.514 102.9H273.195C273.02 102.9 272.877 102.759 272.877 102.584Z" fill="#D6D4D4"/>
<path fill-rule="evenodd" clip-rule="evenodd" d="M171.707 41.7908C171.081 41.7908 170.469 41.8519 169.878 41.9683C169.706 42.0022 169.538 41.8913 169.504 41.7204C169.47 41.5496 169.582 41.3836 169.754 41.3497C170.386 41.2253 171.039 41.1602 171.707 41.1602H173.866C174.042 41.1602 174.184 41.3013 174.184 41.4755C174.184 41.6496 174.042 41.7908 173.866 41.7908H171.707ZM177.867 41.4755C177.867 41.3013 178.009 41.1602 178.185 41.1602H182.503C182.679 41.1602 182.821 41.3013 182.821 41.4755C182.821 41.6496 182.679 41.7908 182.503 41.7908H178.185C178.009 41.7908 177.867 41.6496 177.867 41.4755ZM186.504 41.4755C186.504 41.3013 186.646 41.1602 186.822 41.1602H191.141C191.316 41.1602 191.459 41.3013 191.459 41.4755C191.459 41.6496 191.316 41.7908 191.141 41.7908H186.822C186.646 41.7908 186.504 41.6496 186.504 41.4755ZM195.141 41.4755C195.141 41.3013 195.284 41.1602 195.459 41.1602H199.778C199.954 41.1602 200.096 41.3013 200.096 41.4755C200.096 41.6496 199.954 41.7908 199.778 41.7908H195.459C195.284 41.7908 195.141 41.6496 195.141 41.4755ZM203.779 41.4755C203.779 41.3013 203.921 41.1602 204.097 41.1602H208.415C208.591 41.1602 208.733 41.3013 208.733 41.4755C208.733 41.6496 208.591 41.7908 208.415 41.7908H204.097C203.921 41.7908 203.779 41.6496 203.779 41.4755ZM212.416 41.4755C212.416 41.3013 212.558 41.1602 212.734 41.1602H217.053C217.228 41.1602 217.371 41.3013 217.371 41.4755C217.371 41.6496 217.228 41.7908 217.053 41.7908H212.734C212.558 41.7908 212.416 41.6496 212.416 41.4755ZM221.053 41.4755C221.053 41.3013 221.196 41.1602 221.371 41.1602H225.69C225.866 41.1602 226.008 41.3013 226.008 41.4755C226.008 41.6496 225.866 41.7908 225.69 41.7908H221.371C221.196 41.7908 221.053 41.6496 221.053 41.4755ZM229.691 41.4755C229.691 41.3013 229.833 41.1602 230.009 41.1602H234.327C234.503 41.1602 234.645 41.3013 234.645 41.4755C234.645 41.6496 234.503 41.7908 234.327 41.7908H230.009C229.833 41.7908 229.691 41.6496 229.691 41.4755ZM238.328 41.4755C238.328 41.3013 238.47 41.1602 238.646 41.1602H242.965C243.14 41.1602 243.283 41.3013 243.283 41.4755C243.283 41.6496 243.14 41.7908 242.965 41.7908H238.646C238.47 41.7908 238.328 41.6496 238.328 41.4755ZM246.965 41.4755C246.965 41.3013 247.108 41.1602 247.283 41.1602H251.602C251.778 41.1602 251.92 41.3013 251.92 41.4755C251.92 41.6496 251.778 41.7908 251.602 41.7908H247.283C247.108 41.7908 246.965 41.6496 246.965 41.4755ZM255.603 41.4755C255.603 41.3013 255.745 41.1602 255.921 41.1602H260.239C260.415 41.1602 260.557 41.3013 260.557 41.4755C260.557 41.6496 260.415 41.7908 260.239 41.7908H255.921C255.745 41.7908 255.603 41.6496 255.603 41.4755ZM264.24 41.4755C264.24 41.3013 264.382 41.1602 264.558 41.1602H268.877C269.052 41.1602 269.195 41.3013 269.195 41.4755C269.195 41.6496 269.052 41.7908 268.877 41.7908H264.558C264.382 41.7908 264.24 41.6496 264.24 41.4755ZM272.877 41.4755C272.877 41.3013 273.02 41.1602 273.195 41.1602H277.514C277.69 41.1602 277.832 41.3013 277.832 41.4755C277.832 41.6496 277.69 41.7908 277.514 41.7908H273.195C273.02 41.7908 272.877 41.6496 272.877 41.4755ZM281.515 41.4755C281.515 41.3013 281.657 41.1602 281.833 41.1602H283.992C284.66 41.1602 285.312 41.2253 285.944 41.3497C286.117 41.3836 286.228 41.5496 286.194 41.7204C286.16 41.8913 285.993 42.0022 285.82 41.9683C285.229 41.8519 284.618 41.7908 283.992 41.7908H281.833C281.657 41.7908 281.515 41.6496 281.515 41.4755ZM289.109 42.9211C289.207 42.7764 289.404 42.7377 289.55 42.8347C290.64 43.5593 291.58 44.4906 292.31 45.5716C292.408 45.7163 292.369 45.9122 292.223 46.0091C292.077 46.1061 291.88 46.0674 291.782 45.9228C291.097 44.91 290.217 44.0374 289.196 43.3586C289.05 43.2616 289.011 43.0657 289.109 42.9211ZM166.59 42.9211C166.687 43.0657 166.648 43.2616 166.503 43.3586C165.481 44.0374 164.601 44.91 163.916 45.9228C163.819 46.0674 163.621 46.1061 163.475 46.0091C163.329 45.9122 163.29 45.7163 163.388 45.5716C164.119 44.4906 165.058 43.5593 166.148 42.8347C166.294 42.7377 166.492 42.7764 166.59 42.9211ZM293.434 48.8989C293.606 48.865 293.774 48.976 293.808 49.1468C293.933 49.7733 293.999 50.4207 293.999 51.0827C293.999 51.7448 293.934 52.3923 293.809 53.0189C293.775 53.1897 293.607 53.3009 293.435 53.2671C293.263 53.2333 293.151 53.0674 293.185 52.8965C293.302 52.31 293.363 51.7035 293.363 51.0827C293.363 50.4622 293.302 49.856 293.184 49.2697C293.15 49.0988 293.262 48.9329 293.434 48.8989ZM162.264 48.899C162.437 48.9329 162.548 49.0988 162.514 49.2697C162.397 49.856 162.335 50.4622 162.335 51.0827C162.335 51.7031 162.397 52.3094 162.514 52.8957C162.548 53.0665 162.437 53.2324 162.264 53.2664C162.092 53.3003 161.925 53.1893 161.89 53.0185C161.765 52.392 161.699 51.7446 161.699 51.0827C161.699 50.4207 161.765 49.7733 161.89 49.1468C161.925 48.976 162.092 48.865 162.264 48.899ZM163.475 56.1562C163.621 56.0592 163.819 56.0979 163.916 56.2425C164.601 57.2553 165.481 58.1279 166.503 58.8067C166.648 58.9037 166.687 59.0996 166.59 59.2442C166.492 59.3889 166.294 59.4276 166.148 59.3306C165.058 58.606 164.119 57.6747 163.388 56.5937C163.29 56.449 163.329 56.2531 163.475 56.1562ZM292.227 56.1591C292.372 56.2559 292.412 56.4518 292.314 56.5965C291.584 57.6784 290.645 58.6102 289.553 59.3348C289.407 59.4317 289.21 59.3929 289.112 59.2482C289.014 59.1035 289.053 58.9076 289.199 58.8107C290.222 58.1321 291.101 57.2592 291.785 56.2458C291.883 56.1011 292.081 56.0622 292.227 56.1591ZM169.504 60.4449C169.538 60.2741 169.706 60.1631 169.878 60.197C170.469 60.3134 171.081 60.3745 171.707 60.3745H173.866C174.041 60.3745 174.184 60.5157 174.184 60.6898C174.184 60.864 174.041 61.0052 173.866 61.0052H171.707C171.039 61.0052 170.386 60.94 169.754 60.8156C169.582 60.7817 169.47 60.6157 169.504 60.4449ZM286.195 60.4462C286.229 60.6171 286.117 60.7829 285.945 60.8167C285.313 60.9403 284.66 61.0052 283.992 61.0052H281.833C281.657 61.0052 281.515 60.864 281.515 60.6898C281.515 60.5157 281.657 60.3745 281.833 60.3745H283.992C284.619 60.3745 285.23 60.3137 285.821 60.1979C285.994 60.1642 286.161 60.2754 286.195 60.4462ZM177.866 60.6898C177.866 60.5157 178.009 60.3745 178.185 60.3745H182.503C182.679 60.3745 182.821 60.5157 182.821 60.6898C182.821 60.864 182.679 61.0052 182.503 61.0052H178.185C178.009 61.0052 177.866 60.864 177.866 60.6898ZM186.504 60.6898C186.504 60.5157 186.646 60.3745 186.822 60.3745H191.141C191.316 60.3745 191.459 60.5157 191.459 60.6898C191.459 60.864 191.316 61.0052 191.141 61.0052H186.822C186.646 61.0052 186.504 60.864 186.504 60.6898ZM195.141 60.6898C195.141 60.5157 195.284 60.3745 195.459 60.3745H199.778C199.954 60.3745 200.096 60.5157 200.096 60.6898C200.096 60.864 199.954 61.0052 199.778 61.0052H195.459C195.284 61.0052 195.141 60.864 195.141 60.6898ZM203.779 60.6898C203.779 60.5157 203.921 60.3745 204.097 60.3745H208.415C208.591 60.3745 208.733 60.5157 208.733 60.6898C208.733 60.864 208.591 61.0052 208.415 61.0052H204.097C203.921 61.0052 203.779 60.864 203.779 60.6898ZM212.416 60.6898C212.416 60.5157 212.558 60.3745 212.734 60.3745H217.053C217.228 60.3745 217.371 60.5157 217.371 60.6898C217.371 60.864 217.228 61.0052 217.053 61.0052H212.734C212.558 61.0052 212.416 60.864 212.416 60.6898ZM221.053 60.6898C221.053 60.5157 221.196 60.3745 221.371 60.3745H225.69C225.866 60.3745 226.008 60.5157 226.008 60.6898C226.008 60.864 225.866 61.0052 225.69 61.0052H221.371C221.196 61.0052 221.053 60.864 221.053 60.6898ZM229.691 60.6898C229.691 60.5157 229.833 60.3745 230.009 60.3745H234.327C234.503 60.3745 234.645 60.5157 234.645 60.6898C234.645 60.864 234.503 61.0052 234.327 61.0052H230.009C229.833 61.0052 229.691 60.864 229.691 60.6898ZM238.328 60.6898C238.328 60.5157 238.47 60.3745 238.646 60.3745H242.965C243.14 60.3745 243.283 60.5157 243.283 60.6898C243.283 60.864 243.14 61.0052 242.965 61.0052H238.646C238.47 61.0052 238.328 60.864 238.328 60.6898ZM246.965 60.6898C246.965 60.5157 247.108 60.3745 247.283 60.3745H251.602C251.778 60.3745 251.92 60.5157 251.92 60.6898C251.92 60.864 251.778 61.0052 251.602 61.0052H247.283C247.108 61.0052 246.965 60.864 246.965 60.6898ZM255.603 60.6898C255.603 60.5157 255.745 60.3745 255.921 60.3745H260.239C260.415 60.3745 260.557 60.5157 260.557 60.6898C260.557 60.864 260.415 61.0052 260.239 61.0052H255.921C255.745 61.0052 255.603 60.864 255.603 60.6898ZM264.24 60.6898C264.24 60.5157 264.382 60.3745 264.558 60.3745H268.877C269.052 60.3745 269.195 60.5157 269.195 60.6898C269.195 60.864 269.052 61.0052 268.877 61.0052H264.558C264.382 61.0052 264.24 60.864 264.24 60.6898ZM272.877 60.6898C272.877 60.5157 273.02 60.3745 273.195 60.3745H277.514C277.69 60.3745 277.832 60.5157 277.832 60.6898C277.832 60.864 277.69 61.0052 277.514 61.0052H273.195C273.02 61.0052 272.877 60.864 272.877 60.6898Z" fill="#D6D4D4"/>
<path d="M170.785 154.35L181.545 163.782L168.886 180.075L158.76 169.999L170.785 154.35Z" fill="#FEC0D9"/>
<path d="M137.129 167.265C140.695 170.522 145.055 173.417 149.909 173.46C153.818 173.502 157.533 171.65 160.669 169.33C165.244 165.924 168.895 161.325 171.215 156.152C172.418 153.47 173.255 150.404 172.332 147.594C171.387 144.72 168.809 142.741 166.361 140.952C156.137 133.438 145.935 125.923 135.712 118.408C134.487 117.514 133.027 116.556 131.566 116.961C130.041 117.386 129.29 119.026 128.774 120.516C125.144 130.819 123.104 141.655 122.76 152.554C122.717 153.938 122.717 155.407 123.426 156.621C124.5 158.409 128.345 159.026 130.084 160.516C132.533 162.624 134.724 165.072 137.129 167.265Z" fill="#6BA5BD"/>
<path d="M162.492 189.805C162.407 190.83 162.344 191.898 162.852 192.798C163.656 194.284 165.603 194.661 167.275 194.828C180.334 196.084 186.451 195.142 201.457 195.038C207.214 194.996 216.886 195.226 223.722 195.31C228.357 195.352 232.781 196.294 235.342 193.677C237.289 191.688 236.633 189.533 236.231 186.79C235.321 180.636 229.818 176.01 223.934 173.854C218.05 171.698 211.637 171.468 205.415 170.526C196.801 169.228 188.419 166.57 180.652 162.656C179.636 162.153 178.408 162.53 177.858 163.514C176.8 165.419 174.958 168.056 174.662 168.391C172.821 170.505 170.535 172.222 167.995 173.394C164.566 174.964 163.656 174.21 163.339 178.292C163.064 182.123 162.788 185.974 162.492 189.805Z" fill="#FECF43"/>
<path d="M169.376 181.713C170.626 180.979 171.877 180.244 173.127 179.509C173.742 179.142 174.356 178.796 174.949 178.429C175.519 178.083 176.09 177.738 176.704 177.457C176.572 177.522 176.441 177.565 176.309 177.63C176.572 177.522 176.814 177.457 177.099 177.413C176.945 177.435 176.814 177.457 176.66 177.478C176.879 177.457 177.099 177.457 177.296 177.478C177.143 177.457 177.011 177.435 176.858 177.413C176.989 177.435 177.121 177.457 177.252 177.522C177.121 177.457 176.989 177.413 176.858 177.349C176.923 177.37 176.989 177.413 177.055 177.457C177.165 177.522 177.143 177.5 177.011 177.413C176.879 177.305 176.879 177.305 176.967 177.37C176.989 177.392 177.011 177.413 177.011 177.413C177.121 177.543 177.077 177.478 176.901 177.262C176.923 177.327 176.989 177.392 177.011 177.457C176.945 177.327 176.901 177.197 176.836 177.068C176.879 177.197 176.923 177.305 176.945 177.435C176.923 177.284 176.901 177.154 176.879 177.003C176.879 177.111 176.879 177.197 176.879 177.305C176.901 177.154 176.923 177.025 176.945 176.873C176.923 177.003 176.901 177.111 176.836 177.219C176.901 177.089 176.945 176.96 177.011 176.83C176.967 176.938 176.901 177.068 176.836 177.176C176.814 177.219 176.77 177.262 176.748 177.305C176.945 176.96 176.923 177.089 176.814 177.197C176.638 177.413 176.419 177.586 176.221 177.781C175.782 178.17 175.387 178.559 175.036 179.012C174.181 180.093 173.566 181.238 173.062 182.513C172.491 183.917 173.171 185.668 174.554 186.337C175.278 186.683 176.133 186.813 176.923 186.553C177.165 186.467 177.384 186.381 177.625 186.251C179.644 185.257 181.641 184.241 183.637 183.248C184.383 182.88 185.129 182.513 185.875 182.124C186.643 181.735 186.929 180.611 186.468 179.898C185.963 179.12 185.042 178.904 184.208 179.315C183.264 179.79 182.321 180.244 181.377 180.719C179.863 181.476 178.371 182.21 176.858 182.967C176.506 183.139 176.133 183.334 175.782 183.507C175.914 183.442 176.046 183.399 176.177 183.334C176.046 183.399 175.892 183.442 175.739 183.464C175.892 183.442 176.024 183.42 176.177 183.399C176.068 183.42 175.936 183.42 175.826 183.399C175.98 183.42 176.112 183.442 176.265 183.464C176.133 183.442 176.002 183.42 175.87 183.356C176.002 183.42 176.133 183.464 176.265 183.528C176.177 183.485 176.112 183.442 176.024 183.399C175.804 183.269 176.353 183.701 176.09 183.442C175.826 183.183 176.265 183.723 176.133 183.507C176.09 183.42 176.046 183.356 176.002 183.269C176.068 183.399 176.112 183.528 176.177 183.658C176.133 183.528 176.09 183.399 176.068 183.269C176.09 183.42 176.112 183.55 176.133 183.701C176.133 183.572 176.133 183.464 176.133 183.356C176.112 183.507 176.09 183.636 176.068 183.788C176.112 183.572 176.177 183.377 176.265 183.183C176.199 183.312 176.155 183.442 176.09 183.572C176.331 183.01 176.616 182.448 176.923 181.908C177.077 181.649 177.231 181.411 177.406 181.173C177.428 181.13 177.625 180.892 177.428 181.13C177.252 181.368 177.428 181.13 177.472 181.087C177.582 180.957 177.713 180.827 177.823 180.698C178.218 180.266 178.701 179.92 179.096 179.488C179.688 178.818 180.127 178.062 180.149 177.154C180.171 176.139 179.578 175.209 178.744 174.669C177.933 174.151 176.923 174.108 176.002 174.302C175.3 174.453 174.641 174.799 174.027 175.166C173.369 175.555 172.733 175.923 172.074 176.311C170.604 177.176 169.134 178.04 167.664 178.883C166.918 179.315 166.589 180.352 167.072 181.108C167.62 181.865 168.586 182.189 169.376 181.713Z" fill="#6BA5BD"/>
<path d="M165.081 195.13C183.101 195.236 201.101 195.32 219.122 195.426C224.086 195.447 229.051 195.49 234.016 195.511C237.544 195.532 237.565 190.033 234.016 190.012C215.995 189.906 197.995 189.821 179.975 189.716C175.01 189.694 170.045 189.652 165.081 189.631C161.553 189.61 161.553 195.109 165.081 195.13Z" fill="#6BA5BD"/>
<path d="M196.176 174.155C196.857 172.764 197.538 171.373 198.24 169.982C198.425 169.597 198.508 169.169 198.405 168.741C198.302 168.377 198.033 167.97 197.703 167.778C197.002 167.392 195.97 167.563 195.578 168.355C194.897 169.746 194.216 171.137 193.515 172.528C193.329 172.914 193.246 173.342 193.35 173.77C193.453 174.133 193.721 174.54 194.051 174.733C194.773 175.118 195.784 174.947 196.176 174.155Z" fill="#6BA5BD"/>
<path d="M203.527 174.889C204.208 173.498 204.889 172.107 205.59 170.716C205.776 170.331 205.858 169.903 205.755 169.475C205.652 169.111 205.384 168.704 205.054 168.512C204.352 168.127 203.321 168.298 202.929 169.09C202.248 170.481 201.567 171.872 200.865 173.263C200.68 173.648 200.597 174.076 200.7 174.504C200.803 174.868 201.072 175.274 201.402 175.467C202.124 175.852 203.135 175.681 203.527 174.889Z" fill="#6BA5BD"/>
<path d="M71.2956 161.04L56.9897 162.434L54.3906 142.339L68.6965 141.854L71.2956 161.04Z" fill="#FEC0D9"/>
<path d="M24.9734 90.6949L61.8048 78.6445L66.885 99.0871L14.1145 117.033C8.35693 118.992 2.15486 115.699 0.440291 109.782C-1.21077 104.079 1.92201 98.0757 7.48906 96.2897L24.9734 90.6949Z" fill="#D6D4D4"/>
<path d="M117.333 108.413C121.626 109.499 125.92 110.862 129.703 113.183C133.486 115.483 136.801 118.805 138.395 122.958C140.584 128.623 141.052 135.65 139.373 141.485C137.715 147.171 134.718 152.24 130.808 156.691C126.408 161.716 119.225 164.74 112.7 166.188C106.196 167.658 99.4376 167.679 92.764 167.509C87.1956 167.36 81.6272 167.104 76.08 166.7C74.0397 166.55 71.8293 166.316 70.4053 164.847C69.1301 163.526 68.8325 161.589 68.62 159.757C67.9399 153.517 67.7486 147.214 68.0462 140.932C58.2483 140.676 49.1518 132.903 47.3665 123.256C46.3888 118.039 47.579 112.204 51.3196 108.456C53.9763 105.794 57.6319 104.388 61.2875 103.494C65.857 102.386 70.5966 101.96 75.2936 102.258C79.6293 102.535 83.455 104.132 87.5994 104.793C92.3602 105.559 97.5036 105.048 102.349 105.623C107.408 106.219 112.424 107.156 117.333 108.413Z" fill="#6BA5BD"/>
<path d="M70.5546 114.386C74.1809 116.452 78.1676 117.794 82.218 118.709C86.438 119.668 90.7429 120.157 95.0265 120.583C99.3526 121.009 103.7 121.35 108.026 121.904C112.182 122.458 116.317 123.224 120.283 124.587C121.237 124.907 122.128 125.311 122.955 125.907C123.718 126.461 124.397 127.143 125.054 127.824C125.415 128.186 125.797 128.548 126.157 128.932C126.39 129.166 126.518 129.336 126.708 129.677C127.111 130.38 127.366 131.082 127.578 131.892C128.023 133.531 128.214 135.278 128.066 136.981C128.066 137.067 128.044 137.152 128.044 137.258C128.044 137.28 128.023 137.386 128.044 137.28C128.044 137.322 128.023 137.365 128.023 137.407C128.002 137.578 127.96 137.748 127.917 137.918C127.811 138.344 127.663 138.749 127.472 139.154C127.027 140.048 126.454 140.857 125.775 141.581C124.333 143.157 122.594 144.456 120.728 145.5C118.777 146.586 116.742 147.544 114.663 148.354C110.274 150.079 105.63 151.143 100.922 151.591C95.9172 152.059 90.8913 151.931 85.8655 151.931C80.8608 151.931 75.8137 152.059 70.8727 152.996C69.6852 153.23 68.4976 153.507 67.3313 153.827C66.5466 154.04 66.8859 155.275 67.6706 155.062C72.548 153.699 77.6163 153.316 82.6633 153.252C87.7528 153.166 92.8211 153.358 97.9105 153.103C102.894 152.847 107.793 152.038 112.543 150.483C114.663 149.78 116.72 148.929 118.735 147.97C120.792 146.969 122.785 145.905 124.567 144.478C126.2 143.157 127.79 141.539 128.659 139.601C129.38 138.004 129.444 136.257 129.296 134.511C129.126 132.722 128.744 130.869 127.896 129.272C127.472 128.484 126.878 127.909 126.284 127.292C125.585 126.568 124.885 125.844 124.1 125.226C123.252 124.545 122.34 124.012 121.322 123.65C120.347 123.288 119.329 122.969 118.311 122.67C116.275 122.095 114.197 121.648 112.119 121.265C107.771 120.498 103.361 120.094 98.9708 119.689C94.6236 119.284 90.2551 118.901 85.9503 118.156C81.8363 117.453 77.7223 116.409 73.9052 114.663C72.9933 114.237 72.0815 113.79 71.212 113.279C70.4698 112.874 69.8336 113.982 70.5546 114.386Z" fill="white"/>
<path d="M65.6078 114.967C68.4365 117.76 71.8395 119.786 75.5403 121.193C79.1772 122.579 83.0268 123.325 86.8977 123.816C90.7899 124.306 94.6821 124.541 98.5955 124.796C102.254 125.052 105.869 125.308 109.443 125.99C111.08 126.31 112.654 126.737 114.228 127.27C116.015 127.867 117.822 128.442 119.524 129.274C119.928 129.466 120.311 129.679 120.694 129.914C120.843 130.02 121.013 130.105 121.162 130.233C121.098 130.169 121.289 130.34 121.31 130.361C121.396 130.425 121.459 130.511 121.544 130.575C122.14 131.172 122.587 131.96 122.927 132.771C123.31 133.645 123.565 134.626 123.629 135.564C123.65 136.011 123.65 136.395 123.565 136.758C123.459 137.184 123.374 137.397 123.182 137.76C122.31 139.423 120.843 140.851 119.354 142.003C117.61 143.346 115.547 144.156 113.484 144.86C111.038 145.691 108.507 146.31 105.976 146.885C103.764 147.376 101.552 147.717 99.2974 147.93C94.5332 148.357 89.769 148.335 84.9836 148.421C80.2619 148.506 75.519 148.634 70.8399 149.465C69.7765 149.657 68.7343 149.87 67.6921 150.148C66.9052 150.361 67.2242 151.597 68.0324 151.384C72.5201 150.212 77.178 149.913 81.7933 149.785C86.6638 149.636 91.5343 149.7 96.4048 149.444C98.7657 149.316 101.105 149.103 103.445 148.719C105.869 148.314 108.294 147.738 110.676 147.099C113.207 146.416 115.717 145.585 118.056 144.412C119.8 143.538 121.353 142.195 122.65 140.745C123.905 139.338 125.011 137.696 124.947 135.734C124.862 133.73 124.075 131.641 122.821 130.105C122.268 129.444 121.566 128.954 120.821 128.549C119.928 128.059 118.971 127.675 118.014 127.291C116.355 126.651 114.653 126.076 112.952 125.585C109.485 124.583 105.869 124.178 102.296 123.88C98.4041 123.538 94.4907 123.368 90.5985 123.027C86.7063 122.664 82.8142 122.131 79.0283 121.065C75.3489 120.02 71.8183 118.443 68.7981 116.097C68.0324 115.5 67.288 114.839 66.5862 114.157C65.9268 113.496 65.0123 114.392 65.6078 114.967Z" fill="white"/>
<path d="M40.7218 140.463C38.7533 140.313 36.5709 140.249 35.0946 141.529C33.554 142.852 33.3401 145.136 33.2545 147.163C32.8693 157.363 33.1047 167.584 33.9606 177.762C34.3243 182.137 35.0518 186.98 38.4752 189.754C41.1925 191.952 44.9583 192.251 48.4459 192.464C57.1114 192.977 65.7769 193.467 74.4638 193.979C76.4536 194.086 78.5933 194.171 80.2836 193.126C82.6372 191.675 83.3005 188.517 82.9795 185.785C82.252 179.597 77.1811 174.177 71.0404 173.025C67.7881 172.406 63.9582 172.726 61.6902 170.315C60.5348 169.077 60.0641 167.37 59.6789 165.727C58.0528 158.707 58.6519 151.537 57.3467 144.602C56.3197 139.182 45.0866 140.783 40.7218 140.463Z" fill="#FECF43"/>
<path d="M45.7559 156.882C46.0527 155.76 46.3283 154.638 46.6252 153.517C46.7736 152.956 46.9008 152.416 47.0492 151.855C47.1552 151.398 47.2612 150.941 47.452 150.525C47.3884 150.65 47.346 150.775 47.2824 150.899C47.3248 150.816 47.3672 150.712 47.4096 150.629C47.4308 150.588 47.452 150.546 47.4944 150.505C47.5792 150.38 47.558 150.422 47.3884 150.65C47.452 150.608 47.558 150.505 47.6004 150.442C47.3884 150.608 47.346 150.629 47.4732 150.546C47.5156 150.525 47.558 150.505 47.6216 150.484C47.4944 150.546 47.3672 150.588 47.24 150.65C47.346 150.608 47.452 150.588 47.558 150.567C47.4096 150.588 47.2824 150.608 47.134 150.629C47.2188 150.629 47.2824 150.629 47.3672 150.629C47.2188 150.608 47.0916 150.588 46.9432 150.567C47.0492 150.588 47.1552 150.608 47.2612 150.65C47.134 150.588 47.0068 150.546 46.8796 150.484C46.9432 150.525 47.1128 150.629 46.8796 150.463C46.7736 150.38 46.7312 150.338 46.7948 150.401C46.816 150.422 46.8372 150.442 46.8584 150.463C46.8372 150.463 46.6252 150.11 46.7312 150.297C46.7524 150.359 46.7948 150.401 46.816 150.463C46.7524 150.338 46.71 150.214 46.6464 150.089C46.71 150.235 46.7312 150.38 46.7736 150.525C46.7524 150.38 46.7312 150.255 46.71 150.11C46.7524 150.484 46.7312 150.837 46.71 151.211C46.6888 151.813 46.7524 152.416 46.8584 152.997C46.9432 153.496 47.0916 153.974 47.2612 154.451C47.4732 155.054 47.6852 155.636 48.1304 156.113C48.8937 156.944 50.187 157.173 51.2046 156.736C52.0103 156.404 52.5403 155.781 52.8159 154.971C53.3671 153.351 53.8972 151.709 54.4484 150.068C54.6604 149.445 54.8512 148.843 55.0632 148.22C55.3176 147.451 54.7664 146.475 53.9608 146.308C53.0915 146.122 52.2859 146.558 52.0103 147.389C51.353 149.383 50.6746 151.398 50.0174 153.392C49.9113 153.683 49.8265 153.994 49.6993 154.306C49.7629 154.181 49.8053 154.057 49.8689 153.932C49.8477 153.994 49.7629 154.078 49.7417 154.14C49.7417 154.098 50.0386 153.787 49.8477 153.994C49.6993 154.161 50.187 153.787 49.9962 153.891C49.9325 153.932 49.8689 153.953 49.8053 153.994C49.9325 153.932 50.0598 153.891 50.187 153.828C50.081 153.87 49.975 153.891 49.8689 153.911C50.0174 153.891 50.1446 153.87 50.293 153.849C50.187 153.849 50.081 153.849 49.975 153.849C50.1234 153.87 50.2506 153.891 50.399 153.911C50.3142 153.891 50.2294 153.87 50.1446 153.849C50.2718 153.911 50.399 153.953 50.5262 154.015C50.4626 153.994 50.399 153.953 50.3354 153.911C50.1234 153.787 50.6746 154.202 50.4626 153.994C50.2506 153.787 50.6746 154.327 50.5474 154.098C50.505 154.015 50.4626 153.932 50.4202 153.849C50.4838 153.974 50.5262 154.098 50.5898 154.223C50.2718 153.496 50.0386 152.727 49.9113 151.938C49.9325 152.083 49.9537 152.208 49.975 152.353C49.8477 151.439 50.0174 150.546 49.8477 149.632C49.6145 148.407 48.4485 147.409 47.1552 147.513C45.7135 147.638 44.7807 148.677 44.3142 149.944C43.9962 150.816 43.8054 151.772 43.5722 152.665C43.2754 153.807 42.9786 154.95 42.6817 156.072C42.4697 156.861 42.9362 157.796 43.7842 157.983C44.6323 158.17 45.5439 157.734 45.7559 156.882Z" fill="#6BA5BD"/>
<path d="M34.1927 142.466C33.9602 154 33.2839 165.66 34.5943 177.152C35.2072 182.421 36.4752 188.77 41.8434 191.204C44.295 192.304 46.9368 192.643 49.5997 192.833C52.2415 193.024 54.9045 193.214 57.5463 193.383C65.0913 193.849 72.6574 193.807 80.2024 194.039C81.7452 194.082 83.0555 192.685 83.0555 191.182C83.0555 189.595 81.7452 188.368 80.2024 188.326C73.8832 188.135 67.564 188.135 61.2448 187.86C58.3282 187.733 55.4328 187.479 52.5163 187.31C51.4384 187.246 50.3606 187.204 49.2827 187.119C47.8878 187.013 47.4651 186.992 46.1759 186.696C45.6264 186.569 45.077 186.4 44.5486 186.209C43.7455 185.913 44.8022 186.357 44.3584 186.125C44.1682 186.019 43.9568 185.913 43.7666 185.807C43.7032 185.765 43.048 185.257 43.4919 185.638C43.2805 185.447 43.0903 185.257 42.9001 185.045C42.6676 184.791 42.3506 184.347 42.0547 183.818C41.5475 182.929 41.2516 182.083 40.9557 180.919C40.6599 179.733 40.4485 178.4 40.3428 177.49C39.7088 172.094 39.582 166.634 39.5609 161.195C39.5609 154.952 39.7722 148.73 39.899 142.508C39.9202 140.963 38.5675 139.651 37.0459 139.651C35.4608 139.609 34.2139 140.921 34.1927 142.466Z" fill="#6BA5BD"/>
<path fill-rule="evenodd" clip-rule="evenodd" d="M113.923 131.949C113.946 132.184 113.776 132.393 113.543 132.417C106.873 133.09 100.198 133.763 93.523 134.436C86.8478 135.109 80.1727 135.782 73.5028 136.455L73.4985 136.456C71.8272 136.607 70.2205 136.819 69.0632 137.771C68.9791 137.84 68.8869 137.967 68.8012 138.18C68.7166 138.391 68.6485 138.66 68.5969 138.982C68.4936 139.628 68.4648 140.43 68.4688 141.284C68.4716 141.89 68.4906 142.508 68.5089 143.105C68.5164 143.348 68.5238 143.588 68.5299 143.823C68.5507 144.616 68.5575 145.355 68.495 145.887C68.4675 146.122 68.2566 146.289 68.024 146.261C67.7913 146.234 67.6251 146.021 67.6526 145.787C67.7067 145.326 67.7029 144.649 67.6819 143.845C67.676 143.619 67.6688 143.384 67.6614 143.143C67.6429 142.542 67.6233 141.906 67.6205 141.288C67.6165 140.422 67.6447 139.563 67.7594 138.846C67.8169 138.488 67.8981 138.15 68.015 137.86C68.1308 137.571 68.2925 137.302 68.5266 137.109C69.9136 135.968 71.7839 135.753 73.4205 135.605C80.0896 134.932 86.7641 134.259 93.4385 133.586C100.114 132.913 106.789 132.24 113.459 131.567C113.692 131.543 113.9 131.714 113.923 131.949Z" fill="black"/>
<path d="M55.3852 48.2684L52.9199 63.8738C56.0772 64.4236 60.5752 61.6324 63.6459 60.7232C65.2245 60.258 67.2357 61.8439 67.6682 60.3003C68.1007 58.7566 66.4572 55.902 66.8248 54.2315L71.3228 55.3099C72.4473 55.3945 73.442 54.8024 73.6799 53.9777C74.1773 52.138 74.134 50.4464 73.9827 48.7336C74.1557 48.8182 74.5665 48.8605 74.7612 48.8816C75.2585 48.9451 75.4964 48.5856 75.5397 48.0993C75.864 43.8067 76.383 35.0313 69.7225 34.5449C69.6793 34.5449 68.1223 38.1397 68.0574 38.1397C62.1322 37.7379 56.8124 41.7133 55.5798 47.4014L55.3852 48.2684Z" fill="#FEC0D9"/>
<path d="M80.1048 37.5261C80.2731 35.0629 78.4635 32.9021 76.0647 32.7077C73.6239 32.4916 71.0357 32.2107 69.163 32.4052C65.9856 32.7077 62.5768 32.0811 59.7362 33.5504C57.2532 34.8252 55.7172 37.5261 55.0859 40.2919C54.8124 41.5235 53.7182 52.1543 55.0017 52.9106C55.4647 53.1698 60.4095 47.9193 62.156 47.2711C62.5979 47.0982 62.8293 46.6228 62.7031 46.1691C62.5137 45.4992 61.5668 43.6626 61.7772 42.9712C62.3875 40.832 64.9125 41.3938 64.7231 43.6194C64.7021 43.749 64.66 43.9435 64.5969 44.1164C64.3444 44.8942 64.4285 45.737 64.7862 46.4716L64.8073 46.5364C64.9546 46.8173 65.3754 46.7741 65.4385 46.45C65.8383 44.5485 66.8694 42.7335 68.2582 42.2798C69.205 41.9772 72.7822 41.7396 75.728 41.7612C78.0427 41.7396 79.9575 39.9029 80.1048 37.5261Z" fill="black"/>
<path fill-rule="evenodd" clip-rule="evenodd" d="M133.841 116.943C134.039 116.807 134.314 116.853 134.455 117.046C136.893 120.399 138.127 123.501 138.631 126.79C139.132 130.066 138.906 133.51 138.454 137.532C137.542 145.64 134.161 153.846 127.893 159.384C127.713 159.543 127.434 159.53 127.27 159.356C127.106 159.181 127.119 158.911 127.299 158.752C133.367 153.391 136.683 145.401 137.578 137.439C138.029 133.427 138.243 130.076 137.759 126.915C137.277 123.767 136.098 120.789 133.735 117.539C133.594 117.346 133.642 117.079 133.841 116.943Z" fill="black"/>
<path d="M154.52 67.4268C157.16 67.4054 159.714 66.3129 162.354 66.1844C164.043 66.0987 165.753 66.3343 167.442 66.1201C169.131 65.9059 170.884 65.1561 171.686 63.6566C172.51 62.1571 172.13 59.308 170.504 58.8796C171.813 58.3869 173.523 56.9088 173.565 55.495C173.608 54.0812 172.299 52.2604 171.032 51.682C172.552 51.5106 174.621 52.089 176.141 51.9818C178.021 51.8533 180.005 51.2963 181.061 49.5612C181.547 48.7686 181.694 47.7832 181.378 46.9049C180.787 45.2983 178.168 45.2769 176.669 45.0413C171.56 44.2487 167.675 44.4629 162.502 44.163C152.24 43.5417 136.446 47.4833 130.83 56.2233L137.967 67.6196C139.804 66.5271 141.746 65.5845 143.773 64.9847C145.336 64.5349 147.004 64.8777 148.292 65.8845C149.284 66.6557 151.163 67.4697 154.52 67.4268Z" fill="#FEC0D9"/>
<path d="M84.567 97.1785C86.1325 99.9892 87.7826 103.673 85.7517 106.186C84.9267 107.208 83.6785 107.719 82.4726 108.23C73.8836 111.743 65.3157 115.257 56.7267 118.77C54.6746 119.622 52.5591 120.473 50.3378 120.537C48.1165 120.601 45.7471 119.728 44.6047 117.812C43.42 115.81 43.2085 112.212 44.3086 110.167C49.3224 100.841 44.7317 93.6012 46.6356 84.1683C39.8448 87.4262 34.7675 87.8521 25.3534 90.8331C23.8514 85.2543 27.2151 79.3773 31.6365 75.6936C36.058 72.0098 41.4949 69.7953 46.2971 66.6013C51.2686 63.3009 55.7112 58.8293 61.5078 57.3813C68.6371 55.5927 76.1684 58.9145 81.838 63.6416C85.0747 66.3245 88.2057 69.625 92.3522 70.2638C96.9429 70.9877 101.301 68.2196 105.151 65.5792C109.869 62.3427 114.586 59.1061 119.283 55.8695C120.785 54.8474 122.308 53.8041 124.064 53.3143C125.82 52.8246 127.851 53.0162 129.205 54.2299C130.114 51.9729 133.393 51.6321 135.403 52.9736C137.434 54.2938 138.492 56.6574 139.444 58.8932C140.417 61.129 141.39 63.5351 141.052 65.9413C140.713 68.3687 138.513 70.7109 136.144 70.2212C137.773 72.0311 136.947 75.0761 135.17 76.7582C133.393 78.4191 130.982 79.1431 128.782 80.1865C119.516 84.5303 113.105 94.8576 102.993 96.2203C95.3351 97.2424 89.7712 92.7921 83.615 89.1722C81.7111 91.2164 83.4035 95.0705 84.567 97.1785Z" fill="#FECF43"/>
<path d="M131.626 60.6405C131.224 60.9799 130.843 61.2981 130.44 61.6164C130.25 61.7649 130.059 61.9133 129.869 62.0831C129.763 62.1679 129.657 62.2528 129.551 62.3377C129.488 62.3801 129.17 62.6347 129.361 62.4862C128.493 63.1651 127.603 63.8227 126.714 64.4592C124.851 65.7957 122.945 67.0686 121.019 68.2778C117.08 70.76 112.994 73.0512 108.802 75.0878C107.807 75.5757 106.811 76.0425 105.795 76.488C105.308 76.7001 104.821 76.9123 104.334 77.1244C104.271 77.1456 104.017 77.2517 104.228 77.1668C104.101 77.2093 103.995 77.2729 103.868 77.3153C103.614 77.4214 103.36 77.5275 103.106 77.6336C101.984 78.0791 100.841 78.4397 99.655 78.6306C99.5915 78.6306 99.2104 78.6943 99.4221 78.6731C99.2739 78.6943 99.1257 78.7155 98.9775 78.7155C98.6811 78.7367 98.3846 78.758 98.067 78.7792C97.453 78.8004 96.8602 78.8004 96.2462 78.7792C95.6322 78.758 95.0181 78.6943 94.4041 78.6306C94.2559 78.6094 94.0865 78.5883 93.9383 78.567C93.896 78.567 93.5784 78.5246 93.7478 78.5458C93.409 78.5034 93.0702 78.4397 92.7315 78.3973C91.7575 78.2488 90.8047 78.0791 89.8731 77.7396C89.7673 77.6972 89.6614 77.6548 89.5767 77.6336C89.4708 77.5911 89.2591 77.5063 89.492 77.6124C89.3014 77.5275 89.0897 77.4426 88.8992 77.3366C88.518 77.1456 88.1369 76.9335 87.7558 76.7001C87.3747 76.4668 87.0148 76.2334 86.676 75.9788C86.5913 75.9151 86.5066 75.8515 86.4219 75.7879C86.3161 75.703 86.4854 75.8303 86.4854 75.8515C86.4431 75.8303 86.4008 75.7879 86.3796 75.7666C86.189 75.6181 86.0196 75.4697 85.8291 75.3212C83.0343 72.9663 80.7899 70.0387 78.0586 67.6202C74.7556 64.6925 70.4575 62.4862 65.9265 63.1226C61.3532 63.7803 58.7065 67.9808 57.8173 72.1814C56.9068 76.5728 57.3727 81.1552 58.389 85.4619C59.4053 89.8109 61.0144 93.969 62.4965 98.1695C63.2587 100.291 63.9786 102.434 64.5926 104.619C64.889 105.701 65.1855 106.783 65.4184 107.865C65.5454 108.416 65.6513 108.947 65.736 109.498C65.7783 109.753 65.8207 110.007 65.863 110.262C65.8842 110.389 65.9053 110.538 65.9265 110.665C65.9265 110.729 65.9477 110.792 65.9477 110.835C65.9477 110.877 65.99 111.153 65.9689 110.92C66.0959 111.98 66.2018 113.041 66.2229 114.123C66.2441 114.781 66.7946 115.417 67.4933 115.396C68.1708 115.375 68.7849 114.844 68.7637 114.123C68.6155 109.604 67.5145 105.192 66.1171 100.927C64.7197 96.6633 63.047 92.5052 61.7555 88.2198C61.1203 86.1407 60.5909 84.0405 60.2522 81.8978C60.2098 81.622 60.1675 81.3674 60.1251 81.0916C60.0828 80.837 60.1463 81.2189 60.104 80.9643C60.0828 80.8158 60.0616 80.6461 60.0404 80.4976C59.9769 79.946 59.9346 79.4156 59.8922 78.864C59.8287 77.7821 59.8287 76.7213 59.8922 75.6394C59.9346 75.0878 59.9769 74.5362 60.0404 73.9846C60.0616 73.8149 60.0404 74.0271 60.0404 74.0483C60.0404 73.9846 60.0616 73.8998 60.0616 73.8361C60.0828 73.73 60.104 73.624 60.104 73.5179C60.1463 73.2421 60.1887 72.9875 60.2522 72.733C60.358 72.245 60.4851 71.757 60.6333 71.2691C60.6968 71.0357 60.7815 70.8236 60.8662 70.6115C60.9085 70.5054 60.9509 70.3993 60.9721 70.3144C60.9932 70.2508 61.0356 70.1872 61.0567 70.1235C61.0144 70.2296 60.9932 70.2508 61.0567 70.1235C61.2685 69.678 61.4802 69.2325 61.7343 68.8082C61.8613 68.6173 61.9672 68.4263 62.1154 68.2354C62.1577 68.1717 62.3483 67.9172 62.2001 68.1081C62.2848 68.002 62.3695 67.896 62.4542 67.7899C62.7718 67.4292 63.1105 67.0898 63.4916 66.7928C63.6822 66.6443 63.3646 66.8776 63.5552 66.7503C63.661 66.6867 63.7457 66.6018 63.8516 66.5382C64.0633 66.4109 64.275 66.2836 64.4868 66.1775C64.6138 66.1139 64.7408 66.0503 64.8679 65.9866C64.6773 66.0715 64.9526 65.9654 65.0161 65.9442C65.2913 65.8381 65.5878 65.7532 65.8842 65.6896C66.0112 65.6684 66.1594 65.626 66.3076 65.6048C66.5405 65.5623 66.2018 65.6047 66.4558 65.5835C66.7523 65.5411 67.0699 65.5411 67.3663 65.5199C67.6204 65.5199 67.8956 65.5199 68.1497 65.5411C68.2979 65.5411 68.4249 65.5623 68.5731 65.5835C68.7213 65.5835 68.5731 65.5835 68.5308 65.5835C68.6155 65.6047 68.7002 65.6048 68.7849 65.626C69.3565 65.7108 69.9282 65.8593 70.4787 66.029C70.7328 66.1139 70.9869 66.1988 71.2409 66.2836C71.368 66.326 71.5162 66.3897 71.6432 66.4321C71.6432 66.4321 71.8338 66.517 71.7279 66.4746C71.6009 66.4322 71.8973 66.5594 71.9185 66.5594C72.3843 66.7716 72.8289 67.0049 73.2735 67.2595C73.6546 67.4717 74.0146 67.705 74.3745 67.9596C74.5439 68.0869 74.7133 68.193 74.8827 68.3203C74.9038 68.3415 75.2003 68.5536 75.0732 68.4475C74.9462 68.3414 75.0732 68.4475 75.0944 68.4688C75.1579 68.5112 75.2214 68.5748 75.285 68.6172C78.1433 70.9085 80.3876 73.8149 83.0766 76.297C84.4105 77.5275 85.8503 78.6731 87.4806 79.4792C88.3063 79.9035 89.1956 80.243 90.106 80.4764C91.2494 80.7734 92.4562 80.9218 93.6419 81.0703C96.1191 81.3886 98.6175 81.4522 101.052 80.9219C103.276 80.4551 105.393 79.4156 107.468 78.4821C111.639 76.594 115.683 74.4301 119.621 72.0753C123.58 69.7204 127.413 67.1534 131.054 64.3106C131.838 63.6954 132.621 63.059 133.405 62.4225C133.913 61.9982 133.87 61.0648 133.405 60.6193C132.875 60.1313 132.177 60.1738 131.626 60.6405Z" fill="white"/>
<path fill-rule="evenodd" clip-rule="evenodd" d="M54.229 61.1043C54.419 61.2547 54.4449 61.5231 54.2867 61.7039C49.3823 67.3082 47.1557 75.2911 46.4645 84.1317C46.4462 84.3662 46.2314 84.5421 45.9849 84.5247C45.7383 84.5072 45.5532 84.303 45.5716 84.0686C46.2683 75.1575 48.5188 66.9638 53.5984 61.1593C53.7566 60.9786 54.0389 60.954 54.229 61.1043Z" fill="white"/>
<path fill-rule="evenodd" clip-rule="evenodd" d="M66.9179 78.9065C67.0063 78.6896 67.2502 78.587 67.4627 78.6773C70.0003 79.7557 73.1937 82.0174 76.283 84.2054C76.3626 84.2618 76.4422 84.3181 76.5217 84.3744C78.1129 85.5012 79.6769 86.6044 81.1256 87.5281C82.5783 88.4543 83.8918 89.1848 84.9827 89.5781C85.1997 89.6563 85.3135 89.8993 85.2368 90.1208C85.1602 90.3422 84.9222 90.4584 84.7052 90.3801C83.5253 89.9547 82.1488 89.1834 80.6841 88.2495C79.2156 87.3131 77.6351 86.1981 76.0467 85.0733C75.9867 85.0309 75.9266 84.9883 75.8666 84.9458C72.7301 82.7246 69.5965 80.5055 67.1424 79.4626C66.9299 79.3723 66.8294 79.1233 66.9179 78.9065Z" fill="white"/>
<path d="M73.4782 49.2461H67.6201C67.6421 49.7268 67.7518 51.2525 68.41 52.0676C69.2218 53.0709 70.5601 53.6352 72.0521 53.6561C72.7542 53.6561 73.3685 53.1545 73.4343 52.4648C73.4562 52.1513 73.4782 51.8378 73.5001 51.5243C73.5001 50.9182 73.5001 49.7477 73.4782 49.2461Z" fill="white"/>
<path fill-rule="evenodd" clip-rule="evenodd" d="M70.9191 43.4859C70.8589 43.3612 70.7376 43.3277 70.6478 43.4112C70.5578 43.495 70.5334 43.6648 70.5935 43.7904L70.7566 43.6387C70.5935 43.7904 70.5936 43.7906 70.5936 43.7908L70.5938 43.7911L70.5942 43.7919L70.5952 43.7941L70.5982 43.8C70.6005 43.8047 70.6037 43.811 70.6077 43.8186C70.6157 43.8338 70.627 43.8545 70.6416 43.8796C70.6708 43.9297 70.7135 43.9976 70.7702 44.0744C70.8834 44.2276 71.054 44.4178 71.2856 44.5699C71.7564 44.879 72.453 45.0131 73.3841 44.4356C73.483 44.3743 73.5276 44.2127 73.4836 44.0746C73.4396 43.9366 73.3238 43.8745 73.2249 43.9358C72.3921 44.4523 71.8147 44.3128 71.4525 44.075C71.2676 43.9536 71.1319 43.802 71.0431 43.6817C70.9987 43.6217 70.9664 43.57 70.9458 43.5347C70.9355 43.517 70.9282 43.5035 70.9239 43.4952C70.9217 43.4911 70.9203 43.4882 70.9196 43.4868C70.9193 43.4864 70.9192 43.4861 70.9191 43.486C70.9191 43.486 70.9191 43.486 70.9191 43.4859Z" fill="black"/>
<path fill-rule="evenodd" clip-rule="evenodd" d="M75.3152 47.8543C75.4056 47.968 75.4924 48.0142 75.5689 48.0231C75.6454 48.032 75.7405 48.007 75.8546 47.9171C75.9697 47.8265 76.0907 47.6793 76.2062 47.4766C76.4367 47.0718 76.6239 46.4825 76.7027 45.8055C76.7815 45.1286 76.7346 44.512 76.6032 44.0652C76.5374 43.8413 76.4534 43.6703 76.3622 43.5557C76.2718 43.442 76.185 43.3958 76.1085 43.3869C76.032 43.378 75.9369 43.403 75.8228 43.4929C75.7077 43.5835 75.5867 43.7307 75.4712 43.9334C75.2407 44.3382 75.0535 44.9275 74.9747 45.6044C74.8959 46.2814 74.9427 46.898 75.0742 47.3448C75.14 47.5687 75.224 47.7397 75.3152 47.8543ZM74.6671 47.4645C74.516 46.9509 74.4694 46.275 74.5532 45.5554C74.637 44.8357 74.8375 44.1886 75.1025 43.7234C75.2348 43.4912 75.3884 43.2949 75.5603 43.1596C75.7331 43.0234 75.9372 42.9398 76.1575 42.9655C76.3778 42.9911 76.5573 43.1194 76.6942 43.2915C76.8304 43.4628 76.9349 43.689 77.0103 43.9454C77.1614 44.4591 77.2079 45.135 77.1242 45.8546C77.0404 46.5742 76.8399 47.2213 76.5749 47.6866C76.4426 47.9188 76.289 48.1151 76.1171 48.2504C75.9443 48.3865 75.7402 48.4702 75.5199 48.4445C75.2996 48.4189 75.1201 48.2906 74.9831 48.1185C74.8469 47.9472 74.7425 47.7209 74.6671 47.4645Z" fill="#FFFF00"/>
<path fill-rule="evenodd" clip-rule="evenodd" d="M66.1506 44.319C66.1634 44.1844 66.2719 44.0868 66.393 44.101L74.772 45.0809C74.8931 45.0951 74.9809 45.2157 74.9682 45.3502C74.9554 45.4848 74.8469 45.5824 74.7258 45.5682L66.3468 44.5883C66.2257 44.5741 66.1379 44.4535 66.1506 44.319Z" fill="#FFFF00"/>
<path fill-rule="evenodd" clip-rule="evenodd" d="M61.0155 52.4334C61.0614 52.2565 61.2419 52.1504 61.4187 52.1962L67.3721 53.7396C67.5489 53.7854 67.6551 53.9659 67.6092 54.1427C67.5634 54.3195 67.3829 54.4257 67.2061 54.3799L61.2527 52.8365C61.0759 52.7907 60.9697 52.6102 61.0155 52.4334Z" fill="black"/>
<path d="M57.5046 166.713C59.1034 166.75 60.7023 166.806 62.3011 166.844C63.1552 166.863 63.9875 166.189 63.9437 165.44C63.8999 164.654 63.2209 164.054 62.3011 164.036C60.7023 163.998 59.1034 163.942 57.5046 163.905C56.6505 163.886 55.8182 164.56 55.862 165.309C55.9058 166.095 56.5848 166.694 57.5046 166.713Z" fill="#6BA5BD"/>
<path d="M59.7097 173.328C61.3085 173.366 62.9073 173.422 64.5062 173.459C65.3603 173.478 66.1926 172.804 66.1488 172.055C66.105 171.269 65.426 170.67 64.5062 170.651C62.9073 170.614 61.3085 170.557 59.7097 170.52C58.8555 170.501 58.0233 171.175 58.0671 171.924C58.1109 172.71 58.7898 173.309 59.7097 173.328Z" fill="#6BA5BD"/>
<path d="M129.279 54.1887C129.279 54.1458 129.279 54.1244 129.279 54.0815C129.279 54.1673 129.257 54.1673 129.279 54.103C129.279 54.0387 129.279 53.9958 129.3 53.9315C129.105 53.9958 128.887 54.0387 128.691 54.103C131.717 57.9832 134.395 62.2709 135.876 66.9658C136.289 68.2735 136.616 69.6026 136.79 70.9747C136.812 71.1462 136.921 71.2962 137.117 71.2962C137.269 71.2962 137.465 71.1462 137.443 70.9747C136.768 66.0011 134.482 61.349 131.717 57.2115C130.933 56.0324 130.106 54.8961 129.257 53.8028C129.061 53.567 128.647 53.6099 128.647 53.9743C128.647 54.0172 128.647 54.0386 128.647 54.0815C128.647 53.9958 128.669 53.9958 128.647 54.0601C128.647 54.1244 128.647 54.1672 128.626 54.2316C128.604 54.596 129.257 54.596 129.279 54.1887Z" fill="white"/>
<path d="M132.712 57.2839C133.505 56.7506 134.299 56.2378 135.111 55.7045C135.413 55.4993 135.13 54.966 134.827 55.1711C134.034 55.7044 133.241 56.2173 132.429 56.7506C132.127 56.9557 132.41 57.489 132.712 57.2839Z" fill="white"/>
<path d="M134.276 62.4516C135.288 62.1169 136.278 61.7671 137.29 61.4324C137.444 61.3716 137.488 61.2194 137.4 61.1129C137.312 61.0064 137.114 60.976 136.938 61.0369C135.926 61.3715 134.936 61.7214 133.924 62.0561C133.77 62.1169 133.726 62.2691 133.814 62.3755C133.924 62.482 134.122 62.4972 134.276 62.4516Z" fill="white"/>
<path d="M136.435 68.3091C137.235 67.8548 137.974 67.2416 138.774 66.7873C138.914 66.6964 138.954 66.4693 138.874 66.3103C138.794 66.1513 138.614 66.1058 138.454 66.1967C137.654 66.651 136.915 67.2642 136.115 67.7185C135.975 67.8094 135.935 68.0365 136.015 68.1955C136.095 68.3545 136.275 68.3999 136.435 68.3091Z" fill="white"/>
<path d="M172.357 3.58399C175.859 3.58399 178.695 6.41996 178.695 9.92195C178.695 13.4239 175.859 16.2599 172.357 16.2599C168.856 16.2599 166.02 13.4239 166.02 9.92195C166.02 6.41996 168.856 3.58399 172.357 3.58399ZM172.357 2.93945C168.512 2.93945 165.375 6.07621 165.375 9.92195C165.375 13.7677 168.512 16.9045 172.357 16.9045C176.203 16.9045 179.34 13.7677 179.34 9.92195C179.34 6.07621 176.203 2.93945 172.357 2.93945Z" fill="white"/>
<path fill-rule="evenodd" clip-rule="evenodd" d="M176.4 7.85337L170.648 13.2296L168.315 10.518L168.786 10.0656L170.697 12.2862L175.979 7.34961L176.4 7.85337Z" fill="white"/>
<path d="M165.375 59.4448C167.097 59.6797 168.818 59.4448 170.52 58.7988L165.375 59.4448Z" fill="white"/>
<path fill-rule="evenodd" clip-rule="evenodd" d="M171.253 58.9959C171.268 59.1197 171.186 59.233 171.07 59.249C169.254 59.4993 167.416 59.5904 165.577 59.4993C165.46 59.4935 165.37 59.3877 165.375 59.263C165.381 59.1383 165.48 59.042 165.597 59.0478C167.41 59.1375 169.223 59.0478 171.015 58.8007C171.132 58.7847 171.238 58.8721 171.253 58.9959Z" fill="black"/>
<path fill-rule="evenodd" clip-rule="evenodd" d="M165.375 51.7029C165.379 51.558 165.473 51.4445 165.586 51.4494C166.494 51.4887 167.402 51.5215 168.313 51.5543L168.352 51.5557C169.25 51.588 170.151 51.6205 171.058 51.6593C171.17 51.6642 171.259 51.7855 171.255 51.9304C171.251 52.0753 171.157 52.1889 171.044 52.1841C170.139 52.1453 169.239 52.1129 168.34 52.0805L168.302 52.0791C167.391 52.0463 166.482 52.0135 165.572 51.9741C165.46 51.9692 165.371 51.8478 165.375 51.7029Z" fill="black"/>
<path d="M144.795 63.2109C144.795 63.2109 145.938 64.6302 149.205 66.1509L144.795 63.2109Z" fill="white"/>
<path fill-rule="evenodd" clip-rule="evenodd" d="M144.885 63.2432C144.98 63.1867 145.112 63.2063 145.179 63.287L145.006 63.3891C145.179 63.287 145.179 63.2869 145.179 63.2868L145.179 63.2868L145.179 63.2867C145.179 63.2867 145.179 63.2868 145.179 63.2869L145.18 63.2887C145.182 63.2904 145.184 63.2934 145.188 63.2975C145.195 63.3056 145.206 63.3184 145.222 63.3355C145.254 63.3697 145.303 63.421 145.372 63.4874C145.51 63.6202 145.726 63.8129 146.034 64.0476C146.649 64.5169 147.632 65.1544 149.094 65.8157C149.196 65.8621 149.235 65.9701 149.18 66.0569C149.125 66.1436 148.997 66.1763 148.894 66.1298C147.402 65.4547 146.391 64.8005 145.751 64.312C145.431 64.0678 145.203 63.8652 145.055 63.7224C144.981 63.6509 144.926 63.5944 144.89 63.5552C144.872 63.5355 144.858 63.5202 144.849 63.5095C144.844 63.5041 144.84 63.4999 144.838 63.4968L144.835 63.4932L144.834 63.492L144.833 63.4916L144.833 63.4914C144.833 63.4914 144.833 63.4913 145.006 63.3891L144.833 63.4913C144.766 63.4107 144.789 63.2996 144.885 63.2432Z" fill="black"/>
</svg>
