<?xml version="1.0" encoding="utf-8"?>
<!-- Generator: Adobe Illustrator 24.0.2, SVG Export Plug-In . SVG Version: 6.00 Build 0)  -->
<svg version="1.1" id="Layer_1" xmlns="http://www.w3.org/2000/svg" xmlns:xlink="http://www.w3.org/1999/xlink" x="0px" y="0px"
	 viewBox="0 0 1920 1080" style="enable-background:new 0 0 1920 1080;" xml:space="preserve">
<style type="text/css">
	.st0{fill:#6CACEC;}
	.st1{fill:none;stroke:#000000;stroke-width:2;stroke-linecap:round;stroke-linejoin:round;stroke-miterlimit:10;}
	.st2{opacity:0.1;}
	.st3{fill:#FFFFFF;}
	.st4{fill:#FF81C4;}
	.st5{fill:#FFFFFF;stroke:#000000;stroke-width:2;stroke-linecap:round;stroke-linejoin:round;stroke-miterlimit:10;}
	.st6{fill:#5856D6;}
	.st7{fill:#FF81C4;stroke:#000000;stroke-width:2;stroke-linecap:round;stroke-linejoin:round;stroke-miterlimit:10;}
	.st8{fill:#3880BA;}
	.st9{fill:#FFFFFF;stroke:#000000;stroke-miterlimit:10;}
	.st10{fill:none;stroke:#000000;stroke-miterlimit:10;}
	.st11{fill:none;stroke:#000000;stroke-width:8;stroke-linecap:round;stroke-linejoin:round;stroke-miterlimit:10;}
	.st12{fill:url(#SVGID_1_);stroke:#F2566A;stroke-miterlimit:10;}
	.st13{fill:url(#SVGID_2_);}
	.st14{fill:none;stroke:#F2566A;stroke-miterlimit:10;}
	.st15{fill:none;stroke:#F2566A;stroke-miterlimit:10;stroke-dasharray:10.2805,139.8143;}
	.st16{fill:url(#SVGID_4_);stroke:#F2566A;stroke-miterlimit:10;}
	.st17{fill:url(#SVGID_5_);stroke:#F2566A;stroke-miterlimit:10;}
	.st18{fill:url(#SVGID_6_);fill-opacity:0.15;stroke:#549BF4;stroke-width:2;stroke-opacity:8.222246e-02;}
	.st19{fill:url(#SVGID_8_);fill-opacity:0.15;stroke:#549BF4;stroke-width:2;stroke-opacity:8.222246e-02;}
	.st20{opacity:0.62;fill:url(#SVGID_10_);fill-opacity:0.5;}
	.st21{opacity:0.62;fill:url(#SVGID_12_);fill-opacity:0.5;}
	.st22{opacity:0.62;fill:url(#SVGID_13_);fill-opacity:0.5;}
	.st23{opacity:0.62;fill:url(#SVGID_14_);fill-opacity:0.5;}
	.st24{opacity:0.62;fill:url(#SVGID_15_);fill-opacity:0.5;}
	.st25{opacity:0.62;fill:url(#SVGID_16_);fill-opacity:0.5;}
	.st26{opacity:0.62;fill:url(#SVGID_17_);fill-opacity:0.5;}
	.st27{opacity:0.62;fill:url(#SVGID_18_);fill-opacity:0.5;}
	.st28{fill:url(#SVGID_19_);stroke:#F2566A;stroke-miterlimit:10;stroke-dasharray:203,31,0,0,0;}
	.st29{fill:none;stroke:#F2566A;stroke-miterlimit:10;stroke-dasharray:110,0,0,0,0;}
	.st30{fill:none;stroke:#CBD6E8;stroke-miterlimit:10;}
	.st31{fill:url(#SVGID_20_);}
	.st32{fill:url(#SVGID_21_);}
	.st33{fill:url(#SVGID_22_);}
	.st34{fill:url(#SVGID_23_);}
	.st35{fill:url(#SVGID_24_);}
	.st36{fill:url(#SVGID_25_);}
	.st37{fill:none;stroke:#FFFFFF;stroke-miterlimit:10;}
	.st38{fill:url(#SVGID_27_);}
	.st39{fill:none;stroke:#FFFFFF;stroke-linecap:round;stroke-miterlimit:10;}
	.st40{fill:url(#SVGID_28_);}
	.st41{fill:url(#SVGID_29_);}
	.st42{opacity:0.36;fill:url(#SVGID_30_);enable-background:new    ;}
	.st43{opacity:0.36;fill:url(#SVGID_31_);enable-background:new    ;}
	.st44{fill:url(#SVGID_32_);fill-opacity:0.15;stroke:#549BF4;stroke-width:2;stroke-opacity:8.222246e-02;}
	.st45{fill:url(#SVGID_34_);fill-opacity:0.15;stroke:#549BF4;stroke-width:2;stroke-opacity:8.222246e-02;}
	.st46{fill:url(#SVGID_35_);fill-opacity:0.15;stroke:#549BF4;stroke-width:2;stroke-opacity:8.222246e-02;}
	.st47{fill:url(#SVGID_36_);fill-opacity:0.15;stroke:#549BF4;stroke-width:2;stroke-opacity:8.222246e-02;}
	.st48{fill:url(#SVGID_37_);fill-opacity:0.5;stroke:#FFFFFF;stroke-linejoin:round;}
	.st49{fill:url(#SVGID_38_);fill-opacity:0.15;stroke:#549BF4;stroke-width:2;stroke-opacity:8.222246e-02;}
	.st50{opacity:0.54;fill:#FFFFFF;enable-background:new    ;}
	.st51{fill:#363C61;}
	.st52{fill:none;stroke:url(#SVGID_39_);stroke-width:9;stroke-miterlimit:10;}
	.st53{fill:none;stroke:url(#SVGID_40_);stroke-width:9;stroke-miterlimit:10;}
	.st54{fill:none;stroke:#FFFFFF;stroke-width:3;stroke-miterlimit:10;}
	.st55{opacity:0.62;fill:url(#SVGID_41_);fill-opacity:0.5;}
	.st56{opacity:0.62;fill:url(#SVGID_42_);fill-opacity:0.5;}
	.st57{opacity:0.62;fill:url(#SVGID_43_);fill-opacity:0.5;}
	.st58{opacity:0.6;fill:url(#SVGID_44_);fill-opacity:0.5;}
	.st59{fill:url(#SVGID_45_);fill-opacity:0.15;stroke:#549BF4;stroke-width:2;stroke-opacity:8.222246e-02;}
	.st60{fill:url(#SVGID_46_);fill-opacity:0.15;stroke:#549BF4;stroke-width:2;stroke-opacity:8.222246e-02;}
	.st61{fill:url(#SVGID_47_);fill-opacity:0.15;stroke:#549BF4;stroke-width:2;stroke-opacity:8.222246e-02;}
	.st62{fill:url(#SVGID_48_);fill-opacity:0.15;stroke:#549BF4;stroke-width:2;stroke-opacity:8.222246e-02;}
	.st63{opacity:0.62;fill:url(#SVGID_49_);fill-opacity:0.5;}
	.st64{opacity:0.62;fill:url(#SVGID_50_);fill-opacity:0.5;}
	.st65{opacity:5.000000e-02;fill:none;stroke:#FFFFFF;stroke-width:2;stroke-miterlimit:10;}
	.st66{opacity:0.15;fill:url(#SVGID_51_);fill-opacity:0.5;}
	.st67{opacity:0.5;}
	.st68{fill:none;stroke:#FFFFFF;stroke-width:2;stroke-dasharray:11.8503,11.8503;}
	.st69{fill:url(#SVGID_52_);fill-opacity:0.5;stroke:#FFFFFF;stroke-linejoin:round;}
	.st70{fill:url(#SVGID_53_);fill-opacity:0.15;stroke:#549BF4;stroke-width:2;stroke-opacity:8.222246e-02;}
	.st71{fill:#CAD6E8;}
	.st72{fill:url(#SVGID_54_);}
	.st73{fill:url(#SVGID_55_);}
	.st74{opacity:0.89;fill:#F2566A;enable-background:new    ;}
	.st75{fill:#EBF1FC;}
	.st76{fill:#CEDEF2;}
	.st77{fill:url(#SVGID_56_);}
	.st78{fill:url(#SVGID-2_1_);}
	.st79{fill:url(#SVGID-3_1_);}
	.st80{fill:url(#SVGID_57_);}
	.st81{clip-path:url(#SVGID_58_);}
	.st82{fill:url(#SVGID_59_);}
	.st83{fill:#CBD6E8;}
	.st84{stroke:#000000;stroke-miterlimit:10;}
	.st85{fill:url(#SVGID_60_);}
	.st86{fill:url(#SVGID-4_1_);}
	.st87{fill:url(#SVGID_61_);}
	.st88{opacity:0.36;fill:url(#SVGID_62_);enable-background:new    ;}
	.st89{opacity:0.4;fill:#3574EC;enable-background:new    ;}
	.st90{fill:url(#SVGID-5_1_);}
	.st91{fill:url(#SVGID-6_1_);}
	.st92{fill:url(#SVGID_63_);}
	.st93{clip-path:url(#SVGID_64_);}
	.st94{fill:url(#SVGID_65_);}
	.st95{fill:url(#SVGID-7_1_);}
	.st96{opacity:0.4;fill:#FFFFFF;enable-background:new    ;}
	.st97{opacity:0.9;fill:#FFFFFF;enable-background:new    ;}
	.st98{opacity:0.9;}
	.st99{fill:url(#SVGID_66_);}
	.st100{opacity:0.36;fill:url(#SVGID_67_);enable-background:new    ;}
	.st101{fill:url(#SVGID_68_);}
	.st102{fill:url(#SVGID_69_);}
	.st103{fill:url(#SVGID_70_);fill-opacity:0.3;}
	.st104{opacity:8.000000e-02;fill:#549BF4;enable-background:new    ;}
	.st105{fill:url(#SVGID_71_);fill-opacity:0.15;}
	.st106{opacity:0.8;}
	.st107{fill:#9090D0;}
	.st108{fill:none;stroke:#000000;stroke-width:3;stroke-linecap:round;stroke-linejoin:round;stroke-miterlimit:10;}
	.st109{fill:#CFCED4;}
	.st110{fill:#FEAD91;}
	.st111{fill:#FFFFFF;stroke:#000000;stroke-width:3;stroke-linecap:round;stroke-linejoin:round;stroke-miterlimit:10;}
	.st112{fill:#FEAD91;stroke:#000000;stroke-width:3;stroke-miterlimit:10;}
	.st113{fill:#FFE2AA;}
	.st114{fill:#FFE2AA;stroke:#000000;stroke-width:3;stroke-linecap:round;stroke-linejoin:round;stroke-miterlimit:10;}
	.st115{fill:none;stroke:#000000;stroke-width:4;stroke-linecap:round;stroke-linejoin:round;stroke-miterlimit:10;}
	.st116{fill:#FFFFFF;stroke:#000000;stroke-width:5;stroke-linecap:round;stroke-linejoin:round;stroke-miterlimit:10;}
	.st117{fill:none;stroke:#000000;stroke-width:3;stroke-miterlimit:10;}
	.st118{fill:#FFFFFF;stroke:#000000;stroke-width:2;stroke-miterlimit:10;}
	.st119{fill:#FFC9E6;}
	.st120{fill:#FCA1BB;}
	.st121{fill:#151614;}
	.st122{fill:#FFFFFF;stroke:#1B0042;stroke-width:2;stroke-linecap:round;stroke-linejoin:round;stroke-miterlimit:10;}
	.st123{fill:none;stroke:#1B0042;stroke-width:2;stroke-linecap:round;stroke-linejoin:round;stroke-miterlimit:10;}
	.st124{fill:#1B0042;}
	
		.st125{opacity:0.15;clip-path:url(#XMLID_13_);fill:none;stroke:#FFFFFF;stroke-width:2;stroke-linecap:round;stroke-linejoin:round;stroke-miterlimit:10;}
	.st126{fill:none;stroke:#000000;stroke-linecap:round;stroke-linejoin:round;stroke-miterlimit:10;}
	.st127{fill:none;stroke:#FFFFFF;stroke-linecap:round;stroke-linejoin:round;stroke-miterlimit:10;}
	
		.st128{opacity:0.15;clip-path:url(#XMLID_15_);fill:none;stroke:#FFFFFF;stroke-width:2;stroke-linecap:round;stroke-linejoin:round;stroke-miterlimit:10;}
	
		.st129{opacity:0.15;clip-path:url(#XMLID_16_);fill:none;stroke:#FFFFFF;stroke-width:2;stroke-linecap:round;stroke-linejoin:round;stroke-miterlimit:10;}
	.st130{fill:none;stroke:#FFFFFF;stroke-width:2;stroke-linecap:round;stroke-linejoin:round;stroke-miterlimit:10;}
	
		.st131{opacity:0.15;clip-path:url(#XMLID_17_);fill:none;stroke:#FFFFFF;stroke-width:2;stroke-linecap:round;stroke-linejoin:round;stroke-miterlimit:10;}
	.st132{opacity:0.15;clip-path:url(#XMLID_18_);fill:none;stroke:#FFFFFF;stroke-width:2;stroke-miterlimit:10;}
	
		.st133{opacity:0.15;clip-path:url(#XMLID_19_);fill:none;stroke:#FFFFFF;stroke-width:2;stroke-linecap:round;stroke-linejoin:round;stroke-miterlimit:10;}
	.st134{fill:#FFFFFF;stroke:#2C234A;stroke-width:2;stroke-linecap:round;stroke-linejoin:round;stroke-miterlimit:10;}
	.st135{fill:#8AAFF6;}
	.st136{fill:none;stroke:#2C234A;stroke-width:2;stroke-linecap:round;stroke-linejoin:round;stroke-miterlimit:10;}
	.st137{opacity:0.2;}
	.st138{fill:#2C234A;}
	.st139{fill:none;stroke:#4417D7;stroke-width:2;stroke-linecap:round;stroke-linejoin:round;stroke-miterlimit:10;}
	.st140{fill:none;stroke:#EFCC4A;stroke-width:2;stroke-linecap:round;stroke-linejoin:round;stroke-miterlimit:10;}
	.st141{fill:#E3DFFF;}
	.st142{fill:none;stroke:#9D8AF6;stroke-width:2;stroke-linecap:round;stroke-linejoin:round;stroke-miterlimit:10;}
	.st143{clip-path:url(#SVGID_72_);}
	.st144{fill:none;stroke:#E3DFFF;stroke-width:4;stroke-linecap:round;stroke-linejoin:round;stroke-miterlimit:10;}
	.st145{fill:none;stroke:#D6D4D4;stroke-width:10;stroke-linecap:round;stroke-linejoin:round;stroke-miterlimit:10;}
	.st146{fill:none;stroke:#FF4B42;stroke-width:10;stroke-linecap:round;stroke-linejoin:round;stroke-miterlimit:10;}
	.st147{fill:#D7B9D8;}
	.st148{fill:#D6D4D4;}
	.st149{fill:#FFB69D;}
	.st150{fill:#D6D4D4;stroke:#FFFFFF;stroke-width:2;stroke-miterlimit:10;}
	.st151{clip-path:url(#XMLID_20_);}
	.st152{clip-path:url(#XMLID_21_);}
	.st153{fill:none;stroke:#FFFFFF;stroke-width:5;stroke-linecap:round;stroke-linejoin:round;stroke-miterlimit:10;}
	.st154{fill:#FF4B42;}
	.st155{clip-path:url(#XMLID_24_);}
	.st156{clip-path:url(#SVGID_74_);}
	.st157{clip-path:url(#XMLID_25_);}
	.st158{fill:#FEC0D9;}
	
		.st159{fill:none;stroke:#D6D4D4;stroke-width:3;stroke-linecap:round;stroke-linejoin:round;stroke-miterlimit:10;stroke-dasharray:20,20;}
	.st160{fill:#6BA5BD;}
	.st161{clip-path:url(#XMLID_28_);}
	.st162{clip-path:url(#SVGID_76_);}
	.st163{clip-path:url(#XMLID_29_);}
	.st164{clip-path:url(#XMLID_33_);}
	.st165{fill:none;stroke:#FFFFFF;stroke-width:4;stroke-linecap:round;stroke-linejoin:round;stroke-miterlimit:10;}
	.st166{fill:none;stroke:#FFFF00;stroke-width:2;stroke-linecap:round;stroke-linejoin:round;stroke-miterlimit:10;}
	.st167{fill:#FEC0D9;stroke:#000000;stroke-width:3;stroke-linecap:round;stroke-linejoin:round;stroke-miterlimit:10;}
	.st168{fill:#FFCDB2;stroke:#000000;stroke-width:2;stroke-linecap:round;stroke-linejoin:round;stroke-miterlimit:10;}
	.st169{stroke:#FFFFFF;stroke-width:2;stroke-miterlimit:10;}
	.st170{fill:#996533;stroke:#000000;stroke-width:2;stroke-linecap:round;stroke-linejoin:round;stroke-miterlimit:10;}
	.st171{stroke:#000000;stroke-width:2;stroke-linecap:round;stroke-linejoin:round;stroke-miterlimit:10;}
	.st172{fill:#996533;stroke:#000000;stroke-width:2;stroke-miterlimit:10;}
	.st173{fill:#FF6600;stroke:#000000;stroke-width:2;stroke-linecap:round;stroke-linejoin:round;stroke-miterlimit:10;}
	.st174{fill:#FFCDB2;}
	.st175{fill:none;stroke:#000000;stroke-width:2;stroke-miterlimit:10;}
	.st176{fill:none;stroke:#000000;stroke-width:5;stroke-linecap:round;stroke-linejoin:round;stroke-miterlimit:10;}
	.st177{fill:#9B4CB5;stroke:#000000;stroke-width:2;stroke-linecap:round;stroke-linejoin:round;stroke-miterlimit:10;}
	.st178{fill:#C8C8FF;stroke:#000000;stroke-width:2;stroke-linecap:round;stroke-linejoin:round;stroke-miterlimit:10;}
	.st179{fill:#DDDCDD;}
	.st180{fill:#FA6058;stroke:#000000;stroke-width:2;stroke-miterlimit:10;}
	.st181{fill:#FBBC2D;stroke:#000000;stroke-width:2;stroke-miterlimit:10;}
	.st182{fill:#30CA41;stroke:#000000;stroke-width:2;stroke-miterlimit:10;}
	.st183{stroke:#FFFFFF;stroke-width:2;stroke-linecap:round;stroke-linejoin:round;stroke-miterlimit:10;}
	.st184{fill:none;stroke:#C8C8FF;stroke-width:5;stroke-linecap:round;stroke-linejoin:round;stroke-miterlimit:10;}
	.st185{stroke:#000000;stroke-width:2;stroke-miterlimit:10;}
	.st186{fill:#FF2D55;}
	.st187{fill:#D4D7FF;}
	.st188{fill:#FFCBC2;}
	.st189{clip-path:url(#SVGID_77_);}
	.st190{fill:#352F84;}
	.st191{clip-path:url(#SVGID_78_);}
	.st192{clip-path:url(#SVGID_79_);}
	.st193{clip-path:url(#XMLID_37_);}
	.st194{opacity:0.4;clip-path:url(#XMLID_41_);}
	.st195{clip-path:url(#XMLID_44_);}
	.st196{fill:#FF3167;}
	.st197{fill:#91A3B4;}
	.st198{fill:#E05555;}
	.st199{fill:none;stroke:#EFA9A9;stroke-width:2;stroke-miterlimit:10;}
	.st200{clip-path:url(#XMLID_46_);}
	.st201{fill:#F2F2F2;}
	.st202{fill:#6F8393;}
	.st203{fill:#333333;}
	.st204{fill:#B5C7C3;}
	.st205{clip-path:url(#XMLID_47_);}
	.st206{clip-path:url(#SVGID_81_);}
	.st207{clip-path:url(#XMLID_50_);}
	.st208{fill:#5595E0;}
	.st209{fill:#FCFCFC;}
	.st210{fill:none;stroke:#CACBDB;stroke-width:10;stroke-linecap:round;stroke-linejoin:round;stroke-miterlimit:10;}
	
		.st211{fill:none;stroke:#CACBDB;stroke-width:10;stroke-linecap:round;stroke-linejoin:round;stroke-miterlimit:10;stroke-dasharray:30,30;}
	.st212{fill:none;stroke:#CACBDB;stroke-width:21;stroke-linecap:round;stroke-linejoin:round;stroke-miterlimit:10;}
	.st213{fill:#E45858;}
	.st214{fill:#CFD4FF;}
	.st215{fill:#2A2C67;}
	.st216{clip-path:url(#XMLID_51_);}
	.st217{fill:#585DE4;}
	.st218{fill:none;stroke:#324A81;stroke-width:5;stroke-linecap:round;stroke-linejoin:round;stroke-miterlimit:10;}
	.st219{fill:#CFD4FF;stroke:#2A2C67;stroke-width:5;stroke-linecap:round;stroke-linejoin:round;stroke-miterlimit:10;}
	.st220{clip-path:url(#XMLID_52_);}
	.st221{clip-path:url(#XMLID_53_);}
	.st222{fill:none;stroke:#FEFEFF;stroke-width:5;stroke-linecap:round;stroke-linejoin:round;stroke-miterlimit:10;}
	.st223{fill:#CFD4FF;stroke:#2A2C67;stroke-width:5;stroke-miterlimit:10;}
	.st224{fill:none;stroke:#2A2C67;stroke-width:5;stroke-linecap:round;stroke-linejoin:round;stroke-miterlimit:10;}
	.st225{fill:none;stroke:#585DE4;stroke-width:5;stroke-miterlimit:10;}
	.st226{fill:none;stroke:#585DE4;stroke-width:5;stroke-linecap:round;stroke-linejoin:round;stroke-miterlimit:10;}
	.st227{fill:#E8E8F7;}
	
		.st228{opacity:0.4;fill:none;stroke:#303044;stroke-width:2.5095;stroke-linecap:round;stroke-linejoin:round;stroke-miterlimit:10;}
	.st229{fill:#FEC5C4;}
	.st230{fill:#EF8D8B;}
	.st231{fill:#FEC5C4;stroke:#EF8D8B;stroke-width:2.5095;stroke-linecap:round;stroke-linejoin:round;stroke-miterlimit:10;}
	.st232{fill:#F048BA;}
	.st233{fill:#FFFFFF;stroke:#E8E8F7;stroke-width:2;stroke-linecap:round;stroke-linejoin:round;stroke-miterlimit:10;}
	.st234{fill:none;stroke:#E8E8F7;stroke-width:2;stroke-linecap:round;stroke-linejoin:round;stroke-miterlimit:10;}
	.st235{fill:#303044;}
	.st236{fill:none;}
	.st237{fill:none;stroke:#EF8D8B;stroke-width:2.5095;stroke-linecap:round;stroke-linejoin:round;stroke-miterlimit:10;}
	.st238{fill:none;stroke:#E8E8F7;stroke-width:7;stroke-linecap:round;stroke-linejoin:round;stroke-miterlimit:10;}
	.st239{fill:#FFFFFF;stroke:#E8E8F7;stroke-width:7;stroke-linecap:round;stroke-linejoin:round;stroke-miterlimit:10;}
	.st240{fill:#FFFFFF;stroke:#E8E8F7;stroke-width:5.62;stroke-miterlimit:10;}
	.st241{fill:#E8E8F7;stroke:#E8E8F7;stroke-width:5.62;stroke-miterlimit:10;}
	.st242{fill:#FEC5C4;stroke:#EF8D8B;stroke-width:2;stroke-linecap:round;stroke-linejoin:round;stroke-miterlimit:10;}
	.st243{fill:none;stroke:#EF8D8B;stroke-width:2;stroke-linecap:round;stroke-linejoin:round;stroke-miterlimit:10;}
	.st244{fill:#E8E8F7;stroke:#FFFFFF;stroke-width:5.62;stroke-miterlimit:10;}
	.st245{opacity:0.4;fill:none;stroke:#000000;stroke-width:2;stroke-linecap:round;stroke-linejoin:round;stroke-miterlimit:10;}
	.st246{fill:none;stroke:#E8E8F7;stroke-width:5.1321;stroke-miterlimit:10;}
	.st247{fill:none;stroke:#EF8D8B;stroke-width:2;stroke-linecap:round;stroke-miterlimit:10;}
	.st248{fill:#FFFFFF;stroke:#E8E8F7;stroke-width:5;stroke-miterlimit:10;}
	.st249{fill:#E8E8F7;stroke:#E8E8F7;stroke-width:5;stroke-miterlimit:10;}
	.st250{fill:#FFFFFF;stroke:#E8E8F7;stroke-width:5;stroke-miterlimit:10;stroke-dasharray:20,20;}
	.st251{fill:#F2F2F6;}
	.st252{opacity:0.4;fill:#FFFFFF;stroke:#000000;stroke-width:2.1161;stroke-linecap:round;stroke-miterlimit:10;}
	
		.st253{opacity:0.4;fill:none;stroke:#000000;stroke-width:2.1161;stroke-linecap:round;stroke-linejoin:round;stroke-miterlimit:10;stroke-dasharray:140.7185,204.2005;}
	.st254{opacity:0.4;fill:none;stroke:#000000;stroke-width:2.1161;stroke-linecap:round;stroke-miterlimit:10;}
	.st255{fill:#282828;}
	.st256{fill:#FEC5C4;stroke:#EF8D8B;stroke-width:1.058;stroke-linecap:round;stroke-miterlimit:10;}
	.st257{fill:none;stroke:#FFFFFF;stroke-width:8;stroke-linecap:round;stroke-linejoin:round;stroke-miterlimit:10;}
	
		.st258{fill:none;stroke:#E8E8F7;stroke-width:5;stroke-linecap:round;stroke-linejoin:round;stroke-miterlimit:10;stroke-dasharray:20,20;}
	.st259{fill:none;stroke:#E8E8F7;stroke-width:4.7431;stroke-linecap:round;stroke-linejoin:round;stroke-miterlimit:10;}
	
		.st260{opacity:0.4;fill:none;stroke:#000000;stroke-width:1.7088;stroke-linecap:round;stroke-linejoin:round;stroke-miterlimit:10;}
	.st261{fill-rule:evenodd;clip-rule:evenodd;fill:#F7931A;}
	.st262{fill:none;stroke:#EF8D8B;stroke-width:1.9557;stroke-linecap:round;stroke-linejoin:round;stroke-miterlimit:10;}
</style>
<g>
	<path class="st5" d="M1127.1,937.7c-5.4-1.8-8.3-7.6-6.5-13c2.1-6.1,5.2-12.7,7.3-14.7c4.9-4.8,12.6-4.8,19.5-4.8
		c19.8-0.1,39.7-3,58.7-8.6l52.3,18.5c3,1.9,4,5.8,4.6,9.3c1.6,8.6,2.9,17.3,3.8,26c0.4,4.1-1,13.1-3.1,20.5c-1.6,5.6-7.4,8.8-13,7
		L1127.1,937.7z"/>
	<path class="st1" d="M1123.8,916.3c-0.4,1.1,141.3,46.1,141.3,46.1"/>
	<circle class="st173" cx="1245.3" cy="934" r="10.7"/>
</g>
<path d="M1320.8,649.6c-1.4,5.6-115.4,248.9-115.4,248.9l57,22.2l126.5-205.8L1320.8,649.6z"/>
<g>
	<path class="st5" d="M1260.3,1004.2c-6.3,0.1-11.4-5.1-11.3-11.3c0.1-7.1,1-15.1,2.5-17.9c3.4-6.7,11.5-9.4,18.6-11.8
		c20.7-7,40.3-16.9,58.2-29.4l61,1.1c3.8,1,6.2,4.7,8.1,8.1c4.7,8.4,9,17,13,25.8c1.9,4.2,3.5,14,4,22.4c0.3,6.4-4.7,11.7-11.1,11.8
		L1260.3,1004.2z"/>
	<path class="st1" d="M1249.4,983c-0.1,1.3,163.5-1.2,163.5-1.2"/>
	<circle class="st173" cx="1382.3" cy="959.2" r="11.8"/>
</g>
<path class="st169" d="M1544.4,589.7l-196.3,38.5c-21.8,5.1-36,26.2-32.4,48.3l11.2,258.9h66.1l17.2-211.6c0-1.7,0.5-3.4,1.7-4.7
	c3.9-4.1,12.2-3.2,25-3.7l176.9-9c1.9-0.1,3.8-0.3,5.7-0.5c29.2-4.3,50.5-37.7,50.8-67.2l1.3-14.8c3.4-30.4-35.2-43.6-64.6-37.4
	L1544.4,589.7z"/>
<path class="st173" d="M1617.4,478.7c-3.4-0.3-173.8,9.7-173.8,9.7l5.4,39.2l179.2,17L1617.4,478.7z"/>
<g>
	<path class="st174" d="M1414.1,537.9c-0.5,0-0.9,0-1.4-0.1c-3.5-0.3-5.7-1.3-6.6-2.9c-1-1.9,0.2-4.2,0.2-4.2
		c0.1-0.3,0.2-0.6,0.1-0.8c-0.1-0.3-0.3-0.5-0.6-0.6c-0.1,0-14.4-4.8-22.9-9c-5.9-2.9-5.6-4.1-3.3-11.7c0.7-2.3,1.6-5.3,2.5-8.9
		c1.7-7.1,17.5-10.9,44.4-10.9c8.2,0,14.9,0.4,17.2,0.5l4.2,37.6C1444.2,528.7,1424.5,537.9,1414.1,537.9
		C1414.1,537.9,1414.1,537.9,1414.1,537.9z"/>
	<path d="M1426.6,489.7c7.3,0,13.5,0.3,16.3,0.5l4,36.1c-4.9,2.3-23,10.6-32.7,10.6c-0.5,0-0.9,0-1.3-0.1c-3-0.3-5.1-1.1-5.8-2.4
		c-0.8-1.4,0.2-3.3,0.2-3.3c0.3-0.5,0.3-1.1,0.1-1.7c-0.2-0.6-0.7-1-1.2-1.2c-0.1,0-14.3-4.8-22.8-8.9c-3.2-1.6-4-2.5-4.2-3.4
		c-0.3-1.3,0.4-3.6,1.4-7.1c0.7-2.4,1.6-5.3,2.5-8.9C1384.7,493.4,1400.5,489.7,1426.6,489.7 M1426.6,487.7
		c-17.9,0-43,1.8-45.4,11.7c-3.8,15.6-7.3,17.5,1.3,21.7c8.7,4.2,23,9,23,9s-4.1,7.6,7.1,8.6c0.5,0,1,0.1,1.5,0.1
		c11.8,0,34.9-11.4,34.9-11.4l-4.4-39.2C1444.6,488.3,1436.8,487.7,1426.6,487.7L1426.6,487.7z"/>
</g>
<path class="st175" d="M1404.3,531.2c0,0,22.5-9.2,20.2-20.8s-20.8,3.7-20.8,3.7l-7.1-8.6"/>
<line class="st176" x1="1336.5" y1="560.8" x2="1399.6" y2="460.9"/>
<path class="st168" d="M1406.4,507c0,0-35.3-8.6-58.2,1.5c-23,10.1-30.9,52.6-18.9,52.6c11.9,0,21.4-22.5,33.4-20.6
	c2.2,0.3,12.4,1.2,13.7,2.4c4.1,3.8-8.3-1.1-13.3-2c-8.3-1.5-13.2,8.1-20.8,13.6c-13.8,10.1,3.2,16.7,20.4,13.5
	c10.5-2,47.2-8.2,47.2-8.2L1406.4,507z"/>
<path class="st173" d="M1549,330.6c-2.4,1.2-65.4,39.4-22.8,264.8l144.9,37.4c0,0,34.5-180.7,14.8-263.7
	c-9.3-39.3-39.9-57.1-89.9-51.9C1595.3,317.3,1549.8,330.2,1549,330.6z"/>
<path class="st173" d="M1630.1,325.3c0,0-43.4-7.2-51.8,59.1c-5.6,43.8-15.3,84.9-21.3,107.8c-2.9,11-12.9,18.5-24.3,18.1
	l-129.4-4.2l5,54.3c-7.9-1.2,177.9,28.6,199,15.7c37.4-22.9,59.3-143.1,66.8-182.4c2.3-11.9,2.9-24.3-0.9-35.8
	C1667.8,342.3,1656.2,325.3,1630.1,325.3z"/>
<g>
	<path class="st174" d="M1569.6,340.7c-0.8,0-1.6,0-2.4-0.1c-6.1-0.3-11.3-4.4-13.4-10.2l-10.5-33.1c2.1,0.9,5.5,2,10.1,2
		c0,0,0,0,0,0c6.7,0,17.3-2.5,29.9-14.1l10.8,34.2c2.5,7.3-1,15.2-8.1,18.1C1582.5,339,1576.7,340.7,1569.6,340.7z"/>
	<path d="M1582.8,287l10.4,32.7c0,0,0,0,0,0.1c2.4,6.7-1,14.1-7.5,16.8c-3.5,1.4-9.1,3.1-16.1,3.1c-0.8,0-1.6,0-2.3-0.1
		c-5.7-0.3-10.6-4.1-12.5-9.5l-9.9-31.1c2.1,0.7,5,1.3,8.5,1.3C1563,300.4,1572.9,295.9,1582.8,287 M1583.7,283.4
		c-12.4,11.9-22.9,14.9-30.3,14.9c-7.5,0-11.8-3.1-11.8-3.1l11.2,35.4c2.2,6.2,7.8,10.5,14.3,10.9c0.8,0,1.6,0.1,2.5,0.1
		c6.2,0,12.1-1.3,16.8-3.3c7.6-3.1,11.4-11.6,8.7-19.3L1583.7,283.4L1583.7,283.4z"/>
</g>
<g>
	<path class="st174" d="M1554.2,314.6c-27.1,0-39.5-41.8-39.6-42.2c-4.3-17.8-2.7-31.7,4.8-41.2c9.9-12.6,27.4-14,34.4-14
		c4.5,0,8.8,0.5,11.5,1.4c11.5,3.7,21.6,32.1,21.7,32.4c0.1,0.4,0.5,0.6,0.9,0.7c0,0,0,0,0,0c0.4,0,0.7-0.2,0.9-0.6
		c1.2-2.7,3.4-3.3,5-3.3c2.8,0,5.9,1.8,8.2,4.6c1.8,2.2,4.5,6.8,3.1,13.5c-1.3,6.2-4.2,9.3-8.7,9.3c-2.9,0-5.5-1.3-5.5-1.4
		c-0.1-0.1-0.3-0.1-0.5-0.1c-0.2,0-0.4,0.1-0.5,0.2c-0.3,0.2-0.5,0.5-0.5,0.9c0.1,1.3,1.5,30.8-27.6,38.7
		C1559.3,314.3,1556.7,314.6,1554.2,314.6z"/>
	<path d="M1553.8,218.2c5.2,0,9.2,0.7,11.2,1.4c9.1,3,18.3,24,21,31.8c0.3,0.8,1,1.3,1.8,1.3c0,0,0.1,0,0.1,0c0.8,0,1.5-0.5,1.8-1.2
		c0.8-1.8,2.2-2.7,4.1-2.7c2.5,0,5.4,1.6,7.5,4.2c1.6,2,4.2,6.4,2.9,12.7c-1.2,5.7-3.7,8.5-7.7,8.5c-2.7,0-5-1.2-5-1.2
		c-0.3-0.2-0.6-0.2-0.9-0.2c-0.4,0-0.7,0.1-1.1,0.3c-0.6,0.4-1,1.1-0.9,1.8c0,0.1,0.4,7.6-2.7,16c-4.1,11.2-12.3,18.5-24.1,21.7
		c-2.5,0.7-5,1-7.5,1c-26,0-38.2-40-38.6-41.4c-4.2-17.5-2.7-31.1,4.6-40.3C1529.9,219.5,1546.9,218.2,1553.8,218.2 M1553.8,216.2
		c-19.6,0-51.5,9.6-40.1,56.5c0,0,12.4,42.9,40.6,42.9c2.5,0,5.2-0.3,8-1.1c30.2-8.2,28.3-39.7,28.3-39.7s2.7,1.5,6,1.5
		c3.7,0,8-1.9,9.7-10.1c2.3-11.1-6-19.3-12.4-19.3c-2.5,0-4.7,1.2-5.9,3.9c0,0-10.2-29.1-22.3-33
		C1563.1,216.9,1558.9,216.2,1553.8,216.2L1553.8,216.2z"/>
</g>
<path class="st170" d="M1585.6,263.5l-5.7,2c0,0-8.3-37.9-19.3-38.9c-11-0.9-52.7,34.8-64.8,18.6c-12.1-16.2-10.7-38.5,19.6-45.7
	c30.3-7.2,64.6,4.8,70.3,13.5c9.1,13.8,10.8,34.3,10.8,34.3S1585.6,247.1,1585.6,263.5z"/>
<line class="st171" x1="1544.7" y1="257.8" x2="1546" y2="261.5"/>
<line class="st171" x1="1525.8" y1="261.9" x2="1527.1" y2="265.5"/>
<path class="st1" d="M1567.2,269.1c-0.4,1.5-4.7,9.5-9.6,11.8"/>
<path class="st177" d="M1595.5,253.7c0,0-3,5.8,0.8,12.9"/>
<path class="st1" d="M1535.9,258.1c0,0,0.1,12.4-0.9,20.7c-0.9,7.9,12.6,1.2,12.6,1.2"/>
<ellipse transform="matrix(0.9251 -0.3798 0.3798 0.9251 13.6104 598.4041)" class="st130" cx="1523.4" cy="264.7" rx="9.2" ry="10.9"/>
<ellipse transform="matrix(0.9971 -7.669874e-02 7.669874e-02 0.9971 -15.2922 119.4441)" class="st130" cx="1547.4" cy="258.8" rx="9.2" ry="10.9"/>
<path class="st130" d="M1530.8,259c0,0,0.9-4.7,7.5-2.4"/>
<line class="st130" x1="1556.7" y1="255" x2="1585.6" y2="253.7"/>
<path class="st1" d="M1319.5,511.2c2.8-0.9,10.2-20.5,40-17.7"/>
<path class="st1" d="M1316.7,499.1c2.8-0.9,10.2-20.5,40-17.7"/>
<path class="st178" d="M1116.3,466.7l35.3,95.4c1.7,4.4,5.9,7.4,10.6,7.4h168.4c1,0.6,2.1,0,3.4,0h63.3c1.8,0,3.4-0.7,4.6-1.9
	c1.2-1.2,1.9-2.8,1.9-4.6c0-3.6-2.9-6.5-6.5-6.5h-47.8c-0.1-1.1-0.3-2.2-0.7-3.2l-35.3-94.5c-1.7-4.4-5.9-7.4-10.6-7.4H1127
	C1119,451.3,1113.5,459.2,1116.3,466.7z"/>
<path class="st5" d="M1126.5,590h293c3.1-0.9,5.6-3.4,5.6-6.5l0,0c0-3.1-2.5-5.6-5.6-5.6h-293c-3.1,0-5.6,2.5-5.6,5.6l0,0
	C1120.9,586.5,1123.4,589,1126.5,590z"/>
<path class="st130" d="M1601.8,614.8c0,0,0.1,40.8-70.9,47.8c-42.5,4.2-92.6,8-125.9,10.4c-20.9,1.5-37.2,18.9-37.3,39.9l-0.9,220.7
	"/>
<g>
	<path class="st179" d="M374.7,239.9v-66.4c0-8.5,6.9-15.4,15.4-15.4h617.3c8.5,0,15.4,6.9,15.4,15.4v70.4L374.7,239.9z"/>
	<path d="M1007.4,159.1c7.9,0,14.4,6.4,14.4,14.3v69.4l-646-4v-65.4c0-7.9,6.4-14.3,14.4-14.3H1007.4 M1007.4,157.1H390.1
		c-9,0-16.4,7.3-16.4,16.3v67.4l650,4v-71.4C1023.7,164.4,1016.4,157.1,1007.4,157.1L1007.4,157.1z"/>
</g>
<g>
	<path class="st3" d="M390.1,804.1c-8.5,0-15.4-6.9-15.4-15.4V239.9l648,4v544.9c0,8.5-6.9,15.4-15.4,15.4H390.1z"/>
	<path d="M375.7,240.9l646,4v543.9c0,7.9-6.4,14.4-14.4,14.4H390.1c-7.9,0-14.4-6.4-14.4-14.4V240.9 M373.7,238.9v549.9
		c0,9,7.3,16.4,16.4,16.4h617.3c9,0,16.4-7.3,16.4-16.4V242.9L373.7,238.9L373.7,238.9z"/>
</g>
<circle class="st180" cx="411.2" cy="199.6" r="14.5"/>
<circle class="st181" cx="453.7" cy="199.6" r="14.5"/>
<circle class="st182" cx="496.3" cy="199.6" r="14.5"/>
<path class="st178" d="M936.8,609.9l-121-143.2c-4-4.8-11.1-5.4-15.9-1.5l-47.1,38.5c-4.9,4-12.2,3.3-16.1-1.7L624.8,362.2
	c-5-6.2-14.7-5.5-18.7,1.3l-146.2,248c-4.5,7.6,1,17.2,9.8,17.2h458.4C937.8,628.7,943.1,617.4,936.8,609.9z"/>
</svg>
