<?xml version="1.0" encoding="utf-8"?>
<!-- Generator: Adobe Illustrator 24.0.2, SVG Export Plug-In . SVG Version: 6.00 Build 0)  -->
<svg version="1.1" id="Layer_1" xmlns="http://www.w3.org/2000/svg" xmlns:xlink="http://www.w3.org/1999/xlink" x="0px" y="0px"
	 viewBox="0 0 1920 1080" style="enable-background:new 0 0 1920 1080;" xml:space="preserve">
<style type="text/css">
	.st0{fill:#6CACEC;}
	.st1{fill:none;stroke:#000000;stroke-width:2;stroke-linecap:round;stroke-linejoin:round;stroke-miterlimit:10;}
	.st2{opacity:0.1;}
	.st3{fill:#FFFFFF;}
	.st4{fill:#FF81C4;}
	.st5{fill:#FFFFFF;stroke:#000000;stroke-width:2;stroke-linecap:round;stroke-linejoin:round;stroke-miterlimit:10;}
	.st6{fill:#5856D6;}
	.st7{fill:#FF81C4;stroke:#000000;stroke-width:2;stroke-linecap:round;stroke-linejoin:round;stroke-miterlimit:10;}
	.st8{fill:#3880BA;}
	.st9{fill:#FFFFFF;stroke:#000000;stroke-miterlimit:10;}
	.st10{fill:none;stroke:#000000;stroke-miterlimit:10;}
	.st11{fill:none;stroke:#000000;stroke-width:8;stroke-linecap:round;stroke-linejoin:round;stroke-miterlimit:10;}
	.st12{fill:url(#SVGID_1_);stroke:#F2566A;stroke-miterlimit:10;}
	.st13{fill:url(#SVGID_2_);}
	.st14{fill:none;stroke:#F2566A;stroke-miterlimit:10;}
	.st15{fill:none;stroke:#F2566A;stroke-miterlimit:10;stroke-dasharray:10.2805,139.8143;}
	.st16{fill:url(#SVGID_4_);stroke:#F2566A;stroke-miterlimit:10;}
	.st17{fill:url(#SVGID_5_);stroke:#F2566A;stroke-miterlimit:10;}
	.st18{fill:url(#SVGID_6_);fill-opacity:0.15;stroke:#549BF4;stroke-width:2;stroke-opacity:8.222246e-02;}
	.st19{fill:url(#SVGID_8_);fill-opacity:0.15;stroke:#549BF4;stroke-width:2;stroke-opacity:8.222246e-02;}
	.st20{opacity:0.62;fill:url(#SVGID_10_);fill-opacity:0.5;}
	.st21{opacity:0.62;fill:url(#SVGID_12_);fill-opacity:0.5;}
	.st22{opacity:0.62;fill:url(#SVGID_13_);fill-opacity:0.5;}
	.st23{opacity:0.62;fill:url(#SVGID_14_);fill-opacity:0.5;}
	.st24{opacity:0.62;fill:url(#SVGID_15_);fill-opacity:0.5;}
	.st25{opacity:0.62;fill:url(#SVGID_16_);fill-opacity:0.5;}
	.st26{opacity:0.62;fill:url(#SVGID_17_);fill-opacity:0.5;}
	.st27{opacity:0.62;fill:url(#SVGID_18_);fill-opacity:0.5;}
	.st28{fill:url(#SVGID_19_);stroke:#F2566A;stroke-miterlimit:10;stroke-dasharray:203,31,0,0,0;}
	.st29{fill:none;stroke:#F2566A;stroke-miterlimit:10;stroke-dasharray:110,0,0,0,0;}
	.st30{fill:none;stroke:#CBD6E8;stroke-miterlimit:10;}
	.st31{fill:url(#SVGID_20_);}
	.st32{fill:url(#SVGID_21_);}
	.st33{fill:url(#SVGID_22_);}
	.st34{fill:url(#SVGID_23_);}
	.st35{fill:url(#SVGID_24_);}
	.st36{fill:url(#SVGID_25_);}
	.st37{fill:none;stroke:#FFFFFF;stroke-miterlimit:10;}
	.st38{fill:url(#SVGID_27_);}
	.st39{fill:none;stroke:#FFFFFF;stroke-linecap:round;stroke-miterlimit:10;}
	.st40{fill:url(#SVGID_28_);}
	.st41{fill:url(#SVGID_29_);}
	.st42{opacity:0.36;fill:url(#SVGID_30_);enable-background:new    ;}
	.st43{opacity:0.36;fill:url(#SVGID_31_);enable-background:new    ;}
	.st44{fill:url(#SVGID_32_);fill-opacity:0.15;stroke:#549BF4;stroke-width:2;stroke-opacity:8.222246e-02;}
	.st45{fill:url(#SVGID_34_);fill-opacity:0.15;stroke:#549BF4;stroke-width:2;stroke-opacity:8.222246e-02;}
	.st46{fill:url(#SVGID_35_);fill-opacity:0.15;stroke:#549BF4;stroke-width:2;stroke-opacity:8.222246e-02;}
	.st47{fill:url(#SVGID_36_);fill-opacity:0.15;stroke:#549BF4;stroke-width:2;stroke-opacity:8.222246e-02;}
	.st48{fill:url(#SVGID_37_);fill-opacity:0.5;stroke:#FFFFFF;stroke-linejoin:round;}
	.st49{fill:url(#SVGID_38_);fill-opacity:0.15;stroke:#549BF4;stroke-width:2;stroke-opacity:8.222246e-02;}
	.st50{opacity:0.54;fill:#FFFFFF;enable-background:new    ;}
	.st51{fill:#363C61;}
	.st52{fill:none;stroke:url(#SVGID_39_);stroke-width:9;stroke-miterlimit:10;}
	.st53{fill:none;stroke:url(#SVGID_40_);stroke-width:9;stroke-miterlimit:10;}
	.st54{fill:none;stroke:#FFFFFF;stroke-width:3;stroke-miterlimit:10;}
	.st55{opacity:0.62;fill:url(#SVGID_41_);fill-opacity:0.5;}
	.st56{opacity:0.62;fill:url(#SVGID_42_);fill-opacity:0.5;}
	.st57{opacity:0.62;fill:url(#SVGID_43_);fill-opacity:0.5;}
	.st58{opacity:0.6;fill:url(#SVGID_44_);fill-opacity:0.5;}
	.st59{fill:url(#SVGID_45_);fill-opacity:0.15;stroke:#549BF4;stroke-width:2;stroke-opacity:8.222246e-02;}
	.st60{fill:url(#SVGID_46_);fill-opacity:0.15;stroke:#549BF4;stroke-width:2;stroke-opacity:8.222246e-02;}
	.st61{fill:url(#SVGID_47_);fill-opacity:0.15;stroke:#549BF4;stroke-width:2;stroke-opacity:8.222246e-02;}
	.st62{fill:url(#SVGID_48_);fill-opacity:0.15;stroke:#549BF4;stroke-width:2;stroke-opacity:8.222246e-02;}
	.st63{opacity:0.62;fill:url(#SVGID_49_);fill-opacity:0.5;}
	.st64{opacity:0.62;fill:url(#SVGID_50_);fill-opacity:0.5;}
	.st65{opacity:5.000000e-02;fill:none;stroke:#FFFFFF;stroke-width:2;stroke-miterlimit:10;}
	.st66{opacity:0.15;fill:url(#SVGID_51_);fill-opacity:0.5;}
	.st67{opacity:0.5;}
	.st68{fill:none;stroke:#FFFFFF;stroke-width:2;stroke-dasharray:11.8503,11.8503;}
	.st69{fill:url(#SVGID_52_);fill-opacity:0.5;stroke:#FFFFFF;stroke-linejoin:round;}
	.st70{fill:url(#SVGID_53_);fill-opacity:0.15;stroke:#549BF4;stroke-width:2;stroke-opacity:8.222246e-02;}
	.st71{fill:#CAD6E8;}
	.st72{fill:url(#SVGID_54_);}
	.st73{fill:url(#SVGID_55_);}
	.st74{opacity:0.89;fill:#F2566A;enable-background:new    ;}
	.st75{fill:#EBF1FC;}
	.st76{fill:#CEDEF2;}
	.st77{fill:url(#SVGID_56_);}
	.st78{fill:url(#SVGID-2_1_);}
	.st79{fill:url(#SVGID-3_1_);}
	.st80{fill:url(#SVGID_57_);}
	.st81{clip-path:url(#SVGID_58_);}
	.st82{fill:url(#SVGID_59_);}
	.st83{fill:#CBD6E8;}
	.st84{stroke:#000000;stroke-miterlimit:10;}
	.st85{fill:url(#SVGID_60_);}
	.st86{fill:url(#SVGID-4_1_);}
	.st87{fill:url(#SVGID_61_);}
	.st88{opacity:0.36;fill:url(#SVGID_62_);enable-background:new    ;}
	.st89{opacity:0.4;fill:#3574EC;enable-background:new    ;}
	.st90{fill:url(#SVGID-5_1_);}
	.st91{fill:url(#SVGID-6_1_);}
	.st92{fill:url(#SVGID_63_);}
	.st93{clip-path:url(#SVGID_64_);}
	.st94{fill:url(#SVGID_65_);}
	.st95{fill:url(#SVGID-7_1_);}
	.st96{opacity:0.4;fill:#FFFFFF;enable-background:new    ;}
	.st97{opacity:0.9;fill:#FFFFFF;enable-background:new    ;}
	.st98{opacity:0.9;}
	.st99{fill:url(#SVGID_66_);}
	.st100{opacity:0.36;fill:url(#SVGID_67_);enable-background:new    ;}
	.st101{fill:url(#SVGID_68_);}
	.st102{fill:url(#SVGID_69_);}
	.st103{fill:url(#SVGID_70_);fill-opacity:0.3;}
	.st104{opacity:8.000000e-02;fill:#549BF4;enable-background:new    ;}
	.st105{fill:url(#SVGID_71_);fill-opacity:0.15;}
	.st106{opacity:0.8;}
	.st107{fill:#9090D0;}
	.st108{fill:none;stroke:#000000;stroke-width:3;stroke-linecap:round;stroke-linejoin:round;stroke-miterlimit:10;}
	.st109{fill:#CFCED4;}
	.st110{fill:#FEAD91;}
	.st111{fill:#FFFFFF;stroke:#000000;stroke-width:3;stroke-linecap:round;stroke-linejoin:round;stroke-miterlimit:10;}
	.st112{fill:#FEAD91;stroke:#000000;stroke-width:3;stroke-miterlimit:10;}
	.st113{fill:#FFE2AA;}
	.st114{fill:#FFE2AA;stroke:#000000;stroke-width:3;stroke-linecap:round;stroke-linejoin:round;stroke-miterlimit:10;}
	.st115{fill:none;stroke:#000000;stroke-width:4;stroke-linecap:round;stroke-linejoin:round;stroke-miterlimit:10;}
	.st116{fill:#FFFFFF;stroke:#000000;stroke-width:5;stroke-linecap:round;stroke-linejoin:round;stroke-miterlimit:10;}
	.st117{fill:none;stroke:#000000;stroke-width:3;stroke-miterlimit:10;}
	.st118{fill:#FFFFFF;stroke:#000000;stroke-width:2;stroke-miterlimit:10;}
	.st119{fill:#FFC9E6;}
	.st120{fill:#FCA1BB;}
	.st121{fill:#151614;}
	.st122{fill:#FFFFFF;stroke:#1B0042;stroke-width:2;stroke-linecap:round;stroke-linejoin:round;stroke-miterlimit:10;}
	.st123{fill:none;stroke:#1B0042;stroke-width:2;stroke-linecap:round;stroke-linejoin:round;stroke-miterlimit:10;}
	.st124{fill:#1B0042;}
	
		.st125{opacity:0.15;clip-path:url(#XMLID_13_);fill:none;stroke:#FFFFFF;stroke-width:2;stroke-linecap:round;stroke-linejoin:round;stroke-miterlimit:10;}
	.st126{fill:none;stroke:#000000;stroke-linecap:round;stroke-linejoin:round;stroke-miterlimit:10;}
	.st127{fill:none;stroke:#FFFFFF;stroke-linecap:round;stroke-linejoin:round;stroke-miterlimit:10;}
	
		.st128{opacity:0.15;clip-path:url(#XMLID_15_);fill:none;stroke:#FFFFFF;stroke-width:2;stroke-linecap:round;stroke-linejoin:round;stroke-miterlimit:10;}
	
		.st129{opacity:0.15;clip-path:url(#XMLID_16_);fill:none;stroke:#FFFFFF;stroke-width:2;stroke-linecap:round;stroke-linejoin:round;stroke-miterlimit:10;}
	.st130{fill:none;stroke:#FFFFFF;stroke-width:2;stroke-linecap:round;stroke-linejoin:round;stroke-miterlimit:10;}
	
		.st131{opacity:0.15;clip-path:url(#XMLID_17_);fill:none;stroke:#FFFFFF;stroke-width:2;stroke-linecap:round;stroke-linejoin:round;stroke-miterlimit:10;}
	.st132{opacity:0.15;clip-path:url(#XMLID_18_);fill:none;stroke:#FFFFFF;stroke-width:2;stroke-miterlimit:10;}
	
		.st133{opacity:0.15;clip-path:url(#XMLID_19_);fill:none;stroke:#FFFFFF;stroke-width:2;stroke-linecap:round;stroke-linejoin:round;stroke-miterlimit:10;}
	.st134{fill:#FFFFFF;stroke:#2C234A;stroke-width:2;stroke-linecap:round;stroke-linejoin:round;stroke-miterlimit:10;}
	.st135{fill:#8AAFF6;}
	.st136{fill:none;stroke:#2C234A;stroke-width:2;stroke-linecap:round;stroke-linejoin:round;stroke-miterlimit:10;}
	.st137{opacity:0.2;}
	.st138{fill:#2C234A;}
	.st139{fill:none;stroke:#4417D7;stroke-width:2;stroke-linecap:round;stroke-linejoin:round;stroke-miterlimit:10;}
	.st140{fill:none;stroke:#EFCC4A;stroke-width:2;stroke-linecap:round;stroke-linejoin:round;stroke-miterlimit:10;}
	.st141{fill:#E3DFFF;}
	.st142{fill:none;stroke:#9D8AF6;stroke-width:2;stroke-linecap:round;stroke-linejoin:round;stroke-miterlimit:10;}
	.st143{clip-path:url(#SVGID_72_);}
	.st144{fill:none;stroke:#E3DFFF;stroke-width:4;stroke-linecap:round;stroke-linejoin:round;stroke-miterlimit:10;}
	.st145{fill:none;stroke:#D6D4D4;stroke-width:10;stroke-linecap:round;stroke-linejoin:round;stroke-miterlimit:10;}
	.st146{fill:none;stroke:#FF4B42;stroke-width:10;stroke-linecap:round;stroke-linejoin:round;stroke-miterlimit:10;}
	.st147{fill:#D7B9D8;}
	.st148{fill:#D6D4D4;}
	.st149{fill:#FFB69D;}
	.st150{fill:#D6D4D4;stroke:#FFFFFF;stroke-width:2;stroke-miterlimit:10;}
	.st151{clip-path:url(#XMLID_20_);}
	.st152{clip-path:url(#XMLID_21_);}
	.st153{fill:none;stroke:#FFFFFF;stroke-width:5;stroke-linecap:round;stroke-linejoin:round;stroke-miterlimit:10;}
	.st154{fill:#FF4B42;}
	.st155{clip-path:url(#XMLID_24_);}
	.st156{clip-path:url(#SVGID_74_);}
	.st157{clip-path:url(#XMLID_25_);}
	.st158{fill:#FEC0D9;}
	
		.st159{fill:none;stroke:#D6D4D4;stroke-width:3;stroke-linecap:round;stroke-linejoin:round;stroke-miterlimit:10;stroke-dasharray:20,20;}
	.st160{fill:#6BA5BD;}
	.st161{clip-path:url(#XMLID_28_);}
	.st162{clip-path:url(#SVGID_76_);}
	.st163{clip-path:url(#XMLID_29_);}
	.st164{clip-path:url(#XMLID_33_);}
	.st165{fill:none;stroke:#FFFFFF;stroke-width:4;stroke-linecap:round;stroke-linejoin:round;stroke-miterlimit:10;}
	.st166{fill:none;stroke:#FFFF00;stroke-width:2;stroke-linecap:round;stroke-linejoin:round;stroke-miterlimit:10;}
	.st167{fill:#FEC0D9;stroke:#000000;stroke-width:3;stroke-linecap:round;stroke-linejoin:round;stroke-miterlimit:10;}
	.st168{fill:#FFCDB2;stroke:#000000;stroke-width:2;stroke-linecap:round;stroke-linejoin:round;stroke-miterlimit:10;}
	.st169{stroke:#FFFFFF;stroke-width:2;stroke-miterlimit:10;}
	.st170{fill:#996533;stroke:#000000;stroke-width:2;stroke-linecap:round;stroke-linejoin:round;stroke-miterlimit:10;}
	.st171{stroke:#000000;stroke-width:2;stroke-linecap:round;stroke-linejoin:round;stroke-miterlimit:10;}
	.st172{fill:#996533;stroke:#000000;stroke-width:2;stroke-miterlimit:10;}
	.st173{fill:#FF6600;stroke:#000000;stroke-width:2;stroke-linecap:round;stroke-linejoin:round;stroke-miterlimit:10;}
	.st174{fill:#FFCDB2;}
	.st175{fill:none;stroke:#000000;stroke-width:2;stroke-miterlimit:10;}
	.st176{fill:none;stroke:#000000;stroke-width:5;stroke-linecap:round;stroke-linejoin:round;stroke-miterlimit:10;}
	.st177{fill:#9B4CB5;stroke:#000000;stroke-width:2;stroke-linecap:round;stroke-linejoin:round;stroke-miterlimit:10;}
	.st178{fill:#C8C8FF;stroke:#000000;stroke-width:2;stroke-linecap:round;stroke-linejoin:round;stroke-miterlimit:10;}
	.st179{fill:#DDDCDD;}
	.st180{fill:#FA6058;stroke:#000000;stroke-width:2;stroke-miterlimit:10;}
	.st181{fill:#FBBC2D;stroke:#000000;stroke-width:2;stroke-miterlimit:10;}
	.st182{fill:#30CA41;stroke:#000000;stroke-width:2;stroke-miterlimit:10;}
	.st183{stroke:#FFFFFF;stroke-width:2;stroke-linecap:round;stroke-linejoin:round;stroke-miterlimit:10;}
	.st184{fill:none;stroke:#C8C8FF;stroke-width:5;stroke-linecap:round;stroke-linejoin:round;stroke-miterlimit:10;}
	.st185{stroke:#000000;stroke-width:2;stroke-miterlimit:10;}
	.st186{fill:#FF2D55;}
	.st187{fill:#D4D7FF;}
	.st188{fill:#FFCBC2;}
	.st189{clip-path:url(#SVGID_77_);}
	.st190{fill:#352F84;}
	.st191{clip-path:url(#SVGID_78_);}
	.st192{clip-path:url(#SVGID_79_);}
	.st193{clip-path:url(#XMLID_37_);}
	.st194{opacity:0.4;clip-path:url(#XMLID_41_);}
	.st195{clip-path:url(#XMLID_44_);}
	.st196{fill:#FF3167;}
	.st197{fill:#91A3B4;}
	.st198{fill:#E05555;}
	.st199{fill:none;stroke:#EFA9A9;stroke-width:2;stroke-miterlimit:10;}
	.st200{clip-path:url(#XMLID_46_);}
	.st201{fill:#F2F2F2;}
	.st202{fill:#6F8393;}
	.st203{fill:#333333;}
	.st204{fill:#B5C7C3;}
	.st205{clip-path:url(#XMLID_47_);}
	.st206{clip-path:url(#SVGID_81_);}
	.st207{clip-path:url(#XMLID_50_);}
	.st208{fill:#5595E0;}
	.st209{fill:#FCFCFC;}
	.st210{fill:none;stroke:#CACBDB;stroke-width:10;stroke-linecap:round;stroke-linejoin:round;stroke-miterlimit:10;}
	
		.st211{fill:none;stroke:#CACBDB;stroke-width:10;stroke-linecap:round;stroke-linejoin:round;stroke-miterlimit:10;stroke-dasharray:30,30;}
	.st212{fill:none;stroke:#CACBDB;stroke-width:21;stroke-linecap:round;stroke-linejoin:round;stroke-miterlimit:10;}
	.st213{fill:#E45858;}
	.st214{fill:#CFD4FF;}
	.st215{fill:#2A2C67;}
	.st216{clip-path:url(#XMLID_51_);}
	.st217{fill:#585DE4;}
	.st218{fill:none;stroke:#324A81;stroke-width:5;stroke-linecap:round;stroke-linejoin:round;stroke-miterlimit:10;}
	.st219{fill:#CFD4FF;stroke:#2A2C67;stroke-width:5;stroke-linecap:round;stroke-linejoin:round;stroke-miterlimit:10;}
	.st220{clip-path:url(#XMLID_52_);}
	.st221{clip-path:url(#XMLID_53_);}
	.st222{fill:none;stroke:#FEFEFF;stroke-width:5;stroke-linecap:round;stroke-linejoin:round;stroke-miterlimit:10;}
	.st223{fill:#CFD4FF;stroke:#2A2C67;stroke-width:5;stroke-miterlimit:10;}
	.st224{fill:none;stroke:#2A2C67;stroke-width:5;stroke-linecap:round;stroke-linejoin:round;stroke-miterlimit:10;}
	.st225{fill:none;stroke:#585DE4;stroke-width:5;stroke-miterlimit:10;}
	.st226{fill:none;stroke:#585DE4;stroke-width:5;stroke-linecap:round;stroke-linejoin:round;stroke-miterlimit:10;}
	.st227{fill:#E8E8F7;}
	
		.st228{opacity:0.4;fill:none;stroke:#303044;stroke-width:2.5095;stroke-linecap:round;stroke-linejoin:round;stroke-miterlimit:10;}
	.st229{fill:#FEC5C4;}
	.st230{fill:#EF8D8B;}
	.st231{fill:#FEC5C4;stroke:#EF8D8B;stroke-width:2.5095;stroke-linecap:round;stroke-linejoin:round;stroke-miterlimit:10;}
	.st232{fill:#F048BA;}
	.st233{fill:#FFFFFF;stroke:#E8E8F7;stroke-width:2;stroke-linecap:round;stroke-linejoin:round;stroke-miterlimit:10;}
	.st234{fill:none;stroke:#E8E8F7;stroke-width:2;stroke-linecap:round;stroke-linejoin:round;stroke-miterlimit:10;}
	.st235{fill:#303044;}
	.st236{fill:none;}
	.st237{fill:none;stroke:#EF8D8B;stroke-width:2.5095;stroke-linecap:round;stroke-linejoin:round;stroke-miterlimit:10;}
	.st238{fill:none;stroke:#E8E8F7;stroke-width:7;stroke-linecap:round;stroke-linejoin:round;stroke-miterlimit:10;}
	.st239{fill:#FFFFFF;stroke:#E8E8F7;stroke-width:7;stroke-linecap:round;stroke-linejoin:round;stroke-miterlimit:10;}
	.st240{fill:#FFFFFF;stroke:#E8E8F7;stroke-width:5.62;stroke-miterlimit:10;}
	.st241{fill:#E8E8F7;stroke:#E8E8F7;stroke-width:5.62;stroke-miterlimit:10;}
	.st242{fill:#FEC5C4;stroke:#EF8D8B;stroke-width:2;stroke-linecap:round;stroke-linejoin:round;stroke-miterlimit:10;}
	.st243{fill:none;stroke:#EF8D8B;stroke-width:2;stroke-linecap:round;stroke-linejoin:round;stroke-miterlimit:10;}
	.st244{fill:#E8E8F7;stroke:#FFFFFF;stroke-width:5.62;stroke-miterlimit:10;}
	.st245{opacity:0.4;fill:none;stroke:#000000;stroke-width:2;stroke-linecap:round;stroke-linejoin:round;stroke-miterlimit:10;}
	.st246{fill:none;stroke:#E8E8F7;stroke-width:5.1321;stroke-miterlimit:10;}
	.st247{fill:none;stroke:#EF8D8B;stroke-width:2;stroke-linecap:round;stroke-miterlimit:10;}
	.st248{fill:#FFFFFF;stroke:#E8E8F7;stroke-width:5;stroke-miterlimit:10;}
	.st249{fill:#E8E8F7;stroke:#E8E8F7;stroke-width:5;stroke-miterlimit:10;}
	.st250{fill:#FFFFFF;stroke:#E8E8F7;stroke-width:5;stroke-miterlimit:10;stroke-dasharray:20,20;}
	.st251{fill:#F2F2F6;}
	.st252{opacity:0.4;fill:#FFFFFF;stroke:#000000;stroke-width:2.1161;stroke-linecap:round;stroke-miterlimit:10;}
	
		.st253{opacity:0.4;fill:none;stroke:#000000;stroke-width:2.1161;stroke-linecap:round;stroke-linejoin:round;stroke-miterlimit:10;stroke-dasharray:140.7185,204.2005;}
	.st254{opacity:0.4;fill:none;stroke:#000000;stroke-width:2.1161;stroke-linecap:round;stroke-miterlimit:10;}
	.st255{fill:#282828;}
	.st256{fill:#FEC5C4;stroke:#EF8D8B;stroke-width:1.058;stroke-linecap:round;stroke-miterlimit:10;}
	.st257{fill:none;stroke:#FFFFFF;stroke-width:8;stroke-linecap:round;stroke-linejoin:round;stroke-miterlimit:10;}
	
		.st258{fill:none;stroke:#E8E8F7;stroke-width:5;stroke-linecap:round;stroke-linejoin:round;stroke-miterlimit:10;stroke-dasharray:20,20;}
	.st259{fill:none;stroke:#E8E8F7;stroke-width:4.7431;stroke-linecap:round;stroke-linejoin:round;stroke-miterlimit:10;}
	
		.st260{opacity:0.4;fill:none;stroke:#000000;stroke-width:1.7088;stroke-linecap:round;stroke-linejoin:round;stroke-miterlimit:10;}
	.st261{fill-rule:evenodd;clip-rule:evenodd;fill:#F7931A;}
	.st262{fill:none;stroke:#EF8D8B;stroke-width:1.9557;stroke-linecap:round;stroke-linejoin:round;stroke-miterlimit:10;}
</style>
<g>
	<g>
		<path class="st3" d="M1236.5,765.5c16.3,4.5,31.2,12.9,45.9,21.1c4.5,2.5,9.1,5.1,12.5,9c5,5.7,6.8,13.4,8.1,20.9
			c3.2,17.9,4.4,36.2,3.6,54.3c-0.3,7.5-1,15.1-4.2,21.8s-9.5,12.4-16.9,13c-11.2,0.9-20.1-9.6-23.8-20.2
			c-3.7-10.6-4.2-22.3-9.4-32.2c-3.2-6.2-8.1-11.5-14.1-15.1c-2.3-1.4-4.8-2.6-6.5-4.8c-2.2-2.9-2.3-6.9-2.3-10.5
			c0.1-11.1,0.1-22.2,0.2-33.3c0-8.2,1.5-18.6,9.4-21"/>
		<g>
			<path d="M1235,768c10.3,4.9,20.9,8.9,30.9,14.5c4.8,2.6,9.5,5.3,14.2,8c5.2,3,10.5,6,13.6,11.3c5.5,9.4,6.1,22.5,7.2,33
				c1.2,12,1.6,24,1.1,36c-0.4,10-1.7,22.3-11.1,28.2c-9,5.5-17.7-1.8-22-9.5c-5.1-9.1-5.5-20.1-8.6-29.9c-3-9.4-8.2-17.6-16.2-23.5
				c-2.2-1.7-5.8-3-7.7-5.1c-2-2.3-1.9-5.3-1.9-8.2c0-6.9,0.1-13.7,0.1-20.6c0-5.9-0.3-12,0.3-17.9c0.4-3.9,1.3-9.6,5.5-11.2
				c5.8-2.2,3.3-11.6-2.6-9.4c-10.1,3.8-12.6,14-13,23.8c-0.3,7.1-0.1,14.3-0.2,21.5c0,6.7-0.8,13.9,0.4,20.6
				c1.2,6.5,5.5,9.5,10.7,12.8c5.7,3.6,10.2,8.6,13,14.8c5.3,11.5,5,24.7,11,35.9c4.8,9.1,13.6,17.3,24.4,17.3
				c11,0,19.7-8.4,23.5-18.1c5-12.5,4.2-27.7,3.7-41c-0.5-14.1-1.8-28.7-5.2-42.5c-1.6-6.5-4.4-12.9-9.2-17.7
				c-5.2-5.2-12.2-8.4-18.6-11.9c-12.8-6.9-27.2-15-41.8-16.7C1233.6,762.3,1232.5,766.8,1235,768L1235,768z"/>
		</g>
	</g>
	<path class="st186" d="M983.1,344.5c0,0-89-11-97.1,75.1c-8.1,86.1-27.2,115-27.2,115s-29.5-79.7-42.8-79.2c-8,0.3-26.2-0.4-39.3-1
		c-7.5-0.3-13,6.7-10.9,13.9c11.6,39.5,47,145.3,93,150c56.6,5.8,88.4-131.2,88.4-131.2l-7,166l91.3,27l90.3-25l-7-168
		c0,0,44.5,120.8,104.6,115.6c46.8-4.1,71.9-93.4,80.7-132.7c2.1-9.3-5-18.2-14.5-18.2h-30.2c-8.2,0-15.5,4.8-18.8,12.3l-23.5,54.1
		c0,0-27.6-82.8-38-109.2c-21.3-54-50-71.1-85.2-65.3c0,0-13.7,29.5-57.6,24.8C988.3,364.2,983.1,344.5,983.1,344.5z"/>
	<path d="M845.3,736.3l3.3,46.7c-63-14.5-113.3-34.5-127.9-61.7c-48-90,189-68,189-68l118.8,32.6L845.3,736.3z"/>
	<path d="M1220.5,793l-2.7,38.3c0,0-81.1-1.9-177.2-11.2C1100,814.4,1165.1,805.8,1220.5,793z"/>
	<path d="M1219.8,741.3l-3.3,46.7c-55.3,12.8-120.5,21.3-179.9,27.1c-59.4-5.8-124.6-14.3-179.9-27.1l-3.3-46.7l183.2-50.4
		L1219.8,741.3z"/>
	<path d="M1317.3,726.3c-14.6,27.3-37.8,47.2-100.9,61.7c-55.3,12.8-120.5,21.3-179.9,27.1c-96.1,9.3-177.2,11.2-177.2,11.2
		l-2.7-38.3l-3.3-46.7l183.2-51.4l103.8-31.6C1140.3,658.3,1365.3,636.3,1317.3,726.3z"/>
	<g>
		<path class="st3" d="M833.9,747.5c-16.3,4.5-31.2,12.9-45.9,21.1c-4.5,2.5-9.1,5.1-12.5,9c-5,5.7-6.8,13.4-8.1,20.9
			c-3.2,17.9-4.4,36.2-3.6,54.3c0.3,7.5,1,15.1,4.2,21.8s9.5,12.4,16.9,13c11.2,0.9,20.1-9.6,23.8-20.2c3.7-10.6,4.2-22.3,9.4-32.2
			c3.2-6.2,8.1-11.5,14.1-15.1c2.3-1.4,4.8-2.6,6.5-4.8c2.2-2.9,2.3-6.9,2.3-10.5c-0.1-11.1-0.1-22.2-0.2-33.3
			c0-8.2-1.5-18.6-9.4-21"/>
		<g>
			<path d="M833.9,744.6c-13.3,1.5-26.1,8.5-37.8,14.6c-11.2,5.8-23.7,11.4-29.1,23.7c-5.4,12.4-6.4,27.5-7.4,40.8
				c-1.1,13.9-1.8,28.7,0.8,42.5c2,10.8,8.2,21.7,19.2,25.3c10.5,3.5,20.8-2.1,27.2-10.3c7.6-9.8,8.9-21.9,12-33.6
				c1.6-6.1,4-11.9,8.2-16.7c4.4-4.9,10.9-7,15.1-11.9c4.6-5.5,3.7-13.3,3.7-19.9c-0.1-8.5-0.1-17-0.2-25.5
				c-0.1-10.8-1.5-23.4-13.1-27.7c-5.9-2.2-8.4,7.2-2.6,9.4c7.7,2.9,5.7,18,5.8,24.2c0,5.9,0.1,11.8,0.1,17.6
				c0,5.7,1.7,13.3-3.4,17.2c-3.8,2.9-7.9,4.9-11.3,8.4c-3.5,3.6-6.4,7.8-8.4,12.4c-4.3,9.4-5.2,19.8-8.3,29.6
				c-2.5,8-8.6,18.4-18.1,18.5c-10.8,0.1-15.9-12.2-17.2-21.1c-1.7-11.9-1.2-24.4-0.4-36.3c0.8-11.5,1.8-23.5,5-34.6
				c3.8-13.2,15.6-18,26.7-24.3c11.3-6.4,23.2-11.1,34.9-16.7C837.8,748.8,836.7,744.3,833.9,744.6L833.9,744.6z"/>
		</g>
	</g>
	<g>
		<g>
			<g>
				<path d="M744.9,412.2c8.5,13.9,25.4,14,39.6,17.7c4.2,1.1,6-5.4,1.8-6.6c-12-3.4-27.9-3.1-36-14.3
					C747.9,405.9,742.7,408.7,744.9,412.2L744.9,412.2z"/>
			</g>
		</g>
		<g>
			<g>
				<path d="M734.8,425c1.7,7.6,12.9,12.4,19.6,14.7c8.5,2.9,18,3.3,26.7,1c4.6-1.2,2.6-7.7-1.9-6.9c-7.8,1.3-15.2,0.9-22.7-1.5
					c-3.6-1.2-6.9-2.7-10.1-4.7c-2.9-1.9-5.4-4.4-8.8-5.2C735.9,421.9,734.5,423.4,734.8,425L734.8,425z"/>
			</g>
		</g>
		<g>
			<g>
				<path d="M798.1,424.6c-0.9-3.6-3.2-6.7-4.4-10.1c-1.3-3.6-2.2-7.6-1.9-11.4c0.6-7.1,6.1-13.6,13.5-13.1c5,0.3,5-7.5,0-7.8
					c-9.6-0.7-17.8,6.5-20.6,15.4c-1.5,4.8-1.3,10.2,0,15c1.3,5.1,4,11.8,8.1,15.2C795.2,429.6,798.9,427.8,798.1,424.6L798.1,424.6
					z"/>
			</g>
		</g>
		<g>
			<g>
				<path d="M816.6,397.6c3.8,1.4,6.2,7.9,7.1,11.5c1.1,4.7,0.8,9.7-1.2,14.1c-4,9.1-11.9,11.7-20.8,13.7c-5,1.1-3.3,7.9,1.1,8.4
					c12.8,1.3,25.5-10.4,28.9-22c3.2-10.8-0.2-30-13-33.2C813.8,388.8,811.9,396,816.6,397.6L816.6,397.6z"/>
			</g>
		</g>
	</g>
	<g>
		<g>
			<g>
				<path d="M1312.3,405c-8.1,11.1-24,10.8-36,14.3c-4.2,1.2-2.4,7.6,1.8,6.6c14.2-3.6,31.1-3.8,39.6-17.7
					C1319.9,404.7,1314.6,401.9,1312.3,405L1312.3,405z"/>
			</g>
		</g>
		<g>
			<g>
				<path d="M1325.1,418.3c-3.2,0.7-5.5,3-8.2,4.8c-3.3,2.2-6.9,3.9-10.7,5.1c-7.5,2.4-14.9,2.8-22.7,1.5c-4.5-0.7-6.5,5.7-1.9,6.9
					c8.6,2.3,18.2,1.9,26.7-1c6.6-2.2,17.9-7.1,19.6-14.7C1328.1,419.4,1326.7,417.9,1325.1,418.3L1325.1,418.3z"/>
			</g>
		</g>
		<g>
			<g>
				<path d="M1269.8,423.7c4-3.3,6.4-9.5,7.8-14.4c1.5-5,1.8-10.7,0.2-15.8c-2.8-8.9-11-16.1-20.6-15.4c-5,0.4-5,8.1,0,7.8
					c7.4-0.5,12.9,6.1,13.5,13.1c0.3,3.6-0.5,7.2-1.6,10.6c-1.2,3.8-3.8,7.1-4.7,11C1263.7,423.8,1267.4,425.6,1269.8,423.7
					L1269.8,423.7z"/>
			</g>
		</g>
		<g>
			<g>
				<path d="M1243.9,386c-12.8,3.3-16.2,22.4-13,33.2c3.4,11.6,16.1,23.3,28.9,22c4.4-0.5,6.2-7.2,1.1-8.4
					c-8.9-2-16.8-4.6-20.8-13.7c-1.8-4.2-2.3-8.9-1.4-13.4c0.8-3.8,3.2-10.8,7.2-12.2C1250.7,392,1248.8,384.8,1243.9,386
					L1243.9,386z"/>
			</g>
		</g>
	</g>
	<g>
		<g>
			<path d="M1078.5,336.8c-1.7-4.5-5.4-8-7.8-12.1c-2.8-4.8-4.2-9.9-5.9-15.1c-1.5-4.4-7.5-2.5-6.8,1.9c0.9,5.6,3.5,11.2,6.3,16
				c2.5,4.3,5.9,10,10.6,12.1C1076.7,340.3,1079.4,339,1078.5,336.8L1078.5,336.8z"/>
		</g>
	</g>
	<path d="M982.3,264.8c4,4.4,6.5-26.5,23.1-0.2c4.6,7.4,2.4-42.8,10.9-43.8c25-3,77,9,87-10s0-44,0-44s-6-26-63-10s-58,51-58,51
		S944.3,223.8,982.3,264.8z"/>
	<g>
		<g>
			<path d="M1075.1,220.1c-2.4,3.8-0.3,9,0.1,13.3c0.6,5.5,1,11.1,1.3,16.6c0.5,10.2,0.9,20.8-1.1,30.9c-1.8,9.1-5.5,17.9-12.7,24
				c-6.9,5.8-16.7,9-25.3,5.2c-4.4-1.9-7.1,4.3-2.6,6.1c19.3,7.7,38.2-8.1,44.2-25.6c3.7-10.8,4-22.5,3.6-33.7
				c-0.2-6.9-0.8-13.7-1.5-20.6c-0.5-4.8,0-13.3-3.8-16.5C1076.5,219.3,1075.5,219.4,1075.1,220.1L1075.1,220.1z"/>
		</g>
	</g>
	<g>
		<g>
			<path d="M1004.8,260c0.2-1,0.2-1.8-0.5-2.6c-0.6-0.7-1.3-1.3-2.1-1.8c-1.4-1-3.2-1.6-4.9-1.9c-3.9-0.6-7.7,0.2-10.8,2.7
				c-6.5,5.2-5.2,15.8,0.6,21c1.7,1.5,3.8,2.8,6.2,3.1c2.7,0.3,5.3-1.2,5.5-4.1c-1.6,0-3.3,0-4.9,0c1,8.1,1.4,16.4,1.3,24.6
				c-0.1,8-0.8,16-2.8,23.8c-1.1,4.4-2.7,8.6-4.7,12.7c-0.6,1.1-0.3,2.5,0.8,3.2c1,0.6,2.7,0.3,3.2-0.8c7.1-15.4,8.1-32.3,7.7-49
				c-0.1-4.8-0.5-9.6-0.6-14.4c0-1.2-0.9-2.3-2.1-2.4c-1.1-0.1-2.5,0.5-2.7,1.8c-0.1,0.6,0.3-0.1,0.3-0.3c0,0,0.2-0.1,0.2-0.1
				c0,0-0.4,0-0.4,0c-0.2,0-0.8-0.2-1.1-0.3c-1.3-0.6-2.1-1.3-3-2.4c-1.5-1.7-2.5-4.2-2.5-6.4c-0.1-2.4,0.7-4.5,2.6-6.1
				c1.5-1.3,4-2.1,6.1-2.1c1.3,0,2.5,0.2,3.7,0.8c0.5,0.3,1,0.6,1.5,1c0.7,0.6,1.2,0.9,2.2,1C1004,260.8,1004.7,260.6,1004.8,260
				L1004.8,260z"/>
		</g>
	</g>
	<g>
		<g>
			<path d="M1057.8,240.6c-0.3,3.3,0.9,6.4,1.6,9.5c0.8,3.9,1.6,7.8,2.1,11.8c0.6,4,1.1,8.1,1.4,12.2c0.2,2.3-0.1,2.4-2.4,2.5
				c-2.3,0.1-4.9-0.6-7.1-1.2c-3.2-0.8-4.5,4.2-1.4,4.9c3.7,0.8,9.5,2.5,13.1,0.7c3.4-1.7,2.8-5.6,2.5-8.8
				c-0.6-5.4-1.3-10.8-2.4-16.1c-1-5.2-1.6-11.9-4.7-16.3C1059.7,238.7,1057.9,239.1,1057.8,240.6L1057.8,240.6z"/>
		</g>
	</g>
	<g>
		<g>
			<path d="M1025.1,251.7c5.3,6.7,15.4,6.5,22.5,3.4c2.7-1.2,0.4-5.4-2.3-4c-6.6,3.3-12.8,1.6-19.3-0.9
				C1025.1,249.9,1024.7,251.1,1025.1,251.7L1025.1,251.7z"/>
		</g>
	</g>
	<g>
		<g>
			<path d="M1068.9,250.5c2,2.7,5.1,3.3,8.3,2.8c2.8-0.5,6.8-2.2,6.3-5.6c-0.1-0.8-1-1.3-1.8-1.4c-2-0.1-3.2,2-5.1,2.4
				c-2,0.4-3.9-0.2-5.8-0.7C1069.5,247.7,1068,249.3,1068.9,250.5L1068.9,250.5z"/>
		</g>
	</g>
	<g>
		<g>
			<path d="M1023.6,294c5.5,2.8,12.3,4,18.1,1.4c1.8-0.8,0.9-4-1-3.7c-5.3,0.7-9.9,1-14.9-1.5C1023.3,288.9,1021.1,292.7,1023.6,294
				L1023.6,294z"/>
		</g>
	</g>
	<g>
		<g>
			<path class="st3" d="M1093.4,207.4c5.6-7.6,4.1-20,0-27.9c-4.1-8-11.8-13.9-20.3-16.4c-5-1.5-7.2,6.6-2.1,7.8
				c6.7,1.6,12.6,5.5,15.9,11.6c4.3,7.9,2.4,14.4,0.8,22.6C1087.1,208.6,1091.3,210.2,1093.4,207.4L1093.4,207.4z"/>
		</g>
	</g>
	<g>
		<g>
			<path class="st3" d="M1238.2,680.5c7,1.8,14.5,1.9,21.6,3.3c6.9,1.4,13.7,3.5,19.8,6.9c5.5,3,10.6,7,14.4,12
				c1.7,2.3,3.3,4.8,4.3,7.5c1.5,3.7,1.2,7.2,1.8,11.1c0.6,3.9,6.4,4.1,8.1,1.1c3.9-6.9-0.1-16-4.1-22c-4.2-6.4-10-11.7-16.5-15.8
				c-7-4.3-14.8-7.1-22.8-8.9c-8.6-1.9-17.9-3.3-26.7-2C1234.7,674.3,1235.1,679.7,1238.2,680.5L1238.2,680.5z"/>
		</g>
	</g>
	<g>
		<g>
			<path class="st3" d="M903.9,424.1c0.5-13.7,5.4-27.2,14.3-37.7c4.1-4.8,8.9-8.9,14.3-12.3c2.9-1.8,5.9-3.3,9-4.6
				c2.8-1.1,5.7-1.7,8.2-3.3c2.9-1.8,1.8-6.5-1.8-6.5c-6.4-0.1-14,4.6-19.2,8c-6.2,4.1-11.8,9.1-16.4,15
				c-9.3,11.8-14.3,26.3-14.6,41.3C897.7,428.1,903.8,428,903.9,424.1L903.9,424.1z"/>
		</g>
	</g>
</g>
</svg>
