<?xml version="1.0" encoding="utf-8"?>
<!-- Generator: Adobe Illustrator 24.0.2, SVG Export Plug-In . SVG Version: 6.00 Build 0)  -->
<svg version="1.1" id="Layer_1" xmlns="http://www.w3.org/2000/svg" xmlns:xlink="http://www.w3.org/1999/xlink" x="0px" y="0px"
	 viewBox="0 0 1920 1080" style="enable-background:new 0 0 1920 1080;" xml:space="preserve">
<style type="text/css">
	.st0{fill:#6CACEC;}
	.st1{fill:none;stroke:#000000;stroke-width:2;stroke-linecap:round;stroke-linejoin:round;stroke-miterlimit:10;}
	.st2{opacity:0.1;}
	.st3{fill:#FFFFFF;}
	.st4{fill:#FF81C4;}
	.st5{fill:#FFFFFF;stroke:#000000;stroke-width:2;stroke-linecap:round;stroke-linejoin:round;stroke-miterlimit:10;}
	.st6{fill:#5856D6;}
	.st7{fill:#FF81C4;stroke:#000000;stroke-width:2;stroke-linecap:round;stroke-linejoin:round;stroke-miterlimit:10;}
	.st8{fill:#3880BA;}
	.st9{fill:#FFFFFF;stroke:#000000;stroke-miterlimit:10;}
	.st10{fill:none;stroke:#000000;stroke-miterlimit:10;}
	.st11{fill:none;stroke:#000000;stroke-width:8;stroke-linecap:round;stroke-linejoin:round;stroke-miterlimit:10;}
	.st12{fill:url(#SVGID_1_);stroke:#F2566A;stroke-miterlimit:10;}
	.st13{fill:url(#SVGID_2_);}
	.st14{fill:none;stroke:#F2566A;stroke-miterlimit:10;}
	.st15{fill:none;stroke:#F2566A;stroke-miterlimit:10;stroke-dasharray:10.2805,139.8143;}
	.st16{fill:url(#SVGID_4_);stroke:#F2566A;stroke-miterlimit:10;}
	.st17{fill:url(#SVGID_5_);stroke:#F2566A;stroke-miterlimit:10;}
	.st18{fill:url(#SVGID_6_);fill-opacity:0.15;stroke:#549BF4;stroke-width:2;stroke-opacity:8.222246e-02;}
	.st19{fill:url(#SVGID_8_);fill-opacity:0.15;stroke:#549BF4;stroke-width:2;stroke-opacity:8.222246e-02;}
	.st20{opacity:0.62;fill:url(#SVGID_10_);fill-opacity:0.5;}
	.st21{opacity:0.62;fill:url(#SVGID_12_);fill-opacity:0.5;}
	.st22{opacity:0.62;fill:url(#SVGID_13_);fill-opacity:0.5;}
	.st23{opacity:0.62;fill:url(#SVGID_14_);fill-opacity:0.5;}
	.st24{opacity:0.62;fill:url(#SVGID_15_);fill-opacity:0.5;}
	.st25{opacity:0.62;fill:url(#SVGID_16_);fill-opacity:0.5;}
	.st26{opacity:0.62;fill:url(#SVGID_17_);fill-opacity:0.5;}
	.st27{opacity:0.62;fill:url(#SVGID_18_);fill-opacity:0.5;}
	.st28{fill:url(#SVGID_19_);stroke:#F2566A;stroke-miterlimit:10;stroke-dasharray:203,31,0,0,0;}
	.st29{fill:none;stroke:#F2566A;stroke-miterlimit:10;stroke-dasharray:110,0,0,0,0;}
	.st30{fill:none;stroke:#CBD6E8;stroke-miterlimit:10;}
	.st31{fill:url(#SVGID_20_);}
	.st32{fill:url(#SVGID_21_);}
	.st33{fill:url(#SVGID_22_);}
	.st34{fill:url(#SVGID_23_);}
	.st35{fill:url(#SVGID_24_);}
	.st36{fill:url(#SVGID_25_);}
	.st37{fill:none;stroke:#FFFFFF;stroke-miterlimit:10;}
	.st38{fill:url(#SVGID_27_);}
	.st39{fill:none;stroke:#FFFFFF;stroke-linecap:round;stroke-miterlimit:10;}
	.st40{fill:url(#SVGID_28_);}
	.st41{fill:url(#SVGID_29_);}
	.st42{opacity:0.36;fill:url(#SVGID_30_);enable-background:new    ;}
	.st43{opacity:0.36;fill:url(#SVGID_31_);enable-background:new    ;}
	.st44{fill:url(#SVGID_32_);fill-opacity:0.15;stroke:#549BF4;stroke-width:2;stroke-opacity:8.222246e-02;}
	.st45{fill:url(#SVGID_34_);fill-opacity:0.15;stroke:#549BF4;stroke-width:2;stroke-opacity:8.222246e-02;}
	.st46{fill:url(#SVGID_35_);fill-opacity:0.15;stroke:#549BF4;stroke-width:2;stroke-opacity:8.222246e-02;}
	.st47{fill:url(#SVGID_36_);fill-opacity:0.15;stroke:#549BF4;stroke-width:2;stroke-opacity:8.222246e-02;}
	.st48{fill:url(#SVGID_37_);fill-opacity:0.5;stroke:#FFFFFF;stroke-linejoin:round;}
	.st49{fill:url(#SVGID_38_);fill-opacity:0.15;stroke:#549BF4;stroke-width:2;stroke-opacity:8.222246e-02;}
	.st50{opacity:0.54;fill:#FFFFFF;enable-background:new    ;}
	.st51{fill:#363C61;}
	.st52{fill:none;stroke:url(#SVGID_39_);stroke-width:9;stroke-miterlimit:10;}
	.st53{fill:none;stroke:url(#SVGID_40_);stroke-width:9;stroke-miterlimit:10;}
	.st54{fill:none;stroke:#FFFFFF;stroke-width:3;stroke-miterlimit:10;}
	.st55{opacity:0.62;fill:url(#SVGID_41_);fill-opacity:0.5;}
	.st56{opacity:0.62;fill:url(#SVGID_42_);fill-opacity:0.5;}
	.st57{opacity:0.62;fill:url(#SVGID_43_);fill-opacity:0.5;}
	.st58{opacity:0.6;fill:url(#SVGID_44_);fill-opacity:0.5;}
	.st59{fill:url(#SVGID_45_);fill-opacity:0.15;stroke:#549BF4;stroke-width:2;stroke-opacity:8.222246e-02;}
	.st60{fill:url(#SVGID_46_);fill-opacity:0.15;stroke:#549BF4;stroke-width:2;stroke-opacity:8.222246e-02;}
	.st61{fill:url(#SVGID_47_);fill-opacity:0.15;stroke:#549BF4;stroke-width:2;stroke-opacity:8.222246e-02;}
	.st62{fill:url(#SVGID_48_);fill-opacity:0.15;stroke:#549BF4;stroke-width:2;stroke-opacity:8.222246e-02;}
	.st63{opacity:0.62;fill:url(#SVGID_49_);fill-opacity:0.5;}
	.st64{opacity:0.62;fill:url(#SVGID_50_);fill-opacity:0.5;}
	.st65{opacity:5.000000e-02;fill:none;stroke:#FFFFFF;stroke-width:2;stroke-miterlimit:10;}
	.st66{opacity:0.15;fill:url(#SVGID_51_);fill-opacity:0.5;}
	.st67{opacity:0.5;}
	.st68{fill:none;stroke:#FFFFFF;stroke-width:2;stroke-dasharray:11.8503,11.8503;}
	.st69{fill:url(#SVGID_52_);fill-opacity:0.5;stroke:#FFFFFF;stroke-linejoin:round;}
	.st70{fill:url(#SVGID_53_);fill-opacity:0.15;stroke:#549BF4;stroke-width:2;stroke-opacity:8.222246e-02;}
	.st71{fill:#CAD6E8;}
	.st72{fill:url(#SVGID_54_);}
	.st73{fill:url(#SVGID_55_);}
	.st74{opacity:0.89;fill:#F2566A;enable-background:new    ;}
	.st75{fill:#EBF1FC;}
	.st76{fill:#CEDEF2;}
	.st77{fill:url(#SVGID_56_);}
	.st78{fill:url(#SVGID-2_1_);}
	.st79{fill:url(#SVGID-3_1_);}
	.st80{fill:url(#SVGID_57_);}
	.st81{clip-path:url(#SVGID_58_);}
	.st82{fill:url(#SVGID_59_);}
	.st83{fill:#CBD6E8;}
	.st84{stroke:#000000;stroke-miterlimit:10;}
	.st85{fill:url(#SVGID_60_);}
	.st86{fill:url(#SVGID-4_1_);}
	.st87{fill:url(#SVGID_61_);}
	.st88{opacity:0.36;fill:url(#SVGID_62_);enable-background:new    ;}
	.st89{opacity:0.4;fill:#3574EC;enable-background:new    ;}
	.st90{fill:url(#SVGID-5_1_);}
	.st91{fill:url(#SVGID-6_1_);}
	.st92{fill:url(#SVGID_63_);}
	.st93{clip-path:url(#SVGID_64_);}
	.st94{fill:url(#SVGID_65_);}
	.st95{fill:url(#SVGID-7_1_);}
	.st96{opacity:0.4;fill:#FFFFFF;enable-background:new    ;}
	.st97{opacity:0.9;fill:#FFFFFF;enable-background:new    ;}
	.st98{opacity:0.9;}
	.st99{fill:url(#SVGID_66_);}
	.st100{opacity:0.36;fill:url(#SVGID_67_);enable-background:new    ;}
	.st101{fill:url(#SVGID_68_);}
	.st102{fill:url(#SVGID_69_);}
	.st103{fill:url(#SVGID_70_);fill-opacity:0.3;}
	.st104{opacity:8.000000e-02;fill:#549BF4;enable-background:new    ;}
	.st105{fill:url(#SVGID_71_);fill-opacity:0.15;}
	.st106{opacity:0.8;}
	.st107{fill:#9090D0;}
	.st108{fill:none;stroke:#000000;stroke-width:3;stroke-linecap:round;stroke-linejoin:round;stroke-miterlimit:10;}
	.st109{fill:#CFCED4;}
	.st110{fill:#FEAD91;}
	.st111{fill:#FFFFFF;stroke:#000000;stroke-width:3;stroke-linecap:round;stroke-linejoin:round;stroke-miterlimit:10;}
	.st112{fill:#FEAD91;stroke:#000000;stroke-width:3;stroke-miterlimit:10;}
	.st113{fill:#FFE2AA;}
	.st114{fill:#FFE2AA;stroke:#000000;stroke-width:3;stroke-linecap:round;stroke-linejoin:round;stroke-miterlimit:10;}
	.st115{fill:none;stroke:#000000;stroke-width:4;stroke-linecap:round;stroke-linejoin:round;stroke-miterlimit:10;}
	.st116{fill:#FFFFFF;stroke:#000000;stroke-width:5;stroke-linecap:round;stroke-linejoin:round;stroke-miterlimit:10;}
	.st117{fill:none;stroke:#000000;stroke-width:3;stroke-miterlimit:10;}
	.st118{fill:#FFFFFF;stroke:#000000;stroke-width:2;stroke-miterlimit:10;}
	.st119{fill:#FFC9E6;}
	.st120{fill:#FCA1BB;}
	.st121{fill:#151614;}
	.st122{fill:#FFFFFF;stroke:#1B0042;stroke-width:2;stroke-linecap:round;stroke-linejoin:round;stroke-miterlimit:10;}
	.st123{fill:none;stroke:#1B0042;stroke-width:2;stroke-linecap:round;stroke-linejoin:round;stroke-miterlimit:10;}
	.st124{fill:#1B0042;}
	
		.st125{opacity:0.15;clip-path:url(#XMLID_13_);fill:none;stroke:#FFFFFF;stroke-width:2;stroke-linecap:round;stroke-linejoin:round;stroke-miterlimit:10;}
	.st126{fill:none;stroke:#000000;stroke-linecap:round;stroke-linejoin:round;stroke-miterlimit:10;}
	.st127{fill:none;stroke:#FFFFFF;stroke-linecap:round;stroke-linejoin:round;stroke-miterlimit:10;}
	
		.st128{opacity:0.15;clip-path:url(#XMLID_15_);fill:none;stroke:#FFFFFF;stroke-width:2;stroke-linecap:round;stroke-linejoin:round;stroke-miterlimit:10;}
	
		.st129{opacity:0.15;clip-path:url(#XMLID_16_);fill:none;stroke:#FFFFFF;stroke-width:2;stroke-linecap:round;stroke-linejoin:round;stroke-miterlimit:10;}
	.st130{fill:none;stroke:#FFFFFF;stroke-width:2;stroke-linecap:round;stroke-linejoin:round;stroke-miterlimit:10;}
	
		.st131{opacity:0.15;clip-path:url(#XMLID_17_);fill:none;stroke:#FFFFFF;stroke-width:2;stroke-linecap:round;stroke-linejoin:round;stroke-miterlimit:10;}
	.st132{opacity:0.15;clip-path:url(#XMLID_18_);fill:none;stroke:#FFFFFF;stroke-width:2;stroke-miterlimit:10;}
	
		.st133{opacity:0.15;clip-path:url(#XMLID_19_);fill:none;stroke:#FFFFFF;stroke-width:2;stroke-linecap:round;stroke-linejoin:round;stroke-miterlimit:10;}
	.st134{fill:#FFFFFF;stroke:#2C234A;stroke-width:2;stroke-linecap:round;stroke-linejoin:round;stroke-miterlimit:10;}
	.st135{fill:#8AAFF6;}
	.st136{fill:none;stroke:#2C234A;stroke-width:2;stroke-linecap:round;stroke-linejoin:round;stroke-miterlimit:10;}
	.st137{opacity:0.2;}
	.st138{fill:#2C234A;}
	.st139{fill:none;stroke:#4417D7;stroke-width:2;stroke-linecap:round;stroke-linejoin:round;stroke-miterlimit:10;}
	.st140{fill:none;stroke:#EFCC4A;stroke-width:2;stroke-linecap:round;stroke-linejoin:round;stroke-miterlimit:10;}
	.st141{fill:#E3DFFF;}
	.st142{fill:none;stroke:#9D8AF6;stroke-width:2;stroke-linecap:round;stroke-linejoin:round;stroke-miterlimit:10;}
	.st143{clip-path:url(#SVGID_72_);}
	.st144{fill:none;stroke:#E3DFFF;stroke-width:4;stroke-linecap:round;stroke-linejoin:round;stroke-miterlimit:10;}
	.st145{fill:none;stroke:#D6D4D4;stroke-width:10;stroke-linecap:round;stroke-linejoin:round;stroke-miterlimit:10;}
	.st146{fill:none;stroke:#FF4B42;stroke-width:10;stroke-linecap:round;stroke-linejoin:round;stroke-miterlimit:10;}
	.st147{fill:#D7B9D8;}
	.st148{fill:#D6D4D4;}
	.st149{fill:#FFB69D;}
	.st150{fill:#D6D4D4;stroke:#FFFFFF;stroke-width:2;stroke-miterlimit:10;}
	.st151{clip-path:url(#XMLID_20_);}
	.st152{clip-path:url(#XMLID_21_);}
	.st153{fill:none;stroke:#FFFFFF;stroke-width:5;stroke-linecap:round;stroke-linejoin:round;stroke-miterlimit:10;}
	.st154{fill:#FF4B42;}
	.st155{clip-path:url(#XMLID_24_);}
	.st156{clip-path:url(#SVGID_74_);}
	.st157{clip-path:url(#XMLID_25_);}
	.st158{fill:#FEC0D9;}
	
		.st159{fill:none;stroke:#D6D4D4;stroke-width:3;stroke-linecap:round;stroke-linejoin:round;stroke-miterlimit:10;stroke-dasharray:20,20;}
	.st160{fill:#6BA5BD;}
	.st161{clip-path:url(#XMLID_28_);}
	.st162{clip-path:url(#SVGID_76_);}
	.st163{clip-path:url(#XMLID_29_);}
	.st164{clip-path:url(#XMLID_33_);}
	.st165{fill:none;stroke:#FFFFFF;stroke-width:4;stroke-linecap:round;stroke-linejoin:round;stroke-miterlimit:10;}
	.st166{fill:none;stroke:#FFFF00;stroke-width:2;stroke-linecap:round;stroke-linejoin:round;stroke-miterlimit:10;}
	.st167{fill:#FEC0D9;stroke:#000000;stroke-width:3;stroke-linecap:round;stroke-linejoin:round;stroke-miterlimit:10;}
	.st168{fill:#FFCDB2;stroke:#000000;stroke-width:2;stroke-linecap:round;stroke-linejoin:round;stroke-miterlimit:10;}
	.st169{stroke:#FFFFFF;stroke-width:2;stroke-miterlimit:10;}
	.st170{fill:#996533;stroke:#000000;stroke-width:2;stroke-linecap:round;stroke-linejoin:round;stroke-miterlimit:10;}
	.st171{stroke:#000000;stroke-width:2;stroke-linecap:round;stroke-linejoin:round;stroke-miterlimit:10;}
	.st172{fill:#996533;stroke:#000000;stroke-width:2;stroke-miterlimit:10;}
	.st173{fill:#FF6600;stroke:#000000;stroke-width:2;stroke-linecap:round;stroke-linejoin:round;stroke-miterlimit:10;}
	.st174{fill:#FFCDB2;}
	.st175{fill:none;stroke:#000000;stroke-width:2;stroke-miterlimit:10;}
	.st176{fill:none;stroke:#000000;stroke-width:5;stroke-linecap:round;stroke-linejoin:round;stroke-miterlimit:10;}
	.st177{fill:#9B4CB5;stroke:#000000;stroke-width:2;stroke-linecap:round;stroke-linejoin:round;stroke-miterlimit:10;}
	.st178{fill:#C8C8FF;stroke:#000000;stroke-width:2;stroke-linecap:round;stroke-linejoin:round;stroke-miterlimit:10;}
	.st179{fill:#DDDCDD;}
	.st180{fill:#FA6058;stroke:#000000;stroke-width:2;stroke-miterlimit:10;}
	.st181{fill:#FBBC2D;stroke:#000000;stroke-width:2;stroke-miterlimit:10;}
	.st182{fill:#30CA41;stroke:#000000;stroke-width:2;stroke-miterlimit:10;}
	.st183{stroke:#FFFFFF;stroke-width:2;stroke-linecap:round;stroke-linejoin:round;stroke-miterlimit:10;}
	.st184{fill:none;stroke:#C8C8FF;stroke-width:5;stroke-linecap:round;stroke-linejoin:round;stroke-miterlimit:10;}
	.st185{stroke:#000000;stroke-width:2;stroke-miterlimit:10;}
	.st186{fill:#FF2D55;}
	.st187{fill:#D4D7FF;}
	.st188{fill:#FFCBC2;}
	.st189{clip-path:url(#SVGID_77_);}
	.st190{fill:#352F84;}
	.st191{clip-path:url(#SVGID_78_);}
	.st192{clip-path:url(#SVGID_79_);}
	.st193{clip-path:url(#XMLID_37_);}
	.st194{opacity:0.4;clip-path:url(#XMLID_41_);}
	.st195{clip-path:url(#XMLID_44_);}
	.st196{fill:#FF3167;}
	.st197{fill:#91A3B4;}
	.st198{fill:#E05555;}
	.st199{fill:none;stroke:#EFA9A9;stroke-width:2;stroke-miterlimit:10;}
	.st200{clip-path:url(#XMLID_46_);}
	.st201{fill:#F2F2F2;}
	.st202{fill:#6F8393;}
	.st203{fill:#333333;}
	.st204{fill:#B5C7C3;}
	.st205{clip-path:url(#XMLID_47_);}
	.st206{clip-path:url(#SVGID_81_);}
	.st207{clip-path:url(#XMLID_50_);}
	.st208{fill:#5595E0;}
	.st209{fill:#FCFCFC;}
	.st210{fill:none;stroke:#CACBDB;stroke-width:10;stroke-linecap:round;stroke-linejoin:round;stroke-miterlimit:10;}
	
		.st211{fill:none;stroke:#CACBDB;stroke-width:10;stroke-linecap:round;stroke-linejoin:round;stroke-miterlimit:10;stroke-dasharray:30,30;}
	.st212{fill:none;stroke:#CACBDB;stroke-width:21;stroke-linecap:round;stroke-linejoin:round;stroke-miterlimit:10;}
	.st213{fill:#E45858;}
	.st214{fill:#CFD4FF;}
	.st215{fill:#2A2C67;}
	.st216{clip-path:url(#XMLID_51_);}
	.st217{fill:#585DE4;}
	.st218{fill:none;stroke:#324A81;stroke-width:5;stroke-linecap:round;stroke-linejoin:round;stroke-miterlimit:10;}
	.st219{fill:#CFD4FF;stroke:#2A2C67;stroke-width:5;stroke-linecap:round;stroke-linejoin:round;stroke-miterlimit:10;}
	.st220{clip-path:url(#XMLID_52_);}
	.st221{clip-path:url(#XMLID_53_);}
	.st222{fill:none;stroke:#FEFEFF;stroke-width:5;stroke-linecap:round;stroke-linejoin:round;stroke-miterlimit:10;}
	.st223{fill:#CFD4FF;stroke:#2A2C67;stroke-width:5;stroke-miterlimit:10;}
	.st224{fill:none;stroke:#2A2C67;stroke-width:5;stroke-linecap:round;stroke-linejoin:round;stroke-miterlimit:10;}
	.st225{fill:none;stroke:#585DE4;stroke-width:5;stroke-miterlimit:10;}
	.st226{fill:none;stroke:#585DE4;stroke-width:5;stroke-linecap:round;stroke-linejoin:round;stroke-miterlimit:10;}
	.st227{fill:#E8E8F7;}
	
		.st228{opacity:0.4;fill:none;stroke:#303044;stroke-width:2.5095;stroke-linecap:round;stroke-linejoin:round;stroke-miterlimit:10;}
	.st229{fill:#FEC5C4;}
	.st230{fill:#EF8D8B;}
	.st231{fill:#FEC5C4;stroke:#EF8D8B;stroke-width:2.5095;stroke-linecap:round;stroke-linejoin:round;stroke-miterlimit:10;}
	.st232{fill:#F048BA;}
	.st233{fill:#FFFFFF;stroke:#E8E8F7;stroke-width:2;stroke-linecap:round;stroke-linejoin:round;stroke-miterlimit:10;}
	.st234{fill:none;stroke:#E8E8F7;stroke-width:2;stroke-linecap:round;stroke-linejoin:round;stroke-miterlimit:10;}
	.st235{fill:#303044;}
	.st236{fill:none;}
	.st237{fill:none;stroke:#EF8D8B;stroke-width:2.5095;stroke-linecap:round;stroke-linejoin:round;stroke-miterlimit:10;}
	.st238{fill:none;stroke:#E8E8F7;stroke-width:7;stroke-linecap:round;stroke-linejoin:round;stroke-miterlimit:10;}
	.st239{fill:#FFFFFF;stroke:#E8E8F7;stroke-width:7;stroke-linecap:round;stroke-linejoin:round;stroke-miterlimit:10;}
	.st240{fill:#FFFFFF;stroke:#E8E8F7;stroke-width:5.62;stroke-miterlimit:10;}
	.st241{fill:#E8E8F7;stroke:#E8E8F7;stroke-width:5.62;stroke-miterlimit:10;}
	.st242{fill:#FEC5C4;stroke:#EF8D8B;stroke-width:2;stroke-linecap:round;stroke-linejoin:round;stroke-miterlimit:10;}
	.st243{fill:none;stroke:#EF8D8B;stroke-width:2;stroke-linecap:round;stroke-linejoin:round;stroke-miterlimit:10;}
	.st244{fill:#E8E8F7;stroke:#FFFFFF;stroke-width:5.62;stroke-miterlimit:10;}
	.st245{opacity:0.4;fill:none;stroke:#000000;stroke-width:2;stroke-linecap:round;stroke-linejoin:round;stroke-miterlimit:10;}
	.st246{fill:none;stroke:#E8E8F7;stroke-width:5.1321;stroke-miterlimit:10;}
	.st247{fill:none;stroke:#EF8D8B;stroke-width:2;stroke-linecap:round;stroke-miterlimit:10;}
	.st248{fill:#FFFFFF;stroke:#E8E8F7;stroke-width:5;stroke-miterlimit:10;}
	.st249{fill:#E8E8F7;stroke:#E8E8F7;stroke-width:5;stroke-miterlimit:10;}
	.st250{fill:#FFFFFF;stroke:#E8E8F7;stroke-width:5;stroke-miterlimit:10;stroke-dasharray:20,20;}
	.st251{fill:#F2F2F6;}
	.st252{opacity:0.4;fill:#FFFFFF;stroke:#000000;stroke-width:2.1161;stroke-linecap:round;stroke-miterlimit:10;}
	
		.st253{opacity:0.4;fill:none;stroke:#000000;stroke-width:2.1161;stroke-linecap:round;stroke-linejoin:round;stroke-miterlimit:10;stroke-dasharray:140.7185,204.2005;}
	.st254{opacity:0.4;fill:none;stroke:#000000;stroke-width:2.1161;stroke-linecap:round;stroke-miterlimit:10;}
	.st255{fill:#282828;}
	.st256{fill:#FEC5C4;stroke:#EF8D8B;stroke-width:1.058;stroke-linecap:round;stroke-miterlimit:10;}
	.st257{fill:none;stroke:#FFFFFF;stroke-width:8;stroke-linecap:round;stroke-linejoin:round;stroke-miterlimit:10;}
	
		.st258{fill:none;stroke:#E8E8F7;stroke-width:5;stroke-linecap:round;stroke-linejoin:round;stroke-miterlimit:10;stroke-dasharray:20,20;}
	.st259{fill:none;stroke:#E8E8F7;stroke-width:4.7431;stroke-linecap:round;stroke-linejoin:round;stroke-miterlimit:10;}
	
		.st260{opacity:0.4;fill:none;stroke:#000000;stroke-width:1.7088;stroke-linecap:round;stroke-linejoin:round;stroke-miterlimit:10;}
	.st261{fill-rule:evenodd;clip-rule:evenodd;fill:#F7931A;}
	.st262{fill:none;stroke:#EF8D8B;stroke-width:1.9557;stroke-linecap:round;stroke-linejoin:round;stroke-miterlimit:10;}
</style>
<path class="st0" d="M964.9,246.5c0,0-75,50-143,64c0,0-45-9-54,22c0,0-44,25-2,42c0,0-7,13,12,17c0,0-4,20,20,16s146-32,202-119
	L964.9,246.5z"/>
<path class="st1" d="M836.9,345.5c-4,1-28,11-46-11c0,0-18,22-23-2"/>
<path class="st1" d="M764.9,350.5c0,0,28-11,29,5s-29,19-29,19"/>
<path class="st1" d="M778.9,391.5c0,0,49-19,15-36"/>
<path class="st1" d="M802.4,376.7c0,0,8.2-5.9,12.9,3.5c4.6,9.4-3.4,23.4-27.9,27.9"/>
<path d="M716.9,605.5c0,0-5,23,14,26s17-10,36-5s18,23,34,24s15-3,36-8s13,11,37,14s29-13,46,0s16,24,30,19s14.6-37.4,6.3-32.7
	C947.9,647.5,716.9,605.5,716.9,605.5z"/>
<path class="st9" d="M812.9,551.5l-84.1,26.3c-7.2,2.2-12.2,8.8-12.3,16.4c-0.1,6.4-0.1,12.8,0.4,12.3c0.9-0.9,190.4,39.4,232,48.3
	c4.1,0.9,7.8-2.3,7.6-6.5l-5.9-64.4L812.9,551.5z"/>
<path class="st6" d="M1006.9,336.5c0,0-69-88-143-56s-56,274-56,274s126,25,147,59l-17-203l57,37L1006.9,336.5z"/>
<path class="st2" d="M982.5,311.5c0,0-23.7,44.3-20.9,114.4l13.5,8.7L993.7,322L982.5,311.5z"/>
<path class="st0" d="M1063.3,176.2l-7.1-26.5l-9.3,11.1c-5,4.2-19.6-1.3-24.8-5.3c-14.8-11.4-37.6-37.5-26-64
	c15.9-36.2,56.5-18.5,56.5-18.5s16.8,9.8,24.9,33.2c2.5,7.2,6.2,13.8,10.9,19.8l19,23.9C1107.4,149.7,1093.3,183.2,1063.3,176.2z"/>
<g>
	<path class="st4" d="M1150.5,133.4c-19.9,2.9-38.5,11.4-54.4,23.8c-8.5,6.6-20.4,12.8-35.2,12.4c0,0-53-1-96,77l35,42l30-22l31,61
		c0,0,27-16,128,28c0,0,43,21,70-8c-4.8-27.4-13.1-60.5-27.5-96.5c-20.4-50.8-46.1-90-67.5-117.5
		C1161.8,132.8,1159.4,132.1,1150.5,133.4z"/>
</g>
<g>
	<path class="st0" d="M1233.4,165.4c1.8,4.3,44.9,26,85.8,45.9c64.1,31.2,110.1,91,122.2,161.2c6.7,38.7,3.4,75.8-28.4,94
		c0,0-14,24-36,14c0,0-48.5,7.5-29-33l0,0c-12.5-1.3-23.1-9.9-26.8-21.9c-0.4-1.3-0.8-2.7-1.2-4.2l-32-121.9l-94-48L1233.4,165.4z"
		/>
	<path class="st1" d="M1387.9,445.5c0,0,2,21-11,35"/>
	<path class="st1" d="M1418.9,437.5c0,0,2,21-11,35"/>
	<path class="st1" d="M1338.9,428.5c1,0,17,15,10,34"/>
</g>
<g>
	<path d="M1040.5,104.8c0.4,1.3-1.1,2.3-2.1,1.5c-7.4-5.8-21.2-5.4-37.8,24.6c-22.2,40.2-54.2,4.2-35.2-12.8s36-36,45-49s29-7,29-7
		s32,1.8,39.5,48.4l-24.5-4.4c0,0,3-22-9-19C1037.4,89.1,1038.7,98.7,1040.5,104.8z"/>
</g>
<line class="st1" x1="1071.4" y1="137" x2="1056.4" y2="150"/>
<line class="st1" x1="1026.2" y1="121" x2="1022.9" y2="126.8"/>
<line class="st1" x1="1008.8" y1="137.7" x2="1012.5" y2="135.5"/>
<path class="st1" d="M1016.3,128.2l3.9,16.3c0.4,2,2.7,3,4.4,1.9l2-1.3"/>
<g>
	<path class="st5" d="M1052.7,131.5l-8.2,12.8c0,0-8.6-4.4-5.7-10.1C1043.5,125.1,1052.7,131.5,1052.7,131.5z"/>
	<path class="st5" d="M1048.4,130c-3,3-7.7,11.5-7.7,11.5"/>
</g>
<path class="st7" d="M1193.9,251.5c0,0-69-36-74-68s17-65,57-48s61,33,61,33S1235.9,230.5,1193.9,251.5z"/>
<path class="st9" d="M983.9,591.5l-72.2,0.9c-5.9,0.1-11.7,1.5-16.8,4.6c-8.9,5.4-12.7,13.6-13.4,27.5c-0.1,1.7,0,2.8,0.3,3
	c1.7,0.9,181.3,50.6,233.8,65.1c7.2,2,14.4-3.4,14.5-10.9c0.2-21.7-5.3-56.2-7.3-68.2C1122.9,613.5,1005.9,578.5,983.9,591.5z"/>
<path d="M882.8,623.4c0,0-8.2,22.1,10.8,27.7c19,5.6,18.7-7.5,37.5,0.1c18.8,7.6,15.3,25.3,31.6,28.5c16.2,3.2,15.8-0.9,37.9-2.9
	s11.8,12.7,36,19c24.2,6.3,31.4-8.8,47.1,6.4c15.6,15.2,13.1,26,28.1,23s19.9-35,10.8-31.5C1113.5,697.2,882.8,623.4,882.8,623.4z"
	/>
<path class="st6" d="M1258.9,347.5c0,0,20,142-154,95c0,0,22,146,24,219c0,0-12-66-145-70c0,0-65-323,77-318c0,0,57,1,82,62
	c0,0-12-4,39.4,15.2C1182.3,350.7,1232.9,378.5,1258.9,347.5z"/>
<line class="st1" x1="1098.4" y1="355" x2="1106" y2="450"/>
<line class="st1" x1="1153.4" y1="363" x2="1142.4" y2="335"/>
<line class="st1" x1="936.4" y1="373" x2="937.4" y2="411"/>
<path class="st2" d="M1259.4,365c0,0-16,35-111.5-16l-3.2-12.6c0,0,89.7,40.6,114.7,12.6V365z"/>
<path class="st5" d="M721.1,984.4l99.3,20.6c0,0,44.4-9.4,42.7-44.2L774.3,946c0,0-3.3,27.5-53,34.7
	C719.1,981,719.1,984,721.1,984.4z"/>
<path class="st1" d="M1005.4,240c19,10,29.7,36.7,29.7,36.7"/>
<line class="st1" x1="1194.4" y1="479" x2="1194.4" y2="619"/>
<line class="st1" x1="1170.4" y1="466" x2="1170.4" y2="553"/>
<path class="st5" d="M790.1,780.6l398.7,31.6c4.4,0.3,6.5,5.6,3.6,8.9l-152,174.7c-1.2,1.4-3.1,2.1-5,1.8l-441.9-79.1
	c-4.8-0.9-6.1-7.1-2-9.7l186.4-124.9C781.4,781.4,785.8,780.2,790.1,780.6z"/>
<g>
	<polyline class="st11" points="825.4,830 767.4,851 841.4,860 	"/>
	<line class="st11" x1="848.4" y1="838" x2="779.4" y2="891"/>
</g>
<g>
	<polyline class="st11" points="1010.4,854 952.4,875 1026.4,884 	"/>
	<line class="st11" x1="1033.4" y1="862" x2="964.4" y2="915"/>
</g>
<path class="st11" d="M929.4,849c0,0-28-14-68,17c-24.5,19-14,28.7-2.8,33.3c9.2,3.8,19.6,4.1,29.1,0.9c8.4-2.8,19.3-8.3,30.7-19.2
	C918.4,881,943.4,864,929.4,849z"/>
<path class="st1" d="M1048.4,91c-1,0-4,7,0,14"/>
</svg>
