<?xml version="1.0" encoding="utf-8"?>
<!-- Generator: Adobe Illustrator 24.0.2, SVG Export Plug-In . SVG Version: 6.00 Build 0)  -->
<svg version="1.1" id="Layer_1" xmlns="http://www.w3.org/2000/svg" xmlns:xlink="http://www.w3.org/1999/xlink" x="0px" y="0px"
	 viewBox="0 0 1920 1080" style="enable-background:new 0 0 1920 1080;" xml:space="preserve">
<style type="text/css">
	.st0{fill:#6CACEC;}
	.st1{fill:none;stroke:#000000;stroke-width:2;stroke-linecap:round;stroke-linejoin:round;stroke-miterlimit:10;}
	.st2{opacity:0.1;}
	.st3{fill:#FFFFFF;}
	.st4{fill:#FF81C4;}
	.st5{fill:#FFFFFF;stroke:#000000;stroke-width:2;stroke-linecap:round;stroke-linejoin:round;stroke-miterlimit:10;}
	.st6{fill:#5856D6;}
	.st7{fill:#FF81C4;stroke:#000000;stroke-width:2;stroke-linecap:round;stroke-linejoin:round;stroke-miterlimit:10;}
	.st8{fill:#3880BA;}
	.st9{fill:#FFFFFF;stroke:#000000;stroke-miterlimit:10;}
	.st10{fill:none;stroke:#000000;stroke-miterlimit:10;}
	.st11{fill:none;stroke:#000000;stroke-width:8;stroke-linecap:round;stroke-linejoin:round;stroke-miterlimit:10;}
	.st12{fill:url(#SVGID_1_);stroke:#F2566A;stroke-miterlimit:10;}
	.st13{fill:url(#SVGID_2_);}
	.st14{fill:none;stroke:#F2566A;stroke-miterlimit:10;}
	.st15{fill:none;stroke:#F2566A;stroke-miterlimit:10;stroke-dasharray:10.2805,139.8143;}
	.st16{fill:url(#SVGID_4_);stroke:#F2566A;stroke-miterlimit:10;}
	.st17{fill:url(#SVGID_5_);stroke:#F2566A;stroke-miterlimit:10;}
	.st18{fill:url(#SVGID_6_);fill-opacity:0.15;stroke:#549BF4;stroke-width:2;stroke-opacity:8.222246e-02;}
	.st19{fill:url(#SVGID_8_);fill-opacity:0.15;stroke:#549BF4;stroke-width:2;stroke-opacity:8.222246e-02;}
	.st20{opacity:0.62;fill:url(#SVGID_10_);fill-opacity:0.5;}
	.st21{opacity:0.62;fill:url(#SVGID_12_);fill-opacity:0.5;}
	.st22{opacity:0.62;fill:url(#SVGID_13_);fill-opacity:0.5;}
	.st23{opacity:0.62;fill:url(#SVGID_14_);fill-opacity:0.5;}
	.st24{opacity:0.62;fill:url(#SVGID_15_);fill-opacity:0.5;}
	.st25{opacity:0.62;fill:url(#SVGID_16_);fill-opacity:0.5;}
	.st26{opacity:0.62;fill:url(#SVGID_17_);fill-opacity:0.5;}
	.st27{opacity:0.62;fill:url(#SVGID_18_);fill-opacity:0.5;}
	.st28{fill:url(#SVGID_19_);stroke:#F2566A;stroke-miterlimit:10;stroke-dasharray:203,31,0,0,0;}
	.st29{fill:none;stroke:#F2566A;stroke-miterlimit:10;stroke-dasharray:110,0,0,0,0;}
	.st30{fill:none;stroke:#CBD6E8;stroke-miterlimit:10;}
	.st31{fill:url(#SVGID_20_);}
	.st32{fill:url(#SVGID_21_);}
	.st33{fill:url(#SVGID_22_);}
	.st34{fill:url(#SVGID_23_);}
	.st35{fill:url(#SVGID_24_);}
	.st36{fill:url(#SVGID_25_);}
	.st37{fill:none;stroke:#FFFFFF;stroke-miterlimit:10;}
	.st38{fill:url(#SVGID_27_);}
	.st39{fill:none;stroke:#FFFFFF;stroke-linecap:round;stroke-miterlimit:10;}
	.st40{fill:url(#SVGID_28_);}
	.st41{fill:url(#SVGID_29_);}
	.st42{opacity:0.36;fill:url(#SVGID_30_);enable-background:new    ;}
	.st43{opacity:0.36;fill:url(#SVGID_31_);enable-background:new    ;}
	.st44{fill:url(#SVGID_32_);fill-opacity:0.15;stroke:#549BF4;stroke-width:2;stroke-opacity:8.222246e-02;}
	.st45{fill:url(#SVGID_34_);fill-opacity:0.15;stroke:#549BF4;stroke-width:2;stroke-opacity:8.222246e-02;}
	.st46{fill:url(#SVGID_35_);fill-opacity:0.15;stroke:#549BF4;stroke-width:2;stroke-opacity:8.222246e-02;}
	.st47{fill:url(#SVGID_36_);fill-opacity:0.15;stroke:#549BF4;stroke-width:2;stroke-opacity:8.222246e-02;}
	.st48{fill:url(#SVGID_37_);fill-opacity:0.5;stroke:#FFFFFF;stroke-linejoin:round;}
	.st49{fill:url(#SVGID_38_);fill-opacity:0.15;stroke:#549BF4;stroke-width:2;stroke-opacity:8.222246e-02;}
	.st50{opacity:0.54;fill:#FFFFFF;enable-background:new    ;}
	.st51{fill:#363C61;}
	.st52{fill:none;stroke:url(#SVGID_39_);stroke-width:9;stroke-miterlimit:10;}
	.st53{fill:none;stroke:url(#SVGID_40_);stroke-width:9;stroke-miterlimit:10;}
	.st54{fill:none;stroke:#FFFFFF;stroke-width:3;stroke-miterlimit:10;}
	.st55{opacity:0.62;fill:url(#SVGID_41_);fill-opacity:0.5;}
	.st56{opacity:0.62;fill:url(#SVGID_42_);fill-opacity:0.5;}
	.st57{opacity:0.62;fill:url(#SVGID_43_);fill-opacity:0.5;}
	.st58{opacity:0.6;fill:url(#SVGID_44_);fill-opacity:0.5;}
	.st59{fill:url(#SVGID_45_);fill-opacity:0.15;stroke:#549BF4;stroke-width:2;stroke-opacity:8.222246e-02;}
	.st60{fill:url(#SVGID_46_);fill-opacity:0.15;stroke:#549BF4;stroke-width:2;stroke-opacity:8.222246e-02;}
	.st61{fill:url(#SVGID_47_);fill-opacity:0.15;stroke:#549BF4;stroke-width:2;stroke-opacity:8.222246e-02;}
	.st62{fill:url(#SVGID_48_);fill-opacity:0.15;stroke:#549BF4;stroke-width:2;stroke-opacity:8.222246e-02;}
	.st63{opacity:0.62;fill:url(#SVGID_49_);fill-opacity:0.5;}
	.st64{opacity:0.62;fill:url(#SVGID_50_);fill-opacity:0.5;}
	.st65{opacity:5.000000e-02;fill:none;stroke:#FFFFFF;stroke-width:2;stroke-miterlimit:10;}
	.st66{opacity:0.15;fill:url(#SVGID_51_);fill-opacity:0.5;}
	.st67{opacity:0.5;}
	.st68{fill:none;stroke:#FFFFFF;stroke-width:2;stroke-dasharray:11.8503,11.8503;}
	.st69{fill:url(#SVGID_52_);fill-opacity:0.5;stroke:#FFFFFF;stroke-linejoin:round;}
	.st70{fill:url(#SVGID_53_);fill-opacity:0.15;stroke:#549BF4;stroke-width:2;stroke-opacity:8.222246e-02;}
	.st71{fill:#CAD6E8;}
	.st72{fill:url(#SVGID_54_);}
	.st73{fill:url(#SVGID_55_);}
	.st74{opacity:0.89;fill:#F2566A;enable-background:new    ;}
	.st75{fill:#EBF1FC;}
	.st76{fill:#CEDEF2;}
	.st77{fill:url(#SVGID_56_);}
	.st78{fill:url(#SVGID-2_1_);}
	.st79{fill:url(#SVGID-3_1_);}
	.st80{fill:url(#SVGID_57_);}
	.st81{clip-path:url(#SVGID_58_);}
	.st82{fill:url(#SVGID_59_);}
	.st83{fill:#CBD6E8;}
	.st84{stroke:#000000;stroke-miterlimit:10;}
	.st85{fill:url(#SVGID_60_);}
	.st86{fill:url(#SVGID-4_1_);}
	.st87{fill:url(#SVGID_61_);}
	.st88{opacity:0.36;fill:url(#SVGID_62_);enable-background:new    ;}
	.st89{opacity:0.4;fill:#3574EC;enable-background:new    ;}
	.st90{fill:url(#SVGID-5_1_);}
	.st91{fill:url(#SVGID-6_1_);}
	.st92{fill:url(#SVGID_63_);}
	.st93{clip-path:url(#SVGID_64_);}
	.st94{fill:url(#SVGID_65_);}
	.st95{fill:url(#SVGID-7_1_);}
	.st96{opacity:0.4;fill:#FFFFFF;enable-background:new    ;}
	.st97{opacity:0.9;fill:#FFFFFF;enable-background:new    ;}
	.st98{opacity:0.9;}
	.st99{fill:url(#SVGID_66_);}
	.st100{opacity:0.36;fill:url(#SVGID_67_);enable-background:new    ;}
	.st101{fill:url(#SVGID_68_);}
	.st102{fill:url(#SVGID_69_);}
	.st103{fill:url(#SVGID_70_);fill-opacity:0.3;}
	.st104{opacity:8.000000e-02;fill:#549BF4;enable-background:new    ;}
	.st105{fill:url(#SVGID_71_);fill-opacity:0.15;}
	.st106{opacity:0.8;}
	.st107{fill:#9090D0;}
	.st108{fill:none;stroke:#000000;stroke-width:3;stroke-linecap:round;stroke-linejoin:round;stroke-miterlimit:10;}
	.st109{fill:#CFCED4;}
	.st110{fill:#FEAD91;}
	.st111{fill:#FFFFFF;stroke:#000000;stroke-width:3;stroke-linecap:round;stroke-linejoin:round;stroke-miterlimit:10;}
	.st112{fill:#FEAD91;stroke:#000000;stroke-width:3;stroke-miterlimit:10;}
	.st113{fill:#FFE2AA;}
	.st114{fill:#FFE2AA;stroke:#000000;stroke-width:3;stroke-linecap:round;stroke-linejoin:round;stroke-miterlimit:10;}
	.st115{fill:none;stroke:#000000;stroke-width:4;stroke-linecap:round;stroke-linejoin:round;stroke-miterlimit:10;}
	.st116{fill:#FFFFFF;stroke:#000000;stroke-width:5;stroke-linecap:round;stroke-linejoin:round;stroke-miterlimit:10;}
	.st117{fill:none;stroke:#000000;stroke-width:3;stroke-miterlimit:10;}
	.st118{fill:#FFFFFF;stroke:#000000;stroke-width:2;stroke-miterlimit:10;}
	.st119{fill:#FFC9E6;}
	.st120{fill:#FCA1BB;}
	.st121{fill:#151614;}
	.st122{fill:#FFFFFF;stroke:#1B0042;stroke-width:2;stroke-linecap:round;stroke-linejoin:round;stroke-miterlimit:10;}
	.st123{fill:none;stroke:#1B0042;stroke-width:2;stroke-linecap:round;stroke-linejoin:round;stroke-miterlimit:10;}
	.st124{fill:#1B0042;}
	
		.st125{opacity:0.15;clip-path:url(#XMLID_13_);fill:none;stroke:#FFFFFF;stroke-width:2;stroke-linecap:round;stroke-linejoin:round;stroke-miterlimit:10;}
	.st126{fill:none;stroke:#000000;stroke-linecap:round;stroke-linejoin:round;stroke-miterlimit:10;}
	.st127{fill:none;stroke:#FFFFFF;stroke-linecap:round;stroke-linejoin:round;stroke-miterlimit:10;}
	
		.st128{opacity:0.15;clip-path:url(#XMLID_15_);fill:none;stroke:#FFFFFF;stroke-width:2;stroke-linecap:round;stroke-linejoin:round;stroke-miterlimit:10;}
	
		.st129{opacity:0.15;clip-path:url(#XMLID_16_);fill:none;stroke:#FFFFFF;stroke-width:2;stroke-linecap:round;stroke-linejoin:round;stroke-miterlimit:10;}
	.st130{fill:none;stroke:#FFFFFF;stroke-width:2;stroke-linecap:round;stroke-linejoin:round;stroke-miterlimit:10;}
	
		.st131{opacity:0.15;clip-path:url(#XMLID_17_);fill:none;stroke:#FFFFFF;stroke-width:2;stroke-linecap:round;stroke-linejoin:round;stroke-miterlimit:10;}
	.st132{opacity:0.15;clip-path:url(#XMLID_18_);fill:none;stroke:#FFFFFF;stroke-width:2;stroke-miterlimit:10;}
	
		.st133{opacity:0.15;clip-path:url(#XMLID_19_);fill:none;stroke:#FFFFFF;stroke-width:2;stroke-linecap:round;stroke-linejoin:round;stroke-miterlimit:10;}
	.st134{fill:#FFFFFF;stroke:#2C234A;stroke-width:2;stroke-linecap:round;stroke-linejoin:round;stroke-miterlimit:10;}
	.st135{fill:#8AAFF6;}
	.st136{fill:none;stroke:#2C234A;stroke-width:2;stroke-linecap:round;stroke-linejoin:round;stroke-miterlimit:10;}
	.st137{opacity:0.2;}
	.st138{fill:#2C234A;}
	.st139{fill:none;stroke:#4417D7;stroke-width:2;stroke-linecap:round;stroke-linejoin:round;stroke-miterlimit:10;}
	.st140{fill:none;stroke:#EFCC4A;stroke-width:2;stroke-linecap:round;stroke-linejoin:round;stroke-miterlimit:10;}
	.st141{fill:#E3DFFF;}
	.st142{fill:none;stroke:#9D8AF6;stroke-width:2;stroke-linecap:round;stroke-linejoin:round;stroke-miterlimit:10;}
	.st143{clip-path:url(#SVGID_72_);}
	.st144{fill:none;stroke:#E3DFFF;stroke-width:4;stroke-linecap:round;stroke-linejoin:round;stroke-miterlimit:10;}
	.st145{fill:none;stroke:#D6D4D4;stroke-width:10;stroke-linecap:round;stroke-linejoin:round;stroke-miterlimit:10;}
	.st146{fill:none;stroke:#FF4B42;stroke-width:10;stroke-linecap:round;stroke-linejoin:round;stroke-miterlimit:10;}
	.st147{fill:#D7B9D8;}
	.st148{fill:#D6D4D4;}
	.st149{fill:#FFB69D;}
	.st150{fill:#D6D4D4;stroke:#FFFFFF;stroke-width:2;stroke-miterlimit:10;}
	.st151{clip-path:url(#XMLID_20_);}
	.st152{clip-path:url(#XMLID_21_);}
	.st153{fill:none;stroke:#FFFFFF;stroke-width:5;stroke-linecap:round;stroke-linejoin:round;stroke-miterlimit:10;}
	.st154{fill:#FF4B42;}
	.st155{clip-path:url(#XMLID_24_);}
	.st156{clip-path:url(#SVGID_74_);}
	.st157{clip-path:url(#XMLID_25_);}
	.st158{fill:#FEC0D9;}
	
		.st159{fill:none;stroke:#D6D4D4;stroke-width:3;stroke-linecap:round;stroke-linejoin:round;stroke-miterlimit:10;stroke-dasharray:20,20;}
	.st160{fill:#6BA5BD;}
	.st161{clip-path:url(#XMLID_28_);}
	.st162{clip-path:url(#SVGID_76_);}
	.st163{clip-path:url(#XMLID_29_);}
	.st164{clip-path:url(#XMLID_33_);}
	.st165{fill:none;stroke:#FFFFFF;stroke-width:4;stroke-linecap:round;stroke-linejoin:round;stroke-miterlimit:10;}
	.st166{fill:none;stroke:#FFFF00;stroke-width:2;stroke-linecap:round;stroke-linejoin:round;stroke-miterlimit:10;}
	.st167{fill:#FEC0D9;stroke:#000000;stroke-width:3;stroke-linecap:round;stroke-linejoin:round;stroke-miterlimit:10;}
	.st168{fill:#FFCDB2;stroke:#000000;stroke-width:2;stroke-linecap:round;stroke-linejoin:round;stroke-miterlimit:10;}
	.st169{stroke:#FFFFFF;stroke-width:2;stroke-miterlimit:10;}
	.st170{fill:#996533;stroke:#000000;stroke-width:2;stroke-linecap:round;stroke-linejoin:round;stroke-miterlimit:10;}
	.st171{stroke:#000000;stroke-width:2;stroke-linecap:round;stroke-linejoin:round;stroke-miterlimit:10;}
	.st172{fill:#996533;stroke:#000000;stroke-width:2;stroke-miterlimit:10;}
	.st173{fill:#FF6600;stroke:#000000;stroke-width:2;stroke-linecap:round;stroke-linejoin:round;stroke-miterlimit:10;}
	.st174{fill:#FFCDB2;}
	.st175{fill:none;stroke:#000000;stroke-width:2;stroke-miterlimit:10;}
	.st176{fill:none;stroke:#000000;stroke-width:5;stroke-linecap:round;stroke-linejoin:round;stroke-miterlimit:10;}
	.st177{fill:#9B4CB5;stroke:#000000;stroke-width:2;stroke-linecap:round;stroke-linejoin:round;stroke-miterlimit:10;}
	.st178{fill:#C8C8FF;stroke:#000000;stroke-width:2;stroke-linecap:round;stroke-linejoin:round;stroke-miterlimit:10;}
	.st179{fill:#DDDCDD;}
	.st180{fill:#FA6058;stroke:#000000;stroke-width:2;stroke-miterlimit:10;}
	.st181{fill:#FBBC2D;stroke:#000000;stroke-width:2;stroke-miterlimit:10;}
	.st182{fill:#30CA41;stroke:#000000;stroke-width:2;stroke-miterlimit:10;}
	.st183{stroke:#FFFFFF;stroke-width:2;stroke-linecap:round;stroke-linejoin:round;stroke-miterlimit:10;}
	.st184{fill:none;stroke:#C8C8FF;stroke-width:5;stroke-linecap:round;stroke-linejoin:round;stroke-miterlimit:10;}
	.st185{stroke:#000000;stroke-width:2;stroke-miterlimit:10;}
	.st186{fill:#FF2D55;}
	.st187{fill:#D4D7FF;}
	.st188{fill:#FFCBC2;}
	.st189{clip-path:url(#SVGID_77_);}
	.st190{fill:#352F84;}
	.st191{clip-path:url(#SVGID_78_);}
	.st192{clip-path:url(#SVGID_79_);}
	.st193{clip-path:url(#XMLID_37_);}
	.st194{opacity:0.4;clip-path:url(#XMLID_41_);}
	.st195{clip-path:url(#XMLID_44_);}
	.st196{fill:#FF3167;}
	.st197{fill:#91A3B4;}
	.st198{fill:#E05555;}
	.st199{fill:none;stroke:#EFA9A9;stroke-width:2;stroke-miterlimit:10;}
	.st200{clip-path:url(#XMLID_46_);}
	.st201{fill:#F2F2F2;}
	.st202{fill:#6F8393;}
	.st203{fill:#333333;}
	.st204{fill:#B5C7C3;}
	.st205{clip-path:url(#XMLID_47_);}
	.st206{clip-path:url(#SVGID_81_);}
	.st207{clip-path:url(#XMLID_50_);}
	.st208{fill:#5595E0;}
	.st209{fill:#FCFCFC;}
	.st210{fill:none;stroke:#CACBDB;stroke-width:10;stroke-linecap:round;stroke-linejoin:round;stroke-miterlimit:10;}
	
		.st211{fill:none;stroke:#CACBDB;stroke-width:10;stroke-linecap:round;stroke-linejoin:round;stroke-miterlimit:10;stroke-dasharray:30,30;}
	.st212{fill:none;stroke:#CACBDB;stroke-width:21;stroke-linecap:round;stroke-linejoin:round;stroke-miterlimit:10;}
	.st213{fill:#E45858;}
	.st214{fill:#CFD4FF;}
	.st215{fill:#2A2C67;}
	.st216{clip-path:url(#XMLID_51_);}
	.st217{fill:#585DE4;}
	.st218{fill:none;stroke:#324A81;stroke-width:5;stroke-linecap:round;stroke-linejoin:round;stroke-miterlimit:10;}
	.st219{fill:#CFD4FF;stroke:#2A2C67;stroke-width:5;stroke-linecap:round;stroke-linejoin:round;stroke-miterlimit:10;}
	.st220{clip-path:url(#XMLID_52_);}
	.st221{clip-path:url(#XMLID_53_);}
	.st222{fill:none;stroke:#FEFEFF;stroke-width:5;stroke-linecap:round;stroke-linejoin:round;stroke-miterlimit:10;}
	.st223{fill:#CFD4FF;stroke:#2A2C67;stroke-width:5;stroke-miterlimit:10;}
	.st224{fill:none;stroke:#2A2C67;stroke-width:5;stroke-linecap:round;stroke-linejoin:round;stroke-miterlimit:10;}
	.st225{fill:none;stroke:#585DE4;stroke-width:5;stroke-miterlimit:10;}
	.st226{fill:none;stroke:#585DE4;stroke-width:5;stroke-linecap:round;stroke-linejoin:round;stroke-miterlimit:10;}
	.st227{fill:#E8E8F7;}
	
		.st228{opacity:0.4;fill:none;stroke:#303044;stroke-width:2.5095;stroke-linecap:round;stroke-linejoin:round;stroke-miterlimit:10;}
	.st229{fill:#FEC5C4;}
	.st230{fill:#EF8D8B;}
	.st231{fill:#FEC5C4;stroke:#EF8D8B;stroke-width:2.5095;stroke-linecap:round;stroke-linejoin:round;stroke-miterlimit:10;}
	.st232{fill:#F048BA;}
	.st233{fill:#FFFFFF;stroke:#E8E8F7;stroke-width:2;stroke-linecap:round;stroke-linejoin:round;stroke-miterlimit:10;}
	.st234{fill:none;stroke:#E8E8F7;stroke-width:2;stroke-linecap:round;stroke-linejoin:round;stroke-miterlimit:10;}
	.st235{fill:#303044;}
	.st236{fill:none;}
	.st237{fill:none;stroke:#EF8D8B;stroke-width:2.5095;stroke-linecap:round;stroke-linejoin:round;stroke-miterlimit:10;}
	.st238{fill:none;stroke:#E8E8F7;stroke-width:7;stroke-linecap:round;stroke-linejoin:round;stroke-miterlimit:10;}
	.st239{fill:#FFFFFF;stroke:#E8E8F7;stroke-width:7;stroke-linecap:round;stroke-linejoin:round;stroke-miterlimit:10;}
	.st240{fill:#FFFFFF;stroke:#E8E8F7;stroke-width:5.62;stroke-miterlimit:10;}
	.st241{fill:#E8E8F7;stroke:#E8E8F7;stroke-width:5.62;stroke-miterlimit:10;}
	.st242{fill:#FEC5C4;stroke:#EF8D8B;stroke-width:2;stroke-linecap:round;stroke-linejoin:round;stroke-miterlimit:10;}
	.st243{fill:none;stroke:#EF8D8B;stroke-width:2;stroke-linecap:round;stroke-linejoin:round;stroke-miterlimit:10;}
	.st244{fill:#E8E8F7;stroke:#FFFFFF;stroke-width:5.62;stroke-miterlimit:10;}
	.st245{opacity:0.4;fill:none;stroke:#000000;stroke-width:2;stroke-linecap:round;stroke-linejoin:round;stroke-miterlimit:10;}
	.st246{fill:none;stroke:#E8E8F7;stroke-width:5.1321;stroke-miterlimit:10;}
	.st247{fill:none;stroke:#EF8D8B;stroke-width:2;stroke-linecap:round;stroke-miterlimit:10;}
	.st248{fill:#FFFFFF;stroke:#E8E8F7;stroke-width:5;stroke-miterlimit:10;}
	.st249{fill:#E8E8F7;stroke:#E8E8F7;stroke-width:5;stroke-miterlimit:10;}
	.st250{fill:#FFFFFF;stroke:#E8E8F7;stroke-width:5;stroke-miterlimit:10;stroke-dasharray:20,20;}
	.st251{fill:#F2F2F6;}
	.st252{opacity:0.4;fill:#FFFFFF;stroke:#000000;stroke-width:2.1161;stroke-linecap:round;stroke-miterlimit:10;}
	
		.st253{opacity:0.4;fill:none;stroke:#000000;stroke-width:2.1161;stroke-linecap:round;stroke-linejoin:round;stroke-miterlimit:10;stroke-dasharray:140.7185,204.2005;}
	.st254{opacity:0.4;fill:none;stroke:#000000;stroke-width:2.1161;stroke-linecap:round;stroke-miterlimit:10;}
	.st255{fill:#282828;}
	.st256{fill:#FEC5C4;stroke:#EF8D8B;stroke-width:1.058;stroke-linecap:round;stroke-miterlimit:10;}
	.st257{fill:none;stroke:#FFFFFF;stroke-width:8;stroke-linecap:round;stroke-linejoin:round;stroke-miterlimit:10;}
	
		.st258{fill:none;stroke:#E8E8F7;stroke-width:5;stroke-linecap:round;stroke-linejoin:round;stroke-miterlimit:10;stroke-dasharray:20,20;}
	.st259{fill:none;stroke:#E8E8F7;stroke-width:4.7431;stroke-linecap:round;stroke-linejoin:round;stroke-miterlimit:10;}
	
		.st260{opacity:0.4;fill:none;stroke:#000000;stroke-width:1.7088;stroke-linecap:round;stroke-linejoin:round;stroke-miterlimit:10;}
	.st261{fill-rule:evenodd;clip-rule:evenodd;fill:#F7931A;}
	.st262{fill:none;stroke:#EF8D8B;stroke-width:1.9557;stroke-linecap:round;stroke-linejoin:round;stroke-miterlimit:10;}
</style>
<line class="st145" x1="1219" y1="743.2" x2="1345.7" y2="783.1"/>
<line class="st145" x1="1256.2" y1="882.6" x2="1345.7" y2="783.1"/>
<line class="st145" x1="1427.2" y1="889.1" x2="1345.7" y2="783.1"/>
<line class="st145" x1="1481.2" y1="731.4" x2="1345.7" y2="783.1"/>
<line class="st145" x1="1349.4" y1="655.2" x2="1345.7" y2="783.1"/>
<path class="st146" d="M1345.8,779.8c-17.4-13.9-193.5-221.3-193.5-221.3"/>
<circle class="st145" cx="1347.6" cy="781.5" r="185.9"/>
<line class="st145" x1="493.9" y1="769.2" x2="622" y2="781.7"/>
<line class="st145" x1="568.9" y1="904.5" x2="622" y2="781.7"/>
<line class="st145" x1="733.1" y1="856.2" x2="622" y2="781.7"/>
<line class="st145" x1="733.9" y1="689.5" x2="622" y2="781.7"/>
<line class="st145" x1="584.7" y1="659.3" x2="622" y2="781.7"/>
<g>
	<g>
		<path class="st147" d="M944.2,760.1l-87.4,24.3c0,0-60.7-18.1-74.2-2.7s-24.7,31.9-10.2,52.4c14.4,20.5,267.8,2.4,267.8,2.4
			l-2-76.4L944.2,760.1z"/>
	</g>
	<g>
		<path class="st148" d="M772.3,834.1c0,0-10.1,14.2,12.3,27.5c17.2,10.2,161.2,9,227.1,7.9c17.4-0.3,30.7-15.7,28.4-33v0
			L772.3,834.1z"/>
	</g>
	<polygon class="st149" points="972.8,489 944.2,760.1 1038.1,760 1104.9,494.8 	"/>
	<path class="st150" d="M798.1,863.9c-0.4-8.4,0.9-16.9,3.8-24.9"/>
	<path class="st150" d="M821.7,867.2c2-9.8,4.1-19.6,6.1-29.4"/>
	<path class="st150" d="M853.7,867.3c-0.8-9.9,0-19.9,2.6-29.6"/>
	<path class="st150" d="M885.1,868.8c-1-10.4-0.7-20.9,1.1-31.2"/>
	<path class="st150" d="M918.9,868.8c1-10.1,2.1-20.3,3.1-30.4"/>
	<path class="st150" d="M953.7,868.8c-0.3-10.4-0.6-20.8-1-31.1"/>
	<path class="st150" d="M985.5,868.1c1.9-9.5,2.4-19.2,1.6-28.8"/>
	<path class="st150" d="M1014.2,868.8c2.5-9.2,4.1-18.6,4.7-28"/>
</g>
<g>
	<path class="st148" d="M984.3,912.3h-87.5c-6.5,0-11.8-5.3-11.8-11.8v-3.7c0-6.5,5.3-11.8,11.8-11.8h87.5c6.5,0,11.8,5.3,11.8,11.8
		v3.7C996,907,990.8,912.3,984.3,912.3z"/>
</g>
<g>
	<path class="st148" d="M1130.2,818.5h-87.5c-6.5,0-11.8-5.3-11.8-11.8V803c0-6.5,5.3-11.8,11.8-11.8h87.5c6.5,0,11.8,5.3,11.8,11.8
		v3.7C1142,813.2,1136.7,818.5,1130.2,818.5z"/>
</g>
<g>
	<g>
		<path class="st3" d="M886.9,775.9c0.7,1.2,1.4,2.3,2.2,3.4c0.3,0.4,0.7,0.9,1,1.3c0.1,0.1,0.2,0.3,0.4,0.4c0.2,0.3-0.5-0.7,0,0
			c0.2,0.4,0.5,0.7,0.7,1.1c0.1,0.2,0.2,0.5,0.4,0.7c0.1,0.1,0.1,0.2,0.2,0.3c0.3,0.6-0.2-0.5,0-0.1c0.6,1.7,1.2,3.4,1.6,5.1
			c1,3.7,1.8,7.4,2.5,11.1c0.3,1.6,2.2,2.5,3.7,2.1c1.6-0.5,2.4-2.1,2.1-3.7c-1.1-5.3-2-10.7-4-15.8c-0.9-2.3-2.1-4.1-3.6-6
			c-0.1-0.1-0.2-0.2-0.2-0.3c-0.3-0.3,0.5,0.7,0.2,0.2c-0.2-0.3-0.4-0.5-0.5-0.8c-0.5-0.7-0.9-1.3-1.3-2
			C890.2,769.5,885,772.5,886.9,775.9L886.9,775.9z"/>
	</g>
</g>
<g>
	<g>
		<path class="st3" d="M906.6,771c1.1,1.8,2.2,3.6,3.3,5.4c0.4,0.7,0.7,1.3,1,2c0.1,0.3,0.5,1.2,0.2,0.4c0.1,0.4,0.3,0.7,0.4,1.1
			c1.6,4.3,2.7,8.9,3.9,13.3c1.1,3.7,6.8,2.1,5.8-1.6c-1.3-4.5-2.3-9.1-4-13.5c-1.4-3.6-3.4-6.9-5.5-10.2
			C909.8,764.7,904.6,767.7,906.6,771L906.6,771z"/>
	</g>
</g>
<g>
	<g>
		<path class="st3" d="M855.2,784.8c8.7,12.5,14.3,26.8,17.1,41.8c0.3,1.6,2.2,2.5,3.7,2.1c1.7-0.5,2.4-2.1,2.1-3.7
			c-2.9-15.4-8.8-30.4-17.8-43.2c-0.9-1.3-2.6-1.9-4.1-1.1C855,781.5,854.3,783.5,855.2,784.8L855.2,784.8z"/>
	</g>
</g>
<line class="st145" x1="941.5" y1="891" x2="1040.3" y2="751.1"/>
<circle class="st145" cx="625.8" cy="781.5" r="185.9"/>
<path class="st146" d="M1169.3,516.5c-1.8,0.5-16.4,42.5-16.4,42.5h-370l262.9,204.5l102.3-194.1"/>
<g>
	<path class="st148" d="M1095.7,265.7l192.5-10.4c7.7-0.4,14.2,5.3,14.9,13l13.8,168.4c0.6,7.9-5.3,14.8-13.2,15.3l-131.6,6.5
		L1095.7,265.7z"/>
</g>
<g>
	<defs>
		<path id="XMLID_1_" d="M985.9,397.6l-96,32.7L996,505.6c0,0,279.5,32.7,191.3-136.8c0,0-62.4-24.8-63.4-24.8S993,382.7,993,382.7
			L985.9,397.6z"/>
	</defs>
	<use xlink:href="#XMLID_1_"  style="overflow:visible;fill:#28318C;"/>
	<clipPath id="XMLID_13_">
		<use xlink:href="#XMLID_1_"  style="overflow:visible;"/>
	</clipPath>
	<g style="clip-path:url(#XMLID_13_);">
		<g>
			<path class="st3" d="M961.3,461.2c12.4-8.6,26.1-15.4,40.5-19.9c14.5-4.6,29.7-6.9,44.9-6.9c16,0,32.6,1.9,48-3.8
				c11.8-4.4,23.1-13.4,25.2-26.5c1.7-10.7-1.1-23.8-10.5-30.3c-1.1-0.8-2.3-1.3-3.6-1.8c-1.5-0.6-3.3,0.7-3.7,2.1
				c-0.5,1.7,0.6,3.1,2.1,3.7c-0.5-0.2,0.1,0.1,0.3,0.1c0.2,0.1,0.5,0.2,0.7,0.4c0.6,0.3,1.1,0.7,1.6,1c-0.4-0.3,0.1,0.1,0.2,0.2
				c0.2,0.2,0.4,0.4,0.6,0.5c0.4,0.4,0.9,0.8,1.2,1.3c0.2,0.2,0.4,0.4,0.5,0.6c0.2,0.3,0,0,0-0.1c0.1,0.1,0.2,0.2,0.3,0.3
				c0.4,0.5,0.8,1.1,1.1,1.7c0.3,0.5,0.6,1,0.8,1.5c0.1,0.3,0.3,0.5,0.4,0.8c0.1,0.1,0.1,0.3,0.2,0.4c-0.1-0.3,0,0,0,0.1
				c0.5,1.2,0.9,2.5,1.2,3.7c0.2,0.6,0.3,1.2,0.4,1.8c0.1,0.5,0.3,1.5,0.3,1.7c0.1,0.9,0.2,2.6,0.3,3.8c0,1.3,0,2.6-0.2,3.8
				c0,0.1-0.1,0.9,0,0.4c0,0.3-0.1,0.6-0.1,0.9c-0.1,0.7-0.3,1.4-0.4,2c-0.1,0.6-0.3,1.1-0.5,1.7c-0.1,0.3-0.2,0.5-0.3,0.8
				c-0.1,0.2-0.3,0.9-0.3,0.7c0.1-0.2-0.2,0.4-0.2,0.5c-0.1,0.2-0.2,0.5-0.4,0.7c-0.4,0.7-0.8,1.4-1.2,2.1c-0.8,1.2-1.6,2.2-2.5,3.3
				c-4,4.5-9.3,7.8-15,9.9c-14.6,5.5-30.4,3.7-45.6,3.7c-15-0.1-30,2-44.4,6.2c-14.2,4.2-27.9,10.3-40.4,18.3
				c-1.6,1-3.1,2.1-4.7,3.1c-1.3,0.9-1.9,2.6-1.1,4.1C958,461.4,960,462.1,961.3,461.2L961.3,461.2z"/>
		</g>
	</g>
	<g style="clip-path:url(#XMLID_13_);">
		<g>
			<path class="st3" d="M986.5,477.4c10.7-10.7,25.2-15.6,39.8-18c15.1-2.5,30.6-2.3,45.9-3.6c15.2-1.3,30.9-4,44.3-11.6
				c6.6-3.7,12.5-8.7,17.2-14.7c4.4-5.7,7.4-12.5,9-19.5c3.2-14.2,1-30-7.2-42.2c-1.1-1.6-2.2-3.1-3.4-4.5c-1-1.2-3.2-1.1-4.2,0
				c-1.2,1.2-1,3,0,4.2c8.6,10.2,11.9,24.8,9.7,37.8c-1.1,6.8-3.4,13.1-7.3,18.8c-3.8,5.7-9.2,10.4-15,14
				c-12.4,7.5-27.3,10.3-41.5,11.7c-15.2,1.5-30.6,1.3-45.7,3.5c-14.9,2.1-29.8,6.6-41.6,16.3c-1.5,1.2-2.8,2.5-4.2,3.8
				C979.5,475.9,983.7,480.2,986.5,477.4L986.5,477.4z"/>
		</g>
	</g>
	<use xlink:href="#XMLID_1_"  style="overflow:visible;fill:none;stroke:#28318C;stroke-width:1.5;stroke-miterlimit:10;"/>
</g>
<path class="st149" d="M960.5,262.8l-21.2-29.1c0,0-26.7,2.8-24.8-37.7l-5.7-4.4c-1.5-1.1-1.8-3.2-0.8-4.7l16.6-24.9
	c0,0,11-15.6,35.9-9.2c24.8,6.4,27.6,24.8,25.8,34c-0.7,3.4-1.6,7.5-2.5,11.4c-1.7,7.5,1.5,15.3,8.1,19.2l28.4,17.2L960.5,262.8z"/>
<g>
	<defs>
		<path id="XMLID_23_" d="M953.5,191.8l-2.4-12.5c-1.2-6.1-6.3-10.5-12.5-11c-7.9-0.5-18.4-3.3-23.7-13.3
			c-9.2-17.5,8.3-27.6,15.6-25.8c7.4,1.8,15.6,12.9,11,18.4c0,0,37.7,0,43.2,8.3s16.1,38.2,1.1,53.8l-16.8-16.1
			c0,0,10.1-16.6,0-17.5s-11,14.7-11,14.7L953.5,191.8z"/>
	</defs>
	<use xlink:href="#XMLID_23_"  style="overflow:visible;"/>
	<clipPath id="XMLID_15_">
		<use xlink:href="#XMLID_23_"  style="overflow:visible;"/>
	</clipPath>
	<g style="clip-path:url(#XMLID_15_);">
		<g>
			<path class="st3" d="M925.6,130.5c0.5,5.7,7.1,9.4,12.2,6.9c0.7-0.4,0.9-1.4,0.5-2.1c-0.4-0.7-1.3-0.9-2.1-0.5
				c-0.1,0-0.1,0.1-0.2,0.1c0.2-0.1,0.2-0.1,0.1,0c-0.1,0-0.2,0.1-0.3,0.1c-0.3,0.1-0.5,0.1-0.8,0.2c-0.3,0.1,0.3,0-0.1,0
				c-0.1,0-0.2,0-0.4,0c-0.2,0-0.5,0-0.7,0c0,0-0.5-0.1-0.3,0c0.2,0-0.2,0-0.2,0c-0.3-0.1-0.5-0.1-0.8-0.2c-0.1,0-0.2-0.1-0.3-0.1
				c0,0-0.4-0.2-0.1,0c-0.2-0.1-0.5-0.2-0.7-0.4c-0.2-0.1-0.5-0.3-0.7-0.4c-0.1,0-0.4-0.3-0.1-0.1c-0.1-0.1-0.2-0.2-0.3-0.2
				c-0.2-0.2-0.4-0.3-0.5-0.5c-0.1-0.1-0.2-0.2-0.2-0.3c-0.1-0.1-0.1-0.1-0.2-0.2c0.1,0.1,0.1,0.1,0.1,0.1c-0.1-0.2-0.3-0.4-0.4-0.7
				c-0.1-0.1-0.1-0.2-0.2-0.3c0-0.1-0.1-0.4,0-0.1c-0.1-0.2-0.2-0.5-0.2-0.7c0-0.1,0-0.2-0.1-0.4c0-0.2,0-0.2,0,0c0-0.1,0-0.2,0-0.2
				c-0.1-0.8-0.6-1.5-1.5-1.5C926.3,129,925.5,129.7,925.6,130.5L925.6,130.5z"/>
		</g>
	</g>
	<g style="clip-path:url(#XMLID_15_);">
		<g>
			<path class="st3" d="M915,136.3c-0.2,3.1,1.6,5.8,4.1,7.5c2.5,1.7,5.7,2.1,8.5,0.8c0.7-0.3,0.9-1.4,0.5-2.1
				c-0.4-0.8-1.3-0.9-2.1-0.5c-0.2,0.1-0.2,0.1,0,0c-0.1,0-0.2,0.1-0.2,0.1c-0.1,0-0.2,0.1-0.4,0.1c-0.1,0-0.2,0.1-0.4,0.1
				c-0.1,0-0.6,0.1-0.2,0c-0.3,0-0.5,0-0.8,0c-0.1,0-0.3,0-0.4,0c-0.1,0-0.5-0.1-0.1,0c-0.6-0.1-1.1-0.2-1.7-0.4c-0.1,0-0.1,0,0.1,0
				c-0.1,0-0.2-0.1-0.2-0.1c-0.1-0.1-0.2-0.1-0.3-0.2c-0.3-0.1-0.5-0.3-0.8-0.5c-0.1-0.1-0.2-0.1-0.3-0.2c0.3,0.2-0.2-0.1-0.2-0.2
				c-0.2-0.2-0.4-0.3-0.6-0.5c-0.1-0.1-0.2-0.3-0.3-0.4c0-0.1-0.3-0.4-0.1-0.1c-0.2-0.2-0.3-0.5-0.5-0.7c-0.1-0.1-0.1-0.2-0.2-0.3
				c-0.1-0.1-0.2-0.3-0.1-0.1c-0.1-0.3-0.2-0.6-0.3-0.8c0-0.1-0.1-0.3-0.1-0.4c-0.1-0.4,0,0.1,0-0.2c0-0.3,0-0.6,0-0.9
				c0-0.8-0.7-1.5-1.5-1.5C915.6,134.8,915,135.5,915,136.3L915,136.3z"/>
		</g>
	</g>
	<g style="clip-path:url(#XMLID_15_);">
		<g>
			<path class="st3" d="M917.3,153.3c5.6,3.1,13.2,1,16.4-4.5c1-1.7-1.6-3.2-2.6-1.5c-2.4,4.1-8.2,5.7-12.3,3.4
				C917.1,149.8,915.6,152.4,917.3,153.3L917.3,153.3z"/>
		</g>
	</g>
	<g style="clip-path:url(#XMLID_15_);">
		<g>
			<path class="st3" d="M928.2,163c5,2.1,11.2,0.7,14.8-3.3c1.3-1.4-0.8-3.5-2.1-2.1c-3,3.3-7.9,4.2-11.9,2.5
				c-0.7-0.3-1.7,0.3-1.8,1C926.9,162,927.4,162.7,928.2,163L928.2,163z"/>
		</g>
	</g>
</g>
<line class="st153" x1="1294.9" y1="270.6" x2="1194.5" y2="362.1"/>
<line class="st153" x1="1230.9" y1="378.6" x2="1291.4" y2="424.3"/>
<path class="st149" d="M812.3,376.2c0,0-39.6,4.6-69,5.5c-29.4,0.9-28.5,8.3-49.7,31.3c0,0,1.8,28.5,30.4,24.8l22.1-14.7
	c0,0,19.3,18.4,38.6,5.5c19.3-12.9,52.4,3.7,117.8-27.6L812.3,376.2z"/>
<path class="st154" d="M1033.1,226.3c-1.8,0-53.4,7.4-112.2,74.5c-44.8,51.1-85.9,63.9-103,67c-4.6,0.8-7.2,5.7-5.4,10
	c5.3,12.6,19.2,34.4,52.2,38.9c46.9,6.4,134.3-81,134.3-81s8.3,23-3.7,35.9c-12,12.9,1.8,23,1.8,23s47.8,22.1,98.4-13.8
	c50.6-35.9,95.5-9.2,95.5-9.2s30.5-18.4-13.6-49.7s-59.9-57.7-59.9-57.7l67.2-4.4c0,0-4-19.7-38.6-33.6
	C1114.1,213.4,1033.1,226.3,1033.1,226.3z"/>
<path class="st1" d="M999,337.6c0,0,17.5-22.1,35-23.9"/>
<path class="st1" d="M700.4,430.1c0,0-14.1-16.1,4.3-28.1l18.4-12c0,0,10.1-7.4,13.3-7.9s19.8,0.5,24.4-0.4"/>
<path class="st1" d="M719.4,420.4c0,0,19.6-13.7,29.6,5.1"/>
<g>
	<defs>
		<path id="XMLID_11_" d="M941.1,148.8c0,0,13.6,48,51.2,71c0,0,44.9-32.4,20.9-65.8C1000.1,135.9,979.7,123.8,941.1,148.8z"/>
	</defs>
	<use xlink:href="#XMLID_11_"  style="overflow:visible;fill:#FF4B42;"/>
	<clipPath id="XMLID_16_">
		<use xlink:href="#XMLID_11_"  style="overflow:visible;"/>
	</clipPath>
	<g style="clip-path:url(#XMLID_16_);">
		<g>
			<path class="st3" d="M949.7,145.7c11.5,17.9,23.4,35.6,36.9,52c4,4.8,8.1,9.5,12.3,14.1c1.3,1.4,3.4-0.7,2.1-2.1
				c-14.3-15.5-27-32.4-38.7-49.9c-3.4-5.1-6.8-10.3-10.1-15.5C951.2,142.6,948.6,144.1,949.7,145.7L949.7,145.7z"/>
		</g>
	</g>
	<g style="clip-path:url(#XMLID_16_);">
		<g>
			<path class="st3" d="M955.9,139.5c11.5,17.9,23.4,35.6,36.9,52c4,4.8,8.1,9.5,12.3,14.1c1.3,1.4,3.4-0.7,2.1-2.1
				c-14.3-15.5-27-32.4-38.7-49.9c-3.4-5.1-6.8-10.3-10.1-15.5C957.5,136.3,954.9,137.8,955.9,139.5L955.9,139.5z"/>
		</g>
	</g>
</g>
<polyline class="st154" points="956.8,180.1 922.8,227.2 931,232.7 965.9,192.3 "/>
<path class="st149" d="M899,425.5c0,0-107.6,27.4-66.1,108.5s297.1,98.1,299,100c1.9,1.9,33.2-59.4,33.2-59.4s-73.6-78.3-152.9-82.1
	L899,425.5z"/>
<path class="st1" d="M1017.5,491.5c0,0-22.6-7.1-51.5,5.3"/>
<g>
	<path class="st148" d="M1196.9,475.8c-25.7,4.7-72.1,14.8-91.4,19c-5.1,1.1-8.7,5.7-8.6,10.9v0c0.1,6,5,10.8,11,10.8h92.7
		c14.4,0,24.3-14.4,19.2-27.9v0C1216.2,479.4,1206.6,474.1,1196.9,475.8z"/>
</g>
<polyline class="st146" points="735.9,430.5 783.4,559.1 620.6,782.1 "/>
<g>
	<circle cx="736.4" cy="430.1" r="13.3"/>
</g>
<path class="st1" d="M959.4,605.1c0,0,77.8,23.2,115.1,22.4"/>
<g>
	<defs>
		<path id="SVGID_73_" d="M1020.2,760.6L1020.2,760.6c0,11.8,9.6,21.4,21.4,21.4h138.8c14,0,26.6-8.2,32.4-20.9l61.3-135.5
			c4.7-10.3,0.5-22.5-9.6-27.8l-20.2-10.5l-62.2,162.4L1020.2,760.6z"/>
	</defs>
	<use xlink:href="#SVGID_73_"  style="overflow:visible;fill:#D6D4D4;"/>
	<clipPath id="SVGID_1_">
		<use xlink:href="#SVGID_73_"  style="overflow:visible;"/>
	</clipPath>
	<g style="clip-path:url(#SVGID_1_);">
		<g>
			<path class="st3" d="M1046.2,780.1c0.4-5.6,0.9-11.2,1.3-16.7c0.1-0.8-0.7-1.5-1.5-1.5c-0.9,0-1.4,0.7-1.5,1.5
				c-0.4,5.6-0.9,11.2-1.3,16.7c-0.1,0.8,0.7,1.5,1.5,1.5C1045.6,781.6,1046.1,780.9,1046.2,780.1L1046.2,780.1z"/>
		</g>
	</g>
	<g style="clip-path:url(#SVGID_1_);">
		<g>
			<path class="st3" d="M1083.4,780.1c-0.2-5.6-0.5-11.2-0.7-16.7c-0.1-1.9-3.1-1.9-3,0c0.2,5.6,0.5,11.2,0.7,16.7
				C1080.5,782,1083.5,782,1083.4,780.1L1083.4,780.1z"/>
		</g>
	</g>
	<g style="clip-path:url(#SVGID_1_);">
		<g>
			<path class="st3" d="M1120.2,781.5c0.2-5.8,0.3-11.6,0.5-17.4c0.1-1.9-2.9-1.9-3,0c-0.2,5.8-0.3,11.6-0.5,17.4
				C1117.1,783.4,1120.1,783.4,1120.2,781.5L1120.2,781.5z"/>
		</g>
	</g>
	<g style="clip-path:url(#SVGID_1_);">
		<g>
			<path class="st3" d="M1155,781.8c-1-5.8-2-11.6-3-17.4c-0.1-0.8-1.1-1.2-1.8-1c-0.8,0.2-1.2,1-1,1.8c1,5.8,2,11.6,3,17.4
				c0.1,0.8,1.1,1.2,1.8,1C1154.8,783.4,1155.2,782.6,1155,781.8L1155,781.8z"/>
		</g>
	</g>
	<g style="clip-path:url(#SVGID_1_);">
		<g>
			<path class="st3" d="M1189.1,778.6c-3.1-5.1-5.4-10.6-6.8-16.4c-0.5-1.9-3.4-1.1-2.9,0.8c1.5,6,3.9,11.8,7.1,17.1
				C1187.5,781.8,1190.1,780.3,1189.1,778.6L1189.1,778.6z"/>
		</g>
	</g>
	<g style="clip-path:url(#SVGID_1_);">
		<g>
			<path class="st3" d="M1199,749.1c4.8,2.6,9.7,5.3,14.5,7.9c1.7,0.9,3.2-1.7,1.5-2.6c-4.8-2.6-9.7-5.3-14.5-7.9
				C1198.8,745.6,1197.3,748.2,1199,749.1L1199,749.1z"/>
		</g>
	</g>
	<g style="clip-path:url(#SVGID_1_);">
		<g>
			<path class="st3" d="M1210.1,724.2c4.6,2.3,9.3,4.7,13.9,7c0.7,0.4,1.6,0.2,2.1-0.5c0.4-0.7,0.2-1.7-0.5-2.1
				c-4.6-2.3-9.3-4.7-13.9-7c-0.7-0.4-1.6-0.2-2.1,0.5C1209.2,722.8,1209.4,723.8,1210.1,724.2L1210.1,724.2z"/>
		</g>
	</g>
	<g style="clip-path:url(#SVGID_1_);">
		<g>
			<path class="st3" d="M1224.8,696.5c4.5,0.4,8.8,2.2,12.2,5.1c0.6,0.5,1.5,0.6,2.1,0c0.5-0.5,0.6-1.6,0-2.1c-4-3.5-9-5.5-14.3-6
				c-0.8-0.1-1.5,0.7-1.5,1.5C1223.3,695.9,1224,696.5,1224.8,696.5L1224.8,696.5z"/>
		</g>
	</g>
	<g style="clip-path:url(#SVGID_1_);">
		<g>
			<path class="st3" d="M1239.9,668.6c3.3,2.5,6.6,5,9.9,7.5c0.6,0.5,1.7,0.1,2.1-0.5c0.4-0.8,0.1-1.6-0.5-2.1
				c-3.3-2.5-6.6-5-9.9-7.5c-0.6-0.5-1.7-0.1-2.1,0.5C1238.9,667.3,1239.3,668.1,1239.9,668.6L1239.9,668.6z"/>
		</g>
	</g>
	<g style="clip-path:url(#SVGID_1_);">
		<g>
			<path class="st3" d="M1248.4,646.1c3.5,1.6,7,3.3,10.5,4.9c0.7,0.3,1.6,0.2,2.1-0.5c0.4-0.6,0.2-1.7-0.5-2.1
				c-3.5-1.6-7-3.3-10.5-4.9c-0.7-0.3-1.6-0.2-2.1,0.5C1247.5,644.7,1247.7,645.8,1248.4,646.1L1248.4,646.1z"/>
		</g>
	</g>
	<g style="clip-path:url(#SVGID_1_);">
		<g>
			<path class="st3" d="M1256.1,623.7c5.4,2.7,10.4,6.1,15.8,8.7c1.7,0.9,3.2-1.7,1.5-2.6c-5.4-2.7-10.4-6.1-15.8-8.7
				C1255.9,620.3,1254.4,622.8,1256.1,623.7L1256.1,623.7z"/>
		</g>
	</g>
	<g style="clip-path:url(#SVGID_1_);">
		<g>
			<path class="st3" d="M1253,601.5c7.8,2.4,15.1,5.9,21.8,10.6c1.6,1.1,3.1-1.5,1.5-2.6c-6.9-4.8-14.5-8.5-22.5-10.9
				C1252,598,1251.2,600.9,1253,601.5L1253,601.5z"/>
		</g>
	</g>
</g>
<g>
	<path class="st147" d="M1164.7,570.4l-33.1,65.3c1,6,2,17.2-1.8,30.4c-4.2,14.5-12.2,24-16.6,28.5c-2.9-0.9-68.2-21-95.7,2.8
		c-9.7,8.4-13,18.6-13,18.6c-0.7,2.2-2.9,17.1,4.9,33.3c4.2,8.8,13.1,14.3,22.8,14.3h142.3c11.1,0,21.2-6.3,26.1-16.2
		c41.6-84.9,68-124.5,48.9-152.1C1229.8,567.1,1181,569.1,1164.7,570.4z"/>
</g>
<g>
	<g>
		<path class="st3" d="M1122.3,685.1c6.6-0.8,13.3-0.6,19.8,1c6.5,1.6,12.5,4.4,18.2,8.1c1.4,0.9,3.3,0.3,4.1-1.1
			c0.9-1.5,0.3-3.2-1.1-4.1c-12.2-7.9-26.4-11.7-40.9-9.9c-1.6,0.2-3,1.2-3,3C1119.3,683.6,1120.7,685.3,1122.3,685.1L1122.3,685.1z
			"/>
	</g>
</g>
<g>
	<g>
		<path class="st3" d="M1131.9,665.9c13.8-2.7,28.9-0.4,41.2,6.4c3.4,1.9,6.4-3.3,3-5.2c-13.8-7.6-30.4-10-45.8-7
			c-1.6,0.3-2.5,2.2-2.1,3.7C1128.7,665.5,1130.3,666.2,1131.9,665.9L1131.9,665.9z"/>
	</g>
</g>
<g>
	<g>
		<path class="st3" d="M1114.9,696.9c12.5,6.5,23.6,15.9,30.6,28.2c2,3.5,3.5,7,4.7,10.8c0.5,1.5,2.1,2.5,3.7,2.1
			c1.5-0.4,2.6-2.1,2.1-3.7c-4.7-14.7-14.6-26.9-27.1-35.9c-3.5-2.5-7.2-4.8-11-6.8c-1.4-0.7-3.3-0.4-4.1,1.1
			C1113.1,694.2,1113.5,696.2,1114.9,696.9L1114.9,696.9z"/>
	</g>
</g>
<line class="st1" x1="1072.4" y1="508.1" x2="1100.9" y2="523.4"/>
<path class="st1" d="M921.3,179.1c0,0,5.8-4.6,12.7,0"/>
<g>
	<path class="st3" d="M917.2,202.8c0,0,0,5.5,1,11.2c0.8,4.4,6.6,5.7,9.2,2l6.8-9.5c1.1-1.6,0-3.8-1.9-3.8H917.2z"/>
</g>
<g>
	<defs>
		<path id="XMLID_26_" d="M960.4,198.7c0,0,5.3,26,11.2,31.9c4.6,4.6,16.2,2.3,20.9-10.4c0,0-21.5-14.5-28.7-26.9L960.4,198.7z"/>
	</defs>
	<use xlink:href="#XMLID_26_"  style="overflow:visible;"/>
	<clipPath id="XMLID_17_">
		<use xlink:href="#XMLID_26_"  style="overflow:visible;"/>
	</clipPath>
	<g style="clip-path:url(#XMLID_17_);">
		<g>
			<path class="st3" d="M966.3,203.4c1.9,5.3,7,9,12.6,9c1.9,0,1.9-3,0-3c-0.3,0-0.6,0-0.9,0c-0.1,0-0.3,0-0.4,0c0.2,0-0.2,0-0.2,0
				c-0.6-0.1-1.1-0.2-1.6-0.4c-0.6-0.2-0.8-0.3-1.3-0.6c-0.5-0.3-1-0.6-1.5-0.9c-1.6-1.1-3.1-3-3.7-4.9c-0.3-0.8-1-1.3-1.8-1
				C966.6,201.7,966,202.6,966.3,203.4L966.3,203.4z"/>
		</g>
	</g>
	<g style="clip-path:url(#XMLID_17_);">
		<g>
			<path class="st3" d="M970.5,222.5c5,2.1,11.2,0.7,14.8-3.3c1.3-1.4-0.8-3.5-2.1-2.1c-3,3.3-7.9,4.2-11.9,2.5
				c-0.7-0.3-1.7,0.3-1.8,1C969.2,221.5,969.8,222.1,970.5,222.5L970.5,222.5z"/>
		</g>
	</g>
</g>
<g>
	<g>
		<path class="st3" d="M830.3,365.5c11.6,19,28.9,34.4,49.6,42.6c5.7,2.3,11.7,4,17.7,5c1.6,0.3,3.2-0.4,3.7-2.1
			c0.4-1.4-0.5-3.4-2.1-3.7c-20.8-3.5-39.5-14.9-53.3-30.7c-3.9-4.4-7.3-9.2-10.4-14.2C833.5,359.1,828.3,362.2,830.3,365.5
			L830.3,365.5z"/>
	</g>
</g>
<g>
	<g>
		<path class="st3" d="M850,355c11.7,19.1,29.8,33.7,50.6,41.6c5.8,2.2,11.8,3.8,17.9,4.8c1.6,0.3,3.2-0.4,3.7-2.1
			c0.4-1.4-0.5-3.4-2.1-3.7c-20.8-3.5-40.1-14.1-54.4-29.7c-4-4.3-7.5-9-10.5-14C853.2,348.7,848,351.7,850,355L850,355z"/>
	</g>
</g>
<polygon points="780.2,379.4 798,423.9 811.9,422.6 796.1,378 "/>
<path class="st154" d="M800.2,375.3l-26.2,2.5c-1.4,0.1-2.6-0.9-2.7-2.2l-0.1-0.8c-0.1-1.4,0.9-2.6,2.2-2.7l26.2-2.5
	c1.4-0.1,2.6,0.9,2.7,2.2l0.1,0.8C802.6,374,801.6,375.2,800.2,375.3z"/>
</svg>
