<?xml version="1.0" encoding="utf-8"?>
<!-- Generator: Adobe Illustrator 24.0.2, SVG Export Plug-In . SVG Version: 6.00 Build 0)  -->
<svg version="1.1" id="Layer_1" xmlns="http://www.w3.org/2000/svg" xmlns:xlink="http://www.w3.org/1999/xlink" x="0px" y="0px"
	 viewBox="0 0 1920 1080" style="enable-background:new 0 0 1920 1080;" xml:space="preserve">
<style type="text/css">
	.st0{fill:#6CACEC;}
	.st1{fill:none;stroke:#000000;stroke-width:2;stroke-linecap:round;stroke-linejoin:round;stroke-miterlimit:10;}
	.st2{opacity:0.1;}
	.st3{fill:#FFFFFF;}
	.st4{fill:#FF81C4;}
	.st5{fill:#FFFFFF;stroke:#000000;stroke-width:2;stroke-linecap:round;stroke-linejoin:round;stroke-miterlimit:10;}
	.st6{fill:#5856D6;}
	.st7{fill:#FF81C4;stroke:#000000;stroke-width:2;stroke-linecap:round;stroke-linejoin:round;stroke-miterlimit:10;}
	.st8{fill:#3880BA;}
	.st9{fill:#FFFFFF;stroke:#000000;stroke-miterlimit:10;}
	.st10{fill:none;stroke:#000000;stroke-miterlimit:10;}
	.st11{fill:none;stroke:#000000;stroke-width:8;stroke-linecap:round;stroke-linejoin:round;stroke-miterlimit:10;}
	.st12{fill:url(#SVGID_1_);stroke:#F2566A;stroke-miterlimit:10;}
	.st13{fill:url(#SVGID_2_);}
	.st14{fill:none;stroke:#F2566A;stroke-miterlimit:10;}
	.st15{fill:none;stroke:#F2566A;stroke-miterlimit:10;stroke-dasharray:10.2805,139.8143;}
	.st16{fill:url(#SVGID_4_);stroke:#F2566A;stroke-miterlimit:10;}
	.st17{fill:url(#SVGID_5_);stroke:#F2566A;stroke-miterlimit:10;}
	.st18{fill:url(#SVGID_6_);fill-opacity:0.15;stroke:#549BF4;stroke-width:2;stroke-opacity:8.222246e-02;}
	.st19{fill:url(#SVGID_8_);fill-opacity:0.15;stroke:#549BF4;stroke-width:2;stroke-opacity:8.222246e-02;}
	.st20{opacity:0.62;fill:url(#SVGID_10_);fill-opacity:0.5;}
	.st21{opacity:0.62;fill:url(#SVGID_12_);fill-opacity:0.5;}
	.st22{opacity:0.62;fill:url(#SVGID_13_);fill-opacity:0.5;}
	.st23{opacity:0.62;fill:url(#SVGID_14_);fill-opacity:0.5;}
	.st24{opacity:0.62;fill:url(#SVGID_15_);fill-opacity:0.5;}
	.st25{opacity:0.62;fill:url(#SVGID_16_);fill-opacity:0.5;}
	.st26{opacity:0.62;fill:url(#SVGID_17_);fill-opacity:0.5;}
	.st27{opacity:0.62;fill:url(#SVGID_18_);fill-opacity:0.5;}
	.st28{fill:url(#SVGID_19_);stroke:#F2566A;stroke-miterlimit:10;stroke-dasharray:203,31,0,0,0;}
	.st29{fill:none;stroke:#F2566A;stroke-miterlimit:10;stroke-dasharray:110,0,0,0,0;}
	.st30{fill:none;stroke:#CBD6E8;stroke-miterlimit:10;}
	.st31{fill:url(#SVGID_20_);}
	.st32{fill:url(#SVGID_21_);}
	.st33{fill:url(#SVGID_22_);}
	.st34{fill:url(#SVGID_23_);}
	.st35{fill:url(#SVGID_24_);}
	.st36{fill:url(#SVGID_25_);}
	.st37{fill:none;stroke:#FFFFFF;stroke-miterlimit:10;}
	.st38{fill:url(#SVGID_27_);}
	.st39{fill:none;stroke:#FFFFFF;stroke-linecap:round;stroke-miterlimit:10;}
	.st40{fill:url(#SVGID_28_);}
	.st41{fill:url(#SVGID_29_);}
	.st42{opacity:0.36;fill:url(#SVGID_30_);enable-background:new    ;}
	.st43{opacity:0.36;fill:url(#SVGID_31_);enable-background:new    ;}
	.st44{fill:url(#SVGID_32_);fill-opacity:0.15;stroke:#549BF4;stroke-width:2;stroke-opacity:8.222246e-02;}
	.st45{fill:url(#SVGID_34_);fill-opacity:0.15;stroke:#549BF4;stroke-width:2;stroke-opacity:8.222246e-02;}
	.st46{fill:url(#SVGID_35_);fill-opacity:0.15;stroke:#549BF4;stroke-width:2;stroke-opacity:8.222246e-02;}
	.st47{fill:url(#SVGID_36_);fill-opacity:0.15;stroke:#549BF4;stroke-width:2;stroke-opacity:8.222246e-02;}
	.st48{fill:url(#SVGID_37_);fill-opacity:0.5;stroke:#FFFFFF;stroke-linejoin:round;}
	.st49{fill:url(#SVGID_38_);fill-opacity:0.15;stroke:#549BF4;stroke-width:2;stroke-opacity:8.222246e-02;}
	.st50{opacity:0.54;fill:#FFFFFF;enable-background:new    ;}
	.st51{fill:#363C61;}
	.st52{fill:none;stroke:url(#SVGID_39_);stroke-width:9;stroke-miterlimit:10;}
	.st53{fill:none;stroke:url(#SVGID_40_);stroke-width:9;stroke-miterlimit:10;}
	.st54{fill:none;stroke:#FFFFFF;stroke-width:3;stroke-miterlimit:10;}
	.st55{opacity:0.62;fill:url(#SVGID_41_);fill-opacity:0.5;}
	.st56{opacity:0.62;fill:url(#SVGID_42_);fill-opacity:0.5;}
	.st57{opacity:0.62;fill:url(#SVGID_43_);fill-opacity:0.5;}
	.st58{opacity:0.6;fill:url(#SVGID_44_);fill-opacity:0.5;}
	.st59{fill:url(#SVGID_45_);fill-opacity:0.15;stroke:#549BF4;stroke-width:2;stroke-opacity:8.222246e-02;}
	.st60{fill:url(#SVGID_46_);fill-opacity:0.15;stroke:#549BF4;stroke-width:2;stroke-opacity:8.222246e-02;}
	.st61{fill:url(#SVGID_47_);fill-opacity:0.15;stroke:#549BF4;stroke-width:2;stroke-opacity:8.222246e-02;}
	.st62{fill:url(#SVGID_48_);fill-opacity:0.15;stroke:#549BF4;stroke-width:2;stroke-opacity:8.222246e-02;}
	.st63{opacity:0.62;fill:url(#SVGID_49_);fill-opacity:0.5;}
	.st64{opacity:0.62;fill:url(#SVGID_50_);fill-opacity:0.5;}
	.st65{opacity:5.000000e-02;fill:none;stroke:#FFFFFF;stroke-width:2;stroke-miterlimit:10;}
	.st66{opacity:0.15;fill:url(#SVGID_51_);fill-opacity:0.5;}
	.st67{opacity:0.5;}
	.st68{fill:none;stroke:#FFFFFF;stroke-width:2;stroke-dasharray:11.8503,11.8503;}
	.st69{fill:url(#SVGID_52_);fill-opacity:0.5;stroke:#FFFFFF;stroke-linejoin:round;}
	.st70{fill:url(#SVGID_53_);fill-opacity:0.15;stroke:#549BF4;stroke-width:2;stroke-opacity:8.222246e-02;}
	.st71{fill:#CAD6E8;}
	.st72{fill:url(#SVGID_54_);}
	.st73{fill:url(#SVGID_55_);}
	.st74{opacity:0.89;fill:#F2566A;enable-background:new    ;}
	.st75{fill:#EBF1FC;}
	.st76{fill:#CEDEF2;}
	.st77{fill:url(#SVGID_56_);}
	.st78{fill:url(#SVGID-2_1_);}
	.st79{fill:url(#SVGID-3_1_);}
	.st80{fill:url(#SVGID_57_);}
	.st81{clip-path:url(#SVGID_58_);}
	.st82{fill:url(#SVGID_59_);}
	.st83{fill:#CBD6E8;}
	.st84{stroke:#000000;stroke-miterlimit:10;}
	.st85{fill:url(#SVGID_60_);}
	.st86{fill:url(#SVGID-4_1_);}
	.st87{fill:url(#SVGID_61_);}
	.st88{opacity:0.36;fill:url(#SVGID_62_);enable-background:new    ;}
	.st89{opacity:0.4;fill:#3574EC;enable-background:new    ;}
	.st90{fill:url(#SVGID-5_1_);}
	.st91{fill:url(#SVGID-6_1_);}
	.st92{fill:url(#SVGID_63_);}
	.st93{clip-path:url(#SVGID_64_);}
	.st94{fill:url(#SVGID_65_);}
	.st95{fill:url(#SVGID-7_1_);}
	.st96{opacity:0.4;fill:#FFFFFF;enable-background:new    ;}
	.st97{opacity:0.9;fill:#FFFFFF;enable-background:new    ;}
	.st98{opacity:0.9;}
	.st99{fill:url(#SVGID_66_);}
	.st100{opacity:0.36;fill:url(#SVGID_67_);enable-background:new    ;}
	.st101{fill:url(#SVGID_68_);}
	.st102{fill:url(#SVGID_69_);}
	.st103{fill:url(#SVGID_70_);fill-opacity:0.3;}
	.st104{opacity:8.000000e-02;fill:#549BF4;enable-background:new    ;}
	.st105{fill:url(#SVGID_71_);fill-opacity:0.15;}
	.st106{opacity:0.8;}
	.st107{fill:#9090D0;}
	.st108{fill:none;stroke:#000000;stroke-width:3;stroke-linecap:round;stroke-linejoin:round;stroke-miterlimit:10;}
	.st109{fill:#CFCED4;}
	.st110{fill:#FEAD91;}
	.st111{fill:#FFFFFF;stroke:#000000;stroke-width:3;stroke-linecap:round;stroke-linejoin:round;stroke-miterlimit:10;}
	.st112{fill:#FEAD91;stroke:#000000;stroke-width:3;stroke-miterlimit:10;}
	.st113{fill:#FFE2AA;}
	.st114{fill:#FFE2AA;stroke:#000000;stroke-width:3;stroke-linecap:round;stroke-linejoin:round;stroke-miterlimit:10;}
	.st115{fill:none;stroke:#000000;stroke-width:4;stroke-linecap:round;stroke-linejoin:round;stroke-miterlimit:10;}
	.st116{fill:#FFFFFF;stroke:#000000;stroke-width:5;stroke-linecap:round;stroke-linejoin:round;stroke-miterlimit:10;}
	.st117{fill:none;stroke:#000000;stroke-width:3;stroke-miterlimit:10;}
	.st118{fill:#FFFFFF;stroke:#000000;stroke-width:2;stroke-miterlimit:10;}
	.st119{fill:#FFC9E6;}
	.st120{fill:#FCA1BB;}
	.st121{fill:#151614;}
	.st122{fill:#FFFFFF;stroke:#1B0042;stroke-width:2;stroke-linecap:round;stroke-linejoin:round;stroke-miterlimit:10;}
	.st123{fill:none;stroke:#1B0042;stroke-width:2;stroke-linecap:round;stroke-linejoin:round;stroke-miterlimit:10;}
	.st124{fill:#1B0042;}
	
		.st125{opacity:0.15;clip-path:url(#XMLID_13_);fill:none;stroke:#FFFFFF;stroke-width:2;stroke-linecap:round;stroke-linejoin:round;stroke-miterlimit:10;}
	.st126{fill:none;stroke:#000000;stroke-linecap:round;stroke-linejoin:round;stroke-miterlimit:10;}
	.st127{fill:none;stroke:#FFFFFF;stroke-linecap:round;stroke-linejoin:round;stroke-miterlimit:10;}
	
		.st128{opacity:0.15;clip-path:url(#XMLID_15_);fill:none;stroke:#FFFFFF;stroke-width:2;stroke-linecap:round;stroke-linejoin:round;stroke-miterlimit:10;}
	
		.st129{opacity:0.15;clip-path:url(#XMLID_16_);fill:none;stroke:#FFFFFF;stroke-width:2;stroke-linecap:round;stroke-linejoin:round;stroke-miterlimit:10;}
	.st130{fill:none;stroke:#FFFFFF;stroke-width:2;stroke-linecap:round;stroke-linejoin:round;stroke-miterlimit:10;}
	
		.st131{opacity:0.15;clip-path:url(#XMLID_17_);fill:none;stroke:#FFFFFF;stroke-width:2;stroke-linecap:round;stroke-linejoin:round;stroke-miterlimit:10;}
	.st132{opacity:0.15;clip-path:url(#XMLID_18_);fill:none;stroke:#FFFFFF;stroke-width:2;stroke-miterlimit:10;}
	
		.st133{opacity:0.15;clip-path:url(#XMLID_19_);fill:none;stroke:#FFFFFF;stroke-width:2;stroke-linecap:round;stroke-linejoin:round;stroke-miterlimit:10;}
	.st134{fill:#FFFFFF;stroke:#2C234A;stroke-width:2;stroke-linecap:round;stroke-linejoin:round;stroke-miterlimit:10;}
	.st135{fill:#8AAFF6;}
	.st136{fill:none;stroke:#2C234A;stroke-width:2;stroke-linecap:round;stroke-linejoin:round;stroke-miterlimit:10;}
	.st137{opacity:0.2;}
	.st138{fill:#2C234A;}
	.st139{fill:none;stroke:#4417D7;stroke-width:2;stroke-linecap:round;stroke-linejoin:round;stroke-miterlimit:10;}
	.st140{fill:none;stroke:#EFCC4A;stroke-width:2;stroke-linecap:round;stroke-linejoin:round;stroke-miterlimit:10;}
	.st141{fill:#E3DFFF;}
	.st142{fill:none;stroke:#9D8AF6;stroke-width:2;stroke-linecap:round;stroke-linejoin:round;stroke-miterlimit:10;}
	.st143{clip-path:url(#SVGID_72_);}
	.st144{fill:none;stroke:#E3DFFF;stroke-width:4;stroke-linecap:round;stroke-linejoin:round;stroke-miterlimit:10;}
	.st145{fill:none;stroke:#D6D4D4;stroke-width:10;stroke-linecap:round;stroke-linejoin:round;stroke-miterlimit:10;}
	.st146{fill:none;stroke:#FF4B42;stroke-width:10;stroke-linecap:round;stroke-linejoin:round;stroke-miterlimit:10;}
	.st147{fill:#D7B9D8;}
	.st148{fill:#D6D4D4;}
	.st149{fill:#FFB69D;}
	.st150{fill:#D6D4D4;stroke:#FFFFFF;stroke-width:2;stroke-miterlimit:10;}
	.st151{clip-path:url(#XMLID_20_);}
	.st152{clip-path:url(#XMLID_21_);}
	.st153{fill:none;stroke:#FFFFFF;stroke-width:5;stroke-linecap:round;stroke-linejoin:round;stroke-miterlimit:10;}
	.st154{fill:#FF4B42;}
	.st155{clip-path:url(#XMLID_24_);}
	.st156{clip-path:url(#SVGID_74_);}
	.st157{clip-path:url(#XMLID_25_);}
	.st158{fill:#FEC0D9;}
	
		.st159{fill:none;stroke:#D6D4D4;stroke-width:3;stroke-linecap:round;stroke-linejoin:round;stroke-miterlimit:10;stroke-dasharray:20,20;}
	.st160{fill:#6BA5BD;}
	.st161{clip-path:url(#XMLID_28_);}
	.st162{clip-path:url(#SVGID_76_);}
	.st163{clip-path:url(#XMLID_29_);}
	.st164{clip-path:url(#XMLID_33_);}
	.st165{fill:none;stroke:#FFFFFF;stroke-width:4;stroke-linecap:round;stroke-linejoin:round;stroke-miterlimit:10;}
	.st166{fill:none;stroke:#FFFF00;stroke-width:2;stroke-linecap:round;stroke-linejoin:round;stroke-miterlimit:10;}
	.st167{fill:#FEC0D9;stroke:#000000;stroke-width:3;stroke-linecap:round;stroke-linejoin:round;stroke-miterlimit:10;}
	.st168{fill:#FFCDB2;stroke:#000000;stroke-width:2;stroke-linecap:round;stroke-linejoin:round;stroke-miterlimit:10;}
	.st169{stroke:#FFFFFF;stroke-width:2;stroke-miterlimit:10;}
	.st170{fill:#996533;stroke:#000000;stroke-width:2;stroke-linecap:round;stroke-linejoin:round;stroke-miterlimit:10;}
	.st171{stroke:#000000;stroke-width:2;stroke-linecap:round;stroke-linejoin:round;stroke-miterlimit:10;}
	.st172{fill:#996533;stroke:#000000;stroke-width:2;stroke-miterlimit:10;}
	.st173{fill:#FF6600;stroke:#000000;stroke-width:2;stroke-linecap:round;stroke-linejoin:round;stroke-miterlimit:10;}
	.st174{fill:#FFCDB2;}
	.st175{fill:none;stroke:#000000;stroke-width:2;stroke-miterlimit:10;}
	.st176{fill:none;stroke:#000000;stroke-width:5;stroke-linecap:round;stroke-linejoin:round;stroke-miterlimit:10;}
	.st177{fill:#9B4CB5;stroke:#000000;stroke-width:2;stroke-linecap:round;stroke-linejoin:round;stroke-miterlimit:10;}
	.st178{fill:#C8C8FF;stroke:#000000;stroke-width:2;stroke-linecap:round;stroke-linejoin:round;stroke-miterlimit:10;}
	.st179{fill:#DDDCDD;}
	.st180{fill:#FA6058;stroke:#000000;stroke-width:2;stroke-miterlimit:10;}
	.st181{fill:#FBBC2D;stroke:#000000;stroke-width:2;stroke-miterlimit:10;}
	.st182{fill:#30CA41;stroke:#000000;stroke-width:2;stroke-miterlimit:10;}
	.st183{stroke:#FFFFFF;stroke-width:2;stroke-linecap:round;stroke-linejoin:round;stroke-miterlimit:10;}
	.st184{fill:none;stroke:#C8C8FF;stroke-width:5;stroke-linecap:round;stroke-linejoin:round;stroke-miterlimit:10;}
	.st185{stroke:#000000;stroke-width:2;stroke-miterlimit:10;}
	.st186{fill:#FF2D55;}
	.st187{fill:#D4D7FF;}
	.st188{fill:#FFCBC2;}
	.st189{clip-path:url(#SVGID_77_);}
	.st190{fill:#352F84;}
	.st191{clip-path:url(#SVGID_78_);}
	.st192{clip-path:url(#SVGID_79_);}
	.st193{clip-path:url(#XMLID_37_);}
	.st194{opacity:0.4;clip-path:url(#XMLID_41_);}
	.st195{clip-path:url(#XMLID_44_);}
	.st196{fill:#FF3167;}
	.st197{fill:#91A3B4;}
	.st198{fill:#E05555;}
	.st199{fill:none;stroke:#EFA9A9;stroke-width:2;stroke-miterlimit:10;}
	.st200{clip-path:url(#XMLID_46_);}
	.st201{fill:#F2F2F2;}
	.st202{fill:#6F8393;}
	.st203{fill:#333333;}
	.st204{fill:#B5C7C3;}
	.st205{clip-path:url(#XMLID_47_);}
	.st206{clip-path:url(#SVGID_81_);}
	.st207{clip-path:url(#XMLID_50_);}
	.st208{fill:#5595E0;}
	.st209{fill:#FCFCFC;}
	.st210{fill:none;stroke:#CACBDB;stroke-width:10;stroke-linecap:round;stroke-linejoin:round;stroke-miterlimit:10;}
	
		.st211{fill:none;stroke:#CACBDB;stroke-width:10;stroke-linecap:round;stroke-linejoin:round;stroke-miterlimit:10;stroke-dasharray:30,30;}
	.st212{fill:none;stroke:#CACBDB;stroke-width:21;stroke-linecap:round;stroke-linejoin:round;stroke-miterlimit:10;}
	.st213{fill:#E45858;}
	.st214{fill:#CFD4FF;}
	.st215{fill:#2A2C67;}
	.st216{clip-path:url(#XMLID_51_);}
	.st217{fill:#585DE4;}
	.st218{fill:none;stroke:#324A81;stroke-width:5;stroke-linecap:round;stroke-linejoin:round;stroke-miterlimit:10;}
	.st219{fill:#CFD4FF;stroke:#2A2C67;stroke-width:5;stroke-linecap:round;stroke-linejoin:round;stroke-miterlimit:10;}
	.st220{clip-path:url(#XMLID_52_);}
	.st221{clip-path:url(#XMLID_53_);}
	.st222{fill:none;stroke:#FEFEFF;stroke-width:5;stroke-linecap:round;stroke-linejoin:round;stroke-miterlimit:10;}
	.st223{fill:#CFD4FF;stroke:#2A2C67;stroke-width:5;stroke-miterlimit:10;}
	.st224{fill:none;stroke:#2A2C67;stroke-width:5;stroke-linecap:round;stroke-linejoin:round;stroke-miterlimit:10;}
	.st225{fill:none;stroke:#585DE4;stroke-width:5;stroke-miterlimit:10;}
	.st226{fill:none;stroke:#585DE4;stroke-width:5;stroke-linecap:round;stroke-linejoin:round;stroke-miterlimit:10;}
	.st227{fill:#E8E8F7;}
	
		.st228{opacity:0.4;fill:none;stroke:#303044;stroke-width:2.5095;stroke-linecap:round;stroke-linejoin:round;stroke-miterlimit:10;}
	.st229{fill:#FEC5C4;}
	.st230{fill:#EF8D8B;}
	.st231{fill:#FEC5C4;stroke:#EF8D8B;stroke-width:2.5095;stroke-linecap:round;stroke-linejoin:round;stroke-miterlimit:10;}
	.st232{fill:#F048BA;}
	.st233{fill:#FFFFFF;stroke:#E8E8F7;stroke-width:2;stroke-linecap:round;stroke-linejoin:round;stroke-miterlimit:10;}
	.st234{fill:none;stroke:#E8E8F7;stroke-width:2;stroke-linecap:round;stroke-linejoin:round;stroke-miterlimit:10;}
	.st235{fill:#303044;}
	.st236{fill:none;}
	.st237{fill:none;stroke:#EF8D8B;stroke-width:2.5095;stroke-linecap:round;stroke-linejoin:round;stroke-miterlimit:10;}
	.st238{fill:none;stroke:#E8E8F7;stroke-width:7;stroke-linecap:round;stroke-linejoin:round;stroke-miterlimit:10;}
	.st239{fill:#FFFFFF;stroke:#E8E8F7;stroke-width:7;stroke-linecap:round;stroke-linejoin:round;stroke-miterlimit:10;}
	.st240{fill:#FFFFFF;stroke:#E8E8F7;stroke-width:5.62;stroke-miterlimit:10;}
	.st241{fill:#E8E8F7;stroke:#E8E8F7;stroke-width:5.62;stroke-miterlimit:10;}
	.st242{fill:#FEC5C4;stroke:#EF8D8B;stroke-width:2;stroke-linecap:round;stroke-linejoin:round;stroke-miterlimit:10;}
	.st243{fill:none;stroke:#EF8D8B;stroke-width:2;stroke-linecap:round;stroke-linejoin:round;stroke-miterlimit:10;}
	.st244{fill:#E8E8F7;stroke:#FFFFFF;stroke-width:5.62;stroke-miterlimit:10;}
	.st245{opacity:0.4;fill:none;stroke:#000000;stroke-width:2;stroke-linecap:round;stroke-linejoin:round;stroke-miterlimit:10;}
	.st246{fill:none;stroke:#E8E8F7;stroke-width:5.1321;stroke-miterlimit:10;}
	.st247{fill:none;stroke:#EF8D8B;stroke-width:2;stroke-linecap:round;stroke-miterlimit:10;}
	.st248{fill:#FFFFFF;stroke:#E8E8F7;stroke-width:5;stroke-miterlimit:10;}
	.st249{fill:#E8E8F7;stroke:#E8E8F7;stroke-width:5;stroke-miterlimit:10;}
	.st250{fill:#FFFFFF;stroke:#E8E8F7;stroke-width:5;stroke-miterlimit:10;stroke-dasharray:20,20;}
	.st251{fill:#F2F2F6;}
	.st252{opacity:0.4;fill:#FFFFFF;stroke:#000000;stroke-width:2.1161;stroke-linecap:round;stroke-miterlimit:10;}
	
		.st253{opacity:0.4;fill:none;stroke:#000000;stroke-width:2.1161;stroke-linecap:round;stroke-linejoin:round;stroke-miterlimit:10;stroke-dasharray:140.7185,204.2005;}
	.st254{opacity:0.4;fill:none;stroke:#000000;stroke-width:2.1161;stroke-linecap:round;stroke-miterlimit:10;}
	.st255{fill:#282828;}
	.st256{fill:#FEC5C4;stroke:#EF8D8B;stroke-width:1.058;stroke-linecap:round;stroke-miterlimit:10;}
	.st257{fill:none;stroke:#FFFFFF;stroke-width:8;stroke-linecap:round;stroke-linejoin:round;stroke-miterlimit:10;}
	
		.st258{fill:none;stroke:#E8E8F7;stroke-width:5;stroke-linecap:round;stroke-linejoin:round;stroke-miterlimit:10;stroke-dasharray:20,20;}
	.st259{fill:none;stroke:#E8E8F7;stroke-width:4.7431;stroke-linecap:round;stroke-linejoin:round;stroke-miterlimit:10;}
	
		.st260{opacity:0.4;fill:none;stroke:#000000;stroke-width:1.7088;stroke-linecap:round;stroke-linejoin:round;stroke-miterlimit:10;}
	.st261{fill-rule:evenodd;clip-rule:evenodd;fill:#F7931A;}
	.st262{fill:none;stroke:#EF8D8B;stroke-width:1.9557;stroke-linecap:round;stroke-linejoin:round;stroke-miterlimit:10;}
</style>
<g>
	<polygon class="st229" points="1125.4,760.5 1110.3,814.2 1150.2,801.8 1170.8,763.3 	"/>
	<polygon class="st229" points="1124,410.9 1114.4,482.5 1040.1,453.6 1052.5,401.3 	"/>
	<path class="st6" d="M1034.3,453.1c0,0,136.1,35.9,193.9,87.8c19.1,17.2,26,44.2,17.9,68.5c-9.1,27.5-29.3,76.9-73.9,153.9H1124
		l50.2-168.6l-89.5-24.8l-61.3,97.7c-8.4,13.4-21.3,23.3-36.3,28.1l-93.7,29.8l-20.6-37.2l73.6-45.4c17.4-10.7,31-26.8,38.6-45.8
		l22.9-56.8c3-7.5,3.2-15.7,0.9-23.4C1004.7,502.8,1002.8,476.6,1034.3,453.1z"/>
	<path class="st245" d="M1084.8,569.9c0,0-70.2-12.4-75.7-52.3"/>
	<circle class="st227" cx="1071.1" cy="209.3" r="8.9"/>
	<path class="st229" d="M1146.8,364.8c0,0,30.3,50.9,50.9,50.9c20.6,0,28.9-26.2,28.9-26.2s35.8-104.6,41.3-115.6
		c3.3-6.5,3.6-16.9,3.4-24.3c-0.2-5.7-1.9-11.2-5.1-16c-4.9-7.4-12.8-18-19-18.9c-9.6-1.4-11,5.5-11,5.5l-2.8,8.3
		c-9.6,9.6-1.4,20.6-1.4,20.6l4,11.9c1,3,0.8,6.2-0.4,9l-37.8,85.6c-0.6,1.5-2.7,1.6-3.5,0.2l-31.1-56.6c-2.7-5-5.2-10.2-7.1-15.5
		c-8.8-25.1-34.2-26.3-34.2-26.3c-19.3-5.5-15.1-33-15.1-33c10.5,4.4,17.4,5.4,22,5.6c2.4,0.1,4.5-1.6,5.1-3.9c12.1-49.3-1-65-1-65
		s-15.1-16.5-34.4-8.3c-19.3,8.3-19.3,66.1-19.3,66.1s0.7,3.4,1.4,13.8v20.6c-5.1,4.4-10.8,8-17,10.5c-5.8,2.4-13.8,7-20.1,15.6
		l-73.6,78.7c-5.9,6.2-12.4,13.2-16.4,20.9l0,0c-4.7,8.9-3.7,19.8,2.6,27.6l0,0c4.1,5.1,10.5,9.3,16.2,12.4l68.5,37.7
		c4.8,2.7,8.9,6.6,11.6,11.4c4.1,7.1,11.5,17.4,21.3,19.2c10.1,1.8,19.7-5,24.9-9.7c3.5-3.2,5.9-7.4,6.4-12.1c0.3-3,0-6.3-2.3-8.6
		c-5.5-5.5-4.1-5.5-4.1-5.5s-2.8-4.1-17.9-6.9c-15.1-2.8-41.3-23.4-41.3-23.4l-44.2-33.5c-0.6-0.5-0.7-1.4-0.1-1.9l55.3-52.6
		l1.4,8.3L1146.8,364.8z"/>
	<path class="st232" d="M1077.9,254.7l-9,6.7c0,0,29.6,12.6,22.8,52.5s-39.9,27.5-39.9,27.5s6.2,32.3,0,61.9l71.6,9.6
		c0,0,6.9-24.8,24.8-39.9c7-5.9,12.5-18.3,13.3-27.9c1.3-14.9-7.8-31.3-15.1-44.3l-24.4-43.4l-7.7-4.1c0,0,9,12.4,9,19.3
		c0,2.3-1.7,4-3.9,5.2c-5.8,3.2-13.1,2.2-18.2-2C1096.8,272.1,1089.5,265.7,1077.9,254.7z"/>
	<path class="st235" d="M1132.3,160.4c0,0-13.8,2.8-22,19.3c0,0-12.4,31.7-31.7,38.5c0,0-12.8-22.2-5.5-42.7
		c6.9-19.3,20.6-23.4,20.6-23.4S1121.3,143.9,1132.3,160.4z"/>
	<circle class="st227" cx="1100.1" cy="191.3" r="13.2"/>
	<line class="st246" x1="1100.1" y1="191.3" x2="1084.3" y2="151.5"/>
	<path class="st247" d="M1260.3,251.3l-1.5-3.7c-0.9-2.2-2.5-3.9-4.7-4.8c-0.9-0.4-1.7-0.5-1.9-0.1l-3.3,6.6
		c-1.1,2.2-4.2,2.5-5.7,0.5c-4.5-6.2-11.6-16.2-8.9-22.5c0,0,2.5-17.2,12.2-11.7"/>
	<path class="st247" d="M1081.4,453.6l7.3,4.6c1.9,1.2,4.4,0.3,5.1-1.8l0,0c0,0,2.3-7.9,8.3,0c4.1,5.5,4.1,13.8-1.4,19.3"/>
	<path class="st235" d="M1063.5,214.1c0,0-13.8,0-50.9,37.2c-37.2,37.2-55.1,67.4-101.9,53.7c-46.8-13.8-27.5-57.8-13.8-63.3
		c13.8-5.5,27.5-5.5,53.7,4.1c20.1,7.4,49.3-18.6,61.6-31c7.1-7.1,15.8-12.4,25.5-14.8c8.6-2.2,18.4-2.2,25.7,4.5
		C1063.5,204.5,1060.7,205.8,1063.5,214.1z"/>
	<path class="st227" d="M1150.2,801.8l-39.9,8.3l-5,43c-0.3,2.5,0.2,5,1.4,7.2l0,0c2.1,3.7,6.5,5.3,10.4,4l105.5-35.2
		c3.9-1.3,5.9-5.7,4.2-9.5l0,0c-4-9.1-12.9-15.2-22.8-15.6L1150.2,801.8z"/>
	<line class="st245" x1="1225.2" y1="816.9" x2="1106.2" y2="855.5"/>
	<path class="st227" d="M852.6,740.8L836.3,707l-39.1,15.6c-2.5-0.2-5,0.5-7.1,1.9l0,0c-3.5,2.3-4.9,6.8-3.3,10.7l36.3,89.3
		c1.6,3.9,6.1,5.5,9.8,3.6h0c8.9-4.6,14.3-13.8,14.1-23.8L852.6,740.8z"/>
	<line class="st245" x1="835.4" y1="826.2" x2="794.9" y2="723.6"/>
	<polygon class="st229" points="894.2,724.7 852.9,742.6 835,708.2 873.6,688.9 	"/>
	<path class="st247" d="M1095.8,452.7c0,0-4.8-10.1-25.5-10.8l-23.9-15.4"/>
	<polygon class="st235" points="1054.1,432.9 1037.3,454.5 1045.2,459.3 1060.7,437.8 	"/>
	<g>
		<path class="st3" d="M1047.6,456.5l-7.4-5.8c-0.6-0.5-0.7-1.3-0.2-1.9l5.8-7.4c0.5-0.6,1.3-0.7,1.9-0.2l7.4,5.8
			c0.6,0.5,0.7,1.3,0.2,1.9l-5.8,7.4C1049,456.8,1048.2,456.9,1047.6,456.5z"/>
	</g>
	<line class="st247" x1="1051.1" y1="333.8" x2="1070.4" y2="314.6"/>
	<line class="st247" x1="1187.4" y1="373.7" x2="1199.1" y2="352.7"/>
</g>
<line class="st234" x1="1558.7" y1="890" x2="284.2" y2="890"/>
<g>
	<circle class="st227" cx="1427.7" cy="683.7" r="100.6"/>
	<line class="st130" x1="1425.7" y1="682.5" x2="1425.7" y2="784.3"/>
	<line class="st234" x1="1425.7" y1="786.8" x2="1425.7" y2="888.6"/>
	<line class="st130" x1="1427.7" y1="749.5" x2="1461.8" y2="715.4"/>
	<line class="st130" x1="1424.7" y1="724" x2="1390.7" y2="690"/>
</g>
<g>
	<g>
		<circle class="st227" cx="453.8" cy="768.1" r="59.9"/>
		<line class="st130" x1="452.6" y1="767.4" x2="452.6" y2="827.9"/>
		<line class="st234" x1="452.6" y1="829.4" x2="452.6" y2="890"/>
		<line class="st130" x1="453.8" y1="807.2" x2="474" y2="787"/>
		<line class="st130" x1="452" y1="792.1" x2="431.7" y2="771.8"/>
	</g>
	<g>
		<circle class="st227" cx="623.9" cy="683.7" r="100.6"/>
		<line class="st130" x1="621.9" y1="682.5" x2="621.9" y2="784.3"/>
		<line class="st234" x1="621.9" y1="786.8" x2="621.9" y2="888.6"/>
		<line class="st130" x1="623.9" y1="749.5" x2="658" y2="715.4"/>
		<line class="st130" x1="620.9" y1="724" x2="586.9" y2="690"/>
	</g>
</g>
<path class="st230" d="M1106.8,224.7l-9.2-3.6c0,0,0.1,4.9,9,12.8C1106.6,233.9,1106.4,228.3,1106.8,224.7z"/>
</svg>
