<?xml version="1.0" encoding="utf-8"?>
<!-- Generator: Adobe Illustrator 24.0.2, SVG Export Plug-In . SVG Version: 6.00 Build 0)  -->
<svg version="1.1" id="Layer_1" xmlns="http://www.w3.org/2000/svg" xmlns:xlink="http://www.w3.org/1999/xlink" x="0px" y="0px"
	 viewBox="0 0 1920 1080" style="enable-background:new 0 0 1920 1080;" xml:space="preserve">
<style type="text/css">
	.st0{fill:#6CACEC;}
	.st1{fill:none;stroke:#000000;stroke-width:2;stroke-linecap:round;stroke-linejoin:round;stroke-miterlimit:10;}
	.st2{opacity:0.1;}
	.st3{fill:#FFFFFF;}
	.st4{fill:#FF81C4;}
	.st5{fill:#FFFFFF;stroke:#000000;stroke-width:2;stroke-linecap:round;stroke-linejoin:round;stroke-miterlimit:10;}
	.st6{fill:#5856D6;}
	.st7{fill:#FF81C4;stroke:#000000;stroke-width:2;stroke-linecap:round;stroke-linejoin:round;stroke-miterlimit:10;}
	.st8{fill:#3880BA;}
	.st9{fill:#FFFFFF;stroke:#000000;stroke-miterlimit:10;}
	.st10{fill:none;stroke:#000000;stroke-miterlimit:10;}
	.st11{fill:none;stroke:#000000;stroke-width:8;stroke-linecap:round;stroke-linejoin:round;stroke-miterlimit:10;}
	.st12{fill:url(#SVGID_1_);stroke:#F2566A;stroke-miterlimit:10;}
	.st13{fill:url(#SVGID_2_);}
	.st14{fill:none;stroke:#F2566A;stroke-miterlimit:10;}
	.st15{fill:none;stroke:#F2566A;stroke-miterlimit:10;stroke-dasharray:10.2805,139.8143;}
	.st16{fill:url(#SVGID_4_);stroke:#F2566A;stroke-miterlimit:10;}
	.st17{fill:url(#SVGID_5_);stroke:#F2566A;stroke-miterlimit:10;}
	.st18{fill:url(#SVGID_6_);fill-opacity:0.15;stroke:#549BF4;stroke-width:2;stroke-opacity:8.222246e-02;}
	.st19{fill:url(#SVGID_8_);fill-opacity:0.15;stroke:#549BF4;stroke-width:2;stroke-opacity:8.222246e-02;}
	.st20{opacity:0.62;fill:url(#SVGID_10_);fill-opacity:0.5;}
	.st21{opacity:0.62;fill:url(#SVGID_12_);fill-opacity:0.5;}
	.st22{opacity:0.62;fill:url(#SVGID_13_);fill-opacity:0.5;}
	.st23{opacity:0.62;fill:url(#SVGID_14_);fill-opacity:0.5;}
	.st24{opacity:0.62;fill:url(#SVGID_15_);fill-opacity:0.5;}
	.st25{opacity:0.62;fill:url(#SVGID_16_);fill-opacity:0.5;}
	.st26{opacity:0.62;fill:url(#SVGID_17_);fill-opacity:0.5;}
	.st27{opacity:0.62;fill:url(#SVGID_18_);fill-opacity:0.5;}
	.st28{fill:url(#SVGID_19_);stroke:#F2566A;stroke-miterlimit:10;stroke-dasharray:203,31,0,0,0;}
	.st29{fill:none;stroke:#F2566A;stroke-miterlimit:10;stroke-dasharray:110,0,0,0,0;}
	.st30{fill:none;stroke:#CBD6E8;stroke-miterlimit:10;}
	.st31{fill:url(#SVGID_20_);}
	.st32{fill:url(#SVGID_21_);}
	.st33{fill:url(#SVGID_22_);}
	.st34{fill:url(#SVGID_23_);}
	.st35{fill:url(#SVGID_24_);}
	.st36{fill:url(#SVGID_25_);}
	.st37{fill:none;stroke:#FFFFFF;stroke-miterlimit:10;}
	.st38{fill:url(#SVGID_27_);}
	.st39{fill:none;stroke:#FFFFFF;stroke-linecap:round;stroke-miterlimit:10;}
	.st40{fill:url(#SVGID_28_);}
	.st41{fill:url(#SVGID_29_);}
	.st42{opacity:0.36;fill:url(#SVGID_30_);enable-background:new    ;}
	.st43{opacity:0.36;fill:url(#SVGID_31_);enable-background:new    ;}
	.st44{fill:url(#SVGID_32_);fill-opacity:0.15;stroke:#549BF4;stroke-width:2;stroke-opacity:8.222246e-02;}
	.st45{fill:url(#SVGID_34_);fill-opacity:0.15;stroke:#549BF4;stroke-width:2;stroke-opacity:8.222246e-02;}
	.st46{fill:url(#SVGID_35_);fill-opacity:0.15;stroke:#549BF4;stroke-width:2;stroke-opacity:8.222246e-02;}
	.st47{fill:url(#SVGID_36_);fill-opacity:0.15;stroke:#549BF4;stroke-width:2;stroke-opacity:8.222246e-02;}
	.st48{fill:url(#SVGID_37_);fill-opacity:0.5;stroke:#FFFFFF;stroke-linejoin:round;}
	.st49{fill:url(#SVGID_38_);fill-opacity:0.15;stroke:#549BF4;stroke-width:2;stroke-opacity:8.222246e-02;}
	.st50{opacity:0.54;fill:#FFFFFF;enable-background:new    ;}
	.st51{fill:#363C61;}
	.st52{fill:none;stroke:url(#SVGID_39_);stroke-width:9;stroke-miterlimit:10;}
	.st53{fill:none;stroke:url(#SVGID_40_);stroke-width:9;stroke-miterlimit:10;}
	.st54{fill:none;stroke:#FFFFFF;stroke-width:3;stroke-miterlimit:10;}
	.st55{opacity:0.62;fill:url(#SVGID_41_);fill-opacity:0.5;}
	.st56{opacity:0.62;fill:url(#SVGID_42_);fill-opacity:0.5;}
	.st57{opacity:0.62;fill:url(#SVGID_43_);fill-opacity:0.5;}
	.st58{opacity:0.6;fill:url(#SVGID_44_);fill-opacity:0.5;}
	.st59{fill:url(#SVGID_45_);fill-opacity:0.15;stroke:#549BF4;stroke-width:2;stroke-opacity:8.222246e-02;}
	.st60{fill:url(#SVGID_46_);fill-opacity:0.15;stroke:#549BF4;stroke-width:2;stroke-opacity:8.222246e-02;}
	.st61{fill:url(#SVGID_47_);fill-opacity:0.15;stroke:#549BF4;stroke-width:2;stroke-opacity:8.222246e-02;}
	.st62{fill:url(#SVGID_48_);fill-opacity:0.15;stroke:#549BF4;stroke-width:2;stroke-opacity:8.222246e-02;}
	.st63{opacity:0.62;fill:url(#SVGID_49_);fill-opacity:0.5;}
	.st64{opacity:0.62;fill:url(#SVGID_50_);fill-opacity:0.5;}
	.st65{opacity:5.000000e-02;fill:none;stroke:#FFFFFF;stroke-width:2;stroke-miterlimit:10;}
	.st66{opacity:0.15;fill:url(#SVGID_51_);fill-opacity:0.5;}
	.st67{opacity:0.5;}
	.st68{fill:none;stroke:#FFFFFF;stroke-width:2;stroke-dasharray:11.8503,11.8503;}
	.st69{fill:url(#SVGID_52_);fill-opacity:0.5;stroke:#FFFFFF;stroke-linejoin:round;}
	.st70{fill:url(#SVGID_53_);fill-opacity:0.15;stroke:#549BF4;stroke-width:2;stroke-opacity:8.222246e-02;}
	.st71{fill:#CAD6E8;}
	.st72{fill:url(#SVGID_54_);}
	.st73{fill:url(#SVGID_55_);}
	.st74{opacity:0.89;fill:#F2566A;enable-background:new    ;}
	.st75{fill:#EBF1FC;}
	.st76{fill:#CEDEF2;}
	.st77{fill:url(#SVGID_56_);}
	.st78{fill:url(#SVGID-2_1_);}
	.st79{fill:url(#SVGID-3_1_);}
	.st80{fill:url(#SVGID_57_);}
	.st81{clip-path:url(#SVGID_58_);}
	.st82{fill:url(#SVGID_59_);}
	.st83{fill:#CBD6E8;}
	.st84{stroke:#000000;stroke-miterlimit:10;}
	.st85{fill:url(#SVGID_60_);}
	.st86{fill:url(#SVGID-4_1_);}
	.st87{fill:url(#SVGID_61_);}
	.st88{opacity:0.36;fill:url(#SVGID_62_);enable-background:new    ;}
	.st89{opacity:0.4;fill:#3574EC;enable-background:new    ;}
	.st90{fill:url(#SVGID-5_1_);}
	.st91{fill:url(#SVGID-6_1_);}
	.st92{fill:url(#SVGID_63_);}
	.st93{clip-path:url(#SVGID_64_);}
	.st94{fill:url(#SVGID_65_);}
	.st95{fill:url(#SVGID-7_1_);}
	.st96{opacity:0.4;fill:#FFFFFF;enable-background:new    ;}
	.st97{opacity:0.9;fill:#FFFFFF;enable-background:new    ;}
	.st98{opacity:0.9;}
	.st99{fill:url(#SVGID_66_);}
	.st100{opacity:0.36;fill:url(#SVGID_67_);enable-background:new    ;}
	.st101{fill:url(#SVGID_68_);}
	.st102{fill:url(#SVGID_69_);}
	.st103{fill:url(#SVGID_70_);fill-opacity:0.3;}
	.st104{opacity:8.000000e-02;fill:#549BF4;enable-background:new    ;}
	.st105{fill:url(#SVGID_71_);fill-opacity:0.15;}
	.st106{opacity:0.8;}
	.st107{fill:#9090D0;}
	.st108{fill:none;stroke:#000000;stroke-width:3;stroke-linecap:round;stroke-linejoin:round;stroke-miterlimit:10;}
	.st109{fill:#CFCED4;}
	.st110{fill:#FEAD91;}
	.st111{fill:#FFFFFF;stroke:#000000;stroke-width:3;stroke-linecap:round;stroke-linejoin:round;stroke-miterlimit:10;}
	.st112{fill:#FEAD91;stroke:#000000;stroke-width:3;stroke-miterlimit:10;}
	.st113{fill:#FFE2AA;}
	.st114{fill:#FFE2AA;stroke:#000000;stroke-width:3;stroke-linecap:round;stroke-linejoin:round;stroke-miterlimit:10;}
	.st115{fill:none;stroke:#000000;stroke-width:4;stroke-linecap:round;stroke-linejoin:round;stroke-miterlimit:10;}
	.st116{fill:#FFFFFF;stroke:#000000;stroke-width:5;stroke-linecap:round;stroke-linejoin:round;stroke-miterlimit:10;}
	.st117{fill:none;stroke:#000000;stroke-width:3;stroke-miterlimit:10;}
	.st118{fill:#FFFFFF;stroke:#000000;stroke-width:2;stroke-miterlimit:10;}
	.st119{fill:#FFC9E6;}
	.st120{fill:#FCA1BB;}
	.st121{fill:#151614;}
	.st122{fill:#FFFFFF;stroke:#1B0042;stroke-width:2;stroke-linecap:round;stroke-linejoin:round;stroke-miterlimit:10;}
	.st123{fill:none;stroke:#1B0042;stroke-width:2;stroke-linecap:round;stroke-linejoin:round;stroke-miterlimit:10;}
	.st124{fill:#1B0042;}
	
		.st125{opacity:0.15;clip-path:url(#XMLID_13_);fill:none;stroke:#FFFFFF;stroke-width:2;stroke-linecap:round;stroke-linejoin:round;stroke-miterlimit:10;}
	.st126{fill:none;stroke:#000000;stroke-linecap:round;stroke-linejoin:round;stroke-miterlimit:10;}
	.st127{fill:none;stroke:#FFFFFF;stroke-linecap:round;stroke-linejoin:round;stroke-miterlimit:10;}
	
		.st128{opacity:0.15;clip-path:url(#XMLID_15_);fill:none;stroke:#FFFFFF;stroke-width:2;stroke-linecap:round;stroke-linejoin:round;stroke-miterlimit:10;}
	
		.st129{opacity:0.15;clip-path:url(#XMLID_16_);fill:none;stroke:#FFFFFF;stroke-width:2;stroke-linecap:round;stroke-linejoin:round;stroke-miterlimit:10;}
	.st130{fill:none;stroke:#FFFFFF;stroke-width:2;stroke-linecap:round;stroke-linejoin:round;stroke-miterlimit:10;}
	
		.st131{opacity:0.15;clip-path:url(#XMLID_17_);fill:none;stroke:#FFFFFF;stroke-width:2;stroke-linecap:round;stroke-linejoin:round;stroke-miterlimit:10;}
	.st132{opacity:0.15;clip-path:url(#XMLID_18_);fill:none;stroke:#FFFFFF;stroke-width:2;stroke-miterlimit:10;}
	
		.st133{opacity:0.15;clip-path:url(#XMLID_19_);fill:none;stroke:#FFFFFF;stroke-width:2;stroke-linecap:round;stroke-linejoin:round;stroke-miterlimit:10;}
	.st134{fill:#FFFFFF;stroke:#2C234A;stroke-width:2;stroke-linecap:round;stroke-linejoin:round;stroke-miterlimit:10;}
	.st135{fill:#8AAFF6;}
	.st136{fill:none;stroke:#2C234A;stroke-width:2;stroke-linecap:round;stroke-linejoin:round;stroke-miterlimit:10;}
	.st137{opacity:0.2;}
	.st138{fill:#2C234A;}
	.st139{fill:none;stroke:#4417D7;stroke-width:2;stroke-linecap:round;stroke-linejoin:round;stroke-miterlimit:10;}
	.st140{fill:none;stroke:#EFCC4A;stroke-width:2;stroke-linecap:round;stroke-linejoin:round;stroke-miterlimit:10;}
	.st141{fill:#E3DFFF;}
	.st142{fill:none;stroke:#9D8AF6;stroke-width:2;stroke-linecap:round;stroke-linejoin:round;stroke-miterlimit:10;}
	.st143{clip-path:url(#SVGID_72_);}
	.st144{fill:none;stroke:#E3DFFF;stroke-width:4;stroke-linecap:round;stroke-linejoin:round;stroke-miterlimit:10;}
	.st145{fill:none;stroke:#D6D4D4;stroke-width:10;stroke-linecap:round;stroke-linejoin:round;stroke-miterlimit:10;}
	.st146{fill:none;stroke:#FF4B42;stroke-width:10;stroke-linecap:round;stroke-linejoin:round;stroke-miterlimit:10;}
	.st147{fill:#D7B9D8;}
	.st148{fill:#D6D4D4;}
	.st149{fill:#FFB69D;}
	.st150{fill:#D6D4D4;stroke:#FFFFFF;stroke-width:2;stroke-miterlimit:10;}
	.st151{clip-path:url(#XMLID_20_);}
	.st152{clip-path:url(#XMLID_21_);}
	.st153{fill:none;stroke:#FFFFFF;stroke-width:5;stroke-linecap:round;stroke-linejoin:round;stroke-miterlimit:10;}
	.st154{fill:#FF4B42;}
	.st155{clip-path:url(#XMLID_24_);}
	.st156{clip-path:url(#SVGID_74_);}
	.st157{clip-path:url(#XMLID_25_);}
	.st158{fill:#FEC0D9;}
	
		.st159{fill:none;stroke:#D6D4D4;stroke-width:3;stroke-linecap:round;stroke-linejoin:round;stroke-miterlimit:10;stroke-dasharray:20,20;}
	.st160{fill:#6BA5BD;}
	.st161{clip-path:url(#XMLID_28_);}
	.st162{clip-path:url(#SVGID_76_);}
	.st163{clip-path:url(#XMLID_29_);}
	.st164{clip-path:url(#XMLID_33_);}
	.st165{fill:none;stroke:#FFFFFF;stroke-width:4;stroke-linecap:round;stroke-linejoin:round;stroke-miterlimit:10;}
	.st166{fill:none;stroke:#FFFF00;stroke-width:2;stroke-linecap:round;stroke-linejoin:round;stroke-miterlimit:10;}
	.st167{fill:#FEC0D9;stroke:#000000;stroke-width:3;stroke-linecap:round;stroke-linejoin:round;stroke-miterlimit:10;}
	.st168{fill:#FFCDB2;stroke:#000000;stroke-width:2;stroke-linecap:round;stroke-linejoin:round;stroke-miterlimit:10;}
	.st169{stroke:#FFFFFF;stroke-width:2;stroke-miterlimit:10;}
	.st170{fill:#996533;stroke:#000000;stroke-width:2;stroke-linecap:round;stroke-linejoin:round;stroke-miterlimit:10;}
	.st171{stroke:#000000;stroke-width:2;stroke-linecap:round;stroke-linejoin:round;stroke-miterlimit:10;}
	.st172{fill:#996533;stroke:#000000;stroke-width:2;stroke-miterlimit:10;}
	.st173{fill:#FF6600;stroke:#000000;stroke-width:2;stroke-linecap:round;stroke-linejoin:round;stroke-miterlimit:10;}
	.st174{fill:#FFCDB2;}
	.st175{fill:none;stroke:#000000;stroke-width:2;stroke-miterlimit:10;}
	.st176{fill:none;stroke:#000000;stroke-width:5;stroke-linecap:round;stroke-linejoin:round;stroke-miterlimit:10;}
	.st177{fill:#9B4CB5;stroke:#000000;stroke-width:2;stroke-linecap:round;stroke-linejoin:round;stroke-miterlimit:10;}
	.st178{fill:#C8C8FF;stroke:#000000;stroke-width:2;stroke-linecap:round;stroke-linejoin:round;stroke-miterlimit:10;}
	.st179{fill:#DDDCDD;}
	.st180{fill:#FA6058;stroke:#000000;stroke-width:2;stroke-miterlimit:10;}
	.st181{fill:#FBBC2D;stroke:#000000;stroke-width:2;stroke-miterlimit:10;}
	.st182{fill:#30CA41;stroke:#000000;stroke-width:2;stroke-miterlimit:10;}
	.st183{stroke:#FFFFFF;stroke-width:2;stroke-linecap:round;stroke-linejoin:round;stroke-miterlimit:10;}
	.st184{fill:none;stroke:#C8C8FF;stroke-width:5;stroke-linecap:round;stroke-linejoin:round;stroke-miterlimit:10;}
	.st185{stroke:#000000;stroke-width:2;stroke-miterlimit:10;}
	.st186{fill:#FF2D55;}
	.st187{fill:#D4D7FF;}
	.st188{fill:#FFCBC2;}
	.st189{clip-path:url(#SVGID_77_);}
	.st190{fill:#352F84;}
	.st191{clip-path:url(#SVGID_78_);}
	.st192{clip-path:url(#SVGID_79_);}
	.st193{clip-path:url(#XMLID_37_);}
	.st194{opacity:0.4;clip-path:url(#XMLID_41_);}
	.st195{clip-path:url(#XMLID_44_);}
	.st196{fill:#FF3167;}
	.st197{fill:#91A3B4;}
	.st198{fill:#E05555;}
	.st199{fill:none;stroke:#EFA9A9;stroke-width:2;stroke-miterlimit:10;}
	.st200{clip-path:url(#XMLID_46_);}
	.st201{fill:#F2F2F2;}
	.st202{fill:#6F8393;}
	.st203{fill:#333333;}
	.st204{fill:#B5C7C3;}
	.st205{clip-path:url(#XMLID_47_);}
	.st206{clip-path:url(#SVGID_81_);}
	.st207{clip-path:url(#XMLID_50_);}
	.st208{fill:#5595E0;}
	.st209{fill:#FCFCFC;}
	.st210{fill:none;stroke:#CACBDB;stroke-width:10;stroke-linecap:round;stroke-linejoin:round;stroke-miterlimit:10;}
	
		.st211{fill:none;stroke:#CACBDB;stroke-width:10;stroke-linecap:round;stroke-linejoin:round;stroke-miterlimit:10;stroke-dasharray:30,30;}
	.st212{fill:none;stroke:#CACBDB;stroke-width:21;stroke-linecap:round;stroke-linejoin:round;stroke-miterlimit:10;}
	.st213{fill:#E45858;}
	.st214{fill:#CFD4FF;}
	.st215{fill:#2A2C67;}
	.st216{clip-path:url(#XMLID_51_);}
	.st217{fill:#585DE4;}
	.st218{fill:none;stroke:#324A81;stroke-width:5;stroke-linecap:round;stroke-linejoin:round;stroke-miterlimit:10;}
	.st219{fill:#CFD4FF;stroke:#2A2C67;stroke-width:5;stroke-linecap:round;stroke-linejoin:round;stroke-miterlimit:10;}
	.st220{clip-path:url(#XMLID_52_);}
	.st221{clip-path:url(#XMLID_53_);}
	.st222{fill:none;stroke:#FEFEFF;stroke-width:5;stroke-linecap:round;stroke-linejoin:round;stroke-miterlimit:10;}
	.st223{fill:#CFD4FF;stroke:#2A2C67;stroke-width:5;stroke-miterlimit:10;}
	.st224{fill:none;stroke:#2A2C67;stroke-width:5;stroke-linecap:round;stroke-linejoin:round;stroke-miterlimit:10;}
	.st225{fill:none;stroke:#585DE4;stroke-width:5;stroke-miterlimit:10;}
	.st226{fill:none;stroke:#585DE4;stroke-width:5;stroke-linecap:round;stroke-linejoin:round;stroke-miterlimit:10;}
	.st227{fill:#E8E8F7;}
	
		.st228{opacity:0.4;fill:none;stroke:#303044;stroke-width:2.5095;stroke-linecap:round;stroke-linejoin:round;stroke-miterlimit:10;}
	.st229{fill:#FEC5C4;}
	.st230{fill:#EF8D8B;}
	.st231{fill:#FEC5C4;stroke:#EF8D8B;stroke-width:2.5095;stroke-linecap:round;stroke-linejoin:round;stroke-miterlimit:10;}
	.st232{fill:#F048BA;}
	.st233{fill:#FFFFFF;stroke:#E8E8F7;stroke-width:2;stroke-linecap:round;stroke-linejoin:round;stroke-miterlimit:10;}
	.st234{fill:none;stroke:#E8E8F7;stroke-width:2;stroke-linecap:round;stroke-linejoin:round;stroke-miterlimit:10;}
	.st235{fill:#303044;}
	.st236{fill:none;}
	.st237{fill:none;stroke:#EF8D8B;stroke-width:2.5095;stroke-linecap:round;stroke-linejoin:round;stroke-miterlimit:10;}
	.st238{fill:none;stroke:#E8E8F7;stroke-width:7;stroke-linecap:round;stroke-linejoin:round;stroke-miterlimit:10;}
	.st239{fill:#FFFFFF;stroke:#E8E8F7;stroke-width:7;stroke-linecap:round;stroke-linejoin:round;stroke-miterlimit:10;}
	.st240{fill:#FFFFFF;stroke:#E8E8F7;stroke-width:5.62;stroke-miterlimit:10;}
	.st241{fill:#E8E8F7;stroke:#E8E8F7;stroke-width:5.62;stroke-miterlimit:10;}
	.st242{fill:#FEC5C4;stroke:#EF8D8B;stroke-width:2;stroke-linecap:round;stroke-linejoin:round;stroke-miterlimit:10;}
	.st243{fill:none;stroke:#EF8D8B;stroke-width:2;stroke-linecap:round;stroke-linejoin:round;stroke-miterlimit:10;}
	.st244{fill:#E8E8F7;stroke:#FFFFFF;stroke-width:5.62;stroke-miterlimit:10;}
	.st245{opacity:0.4;fill:none;stroke:#000000;stroke-width:2;stroke-linecap:round;stroke-linejoin:round;stroke-miterlimit:10;}
	.st246{fill:none;stroke:#E8E8F7;stroke-width:5.1321;stroke-miterlimit:10;}
	.st247{fill:none;stroke:#EF8D8B;stroke-width:2;stroke-linecap:round;stroke-miterlimit:10;}
	.st248{fill:#FFFFFF;stroke:#E8E8F7;stroke-width:5;stroke-miterlimit:10;}
	.st249{fill:#E8E8F7;stroke:#E8E8F7;stroke-width:5;stroke-miterlimit:10;}
	.st250{fill:#FFFFFF;stroke:#E8E8F7;stroke-width:5;stroke-miterlimit:10;stroke-dasharray:20,20;}
	.st251{fill:#F2F2F6;}
	.st252{opacity:0.4;fill:#FFFFFF;stroke:#000000;stroke-width:2.1161;stroke-linecap:round;stroke-miterlimit:10;}
	
		.st253{opacity:0.4;fill:none;stroke:#000000;stroke-width:2.1161;stroke-linecap:round;stroke-linejoin:round;stroke-miterlimit:10;stroke-dasharray:140.7185,204.2005;}
	.st254{opacity:0.4;fill:none;stroke:#000000;stroke-width:2.1161;stroke-linecap:round;stroke-miterlimit:10;}
	.st255{fill:#282828;}
	.st256{fill:#FEC5C4;stroke:#EF8D8B;stroke-width:1.058;stroke-linecap:round;stroke-miterlimit:10;}
	.st257{fill:none;stroke:#FFFFFF;stroke-width:8;stroke-linecap:round;stroke-linejoin:round;stroke-miterlimit:10;}
	
		.st258{fill:none;stroke:#E8E8F7;stroke-width:5;stroke-linecap:round;stroke-linejoin:round;stroke-miterlimit:10;stroke-dasharray:20,20;}
	.st259{fill:none;stroke:#E8E8F7;stroke-width:4.7431;stroke-linecap:round;stroke-linejoin:round;stroke-miterlimit:10;}
	
		.st260{opacity:0.4;fill:none;stroke:#000000;stroke-width:1.7088;stroke-linecap:round;stroke-linejoin:round;stroke-miterlimit:10;}
	.st261{fill-rule:evenodd;clip-rule:evenodd;fill:#F7931A;}
	.st262{fill:none;stroke:#EF8D8B;stroke-width:1.9557;stroke-linecap:round;stroke-linejoin:round;stroke-miterlimit:10;}
</style>
<g>
	<g>
		<path class="st0" d="M1446.5,259.7c0,0,1.2,45.2-9,98.6c-2.9,15.3-16.3,26.3-31.9,26.1c-66.3-0.7-195.3,25.7-259.3,4.7
			c-2.9-0.9-38.3-20.4-52-38c-7-9,4.2-12.4,4.2-12.4s-11.2-16.6,6-18c0,0-11.2-18.6,7-15c14.4,2.8,19.8,5.4,32.9,7.4
			c0.9,0.1,1.6-0.7,0.9-1.4c-5.9-5.9-16.4-14.9-8.8-21c7.5-6,24.8,16.4,38.7,22.6c4.1,1.8,126.1,4.4,130.5,4.5l64.9,1.5
			c4.2,0,7.4-3.8,6.7-8l8.2-32.5L1446.5,259.7z"/>
		<path class="st1" d="M1105,320.2c4,1.7,8.5,3.4,13.3,4.9c5.6,1.8,10.8,3.1,15.7,4.1"/>
		<path class="st1" d="M1099,338.2c4,1.7,8.5,3.4,13.3,4.9c5.6,1.8,10.8,3.1,15.7,4.1"/>
	</g>
	<path class="st1" d="M1145.3,313.1c0,0-8,25,24,34"/>
</g>
<polygon class="st2" points="1328.3,320.1 1295.8,392.6 1334.3,388.1 1340.3,320.1 "/>
<g>
	<path class="st3" d="M1102.8,978.1c-6.3,0-11.6-4.9-12.1-11.1l250.6,0c-0.5,6.2-5.7,11.1-12.1,11.1H1102.8z"/>
	<path d="M1340.1,968c-0.9,5.2-5.5,9.1-10.9,9.1h-226.4c-5.4,0-10-3.9-10.9-9.1H1340.1 M1342.3,966h-252.6c0,7.2,5.9,13.1,13.1,13.1
		h226.4C1336.4,979.1,1342.3,973.2,1342.3,966L1342.3,966z"/>
</g>
<g>
	<path class="st3" d="M1450.3,1017.1c-8.3,0-15-6.7-15-15v-2.1l136.8-10l90.4-78.5l2.9,4.4c3.9,5.9,3.2,13.6-1.7,18.7l-67,70.1
		c-7.5,7.9-18.1,12.4-28.9,12.4H1450.3z"/>
	<path d="M1662.3,913.1l2.3,3.4c3.6,5.5,3,12.7-1.6,17.4l-67,70.1c-7.3,7.7-17.6,12.1-28.2,12.1h-117.5c-7.7,0-14-6.3-14-14v-1.1
		l135.5-9.9l0.7,0l0.5-0.4L1662.3,913.1 M1662.7,910.1l-91,79l-137.4,10v3c0,8.8,7.2,16,16,16h117.5c11.2,0,21.9-4.6,29.7-12.7
		l67-70.1c5.2-5.4,5.9-13.7,1.8-19.9L1662.7,910.1L1662.7,910.1z"/>
</g>
<g>
	<path class="st3" d="M1435,1001.1c-14.9-34.7,18.7-67.9,19-68.3l0.1-0.1l0.1-0.1c31.8-46.2,179.5-47.5,186-47.6
		c2.4,1,27.5,12.6,20.3,31.6c-5.4,14.2-42.2,49.1-63.7,68.6c-11.2,10.2-25.7,15.8-40.9,15.8H1435z"/>
	<path d="M1639.9,886.1c1.5,0.7,7.5,3.5,12.6,8.2c7.6,6.8,9.9,14.3,6.9,22.1c-4,10.4-26.5,34.6-63.4,68.2
		c-11,10-25.3,15.5-40.2,15.5h-120.2c-5.8-14-4.5-29.3,3.9-45.5c6.5-12.6,15.1-21,15.2-21.1l0.1-0.1l0.1-0.2
		c13.2-19.1,49.3-33.4,104.5-41.1C1599.1,886.5,1635.6,886.1,1639.9,886.1 M1640.3,884.1c0,0-154,0-187,48c0,0-35,34-19,70h121.5
		c15.4,0,30.2-5.7,41.6-16.1c22.4-20.4,58.5-54.6,64-68.9C1669.3,896.1,1640.3,884.1,1640.3,884.1L1640.3,884.1z"/>
</g>
<g>
	<path class="st3" d="M1090.9,967c12.7-53.7,61.3-73.1,77.3-79.5c3.5-1.4,5.1-2,5.8-2.6l156,0.2l6,81.9H1090.9z"/>
	<path d="M1174.3,885.8l154.8,0.2l5.9,79.9h-242.8c5.5-22,17.6-40.6,36.1-55.3c15.7-12.5,31.7-18.8,40.3-22.3
		C1171.7,887.1,1173.4,886.5,1174.3,885.8 M1173.5,883.8c-0.8,2.9-69,17.7-83.9,84.2h247.5l-6.2-83.9L1173.5,883.8L1173.5,883.8z"/>
</g>
<path class="st0" d="M1385.3,126.1c0,0-15,8-13,37s5.1,36.6,6,37c7,3,22-2,22-2l-3,31c0,0,44.2,18.6,54-1c2-4-22-47-17-62
	s1.6-27.5-6-37C1424.3,124.1,1405.3,114.1,1385.3,126.1z"/>
<g>
	<path class="st4" d="M1483,485.1l-167.3,1l22.4-203.2c6.3-33.8,20.8-61.8,53.7-61.8l44.3-5.3c8.5-1,20.4-2.8,28.3,0.5
		c28,11.8,31,31.7,27.3,57.6L1483,485.1z"/>
</g>
<line class="st5" x1="1400.3" y1="198.1" x2="1416.3" y2="194.1"/>
<path class="st6" d="M1316.3,485.1l-71.1,109.1c-22.2,28.2-37.3,61.3-43.9,96.6l-35,194.3c0,0,71-8,114,43
	c37,43.9,52.7,44.8,59,40.5c2.6-1.7,4-4.8,4-7.9c0-25.3-0.3-248.1,1-254.7c5-25,47-101,47-101l-5.8,92c-0.8,17.9,4.5,36.9,8.1,54.5
	l49.7,191.5c0,0,29-41,115-8s92-42,92-42s-109-199-108-204c6.4-32-7-170-60.6-205.4L1316.3,485.1z"/>
<path class="st1" d="M1391.3,605.1l-4.5-38.4c-0.9-7.8-5.9-14.6-13.1-17.7l-18.3-7.9"/>
<g>
	<path class="st5" d="M1272.7,309.2l-19.4-80.4c44.9-17,67.5-67.2,50.5-112.1s-67.2-67.5-112.1-50.5c-44.9,17-67.5,67.2-50.5,112.1
		c14.1,37.2,51.6,60.1,91.1,55.6l19.4,80.4c1.5,5.8,7.4,9.3,13.2,7.8C1270.5,320.6,1273.9,314.9,1272.7,309.2z M1167.1,114.1
		c18.7-30.6,58.7-40.3,89.4-21.6c30.6,18.7,40.3,58.7,21.6,89.4c-18.7,30.6-58.7,40.3-89.4,21.6
		C1158.1,184.7,1148.4,144.7,1167.1,114.1z"/>
</g>
<line class="st1" x1="1530.8" y1="732.6" x2="1541.8" y2="688.6"/>
<line class="st1" x1="1391.3" y1="156.1" x2="1391.3" y2="159.1"/>
<line class="st1" x1="1376.3" y1="157.1" x2="1376.3" y2="160.1"/>
<path class="st1" d="M1383.3,157.1l-4.7,12.4c-0.6,1.7,0.6,3.6,2.5,3.6h2.2"/>
<path d="M1374.9,140.3l22.4-0.1c4.8,0,9,3.1,10.3,7.6l2.2,7.3c0.3,1,1.7,0.9,1.8-0.2c0.5-4.5,2-10.1,5.7-8.8c6,2,7,6,7,6
	s0.8,7.2-2.6,10.1c-0.7,0.6-0.8,1.8-0.3,2.6l12.3,11.3c0,0,3.6-8,6.6-22c3.4-15.6,2.9-24.1-11-35c-14-11-42-11-42-11s-6-12-18-9
	s-14,12-14,12S1348.5,137.5,1374.9,140.3z"/>
<path class="st5" d="M1385.3,179.1l15-8c0,0,6,9,0,13C1390.8,190.4,1385.3,179.1,1385.3,179.1z"/>
<path class="st5" d="M1095.5,242.1h-706c-22.9,0-41.5-18.6-41.5-41.5v0c0-22.9,18.6-41.5,41.5-41.5h706c22.9,0,41.5,18.6,41.5,41.5
	v0C1137,223.5,1118.5,242.1,1095.5,242.1z"/>
<path class="st5" d="M670,361.1H472c-22.9,0-41.5-18.6-41.5-41.5v0c0-22.9,18.6-41.5,41.5-41.5h198c22.9,0,41.5,18.6,41.5,41.5v0
	C711.5,342.5,693,361.1,670,361.1z"/>
<path class="st6" d="M1013,361.1H815c-22.9,0-41.5-18.6-41.5-41.5v0c0-22.9,18.6-41.5,41.5-41.5h198c22.9,0,41.5,18.6,41.5,41.5v0
	C1054.5,342.5,1036,361.1,1013,361.1z"/>
<path class="st2" d="M1328.6,362.5l2.7-19.3c17-7.8,36.8-3.8,57.1-19.2c40.5-30.6,57.5-62.4,72-87c2.2,5.1,26,12.2,26,18
	c0,49-21,93-35,135c-10,30.1-24,43-39,43c-11.1,0-26-9-61-45L1328.6,362.5z"/>
<path class="st0" d="M1456,360.5l-10.9,26.2c-5.8,16.4-19.8,53.4-53.8,29.4l-104.2-103.8l28.3-46.5l67.7,49.1l23.2-47.8l70.8,33.3
	L1456,360.5z"/>
<path class="st0" d="M1320.6,268.8c0,0-22-22.2-56.4-23.3c-25.8-0.9-42.6,1.5-48,3.7c-3,1.3-4.3,5.8-5.4,8.8
	c-0.9,2.5,2.8,9.5,7.3,10.3c0,0-11.5,10.7,0.2,19.9c0,0-13.8,9.7,2.3,18.7c16,8.9,69.3,11.5,69.3,11.5L1320.6,268.8z"/>
<path class="st0" d="M1300.1,264.2c0,0-21.2-29.1-33.5-31.2c-12.3-2.2-6.7,9.3-6.7,9.3l21.2,26.9L1300.1,264.2z"/>
<line class="st1" x1="1218.3" y1="288.2" x2="1243.6" y2="286.6"/>
<line class="st1" x1="1217" y1="268.3" x2="1242.4" y2="266.7"/>
<path class="st7" d="M1454.8,221.1c-13.1-2.3-38.5-7-47.8,36.2c-3.9,18.4-20.3,42.6-20.3,42.6l78.8,37.2
	C1465.5,337.1,1520.1,232.8,1454.8,221.1z"/>
<path class="st1" d="M1329.5,353.9l-36.3-36c-0.9-0.9-2.2-1.4-3.5-1.3c-4.8,0.3-17.8,0.8-34.4-2.5"/>
<line class="st1" x1="1383.3" y1="315.1" x2="1419.3" y2="338.1"/>
<path class="st5" d="M1419.3,152.1c0,0-3,3-3,8"/>
</svg>
