<svg id="Layer_1" data-name="Layer 1" xmlns="http://www.w3.org/2000/svg" xmlns:xlink="http://www.w3.org/1999/xlink" viewBox="0 0 1920 1080">
  <defs>
    <clipPath id="clip-path">
      <rect x="442" y="102.04" width="604" height="388.23" rx="19.75" fill="none"/>
    </clipPath>
  </defs>
  <title>Traced Tshirt</title>
  <path d="M1153,699.61a19.74,19.74,0,0,0-18,18l-7.85,95A19.72,19.72,0,0,0,1146.77,834h0a19.74,19.74,0,0,0,19.44-16.32L1176.34,760l46-2.86-2-63.14" fill="#8aaff6"/>
  <path d="M1136.21,428.81C1135,430,1116,408,1136,400" fill="#fff" stroke="#2c234a" stroke-linecap="round" stroke-linejoin="round" stroke-width="2"/>
  <path d="M1180.53,434.8l-29,1.43a5.48,5.48,0,0,1-5.42-4.78l-9.89-66.14a5.5,5.5,0,0,1,3.79-6.15l30.1-3.1a4.94,4.94,0,0,1,6.19,4.16l8.88,68.79A4.94,4.94,0,0,1,1180.53,434.8Z" fill="#2c234a"/>
  <g>
    <path d="M1164.91,376c.31,2.57,1.93,13.54,2.23,16.1,1.86,15.9,7.33,14,12.86,28.9a57.62,57.62,0,0,1,3.12,33.29L1202,513l21-45,45,16-45.22,91.64c-7.2,12.33-22.46,17.87-35.59,12.28-6.9-2.95-14.44-22.51-16.1-30.29l-16-68.2a239.88,239.88,0,0,0-13.48-41.27c-8.39-19.19-11.67-41.06-7.13-61.52,0,0,2.56-12.64,6.56-9.64,0,0,3-12,13-9C1154,368,1162.81,359,1164.91,376Z" fill="#fff" stroke="#2c234a" stroke-linecap="round" stroke-linejoin="round" stroke-width="2"/>
    <path d="M1144.53,419.15c-4.5-14.59-4.82-30.64-2.85-45.78" fill="#fff" stroke="#2c234a" stroke-linecap="round" stroke-linejoin="round" stroke-width="2"/>
    <path d="M1157.76,420.91c-4.5-14.59-5.82-37.14-3.85-52.28" fill="#fff" stroke="#2c234a" stroke-linecap="round" stroke-linejoin="round" stroke-width="2"/>
  </g>
  <path d="M1356.78,410.29c-3.32,17.3-18.88,31.51-36.42,33.24s-34.87-7.4-41.52-23.72a19.36,19.36,0,0,0,19.11-7.29c4.27-5.8,5.83-12.79,2.33-19.08C1284.9,392.72,1273,378,1269.64,363s-1.7-30.64,1.51-45.69c3.34-15.66,25.54-27.44,41-23.2,0,0,37.14,1.86,37.14,45.34a54.16,54.16,0,0,1-2.45,15.27,62,62,0,0,0-2.2,30.11c1.62,8.6,5,17.93,11.65,24.62" fill="#fff"/>
  <path d="M1356.78,410.29c-3.32,17.3-18.88,31.51-36.42,33.24s-34.87-7.4-41.52-23.72a19.36,19.36,0,0,0,19.11-7.29c4.27-5.8,5.83-12.79,2.33-19.08C1284.9,392.72,1273,378,1269.64,363a92.13,92.13,0,0,1-1.36-27.76" fill="none" stroke="#2c234a" stroke-linecap="round" stroke-linejoin="round" stroke-width="2"/>
  <path d="M1271.15,317.3c3.34-15.66,25.54-27.44,41-23.2,0,0,37.14,1.86,37.14,45.34a64.72,64.72,0,0,1-2.61,15.57,60.94,60.94,0,0,0,.86,37.26,72.23,72.23,0,0,0,8.75,17.17" fill="none" stroke="#2c234a" stroke-linecap="round" stroke-linejoin="round" stroke-width="2"/>
  <path d="M1268.94,326.94a226.46,226.46,0,0,1,41.66-.24,16.4,16.4,0,0,1,5.46,1.39c8.55,3.92,7.22,12.77,8.18,20.84.53,4.45,7.08,4.58,7.71.14a.34.34,0,0,0,0-.1c.6-4.65-1.83-9.28-.61-14a7,7,0,0,1,1-2.18c3.51-5.26,10.17-1.79,11.6,3,1.17,3.91-.16,8.12-1.77,11.88-1,2.36-2.15,4.83-1.85,7.37s2.77,5,5.22,4.26c6.55-12.82,8.28-35.3,3.66-49.57s-19.54-22-34.26-24.85c-10.47-2-21.31,1.19-31.91,0-11-1.2-21.71-7.11-32.73-3.06-10.31,3.79-16.29,14.49-14.93,25.4C1237.28,322.86,1254.4,328.38,1268.94,326.94Z" fill="#2c234a"/>
  <path d="M1300.28,392.44s7,0,17-6c0,0-1,14-15,17A18.55,18.55,0,0,0,1300.28,392.44Z" fill="#2c234a"/>
  <path d="M1291.26,340.21a8.57,8.57,0,0,1-1.06,6.34c-1,1.94-4.48,4.63-5.65,6.49-.86,1.37-1.59,3-1.13,4.56s2.16,2.61,3.79,3c2.75.72,7.77-.7,10.21-2.15" fill="none" stroke="#2c234a" stroke-linecap="round" stroke-linejoin="round" stroke-width="2"/>
  <path d="M1277.28,341.75c.87-2.39,2.66-3.9,4.44-3.76s3.46,1.94,4.16,4.45" fill="none" stroke="#2c234a" stroke-linecap="round" stroke-linejoin="round" stroke-width="2"/>
  <path d="M1299.28,341.75c.87-2.39,2.66-3.9,4.44-3.76s3.46,1.94,4.16,4.45" fill="none" stroke="#2c234a" stroke-linecap="round" stroke-linejoin="round" stroke-width="2"/>
  <path d="M1291.53,370.85a14.1,14.1,0,0,0,8.67-.11c2.73-1.07,5-3.68,5-6.62" fill="none" stroke="#9d8af6" stroke-linecap="round" stroke-linejoin="round" stroke-width="2"/>
  <path d="M1298,413s26.48,17.93,56.24-5.54c0,0,31.76-14.46,59.76,6.54,20,15,28,62,28,62l-50,20V620H1255V497l-41-11s7-22,31-63C1254.76,406.33,1279,404,1298,413Z" fill="#8aaff6"/>
  <line x1="1255" y1="446" x2="1255" y2="497" fill="none" stroke="#4417d7" stroke-linecap="round" stroke-linejoin="round" stroke-width="2"/>
  <line x1="1394" y1="497" x2="1382" y2="446" fill="none" stroke="#4417d7" stroke-linecap="round" stroke-linejoin="round" stroke-width="2"/>
  <path d="M1339,611.33a153.92,153.92,0,0,1-70.66-.86c-62.53-15.54-187.73-39.93-202.34,9.53-26,88,47,133,242,146,0,0,314.92,7.42,261-137C1547.78,572.16,1406.29,596.3,1339,611.33Z" fill="#2c234a"/>
  <line x1="1305.17" y1="670.28" x2="1466" y2="638" fill="none" stroke="#efcc4a" stroke-linecap="round" stroke-linejoin="round" stroke-width="2"/>
  <path d="M1418.5,695.94C1365.65,684,1162.58,638,1160,638" fill="none" stroke="#efcc4a" stroke-linecap="round" stroke-linejoin="round" stroke-width="2"/>
  <path d="M1486.35,701.61a19.74,19.74,0,0,1,18,18l7.85,95A19.73,19.73,0,0,1,1492.57,836h0a19.74,19.74,0,0,1-19.44-16.32L1463,762l-46-2.86,2-63.14" fill="#8aaff6"/>
  <line x1="1201" y1="510" x2="1212" y2="544" fill="#fff" stroke="#2c234a" stroke-linecap="round" stroke-linejoin="round" stroke-width="2"/>
  <g>
    <path d="M1441.79,477l14.29,79c-1.82,27.6-45,116.52-44.57,144.33.38,27.2-11.74,33-16.06,50.58-1.11,4.46-.23,9.2-.35,13.79a8.22,8.22,0,0,1-.6,3.49,2.77,2.77,0,0,1-2.88,1.62c-1.68-.39-2.24-5.72-2.25-7.45a33.9,33.9,0,0,0-.33-5.32c-1.28,1.5-2.94,8.38-3.17,10.33s-.54,4-1.87,5.49-4.06,1.74-5.1.07c-.73-1.17-.34-2.69.07-4,1.31-4.25,2.46-8.67,3.78-12.91l-16.27,8a4.4,4.4,0,0,1-2.86.67c-1.72-.39-2.3-2.76-1.52-4.34s2.4-2.54,3.93-3.41c6.82-3.91,13.7-8.21,18.19-14.65s6.3-15.56,1.93-22.08c-5,4.48-7.93,10.5-10.23,16.82-.74,2-1.37,4.2-2.9,5.72s-4.32,2-5.76.44-.83-3.79-.25-5.7c4.37-14.41,9.82-29.87,21.15-39.79,8-32.3,15-105.43,20.36-138.27l-14.3-63.76" fill="#fff" stroke="#2c234a" stroke-linecap="round" stroke-linejoin="round" stroke-width="2"/>
    <path d="M1382,756.19c7.2-3.39,14.75-10.85,18.39-17.93" fill="#fff" stroke="#2c234a" stroke-linecap="round" stroke-linejoin="round" stroke-width="2"/>
    <line x1="1391.43" y1="750.1" x2="1387.79" y2="760.13" fill="#fff" stroke="#2c234a" stroke-linecap="round" stroke-linejoin="round" stroke-width="2"/>
  </g>
  <path d="M1318.78,298c-6.18-2.45-11.17-8.16-12-14.76s3.18-13.69,9.49-15.78a16.17,16.17,0,0,1,13.24,1.91,27.72,27.72,0,0,1,9.24,10.05,43.66,43.66,0,0,1,4.32,32.64" fill="#2c234a"/>
  <path d="M1279.9,302.4c-4.93-2.68-9.72-5.88-13.12-10.35s-5.25-10.38-3.8-15.8c1.92-7.16,9.4-11.94,16.81-12.18s14.53,3.35,20,8.31,9.65,11.23,13.73,17.42" fill="#2c234a"/>
  <g clip-path="url(#clip-path)">
    <g>
      <g>
        <path d="M778,934.84l.13,39.48A14,14,0,0,0,788,985.11l94.6,34.62a17.45,17.45,0,0,1,12.4,13.9h0a17.44,17.44,0,0,1-17.62,20.29l-150.19-3.55a17.43,17.43,0,0,1-16.75-14.4l-3.67-100.25Z" fill="#8aaff6"/>
        <g opacity="0.2">
          <path d="M722.65,934.84l-3,80.55A30.29,30.29,0,0,0,743.85,1041l56.66,11.1h-70.7c-10.73,0-17.73-7.8-19.41-18.4l-3.62-98Z"/>
        </g>
      </g>
      <polygon points="618.28 463.25 601.31 939.43 672.44 937.29 714.72 504.09 618.28 463.25" fill="#2c234a"/>
      <polygon points="704.41 504.09 706.88 935.15 778.86 935.15 791.21 504.09 704.41 504.09" fill="#2c234a"/>
      <path d="M691.58,267.18c3.37,17.57,19.17,32,37,33.76s35.42-7.52,42.16-24.09a19.65,19.65,0,0,1-19.4-7.4c-4.34-5.89-5.92-13-2.37-19.38,15.62-.73,27.66-15.68,31.12-30.92s1.72-31.11-1.54-46.39c-3.39-15.9-25.94-27.86-41.62-23.56,0,0-37.71,1.89-37.71,46a55.2,55.2,0,0,0,2.48,15.51,62.87,62.87,0,0,1,2.24,30.57c-1.64,8.73-5,18.21-11.83,25" fill="#fff"/>
      <path d="M686.23,270.39c3.37,17.57,19.17,32,37,33.76s35.42-7.52,42.16-24.09a19.65,19.65,0,0,1-19.4-7.4c-4.34-5.89-5.92-13-2.37-19.38,15.62-.73,27.66-15.68,31.12-30.92" fill="none" stroke="#2c234a" stroke-linecap="round" stroke-linejoin="round" stroke-width="2"/>
      <path d="M773.17,176c-3.39-15.9-25.94-27.86-41.62-23.56,0,0-37.71,1.89-37.71,46a65.88,65.88,0,0,0,2.65,15.81,61.94,61.94,0,0,1-.87,37.83,73.57,73.57,0,0,1-8.89,17.44" fill="none" stroke="#2c234a" stroke-linecap="round" stroke-linejoin="round" stroke-width="2"/>
      <path d="M728.36,139.56c-2,3.05-26.4,6.09-34.42,28.72-5.09,14.35-2.94,37.31,3.72,50.33,2.48.77,5-1.74,5.3-4.32s-.86-5.09-1.88-7.49c-1.64-3.82-3-8.09-1.8-12.07,1.45-4.84,8.21-8.36,11.79-3a7.16,7.16,0,0,1,1,2.21c1.24,4.79-1.22,9.49-.62,14.21,0,0,0,.07,0,.1.63,4.51,7.29,4.38,7.83-.15,1-8.18-.38-17.17,8.3-21.16a16.68,16.68,0,0,1,5.55-1.4,228.14,228.14,0,0,1,42.3.25c14.76,1.45,32.14-4.15,34.11-20,0,0,4.13-23.14-21.26-23.14,0,0-10.15-18.28-29.44-7.11C758.83,135.5,741.14,120.39,728.36,139.56Z" fill="#2c234a"/>
      <path d="M743.59,252.27s-7.1,0-17.26-6.09c0,0,1,14.21,15.23,17.26A18.89,18.89,0,0,1,743.59,252.27Z" fill="#2c234a"/>
      <path d="M764.94,199.24a8.7,8.7,0,0,0,1.07,6.44c1.06,2,4.55,4.7,5.74,6.59.87,1.38,1.62,3,1.15,4.63s-2.19,2.64-3.86,3.08c-2.78.73-7.88-.71-10.36-2.18" fill="none" stroke="#2c234a" stroke-linecap="round" stroke-linejoin="round" stroke-width="2"/>
      <path d="M778.12,200.79c-.88-2.41-2.7-3.95-4.51-3.81s-3.51,2-4.22,4.52" fill="none" stroke="#2c234a" stroke-linecap="round" stroke-linejoin="round" stroke-width="2"/>
      <path d="M756.79,200.79c-.88-2.41-2.7-3.95-4.5-3.81s-3.52,2-4.23,4.52" fill="none" stroke="#2c234a" stroke-linecap="round" stroke-linejoin="round" stroke-width="2"/>
      <path d="M758.57,228.32a14.44,14.44,0,0,1-8.8-.11c-2.78-1.09-5.07-3.75-5-6.73" fill="none" stroke="#9d8af6" stroke-linecap="round" stroke-linejoin="round" stroke-width="2"/>
      <path d="M661.84,503.6l128.64.76s11.68,38.31,59.4,8.87c37.23-23,96.47-216.28,96.47-216.28l-45.7-12.19-69,127.94-8.79-97.09a49.81,49.81,0,0,0-36.23-38.71l-40.14-5.34s-29.3,23.46-60.51-1.66l-36.22,6.6c-.5.09-1,.2-1.51.31-23.27,5.11-41.13,31.88-39.76,55.66l-.92,53.39s-13.86,128.76,62.11,138.39,102.73,19.26,102.73,19.26l13.91-50.3L663.73,448.92" fill="#8aaff6"/>
      <line x1="785.91" y1="337.56" x2="789.98" y2="504.09" fill="none" stroke="#4417d7" stroke-linecap="round" stroke-linejoin="round" stroke-width="2"/>
      <polyline points="665.08 339.59 663.05 451.65 786.28 493.21" fill="none" stroke="#4417d7" stroke-linecap="round" stroke-linejoin="round" stroke-width="2"/>
      <path d="M831.61,412.7l-22.34,39.6s3-36.39,20.28-62.36Z" fill="#2c234a"/>
      <line x1="704.37" y1="621.84" x2="709.53" y2="543.08" fill="none" stroke="#efcc4a" stroke-linecap="round" stroke-linejoin="round" stroke-width="2"/>
      <g>
        <path d="M672.76,935.91l.13,39.48a14,14,0,0,0,9.88,10.79l94.6,34.62a17.44,17.44,0,0,1,12.39,13.9h0A17.43,17.43,0,0,1,772.15,1055L622,1051.44A17.45,17.45,0,0,1,605.2,1037l-3.66-100.25Z" fill="#8aaff6"/>
        <g opacity="0.2">
          <path d="M617.41,935.91l-3,80.55a30.31,30.31,0,0,0,24.2,25.61l56.65,11.1h-70.7c-10.73,0-17.73-7.8-19.41-18.4l-3.61-98Z"/>
        </g>
      </g>
      <path d="M709.1,996.15l73.53,24.6s18,6,8.46,24.84c0,0-4.27,8.34-15.59,8.34" fill="none" stroke="#4417d7" stroke-linecap="round" stroke-linejoin="round" stroke-width="2"/>
      <path d="M901.68,285.2c3.35-14.56,12.68-26.88,21.25-39.11s16.87-25.62,17.62-40.54c.07-1.44.45-3.31,1.88-3.46,1-.11,1.84.85,2.39,1.73a31,31,0,0,1-.79,33.23,47.88,47.88,0,0,1,27.84,3c2.91,1.28,5.9,3.08,7,6.06s-1,7.11-4.15,6.81c2.31,1.14,2.88,4.2,2.31,6.71a6,6,0,0,1-5.57,4.53c2.58,1.23,2.81,5.1,1.91,7.82a6.12,6.12,0,0,1-6.77,3.95c-3,9.48-12.4,17.92-21.57,21.79" fill="none" stroke="#2c234a" stroke-linecap="round" stroke-linejoin="round" stroke-width="2"/>
      <path d="M970.91,264.2c-8.93-3.63-21.21-5.3-30.64-3.28-1.78.38-3.91,1.3-4,3.12-.06,1.37,1.12,2.44,2.23,3.24,8.47,6.1,20,9,30.42,8.33" fill="#fff" stroke="#2c234a" stroke-linecap="round" stroke-linejoin="round" stroke-width="2"/>
      <path d="M973.5,252.61c-9.36-2.31-18.66-3.06-27.7.3-1.71.63-3.69,1.84-3.51,3.65.14,1.37,1.42,2.36,2.68,2.89,11.45,4.77,18.57,5.59,29,4.18" fill="#fff" stroke="#2c234a" stroke-linecap="round" stroke-linejoin="round" stroke-width="2"/>
      <path d="M974.52,241.72c-9.17-2.23-18.28-2.94-27.14.34-1.68.62-3.62,1.8-3.44,3.56.13,1.33,1.38,2.3,2.61,2.81,11.21,4.61,18.19,5.39,28.45,4" fill="#fff" stroke="#2c234a" stroke-linecap="round" stroke-linejoin="round" stroke-width="2"/>
      <path d="M786.11,493.25c27,4.45,48.17,12.66,66.93,32.61,1.73,1.6,8.57,8.71,8.43,10.69a4.36,4.36,0,0,1-3.85,3.89c-1.76.14-3.4-.8-4.9-1.71L833.5,527.16c2.59,2.83,3.9,5.91,3.22,9.68S831.37,543,828,544.7c1.28,2.47,1.14,10-.16,12.43s-5.13,5.64-8.74,5.61c-3.28,0-5.34.11-8.21-1.47s-5.9-5.76-6.1-9c0,0-20.6,4.11-33.44-8.73" fill="#fff" stroke="#2c234a" stroke-linecap="round" stroke-linejoin="round" stroke-width="2"/>
      <path d="M804,518.28c13.33-1.52,24,4.9,30.62,9.67" fill="none" stroke="#2c234a" stroke-linecap="round" stroke-linejoin="round" stroke-width="2"/>
      <path d="M802.91,534.33c13.33-.45,19.75,3.83,25.27,10.74" fill="none" stroke="#2c234a" stroke-linecap="round" stroke-linejoin="round" stroke-width="2"/>
      <path d="M805.54,552.07s7.49-1.07,8.56,2.14" fill="#fff" stroke="#2c234a" stroke-linecap="round" stroke-linejoin="round" stroke-width="2"/>
    </g>
  </g>
  <rect x="443" y="102.24" width="604" height="388.23" rx="19.75" stroke-width="4" stroke="#e3dfff" stroke-linecap="round" stroke-linejoin="round" fill="none"/>
  <path d="M764,595.06l18.23,12.84a3.52,3.52,0,0,0,5-3.23V562.19a3.52,3.52,0,0,0-5-3.22L764,571.8a3.53,3.53,0,0,0-1.49,2.88v17.5A3.53,3.53,0,0,0,764,595.06Z" fill="#e3dfff"/>
  <path d="M744.7,611.64H704.15a11.49,11.49,0,0,1-11.47-11.46v-33.5a11.5,11.5,0,0,1,11.47-11.46h40.66a11.39,11.39,0,0,1,11.35,11.35v33.61A11.48,11.48,0,0,1,744.7,611.64Z" fill="#e3dfff"/>
  <path d="M891.43,632A48.57,48.57,0,1,1,940,583.43,48.63,48.63,0,0,1,891.43,632Zm0-92.24a43.67,43.67,0,1,0,43.67,43.67A43.72,43.72,0,0,0,891.43,539.76Z" fill="#e3dfff"/>
  <path d="M862.44,594.41c2.95,0,8.67-1.42,11.26-2.28,3.38-1.13,3.65-1.23,4.1-4.31.29-2.05.29-3.62,2-4.71s6.32-2.45,11.57-2.48,10.08,1.29,11.76,2.36,1.66,2.65,2,4.7c.45,2.89.82,3.07,4.12,4.26a43,43,0,0,0,11.27,2.17c3.16,0,2.88-.3,3.47-1.76a21,21,0,0,0,1.11-3.67,10.09,10.09,0,0,0-.18-5.9c-.66-1.8-3.29-4.93-11.65-7.32a66.21,66.21,0,0,0-21.82-3,72.12,72.12,0,0,0-21.78,3.22c-9.34,2.67-11,5.62-11.63,7.43a10.15,10.15,0,0,0-.15,5.91,20.39,20.39,0,0,0,1.13,3.66C859.55,594.13,859.28,594.4,862.44,594.41Z" fill="#e3dfff"/>
  <rect x="569.46" y="624.84" width="37.99" height="4.9" fill="#e3dfff"/>
  <path d="M588.45,611.47a31.72,31.72,0,0,1-31.69-31.69v-7.31a2.45,2.45,0,1,1,4.9,0v7.31a26.79,26.79,0,0,0,53.58,0v-7.31a2.45,2.45,0,1,1,4.9,0v7.31A31.72,31.72,0,0,1,588.45,611.47Z" fill="#e3dfff"/>
  <rect x="586" y="609.02" width="4.9" height="18.27" fill="#e3dfff"/>
  <path d="M588.45,539.57a14.55,14.55,0,0,0-14.62,14.48v25.5a14.62,14.62,0,1,0,29.24,0V554.19A14.44,14.44,0,0,0,588.45,539.57Z" fill="#e3dfff"/>
</svg>
