<svg id="Layer_1" data-name="Layer 1" xmlns="http://www.w3.org/2000/svg" viewBox="0 0 1920 1080">
  <title>Traced Tshirt</title>
  <path d="M865,258l-53,29L785,168c-1.2-7.65-5.28-16.78-9.16-23.48s-16.12-20.65-22.74-16.62c-5.1,3.1-7.1,8.1-7.62,8-4.12-.56-4.85-2.5-8.56-4.37s-11-3.42-14.94-2.1-6.48,6.79-3.64,9.82c-2.92.08-6.85,3.42-7.52,6.27s.81,7,3.4,8.41c-3,.34-5.77,2.18-6.28,5.19a7.3,7.3,0,0,0,3.93,7.58c15.41,7.38,25.07,18.65,40.38,26.23-.74,0,3.52,20,2.78,20,6,49.08,8.55,67,16,112.18,2,12.42,4.54,19,16.27,23.55,7.8,3,21.52-2.69,29.43-5.42,19.65-6.78,46.28-20.64,65.88-27.57C876.14,288.61,871.48,285.05,865,258Z" fill="#fff" stroke="#2c234a" stroke-linecap="round" stroke-linejoin="round" stroke-width="2"/>
  <path d="M936.19,293.37l-59.58,26-16.56-60s61.89-44.22,93.6-17" fill="#8aaff6"/>
  <path d="M1122.68,561.24c-.39,15.81,4.69,31.7,10.94,46.23,1,2.39,2.34,4.94,4.75,5.92a5.24,5.24,0,0,0,7-6.35" fill="none" stroke="#2c234a" stroke-linecap="round" stroke-linejoin="round" stroke-width="2"/>
  <g>
    <path d="M803.19,881.1,791.3,919.93a14.4,14.4,0,0,1-12.93,7.69l-103.46,5.91a17.93,17.93,0,0,0-16.34,10h0a17.93,17.93,0,0,0,11.29,25.23L818.8,1010a18,18,0,0,0,20.79-9.19l33.47-97.62Z" fill="#8aaff6"/>
    <g opacity="0.2">
      <path d="M857.69,897.58l-21,80.21a31.19,31.19,0,0,1-31.45,18l-59.09-5.94,69.61,21c10.57,3.2,19.78-2.4,24.59-12.34l32.75-95.4Z"/>
    </g>
  </g>
  <g>
    <path d="M1041.41,895.25l15.89,37.38a14.38,14.38,0,0,1-5,14.2l-75.39,71.1a17.92,17.92,0,0,0-6.08,18.16h0a17.93,17.93,0,0,0,24.87,12l140.55-64.26a17.93,17.93,0,0,0,10-20.4L1109.1,867.2Z" fill="#8aaff6"/>
    <g opacity="0.2">
      <path d="M1093.74,872.81l35.49,74.94a31.17,31.17,0,0,1-12.49,34l-49.06,33.47,66.84-28.67c10.15-4.35,13.6-14.57,10.89-25.27l-36.31-94.1Z"/>
    </g>
  </g>
  <path d="M946.62,227.79c5.16-4.46,8.06-10.59,6.14-17.13-14.06-3.88-21.94-20-22-34.54s4.83-28.65,10.94-41.89c6.35-13.77,29.32-20,42.71-12.88,0,0,33.92,9.47,24.85,49.64a51.37,51.37,0,0,1-5.45,13.6A58.62,58.62,0,0,0,995.53,212c-.3,8.28.84,17.6,5.62,25.17,0,0-2.78,23.37-39.72,24.43S946.62,227.79,946.62,227.79Z" fill="#fff"/>
  <path d="M1001.44,238c-6.68,15.29-24,25.17-40.58,23.11l-14.24-33.33c5.16-4.46,8.06-10.59,6.14-17.13-14.06-3.88-21.94-20-22-34.54" fill="none" stroke="#2c234a" stroke-linecap="round" stroke-linejoin="round" stroke-width="2"/>
  <path d="M941.74,134.23c6.35-13.77,29.32-20,42.71-12.88,0,0,33.92,9.47,24.85,49.64a62,62,0,0,1-5.66,13.84,57.72,57.72,0,0,0-7,34.6,69,69,0,0,0,4.5,17.69s-3.58,22.37-39.56,24.72" fill="none" stroke="#2c234a" stroke-linecap="round" stroke-linejoin="round" stroke-width="2"/>
  <path d="M953,209.73s6.46,1.46,16.95-2c0,0-3.84,12.72-17.4,12.57A17.65,17.65,0,0,0,953,209.73Z" fill="#2c234a"/>
  <path d="M944.45,157.09a8.16,8.16,0,0,1-2.3,5.64c-1.37,1.57-5.11,3.34-6.58,4.82-1.08,1.08-2.1,2.45-2,4a4.8,4.8,0,0,0,2.87,3.59c2.38,1.24,7.32,1,9.87.15" fill="none" stroke="#2c234a" stroke-linecap="round" stroke-linejoin="round" stroke-width="2"/>
  <path d="M951,162.51c1.64-1.75,3.77-2.41,5.26-1.62s2.29,3,2,5.42" fill="none" stroke="#2c234a" stroke-linecap="round" stroke-linejoin="round" stroke-width="2"/>
  <path d="M931.05,158.11c1.27-2,3.23-3.09,4.85-2.61s2.83,2.47,3,4.93" fill="none" stroke="#2c234a" stroke-linecap="round" stroke-linejoin="round" stroke-width="2"/>
  <path d="M983.35,140.94c-.33-1.87-41.44,14.37-59.2-11S936,91,952.06,97.8c4.2,1.77,9,3.63,13.25,5.22a48,48,0,0,0,18.22,3c5.71-.17,14.33,1.07,23.5,7.83,16.07,11.84,14.38,33.83,4.23,56.67-11.68,26.28-10.29,19.57-10.29,19.57l-4.72-11.84a5.4,5.4,0,0,1,.48-5c3.46-5.36,11.08-18.36,4.38-19.7-5.14-1-8.1,3.89-9.62,7.9a4.21,4.21,0,0,1-6,2.22h0a4.19,4.19,0,0,1-2-4.63C984.22,155.85,984.93,149.86,983.35,140.94Z" fill="#2c234a"/>
  <path d="M1000.87,227s-31.73,23-55.8,0c0,0-33.92,7.66-40.49,42.67s-13.13,195.85-13.13,195.85l135.21,4.38s15.07-126.41,18-147.71C1051.2,274.07,1033.69,239.05,1000.87,227Z" fill="#8aaff6"/>
  <circle cx="959.5" cy="189.5" r="7.5" fill="#2c234a"/>
  <path d="M1033,332l52,69,39,133a121.75,121.75,0,0,0,18.6,70.9,17.34,17.34,0,0,0,4.84,5.6c2.08,1.36,5,1.77,7,.34s2.4-5,.31-6.33c1.65,1.74,3.42,3.55,6,3.73a3.6,3.6,0,0,0,3.37-1.62c1.21-2-.2-4.2-1.47-6a90,90,0,0,1-16.05-41.32,36.48,36.48,0,0,0,5.5,10.13,22,22,0,0,0,3.85,4,2.79,2.79,0,0,0,4.35-3.21,68.89,68.89,0,0,1-4.16-14.48c-1.09-6.36-1.28-12.85-2.49-19.19s-3.58-12.71-8.24-17.18c-2.9-17.45-5.61-37.59-8.5-55.05-4.26-25.68-8.56-51.49-16.83-76.18-12.57-37.53-34-69.37-55.17-102.79-.15,1.28-.3.56-.45,1.84" fill="#fff"/>
  <path d="M1042,344l38,53,37.44,126.73a34,34,0,0,1,1.45,9.49c.06,23.92,11.24,51.85,23.71,71.68a17.34,17.34,0,0,0,4.84,5.6c2.08,1.36,5,1.77,7,.34s2.4-5,.31-6.33c1.65,1.74,3.42,3.55,6,3.73a3.6,3.6,0,0,0,3.37-1.62c1.21-2-.2-4.2-1.47-6-8.68-12.14-12.25-26.49-14.05-41.32,1.7,4.33,1.73,8.39,4.5,12.13,1.1,1.49,4,5.23,5.85,5,5.06-.51,4.44-3.55,3.35-6.21a68.89,68.89,0,0,1-4.16-14.48c-1.09-6.36-1.28-12.85-2.49-19.19-.94-4.91-3.77-9.84-7.17-13.89a18.19,18.19,0,0,1-4-8.83c-2.56-16.08-5-33.87-7.6-49.51-4.26-25.68-8.56-51.49-16.83-76.18a461.76,461.76,0,0,0-49.17-103.79" fill="none" stroke="#2c234a" stroke-linecap="round" stroke-linejoin="round" stroke-width="2"/>
  <path d="M991,280l39,52,44-44s-32-69-73-61" fill="#8aaff6"/>
  <polyline points="987 274 1030 332 1045.19 317.61" fill="none" stroke="#4417d7" stroke-linecap="round" stroke-linejoin="round" stroke-width="2"/>
  <path d="M1155.47,605.36C1145,595,1135,573,1130.58,558.05" fill="none" stroke="#2c234a" stroke-linecap="round" stroke-linejoin="round" stroke-width="2"/>
  <path d="M1148.69,559.75a57.25,57.25,0,0,0-.71-38" fill="none" stroke="#2c234a" stroke-linecap="round" stroke-linejoin="round" stroke-width="2"/>
  <path d="M898.93,326c-.35-14.83,1.3-36.75,3.4-51.43S912,247,926,236" fill="none" stroke="#4417d7" stroke-linecap="round" stroke-linejoin="round" stroke-width="2"/>
  <path d="M946.36,467.32,853,690,794,900l74,26,52.21-184.81a292.32,292.32,0,0,1,29.18-68.45C979.47,621.49,1035.08,518.49,1027,470Z" fill="#2c234a"/>
  <path d="M891,465s0,159,58,246c0,0,96,200,100,200s66-30,66-30L1013,656,987,467.92Z" fill="#2c234a"/>
  <line x1="901.85" y1="575.11" x2="941.74" y2="479.34" fill="none" stroke="#efcc4a" stroke-linecap="round" stroke-linejoin="round" stroke-width="2"/>
  <line x1="937.85" y1="695.11" x2="1000.74" y2="573.34" fill="none" stroke="#efcc4a" stroke-linecap="round" stroke-linejoin="round" stroke-width="2"/>
  <g>
    <path d="M721.29,179.89c3.21,1.59,6,1,7.9-3.57a411.64,411.64,0,0,1,22.4-44.69c-3.66-1.9-7.28-3.76-11-5.49-7.94,14.39-16.41,30.24-22.2,45C716.55,175.73,718.07,178.3,721.29,179.89Z" fill="#e3dfff"/>
    <path d="M729.39,121.32c10.49,6,29.48,14.85,38.86,18,7.39,2.48,7,.58,9.62-2.88,4.65-6.25,7.7-15.2,11-21.91,1.85-3.7.93-6.3-3-8.32-12.31-6.4-26.57-12.93-39.5-19C740.72,98.6,734.61,109.72,729.39,121.32Z" fill="#e3dfff"/>
    <path d="M665,110.68c22.58-1,43.17,2,64,10.86,5.68-11.64,11.64-23.15,17.53-34.69-19.23-12-34.83-26.18-48.15-44.59Q681.71,76.49,665,110.68Z" fill="#8aaff6"/>
    <path d="M651.72,123.37c3.09,1.49,6.33,1.17,8.3-2.82,14.23-28.84,29-59.34,43.1-88.26,2-4,.13-6.75-2.94-8.23s-6.34-1.18-8.3,2.81c-14.2,28.88-29.11,59.31-43.09,88.29C646.87,119.15,648.63,121.88,651.72,123.37Z" fill="#e3dfff"/>
  </g>
  <path d="M708.27,161.54c1.73,10.46,13,14.93,22,19.66,2,1.06,4.44,1.94,6.49,1,2.21-1,3-3.91,2.47-6.28s-2.26-4.3-4-6c-4.21-4.2-9.24-3.87-14.37-10.4" fill="#fff" stroke="#2c234a" stroke-linecap="round" stroke-linejoin="round" stroke-width="2"/>
  <path d="M710.27,148.54c1.73,10.46,15,15.93,24,20.66,2,1.06,4.44,1.94,6.49,1,2.21-1,3-3.91,2.47-6.28s-2.26-4.3-4-6c-4.21-4.2-9.24-3.87-14.37-10.4" fill="#fff" stroke="#2c234a" stroke-linecap="round" stroke-linejoin="round" stroke-width="2"/>
  <path d="M717.27,136.54c1.73,10.46,14,16.93,23,21.66,2,1.06,4.44,1.94,6.49,1,2.21-1,3-3.91,2.47-6.28s-2.26-4.3-4-6c-4.21-4.2-9.24-3.87-14.37-10.4" fill="#fff" stroke="#2c234a" stroke-linecap="round" stroke-linejoin="round" stroke-width="2"/>
  <path d="M750,132s-18,17-11,19,15-5,15-5-9,16,3,28" fill="#fff" stroke="#2c234a" stroke-linecap="round" stroke-linejoin="round" stroke-width="2"/>
  <path d="M811,285l3,16s18.52-15,21.76-27Z" fill="#2c234a"/>
  <path d="M759.7,340.33A31.62,31.62,0,0,0,779,364.84" fill="none" stroke="#2c234a" stroke-linecap="round" stroke-linejoin="round" stroke-width="2"/>
  <path d="M751.22,350.48a17.69,17.69,0,0,0,13.27,18.08" fill="none" stroke="#2c234a" stroke-linecap="round" stroke-linejoin="round" stroke-width="2"/>
  <path d="M1137.51,357.26A64.67,64.67,0,0,1,1145.2,396" fill="none" stroke="#2c234a" stroke-linecap="round" stroke-linejoin="round" stroke-width="2"/>
  <path d="M1148.67,359.67a31.25,31.25,0,0,1,8.11,19.28" fill="none" stroke="#2c234a" stroke-linecap="round" stroke-linejoin="round" stroke-width="2"/>
</svg>
