<svg id="Layer_1" data-name="Layer 1" xmlns="http://www.w3.org/2000/svg" viewBox="0 0 1920 1080">
  <title>Traced Tshirt</title>
  <g>
    <path d="M907.55,905.71l-.1,30.93a11,11,0,0,1-7.74,8.45L825.6,972.21a13.67,13.67,0,0,0-9.71,10.89h0a13.66,13.66,0,0,0,13.8,15.9l117.65-2.79a13.66,13.66,0,0,0,13.13-11.28l2.87-78.54Z" fill="#8aaff6"/>
    <g opacity="0.2">
      <path d="M950.91,905.71l2.35,63.1a23.75,23.75,0,0,1-19,20.06l-44.38,8.7h55.39c8.4,0,13.88-6.11,15.2-14.42l2.83-76.76Z"/>
    </g>
  </g>
  <g>
    <path d="M1081.57,905.17l5.65,30.41a10.94,10.94,0,0,1-6,9.74l-67.78,40.41a13.66,13.66,0,0,0-7.52,12.5h0a13.66,13.66,0,0,0,16.51,13.06l115.09-24.58a13.67,13.67,0,0,0,10.81-13.51l-11.76-77.71Z" fill="#8aaff6"/>
    <g opacity="0.2">
      <path d="M1124.18,897.12l14,61.57a23.73,23.73,0,0,1-14.9,23.23l-42,16.79,54.42-10.28c8.26-1.56,12.51-8.59,12.26-17l-11.46-76Z"/>
    </g>
  </g>
  <path d="M1050.51,266.68c-3,15.55-17,28.31-32.72,29.87s-31.34-6.65-37.31-21.31a17.38,17.38,0,0,0,17.17-6.56c3.83-5.21,5.24-11.48,2.09-17.14-13.82-.65-24.47-13.88-27.54-27.37s-1.52-27.53,1.37-41c3-14.07,22.95-24.65,36.82-20.85,0,0,33.38,1.67,33.38,40.75a48.47,48.47,0,0,1-2.2,13.72,55.76,55.76,0,0,0-2,27.06c1.46,7.72,4.46,16.11,10.47,22.12" fill="#fff"/>
  <path d="M1050.51,266.68c-3,15.55-17,28.31-32.72,29.87s-31.34-6.65-37.31-21.31a17.38,17.38,0,0,0,17.17-6.56c3.83-5.21,5.24-11.48,2.09-17.14-13.82-.65-24.47-13.88-27.54-27.37A82.83,82.83,0,0,1,971,199.23" fill="none" stroke="#2c234a" stroke-linecap="round" stroke-linejoin="round" stroke-width="2"/>
  <path d="M973.57,183.12c3-14.07,22.95-24.65,36.82-20.85,0,0,33.38,1.67,33.38,40.75a58.64,58.64,0,0,1-2.34,14,54.69,54.69,0,0,0,.77,33.48,65.05,65.05,0,0,0,7.86,15.43" fill="none" stroke="#2c234a" stroke-linecap="round" stroke-linejoin="round" stroke-width="2"/>
  <path d="M971.58,191.79a202.6,202.6,0,0,1,37.43-.22,15.1,15.1,0,0,1,4.91,1.24c7.68,3.53,6.49,11.48,7.35,18.73.47,4,6.36,4.12,6.93.13v-.09c.54-4.18-1.65-8.34-.55-12.57a6.39,6.39,0,0,1,.87-2c3.16-4.73,9.14-1.61,10.42,2.67,1.06,3.53-.14,7.31-1.58,10.69-.91,2.12-1.94,4.33-1.67,6.62s2.49,4.51,4.69,3.82c5.89-11.52,7.44-31.72,3.29-44.54s-17.56-19.77-30.79-22.33c-9.4-1.82-19.14,1.07-28.67,0-9.9-1.08-19.51-6.39-29.41-2.75-9.27,3.4-14.63,13-13.42,22.82C943.13,188.12,958.51,193.08,971.58,191.79Z" fill="#2c234a"/>
  <path d="M999.74,250.64s6.29,0,15.28-5.39c0,0-.9,12.58-13.48,15.28A16.66,16.66,0,0,0,999.74,250.64Z" fill="#2c234a"/>
  <path d="M991.63,203.71a7.72,7.72,0,0,1-.94,5.7c-.94,1.74-4,4.16-5.08,5.83a5.17,5.17,0,0,0-1,4.1,4.6,4.6,0,0,0,3.41,2.73c2.46.64,7-.63,9.17-1.93" fill="none" stroke="#2c234a" stroke-linecap="round" stroke-linejoin="round" stroke-width="2"/>
  <path d="M979.07,205.09c.78-2.14,2.39-3.51,4-3.38s3.11,1.75,3.74,4" fill="none" stroke="#2c234a" stroke-linecap="round" stroke-linejoin="round" stroke-width="2"/>
  <path d="M998.84,205.09c.78-2.14,2.39-3.51,4-3.38s3.11,1.75,3.74,4" fill="none" stroke="#2c234a" stroke-linecap="round" stroke-linejoin="round" stroke-width="2"/>
  <path d="M991.88,231.24a12.78,12.78,0,0,0,7.79-.09c2.45-1,4.49-3.32,4.47-6" fill="none" stroke="#9d8af6" stroke-linecap="round" stroke-linejoin="round" stroke-width="2"/>
  <path d="M931.41,279.43c-25.1,2.19-47.32,1.42-72.46-.3-49.14-71-83.28-104.38-122.11-162.75a3.73,3.73,0,0,0-4.31-1.13,5.36,5.36,0,0,0-3.08,6.66c3.42,11.05,9.56,17.43,16.74,27.67-7.9,1.77-11.93,11.31-9.79,19.12a2.76,2.76,0,0,0-2-.76c-4.67-.36-4.25,4.09-3.3,8.67,2.89,13.91,12.3,25.12,26.83,30.76a24.52,24.52,0,0,1,12.38,10.91l51.42,91.41c4,7.18,8.4,14.69,15.55,18.79,6.6,3.78,14.57,4,22.18,4.22,21.41.49,44.64,1.89,66,2.38C928.88,318.07,931.85,296.76,931.41,279.43Z" fill="#fff" stroke="#2c234a" stroke-linecap="round" stroke-linejoin="round" stroke-width="2"/>
  <path d="M744.65,147.83c6.62,6.36,11.34,15.59,13.39,24.54a13.56,13.56,0,0,1,.35,5.9,5.71,5.71,0,0,1-3.64,4.38,7.45,7.45,0,0,1-4.48-.42c-6.43-2.19-11.88-8.93-14.72-15.09" fill="none" stroke="#2c234a" stroke-linecap="round" stroke-linejoin="round" stroke-width="2"/>
  <path d="M749.06,167.21c4.07.69,7.68,2.74,9.17,6.59" fill="none" stroke="#2c234a" stroke-linecap="round" stroke-linejoin="round" stroke-width="2"/>
  <path d="M956,459,895.53,624a301.19,301.19,0,0,0-9,77.09L907,906h56l6.12-204c-.74-29.85,6-51.65,14-80.42L1000,561l19,105,63,240,56-1-32-190.59a758.16,758.16,0,0,1-10.55-127.28c.11-49.58,1-105.56-15.44-128.13Z" fill="#2c234a"/>
  <line x1="990" y1="484" x2="1000.63" y2="567" fill="none" stroke="#efcc4a" stroke-linecap="round" stroke-linejoin="round" stroke-width="2"/>
  <path d="M982.8,268,918,278v59l43,2-5,121h125l-7-114,14,23,44-28s-17-88-67.17-76.27c-7.55,1.77-15.43.91-21.7,5.47-7.72,5.63-22.39,12.4-39.93,1.23A26.28,26.28,0,0,0,982.8,268Z" fill="#8aaff6"/>
  <path d="M960.67,339.75C961.9,316,962,288,989.2,272.55" fill="none" stroke="#4417d7" stroke-linecap="round" stroke-linejoin="round" stroke-width="2"/>
  <path d="M1062.7,324.6A92.74,92.74,0,0,0,1074.21,348" fill="none" stroke="#4417d7" stroke-linecap="round" stroke-linejoin="round" stroke-width="2"/>
  <g>
    <polyline points="435 279 539 196 579 245 721 128 667 121" fill="none" stroke="#4417d7" stroke-linecap="round" stroke-linejoin="round" stroke-width="4"/>
    <line x1="721" y1="128" x2="716" y2="188" fill="none" stroke="#4417d7" stroke-linecap="round" stroke-linejoin="round" stroke-width="4"/>
  </g>
  <path d="M1115,590h-68.89A13.11,13.11,0,0,0,1033,603.11V719.89A13.11,13.11,0,0,0,1046.11,733h117.78A13.11,13.11,0,0,0,1177,719.89V603.11A13.11,13.11,0,0,0,1163.89,590Z" fill="#e3dfff"/>
  <path d="M1104.59,598A42.16,42.16,0,0,0,1082,604.5l8,9a30.61,30.61,0,1,1-14.52,17.42l-11.41-3.16A42.42,42.42,0,1,0,1104.59,598Z" fill="#fff"/>
  <g>
    <path d="M1097.72,588.55C1105,570,1110,576,1112.65,567c3-33.12-1-106.49-.66-139.75l-23.72-60.88" fill="#fff" stroke="#2c234a" stroke-linecap="round" stroke-linejoin="round" stroke-width="2"/>
    <path d="M1132.48,340.72l26,76c2.35,27.56-26.94,122-22.37,149.39,4.47,26.84-6.64,34.43-8.28,52.42-.41,4.58,1.16,9.12,1.74,13.69a8.07,8.07,0,0,1-.08,3.53,2.77,2.77,0,0,1-2.6,2c-1.72-.13-3.07-5.32-3.34-7a33.78,33.78,0,0,0-1.13-5.22c-1,1.67-1.65,8.73-1.58,10.69s.07,4.08-1,5.71-3.75,2.33-5,.84c-.9-1-.75-2.61-.54-4,.66-4.4,1.13-8.94,1.79-13.33l-14.86,10.39a4.49,4.49,0,0,1-2.73,1.1c-1.76-.13-2.69-2.38-2.16-4.06s2-2.88,3.38-4c6.14-4.89,12.31-10.18,15.77-17.22s3.9-16.33-1.41-22.11" fill="#fff" stroke="#2c234a" stroke-linecap="round" stroke-linejoin="round" stroke-width="2"/>
    <path d="M1115.37,625.68c6.61-4.43,13-12.94,15.49-20.48" fill="#fff" stroke="#2c234a" stroke-linecap="round" stroke-linejoin="round" stroke-width="2"/>
    <line x1="1123.75" y1="618.25" x2="1121.65" y2="628.71" fill="#fff" stroke="#2c234a" stroke-linecap="round" stroke-linejoin="round" stroke-width="2"/>
  </g>
  <line x1="1055" y1="697" x2="1153" y2="697" fill="none" stroke="#fff" stroke-linecap="round" stroke-linejoin="round" stroke-width="6"/>
  <line x1="1055" y1="712" x2="1104.86" y2="712" fill="none" stroke="#fff" stroke-linecap="round" stroke-linejoin="round" stroke-width="6"/>
  <path d="M782.28,135.19a50.5,50.5,0,0,1,14.47,33l0-3.15" fill="none" stroke="#2c234a" stroke-linecap="round" stroke-linejoin="round" stroke-width="2"/>
  <path d="M791.12,132a39.33,39.33,0,0,1,10.19,17.08" fill="none" stroke="#2c234a" stroke-linecap="round" stroke-linejoin="round" stroke-width="2"/>
</svg>
