<svg id="Layer_1" data-name="Layer 1" xmlns="http://www.w3.org/2000/svg" viewBox="0 0 1920 1080">
  <title>Traced Tshirt</title>
  <rect x="475.91" y="60.07" width="267" height="276" rx="14.42" fill="#e3dfff"/>
  <path d="M1066.67,206.87s50.61,104.07,49.9,277.73l-19.82,2.69s11.08-144.34-42.86-280.56Z" fill="#e3dfff"/>
  <g>
    <path d="M906.67,844.87l-.1,30.93a11,11,0,0,1-7.73,8.45l-74.11,27.13A13.63,13.63,0,0,0,815,922.26h0a13.66,13.66,0,0,0,13.8,15.9l117.65-2.79A13.67,13.67,0,0,0,959.6,924.1l2.87-78.54Z" fill="#8aaff6"/>
    <g opacity="0.2">
      <path d="M950,844.87l2.34,63.1a23.76,23.76,0,0,1-19,20.07l-44.38,8.69h55.38c8.41,0,13.89-6.11,15.21-14.41l2.83-76.76Z"/>
    </g>
  </g>
  <g>
    <path d="M1080.7,844.33l5.64,30.41a11,11,0,0,1-6,9.75l-67.79,40.41a13.64,13.64,0,0,0-7.51,12.49h0a13.66,13.66,0,0,0,16.5,13.07l115.1-24.58a13.66,13.66,0,0,0,10.8-13.52l-11.75-77.71Z" fill="#8aaff6"/>
    <g opacity="0.2">
      <path d="M1123.31,836.28l14,61.57a23.75,23.75,0,0,1-14.9,23.24l-42,16.78,54.43-10.28c8.26-1.56,12.51-8.58,12.26-17l-11.46-76Z"/>
    </g>
  </g>
  <path d="M1049.64,205.84c-3,15.55-17,28.32-32.73,29.87s-31.34-6.64-37.31-21.31a17.38,17.38,0,0,0,17.17-6.55c3.84-5.21,5.24-11.49,2.1-17.15-13.82-.64-24.48-13.88-27.54-27.36s-1.52-27.53,1.36-41.06c3-14.07,23-24.65,36.83-20.85,0,0,33.38,1.68,33.38,40.75a48.83,48.83,0,0,1-2.2,13.72,55.65,55.65,0,0,0-2,27.06c1.45,7.72,4.45,16.11,10.47,22.12" fill="#fff"/>
  <path d="M1049.64,205.84c-3,15.55-17,28.32-32.73,29.87s-31.34-6.64-37.31-21.31a17.38,17.38,0,0,0,17.17-6.55c3.84-5.21,5.24-11.49,2.1-17.15-13.82-.64-24.48-13.88-27.54-27.36a82.87,82.87,0,0,1-1.21-24.94" fill="none" stroke="#2c234a" stroke-linecap="round" stroke-linejoin="round" stroke-width="2"/>
  <path d="M972.69,122.28c3-14.07,23-24.65,36.83-20.85,0,0,33.38,1.68,33.38,40.75a58.57,58.57,0,0,1-2.34,14,54.77,54.77,0,0,0,.76,33.48,65.1,65.1,0,0,0,7.87,15.43" fill="none" stroke="#2c234a" stroke-linecap="round" stroke-linejoin="round" stroke-width="2"/>
  <path d="M969,90l.23.2L969,90.1" fill="#2c234a"/>
  <path d="M998.87,189.81s6.29,0,15.27-5.4c0,0-.9,12.58-13.48,15.28A16.67,16.67,0,0,0,998.87,189.81Z" fill="#2c234a"/>
  <path d="M990.76,142.87a7.72,7.72,0,0,1-1,5.7c-.93,1.74-4,4.16-5.08,5.83a5.2,5.2,0,0,0-1,4.1,4.58,4.58,0,0,0,3.41,2.73c2.46.65,7-.63,9.17-1.93" fill="none" stroke="#2c234a" stroke-linecap="round" stroke-linejoin="round" stroke-width="2"/>
  <path d="M978.2,144.25c.78-2.14,2.39-3.5,4-3.37s3.11,1.74,3.73,4" fill="none" stroke="#2c234a" stroke-linecap="round" stroke-linejoin="round" stroke-width="2"/>
  <path d="M998,144.25c.78-2.14,2.39-3.5,4-3.37s3.11,1.74,3.73,4" fill="none" stroke="#2c234a" stroke-linecap="round" stroke-linejoin="round" stroke-width="2"/>
  <path d="M991,170.41a12.75,12.75,0,0,0,7.78-.1,6.77,6.77,0,0,0,4.48-5.95" fill="none" stroke="#9d8af6" stroke-linecap="round" stroke-linejoin="round" stroke-width="2"/>
  <path d="M955.13,398.16,894.66,563.21a301.14,301.14,0,0,0-9,77.09l20.52,204.86h56l6.12-204c-.75-29.85,6-51.65,14-80.42l16.9-60.61,19,105,63,240,56-1-32-190.58a759.31,759.31,0,0,1-10.56-127.28c.11-49.59,1-105.56-15.43-128.14Z" fill="#2c234a"/>
  <line x1="989.13" y1="423.16" x2="999.75" y2="506.16" fill="none" stroke="#efcc4a" stroke-linecap="round" stroke-linejoin="round" stroke-width="2"/>
  <path d="M981.92,207.17l-75.79,50,28,52,25-19-4,109h125l-7-114,14,23,44-28s-16.28-52.44-52.17-71.26c-20-10.47-30.43-4.1-36.7.46-7.73,5.63-22.4,12.4-39.93,1.23A26.3,26.3,0,0,0,981.92,207.17Z" fill="#8aaff6"/>
  <path d="M957.8,292.91C959,269.2,962,220,988.32,211.71" fill="none" stroke="#4417d7" stroke-linecap="round" stroke-linejoin="round" stroke-width="2"/>
  <path d="M1061.83,263.76a92.25,92.25,0,0,0,11.51,23.42" fill="none" stroke="#4417d7" stroke-linecap="round" stroke-linejoin="round" stroke-width="2"/>
  <path d="M1049.19,205.08S1013,315,1037,487h20s-30.34-141.55,4.83-283.77Z" fill="#e3dfff"/>
  <path d="M1006.25,487h188.44a24.18,24.18,0,0,1,23.78,19.79l18.62,71.62A24.19,24.19,0,0,1,1213.31,607l-230.24,2a24.19,24.19,0,0,1-23.78-28.59l13.62-73.62A24.18,24.18,0,0,1,996.69,487Z" fill="#e3dfff"/>
  <line x1="1154.81" y1="548.51" x2="1154.13" y2="559.16" fill="#fff" stroke="#2c234a" stroke-linecap="round" stroke-linejoin="round" stroke-width="2"/>
  <path d="M1022.6,488.14c6.12,1.7,9.12,8.44,11.19,14.45a475,475,0,0,1,21.69,91.73,12.88,12.88,0,0,1-11.36,14.53h0" fill="none" stroke="#4417d7" stroke-linecap="round" stroke-linejoin="round" stroke-width="2"/>
  <path d="M1163.75,506.12c7.17-.17,15.13-.05,20.36,4.85,4.23,3.95,5.55,10,6.65,15.73l5.67,29.22c1,5,1.86,10.63-.84,15-3.56,5.73-11.41,6.57-18.15,6.8l-81.28,2.78c-5.53.19-11.72.13-15.67-3.74-3.19-3.13-4-7.91-4.46-12.35-1.81-16.7-8.44-50.58,12.09-56.2C1110.35,502.12,1140.69,506.67,1163.75,506.12Z" fill="none" stroke="#4417d7" stroke-linecap="round" stroke-linejoin="round" stroke-width="2"/>
  <path d="M1125.67,269.41l33.46,77.75c6,27-7.18,121.42,1,148,8,26-2,35-1.23,53.05.2,4.6,2.36,8.9,3.54,13.34a8,8,0,0,1,.4,3.51,2.77,2.77,0,0,1-2.31,2.37c-1.72.1-3.75-4.86-4.24-6.52a33.94,33.94,0,0,0-1.82-5c-.8,1.8-.47,8.87-.14,10.81.38,2.24.7,4.67-.74,6.58a3.11,3.11,0,0,1-4,1c-1.39-.85-1.45-2.61-1.43-4.14.07-4.44-.07-9,0-13.45L1134.79,569c-.93.86-2,1.78-3.4,1.35a2.9,2.9,0,0,1-1.9-2.76c0-2.16,1.46-3.78,2.88-5.26,5.45-5.66,10.85-11.72,13.35-19.16s1.68-16.7-4.34-21.73c-3.56,5.7-4.67,12.3-5.11,19-.17,2.67-.12,5.5-2.11,7.59a3.64,3.64,0,0,1-3.88,1c-2.24-.84-2.45-3.48-2.42-5.68.12-12.5.07-32.77,4.66-46.57a53.42,53.42,0,0,0,2.34-22.32c-3.53-34.6-13.58-85.08-17.13-113.67L1084.59,302" fill="#fff" stroke="#2c234a" stroke-linecap="round" stroke-linejoin="round" stroke-width="2"/>
  <path d="M1147.5,557c6-5.27,11.11-14.55,12.62-22.36" fill="#fff" stroke="#2c234a" stroke-linecap="round" stroke-linejoin="round" stroke-width="2"/>
  <path d="M934,309l-17.27,12a47.28,47.28,0,0,1-69.18-17.61L786,179" fill="#fff" stroke="#2c234a" stroke-linecap="round" stroke-linejoin="round" stroke-width="2"/>
  <g>
    <path d="M784.28,129.67c-.67-2.95-1.92-6.16-4.68-7.41-9.3-4.22-15.27-7.11-24.34-11.8a7.8,7.8,0,0,1-2.81-2,2.69,2.69,0,0,1-.16-3.24c.92-1.09,2.63-.89,4-.56,6.24,1.5,12.32,3.56,18.39,5.61s12.36,4.21,17.42,8.21c4.55,3.6,11.88,7.5,14.87,12.47,7,11.57,6.51,24.94,11.9,37.32L881,271l25-13" fill="#fff" stroke="#2c234a" stroke-linecap="round" stroke-linejoin="round" stroke-width="2"/>
    <path d="M768.36,120.74c-.82-1.36-4.47-1.61-5.83-.78a5.14,5.14,0,0,0-2.19,4.05,14.65,14.65,0,0,0,.67,4.72,45.94,45.94,0,0,0,2.47,7.69,16.21,16.21,0,0,0,4.85,6.36,5,5,0,0,0,2.92,1.18,2.34,2.34,0,0,0,2.34-1.79" fill="#fff" stroke="#2c234a" stroke-linecap="round" stroke-linejoin="round" stroke-width="2"/>
    <path d="M785.45,178.1c-3.68-4.95-7.41-10-9.4-15.84-1.1-3.22-1.65-6.64-3.11-9.71-1.9-4-5.28-7.3-6.51-11.57" fill="#fff" stroke="#2c234a" stroke-linecap="round" stroke-linejoin="round" stroke-width="2"/>
    <path d="M778,121.47c-2.44-.78-6.88-2.39-8.24-1.56a5.1,5.1,0,0,0-2.18,4,14.92,14.92,0,0,0,.66,4.72,45.57,45.57,0,0,0,2.48,7.68,16.22,16.22,0,0,0,4.84,6.37,5.07,5.07,0,0,0,2.92,1.18,2.34,2.34,0,0,0,2.34-1.79" fill="#fff" stroke="#2c234a" stroke-linecap="round" stroke-linejoin="round" stroke-width="2"/>
    <path d="M805.19,147.8a16.41,16.41,0,0,0-8.06-8.51c-4.47-2.12-9.86-2.19-13.86-5.1-1.93-1.4-3.43-3.41-5.6-4.41-1.36-.62-3.3-.61-4,.72-.51,1,0,2.24.61,3.2,1.84,2.88,7.37,9,9.42,11.75,3.19,4.27,2.46,7.7,4.09,12.78s3.21,8.3,7.71,11.15" fill="#fff" stroke="#2c234a" stroke-linecap="round" stroke-linejoin="round" stroke-width="2"/>
  </g>
  <path d="M1040.36,132.29c-13.33,1.13-55.78.12-68-.2a3.29,3.29,0,0,1-3.19-3.59c.79-9.11,5.59-32.85,33.85-35.5,32-3,38,25.33,40.3,35.27A3.29,3.29,0,0,1,1040.36,132.29Z" fill="#2c234a"/>
  <path d="M1006,132.37S955.49,155.94,939.77,147s29.7-18,29.7-18Z" fill="#2c234a"/>
  <path d="M1014,132s0,19,3,20-1-15,6-14,2,15,2,15l13.65,11.36s12.35-26.36,1.68-38.29C1040.1,125.82,1014,132,1014,132Z" fill="#2c234a"/>
  <path d="M1166.92,332.58a29.13,29.13,0,0,1,6.79,29.58" fill="none" stroke="#2c234a" stroke-linecap="round" stroke-linejoin="round" stroke-width="2"/>
  <path d="M1175.78,327.13a37.24,37.24,0,0,1,8.83,37.53" fill="none" stroke="#2c234a" stroke-linecap="round" stroke-linejoin="round" stroke-width="2"/>
  <path d="M815.94,114.92a20.83,20.83,0,0,1,10.48,19" fill="none" stroke="#2c234a" stroke-linecap="round" stroke-linejoin="round" stroke-width="2"/>
  <path d="M821,109.43a26.6,26.6,0,0,1,13.43,24.07" fill="none" stroke="#2c234a" stroke-linecap="round" stroke-linejoin="round" stroke-width="2"/>
  <path d="M655,139c-1,.91-4.5,4-5.43,4.91l-19.43,17.93a.75.75,0,0,1-.76.17l-81.93-13.51a3.66,3.66,0,0,0-3,.69l-8.24,7.21,65.54,29.75a1,1,0,0,1,.49,1.26.87.87,0,0,1-.29.37l-36.79,33.18a3.3,3.3,0,0,1-2.86.82l-23.4-3.86a7.19,7.19,0,0,0-5.75,1.78l-5.77,5.06c-.4.34,0,.66.42.94L553,242.21a6.66,6.66,0,0,1,3.19,3.65l13,27.13c.35.76.65,1.06,1.35.45l5.49-4.81c2.49-2.18,2.55-2.8,2.42-5.52L577.76,239a3.32,3.32,0,0,1,1.2-2.72l37.69-31.53a1.1,1.1,0,0,1,1.55.14,1.13,1.13,0,0,1,.19.36L639.16,274l8.17-7.15a3.66,3.66,0,0,0,1.08-2.87L646,180.92c0-.28.37-.81.58-1l20-16.62c1.06-.82,4.55-3.82,5.59-4.73,13.56-11.87,18.88-23.11,13.53-29.21S668.59,127,655,139Z" fill="#fff"/>
</svg>
