<svg id="Layer_1" data-name="Layer 1" xmlns="http://www.w3.org/2000/svg" viewBox="0 0 1920 1080">
  <title>Traced Tshirt</title>
  <rect x="1059" y="248" width="603" height="67" rx="33.5" stroke-width="4" stroke="#e3dfff" stroke-linecap="round" stroke-linejoin="round" fill="none"/>
  <path d="M1184.09,210.14a12.08,12.08,0,0,1-9,3.07l-109.49-6.8a6.85,6.85,0,0,1-6.64-6.66v-35.5a6.85,6.85,0,0,1,6.64-6.66l113.5-7.05A6.47,6.47,0,0,1,1186,157a79.84,79.84,0,0,1,0,50.06C1186,207.29,1186,208.4,1184.09,210.14Z" fill="#2c234a"/>
  <ellipse cx="1177.5" cy="181.5" rx="9.43" ry="26.5" fill="#8aaff6"/>
  <g>
    <path d="M1053.11,210,994.25,320c-.4.89,9.36-17,8.87-17.89l-39-50.94-24.61,19.36-24.15,17.37L956.67,350c13.34,20.46,38.3,30.57,61.9,24.25a55.92,55.92,0,0,0,15.26-6.65c31.49-19.67,46.1-147,46.1-147s10.42-8.8,11.29-19a28.25,28.25,0,0,1,2.47-9.78c3-6.35,5.24-9,12.13-16.16,1.38-1.43,3.42-4.72,4.66-6.27s1.73-3.92.51-5.48c-1.67-2.15-5.06-1.41-7.55-.3-.44-2-3.18-3.86-5.25-4.08s-4.92.34-5.78,2.24c.51-1.22-1.67-1.64-3-1.74a5.94,5.94,0,0,0-3.62,1.37,77,77,0,0,0-32.18,48.15" fill="#fff" stroke="#2c234a" stroke-linecap="round" stroke-linejoin="round" stroke-width="2"/>
    <path d="M1071.57,188.66a91.61,91.61,0,0,1,23.16-28.6" fill="#fff" stroke="#2c234a" stroke-linecap="round" stroke-linejoin="round" stroke-width="2"/>
    <path d="M1081.12,191.13A82.38,82.38,0,0,1,1103,163.92" fill="#fff" stroke="#2c234a" stroke-linecap="round" stroke-linejoin="round" stroke-width="2"/>
  </g>
  <g>
    <path d="M1056.18,207.64c-1.59-6.61.15-13.51,1.88-20.07l4.62-17.59c.43-1.63,1.12-3.54,2.76-3.95a3.28,3.28,0,0,1,3.52,2.2,9.52,9.52,0,0,1,.27,4.48l-1.67,16.64c6.63-10.21,8.82-15.6,11.52-27.87.42-1.94,2-5.47,2.62-7.36s2.3-3.61,4.27-3.47c2.72.19,4,3.42,4.45,6.11,1.94-.76,5,.5,6.31,2.1s2.45,4.27,1.35,6c.73-1.1,2.3.49,3.11,1.52a6,6,0,0,1,.87,3.77,77,77,0,0,1-22.12,53.52" fill="#fff" stroke="#2c234a" stroke-linecap="round" stroke-linejoin="round" stroke-width="2"/>
    <path d="M1087.3,197.19A91.62,91.62,0,0,0,1098.2,162" fill="#fff" stroke="#2c234a" stroke-linecap="round" stroke-linejoin="round" stroke-width="2"/>
    <path d="M1079.94,190.63a82.39,82.39,0,0,0,10.47-33.28" fill="#fff" stroke="#2c234a" stroke-linecap="round" stroke-linejoin="round" stroke-width="2"/>
  </g>
  <g>
    <path d="M999.16,850.82l.12,35.58a12.6,12.6,0,0,0,8.9,9.72l85.24,31.2a15.7,15.7,0,0,1,11.16,12.52h0a15.7,15.7,0,0,1-15.87,18.28l-135.32-3.2a15.73,15.73,0,0,1-15.1-13L935,851.62Z" fill="#8aaff6"/>
    <g opacity="0.2">
      <path d="M949.29,850.82l-2.7,72.58a27.31,27.31,0,0,0,21.8,23.08l51.05,10h-63.7c-9.67,0-16-7-17.49-16.58L935,851.62Z"/>
    </g>
  </g>
  <path d="M932.85,434.75A2276.85,2276.85,0,0,1,942,738.3q-2.13,58.23-6.94,112.81h64.86a1426.41,1426.41,0,0,0,21.14-225.61,1426.65,1426.65,0,0,0-10-189.78Z" fill="#2c234a"/>
  <g>
    <path d="M892,841.71l-6.15,34.84a12.53,12.53,0,0,0,7,11.08l77.94,45.55a15.62,15.62,0,0,1,8.72,14.22h0a15.62,15.62,0,0,1-18.75,15.1l-131.89-27a15.61,15.61,0,0,1-12.49-15.35l12.67-89Z" fill="#8aaff6"/>
    <g opacity="0.2">
      <path d="M843.21,832.93l-15.43,70.56a27.17,27.17,0,0,0,17.28,26.43l48.2,18.78-62.35-11.22c-9.47-1.7-14.4-9.7-14.2-19.31l12.36-87Z"/>
    </g>
  </g>
  <path d="M961.12,435,940.39,621.5Q933.84,673.67,922.22,725L891.67,860,824,850.9,856.6,686.82a254.64,254.64,0,0,0,4.45-64.67c-3-51.67-5.43-153.61,20-188Z" fill="#2c234a"/>
  <path d="M943,606.22c4.82-27,6.75-50.14,13.5-108" fill="none" stroke="#efcc4a" stroke-linecap="round" stroke-linejoin="round" stroke-width="2"/>
  <path d="M912.7,900.39l61,34.09s14.88,8.37,3.33,23.41c0,0-5.17,6.67-15.2,4.77" fill="none" stroke="#4417d7" stroke-linecap="round" stroke-linejoin="round" stroke-width="2"/>
  <g>
    <path d="M915.24,212.22c3.1,16.15,17.63,29.41,34,31s32.55-6.9,38.76-22.14a18.08,18.08,0,0,1-17.84-6.81c-4-5.41-5.45-11.94-2.17-17.81,14.35-.67,25.42-14.42,28.6-28.43s1.59-28.6-1.41-42.65c-3.12-14.62-23.85-25.61-38.26-21.66,0,0-34.68,1.74-34.68,42.33a50.79,50.79,0,0,0,2.28,14.26,57.72,57.72,0,0,1,2.06,28.11c-1.51,8-4.63,16.73-10.87,23" fill="#fff"/>
    <path d="M915.24,212.22c3.1,16.15,17.63,29.41,34,31s32.55-6.9,38.76-22.14a18.08,18.08,0,0,1-17.84-6.81c-4-5.41-5.45-11.94-2.17-17.81,14.35-.67,25.42-14.42,28.6-28.43a86,86,0,0,0,1.26-25.91" fill="none" stroke="#2c234a" stroke-linecap="round" stroke-linejoin="round" stroke-width="2"/>
    <path d="M995.18,125.41c-3.12-14.62-23.85-25.61-38.26-21.66,0,0-34.68,1.74-34.68,42.33a60.71,60.71,0,0,0,2.43,14.53,56.94,56.94,0,0,1-.79,34.79,68.07,68.07,0,0,1-8.17,16" fill="none" stroke="#2c234a" stroke-linecap="round" stroke-linejoin="round" stroke-width="2"/>
    <path d="M997.24,134.41a210.51,210.51,0,0,0-38.89-.22,15.27,15.27,0,0,0-5.1,1.29c-8,3.66-6.74,11.93-7.63,19.45-.49,4.17-6.61,4.29-7.2.14V155c-.56-4.34,1.71-8.67.57-13.06a6.79,6.79,0,0,0-.9-2c-3.29-4.91-9.5-1.67-10.84,2.78-1.09,3.66.15,7.58,1.65,11.1.94,2.2,2,4.5,1.73,6.87s-2.59,4.69-4.87,4c-6.12-12-7.73-33-3.42-46.28s18.25-20.53,32-23.19c9.77-1.9,19.89,1.11,29.79,0,10.28-1.13,20.27-6.64,30.55-2.86,9.63,3.53,15.2,13.52,13.94,23.71C1026.79,130.6,1010.82,135.75,997.24,134.41Z" fill="#2c234a"/>
    <path d="M968,195.56s-6.54,0-15.88-5.6c0,0,.94,13.06,14,15.87A17.25,17.25,0,0,1,968,195.56Z" fill="#2c234a"/>
    <path d="M976.41,146.8a8,8,0,0,0,1,5.92c1,1.81,4.18,4.32,5.28,6.06.8,1.27,1.49,2.81,1.05,4.26a4.73,4.73,0,0,1-3.54,2.83c-2.56.67-7.25-.65-9.53-2" fill="none" stroke="#2c234a" stroke-linecap="round" stroke-linejoin="round" stroke-width="2"/>
    <path d="M989.46,148.23c-.81-2.22-2.49-3.64-4.15-3.5s-3.23,1.81-3.88,4.15" fill="none" stroke="#2c234a" stroke-linecap="round" stroke-linejoin="round" stroke-width="2"/>
    <path d="M968.92,148.23c-.81-2.22-2.49-3.64-4.15-3.5s-3.23,1.81-3.88,4.15" fill="none" stroke="#2c234a" stroke-linecap="round" stroke-linejoin="round" stroke-width="2"/>
    <path d="M976.15,175.4a13.22,13.22,0,0,1-8.09-.1c-2.55-1-4.66-3.44-4.65-6.18" fill="none" stroke="#9d8af6" stroke-linecap="round" stroke-linejoin="round" stroke-width="2"/>
  </g>
  <path d="M879.35,295.76l-1.92,140.77h132.08l1.93-139.8L1041,261.12s3.25,3.79-19.89-35.74c-9.4-16.07-32.78-18.32-51.1-9.64,0,0-25.53,17.28-54.22-5.34,0,0-22.76-5.4-35.94,11.23" fill="#8aaff6"/>
  <line x1="1011.44" y1="247.55" x2="1011.44" y2="296.73" fill="none" stroke="#4417d7" stroke-linecap="round" stroke-linejoin="round" stroke-width="2"/>
  <path d="M1154.09,210.14a12.08,12.08,0,0,1-9,3.07l-109.49-6.8a6.85,6.85,0,0,1-6.64-6.66v-35.5a6.85,6.85,0,0,1,6.64-6.66l113.5-7.05A6.47,6.47,0,0,1,1156,157a79.84,79.84,0,0,1,0,50.06C1156,207.29,1156,208.4,1154.09,210.14Z" fill="#2c234a"/>
  <g>
    <path d="M1017.11,209,958.25,319c-.4.89,9.36-17,8.87-17.89l-39-50.94-24.61,19.36-24.15,17.37L920.67,349c13.34,20.46,38.3,30.57,61.9,24.25a55.92,55.92,0,0,0,15.26-6.65c31.49-19.67,46.1-147,46.1-147s10.42-8.8,11.29-19a28.25,28.25,0,0,1,2.47-9.78c3-6.35,5.24-9,12.13-16.16,1.38-1.43,3.42-4.72,4.66-6.27s1.73-3.92.51-5.48c-1.67-2.15-5.06-1.41-7.55-.3-.44-2-3.18-3.86-5.25-4.08s-4.92.34-5.78,2.24c.51-1.22-1.67-1.64-3-1.74a5.94,5.94,0,0,0-3.62,1.37,77,77,0,0,0-32.18,48.15" fill="#fff" stroke="#2c234a" stroke-linecap="round" stroke-linejoin="round" stroke-width="2"/>
    <path d="M1035.57,187.66a91.61,91.61,0,0,1,23.16-28.6" fill="#fff" stroke="#2c234a" stroke-linecap="round" stroke-linejoin="round" stroke-width="2"/>
    <path d="M1045.12,190.13A82.38,82.38,0,0,1,1067,162.92" fill="#fff" stroke="#2c234a" stroke-linecap="round" stroke-linejoin="round" stroke-width="2"/>
  </g>
  <path d="M943,259.87l-59.65,42.38L861.6,264.11a35.34,35.34,0,0,1,11.59-45h0a35.33,35.33,0,0,1,50.64,11.52Z" fill="#8aaff6"/>
  <line x1="908.7" y1="218.69" x2="938.94" y2="262.23" fill="none" stroke="#4417d7" stroke-linecap="round" stroke-linejoin="round" stroke-width="2"/>
  <ellipse cx="1148.5" cy="181.5" rx="9.43" ry="26.5" fill="#8aaff6"/>
  <g>
    <path d="M1613.24,260A16.73,16.73,0,1,0,1630,276.72,16.73,16.73,0,0,0,1613.24,260Z" fill="none" stroke="#e3dfff" stroke-linecap="round" stroke-linejoin="round" stroke-width="4"/>
    <line x1="1625.24" y1="288.72" x2="1637.41" y2="300.88" fill="none" stroke="#e3dfff" stroke-linecap="round" stroke-linejoin="round" stroke-width="4"/>
  </g>
</svg>
