<svg id="Layer_1" data-name="Layer 1" xmlns="http://www.w3.org/2000/svg" viewBox="0 0 1920 1080">
  <title>Traced Tshirt</title>
  <g>
    <path d="M950.26,878.71l.12,36.89a13.11,13.11,0,0,0,9.23,10.09L1048,958a16.31,16.31,0,0,1,11.58,13h0a16.3,16.3,0,0,1-16.45,19l-140.36-3.33a16.29,16.29,0,0,1-15.66-13.45l-3.43-93.69Z" fill="#8aaff6"/>
    <g opacity="0.2">
      <path d="M898.54,878.71,895.74,954a28.33,28.33,0,0,0,22.61,23.94l52.94,10.37H905.22c-10,0-16.57-7.29-18.14-17.19l-3.38-91.57Z"/>
    </g>
  </g>
  <polygon points="790.83 414.16 785.14 880 852.61 880 892.13 414.16 790.83 414.16" fill="#2c234a"/>
  <polygon points="882.49 414.16 882.79 880 951.07 880 963.6 414.16 882.49 414.16" fill="#2c234a"/>
  <path d="M865.5,195.77c3.15,16.42,17.91,29.9,34.55,31.54s33.09-7,39.4-22.5a18.36,18.36,0,0,1-18.13-6.93c-4.06-5.5-5.54-12.13-2.21-18.1,14.59-.68,25.84-14.66,29.08-28.9s1.6-29.07-1.44-43.35c-3.17-14.86-24.24-26-38.89-22,0,0-35.25,1.77-35.25,43A51.41,51.41,0,0,0,874.93,143,58.74,58.74,0,0,1,877,171.6c-1.53,8.16-4.7,17-11,23.36" fill="#fff"/>
  <path d="M865.5,195.77c3.15,16.42,17.91,29.9,34.55,31.54s33.09-7,39.4-22.5a18.36,18.36,0,0,1-18.13-6.93c-4.06-5.5-5.54-12.13-2.21-18.1,14.59-.68,25.84-14.66,29.08-28.9" fill="none" stroke="#2c234a" stroke-linecap="round" stroke-linejoin="round" stroke-width="2"/>
  <path d="M946.75,107.53c-3.17-14.86-24.24-26-38.89-22,0,0-35.25,1.77-35.25,43a61.45,61.45,0,0,0,2.47,14.77,57.79,57.79,0,0,1-.81,35.36A68.93,68.93,0,0,1,866,195" fill="none" stroke="#2c234a" stroke-linecap="round" stroke-linejoin="round" stroke-width="2"/>
  <path d="M904.87,73.5c-1.89,2.85-24.67,5.7-32.17,26.84-4.75,13.41-2.74,34.87,3.48,47,2.32.73,4.67-1.62,5-4s-.8-4.76-1.76-7c-1.52-3.57-2.79-7.56-1.67-11.28,1.35-4.52,7.67-7.81,11-2.82a6.74,6.74,0,0,1,.91,2.07c1.16,4.47-1.14,8.86-.58,13.27v.1c.6,4.21,6.82,4.09,7.32-.14.91-7.65-.35-16,7.76-19.77a15.75,15.75,0,0,1,5.19-1.32,214.82,214.82,0,0,1,39.53.23c13.79,1.37,30-3.87,31.87-18.7,0,0,3.86-21.63-19.86-21.63,0,0-9.49-17.08-27.52-6.64C933.34,69.71,916.82,55.59,904.87,73.5Z" fill="#2c234a"/>
  <path d="M919.11,178.83s-6.64,0-16.13-5.69c0,0,.95,13.28,14.23,16.13A17.6,17.6,0,0,1,919.11,178.83Z" fill="#2c234a"/>
  <path d="M939.05,129.27a8.18,8.18,0,0,0,1,6c1,1.84,4.25,4.39,5.36,6.16.81,1.3,1.51,2.86,1.07,4.33s-2,2.47-3.6,2.88c-2.6.68-7.37-.67-9.68-2" fill="none" stroke="#2c234a" stroke-linecap="round" stroke-linejoin="round" stroke-width="2"/>
  <path d="M951.37,130.73c-.82-2.26-2.52-3.7-4.21-3.57s-3.29,1.85-3.95,4.23" fill="none" stroke="#2c234a" stroke-linecap="round" stroke-linejoin="round" stroke-width="2"/>
  <path d="M931.44,130.73c-.82-2.26-2.52-3.7-4.21-3.57s-3.28,1.85-4,4.23" fill="none" stroke="#2c234a" stroke-linecap="round" stroke-linejoin="round" stroke-width="2"/>
  <path d="M933.1,156.45a13.41,13.41,0,0,1-8.22-.1c-2.59-1-4.74-3.5-4.72-6.29" fill="none" stroke="#9d8af6" stroke-linecap="round" stroke-linejoin="round" stroke-width="2"/>
  <path d="M962.92,414.42l-120.22-.71v20.13a54.79,54.79,0,0,1-28.54,48.09L788.8,495.77,792,303.68l.86-49.9c-1.28-22.22,15.41-47.24,37.15-52l1.42-.29,33.85-6.16c29.17,23.47,56.55,1.55,56.55,1.55l37.51,5A46.53,46.53,0,0,1,993.14,238l8.22,90.73,64.52-119.56,42.7,11.38s-55.35,180.65-90.14,202.12C973.84,450.22,962.92,414.42,962.92,414.42Z" fill="#8aaff6"/>
  <line x1="958.66" y1="258.54" x2="962.45" y2="414.16" fill="none" stroke="#4417d7" stroke-linecap="round" stroke-linejoin="round" stroke-width="2"/>
  <line x1="845.74" y1="260.44" x2="843.84" y2="414.16" fill="none" stroke="#4417d7" stroke-linecap="round" stroke-linejoin="round" stroke-width="2"/>
  <path d="M1001.36,328.76l-20.88,37s2.79-34,18.95-58.28Z" fill="#2c234a"/>
  <path d="M1065.68,209c6.28-14.73,12.74-29.43,20.9-43.21,3.51-5.92,7.41-11.76,12.77-16.06,6-4.79,13.34-7.38,20.57-9.89s14.37-5,21.75-6.81c1.64-.4,3.66-.66,4.76.63a3.2,3.2,0,0,1-.16,3.84A9.21,9.21,0,0,1,1143,140c-10.7,5.65-17.76,9.12-28.74,14.21-3.26,1.51-4.71,5.32-5.49,8.82" fill="none" stroke="#2c234a" stroke-linecap="round" stroke-linejoin="round" stroke-width="2"/>
  <path d="M1084.11,184.65a19.4,19.4,0,0,1,9.47-10.15c5.28-2.55,11.67-2.68,16.38-6.17,2.27-1.68,4-4.08,6.6-5.28,1.6-.75,3.91-.75,4.72.82.62,1.2,0,2.66-.69,3.8-2.16,3.43-8.65,10.74-11.06,14-3.75,5.09-2.85,9.15-4.74,15.18s-3.72,9.87-9,13.29" fill="none" stroke="#2c234a" stroke-linecap="round" stroke-linejoin="round" stroke-width="2"/>
  <path d="M1116.13,153.21c2.89-1,8.13-2.9,9.75-1.93a6.07,6.07,0,0,1,2.63,4.78,17.52,17.52,0,0,1-.75,5.6,53.72,53.72,0,0,1-2.86,9.13,19.3,19.3,0,0,1-5.69,7.59,5.9,5.9,0,0,1-3.45,1.42,2.77,2.77,0,0,1-2.79-2.09" fill="none" stroke="#2c234a" stroke-linecap="round" stroke-linejoin="round" stroke-width="2"/>
  <path d="M1127.52,152.26c1-1.63,5.28-1.95,6.9-1a6.07,6.07,0,0,1,2.63,4.78,17.52,17.52,0,0,1-.75,5.6,53.72,53.72,0,0,1-2.86,9.13,19.3,19.3,0,0,1-5.69,7.59,5.9,5.9,0,0,1-3.45,1.42,2.77,2.77,0,0,1-2.79-2.09" fill="none" stroke="#2c234a" stroke-linecap="round" stroke-linejoin="round" stroke-width="2"/>
  <path d="M1107.77,220.39c4.31-5.9,8.69-11.92,11-18.86,1.27-3.82,1.89-7.87,3.59-11.53,2.22-4.77,6.21-8.7,7.63-13.77" fill="none" stroke="#2c234a" stroke-linecap="round" stroke-linejoin="round" stroke-width="2"/>
  <line x1="881.45" y1="549.21" x2="886.28" y2="475.6" fill="none" stroke="#efcc4a" stroke-linecap="round" stroke-linejoin="round" stroke-width="2"/>
  <path d="M863.77,195.91l8.54-13.28s6.13,6.13,17.83,8.58c4,.84,6.07,5.18,6.3,9.29l.54,9.65S871.36,208.25,863.77,195.91Z" fill="#8aaff6"/>
  <path d="M918,186.36l-4.86,3.07a12.34,12.34,0,0,0-5.75,10.44v4.73l15.86-6.79A15.56,15.56,0,0,1,918,186.36Z" fill="#8aaff6"/>
  <polygon points="902.67 216.79 885.59 366.71 906.47 387.59 923.55 364.82 907.42 215.84 902.67 216.79" fill="#2c234a"/>
  <path d="M864.6,194.67a140.94,140.94,0,0,0,32.28,15.81c-.33-1.57.28-4.09-.06-5.66" fill="none" stroke="#4417d7" stroke-linecap="round" stroke-linejoin="round" stroke-width="2"/>
  <path d="M910.44,207.94c5.68-1.84,9.66-5.9,12.58-11.11" fill="none" stroke="#4417d7" stroke-linecap="round" stroke-linejoin="round" stroke-width="2"/>
  <path d="M898.34,204l10-.19a2.63,2.63,0,0,1,2.57,3.38l-3.2,10.72a2.63,2.63,0,0,1-4.66.78l-7.58-10.58a2.63,2.63,0,0,1,2.49-4.13h0Z" fill="#2c234a"/>
  <g>
    <path d="M851.91,879.71,852,916.6a13.09,13.09,0,0,0,9.23,10.09L949.67,959a16.31,16.31,0,0,1,11.58,13h0a16.3,16.3,0,0,1-16.46,19l-140.35-3.33a16.29,16.29,0,0,1-15.66-13.45l-3.43-93.69Z" fill="#8aaff6"/>
    <g opacity="0.2">
      <path d="M800.18,879.71,797.39,955A28.32,28.32,0,0,0,820,978.92l52.94,10.37H806.87c-10,0-16.57-7.29-18.14-17.19l-3.38-91.57Z"/>
    </g>
  </g>
  <path d="M885.88,936l68.71,23s16.78,5.65,7.9,23.21c0,0-4,7.79-14.57,7.79" fill="none" stroke="#4417d7" stroke-linecap="round" stroke-linejoin="round" stroke-width="2"/>
  <path d="M1135.61,197.09a112.24,112.24,0,0,0,16-34.11" fill="none" stroke="#2c234a" stroke-linecap="round" stroke-linejoin="round" stroke-width="2"/>
  <path d="M1145.76,202.71a43.14,43.14,0,0,0,11.52-21.54" fill="none" stroke="#2c234a" stroke-linecap="round" stroke-linejoin="round" stroke-width="2"/>
</svg>
