<svg id="Layer_1" data-name="Layer 1" xmlns="http://www.w3.org/2000/svg" viewBox="0 0 1920 1080">
  <title>Traced Tshirt</title>
  <path d="M930,244.74h99.16A14.29,14.29,0,0,1,1043.45,259v192.7A14.29,14.29,0,0,1,1029.16,466H970.45l-32-66Z" fill="#e3dfff"/>
  <line x1="843.16" y1="234.42" x2="808.29" y2="281.37" fill="#fff" stroke="#2c234a" stroke-linecap="round" stroke-linejoin="round" stroke-width="2"/>
  <g>
    <path d="M919.56,184.16c4.66-4,7.28-9.57,5.55-15.48-12.7-3.5-19.82-18-19.84-31.2s4.36-25.89,9.88-37.85c5.74-12.44,26.5-18.08,38.59-11.64,0,0,30.65,8.56,22.45,44.85a46.59,46.59,0,0,1-4.92,12.29,53,53,0,0,0-7.52,24.72c-.27,7.48.76,15.9,5.08,22.74,0,0-2.52,21.12-35.89,22.07S919.56,184.16,919.56,184.16Z" fill="#fff"/>
    <path d="M969.09,193.39c-6,13.82-21.7,22.74-36.67,20.88l-12.86-30.11c4.66-4,7.28-9.57,5.55-15.48-12.7-3.5-19.82-18-19.84-31.2" fill="none" stroke="#2c234a" stroke-linecap="round" stroke-linejoin="round" stroke-width="2"/>
    <path d="M915.15,99.63c5.74-12.44,26.5-18.08,38.59-11.64,0,0,30.65,8.56,22.45,44.85a55.39,55.39,0,0,1-5.11,12.51,52.23,52.23,0,0,0-6.32,31.26,62,62,0,0,0,4.07,16s-3.24,20.21-35.75,22.33" fill="none" stroke="#2c234a" stroke-linecap="round" stroke-linejoin="round" stroke-width="2"/>
    <path d="M925.29,167.84s5.85,1.32,15.33-1.8c0,0-3.48,11.5-15.73,11.36A15.83,15.83,0,0,0,925.29,167.84Z" fill="#2c234a"/>
    <path d="M917.6,120.28a7.37,7.37,0,0,1-2.08,5.1c-1.23,1.42-4.61,3-5.94,4.35a4.91,4.91,0,0,0-1.8,3.59,4.33,4.33,0,0,0,2.59,3.25c2.15,1.12,6.61.88,8.92.14" fill="none" stroke="#2c234a" stroke-linecap="round" stroke-linejoin="round" stroke-width="2"/>
    <path d="M923.49,125.18c1.48-1.58,3.4-2.18,4.76-1.46s2.07,2.69,1.77,4.9" fill="none" stroke="#2c234a" stroke-linecap="round" stroke-linejoin="round" stroke-width="2"/>
    <path d="M905.49,121.21c1.15-1.85,2.92-2.8,4.38-2.37s2.56,2.24,2.7,4.46" fill="none" stroke="#2c234a" stroke-linecap="round" stroke-linejoin="round" stroke-width="2"/>
    <path d="M952.75,105.69c-.3-1.69-37.44,13-53.49-9.94s10.7-35.15,25.22-29c3.79,1.59,8.13,3.27,12,4.7a43.26,43.26,0,0,0,16.47,2.74c5.16-.16,13,1,21.23,7.07,14.52,10.7,13,30.57,3.82,51.2-10.55,23.75-9.29,17.68-9.29,17.68l-4.27-10.69a4.94,4.94,0,0,1,.43-4.48c3.13-4.84,10-16.58,4-17.79-4.64-.93-7.31,3.51-8.69,7.13a3.8,3.8,0,0,1-5.41,2h0a3.8,3.8,0,0,1-1.85-4.18C953.53,119.16,954.17,113.75,952.75,105.69Z" fill="#2c234a"/>
    <path d="M914.81,148a15.92,15.92,0,0,0,9.52,1.86c3.25-.55,6.33-2.9,7-6.12" fill="none" stroke="#9d8af6" stroke-linecap="round" stroke-linejoin="round" stroke-width="2"/>
  </g>
  <path d="M914.28,233.54l-45.77,39L839,236.63s44.3-62.66,80.89-53.4" fill="#8aaff6"/>
  <g>
    <path d="M806.17,809.57l-2,35.38a12.57,12.57,0,0,1-9.37,9.2l-86.45,26.52a15.64,15.64,0,0,0-11.77,11.86h0a15.65,15.65,0,0,0,14.82,19l134.78,4a15.65,15.65,0,0,0,15.71-12.1L870,813.76Z" fill="#8aaff6"/>
    <g opacity="0.2">
      <path d="M855.78,812.22l-1.16,72.34a27.22,27.22,0,0,1-22.91,21.8L780.4,913.6,843.77,917c9.61.51,16.26-6.15,18.27-15.56L870,813.76Z"/>
    </g>
  </g>
  <g>
    <path d="M1006.83,820.58l11.56,33.5a12.55,12.55,0,0,1-5.19,12.06l-70,57.29a15.66,15.66,0,0,0-6.4,15.44h0a15.66,15.66,0,0,0,20.93,12L1084,903.49a15.66,15.66,0,0,0,10-17.15l-26.51-86.06Z" fill="#8aaff6"/>
    <g opacity="0.2">
      <path d="M1053.75,804.23l26.33,67.39a27.21,27.21,0,0,1-12.94,28.85l-44.74,26.15,59.92-20.89c9.1-3.17,12.72-11.85,11-21.33l-25.88-84.12Z"/>
    </g>
  </g>
  <path d="M875.34,392.48s-78,126.59-67.61,220.48c0,0-6,200.35-2.8,202s65.41,3.34,65.41,3.34L881.93,595.4l73.23-198.71Z" fill="#2c234a"/>
  <path d="M918.45,405.43S892.09,551.78,936.1,635.37c0,0,67.62,188.69,71.22,189.06s62.11-20.81,62.11-20.81L998.74,591.91l-4.46-211.74Z" fill="#2c234a"/>
  <path d="M968.56,182.93s-28.67,20.76-50.41,0c0,0-30.65,6.92-36.58,38.55s-11.87,177-11.87,177l124.17.95s11.61-111.21,14.24-130.45C1014,225.44,998.22,193.8,968.56,182.93Z" fill="#8aaff6"/>
  <path d="M970.68,182.92c51.32-.92,83,58.11,83,58.11l-38.76,45.75-35.23-47" fill="#8aaff6"/>
  <path d="M879.07,244.53c-.07-32.53,8.73-40.86,21.38-50.8" fill="none" stroke="#4417d7" stroke-linecap="round" stroke-linejoin="round" stroke-width="2"/>
  <line x1="905" y1="431" x2="910.24" y2="527.12" fill="none" stroke="#efcc4a" stroke-linecap="round" stroke-linejoin="round" stroke-width="2"/>
  <line x1="980" y1="243" x2="1015.13" y2="285.44" fill="none" stroke="#4417d7" stroke-linecap="round" stroke-linejoin="round" stroke-width="2"/>
  <path d="M879.45,244.74H711.28A14.29,14.29,0,0,0,697,259v192.7A14.29,14.29,0,0,0,711.28,466H839l32-66Z" fill="#e3dfff"/>
  <path d="M1015.63,285.74l48,52-58,76c-9-2-13,2-16.79,4.47s-5.35,4.72-10,4.52c-1.91-.07-3.81-.64-5.71-.54a4.73,4.73,0,0,0-4.46,4c-.4,3,4.73,6,7.22,6.32,2.77.4,6.55-.2,9.32.2-4.9,7.38-14.69,11.93-22.73,15.82a6.28,6.28,0,0,0-2.21,1.67c-2.22,2.77,1.12,6.07,3.42,6.33a10.44,10.44,0,0,0,4.61-.88c-1.93,1.33-2.18,5-.61,6.73s5.69,1.68,7.2-.11c-2,.85-1.3,5,.69,5.89s4.27.08,6.29-.7c8.3-3.21,16.68-6.47,24-11.53A88.25,88.25,0,0,0,1019,444.59a317.52,317.52,0,0,1,35.61-32.68c5.57-4.37,11.23-9.05,17.9-14.64a358.67,358.67,0,0,0,28.39-27.3c7.13-8,12.13-15,12.44-33.27s-5.16-26.31-17.31-41.7c-11.27-14.29-32.67-40.08-43.65-54.6" fill="#fff" stroke="#2c234a" stroke-linecap="round" stroke-linejoin="round" stroke-width="2"/>
  <path d="M967.07,456c5.16-1.71,11.35-5.44,16.15-8s9.22-5.05,12.14-9.65" fill="none" stroke="#2c234a" stroke-linecap="round" stroke-linejoin="round" stroke-width="2"/>
  <path d="M970.07,464c5.16-1.71,11.35-3.44,16.15-6s13.22-7.05,16.14-11.65" fill="none" stroke="#2c234a" stroke-linecap="round" stroke-linejoin="round" stroke-width="2"/>
  <path d="M699,258l157.88,88.93c5.51,3.06,10.33,3.48,15.25-.47l-3,2" fill="none" stroke="#4417d7" stroke-linecap="round" stroke-linejoin="round" stroke-width="4"/>
  <line x1="1063.21" y1="338.2" x2="1077" y2="321" fill="#fff" stroke="#2c234a" stroke-linecap="round" stroke-linejoin="round" stroke-width="2"/>
  <path d="M681.86,259.38A23,23,0,0,1,698,237.89" fill="none" stroke="#2c234a" stroke-linecap="round" stroke-linejoin="round" stroke-width="2"/>
  <path d="M668.1,253.66a29.4,29.4,0,0,1,20.82-23.5" fill="none" stroke="#2c234a" stroke-linecap="round" stroke-linejoin="round" stroke-width="2"/>
  <path d="M1105.48,863.88a53.24,53.24,0,0,1-2,49.66" fill="none" stroke="#2c234a" stroke-linecap="round" stroke-linejoin="round" stroke-width="2"/>
  <path d="M1119.55,875.62a50.63,50.63,0,0,1-.75,45.53" fill="none" stroke="#2c234a" stroke-linecap="round" stroke-linejoin="round" stroke-width="2"/>
</svg>
