<svg id="Layer_1" data-name="Layer 1" xmlns="http://www.w3.org/2000/svg" viewBox="0 0 1920 1080">
  <title>Traced Tshirt</title>
  <g>
    <path d="M712,789l-10.15,53.42a15.88,15.88,0,0,1-11.23,12.27L583,885.55a19.84,19.84,0,0,0-14.09,15.8h0a19.83,19.83,0,0,0,20,23.08l170.8-4A19.83,19.83,0,0,0,778.83,904L799,790Z" fill="#8aaff6"/>
    <g opacity="0.2">
      <path d="M781,789l-12.6,91.61a34.45,34.45,0,0,1-27.51,29.12l-64.43,12.63h80.4a24.81,24.81,0,0,0,24.51-20.93L799,790Z"/>
    </g>
  </g>
  <path d="M844,783.65l25.83,44.69a15.12,15.12,0,0,1-.47,15.78L811.17,933a18.82,18.82,0,0,0-.34,20.09h0a18.83,18.83,0,0,0,28.71,4.18L959.8,848.48a18.81,18.81,0,0,0,3.55-23.58L905.27,739Z" fill="#8aaff6"/>
  <g opacity="0.2">
    <path d="M867.27,766.69s33.64,59.69-1.9,83.87l5-8.21s4.91-6.64-3.1-18.45l-23.19-39.34Z"/>
  </g>
  <path d="M787,472.65S705,474,703,532,843,790,843,790l67-49L825,567l202-71s6-90,0-87S787,472.65,787,472.65Z" fill="#2c234a"/>
  <path d="M1156,416s30,119-154,150c-76.3,12.85-118.85,24.14-138.5,32-8.39,3.36-20.69,11.48-23,20.22L799,795l-87-2s20-234,78-281c44.5-36.06,182-55,221-93Z" fill="#2c234a"/>
  <path d="M986.37,293.79l-5.11,43.5a8.11,8.11,0,0,1-6.19,6.93c-25,5.85-126.7,29.87-136.84,35.57-6.75,3.79-23.94,44.95-28,54.92a4.29,4.29,0,0,0,1.81,5.4,4.45,4.45,0,0,0,4.54-.35s2.89,5.79,7.94,2.89c0,0,2.89,5.79,8.68,2.17l25.72-28.34A35.28,35.28,0,0,1,883,405l115.12-6.84a37.15,37.15,0,0,0,34.27-30l6.76-75.08Z" fill="#fff" stroke="#2c234a" stroke-linecap="round" stroke-linejoin="round" stroke-width="2"/>
  <path d="M1126.5,187.85c-3.32,17.3-18.88,31.51-36.42,33.24s-34.87-7.4-41.52-23.72a19.36,19.36,0,0,0,19.11-7.29c4.27-5.8,5.83-12.79,2.33-19.08-15.37-.72-27.23-15.45-30.64-30.45s-1.7-30.64,1.51-45.69c3.34-15.66,25.55-27.44,41-23.2,0,0,37.14,1.86,37.14,45.34a54.1,54.1,0,0,1-2.45,15.27,62,62,0,0,0-2.2,30.11c1.62,8.6,5,17.93,11.65,24.62" fill="#fff"/>
  <path d="M1126.5,187.85c-3.32,17.3-18.88,31.51-36.42,33.24s-34.87-7.4-41.52-23.72a19.36,19.36,0,0,0,19.11-7.29c4.27-5.8,5.83-12.79,2.33-19.08-15.37-.72-27.23-15.45-30.64-30.45" fill="none" stroke="#2c234a" stroke-linecap="round" stroke-linejoin="round" stroke-width="2"/>
  <path d="M1040.87,94.86c3.34-15.66,25.55-27.44,41-23.2,0,0,37.14,1.86,37.14,45.34a65.13,65.13,0,0,1-2.6,15.57,60.87,60.87,0,0,0,.85,37.26A72.23,72.23,0,0,0,1126,187" fill="none" stroke="#2c234a" stroke-linecap="round" stroke-linejoin="round" stroke-width="2"/>
  <path d="M1038.66,104.51a225.59,225.59,0,0,1,41.66-.25,16.4,16.4,0,0,1,5.46,1.39c8.55,3.92,7.22,12.77,8.18,20.84.53,4.45,7.08,4.58,7.71.14a.34.34,0,0,0,0-.1c.6-4.65-1.83-9.28-.61-14a7,7,0,0,1,1-2.18c3.51-5.26,10.17-1.79,11.6,3,1.17,3.92-.16,8.12-1.77,11.88-1,2.36-2.15,4.83-1.85,7.37s2.77,5,5.22,4.26c6.56-12.82,8.28-35.3,3.66-49.57s-19.54-22-34.26-24.85c-10.47-2-21.31,1.2-31.91,0-11-1.2-21.71-7.11-32.73-3.06-10.31,3.79-16.28,14.49-14.93,25.4C1007,100.42,1024.12,105.94,1038.66,104.51Z" fill="#2c234a"/>
  <path d="M1065,192s31.85,20.1,62.59-4.64l35.67,6.5,1.49.31c22.92,5,38.51,26.39,37.15,49.82l-3.09,53.58h-51s24,40.48,7.5,120l-147.69.75s7.49-61.47,15.74-122.2l-38.23-.75,7.64-58.93a49.08,49.08,0,0,1,35.68-38.14Z" fill="#8aaff6"/>
  <path d="M1144.08,297.57l-6,51.73s-135.7,31.49-147.7,38.23c-7,3.94-24.83,46.63-29.07,57a4.43,4.43,0,0,0,2.07,5.7,4.68,4.68,0,0,0,4.51-.45s3,6,8.25,3c0,0,3,6,9,2.25l26.68-29.41a36.63,36.63,0,0,1,25-12l119.43-7.09a38.57,38.57,0,0,0,35.56-31.08l7-77.9Z" fill="#fff"/>
  <line x1="1147.83" y1="269.08" x2="1144.08" y2="296.82" fill="none" stroke="#4417d7" stroke-linecap="round" stroke-linejoin="round" stroke-width="2"/>
  <line x1="1027.13" y1="269.08" x2="1023.38" y2="296.82" fill="none" stroke="#4417d7" stroke-linecap="round" stroke-linejoin="round" stroke-width="2"/>
  <path d="M1155.5,407.3a38.57,38.57,0,0,0,35.56-31.08l7-77.9" fill="#fff" stroke="#2c234a" stroke-linecap="round" stroke-linejoin="round" stroke-width="2"/>
  <path d="M1014.18,379.9c-12.2,3.37-21.1,6.12-23.79,7.63-7,3.94-24.83,46.63-29.07,57a4.43,4.43,0,0,0,2.07,5.7,4.68,4.68,0,0,0,4.51-.45s3,6,8.25,3c0,0,3,6,9,2.25l26.68-29.41c3-3.35,8.9-6.83,12.86-8.83" fill="#fff" stroke="#2c234a" stroke-linecap="round" stroke-linejoin="round" stroke-width="2"/>
  <line x1="967.9" y1="449.76" x2="988.15" y2="408.53" fill="#fff" stroke="#2c234a" stroke-linecap="round" stroke-linejoin="round" stroke-width="2"/>
  <line x1="815.83" y1="440.49" x2="835.34" y2="400.74" fill="#fff" stroke="#2c234a" stroke-linecap="round" stroke-linejoin="round" stroke-width="2"/>
  <line x1="824.5" y1="442.65" x2="844.01" y2="402.91" fill="#fff" stroke="#2c234a" stroke-linecap="round" stroke-linejoin="round" stroke-width="2"/>
  <line x1="976.15" y1="452.76" x2="999.39" y2="412.27" fill="#fff" stroke="#2c234a" stroke-linecap="round" stroke-linejoin="round" stroke-width="2"/>
  <path d="M853.41,406.52c-.62,1.23,1.38,5.07-.23,16a5.6,5.6,0,0,0,5.53,6.44h.1a5.6,5.6,0,0,0,5-3.1,44,44,0,0,0,4.76-21.46" fill="#fff" stroke="#2c234a" stroke-linecap="round" stroke-linejoin="round" stroke-width="2"/>
  <path d="M970.25,459.42l80.06-5.45a6.38,6.38,0,0,1,6.81,6.36h0a6.38,6.38,0,0,1-5.91,6.36l-79.89,5.94a6.38,6.38,0,0,1-6.51-4.3l-.16-.49A6.38,6.38,0,0,1,970.25,459.42Z" fill="#e84468"/>
  <path d="M965.34,473H724.54a7.75,7.75,0,0,1-7.33-5.25l-54.7-160.7a7.73,7.73,0,0,1,7.32-10.23h240.8a7.74,7.74,0,0,1,7.33,5.24l54.71,160.71A7.74,7.74,0,0,1,965.34,473Z" fill="#efcc4a"/>
  <path d="M880.92,473s-120.53,5.32-140.73,154.16" fill="none" stroke="#efcc4a" stroke-linecap="round" stroke-linejoin="round" stroke-width="2"/>
  <line x1="813.56" y1="746.29" x2="846.01" y2="609.37" fill="none" stroke="#efcc4a" stroke-linecap="round" stroke-linejoin="round" stroke-width="2"/>
  <path d="M1070,170s7,0,17-6c0,0-1,14-15,17A18.55,18.55,0,0,0,1070,170Z" fill="#2c234a"/>
  <line x1="913.33" y1="303.32" x2="971.08" y2="467.37" fill="none" stroke="#e84468" stroke-linecap="round" stroke-linejoin="round" stroke-width="10"/>
  <path d="M1049,117.77a8.57,8.57,0,0,1-1.06,6.34c-1,1.94-4.48,4.63-5.65,6.49-.86,1.37-1.59,3-1.13,4.56s2.16,2.61,3.8,3c2.74.72,7.76-.7,10.2-2.15" fill="none" stroke="#2c234a" stroke-linecap="round" stroke-linejoin="round" stroke-width="2"/>
  <path d="M1036,119.31c.87-2.39,2.66-3.9,4.44-3.76s3.46,1.94,4.16,4.45" fill="none" stroke="#2c234a" stroke-linecap="round" stroke-linejoin="round" stroke-width="2"/>
  <path d="M1057,119.31c.87-2.39,2.66-3.9,4.44-3.76s3.46,1.94,4.16,4.45" fill="none" stroke="#2c234a" stroke-linecap="round" stroke-linejoin="round" stroke-width="2"/>
  <path d="M1055.25,146.41a14.1,14.1,0,0,0,8.67-.11c2.73-1.07,5-3.68,5-6.62" fill="none" stroke="#9d8af6" stroke-miterlimit="10" stroke-width="2"/>
  <circle cx="845" cy="114" r="73" fill="none" stroke="#2c234a" stroke-linecap="round" stroke-linejoin="round" stroke-width="2"/>
  <polyline points="844 71 845 114 890 143" fill="none" stroke="#2c234a" stroke-linecap="round" stroke-linejoin="round" stroke-width="2"/>
  <path d="M1174.93,423.82a44,44,0,0,0,29.47-32.34" fill="none" stroke="#2c234a" stroke-linecap="round" stroke-linejoin="round" stroke-width="2"/>
  <path d="M1185,434.81a59.67,59.67,0,0,0,35.19-26.3" fill="none" stroke="#2c234a" stroke-linecap="round" stroke-linejoin="round" stroke-width="2"/>
</svg>
