<svg id="Layer_1" data-name="Layer 1" xmlns="http://www.w3.org/2000/svg" viewBox="0 0 1920 1080">
  <title>Traced Tshirt</title>
  <rect x="529" y="104" width="320" height="320" rx="22.18" stroke-width="6" stroke="#e3dfff" stroke-linecap="round" stroke-linejoin="round" fill="none"/>
  <path d="M664.22,246h0a3.69,3.69,0,0,1,2.43-1.22c29.66-2.76,40.19-9.87,40.19-21.1v-.26c0-9-7.16-14.59-19.9-14.59-11.49,0-24.11,5.41-35.78,15a3.71,3.71,0,0,1-5.32-.6L623.66,194a3.71,3.71,0,0,1,.42-4.94c15.95-15,37.29-25.53,66.31-25.53,39,0,66.32,21.23,66.32,55.71v.53c0,32.55-21.13,47-49.43,54.34a3.73,3.73,0,0,0-2.74,2.91l-2.18,11.63a3.69,3.69,0,0,1-3.63,3H672.88a3.69,3.69,0,0,1-3.65-3.16L663.32,249A3.71,3.71,0,0,1,664.22,246Zm-1.7,61h44.86a3.7,3.7,0,0,1,3.7,3.7v37.7a3.69,3.69,0,0,1-3.7,3.7H662.52a3.7,3.7,0,0,1-3.7-3.7V310.7A3.7,3.7,0,0,1,662.52,307Z" fill="#e3dfff"/>
  <g>
    <path d="M880.55,889.19l6.12,27.95a10.14,10.14,0,0,1-5.29,9.18l-61.46,39.37a12.63,12.63,0,0,0-6.57,11.77h0A12.62,12.62,0,0,0,829,989L934.64,962.9a12.63,12.63,0,0,0,9.59-12.81l-13.18-71.48Z" fill="#8aaff6"/>
    <g opacity="0.2">
      <path d="M919.69,880.49,934.48,937A22,22,0,0,1,921.4,958.9l-38.32,16.76,50-11.12c7.59-1.69,11.31-8.31,10.83-16.07l-12.86-69.86Z"/>
    </g>
  </g>
  <g>
    <path d="M1006.75,897.9l1.59,28.56a10.14,10.14,0,0,1-6.69,8.22l-66.94,29.07a12.65,12.65,0,0,0-8.37,10.58h0a12.63,12.63,0,0,0,13.6,13.93l108.47-9a12.64,12.64,0,0,0,11.5-11.13l-1.62-72.66Z" fill="#8aaff6"/>
    <g opacity="0.2">
      <path d="M1046.78,895.54l5.59,58.13a22,22,0,0,1-16.4,19.55l-40.5,10.45,51.13-3c7.76-.45,12.49-6.39,13.25-14.13l-1.56-71Z"/>
    </g>
  </g>
  <path d="M967,257c-37-10-53.11,6.07-59.88,15.13s-13.54,22.93-17.21,33.61l-5.18,13.53c12.42,5.06,35.84,15.12,48.26,20.18Z" fill="#8aaff6"/>
  <path d="M968,249s-38,7-44,43-12,157-12,157l119,32s64-181,28-211C1016.13,234.28,968,249,968,249Z" fill="#8aaff6"/>
  <path d="M995.16,329c2.69-15.83,5.53-32.1,13.94-45.78S1027,266,1037,266" fill="none" stroke="#4417d7" stroke-linecap="round" stroke-linejoin="round" stroke-width="2"/>
  <path d="M919.07,336.64c-4.07,15.36-7.13,36.77-17.19,53.65,20.42-.27,41-.57,60.94-5.1,9.49-2.15,19.07-5.28,28.73-4.13s19.54,8.29,19.78,18c.22,9-8.18,16.52-17.09,18s-16.65-2.81-24.6-7.08c-27.34,9.2-55.9,18.53-84.48,14.62-8.31-1.14-17.41-4.12-21.22-11.6-3-5.83-1.88-12.82-.52-19.21,5.42-25.4,10.58-44.77,22.2-74.11" fill="#fff" stroke="#2c234a" stroke-linecap="round" stroke-linejoin="round" stroke-width="2"/>
  <path d="M995.42,330c-3.88,23.91-9.42,39-15.63,61.74-20.19-7.37-33.27-5.34-52.83-14.29-4.31-2-11.84-4.36-13.93-8.61a16.93,16.93,0,0,0-4.1-5,29.09,29.09,0,0,0-9-5.41l-21.21-8.27c-2.18-.85-4.43-1.72-6.84-1.21a4.83,4.83,0,0,0-1.93.87c-2.85,2.22-1.63,6.07.29,8.62a56.56,56.56,0,0,0-30.59-7.83,2.7,2.7,0,0,0-2,.92,3.06,3.06,0,0,0,.81,4.49,40.35,40.35,0,0,0,5.54,3c-1.4-.64-3.32-.47-4.81-.39a2.86,2.86,0,0,0-2.7,2.2c-.4,2,1.65,3.29,3.46,3.87a7.21,7.21,0,0,1,1.9,1,.37.37,0,0,1-.15.67,3.8,3.8,0,0,0-2.75,1.59c-.86,1.43-.21,3.39,1,4.53a13,13,0,0,0,4.44,2.3c9,3.39,16.92,9.05,25.41,13.55,6.79,3.61,14.32,6.52,21.9,6.69a28.54,28.54,0,0,1,13,3.62,880.7,880.7,0,0,0,88.81,42.77c4.84,2,10.43,3.89,15.1,1.54,4.08-2.05,6-6.7,7.62-11,11.61-31.41,22-57.63,29.06-90.36" fill="#fff" stroke="#2c234a" stroke-linecap="round" stroke-linejoin="round" stroke-width="2"/>
  <path d="M949.74,256.12s-35.11,5-30.43,78.92" fill="none" stroke="#4417d7" stroke-linecap="round" stroke-linejoin="round" stroke-width="2"/>
  <path d="M840.58,358.07C850,360,855,364,863.17,368.73" fill="none" stroke="#2c234a" stroke-linecap="round" stroke-linejoin="round" stroke-width="2"/>
  <path d="M841.18,365.21c5,2.6,15.8,7.67,20.24,11.17" fill="none" stroke="#2c234a" stroke-linecap="round" stroke-linejoin="round" stroke-width="2"/>
  <path d="M870,358s3,6,16,7" fill="none" stroke="#2c234a" stroke-linecap="round" stroke-linejoin="round" stroke-width="2"/>
  <path d="M912,449,836.45,618.79a144,144,0,0,0-6.67,98.86L883,900l50-12L895,680l60-125,12,169,37,178,57,2-20.33-249.63a431.83,431.83,0,0,1,2.5-91.19c3.2-24.39,3.33-57.27-12.17-82.18Z" fill="#2c234a"/>
  <line x1="951" y1="490" x2="954" y2="556" fill="none" stroke="#efcc4a" stroke-linecap="round" stroke-linejoin="round" stroke-width="2"/>
  <path d="M969.26,247.16c4.28-3.79,6.78-8.87,5.62-14.32a1.7,1.7,0,0,0-1.15-1.28c-12.14-3.92-18.93-18.07-18.94-30.93,0-13.17,4.36-25.89,9.88-37.85,5.72-12.4,26.35-18,38.46-11.7l.24.1c2.06.62,30.24,9.84,22.34,44.82a46.54,46.54,0,0,1-4.92,12.28,53,53,0,0,0-7.52,24.72,25.56,25.56,0,0,0,1.83,9.89c4.68,12.42-1.06,26.4-13.39,31.29a56.11,56.11,0,0,1-19.25,3.63c-31.81.91-15.13-27.62-13.5-30.29A1.48,1.48,0,0,1,969.26,247.16Z" fill="#fff"/>
  <path d="M969.08,247.32c4.66-4,7.28-9.58,5.54-15.49-12.69-3.5-19.82-18-19.83-31.2" fill="none" stroke="#2c234a" stroke-linecap="round" stroke-linejoin="round" stroke-width="2"/>
  <path d="M964.67,162.78c5.74-12.44,26.49-18.08,38.59-11.64,0,0,30.65,8.56,22.45,44.86a55.34,55.34,0,0,1-5.11,12.5c-5.23,9.56-9.6,28.5-4.32,40.26" fill="none" stroke="#2c234a" stroke-linecap="round" stroke-linejoin="round" stroke-width="2"/>
  <path d="M974.81,231s5.85,1.32,15.32-1.81c0,0-3.47,11.5-15.72,11.36A15.8,15.8,0,0,0,974.81,231Z" fill="#2c234a"/>
  <path d="M967.12,183.44a7.41,7.41,0,0,1-2.08,5.09c-1.24,1.42-4.61,3-5.94,4.35a4.93,4.93,0,0,0-1.8,3.6,4.31,4.31,0,0,0,2.59,3.24c2.15,1.12,6.61.89,8.92.14" fill="none" stroke="#2c234a" stroke-linecap="round" stroke-linejoin="round" stroke-width="2"/>
  <path d="M973,188.33c1.48-1.58,3.4-2.17,4.75-1.46s2.07,2.69,1.78,4.9" fill="none" stroke="#2c234a" stroke-linecap="round" stroke-linejoin="round" stroke-width="2"/>
  <path d="M955,184.36c1.15-1.84,2.92-2.8,4.38-2.36s2.56,2.23,2.7,4.45" fill="none" stroke="#2c234a" stroke-linecap="round" stroke-linejoin="round" stroke-width="2"/>
  <path d="M1002.27,168.84c-.3-1.68-37.45,13-53.49-9.94s10.7-35.14,25.21-29c3.8,1.6,8.14,3.27,12,4.71a43.22,43.22,0,0,0,16.47,2.73c5.16-.16,12.94,1,21.23,7.08,14.52,10.69,13,30.56,3.82,51.19-10.55,23.75-9.3,17.68-9.3,17.68l-4.26-10.69a4.89,4.89,0,0,1,.43-4.47c3.13-4.84,10-16.59,4-17.8-4.65-.93-7.31,3.51-8.69,7.13a3.82,3.82,0,0,1-5.41,2h0a3.82,3.82,0,0,1-1.85-4.19C1003.05,182.32,1003.69,176.9,1002.27,168.84Z" fill="#2c234a"/>
  <path d="M989.79,207.27a15.84,15.84,0,0,0-9.65,1c-2.93,1.48-5.18,4.64-4.85,7.91" fill="none" stroke="#9d8af6" stroke-linecap="round" stroke-linejoin="round" stroke-width="2"/>
  <line x1="1045" y1="342" x2="1052" y2="312" fill="none" stroke="#4417d7" stroke-linecap="round" stroke-linejoin="round" stroke-width="2"/>
  <path d="M802,690.9a64.07,64.07,0,0,1,.68-39.91" fill="none" stroke="#2c234a" stroke-linecap="round" stroke-linejoin="round" stroke-width="2"/>
  <path d="M792.1,688.22a27.68,27.68,0,0,1-1.68-23.91" fill="none" stroke="#2c234a" stroke-linecap="round" stroke-linejoin="round" stroke-width="2"/>
  <path d="M1073.61,259a61.7,61.7,0,0,1,5,44.41" fill="none" stroke="#2c234a" stroke-linecap="round" stroke-linejoin="round" stroke-width="2"/>
  <path d="M1087.32,264.6a22,22,0,0,0,2.27,14.78" fill="none" stroke="#2c234a" stroke-linecap="round" stroke-linejoin="round" stroke-width="2"/>
</svg>
