<svg id="Layer_1" data-name="Layer 1" xmlns="http://www.w3.org/2000/svg" viewBox="0 0 1920 1080">
  <title>Traced Tshirt</title>
  <g>
    <path d="M654.53,753.47l-30.71,26.58a14.39,14.39,0,0,1-15-.36l-90.79-50a17.93,17.93,0,0,0-19.15-.22h0A17.93,17.93,0,0,0,495,756.89L599.28,871a17.93,17.93,0,0,0,22.49,3.26L702,809.29Z" fill="#8aaff6"/>
    <g opacity="0.2">
      <path d="M691.94,796.39,631.5,853.16a31.18,31.18,0,0,1-36.21-1.45l-46.9-36.43,47.79,54.82c7.25,8.32,18,8.48,27.38,2.62L702,809.29Z"/>
    </g>
  </g>
  <g>
    <path d="M775.19,930.1,763.3,968.93a14.4,14.4,0,0,1-12.93,7.69l-103.46,5.91a17.93,17.93,0,0,0-16.34,10h0a17.93,17.93,0,0,0,11.29,25.23L790.8,1059a18,18,0,0,0,20.79-9.19l33.47-97.62Z" fill="#8aaff6"/>
    <g opacity="0.2">
      <path d="M829.69,946.58l-21,80.21a31.19,31.19,0,0,1-31.45,18l-59.09-5.94,69.61,21.05c10.57,3.2,19.78-2.4,24.59-12.34l32.75-95.4Z"/>
    </g>
  </g>
  <path d="M1183.42,489s69.74,65.41-4.74,140.52c-39.22,39.55-255.36,83.59-255.36,83.59l-85,259.39-69.81-23.85,56.15-271.78a111,111,0,0,1,65.91-72.7Z" fill="#2c234a"/>
  <path d="M917.75,263.49l-7-63.85a2.22,2.22,0,0,1,3.94-1.62l17.44,22,74.76-12.25a2.22,2.22,0,0,1,2.57,2.14l6.6,103.48a2.22,2.22,0,0,1-2,2.26l-74.68,9.5Z" fill="#e3dfff"/>
  <path d="M910.24,326.38s19,165.86,60.06,191.48a73.06,73.06,0,0,0,19.87,8.67c30.75,8.23,63.26-4.94,80.64-31.6l57.79-88.7-66.13-37.43L1011.6,456a1.56,1.56,0,0,1-2.77-.15L945.18,312.65" fill="#fff" stroke="#2c234a" stroke-linecap="round" stroke-linejoin="round" stroke-width="2"/>
  <g>
    <path d="M945,312.82c3.9-7.95,3.66-17.21,3.33-26.05l-.88-23.67c-.08-2.2-.41-4.82-2.38-5.8-1.76-.88-4,.16-5.11,1.79a12.42,12.42,0,0,0-1.61,5.61l-2.61,21.64C930.21,271.48,928,264,928,247.63c0-2.58,0-7.52-.24-10.1s-1.9-5.25-4.45-5.63c-3.51-.53-6,3.22-7.39,6.5,4-11.4,0-14.4-4.62-14.13-2.71.16-5.33,5.74-4.44,8.31-.61-1.61-2-1-3.38,0s-1.81,2.87-2.19,4.55c-5.59,25.18-4.85,67.5,8.91,89.33" fill="#fff" stroke="#2c234a" stroke-linecap="round" stroke-linejoin="round" stroke-width="2"/>
    <path d="M908.41,280.68c-4.5-14.59-2.82-37.64-.85-52.78" fill="#fff" stroke="#2c234a" stroke-linecap="round" stroke-linejoin="round" stroke-width="2"/>
    <path d="M919.64,284.44a107.22,107.22,0,0,1-3.85-45.28" fill="#fff" stroke="#2c234a" stroke-linecap="round" stroke-linejoin="round" stroke-width="2"/>
  </g>
  <path d="M1120.05,286.36c-21.53,6.07-49.31,26-60.12,86.47L1127.79,407s64.59-55.11,42-99.54C1160.55,289.37,1139.63,280.83,1120.05,286.36Z" fill="#8aaff6"/>
  <path d="M1123.57,292.7c6.1-5.28,9.53-12.52,7.25-20.26-16.61-4.58-25.93-23.6-26-40.83s5.7-33.89,12.93-49.54c7.51-16.28,34.67-23.66,50.49-15.23,0,0,40.12,11.2,29.39,58.7a61,61,0,0,1-6.44,16.08A69.36,69.36,0,0,0,1181.4,274c-.35,9.79,1,20.81,6.65,29.77,0,0-3.3,27.63-47,28.88S1123.57,292.7,1123.57,292.7Z" fill="#fff"/>
  <path d="M1188.38,304.78c-7.89,18.09-28.4,29.77-48,27.33l-16.83-39.41c6.1-5.28,9.53-12.52,7.25-20.26-16.61-4.58-25.93-23.6-26-40.83" fill="none" stroke="#2c234a" stroke-linecap="round" stroke-linejoin="round" stroke-width="2"/>
  <path d="M1117.8,182.07c7.51-16.28,34.67-23.66,50.49-15.23,0,0,40.12,11.2,29.39,58.7a72.82,72.82,0,0,1-6.69,16.37,68.18,68.18,0,0,0-8.26,40.91,81,81,0,0,0,5.32,20.92s-4.24,26.44-46.79,29.22" fill="none" stroke="#2c234a" stroke-linecap="round" stroke-linejoin="round" stroke-width="2"/>
  <path d="M1131.07,271.35s7.65,1.72,20-2.36c0,0-4.54,15-20.58,14.87A20.75,20.75,0,0,0,1131.07,271.35Z" fill="#2c234a"/>
  <path d="M1121,209.1a9.62,9.62,0,0,1-2.72,6.67c-1.62,1.86-6,3.95-7.77,5.7-1.28,1.28-2.49,2.89-2.36,4.7s1.71,3.38,3.39,4.25c2.82,1.47,8.66,1.15,11.68.18" fill="none" stroke="#2c234a" stroke-linecap="round" stroke-linejoin="round" stroke-width="2"/>
  <path d="M1138.92,215.69c-1.75,2.23-4.19,3.22-6,2.44s-3-3.27-2.87-6.18" fill="none" stroke="#2c234a" stroke-linecap="round" stroke-linejoin="round" stroke-width="2"/>
  <path d="M1116.52,209.49c-1.76,2.23-4.19,3.22-6,2.44s-3-3.27-2.87-6.18" fill="none" stroke="#2c234a" stroke-linecap="round" stroke-linejoin="round" stroke-width="2"/>
  <path d="M1129.16,242a15.85,15.85,0,0,0,9.52,1.87c3.24-.56,6.32-2.9,7-6.13" fill="none" stroke="#9d8af6" stroke-linecap="round" stroke-linejoin="round" stroke-width="2"/>
  <path d="M1184.38,292s-36.19,26.2-63.64,0c0,0-38.68,8.73-46.16,48.66s-15,223.35-15,223.35l154.2,5s17.18-144.16,20.49-168.45C1241.78,345.62,1221.81,305.69,1184.38,292Z" fill="#8aaff6"/>
  <path d="M1215.17,568.45S1235,674,1147.55,682.23c-55.46,5.22-252.28-47.65-252.28-47.65L693.13,818,645,759.62,827.49,554.31a111,111,0,0,1,93.24-30.59Z" fill="#2c234a"/>
  <path d="M948.93,341.35S968,507.21,1009,532.84a72.72,72.72,0,0,0,19.87,8.66c30.75,8.23,63.26-4.93,80.64-31.6l57.8-88.69-66.14-37.43L1050.28,471a1.56,1.56,0,0,1-2.77-.16l-63.65-143.2" fill="#fff"/>
  <g>
    <path d="M983.69,327.79c3.89-7.94,3.65-17.2,3.32-26l-.88-23.68c-.08-2.2-.41-4.81-2.38-5.8-1.76-.88-4,.16-5.11,1.79a12.59,12.59,0,0,0-1.61,5.62l-2.61,21.64c-5.53-14.87-6.78-22.36-6.71-38.72,0-2.58-1-7.52-1.24-10.09s-1.9-5.25-4.45-5.64c-3.51-.52-6,3.22-7.39,6.51-2.24-1.52-6.47-.78-8.62.87s-4.33,4.74-3.44,7.3c-.61-1.6-3.05,0-4.38,1.05s-1.81,2.87-2.19,4.54a100.28,100.28,0,0,0,12.91,74.33" fill="#fff" stroke="#2c234a" stroke-linecap="round" stroke-linejoin="round" stroke-width="2"/>
    <path d="M947.09,305.66c-4.5-14.59-5.82-32.65-3.85-47.78" fill="#fff" stroke="#2c234a" stroke-linecap="round" stroke-linejoin="round" stroke-width="2"/>
    <path d="M958.32,299.42a107.28,107.28,0,0,1-3.85-45.29" fill="#fff" stroke="#2c234a" stroke-linecap="round" stroke-linejoin="round" stroke-width="2"/>
  </g>
  <path d="M1153.86,309.86c-20,5.65-35.86,22.14-52.11,73.79l65.32,38.57s39.64-36.89,38.87-73.33" fill="none" stroke="#4417d7" stroke-linecap="round" stroke-linejoin="round" stroke-width="2"/>
  <path d="M1070.25,378s2.2-75.36,53.36-86.59" fill="none" stroke="#4417d7" stroke-linecap="round" stroke-linejoin="round" stroke-width="2"/>
  <path d="M1054,472.23a1.55,1.55,0,0,1-2.76-.15l-67.4-143.21" fill="none" stroke="#2c234a" stroke-linecap="round" stroke-linejoin="round" stroke-width="2"/>
  <path d="M948.93,342.6S968,508.46,1009,534.09a73.33,73.33,0,0,0,19.87,8.66,71.9,71.9,0,0,0,36.44.17" fill="none" stroke="#2c234a" stroke-linecap="round" stroke-linejoin="round" stroke-width="2"/>
  <path d="M1065.29,447.08s-1.57,33.28-7.81,40.76L1050,471.12Z" fill="#2c234a"/>
  <path d="M942,206l-3-16-8,30s10-21,37-30v11" fill="#fff" stroke="#2c234a" stroke-linecap="round" stroke-linejoin="round" stroke-width="2"/>
  <path d="M931,220s39-26,56-27v16" fill="#fff" stroke="#2c234a" stroke-linecap="round" stroke-linejoin="round" stroke-width="2"/>
  <path d="M1167,190c-.39-2.2-49,17-70-13s14-46,33-38c5,2.09,10.65,4.29,15.66,6.16a56.59,56.59,0,0,0,21.55,3.58c6.75-.21,16.94,1.27,27.79,9.26,19,14,17,40,5,67-13.81,31.08-12.17,23.14-12.17,23.14l-5.58-14a6.39,6.39,0,0,1,.57-5.85c4.09-6.34,13.1-21.71,5.18-23.29-6.08-1.22-9.57,4.6-11.38,9.34a5,5,0,0,1-7.07,2.63h0a5,5,0,0,1-2.42-5.48C1168,207.64,1168.86,200.55,1167,190Z" fill="#2c234a"/>
  <polyline points="816.32 706.22 898 635 1073 673" fill="none" stroke="#efcc4a" stroke-linecap="round" stroke-linejoin="round" stroke-width="2"/>
  <path d="M487.53,717.65a28.61,28.61,0,0,1,30.77-4.45" fill="none" stroke="#2c234a" stroke-linecap="round" stroke-linejoin="round" stroke-width="2"/>
  <path d="M491.13,695.44a48.36,48.36,0,0,1,43.13,10.89" fill="none" stroke="#2c234a" stroke-linecap="round" stroke-linejoin="round" stroke-width="2"/>
</svg>
