<svg id="Layer_1" data-name="Layer 1" xmlns="http://www.w3.org/2000/svg" viewBox="0 0 1920 1080">
  <title>Traced Tshirt</title>
  <g>
    <path d="M787.06,210.88c-4.29-3.79-6.78-8.86-5.62-14.32a1.7,1.7,0,0,1,1.15-1.28c12.13-3.92,18.92-18.07,18.94-30.93,0-13.17-4.36-25.89-9.88-37.85-5.72-12.4-26.35-18-38.46-11.7l-.24.1c-2.06.62-30.24,9.84-22.34,44.82A46.72,46.72,0,0,0,735.53,172a52.89,52.89,0,0,1,7.52,24.71,25.39,25.39,0,0,1-1.84,9.89c-4.68,12.42,1.06,26.4,13.4,31.29a56.11,56.11,0,0,0,19.25,3.63c31.81.91,15.13-27.62,13.5-30.29A1.48,1.48,0,0,0,787.06,210.88Z" fill="#fff"/>
    <path d="M787.24,211c-4.66-4-7.28-9.57-5.55-15.49,12.7-3.5,19.82-18,19.84-31.2" fill="none" stroke="#2c234a" stroke-linecap="round" stroke-linejoin="round" stroke-width="2"/>
    <path d="M791.65,126.5c-5.74-12.44-26.5-18.08-38.59-11.63,0,0-30.65,8.55-22.45,44.85a55.34,55.34,0,0,0,5.11,12.5c5.22,9.56,8.6,34.5,3.32,46.26" fill="none" stroke="#2c234a" stroke-linecap="round" stroke-linejoin="round" stroke-width="2"/>
    <path d="M781.51,194.72s-5.85,1.32-15.33-1.81c0,0,3.48,11.5,15.73,11.37A15.84,15.84,0,0,1,781.51,194.72Z" fill="#2c234a"/>
    <path d="M789.2,147.16a7.34,7.34,0,0,0,2.08,5.09c1.23,1.42,4.61,3,5.94,4.35a4.93,4.93,0,0,1,1.8,3.6,4.37,4.37,0,0,1-2.59,3.25c-2.15,1.12-6.62.88-8.92.13" fill="none" stroke="#2c234a" stroke-linecap="round" stroke-linejoin="round" stroke-width="2"/>
    <path d="M783.31,152.05c-1.48-1.58-3.4-2.17-4.76-1.46s-2.07,2.69-1.77,4.9" fill="none" stroke="#2c234a" stroke-linecap="round" stroke-linejoin="round" stroke-width="2"/>
    <path d="M801.31,148.08c-1.15-1.84-2.92-2.8-4.38-2.36s-2.56,2.23-2.7,4.45" fill="none" stroke="#2c234a" stroke-linecap="round" stroke-linejoin="round" stroke-width="2"/>
    <path d="M754.05,132.56c.3-1.68,37.44,13,53.49-9.93s-10.7-35.15-25.22-29c-3.79,1.6-8.13,3.28-12,4.71A43.17,43.17,0,0,1,753.89,101c-5.16-.16-12.95,1-21.23,7.08-14.52,10.7-13,30.56-3.82,51.19,10.55,23.75,9.29,17.69,9.29,17.69l4.27-10.7a4.92,4.92,0,0,0-.43-4.47c-3.13-4.84-10-16.59-4-17.8,4.64-.93,7.31,3.51,8.69,7.14a3.82,3.82,0,0,0,5.41,2h0A3.82,3.82,0,0,0,754,149C753.27,146,752.63,140.62,754.05,132.56Z" fill="#2c234a"/>
    <path d="M766.53,171a15.84,15.84,0,0,1,9.65,1c2.93,1.48,5.18,4.64,4.85,7.91" fill="none" stroke="#9d8af6" stroke-linecap="round" stroke-linejoin="round" stroke-width="2"/>
  </g>
  <rect x="906.91" y="67.72" width="320" height="320" rx="22.18" transform="translate(2133.82 455.44) rotate(-180)" stroke-width="4" stroke="#e3dfff" stroke-linecap="round" stroke-linejoin="round" fill="none"/>
  <g>
    <path d="M884.77,852.92l-6.12,27.94a10.14,10.14,0,0,0,5.29,9.18l61.45,39.37A12.63,12.63,0,0,1,952,941.18h0a12.63,12.63,0,0,1-15.65,11.58L830.67,926.62a12.63,12.63,0,0,1-9.58-12.81l13.17-71.48Z" fill="#8aaff6"/>
    <g opacity="0.2">
      <path d="M845.63,844.21,830.84,900.7a22,22,0,0,0,13.08,21.92l38.32,16.76-50-11.12c-7.59-1.69-11.31-8.31-10.83-16.06l12.85-69.87Z"/>
    </g>
  </g>
  <g>
    <path d="M758.57,861.62,757,890.18a10.14,10.14,0,0,0,6.69,8.22l66.94,29.08A12.64,12.64,0,0,1,839,938.05h0A12.63,12.63,0,0,1,825.38,952l-108.47-9a12.63,12.63,0,0,1-11.5-11.12L707,859.22Z" fill="#8aaff6"/>
    <g opacity="0.2">
      <path d="M718.54,859.26l-5.6,58.13a22,22,0,0,0,16.41,19.55l40.5,10.45-51.13-3c-7.76-.46-12.49-6.4-13.25-14.14l1.55-71Z"/>
    </g>
  </g>
  <path d="M789,211s46.32,8.72,52.32,44.72,12,157,12,157l-119,32C694.69,277.44,684,242,722,222c29-10,19.28,9.3,52,2C784.15,221.74,788,215,789,211Z" fill="#8aaff6"/>
  <path d="M843.25,300.36c4.07,15.36,7.12,36.77,17.19,53.65-20.43-.27-41-.57-60.94-5.1-9.49-2.15-19.07-5.28-28.73-4.13s-19.54,8.29-19.78,18c-.22,9,8.18,16.52,17.08,18s16.66-2.81,24.61-7.08c27.34,9.2,55.89,18.53,84.48,14.62,8.31-1.14,17.41-4.12,21.21-11.6,3-5.83,1.89-12.82.53-19.21-5.42-25.4-12.58-45.77-24.2-75.11" fill="#fff" stroke="#2c234a" stroke-linecap="round" stroke-linejoin="round" stroke-width="2"/>
  <path d="M853.32,412.72l75.55,169.8a144,144,0,0,1,6.67,98.85L882.32,863.72l-50-12,38-208-60-125-12,169-37,178-57,2L724.65,618.1a431.91,431.91,0,0,0-2.5-91.2c-3.2-24.39-3.33-57.27,12.17-82.18Z" fill="#2c234a"/>
  <line x1="814.32" y1="453.72" x2="811.32" y2="519.72" fill="none" stroke="#efcc4a" stroke-linecap="round" stroke-linejoin="round" stroke-width="2"/>
  <line x1="749" y1="396" x2="705.32" y2="287.72" fill="none" stroke="#4417d7" stroke-linecap="round" stroke-linejoin="round" stroke-width="2"/>
  <polygon points="750.02 396.47 785.51 354.79 780.32 328.72 739 356 750.02 396.47" fill="#8aaff6"/>
  <path d="M786,355c-2.68-15.83-21.37-94.4-29.78-108.08s-17.9-17.2-27.9-17.2" fill="none" stroke="#4417d7" stroke-linecap="round" stroke-linejoin="round" stroke-width="2"/>
  <path d="M795.32,220.72c37-10,53.11,6.08,59.88,15.13s13.54,22.93,17.21,33.62L898.59,345c-12.42,5.05-35.84,15.11-48.27,20.17Z" fill="#8aaff6"/>
  <path d="M810.58,218.85s40.11,6,35.43,79.91L850,368" fill="none" stroke="#4417d7" stroke-linecap="round" stroke-linejoin="round" stroke-width="2"/>
  <path d="M897,319l.23-.12a6.16,6.16,0,0,1,5.41-.14C907.39,321.06,906,328,906,328c7,3,1,11,1,11,2,9-11.53,15-11.53,15-6.71,3.56-14.14,4.5-21.63,4.68a29.4,29.4,0,0,0-13.3,3.63,878.64,878.64,0,0,1-88.81,42.77c-4.83,2-10.42,3.9-15.09,1.55-4.08-2.06-6-6.71-7.62-11l36.51-40.17c20.19-7.37,33.27-5.34,52.84-14.29,5.22-2.39,12.52-8,16.47-12.15.47-.5,1-1,1.5-1.45,2.63-2.37,10.71-7.17,14-8.45,7.08-2.76,9.15-2.52,16.22-5.27,2.18-.85,4.42-1.71,6.84-1.21a4.73,4.73,0,0,1,1.92.87c2.86,2.22,1.64,6.07-.28,8.62" fill="#fff" stroke="#2c234a" stroke-linecap="round" stroke-linejoin="round" stroke-width="2"/>
  <path d="M894,336a20.66,20.66,0,0,0,12.13-9.36" fill="none" stroke="#2c234a" stroke-linecap="round" stroke-linejoin="round" stroke-width="2"/>
  <path d="M896,346a20.66,20.66,0,0,0,12.13-9.36" fill="none" stroke="#2c234a" stroke-linecap="round" stroke-linejoin="round" stroke-width="2"/>
  <path d="M883.88,325.69c2.68-.78,6.5-2,9.19-2.71a7.9,7.9,0,0,0,2.9-1.33" fill="none" stroke="#2c234a" stroke-linecap="round" stroke-linejoin="round" stroke-width="2"/>
  <path d="M742.86,211.15l24.92.75a5.55,5.55,0,0,1,4.73,2.95L780,229l-44-7,1.2-6.3A5.57,5.57,0,0,1,742.86,211.15Z" fill="#8aaff6"/>
  <path d="M786,223l-1.19-10c-.25-2.07.69-2.87,2.11-3.65a19.26,19.26,0,0,1,6-2l2-.34,7,11Z" fill="#8aaff6"/>
  <g>
    <path d="M781.57,219.58s-25.25-5.22-25-1.23,4.11,18.79,9.16,19.5,16.21-14,16.21-14Z" fill="#2c234a"/>
    <path d="M782.66,220.38s15.3-11.86,16.5-8.7,3.61,15.8.44,17.91-15.71-5.79-15.71-5.79Z" fill="#2c234a"/>
    <circle cx="782.33" cy="222.35" r="5.5" fill="#2c234a"/>
  </g>
  <g>
    <path d="M1089.44,143.4V116.64a22.53,22.53,0,0,0-45.06,0V143.4" fill="none" stroke="#e3dfff" stroke-linecap="round" stroke-linejoin="round" stroke-width="4"/>
    <rect x="1021.85" y="143.4" width="90.12" height="76.6" rx="13.52" stroke-width="4" stroke="#e3dfff" stroke-linecap="round" stroke-linejoin="round" fill="none"/>
  </g>
  <rect x="941" y="249" width="234" height="40" rx="20" stroke-width="4" stroke="#e3dfff" stroke-linecap="round" stroke-linejoin="round" fill="none"/>
  <rect x="941" y="307" width="234" height="40" rx="20" fill="#e3dfff"/>
</svg>
