<svg id="Layer_1" data-name="Layer 1" xmlns="http://www.w3.org/2000/svg" viewBox="0 0 1920 1080">
  <title>Traced Tshirt</title>
  <g>
    <path d="M1036.12,904.71,1036,941.6a13.11,13.11,0,0,1-9.24,10.09L938.37,984a16.29,16.29,0,0,0-11.58,13h0a16.29,16.29,0,0,0,16.45,19l140.36-3.33a16.29,16.29,0,0,0,15.66-13.45l3.43-93.69Z" fill="#8aaff6"/>
    <g opacity="0.2">
      <path d="M1087.85,904.71l2.8,75.27a28.33,28.33,0,0,1-22.61,23.94l-52.95,10.37h66.08c10,0,16.56-7.29,18.14-17.19l3.38-91.57Z"/>
    </g>
  </g>
  <polygon points="1185.39 464 1201.25 909 1134.78 907 1095.26 502.16 1185.39 464" fill="#2c234a"/>
  <polygon points="1104.9 502.16 1102.59 905 1035.32 905 1023.79 502.16 1104.9 502.16" fill="#2c234a"/>
  <path d="M1116.89,280.77c-3.15,16.42-17.91,29.9-34.55,31.54s-33.1-7-39.4-22.5a18.36,18.36,0,0,0,18.13-6.93c4-5.5,5.54-12.13,2.21-18.1-14.59-.68-25.84-14.66-29.08-28.9s-1.61-29.07,1.44-43.35c3.17-14.86,24.24-26,38.89-22,0,0,35.25,1.77,35.25,43a51.41,51.41,0,0,1-2.32,14.49,58.74,58.74,0,0,0-2.09,28.57c1.53,8.16,4.7,17,11.05,23.36" fill="#fff"/>
  <path d="M1121.89,283.77c-3.15,16.42-17.91,29.9-34.55,31.54s-33.1-7-39.4-22.5a18.36,18.36,0,0,0,18.13-6.93c4-5.5,5.54-12.13,2.21-18.1-14.59-.68-25.84-14.66-29.08-28.9" fill="none" stroke="#2c234a" stroke-linecap="round" stroke-linejoin="round" stroke-width="2"/>
  <path d="M1040.64,195.53c3.17-14.86,24.24-26,38.89-22,0,0,35.25,1.77,35.25,43a62,62,0,0,1-2.47,14.77,57.79,57.79,0,0,0,.81,35.36,68.56,68.56,0,0,0,8.3,16.29" fill="none" stroke="#2c234a" stroke-linecap="round" stroke-linejoin="round" stroke-width="2"/>
  <path d="M1082.52,161.5c1.89,2.85,24.67,5.7,32.17,26.84,4.75,13.41,2.74,34.87-3.48,47-2.32.73-4.67-1.62-5-4s.8-4.76,1.76-7c1.52-3.57,2.79-7.56,1.67-11.28-1.35-4.52-7.67-7.81-11-2.82a6.74,6.74,0,0,0-.91,2.07c-1.16,4.47,1.14,8.86.58,13.27l0,.1c-.59,4.21-6.81,4.09-7.32-.14-.9-7.65.36-16-7.75-19.77a15.75,15.75,0,0,0-5.19-1.32,214.81,214.81,0,0,0-39.53.23c-13.79,1.37-30-3.87-31.87-18.7,0,0-3.86-21.63,19.86-21.63,0,0,9.49-17.08,27.52-6.64C1054.05,157.71,1070.57,143.59,1082.52,161.5Z" fill="#2c234a"/>
  <path d="M1068.28,266.83s6.64,0,16.13-5.69c0,0-1,13.28-14.23,16.13A17.6,17.6,0,0,0,1068.28,266.83Z" fill="#2c234a"/>
  <path d="M1048.33,217.27a8.13,8.13,0,0,1-1,6c-1,1.84-4.25,4.39-5.36,6.16-.82,1.3-1.51,2.86-1.07,4.33a4.83,4.83,0,0,0,3.6,2.88c2.6.68,7.37-.67,9.68-2" fill="none" stroke="#2c234a" stroke-linecap="round" stroke-linejoin="round" stroke-width="2"/>
  <path d="M1036,218.73c.82-2.26,2.52-3.7,4.21-3.57s3.29,1.85,4,4.23" fill="none" stroke="#2c234a" stroke-linecap="round" stroke-linejoin="round" stroke-width="2"/>
  <path d="M1056,218.73c.82-2.26,2.52-3.7,4.21-3.57s3.28,1.85,3.94,4.23" fill="none" stroke="#2c234a" stroke-linecap="round" stroke-linejoin="round" stroke-width="2"/>
  <path d="M1054.29,244.45a13.41,13.41,0,0,0,8.22-.1c2.59-1,4.74-3.5,4.72-6.29" fill="none" stroke="#9d8af6" stroke-linecap="round" stroke-linejoin="round" stroke-width="2"/>
  <path d="M1144.69,501.71l-120.22.71s-10.92,35.8-55.52,8.28c-34.79-21.47-90.14-202.12-90.14-202.12l42.7-11.38L986,416.76,994.25,326a46.53,46.53,0,0,1,33.85-36.18l37.51-5s27.38,21.92,56.55-1.55l33.85,6.16,1.41.29c21.75,4.78,38.44,29.8,37.15,52l.87,49.9s13,120.32-58,129.32-96,18-96,18l-13-47,114.52-41.39" fill="#8aaff6"/>
  <line x1="1028.73" y1="346.54" x2="1024.94" y2="502.16" fill="none" stroke="#4417d7" stroke-linecap="round" stroke-linejoin="round" stroke-width="2"/>
  <polyline points="1141.65 348.44 1143.55 453.16 1028.39 492" fill="none" stroke="#4417d7" stroke-linecap="round" stroke-linejoin="round" stroke-width="2"/>
  <path d="M986,416.76l20.88,37s-2.79-34-18.95-58.28Z" fill="#2c234a"/>
  <line x1="1104.94" y1="612.21" x2="1100.11" y2="538.6" fill="none" stroke="#efcc4a" stroke-linecap="round" stroke-linejoin="round" stroke-width="2"/>
  <g>
    <path d="M1134.48,905.71l-.12,36.89a13.09,13.09,0,0,1-9.23,10.09L1036.72,985a16.31,16.31,0,0,0-11.58,13h0a16.3,16.3,0,0,0,16.46,19l140.35-3.33a16.29,16.29,0,0,0,15.66-13.45l3.43-93.69Z" fill="#8aaff6"/>
    <g opacity="0.2">
      <path d="M1186.2,905.71,1189,981a28.33,28.33,0,0,1-22.61,23.94l-52.94,10.37h66.07c10,0,16.57-7.29,18.14-17.19l3.38-91.57Z"/>
    </g>
  </g>
  <path d="M1100.51,962l-68.71,23s-16.78,5.65-7.9,23.21c0,0,4,7.79,14.57,7.79" fill="none" stroke="#4417d7" stroke-linecap="round" stroke-linejoin="round" stroke-width="2"/>
  <path d="M1033.63,122.62l-5.88,42.63s78,12.05,80.82,12.46l4.12-42.45A24,24,0,1,0,1096.76,91a27.48,27.48,0,0,0-33.9-5,24,24,0,1,0-29.23,36.6Z" fill="#8aaff6"/>
  <path d="M920.55,297.6c-3.13-13.6-11.85-25.11-19.86-36.55s-15.77-23.94-16.47-37.88c-.07-1.34-.42-3.09-1.75-3.23-1-.1-1.72.79-2.24,1.62a28.92,28.92,0,0,0,.74,31.05,44.74,44.74,0,0,0-26,2.77c-2.71,1.2-5.51,2.88-6.54,5.67s.93,6.64,3.88,6.36c-2.16,1.07-2.69,3.92-2.16,6.28a5.57,5.57,0,0,0,5.21,4.22c-2.42,1.15-2.63,4.78-1.79,7.31a5.74,5.74,0,0,0,6.33,3.7c2.83,8.86,11.58,16.74,20.15,20.36" fill="none" stroke="#2c234a" stroke-linecap="round" stroke-linejoin="round" stroke-width="2"/>
  <path d="M855.85,278c8.34-3.39,19.82-5,28.63-3.06,1.67.36,3.66,1.21,3.73,2.91.06,1.28-1.05,2.28-2.08,3-7.91,5.7-18.7,8.43-28.43,7.79" fill="#fff" stroke="#2c234a" stroke-linecap="round" stroke-linejoin="round" stroke-width="2"/>
  <path d="M853.43,267.15c8.75-2.16,17.44-2.86,25.89.28,1.59.59,3.44,1.72,3.27,3.42a3.68,3.68,0,0,1-2.5,2.69c-10.7,4.46-17.36,5.22-27.14,3.91" fill="#fff" stroke="#2c234a" stroke-linecap="round" stroke-linejoin="round" stroke-width="2"/>
  <path d="M852.48,257c8.56-2.08,17.08-2.74,25.36.32,1.57.58,3.38,1.68,3.22,3.33a3.59,3.59,0,0,1-2.45,2.62c-10.47,4.31-17,5-26.58,3.74" fill="#fff" stroke="#2c234a" stroke-linecap="round" stroke-linejoin="round" stroke-width="2"/>
  <path d="M1000.84,481.21l-37.6,78a3.13,3.13,0,0,1-2.82,1.78h0a3.14,3.14,0,0,1-2.83-4.5l37.63-78a3.13,3.13,0,0,1,3.82-1.62h0A3.14,3.14,0,0,1,1000.84,481.21Z" fill="#e3dfff"/>
  <path d="M1028.55,492c-25.25,4.16-45,11.83-62.55,30.47-1.61,1.5-8,8.15-7.87,10a4.07,4.07,0,0,0,3.59,3.63c1.64.14,3.18-.74,4.59-1.59l18-10.82c-2.42,2.65-3.64,5.52-3,9s5,5.71,8.2,7.35c-1.19,2.3-1.07,9.31.15,11.61s4.79,5.27,8.17,5.24c3.06,0,5,.11,7.67-1.37s5.51-5.39,5.7-8.44c0,0,19.25,3.84,31.25-8.16" fill="#fff" stroke="#2c234a" stroke-linecap="round" stroke-linejoin="round" stroke-width="2"/>
  <path d="M1011.85,515.42c-12.46-1.42-22.46,4.58-28.62,9" fill="none" stroke="#2c234a" stroke-linecap="round" stroke-linejoin="round" stroke-width="2"/>
  <path d="M1012.85,530.42c-12.46-.42-18.46,3.58-23.62,10" fill="none" stroke="#2c234a" stroke-linecap="round" stroke-linejoin="round" stroke-width="2"/>
  <path d="M1010.39,547s-7-1-8,2" fill="#fff" stroke="#2c234a" stroke-linecap="round" stroke-linejoin="round" stroke-width="2"/>
  <path d="M920.39,556a22,22,0,0,0,44,0Z" fill="#e3dfff"/>
  <path d="M1130.31,284.34l.87,170.43-86.79,29.51,4.08-198,14.92-2.27s2,6,26,9,29-15,29-15Z" fill="#e3dfff"/>
  <path d="M1131.18,521.41s6.21,44.59,2.21,54.59-14,22-41,19-45.22-10.74-45.61-57.37C1046.78,537.63,1122,522.82,1131.18,521.41Z" fill="#e3dfff"/>
  <path d="M986.13,565.82a19.82,19.82,0,0,0,18.18,3.52" fill="none" stroke="#2c234a" stroke-linecap="round" stroke-linejoin="round" stroke-width="2"/>
  <path d="M982.61,575.09a30.91,30.91,0,0,0,20.53,3.22" fill="none" stroke="#2c234a" stroke-linecap="round" stroke-linejoin="round" stroke-width="2"/>
  <path d="M893.89,210.17a20.89,20.89,0,0,1,7,18.06" fill="none" stroke="#2c234a" stroke-linecap="round" stroke-linejoin="round" stroke-width="2"/>
  <path d="M899.36,200.46a25,25,0,0,1,12,27.69" fill="none" stroke="#2c234a" stroke-linecap="round" stroke-linejoin="round" stroke-width="2"/>
</svg>
