<svg id="Layer_1" data-name="Layer 1" xmlns="http://www.w3.org/2000/svg" viewBox="0 0 1920 1080">
  <title>Traced Tshirt</title>
  <polyline points="1037 457 1071 556 1027 577 994 471" fill="#fff" stroke="#2c234a" stroke-linecap="round" stroke-linejoin="round" stroke-width="2"/>
  <path d="M758,685.61a19.74,19.74,0,0,0-18,18l-7.85,95A19.72,19.72,0,0,0,751.77,820h0a19.74,19.74,0,0,0,19.44-16.32L781.34,746l46-2.86-2-63.14" fill="#8aaff6"/>
  <path d="M741.21,414.81C740,416,721,394,741,386" fill="#fff" stroke="#2c234a" stroke-linecap="round" stroke-linejoin="round" stroke-width="2"/>
  <path d="M785.53,420.8l-28.95,1.43a5.48,5.48,0,0,1-5.42-4.78l-9.89-66.14a5.5,5.5,0,0,1,3.79-6.15l30.1-3.1a4.94,4.94,0,0,1,6.19,4.16L790.23,415A4.94,4.94,0,0,1,785.53,420.8Z" fill="#2c234a"/>
  <g>
    <path d="M769.91,362c.31,2.57,1.93,13.54,2.23,16.1,1.86,15.9,7.33,14,12.86,28.9a57.62,57.62,0,0,1,3.12,33.29L807,499l21-45,45,16-45.22,91.64c-7.2,12.33-22.46,17.87-35.59,12.28-6.9-2.95-14.44-22.51-16.1-30.29l-16-68.2a239.88,239.88,0,0,0-13.48-41.27c-8.39-19.19-11.67-41.06-7.13-61.52,0,0,2.56-12.64,6.56-9.64,0,0,3-12,13-9C759,354,767.81,345,769.91,362Z" fill="#fff" stroke="#2c234a" stroke-linecap="round" stroke-linejoin="round" stroke-width="2"/>
    <path d="M749.53,405.15c-4.5-14.59-4.82-30.64-2.85-45.78" fill="#fff" stroke="#2c234a" stroke-linecap="round" stroke-linejoin="round" stroke-width="2"/>
    <path d="M762.76,406.91c-4.5-14.59-5.82-37.14-3.85-52.28" fill="#fff" stroke="#2c234a" stroke-linecap="round" stroke-linejoin="round" stroke-width="2"/>
  </g>
  <path d="M961.78,396.29c-3.32,17.3-18.88,31.51-36.42,33.24s-34.87-7.4-41.52-23.72A19.36,19.36,0,0,0,903,398.52c4.27-5.8,5.83-12.79,2.33-19.08C889.9,378.72,878,364,874.64,349s-1.7-30.64,1.51-45.69c3.34-15.66,25.54-27.44,41-23.2,0,0,37.14,1.86,37.14,45.34a54.16,54.16,0,0,1-2.45,15.27,62,62,0,0,0-2.2,30.11c1.62,8.6,5,17.93,11.65,24.62" fill="#fff"/>
  <path d="M961.78,396.29c-3.32,17.3-18.88,31.51-36.42,33.24s-34.87-7.4-41.52-23.72A19.36,19.36,0,0,0,903,398.52c4.27-5.8,5.83-12.79,2.33-19.08C889.9,378.72,878,364,874.64,349a92.13,92.13,0,0,1-1.36-27.76" fill="none" stroke="#2c234a" stroke-linecap="round" stroke-linejoin="round" stroke-width="2"/>
  <path d="M876.15,303.3c3.34-15.66,25.54-27.44,41-23.2,0,0,37.14,1.86,37.14,45.34A64.72,64.72,0,0,1,951.67,341a60.94,60.94,0,0,0,.86,37.26,72.23,72.23,0,0,0,8.75,17.17" fill="none" stroke="#2c234a" stroke-linecap="round" stroke-linejoin="round" stroke-width="2"/>
  <path d="M873.94,312.94a226.46,226.46,0,0,1,41.66-.24,16.4,16.4,0,0,1,5.46,1.39c8.55,3.92,7.22,12.77,8.18,20.84.53,4.45,7.08,4.58,7.71.14a.34.34,0,0,0,0-.1c.6-4.65-1.83-9.28-.61-14a7,7,0,0,1,1-2.18c3.51-5.26,10.17-1.79,11.6,3,1.17,3.91-.16,8.12-1.77,11.88-1,2.36-2.15,4.83-1.85,7.37s2.77,5,5.22,4.26c6.55-12.82,8.28-35.3,3.66-49.57s-19.54-22-34.26-24.85c-10.47-2-21.31,1.19-31.91,0-11-1.2-21.71-7.11-32.73-3.06-10.31,3.79-16.29,14.49-14.93,25.4C842.28,308.86,859.4,314.38,873.94,312.94Z" fill="#2c234a"/>
  <path d="M905.28,378.44s7,0,17-6c0,0-1,14-15,17A18.55,18.55,0,0,0,905.28,378.44Z" fill="#2c234a"/>
  <path d="M896.26,326.21a8.57,8.57,0,0,1-1.06,6.34c-1,1.94-4.48,4.63-5.65,6.49-.86,1.37-1.59,3-1.13,4.56s2.16,2.61,3.79,3c2.75.72,7.77-.7,10.21-2.15" fill="none" stroke="#2c234a" stroke-linecap="round" stroke-linejoin="round" stroke-width="2"/>
  <path d="M882.28,327.75c.87-2.39,2.66-3.9,4.44-3.76s3.46,1.94,4.16,4.45" fill="none" stroke="#2c234a" stroke-linecap="round" stroke-linejoin="round" stroke-width="2"/>
  <path d="M904.28,327.75c.87-2.39,2.66-3.9,4.44-3.76s3.46,1.94,4.16,4.45" fill="none" stroke="#2c234a" stroke-linecap="round" stroke-linejoin="round" stroke-width="2"/>
  <path d="M896.53,356.85a14.1,14.1,0,0,0,8.67-.11c2.73-1.07,5-3.68,5-6.62" fill="none" stroke="#9d8af6" stroke-linecap="round" stroke-linejoin="round" stroke-width="2"/>
  <path d="M903,399s26.48,17.93,56.24-5.54c0,0,22.76-12.46,50.76,8.54,13.12,9.84,29,56,29,56l-42,24V606H860V483l-41-11s7-22,31-63C859.76,392.33,884,390,903,399Z" fill="#8aaff6"/>
  <line x1="860" y1="432" x2="860" y2="483" fill="none" stroke="#4417d7" stroke-linecap="round" stroke-linejoin="round" stroke-width="2"/>
  <line x1="997" y1="483" x2="997" y2="432" fill="none" stroke="#4417d7" stroke-linecap="round" stroke-linejoin="round" stroke-width="2"/>
  <path d="M944,597.33a153.92,153.92,0,0,1-70.66-.86C810.81,580.93,685.61,556.54,671,606c-26,88,47,133,242,146,0,0,314.92,7.42,261-137C1152.78,558.16,1011.29,582.3,944,597.33Z" fill="#2c234a"/>
  <line x1="910.17" y1="656.28" x2="1071" y2="624" fill="none" stroke="#efcc4a" stroke-linecap="round" stroke-linejoin="round" stroke-width="2"/>
  <path d="M1023.5,681.94C970.65,670,767.58,624,765,624" fill="none" stroke="#efcc4a" stroke-linecap="round" stroke-linejoin="round" stroke-width="2"/>
  <path d="M1091.35,687.61a19.74,19.74,0,0,1,18,18l7.85,95A19.73,19.73,0,0,1,1097.57,822h0a19.74,19.74,0,0,1-19.44-16.32L1068,748l-46-2.86,2-63.14" fill="#8aaff6"/>
  <line x1="806" y1="496" x2="817" y2="530" fill="#fff" stroke="#2c234a" stroke-linecap="round" stroke-linejoin="round" stroke-width="2"/>
  <g>
    <path d="M996,593.61l-57.9-4a4.62,4.62,0,0,0-4.93,4.61h0a4.6,4.6,0,0,0,4.27,4.59l57.78,4.3a4.6,4.6,0,0,0,4.71-3.11l.12-.35A4.61,4.61,0,0,0,996,593.61Z" fill="#e84468"/>
    <path d="M999.53,602.43H1173.7a5.62,5.62,0,0,0,5.3-3.8l39.56-116.23a5.59,5.59,0,0,0-5.3-7.4H1039.1a5.6,5.6,0,0,0-5.3,3.79L994.23,595A5.6,5.6,0,0,0,999.53,602.43Z" fill="#efcc4a"/>
    <line x1="1037.15" y1="479.71" x2="995.38" y2="598.35" fill="none" stroke="#e84468" stroke-linecap="round" stroke-linejoin="round" stroke-width="10"/>
  </g>
  <rect x="1178.38" y="207" width="312.15" height="231.63" rx="16.71" fill="#e3dfff"/>
  <g>
    <line x1="1206.81" y1="259.09" x2="1461.68" y2="259.09" fill="#3a12cf" stroke="#2c234a" stroke-linecap="round" stroke-linejoin="round" stroke-width="5"/>
    <line x1="1207.22" y1="386.53" x2="1462.09" y2="386.53" fill="#3a12cf" stroke="#2c234a" stroke-linecap="round" stroke-linejoin="round" stroke-width="5"/>
    <line x1="1207.22" y1="301.02" x2="1334.66" y2="301.02" fill="#3a12cf" stroke="#2c234a" stroke-linecap="round" stroke-linejoin="round" stroke-width="5"/>
    <line x1="1207.22" y1="343.36" x2="1416.85" y2="343.36" fill="#3a12cf" stroke="#2c234a" stroke-linecap="round" stroke-linejoin="round" stroke-width="5"/>
  </g>
  <rect x="500.75" y="279.5" width="206.19" height="153" rx="16.71" fill="#e3dfff"/>
  <g>
    <line x1="519.54" y1="313.92" x2="687.89" y2="313.92" fill="#3a12cf" stroke="#2c234a" stroke-linecap="round" stroke-linejoin="round" stroke-width="5"/>
    <line x1="519.81" y1="398.09" x2="688.17" y2="398.09" fill="#3a12cf" stroke="#2c234a" stroke-linecap="round" stroke-linejoin="round" stroke-width="5"/>
    <line x1="519.81" y1="341.61" x2="603.99" y2="341.61" fill="#3a12cf" stroke="#2c234a" stroke-linecap="round" stroke-linejoin="round" stroke-width="5"/>
    <line x1="519.81" y1="369.58" x2="658.28" y2="369.58" fill="#3a12cf" stroke="#2c234a" stroke-linecap="round" stroke-linejoin="round" stroke-width="5"/>
  </g>
  <path d="M797.46,397.57a68.8,68.8,0,0,1,3.24,30.73" fill="none" stroke="#2c234a" stroke-linecap="round" stroke-linejoin="round" stroke-width="2"/>
  <path d="M803.81,393.26a53.3,53.3,0,0,1,4.09,28.26" fill="none" stroke="#2c234a" stroke-linecap="round" stroke-linejoin="round" stroke-width="2"/>
</svg>
