<svg id="Layer_1" data-name="Layer 1" xmlns="http://www.w3.org/2000/svg" viewBox="0 0 1920 1080">
  <title>Traced Tshirt</title>
  <line x1="1108" y1="303" x2="1082.04" y2="363.44" fill="none" stroke="#2c234a" stroke-linecap="round" stroke-linejoin="round" stroke-width="2"/>
  <path d="M1005,250.21l27.37-5.67a5.3,5.3,0,0,0,3.9-5.77l-6.78-64.12a5.28,5.28,0,0,0-5-4.82l-28.85,4.39a4.76,4.76,0,0,0-4.76,5.38L999.24,246A4.75,4.75,0,0,0,1005,250.21Z" fill="#2c234a"/>
  <g>
    <path d="M742.27,647.75l-27.47,23.8a12.89,12.89,0,0,1-13.46-.33l-81.26-44.71a16.06,16.06,0,0,0-17.14-.19h0a16,16,0,0,0-3.43,24.5l93.32,102.07A16.06,16.06,0,0,0,713,755.81l71.79-58.1Z" fill="#8aaff6"/>
    <g opacity="0.2">
      <path d="M775.76,686.16,721.67,737a27.88,27.88,0,0,1-32.41-1.3l-42-32.6,42.77,49.07c6.49,7.44,16.14,7.58,24.51,2.34l70.19-56.77Z"/>
    </g>
  </g>
  <g>
    <g>
      <path d="M786.84,700.91l-18.5,31.29a12.89,12.89,0,0,1-12.87,4l-91.24-16.6a16,16,0,0,0-16.32,5.26h0a16,16,0,0,0,4.53,24.32l120.9,67.16a16,16,0,0,0,20-3.62L843,734.8Z" fill="#8aaff6"/>
      <g opacity="0.2">
        <path d="M830.79,726.71l-35.16,65.35a27.92,27.92,0,0,1-31.15,9.06l-50.15-17.59,56.13,33c8.52,5,17.71,2.06,24-5.57L843,734.8Z"/>
      </g>
    </g>
    <path d="M1203.67,421s46.93,71.57-33.65,121.24c-42.43,26.17-208.71,1-208.71,1L832.89,751.09l-55.71-35.42,106-224.62a99.32,99.32,0,0,1,72.62-49.4Z" fill="#2c234a"/>
  </g>
  <path d="M1158.89,229.71c-19.26,5.43-44.12,23.29-53.8,77.39l60.73,30.62s57.81-49.33,37.58-89.09C1195.14,232.4,1176.42,224.77,1158.89,229.71Z" fill="#8aaff6"/>
  <path d="M1162.05,235.39c5.46-4.73,8.53-11.21,6.49-18.14-14.87-4.1-23.21-21.11-23.23-36.54s5.11-30.32,11.57-44.33c6.72-14.57,31-21.18,45.19-13.63,0,0,35.9,10,26.3,52.54a54.62,54.62,0,0,1-5.76,14.39,62,62,0,0,0-8.81,28.95c-.31,8.76.89,18.62,6,26.63,0,0-3,24.73-42,25.85S1162.05,235.39,1162.05,235.39Z" fill="#fff"/>
  <path d="M1220.05,246.2c-7.06,16.19-25.42,26.64-42.94,24.46l-15.06-35.27c5.46-4.73,8.53-11.21,6.49-18.14-14.87-4.1-23.21-21.11-23.23-36.54" fill="none" stroke="#2c234a" stroke-linecap="round" stroke-linejoin="round" stroke-width="2"/>
  <path d="M1156.88,136.38c6.72-14.57,31-21.18,45.19-13.63,0,0,35.9,10,26.3,52.54a65.12,65.12,0,0,1-6,14.64,61.17,61.17,0,0,0-7.39,36.61,72.41,72.41,0,0,0,4.76,18.72s-3.79,23.67-41.87,26.15" fill="none" stroke="#2c234a" stroke-linecap="round" stroke-linejoin="round" stroke-width="2"/>
  <path d="M1168.76,216.28s6.84,1.54,18-2.11c0,0-4.07,13.46-18.42,13.3A18.57,18.57,0,0,0,1168.76,216.28Z" fill="#2c234a"/>
  <path d="M1159.75,160.57a8.63,8.63,0,0,1-2.44,6c-1.44,1.66-5.4,3.54-7,5.1-1.15,1.15-2.23,2.59-2.12,4.21s1.54,3,3,3.8c2.52,1.31,7.75,1,10.45.16" fill="none" stroke="#2c234a" stroke-linecap="round" stroke-linejoin="round" stroke-width="2"/>
  <path d="M1175.79,166.47c-1.57,2-3.75,2.88-5.41,2.19s-2.68-2.93-2.56-5.54" fill="none" stroke="#2c234a" stroke-linecap="round" stroke-linejoin="round" stroke-width="2"/>
  <path d="M1155.74,160.92c-1.57,2-3.76,2.88-5.41,2.19s-2.68-2.93-2.57-5.54" fill="none" stroke="#2c234a" stroke-linecap="round" stroke-linejoin="round" stroke-width="2"/>
  <path d="M1167.05,190a14.17,14.17,0,0,0,8.52,1.67c2.9-.49,5.66-2.59,6.24-5.48" fill="none" stroke="#9d8af6" stroke-linecap="round" stroke-linejoin="round" stroke-width="2"/>
  <path d="M1216.47,234.73s-32.38,23.45-57,0c0,0-34.62,7.82-41.32,43.55s-13.4,199.89-13.4,199.89l138,4.47s15.38-129,18.35-150.76C1267.84,282.75,1250,247,1216.47,234.73Z" fill="#8aaff6"/>
  <path d="M1244,482.17s17.75,94.46-60.51,101.83c-49.63,4.67-225.78-42.65-225.78-42.65L776.83,705.51l-43.08-52.25L897.07,469.52a99.33,99.33,0,0,1,83.45-27.38Z" fill="#2c234a"/>
  <g>
    <path d="M1036.86,266.79c3.48-7.11,3.26-15.39,3-23.31l-.78-21.18c-.08-2-.38-4.31-2.14-5.19-1.57-.79-3.57.14-4.56,1.6a11,11,0,0,0-1.45,5l-2.33,19.37c-4.95-13.31-6.07-20-6-34.65,0-2.31-.91-6.73-1.11-9s-1.7-4.7-4-5c-3.14-.47-5.41,2.89-6.61,5.83-2-1.37-5.8-.7-7.72.78s-3.87,4.23-3.08,6.53c-.54-1.44-2.73,0-3.92.94a7.08,7.08,0,0,0-2,4.06A89.73,89.73,0,0,0,1005.74,279" fill="#fff" stroke="#2c234a" stroke-linecap="round" stroke-linejoin="round" stroke-width="2"/>
    <path d="M1004.11,247a106.65,106.65,0,0,1-3.45-42.76" fill="#fff" stroke="#2c234a" stroke-linecap="round" stroke-linejoin="round" stroke-width="2"/>
    <path d="M1014.16,241.4a96,96,0,0,1-3.45-40.53" fill="#fff" stroke="#2c234a" stroke-linecap="round" stroke-linejoin="round" stroke-width="2"/>
  </g>
  <path d="M1114.32,311.75s2-67.44,47.77-77.49" fill="none" stroke="#4417d7" stroke-linecap="round" stroke-linejoin="round" stroke-width="2"/>
  <path d="M1200.91,143.48c-.34-2-43.85,15.21-62.64-11.64s12.53-41.17,29.53-34c4.45,1.87,9.53,3.84,14,5.52a50.7,50.7,0,0,0,19.28,3.2c6-.18,15.17,1.14,24.87,8.29,17,12.53,15.22,35.8,4.48,60-12.37,27.82-10.89,20.71-10.89,20.71l-5-12.53a5.73,5.73,0,0,1,.5-5.24c3.66-5.67,11.72-19.42,4.64-20.84-5.44-1.09-8.57,4.11-10.18,8.36a4.46,4.46,0,0,1-6.34,2.35h0a4.42,4.42,0,0,1-2.16-4.9C1201.83,159.26,1202.58,152.92,1200.91,143.48Z" fill="#2c234a"/>
  <circle cx="1216" cy="171" r="17" fill="#e3dfff"/>
  <path d="M1193.44,106.19S1214,117,1212,157l9,1s3-41-19-52Z" fill="#e3dfff"/>
  <rect x="734" y="96" width="249" height="249" rx="14.59" fill="#e3dfff"/>
  <circle cx="858.39" cy="220.29" r="89.71" fill="none" stroke="#fff" stroke-miterlimit="10" stroke-width="5"/>
  <path d="M824.19,266.69a20.17,20.17,0,0,1-6-1.72,22.55,22.55,0,0,1-2.23-1.18c-.05-.05-.47-.36-.93-.7a15.1,15.1,0,0,1-5.79-9.06,15.75,15.75,0,0,1,0-4.65A14.28,14.28,0,0,1,813,242.2a18.5,18.5,0,0,1,10.7-5.38,26.87,26.87,0,0,1,6.08,0,21.41,21.41,0,0,1,3.5.84c.69.29,1,.26,1.4-.15l.3-.35V210.53c0-25.86,0-26.65.18-26.82a1.22,1.22,0,0,1,.51-.25c1.38-.25,60.29-9.68,60.5-9.68h.28l-.07,35.27c-.06,34.16-.07,35.3-.25,36.22-.78,4-4.25,8-8.81,10.09a20.44,20.44,0,0,1-18.65-.93,15.88,15.88,0,0,1-6.48-7.3c-2.68-6.49,0-13.59,6.69-17.51A20.29,20.29,0,0,1,880.32,227a23.33,23.33,0,0,1,5.28,1c1.61.57,1.86.59,2.27.11l.3-.34V211.06c0-13.35,0-16.77-.12-16.76l-22,3.52-21.87,3.52-.06,26.35c-.06,25.16-.08,26.91-.33,27.77a15.09,15.09,0,0,1-.93,2.32c-.14.25-.31.58-.39.76s-.17.31-.21.31a.1.1,0,0,0-.08.1,4.2,4.2,0,0,1-.49.75,17.81,17.81,0,0,1-9.52,6.38,22.77,22.77,0,0,1-8,.61Z" fill="#fff"/>
  <path d="M1189.16,250.74c-17.94,5.06-32.1,19.82-46.64,66L1201,351.31s35.48-33,34.79-65.63" fill="none" stroke="#4417d7" stroke-linecap="round" stroke-linejoin="round" stroke-width="2"/>
  <path d="M1005.75,278.93s17,148.44,53.74,171.37a65.18,65.18,0,0,0,17.79,7.75c27.51,7.37,56.61-4.41,72.16-28.28l51.73-79.37L1142,316.9,1096.46,395a1.4,1.4,0,0,1-2.48-.14l-57-128.17" fill="#fff"/>
  <path d="M1099.81,396.06a1.4,1.4,0,0,1-2.48-.13L1037,267.76" fill="none" stroke="#2c234a" stroke-linecap="round" stroke-linejoin="round" stroke-width="2"/>
  <path d="M1109.89,373.55s-1.41,29.78-7,36.48l-6.7-15Z" fill="#2c234a"/>
  <path d="M785.8,697S882.1,476.7,906.55,461.35" fill="none" stroke="#efcc4a" stroke-linecap="round" stroke-linejoin="round" stroke-width="2"/>
  <path d="M1028.49,394.74c-26.16,8.62-54,12.82-78.58,25.14S903.4,455.66,903.8,483.2c0,3.26.69,7,3.48,8.67s7.45-1.46,5.73-4.23c-.68,3.95,3.08,7.07,7.06,7.45a7.61,7.61,0,0,0,8-7.12c2.19,2.52,3.94,4.83,7.3,5.19,5.25.58,9.13-4.58,7.79-9.69-2.82-10.7,5.17-23.08,13.14-31.55-1.78,7.85-3,16.12-4.75,24a6.4,6.4,0,0,0,6.89,7.8c3.87-.48,5.29-4.15,6.37-7.4l7.92-24a14.35,14.35,0,0,1,12.21-9.77c21.27-2.14,41-4,62.8-2.11" fill="#fff" stroke="#2c234a" stroke-linecap="round" stroke-linejoin="round" stroke-width="2"/>
  <path d="M912.77,488.67c-1.32-11.33.45-23.09,6.69-32.63" fill="none" stroke="#2c234a" stroke-linecap="round" stroke-linejoin="round" stroke-width="2"/>
  <path d="M928,487.94c-3.69-10.73-1.49-22.76,2.55-33.37" fill="none" stroke="#2c234a" stroke-linecap="round" stroke-linejoin="round" stroke-width="2"/>
  <line x1="661.26" y1="719.11" x2="740.58" y2="733.46" fill="none" stroke="#4417d7" stroke-linecap="round" stroke-linejoin="round" stroke-width="2"/>
  <path d="M1005.75,280s17,148.44,53.74,171.38a65.49,65.49,0,0,0,17.79,7.75,64.25,64.25,0,0,0,32.61.15" fill="none" stroke="#2c234a" stroke-linecap="round" stroke-linejoin="round" stroke-width="2"/>
</svg>
