<svg id="Layer_1" data-name="Layer 1" xmlns="http://www.w3.org/2000/svg" xmlns:xlink="http://www.w3.org/1999/xlink" viewBox="0 0 1920 1080">
  <defs>
    <clipPath id="clip-path">
      <path d="M1147.68,283.24c7.09,15.74,10.9,33.75,20.28,47.69,9.67,14.37,24.62,23.35,32.57,39.16,6.16,12.26,7.35,27.42,5.56,41.75-1.14,9.16-3.52,18.35-8.2,25.89S1186,451,1178.14,451.6c-8.23.63-15.81-4.25-23.71-6.76-15-4.77-31.06-.93-46.71-.16s-33.15-2.78-42.07-17.63c-7.64-12.72-6.76-30.3-2.83-45.52s10.55-29.49,13.72-44.94c2.29-11.14,2.73-22.61,4.19-33.92s4.09-22.81,10.08-31.95C1109.46,242.3,1136.05,257.4,1147.68,283.24Z" fill="#5c04a0"/>
    </clipPath>
    <clipPath id="clip-path-2">
      <path d="M1118.26,256.84c-13.31-3.07-34.79,4.83-40.75,17.12s-6.92,28.78-10.15,42c-10.51,43.11-13.23,60-27.27,99.76-.32-38.62-.09-34.76-7-67.3-2.83-13.41-1.64-30-14.22-36.23a21.35,21.35,0,0,0-15.28-1.23c-17.16,4.84-8.66,3.45-25.48,8.17-7.61,2.14-15.87,4.72-20.25,11.3-4.76,7.14-3.39,16.56-1.84,25,8.45,45.93-4.1,76.86,4.35,122.8,3.27,17.75,7.33,36.94,21,48.71,11.63,10,28,12.46,43.34,11.65,41-2.15,80.15-26.11,100.74-61.59,12.35-21.26,18.12-45.82,20.08-70.33s.28-49.14-1.41-73.67l-3-43.45c-.54-7.85-1.17-16-5-22.86S1125.93,258.62,1118.26,256.84Z" fill="#5c04a0"/>
    </clipPath>
  </defs>
  <title>Vector 1</title>
  <g>
    <rect x="509.13" y="107" width="350.37" height="350.15" rx="25.44" fill="#fff" stroke="#000" stroke-miterlimit="10" stroke-width="2"/>
    <path d="M656,269h0a4.12,4.12,0,0,1,2.7-1.35c32.83-3.05,44.49-10.93,44.49-23.36V244c0-10-7.93-16.15-22-16.15-12.73,0-26.7,6-39.62,16.58a4.1,4.1,0,0,1-5.89-.66L611.08,211.4a4.1,4.1,0,0,1,.47-5.48c17.65-16.56,41.27-28.26,73.41-28.26,43.17,0,73.43,23.5,73.43,61.68v.59c0,36-23.4,52-54.73,60.16a4.1,4.1,0,0,0-3,3.22l-2.42,12.87a4.09,4.09,0,0,1-4,3.35H665.58a4.1,4.1,0,0,1-4.05-3.49L655,272.37A4.09,4.09,0,0,1,656,269Zm-1.88,67.52h49.67a4.11,4.11,0,0,1,4.1,4.1V382.4a4.1,4.1,0,0,1-4.1,4.09H654.1A4.09,4.09,0,0,1,650,382.4V340.66A4.1,4.1,0,0,1,654.1,336.56Z" fill="#fff" stroke="#000" stroke-miterlimit="10" stroke-width="2"/>
  </g>
  <path d="M1103.52,169.58c.27.1,35.72,12.19,69.16,97,23.62,59.89,68.49,118.15,105.3,125.73s60,55.94,44,85.9c-20.26,38.08-84,70.62-127.81,12.88s-88.73-205-88.65-208.18-22.78-74.6-22.78-74.6l-7.88-25.83Z" fill="#1b0042"/>
  <g>
    <path d="M983.58,804.48c.85,2.62,55.4,102.43,55.4,102.43l46.19-15-57.4-105.63L982.45,801" fill="#ffc9e6"/>
    <polygon points="1002.52 839.94 1047.31 822.24 1085.17 891.92 1037.83 906.32 1002.52 839.94" fill="#fca1bb"/>
    <polygon points="1006.28 847.01 1050.96 828.96 1054.56 835.58 1010.08 854.16 1006.28 847.01" fill="#151614"/>
    <polygon points="1011.41 856.9 1056.97 838.57 1060.56 845.19 1015.22 864.05 1011.41 856.9" fill="#fff"/>
  </g>
  <g>
    <path d="M1020.93,867.69c-7.9-4-9.58-15.29-17.13-19.89s-18.94-4.92-24.76,2c-4.71,5.59-4.42,14.13-1.2,20.7s8.84,11.58,14.39,16.34a208.94,208.94,0,0,1-60.91,39.36c-10.41,4.39-21.22,8-31,13.55s-18.79,13.56-22.93,24.07c-3.14,8-4.82,18.88-1.73,26.92A10,10,0,0,0,885.7,997c72.57-5.58,116.07-15.56,222.63-45.42-.57-35-18.9-76.43-43.43-98.72C1064.9,852.83,1053.66,884.16,1020.93,867.69Z" fill="#fff" stroke="#000" stroke-miterlimit="10"/>
    <path d="M875.48,975.19s170.4-21.83,229.33-49.48" fill="#fff" stroke="#000" stroke-miterlimit="10"/>
    <path d="M940.22,923.05c11.55,5.53,25.61,3.42,36.94-2.53s20.47-15.3,29.2-24.67l-15.8-10" fill="none" stroke="#000" stroke-miterlimit="10"/>
    <path d="M959.66,912.33c6,4.12,10.6,7.95,17.88,8.47" fill="none" stroke="#000" stroke-miterlimit="10"/>
    <path d="M975.64,899.76a65.74,65.74,0,0,0,19,9" fill="none" stroke="#000" stroke-miterlimit="10"/>
    <path d="M1001.52,954c3.61-12.65,14.91-21.65,26.69-27.52s24.63-9.55,35.88-16.39,21.12-18,21.49-31.15" fill="none" stroke="#000" stroke-miterlimit="10"/>
    <path d="M1017.35,952.44c6.27-9,16.42-14.51,26.65-18.49s21-6.76,30.64-12,18.43-13.4,21-24.06" fill="none" stroke="#000" stroke-miterlimit="10"/>
  </g>
  <g>
    <path d="M739.8,697.79c-1.24,2.45-33,111.67-33,111.67l43.31,22L784,716.08l-42.49-21.56" fill="#ffc9e6"/>
    <polygon points="728.19 736.27 772.42 755.34 750.08 831.43 706.37 808.23 728.19 736.27" fill="#fca1bb"/>
    <polygon points="725.87 743.94 770.27 762.68 768.14 769.91 723.52 751.69 725.87 743.94" fill="#151614"/>
    <polygon points="722.53 754.57 767.74 773.73 765.62 780.96 720.18 762.32 722.53 754.57" fill="#fff"/>
  </g>
  <g>
    <path d="M721.66,768.93c-2.79-8.4,4-17.6,1.9-26.18-2.14-8.77-9.95-16.85-18.94-16.07-7.28.63-13.1,6.88-15.45,13.81s-1.91,14.45-1.34,21.74a209.15,209.15,0,0,1-70.93-15.1c-10.47-4.24-20.65-9.33-31.56-12.3s-22.88-3.65-33.23.87c-7.84,3.42-16.74,10-20.22,17.85a10,10,0,0,0,2.72,11.55C590,812.36,627.84,836,724.41,890c24.28-25.18,40.54-67.49,38.89-100.6C763.3,789.42,733.23,803.7,721.66,768.93Z" fill="#fff" stroke="#000" stroke-miterlimit="10"/>
    <path d="M542.75,742.46s136.13,104.78,197.4,126.77" fill="#fff" stroke="#000" stroke-miterlimit="10"/>
    <path d="M625.41,751.2c4.28,12.06,15.73,20.49,28,24.28s25.3,3.6,38.09,3.12l-4.15-18.22" fill="none" stroke="#000" stroke-miterlimit="10"/>
    <path d="M646.75,757.32c1.36,7.18,1.9,13.11,6.69,18.63" fill="none" stroke="#000" stroke-miterlimit="10"/>
    <path d="M666.94,759.69a65.54,65.54,0,0,0,7.11,19.75" fill="none" stroke="#000" stroke-miterlimit="10"/>
    <path d="M647,816.41c11.48-6.43,25.84-4.82,38.33-.68s24.19,10.62,37,13.72,27.67,2.14,37.21-6.92" fill="none" stroke="#000" stroke-miterlimit="10"/>
    <path d="M659.32,826.45c10.8-2,21.87,1.31,31.93,5.71s19.63,10,30.15,13.14,22.52,3.51,31.88-2.21" fill="none" stroke="#000" stroke-miterlimit="10"/>
  </g>
  <path d="M1069.49,416c-3.87-1-169.19-54.55-249,35.69S708.93,702.89,708.93,702.89s83.49,42.72,80.51,42.41S857,605.42,874.24,516.73c0,0,173.32,61.84,222.28,35.77S1153.69,437.8,1069.49,416Z" fill="#1b0042"/>
  <path d="M1122.85,408.25c-4,.2-210.9-23.38-259.94,86.62S970.58,828.08,970.58,828.08l89.17-18.16c-2.94.6-91.2-167.16-101.32-256.95,0,0,192.25,17,231.14-22.58S1209.72,403.82,1122.85,408.25Z" fill="#1b0042"/>
  <g>
    <path d="M1147.68,283.24c7.09,15.74,10.9,33.75,20.28,47.69,9.67,14.37,24.62,23.35,32.57,39.16,6.16,12.26,7.35,27.42,5.56,41.75-1.14,9.16-3.52,18.35-8.2,25.89S1186,451,1178.14,451.6c-8.23.63-15.81-4.25-23.71-6.76-15-4.77-31.06-.93-46.71-.16s-33.15-2.78-42.07-17.63c-7.64-12.72-6.76-30.3-2.83-45.52s10.55-29.49,13.72-44.94c2.29-11.14,2.73-22.61,4.19-33.92s4.09-22.81,10.08-31.95C1109.46,242.3,1136.05,257.4,1147.68,283.24Z" fill="#5c04a0"/>
    <g clip-path="url(#clip-path)">
      <path d="M1107.44,257.47c15,3,26.28,15.51,33.46,29s11.3,28.35,18.4,41.84C1167,342.9,1178,355.5,1187.47,369s17.73,28.76,18.66,45.27" fill="none" stroke="#fff" stroke-linecap="round" stroke-linejoin="round" stroke-width="2" opacity="0.15"/>
      <path d="M1092.08,270.69c20.43,5,36,21.75,46.72,39.87s17.65,38.23,28.31,56.36c12.56,21.35,30.57,40.94,33.53,65.53" fill="none" stroke="#fff" stroke-linecap="round" stroke-linejoin="round" stroke-width="2" opacity="0.15"/>
      <path d="M1082.39,296.34c12.81,7.47,25.78,15.07,36.13,25.67,9.81,10.06,16.88,22.43,23.57,34.78,8,14.78,15.64,29.75,23.27,44.72,8.12,15.91,16.47,33.13,13.94,50.81" fill="none" stroke="#fff" stroke-linecap="round" stroke-linejoin="round" stroke-width="2" opacity="0.15"/>
      <path d="M1074.78,346.82c42.85,15.88,76.49,54.56,86.28,99.2" fill="none" stroke="#fff" stroke-linecap="round" stroke-linejoin="round" stroke-width="2" opacity="0.15"/>
    </g>
  </g>
  <path d="M1070.38,170.64s-15.26,5.77-21.41,26.28c-5.84,19.46-1,62.28,9.73,59.36s31.14-14.6,31.14-14.6l3.89,28.22,31.14-6.81s-5.83-36-2.91-57.41c.06-.45.11-.89.15-1.33,2-20-14.22-37.1-34.37-37.17A40.52,40.52,0,0,0,1070.38,170.64Z" fill="#ffc9e6"/>
  <path d="M1057.47,194.15c10.22,5.85,21.75,8.51,32.11,10.23,1.51.25,2.92.64,3.46-.78,1.2-3.19,4.63-6.49,7.44-7.32,3.58-1.05,7.64-1,10.17,1.77,3.18,3.45,2.69,8.81,1.15,13.19-.33.94.41,1.8-.24,2.55h-1.29c-1.9,2.17-4.79,2.73-2.72,4.75a140.42,140.42,0,0,0,14.35,11.25,115.6,115.6,0,0,0,1.53-29.61c-.64-9.63-4.13-19.47-11.44-25.79-6.5-5.64-15.44-7.93-24-7.53s-16.9,3.3-24.65,7A40.12,40.12,0,0,0,1048.83,186a17.85,17.85,0,0,0-1.58,17S1051.05,201.85,1057.47,194.15Z" fill="#1b0042"/>
  <path d="M1093.14,205.12a12.1,12.1,0,0,1,8.54-9.67c4.42-1.11,9.59,1.21,11.24,5.45,1.12,2.86.63,6.11-.38,9a14.23,14.23,0,0,1-4.45,6.76,7.43,7.43,0,0,1-7.72,1" fill="none" stroke="#000" stroke-linecap="round" stroke-linejoin="round"/>
  <path d="M1089.57,241.66l14.13-6.42a24.3,24.3,0,0,1-11.89,20.69Z" fill="#1b0042"/>
  <path d="M1075,210a15.61,15.61,0,0,0-6.6.56,7.3,7.3,0,0,0-4.33,3.92,1.22,1.22,0,0,0,1.07,1.67c3.55.25,6.91-.2,9.88-2.3a4.08,4.08,0,0,0,1.41-1.48A1.7,1.7,0,0,0,1075,210Z" fill="none" stroke="#000" stroke-linecap="round" stroke-linejoin="round"/>
  <path d="M1047.09,215.1a12.86,12.86,0,0,1,5-2,6.25,6.25,0,0,1,4.82,1.31,1,1,0,0,1-.16,1.63,12.41,12.41,0,0,1-8.38,2.11,4.29,4.29,0,0,1-1.23-.32A1.57,1.57,0,0,1,1047.09,215.1Z" fill="none" stroke="#000" stroke-linecap="round" stroke-linejoin="round"/>
  <path d="M1057.81,212a65.82,65.82,0,0,1-2.7,14.3,2.51,2.51,0,0,0,.08,2.36,2.43,2.43,0,0,0,2.16.46l7.4-.77" fill="none" stroke="#000" stroke-linecap="round" stroke-linejoin="round"/>
  <path d="M1067.78,213.06a1.83,1.83,0,0,1-2.81,2.33A1.83,1.83,0,1,1,1067.78,213.06Z"/>
  <path d="M1049.45,215.55a1.63,1.63,0,0,1-2.5,2.08A1.63,1.63,0,1,1,1049.45,215.55Z"/>
  <path d="M1061.38,206.73a4.1,4.1,0,0,1,2.68-2.44,18.14,18.14,0,0,1,9.47-1.15" fill="none" stroke="#000" stroke-linecap="round" stroke-linejoin="round"/>
  <path d="M1044.24,207.85a8.34,8.34,0,0,1,8.18-1.84" fill="none" stroke="#000" stroke-linecap="round" stroke-linejoin="round"/>
  <path d="M1064.54,235.54a7.51,7.51,0,0,0-10.2,1C1057.49,236,1061.38,236,1064.54,235.54Z" fill="none" stroke="#000" stroke-linecap="round" stroke-linejoin="round"/>
  <path d="M1054.36,236.85a5.13,5.13,0,0,0,5.11,2.47c2-.3,5-1.91,5.44-3.88"/>
  <circle cx="1069.03" cy="215.98" r="8.35" fill="none" stroke="#000" stroke-linecap="round" stroke-linejoin="round"/>
  <circle cx="1048.48" cy="218.54" r="8.35" fill="none" stroke="#000" stroke-linecap="round" stroke-linejoin="round"/>
  <line x1="1076.45" y1="212.33" x2="1092.06" y2="203.69" fill="none" stroke="#000" stroke-linecap="round" stroke-linejoin="round"/>
  <path d="M1100.07,213.42c-4.3-1.11-9.06,2.72-9.62,7.73s3.22,10.07,7.63,10.23,8.45-4.62,8.17-9.66" fill="none" stroke="#000" stroke-linecap="round" stroke-linejoin="round"/>
  <path d="M1098.69,210a12.17,12.17,0,0,1,8.58-8.93" fill="none" stroke="#000" stroke-linecap="round" stroke-linejoin="round"/>
  <path d="M1101.88,204.13c1.23,2.84,1.46,3.68,2.68,6.53" fill="none" stroke="#000" stroke-linecap="round" stroke-linejoin="round"/>
  <g>
    <path d="M1118.26,256.84c-13.31-3.07-34.79,4.83-40.75,17.12s-6.92,28.78-10.15,42c-10.51,43.11-13.23,60-27.27,99.76-.32-38.62-.09-34.76-7-67.3-2.83-13.41-1.64-30-14.22-36.23a21.35,21.35,0,0,0-15.28-1.23c-17.16,4.84-8.66,3.45-25.48,8.17-7.61,2.14-15.87,4.72-20.25,11.3-4.76,7.14-3.39,16.56-1.84,25,8.45,45.93-4.1,76.86,4.35,122.8,3.27,17.75,7.33,36.94,21,48.71,11.63,10,28,12.46,43.34,11.65,41-2.15,80.15-26.11,100.74-61.59,12.35-21.26,18.12-45.82,20.08-70.33s.28-49.14-1.41-73.67l-3-43.45c-.54-7.85-1.17-16-5-22.86S1125.93,258.62,1118.26,256.84Z" fill="#5c04a0"/>
    <g clip-path="url(#clip-path-2)">
      <path d="M973,328.18c-7.67-.14-12.76,8.72-12.27,16.38s4.62,14.52,7.29,21.72c10,26.84-.52,56.69,1.37,85.26,1,14.68,5.23,28.91,9.46,43C982.53,506.89,986.77,520,997,528s23.81,8.78,36.56,8.16" fill="none" stroke="#fff" stroke-linecap="round" stroke-linejoin="round" stroke-width="2" opacity="0.15"/>
      <path d="M972.49,345.31a132.8,132.8,0,0,1,16.93,56.74c1,15.36-.7,30.76-.58,46.15s2.21,31.26,10,44.51a51.78,51.78,0,0,0,15,16.27c12.26,8.44,28,10.66,42.76,9.13s29-6.51,43.06-11.46" fill="none" stroke="#fff" stroke-linecap="round" stroke-linejoin="round" stroke-width="2" opacity="0.15"/>
      <path d="M997.21,353.32a345,345,0,0,1,14.92,75.82c1.26,15.41,2.06,32.33,12.57,43.66s28,13.47,43.59,12.44a159.91,159.91,0,0,0,61.19-16.68" fill="none" stroke="#fff" stroke-linecap="round" stroke-linejoin="round" stroke-width="2" opacity="0.15"/>
      <path d="M1009.38,339.75l26.42,85.54c1.72,5.54,3.47,11.17,6.69,16,10.45,15.63,35,17.53,50,6,12.82-9.88,18.47-26.29,22.65-41.92C1128,357,1133,304.83,1117.65,257.09" fill="none" stroke="#fff" stroke-linecap="round" stroke-linejoin="round" stroke-width="2" opacity="0.15"/>
      <path d="M1005.79,323.41c4.21-2.79,10.21-.87,13.57,2.9s4.73,8.85,6,13.74l14.52,56.27" fill="none" stroke="#fff" stroke-linecap="round" stroke-linejoin="round" stroke-width="2" opacity="0.15"/>
      <path d="M1045.71,410.06c.94,8.64,9.85,15,18.54,14.87s16.65-5.68,21.63-12.81,7.41-15.72,9.17-24.24c3.61-17.51,4.73-35.42,5.84-53.26,1.59-25.54,3.14-51.6-3.33-76.36" fill="none" stroke="#fff" stroke-linecap="round" stroke-linejoin="round" stroke-width="2" opacity="0.15"/>
      <path d="M1049.94,393.21c4.44,5.26,13.64,3.21,17.88-2.21s4.9-12.74,5.39-19.6l4.13-57.57c.72-10,1.41-20.33-1.6-29.92" fill="none" stroke="#fff" stroke-linecap="round" stroke-linejoin="round" stroke-width="2" opacity="0.15"/>
    </g>
  </g>
  <path d="M973.62,340.24c-3.67-9.74-.38-41.66-1.06-52.05s2.1-21.5,9.7-28.62c6.32-5.92,15-8.36,23.41-10.61l34.51-9.28a3,3,0,0,1,2.63.43c1.91,1.45.45,4-1,5.53-6.85,7-18.72,10.71-28.52,13.68a1.17,1.17,0,0,0-.23,2.14c6.93,3.77,16.16,5.32,22.24,4.62a4.07,4.07,0,0,1,3.51,1.2c2.15,2.37-.71,5.57-3.3,7.14-10.53,6.41-22.12,4.08-34.16,6.75-6.77,7.78.58,28.29,3.35,38.22,1.58,5.64,5.74,12.56,3.54,18-2.32,5.73-6.19,21.63-21.77,16.16C980.59,351.48,975.79,346,973.62,340.24Z" fill="#ffc9e6"/>
  <path d="M1023.9,230.38a2.6,2.6,0,0,1,1.52-1.16c1.29-.18,2,1.49,2.09,2.8a21.47,21.47,0,0,1-6.46,16.9c-3.6,3.44-8.83,5.91-13.82,5.56C1006.77,247.5,1019.5,236,1023.9,230.38Z" fill="#ffc9e6"/>
  <path d="M1010.73,234.29c.53-.38.86-1.08,1.51-1.18,1.29-.2,2,1.46,2.13,2.77.57,6.2-5.93,13.75-10.37,18.12-3.55,3.49-8.6,4.9-13.6,4.63C989.85,251.65,1007,237,1010.73,234.29Z" fill="#ffc9e6"/>
  <path d="M956.13,422s-145.79-11-101,160.54" fill="none" stroke="#fff" stroke-linecap="round" stroke-linejoin="round" stroke-width="2"/>
  <path d="M1139.17,442.07c13.33-54.57,5.29-116.56-2.48-174.27" fill="none" stroke="#fff" stroke-linecap="round" stroke-linejoin="round" stroke-width="2"/>
  <path d="M1198,438s20.88,40.34,6.94,68.17" fill="none" stroke="#fff" stroke-linecap="round" stroke-linejoin="round" stroke-width="2"/>
  <path d="M1033.52,242.37l2.56,2a2.18,2.18,0,0,0,2.71,0l3.17-2.52a.84.84,0,0,0-.48-1.49A13,13,0,0,0,1033.52,242.37Z" fill="none" stroke="#000" stroke-linecap="round" stroke-linejoin="round"/>
  <path d="M1019.21,236l3.27.14a2.17,2.17,0,0,0,2.2-1.59l1.08-3.9a.83.83,0,0,0-1.26-.92A12.89,12.89,0,0,0,1019.21,236Z" fill="none" stroke="#000" stroke-linecap="round" stroke-linejoin="round"/>
  <path d="M1008.44,239.75l-.37-.63a2.17,2.17,0,0,1,.4-2.68l3-2.76a.83.83,0,0,1,1.4.69,15.16,15.16,0,0,1-1.51,5.35A1.65,1.65,0,0,1,1008.44,239.75Z" fill="none" stroke="#000" stroke-linecap="round" stroke-linejoin="round"/>
  <path d="M990.88,253.9s9-5.36,34.08-10.13" fill="none" stroke="#000" stroke-linecap="round" stroke-linejoin="round"/>
  <line x1="1007.5" y1="247.5" x2="1012.5" y2="243.5" fill="none" stroke="#000" stroke-linecap="round" stroke-linejoin="round"/>
  <path d="M1032.5,268.5V275s6-1,7-5.75S1032.5,268.5,1032.5,268.5Z" fill="none" stroke="#000" stroke-linecap="round" stroke-linejoin="round"/>
</svg>
