<svg id="Layer_1" data-name="Layer 1" xmlns="http://www.w3.org/2000/svg" xmlns:xlink="http://www.w3.org/1999/xlink" viewBox="0 0 1920 1080">
  <defs>
    <clipPath id="clip-path">
      <path d="M883.77,221.66s-26.31,9.76-15.52,43.11,101,77.47,130.43,110.81c23.85,27,75.51,34.33,90.22,2s56.88-104.94,24.52-140.24-73.55-38.25-85.32-7.85-5.89,41.19-24.52,55.9S933.62,211.9,883.77,221.66Z" fill="#5c04a0"/>
    </clipPath>
    <clipPath id="clip-path-2">
      <path d="M891.7,220.28a53.3,53.3,0,0,0,8.37.79c7.9.17,15.28,6.49,19.87,13.38,5.35,8,9,17.51,16.36,23.72,5.92,5,6.92,8.35,12.24,13.95,6.67,7,8.88,19.2,5.12,28.13-2.18,5.18.06,10.58-4.39,14-5.94,4.63-9.72,23-8.15,30.36,3.24,15.27,5.83,17.12,10.48,32.13,2.86,9.24,5.47,20.15-.36,27.87-6,7.91-17.44,6.79-25.72,1.33-12-7.87-38-3.7-49,2.95-9.23,5.55-35,20.17-45.4,23.09s-21.11,6-31.77,4.41-21.27-9.19-22.57-19.88C775.22,404,786,394,792.61,383.2c9.59-15.67,46.61-43.9,44.35-82.74-1.06-18.35.82-37.55,9.49-53.76C854.39,231.85,875.15,217.36,891.7,220.28Z" fill="#5c04a0"/>
    </clipPath>
    <clipPath id="clip-path-3">
      <path d="M875.61,275.77c-13.17,34.49-18.22,75.57-36.41,107.7-4.18,7.38-4.68,14.22-4.49,21.76.46,18.79,7.44,36.64,18.65,51.73,9.85,13.26,11.27,50.52-.42,62.18-6,5.94-14.81,7.67-23.1,9.11L762.5,540c-8.1,1.41-20-4.56-27.75-7.4-11.31-4.17-18.25-24.44-19.62-36.42-2.19-19.12,5.77-37.78,13.55-55.39,21.61-48.91,13.05-80.41,47.15-126.34,11.43-15.4,39.75-52.06,54.89-74.43,6.64-9.8,39.61-18.34,47.88-5.35C886.52,247.13,880.33,263.43,875.61,275.77Z" fill="#5c04a0"/>
    </clipPath>
  </defs>
  <title>Vector 1</title>
  <g>
    <path d="M883.77,221.66s-26.31,9.76-15.52,43.11,101,77.47,130.43,110.81c23.85,27,75.51,34.33,90.22,2s56.88-104.94,24.52-140.24-73.55-38.25-85.32-7.85-5.89,41.19-24.52,55.9S933.62,211.9,883.77,221.66Z" fill="#5c04a0"/>
    <g clip-path="url(#clip-path)">
      <path d="M1094.33,233.37c15.56,9.82,18.16,27.34,17.68,35.67s-3.36,16.31-6.21,24.15L1088,342.24c-5.44,15-12.5,31.64-27.43,37.21-9.37,3.49-20,1.63-29.06-2.7s-16.7-10.93-24.4-17.31A831.19,831.19,0,0,0,917.85,295c-19.37-12.12-40.52-24.86-49.26-46" fill="none" stroke="#fff" stroke-linecap="round" stroke-linejoin="round" stroke-width="2" opacity="0.15"/>
      <path d="M1090.65,245.38c8.45,7.62,6.45,24.5,3.83,30.41l-26.19,59c-3,6.77-6.41,14-12.86,17.63-5.33,3-12,3-17.81,1.21s-11.09-5.13-16.13-8.58c-27.93-19.14-52.91-42.74-82.82-58.61-12.5-6.63-25.74-11.84-37.89-19.09s-23.42-16.93-29.29-29.8" fill="none" stroke="#fff" stroke-linecap="round" stroke-linejoin="round" stroke-width="2" opacity="0.15"/>
      <path d="M1076.5,248.25c-3.72,15.15-15,50.24-23.56,63.24-2.61,3.95-5.77,8-10.32,9.28-4,1.14-8.32-.16-12.24-1.63-38.38-14.4-68.2-45.73-105.67-62.33-8.19-3.62-16.72-6.53-24.48-11s-14.84-10.8-18.11-19.14" fill="none" stroke="#fff" stroke-linecap="round" stroke-linejoin="round" stroke-width="2" opacity="0.15"/>
      <path d="M1064.09,241.36c-7.33.36-13.75,5.33-18.09,11.25s-7.06,12.84-10.5,19.33-7.86,12.84-14.36,16.26-15.44,3.08-20.25-2.47" fill="none" stroke="#fff" stroke-linecap="round" stroke-linejoin="round" stroke-width="2" opacity="0.15"/>
      <path d="M943.76,246.34l-58.4-24.63" fill="none" stroke="#fff" stroke-linecap="round" stroke-linejoin="round" stroke-width="2" opacity="0.15"/>
      <path d="M1073.25,225.13c-4.85-4.92-12.4-6.57-19.18-5.28s-12.84,5.23-17.76,10.08-8.84,10.59-12.73,16.3" fill="none" stroke="#fff" stroke-linecap="round" stroke-linejoin="round" stroke-width="2" opacity="0.15"/>
    </g>
  </g>
  <path d="M1120.66,157.8c8.67-8.55,15.64-26.65,13.4-38.84-.66-3.59-4.11-5.62-6.31-2.71a49.82,49.82,0,0,0-3.69,6.13,69.38,69.38,0,0,1-15.43,19.28c-3.77,3.28-7.89,6.15-11.44,9.66s-10.66,13.26-11.51,18.18" fill="#ffc9e6"/>
  <path d="M1076.49,185.91c4.28-13.78,11.25-27.72,23.69-35,8.71-5.15,19.13-6.45,29.24-6.92a210.85,210.85,0,0,1,27.42.55c6,.51,12.46,1.58,16.31,6.14s2.18,13.5-3.76,14.06c6.57,1.29,8.53,11.81,2.87,15.39,4.33,4.7,5.27,11.67-9,16.75-6.48,2.3-13.64-1.42-20.51-1.7-18.54-.75-36.93,11.25-43.69,28.54-2.49,6.34-3.7,13.55-8.51,18.39-10.37,10.41-28.8,1.61-27.65-13,.45-5.64,4.6-11.29,6.33-16.66C1072,203.69,1073.77,194.66,1076.49,185.91Z" fill="#ffc9e6"/>
  <path d="M1128.22,116.77a7.51,7.51,0,0,1-6.47,11.24l5.87-10.46" fill="none" stroke="#000" stroke-linecap="round" stroke-linejoin="round"/>
  <path d="M713.2,846.37c-.62,2.25-43.1,88.86-43.1,88.86l-39.7-11,44.69-91.64L714,843.38" fill="#ffc9e6"/>
  <polygon points="698.49 877.12 659.88 863.8 630.4 924.25 671.05 934.68 698.49 877.12" fill="#fca1bb"/>
  <polygon points="695.57 883.25 657.04 869.63 654.24 875.37 692.61 889.45 695.57 883.25" fill="#151614"/>
  <polygon points="691.59 891.83 652.3 878 649.5 883.74 688.63 898.02 691.59 891.83" fill="#fff"/>
  <g>
    <path d="M601.35,982.06c-5.37-2.16-5.52-13.78-4.2-19.41,5.61-23.91,20.24-48.79,37.77-64.27a5.78,5.78,0,0,1,8.87,1.52c4,7.35,13.42,17.4,33,10.1,7-2.62,9.5-12,16.29-15.17,8.69-4.07,21.43-1.68,22.79,9.92a16.38,16.38,0,0,1-1.27,8.29c-3,7.06-9.26,11.56-15.4,15.75a177.32,177.32,0,0,0,47.69,38.84c8.37,4.67,17.15,8.68,24.91,14.31s14.58,13.17,17.1,22.42c1.21,4.45.62,12.21-.82,18.95a9.69,9.69,0,0,1-12.07,7.33Z" fill="#fff" stroke="#000" stroke-miterlimit="10"/>
    <path d="M789.43,1014.14s-141.61-34.23-188.72-63" fill="#fff" stroke="#000" stroke-miterlimit="10"/>
    <path d="M739.7,964.17c-10.24,3.59-21.9.5-30.91-5.56S693,943.81,686.48,935.1l14.24-6.94" fill="none" stroke="#000" stroke-miterlimit="10"/>
    <path d="M724.31,953.33c-5.47,2.91-9.67,5.72-15.86,5.48" fill="none" stroke="#000" stroke-miterlimit="10"/>
    <path d="M712,941.24a55.32,55.32,0,0,1-16.83,5.81" fill="none" stroke="#000" stroke-miterlimit="10"/>
    <path d="M685.15,984.59c-1.87-11-10.56-19.64-19.94-25.69s-19.88-10.34-28.72-17.14-16.13-17.14-15.22-28.26" fill="none" stroke="#000" stroke-miterlimit="10"/>
    <path d="M672,981.78c-4.45-8.17-12.49-13.76-20.75-18.06s-17.05-7.65-24.71-12.94-14.29-13-15.49-22.24" fill="none" stroke="#000" stroke-miterlimit="10"/>
  </g>
  <path d="M1037.18,848c.24,2.32-8.15,98.42-8.15,98.42l-41,4.09L996.67,849l40.21-4" fill="#ffc9e6"/>
  <polygon points="1034.55 884.96 993.74 886.46 988.05 953.48 1029.73 948.54 1034.55 884.96" fill="#fca1bb"/>
  <polygon points="1034.6 879.78 993.74 879.35 992.95 885.7 1033.81 886.6 1034.6 879.78" fill="#151614"/>
  <polygon points="1033.42 898.22 991.79 899.49 991.25 905.86 1032.9 905.07 1033.42 898.22" fill="#fff"/>
  <g>
    <path d="M1026.22,922.59c5.61-5,4.53-14.61,9.72-20,6.64-6.94,19.38-9.31,24.84,1a16.46,16.46,0,0,1,1.8,8.19c-.25,7.66-4.46,14.12-8.68,20.24a177,177,0,0,0,58.49,19c9.49,1.34,19.13,1.92,28.39,4.36s18.35,7,24,14.75c4.31,5.84,8.06,14.45,7.27,21.71a8.45,8.45,0,0,1-6.91,7.3c-58.57,10.81-95.85,12.38-182.72,11.3a11.76,11.76,0,0,1-11.54-10c-3.39-24.32,1.28-52.8,12.05-73.56a5.78,5.78,0,0,1,8.82-1.79C998.2,930.48,1010.57,936.47,1026.22,922.59Z" fill="#fff" stroke="#000" stroke-miterlimit="10"/>
    <path d="M1168.82,979.09s-144.42,19.16-198.74,9.31" fill="#fff" stroke="#000" stroke-miterlimit="10"/>
    <path d="M1104.42,950.43c-8.27,7-20.25,8.37-30.84,6s-20.1-8.09-29.29-13.87l10.78-11.62" fill="none" stroke="#000" stroke-miterlimit="10"/>
    <path d="M1086.15,945.87c-4.05,4.69-7,8.82-12.82,10.83" fill="none" stroke="#000" stroke-miterlimit="10"/>
    <path d="M1070.32,939a55.35,55.35,0,0,1-13.61,11.49" fill="none" stroke="#000" stroke-miterlimit="10"/>
    <path d="M1060.9,989.15c-5.71-9.59-16.93-14.51-27.86-16.76s-22.27-2.48-33-5.63-21.22-10.17-24.38-20.87" fill="none" stroke="#000" stroke-miterlimit="10"/>
    <path d="M1047.58,991.29c-7.1-6-16.61-8.33-25.86-9.36s-18.67-1-27.72-3.15-18-7-22.47-15.16" fill="none" stroke="#000" stroke-miterlimit="10"/>
  </g>
  <path d="M829.41,384.41S751,415.79,757.82,508s0,140.23,0,140.23l-111,203.17A7.28,7.28,0,0,0,651.78,862l72.3,14.6a24.23,24.23,0,0,0,24.34-9.42c29.51-40.22,120.19-166.68,130-215,11.76-57.86-5.51-231.31,11.95-253.93Z" fill="#1b0042"/>
  <path d="M866.37,384.92s-47.38,70,10,142.45S955,643.5,955,643.5L968.21,848A22.25,22.25,0,0,0,990,868.82l53.94,1a22.24,22.24,0,0,0,22.66-21.2c2.86-61.3,9.07-224.89-9.51-269.54-22.69-54.51-134.22-188.46-132.45-217Z" fill="#1b0042"/>
  <path d="M907.86,117.17s17.38,1.62,29.54,21c11.54,18.43,18.67,64,6.8,64S907.93,196,907.93,196l4,30.22-34,1.81s-4.19-38.8-13.28-60.06c-.19-.44-.37-.89-.54-1.33-7.76-20.1,4.16-42.3,24.92-48.08A43.37,43.37,0,0,1,907.86,117.17Z" fill="#ffc9e6"/>
  <path d="M927.85,137.76c-8.89,8.93-20,15-30.23,19.66-1.48.69-2.83,1.49-3.79.17-2.14-2.94-6.62-5.38-9.75-5.43-4-.08-8.16,1.15-10,4.7-2.29,4.47-.28,9.86,2.56,13.94.61.88.08,2,1,2.56L879,173c2.58,1.7,5.71,1.47,4.16,4.14a151.7,151.7,0,0,1-11.62,15.67,123.7,123.7,0,0,1-10-30.11c-2.07-10.12-1.25-21.26,4.48-29.86,5.12-7.65,13.69-12.56,22.67-14.58s18.37-1.39,27.43.28a43,43,0,0,1,18.37,8.39A19.11,19.11,0,0,1,940.9,144S936.65,143.88,927.85,137.76Z" fill="#1b0042"/>
  <path d="M908.2,195.87l-16.39-2.62a26,26,0,0,0,18.14,18Z" fill="#1b0042"/>
  <path d="M914.23,159.05a16.63,16.63,0,0,1,7-1.3,7.83,7.83,0,0,1,5.58,2.82,1.3,1.3,0,0,1-.62,2c-3.6,1.27-7.2,1.76-10.85.44a4.46,4.46,0,0,1-1.88-1.13A1.82,1.82,0,0,1,914.23,159.05Z" fill="none" stroke="#000" stroke-linecap="round" stroke-linejoin="round"/>
  <path d="M932.56,156.3a70.59,70.59,0,0,0,6.84,14c.47.74,1,1.66.59,2.45s-1.29,1-2.1,1.1L930,175.12" fill="none" stroke="#000" stroke-linecap="round" stroke-linejoin="round"/>
  <path d="M922.58,160.19a2,2,0,0,0,3.55,1.61A2,2,0,1,0,922.58,160.19Z"/>
  <path d="M926.85,153.13c-.65-1.17-2.12-1.59-3.45-1.75a19.18,19.18,0,0,0-10.09,1.5" fill="none" stroke="#000" stroke-linecap="round" stroke-linejoin="round"/>
  <path d="M946.89,151.76a8.93,8.93,0,0,0-9,.43" fill="none" stroke="#000" stroke-linecap="round" stroke-linejoin="round"/>
  <path d="M932.3,182.47a8,8,0,0,1,10.79-1.92C939.7,181,935.68,182,932.3,182.47Z" fill="none" stroke="#000" stroke-linecap="round" stroke-linejoin="round"/>
  <path d="M943.17,180.93a5.53,5.53,0,0,1-4.58,4c-2.14.25-5.7-.56-6.7-2.46"/>
  <path d="M889.37,169.71c4.12-2.35,10.11.24,12.11,5.25s-.47,11.31-5,12.72-10-2.37-11.17-7.65" fill="none" stroke="#fff" stroke-linecap="round" stroke-linejoin="round"/>
  <path d="M889.82,165.81A13,13,0,0,0,878.44,159" fill="none" stroke="#000" stroke-linecap="round" stroke-linejoin="round"/>
  <path d="M883.71,160.22a8.76,8.76,0,0,0,.8,10" fill="none" stroke="#000" stroke-linecap="round" stroke-linejoin="round"/>
  <ellipse cx="838.07" cy="194.12" rx="35.68" ry="28.99" transform="translate(10.8 430.04) rotate(-28.96)" fill="#1b0042"/>
  <path d="M911,163.34c-.13-.42-16.85-4.15-16.85-4.15-2.07-4.41-6.69-7.66-11.55-7.55s-9.55,4-10.05,8.81c-.35,3.26,1.08,6.48,3,9.18a15.18,15.18,0,0,0,6.51,5.72c2.71,1.09,6.1.86,8.24-1.13" fill="none" stroke="#000" stroke-linecap="round" stroke-linejoin="round"/>
  <path d="M939,164.12s-3.1-2.71-6.87,1" fill="none" stroke="#000" stroke-linecap="round" stroke-linejoin="round"/>
  <g>
    <path d="M891.7,220.28a53.3,53.3,0,0,0,8.37.79c7.9.17,15.28,6.49,19.87,13.38,5.35,8,9,17.51,16.36,23.72,5.92,5,6.92,8.35,12.24,13.95,6.67,7,8.88,19.2,5.12,28.13-2.18,5.18.06,10.58-4.39,14-5.94,4.63-9.72,23-8.15,30.36,3.24,15.27,5.83,17.12,10.48,32.13,2.86,9.24,5.47,20.15-.36,27.87-6,7.91-17.44,6.79-25.72,1.33-12-7.87-38-3.7-49,2.95-9.23,5.55-35,20.17-45.4,23.09s-21.11,6-31.77,4.41-21.27-9.19-22.57-19.88C775.22,404,786,394,792.61,383.2c9.59-15.67,46.61-43.9,44.35-82.74-1.06-18.35.82-37.55,9.49-53.76C854.39,231.85,875.15,217.36,891.7,220.28Z" fill="#5c04a0"/>
    <g clip-path="url(#clip-path-2)">
      <path d="M879,220.77c6.12,8.59,12.3,17.27,16.41,27s6.06,20.69,3.39,30.9c-5,19-23.67,30.34-36.36,45.27-9.92,11.68-16.3,25.9-22.15,40.07S829,392.62,820.44,405.35s-20.58,23.79-35.36,27.85" fill="none" stroke="#fff" stroke-linecap="round" stroke-linejoin="round" stroke-width="2" opacity="0.15"/>
      <path d="M890.53,219.86c7.54,11.26,15.16,22.66,19.91,35.36s6.43,27,1.91,39.8c-5.75,16.25-20.3,27.47-30.72,41.19C870,351.53,863.5,370,856.17,387.78s-16.08,35.74-30.81,48.11" fill="none" stroke="#fff" stroke-linecap="round" stroke-linejoin="round" stroke-width="2" opacity="0.15"/>
      <path d="M905.11,220.63l21.51,42c4.17,8.13,8.43,16.65,8.47,25.79.07,15.2-11.22,27.66-20.64,39.59a215.68,215.68,0,0,0-40.18,82.49" fill="none" stroke="#fff" stroke-linecap="round" stroke-linejoin="round" stroke-width="2" opacity="0.15"/>
      <path d="M940.31,261.32c5.74,12.88,11.6,26.72,9.25,40.63s-12.6,25.21-20,37.4A100.18,100.18,0,0,0,916.79,408" fill="none" stroke="#fff" stroke-linecap="round" stroke-linejoin="round" stroke-width="2" opacity="0.15"/>
      <path d="M945.05,347.68a88.76,88.76,0,0,0-1.47,63.84" fill="none" stroke="#fff" stroke-linecap="round" stroke-linejoin="round" stroke-width="2" opacity="0.15"/>
    </g>
  </g>
  <path d="M906.14,426.86c-20.47,33.13-30.42,73.77-24,112.18" fill="none" stroke="#fff" stroke-linecap="round" stroke-linejoin="round" stroke-width="2"/>
  <path d="M902.07,220.16c6.53.78,13.85,7.56,17.65,12.92s6.5,11.46,10.47,16.7c5.81,7.67,11.09,16.08,17.64,23.14s11,35-6.17,58.51" fill="none" stroke="#fff" stroke-linecap="round" stroke-linejoin="round" stroke-width="2"/>
  <circle cx="922.09" cy="164.25" r="11.28"/>
  <circle cx="948.56" cy="162.29" r="11.28"/>
  <g>
    <path d="M1148.24,170.91l-.7,0a4.86,4.86,0,0,1-3.64-1.54c-.84-1-1.12-2.66-.82-4.83a405,405,0,0,0,3.15-48.46c3.55.18,7.29.39,11,.73-.41,16.39-1.12,33.58-3.43,48.52C1153.24,169.12,1151.46,170.91,1148.24,170.91Z" fill="#fff"/>
    <path d="M1146.72,116.57c3.25.17,6.66.37,10,.66-.41,16.23-1.13,33.22-3.41,48-.71,4.6-3.1,5.19-5.1,5.19q-.33,0-.66,0a4.41,4.41,0,0,1-3.29-1.35c-.75-.93-1-2.43-.72-4.45a401.51,401.51,0,0,0,3.15-48m-1-1a402,402,0,0,1-3.16,48.92c-.66,4.81,1.42,6.7,4.93,6.94l.73,0c3.13,0,5.39-1.55,6.09-6,2.37-15.33,3.05-32.94,3.44-49.05-4-.38-8-.59-12-.8Z"/>
  </g>
  <g>
    <path d="M1169.18,117.27c-12.33-.18-32.22-2.09-41.26-4-6-1.24-6-2.19-6.19-5,0-.53-.06-1.11-.13-1.76-.58-5.16.1-11,.75-16.58.3-2.59.58-5,.74-7.34.24-3.6,1.87-5.13,5.45-5.13h.65c11.31.57,23.72,1.71,35.72,2.82l6.62.6c-.23,3.76-.43,7.56-.62,11.25C1170.49,100.4,1170.05,108.92,1169.18,117.27Z" fill="#fff"/>
    <path d="M1128.54,77v1h.63c11.3.57,23.72,1.71,35.73,2.82l6.1.56c-.22,3.6-.41,7.23-.59,10.76-.41,8.08-.84,16.43-1.68,24.62-12.33-.22-31.8-2.1-40.71-3.94-5.6-1.17-5.64-1.88-5.79-4.55,0-.52-.06-1.12-.14-1.78-.57-5.1.1-10.88.75-16.47.3-2.59.59-5,.74-7.37.23-3.31,1.66-4.66,5-4.66V77m0,0c-3.84,0-5.7,1.77-6,5.6-.49,7.33-2.34,16.41-1.49,24,.47,4.2-.77,5.64,6.72,7.2,9.5,2,30,3.84,41.81,4,1.32-12.4,1.65-24.85,2.43-37.31-14-1.27-29.25-2.79-42.84-3.47Z"/>
  </g>
  <path d="M1172.17,80.11c22.25-.68,42.45-4.93,62.83-13.93q-2.82,37.21-5.57,74.46c-18.61-12-37.54-19.67-59.58-22.48" fill="#fff" stroke="#000" stroke-miterlimit="10"/>
  <g>
    <path d="M1234.16,157.48q-.36,0-.72,0c-2.08-.17-5.51-1.16-5.17-6,1.91-27.11,4.08-55.49,6.17-82.94l1-13.11c.32-4.2,3.06-5.08,5.3-5.08q.36,0,.72,0c2.09.17,5.53,1.17,5.19,5.95-2,27.27-4.56,62.83-7.21,96.07C1239.11,156.59,1236.38,157.48,1234.16,157.48Z" fill="#fff"/>
    <path d="M1240.74,50.85h0c.23,0,.45,0,.68,0,2.33.19,5,1.28,4.73,5.42-2.09,29-4.58,63.08-7.21,96.06-.24,3.06-1.85,4.62-4.78,4.62-.23,0-.45,0-.68,0-2.31-.18-5-1.28-4.71-5.43,1.9-27,4.06-55.26,6.14-82.58l1-13.47c.23-3.07,1.85-4.62,4.8-4.62m0-1c-3,0-5.5,1.53-5.8,5.54-2.39,31.45-5,64.6-7.17,96.06-.31,4.35,2.27,6.23,5.63,6.5.25,0,.51,0,.76,0,3,0,5.46-1.54,5.78-5.54,2.5-31.46,4.94-64.6,7.21-96.07.31-4.35-2.32-6.22-5.64-6.49l-.77,0Z"/>
  </g>
  <path d="M1164.67,181.23A116,116,0,0,1,1141,185c-4.34.24-9.74-.44-11.27-4.51-1-2.77.43-6,2.74-7.83s5.28-2.62,8.17-3.24a128.22,128.22,0,0,1,25.76-2.83c-8.83.61-17.34.1-26.19-.15a21.55,21.55,0,0,1-7.91-1.25c-2.47-1.06-4.62-3.26-4.87-5.93s1.56-5.35,3.9-6.82a21.49,21.49,0,0,1,7.83-2.47,250.11,250.11,0,0,1,25.57-3.06" fill="#ffc9e6" stroke="#000" stroke-miterlimit="10"/>
  <path d="M1170.34,164.78c-5.16.67-16,1.73-21.12,2.41" fill="none" stroke="#000" stroke-linecap="round" stroke-linejoin="round"/>
  <path d="M1172.75,179.91c-3.55.61-15.9,3-19.45,3.6" fill="#fff" stroke="#000" stroke-linecap="round" stroke-linejoin="round"/>
  <path d="M1142.86,183.29l-.27-10a21.3,21.3,0,0,0-6,.35,5.84,5.84,0,0,0-4,3.36c-.89,2.46.7,5.29,3,6.54S1140.27,183.61,1142.86,183.29Z" fill="none" stroke="#000" stroke-linecap="round" stroke-linejoin="round"/>
  <path d="M1139.92,163.68l-.27-10a20.93,20.93,0,0,0-6,.35,5.85,5.85,0,0,0-4,3.36c-.89,2.45.71,5.28,3,6.53S1137.33,164,1139.92,163.68Z" fill="none" stroke="#000" stroke-linecap="round" stroke-linejoin="round"/>
  <path d="M1164.65,196.6c-7.69,2.84-19.15,3.1-27.34,3.42-2.21.08-4.85-.16-5.92-2.1-1.49-2.7,1.44-5.67,4.11-7.2,9.26-5.3,19.84-6.53,30.55-9.74" fill="#ffc9e6" stroke="#000" stroke-miterlimit="10"/>
  <path d="M1145,199.27l.17-6.94a19.63,19.63,0,0,0-7,1.53c-2.17,1.07-4,3.18-4,5.6l10.51.26" fill="none" stroke="#000" stroke-linecap="round" stroke-linejoin="round"/>
  <path d="M1118.86,179.82c7.53-10.51,5.06-25.42,11.07-36.86" fill="none" stroke="#000" stroke-miterlimit="10"/>
  <g>
    <path d="M875.61,275.77c-13.17,34.49-18.22,75.57-36.41,107.7-4.18,7.38-4.68,14.22-4.49,21.76.46,18.79,7.44,36.64,18.65,51.73,9.85,13.26,11.27,50.52-.42,62.18-6,5.94-14.81,7.67-23.1,9.11L762.5,540c-8.1,1.41-20-4.56-27.75-7.4-11.31-4.17-18.25-24.44-19.62-36.42-2.19-19.12,5.77-37.78,13.55-55.39,21.61-48.91,13.05-80.41,47.15-126.34,11.43-15.4,39.75-52.06,54.89-74.43,6.64-9.8,39.61-18.34,47.88-5.35C886.52,247.13,880.33,263.43,875.61,275.77Z" fill="#5c04a0"/>
    <g clip-path="url(#clip-path-3)">
      <path d="M735.88,534.22c-10.18-33.33-1.81-69.18,6.59-103,7-28.26,14.1-56.71,26-83.27,13.9-30.87,34-58.45,54-85.78,9.45-12.93,19.08-26,31.82-35.75" fill="none" stroke="#fff" stroke-linecap="round" stroke-linejoin="round" stroke-width="2" opacity="0.15"/>
      <path d="M748.68,538.36c-2.45-34.54,4.69-69,11.79-102.85,5.79-27.69,11.64-55.54,22-81.86,18.18-46.14,49.48-85.71,80.33-124.54" fill="none" stroke="#fff" stroke-linecap="round" stroke-linejoin="round" stroke-width="2" opacity="0.15"/>
      <path d="M778.4,490.32a507.27,507.27,0,0,1,95.37-258.7" fill="none" stroke="#fff" stroke-linecap="round" stroke-linejoin="round" stroke-width="2" opacity="0.15"/>
      <path d="M810.75,531.23a371.42,371.42,0,0,1,32.9-213.59c11.14-23.06,24.66-44.9,36-67.88" fill="none" stroke="#fff" stroke-linecap="round" stroke-linejoin="round" stroke-width="2" opacity="0.15"/>
      <path d="M835.09,526.59c7.91-24.6,2.6-51.22-1.66-76.7s-7.11-53.07,5-75.93" fill="none" stroke="#fff" stroke-linecap="round" stroke-linejoin="round" stroke-width="2" opacity="0.15"/>
    </g>
  </g>
  <path d="M767.88,489.71A10.46,10.46,0,0,0,759.33,501a124.19,124.19,0,0,1-.81,30.09c-1.78,11.87-5.3,23.72-4,35.66,2.29,21.34,12.29,34.64,21.09,59.81,1.24,3.57,3,7,3.86,10.74.31,1.37.88,3,2.61,2.91a2.73,2.73,0,0,0,1.78-.79c3.22-3,5.32-6.49,4.72-10.83a85.63,85.63,0,0,0,5.34,14.93,3.57,3.57,0,0,0,6.07.66,16.77,16.77,0,0,0,3.52-11.11,53.28,53.28,0,0,0,7.3,13.42,3.82,3.82,0,0,0,6.56-.77c2.48-5.71-.43-15.41-2.55-21.44-2.76-7.89-5.37-12.07-9-19.58-6.57-13.41-7.71-28.55-4.38-43.11,6.17,5.8,7.25,15,8,23.49s2,17.7,8.36,23.3a1.67,1.67,0,0,0,1.54.57c.65-.23.77-1.08.78-1.77.24-18.46.43-37.27-5-54.91-5.23-17-15.6-32.67-17.83-50a12.39,12.39,0,0,0-7.13-9.59A37.85,37.85,0,0,0,767.88,489.71Z" fill="#ffc9e6"/>
  <path d="M780.22,564.16c-3.37,6.53-.55,14.41,2.28,21.2,7.21,17.2,15.18,34,22.39,51.19" fill="none" stroke="#000" stroke-linecap="round" stroke-linejoin="round"/>
  <path d="M769.35,565.58c-2.56,10.94,2.06,23.91,6.93,34s10.19,20.28,12.78,31.22" fill="none" stroke="#000" stroke-linecap="round" stroke-linejoin="round"/>
  <path d="M802.39,553.21l-2.26,15.14" fill="none" stroke="#000" stroke-linecap="round" stroke-linejoin="round"/>
  <path d="M808.2,629.81a3,3,0,0,1,1.62.35,2.89,2.89,0,0,1,1,1.7,43.84,43.84,0,0,1,1.68,9.24,5.18,5.18,0,0,1-.29,2.6,1.92,1.92,0,0,1-2.15,1.14,2.86,2.86,0,0,1-1.34-1.3,58,58,0,0,1-5.16-9.88C801.88,629.34,804.68,629.73,808.2,629.81Z" fill="none" stroke="#000" stroke-linecap="round" stroke-linejoin="round"/>
  <path d="M794.59,628.88a2.23,2.23,0,0,1,2.24,2.44,43.36,43.36,0,0,1,.15,9.39,5.15,5.15,0,0,1-.71,2.53,1.91,1.91,0,0,1-2.3.77,2.83,2.83,0,0,1-1.11-1.5,58.38,58.38,0,0,1-3.49-10.59C788.42,627.39,791.12,628.23,794.59,628.88Z" fill="none" stroke="#000" stroke-linecap="round" stroke-linejoin="round"/>
  <path d="M781.76,627.93a1.71,1.71,0,0,1,1.65,1.92,33.71,33.71,0,0,1-.1,7.17,4,4,0,0,1-.6,1.91,1.46,1.46,0,0,1-1.78.53,2.19,2.19,0,0,1-.81-1.17,43.92,43.92,0,0,1-2.41-8.16C777.09,626.65,779.13,627.35,781.76,627.93Z" fill="none" stroke="#000" stroke-linecap="round" stroke-linejoin="round"/>
  <path d="M820.15,593.41l-4.79-.55s-.43,10.9,3.3,14.66a.84.84,0,0,0,1.43-.61Z" fill="none" stroke="#000" stroke-linecap="round" stroke-linejoin="round"/>
  <path d="M842,430.06c-9.1-17.62-8.39-39-2.86-58s15.44-36.46,24.44-54.14,18.24-34.28,20-54c.62-7-.63-18.25-3.73-24.55s-9.58-11.33-16.59-11" fill="none" stroke="#fff" stroke-linecap="round" stroke-linejoin="round" stroke-width="2"/>
</svg>
