<svg id="Layer_1" data-name="Layer 1" xmlns="http://www.w3.org/2000/svg" xmlns:xlink="http://www.w3.org/1999/xlink" viewBox="0 0 1920 1080">
  <defs>
    <clipPath id="clip-path">
      <path d="M516.67,629.86c9.9-4.91,19.44-11,30.24-13.34s23.65.18,29.75,9.39c6.33,9.56-18.2,87.39-23.3,97.65-7.28,14.65-4.14,32.42-8.23,48.26-4,15.39-17,17.27-31,24.8s-30,10.58-45.81,11.92a235.72,235.72,0,0,1-68.48-4.25c-8-1.69-16.13-3.9-22.68-8.79s-11.25-13-9.95-21.09C369,763,381.69,755.56,383.31,744.1c1.11-7.83-3.34-15.43-8.82-21.14s-12.11-10.26-17.13-16.37C343.51,689.7,345,665.4,347.17,643.67c3.9-38.75,38.91-19.95,59.56-7.85,27.33,16,28.74,11,60.26,8A142.41,142.41,0,0,0,516.67,629.86Z" fill="#5c04a0"/>
    </clipPath>
    <clipPath id="clip-path-2">
      <path d="M365.11,630a23.5,23.5,0,0,0-34.58,7.79,48,48,0,0,0-3.31,7.77c-3.85,11.86-4,24.58-6.93,36.7-5.91,24.57-22.55,45-39.86,63.47s-36.05,36.12-47.87,58.46c-8.63,16.28-13,36.86-3.67,52.75,7.7,13.13,22.89,19.94,37.7,23.45,64.51,15.29,132.35-17.17,197.72-6.08,14.72,2.5,29,7.19,43.79,9.43s30.57,1.83,43.69-5.3c20.58-11.19,29.91-37.13,27-60.37s-16-44-31-62c-12.8-15.28-28.67-29.86-48.38-32.76-20.54-3-40.38,7.17-59.35,15.59s-41.34,15.23-59.9,5.93a39.59,39.59,0,0,1-21.36-32.69c-.5-9.58,2.56-19,5.95-28s7.17-18,8.24-27.52-1-20-7.88-26.67Z" fill="#5c04a0"/>
    </clipPath>
  </defs>
  <title>Vector 1</title>
  <rect x="849.77" y="209" width="436.53" height="292.05" rx="25.44" fill="#fff" stroke="#000" stroke-miterlimit="10" stroke-width="2"/>
  <g>
    <g>
      <path d="M1068,396.83a74.29,74.29,0,1,1,74.28-74.28A74.36,74.36,0,0,1,1068,396.83Zm-16.4-104.23a4.91,4.91,0,0,0-4.87,4.93v50a4.91,4.91,0,0,0,4.91,4.92,4.85,4.85,0,0,0,2.51-.7l41.43-25a5,5,0,0,0,1.65-1.65,4.94,4.94,0,0,0-1.65-6.79l-41.43-25a4.86,4.86,0,0,0-2.52-.7h0Z" fill="#fff"/>
      <path d="M1068,249.26a73.29,73.29,0,1,1-73.28,73.29A73.37,73.37,0,0,1,1068,249.26m-16.36,104.23a5.91,5.91,0,0,0,3-.84l41.43-25a6.07,6.07,0,0,0,2-2,6,6,0,0,0-2-8.17l-41.43-25a6,6,0,0,0-3.07-.84h0a5.9,5.9,0,0,0-5.87,5.92v50a5.78,5.78,0,0,0,.84,3.06,5.93,5.93,0,0,0,5.07,2.87M1068,247.26a75.29,75.29,0,1,0,75.28,75.29A75.37,75.37,0,0,0,1068,247.26Zm-16.36,104.23a3.92,3.92,0,0,1-3.91-3.92V297.52a3.9,3.9,0,0,1,3.88-3.92h0a3.94,3.94,0,0,1,2,.55l41.42,25a4,4,0,0,1,1.32,5.42,4,4,0,0,1-1.32,1.31l-41.42,25a3.94,3.94,0,0,1-2,.55Z"/>
    </g>
    <g>
      <path d="M1228,448.53H908.12c-2.9,0-5.26-1.88-5.26-4.19h0c0-2.32,2.36-4.19,5.26-4.19H1228c2.91,0,5.27,1.87,5.27,4.19h0C1233.22,446.65,1230.86,448.53,1228,448.53Z" fill="#fff" stroke="#000" stroke-linecap="round" stroke-linejoin="round" stroke-width="2"/>
      <path d="M998.79,455.2V433.48a4.19,4.19,0,0,1,4.19-4.19h0a4.18,4.18,0,0,1,4.19,4.19V455.2a4.19,4.19,0,0,1-4.19,4.19h0A4.2,4.2,0,0,1,998.79,455.2Z" fill="#fff" stroke="#000" stroke-linecap="round" stroke-linejoin="round" stroke-width="2"/>
    </g>
  </g>
  <g>
    <path d="M1103,762.11c2.73-.66,118.92-6.59,118.92-6.59l11.68,48.27-122.78,6.57L1099.36,763" fill="#ffc9e6"/>
    <polygon points="1144.04 759.62 1152.6 808.12 1233.6 803.79 1220.79 754.83 1144.04 759.62" fill="#fca1bb"/>
    <g>
      <path d="M1190.3,761.67c-6.89-5.88-18.21-3-25.54-8.28-7.48-5.41-12.14-15.92-7.93-24.14,3.4-6.65,11.57-9.76,19-9.32s14.43,3.75,21.12,7.1a214,214,0,0,0,13-73c0-11.55-.89-23.16.5-34.63s5.34-23.09,13.62-31.16c6.27-6.12,15.92-12,24.73-12.28a10.18,10.18,0,0,1,9.87,7c22.85,68.85,30.85,113.32,44.21,219.48a10.63,10.63,0,0,1-7.4,11.45c-29,9.06-65.39,8.5-92.93-1.26a7,7,0,0,1-3.6-10.25C1204.37,793.82,1209.47,778.05,1190.3,761.67Z" fill="#fff" stroke="#000" stroke-miterlimit="10"/>
      <path d="M1234.12,582s46.85,169.34,44.1,235.86" fill="#fff" stroke="#000" stroke-miterlimit="10"/>
      <path d="M1210.56,663.64c9.79,8.7,13.36,22.8,12.24,35.84s-6.32,25.36-11.71,37.3l-15.66-10.95" fill="none" stroke="#000" stroke-miterlimit="10"/>
      <path d="M1208.15,686.22c6.27,4.06,11.69,6.85,15.07,13.51" fill="none" stroke="#000" stroke-miterlimit="10"/>
      <path d="M1202.62,706.26a67.21,67.21,0,0,1,16,14.34" fill="none" stroke="#000" stroke-miterlimit="10"/>
      <path d="M1264,709.2c-10.51,8.41-14.52,22.62-15.4,36s.74,27-1.25,40.33-8.62,27-20.88,32.59" fill="none" stroke="#000" stroke-miterlimit="10"/>
      <path d="M1268.81,724.75c-6,9.48-7.19,21.23-6.89,32.45s1.92,22.46.84,33.63-5.35,22.69-14.38,29.35" fill="none" stroke="#000" stroke-miterlimit="10"/>
    </g>
    <polygon points="1152.21 759.11 1160.42 807.7 1168.11 807.29 1160.48 758.59 1152.21 759.11" fill="#151614"/>
    <polygon points="1163.58 758.28 1172.01 807.79 1179.7 807.38 1171.85 757.77 1163.58 758.28" fill="#fff"/>
    <polygon points="539.17 694.18 1132.89 703.64 1132.89 811.26 511.97 859.75 539.17 694.18" fill="#1b0042"/>
  </g>
  <g>
    <path d="M1038.53,691c2.22,1.72,79.42,88.75,79.42,88.75L1087.55,819l-81.81-91.79,29.83-38.53" fill="#ffc9e6"/>
    <polygon points="1066.11 721.49 1033.58 758.47 1087.55 819.02 1117.79 778.44 1066.11 721.49" fill="#fca1bb"/>
    <g>
      <path d="M1093.4,758.89c.29-9-9-16.08-9.48-25.11-.45-9.22,4.85-19.42,13.89-21.27,7.33-1.5,14.85,2.94,19.17,9s6.08,13.61,7.64,20.92A213.69,213.69,0,0,0,1189.77,707c9-7.2,17.54-15.16,27.37-21.24s21.37-10.25,32.84-8.82c8.69,1.07,19.33,4.92,25,11.64a10.18,10.18,0,0,1,.67,12.1c-39.49,60.85-69.22,94.87-143.79,171.6a10.63,10.63,0,0,1-13.57,1.38c-25.2-17-47.47-45.77-57-73.37a7,7,0,0,1,5.75-9.22C1077.08,790,1092.58,784.1,1093.4,758.89Z" fill="#fff" stroke="#000" stroke-miterlimit="10"/>
      <path d="M1261.12,680.88s-103,142.35-156.66,181.74" fill="#fff" stroke="#000" stroke-miterlimit="10"/>
      <path d="M1182.62,713.5c-.69,13.08-9.46,24.67-20.35,31.94s-23.76,10.9-36.44,14.15l-1.23-19.07" fill="none" stroke="#000" stroke-miterlimit="10"/>
      <path d="M1163.48,725.72c.74,7.43,2,13.41-1.14,20.21" fill="none" stroke="#000" stroke-miterlimit="10"/>
      <path d="M1144.36,733.91a66.87,66.87,0,0,1-1.22,21.44" fill="none" stroke="#000" stroke-miterlimit="10"/>
      <path d="M1180.44,783.72c-13.14-3-26.74,2.79-37.78,10.49s-20.64,17.45-32.28,24.21-26.5,10.16-38.5,4.05" fill="none" stroke="#000" stroke-miterlimit="10"/>
      <path d="M1171.27,797.16c-11.16,1.22-21.07,7.64-29.65,14.88s-16.34,15.53-25.74,21.66-21.06,10-31.9,7.11" fill="none" stroke="#000" stroke-miterlimit="10"/>
    </g>
    <polygon points="1071.61 727.55 1038.78 764.31 1043.91 770.07 1077.18 733.68 1071.61 727.55" fill="#151614"/>
    <polygon points="1079.36 735.92 1045.95 773.42 1051.08 779.17 1084.92 742.05 1079.36 735.92" fill="#fff"/>
    <path d="M557.3,668.69c13.54-31.5,33-60,52.5-88.25,32.36-46.82,68.79-96.13,122.81-114,36.84-12.21,77.35-7.86,114.61,3,61.19,17.84,116.44,52.5,165.14,93.63s64.71,61.55,107.23,109c-37.58,26.1-92.52,63.72-100.29,69.63A884.11,884.11,0,0,0,841,620.1c-16.32-8.41-34.84-16.52-52.47-11.38-22.2,6.48-33.37,30.85-40.21,52.94-17.22,55.59-25.18,114.93-53.91,165.53-11.91,21-28.81,41.12-52.08,47.53-27.84,7.67-58.36-7.14-75.83-30.14C529.86,796.32,534.61,721.47,557.3,668.69Z" fill="#1b0042"/>
    <path d="M745.43,671.4s-21.7,135.24-65.1,176.6" fill="none" stroke="#fff" stroke-linecap="round" stroke-linejoin="round" stroke-width="2"/>
  </g>
  <path d="M312.73,574.94c-.27.2-35.85,27.26-44.39,134.69-6,75.91-105.67-4.7-144.7,16.59s-48.49,84-20.1,112.36C139.62,874.65,290.43,901.42,320,821s31.13-112.55,29.94-116.1,0-92.25,0-92.25V580.72Z" fill="#1b0042"/>
  <path d="M386.09,607.74c8.45,1.27,19.34,1.79,25.07-4.54,4.75-5.26,4.45-13.22,3.62-20.25-1-8.25-5.19-16.15-10.35-22.67-6.11-7.73-13.51-11.77-23.21-13.54-11.81-2.16-24.59-2.49-35.21,3.11s-18,18.61-14,29.93c-7.13,3.67-9.66,14.08-5,20.61s15.31,7.58,21.12,2.07c5,8.61.05,22.82,3.42,28.45s9.24.4,15.76,1.12c5.42.61,16.31-1.19,19.45-6.4C389.51,621,385.61,612.89,386.09,607.74Z" fill="#ffc9e6"/>
  <path d="M400.15,555.67,383,550.44s-23.6,31.4-48.11,30.16c0,0-10.79-1.25-10.53,12.83,0,0-16.13-22.21,3.35-39.95S392.15,527.92,400.15,555.67Z" fill="#1b0042"/>
  <path d="M386.51,607.54l-23.85-2.39s11.47,9.54,25.26,14.58Z"/>
  <path d="M342.85,600.29a10.45,10.45,0,0,0-11.5-11.73" fill="none" stroke="#000" stroke-linecap="round" stroke-linejoin="round"/>
  <path d="M340.22,592.59a8.23,8.23,0,0,0-4.79,5.74" fill="none" stroke="#000" stroke-linecap="round" stroke-linejoin="round"/>
  <path d="M350.32,588.9a17.25,17.25,0,0,0-18.72-8.58" fill="none" stroke="#000" stroke-linecap="round" stroke-linejoin="round"/>
  <path d="M391.94,565.83a68.26,68.26,0,0,0,8.53,12.31l-7.13,2.53" fill="none" stroke="#000" stroke-linecap="round" stroke-linejoin="round"/>
  <path d="M374.61,572.39c1.26-1.87,5.07-3.34,7.24-3.94a9.67,9.67,0,0,1,6.59.57c-1.36,2-2,3.8-5.09,4.68C379,574.93,376.77,573.47,374.61,572.39Z" fill="none" stroke="#000" stroke-linecap="round" stroke-linejoin="round"/>
  <circle cx="386.2" cy="569.9" r="1.87"/>
  <g>
    <path d="M396.52,567.12c.94-1.45,3.86-2.63,5.52-3.11a7.38,7.38,0,0,1,5.07.35c-1,1.55-1.49,2.95-3.86,3.66C399.94,569,398.19,567.92,396.52,567.12Z" fill="none" stroke="#000" stroke-linecap="round" stroke-linejoin="round"/>
    <circle cx="404.28" cy="565.11" r="1.87"/>
  </g>
  <path d="M408.22,587.27s-5.29-5.36-13.56,3.6Z" stroke="#000" stroke-miterlimit="10"/>
  <path d="M408.22,587.27s.29,4.76-3.32,5.72-11.14-1.88-11.14-1.88Z" fill="none" stroke="#000" stroke-linecap="round" stroke-linejoin="round"/>
  <path d="M385.35,561.46a13.27,13.27,0,0,0-11.07,2.69" fill="none" stroke="#000" stroke-linecap="round" stroke-linejoin="round"/>
  <path d="M404.69,557.55a7,7,0,0,0-8.17,2.1" fill="none" stroke="#000" stroke-linecap="round" stroke-linejoin="round"/>
  <path d="M300,590.14a23.68,23.68,0,1,1,33.43-26.9" fill="#1b0042"/>
  <g>
    <path d="M516.67,629.86c9.9-4.91,19.44-11,30.24-13.34s23.65.18,29.75,9.39c6.33,9.56-18.2,87.39-23.3,97.65-7.28,14.65-4.14,32.42-8.23,48.26-4,15.39-17,17.27-31,24.8s-30,10.58-45.81,11.92a235.72,235.72,0,0,1-68.48-4.25c-8-1.69-16.13-3.9-22.68-8.79s-11.25-13-9.95-21.09C369,763,381.69,755.56,383.31,744.1c1.11-7.83-3.34-15.43-8.82-21.14s-12.11-10.26-17.13-16.37C343.51,689.7,345,665.4,347.17,643.67c3.9-38.75,38.91-19.95,59.56-7.85,27.33,16,28.74,11,60.26,8A142.41,142.41,0,0,0,516.67,629.86Z" fill="#5c04a0"/>
    <g clip-path="url(#clip-path)">
      <path d="M362.33,631.46c12.22-2.85,23.78,5.71,34.32,12.53,40,25.88,92.52,31.19,136.87,13.83,15.1-5.91,29.93-14.41,46.15-14.17" fill="none" stroke="#fff" stroke-miterlimit="10" stroke-width="2" opacity="0.15"/>
      <path d="M373.16,643.28c27.31,19.73,56.6,40.2,90.22,42.26C496.3,687.56,540,671,567,683.43" fill="none" stroke="#fff" stroke-miterlimit="10" stroke-width="2" opacity="0.15"/>
      <path d="M373.24,662.26c11.71,10.54,23.5,21.13,36.82,29.54s28.4,14.6,44.13,15.44,31.18-3.65,46.7-6.3S542.3,711.66,556,719.49" fill="none" stroke="#fff" stroke-miterlimit="10" stroke-width="2" opacity="0.15"/>
      <path d="M369.58,680.93c21.7,22.68,47.34,44,78.26,49.43,16.08,2.83,32.56,1.16,48.89,1.33s33.43,2.47,46.68,12" fill="none" stroke="#fff" stroke-miterlimit="10" stroke-width="2" opacity="0.15"/>
      <path d="M361.09,692.55c13.32,9.56,27.13,19.77,34.2,34.55,4.75,9.91,6,21.06,7.29,32s2.57,22.08,7.36,32,13.79,18.44,24.71,19.65" fill="none" stroke="#fff" stroke-miterlimit="10" stroke-width="2" opacity="0.15"/>
    </g>
  </g>
  <g>
    <path d="M365.11,630a23.5,23.5,0,0,0-34.58,7.79,48,48,0,0,0-3.31,7.77c-3.85,11.86-4,24.58-6.93,36.7-5.91,24.57-22.55,45-39.86,63.47s-36.05,36.12-47.87,58.46c-8.63,16.28-13,36.86-3.67,52.75,7.7,13.13,22.89,19.94,37.7,23.45,64.51,15.29,132.35-17.17,197.72-6.08,14.72,2.5,29,7.19,43.79,9.43s30.57,1.83,43.69-5.3c20.58-11.19,29.91-37.13,27-60.37s-16-44-31-62c-12.8-15.28-28.67-29.86-48.38-32.76-20.54-3-40.38,7.17-59.35,15.59s-41.34,15.23-59.9,5.93a39.59,39.59,0,0,1-21.36-32.69c-.5-9.58,2.56-19,5.95-28s7.17-18,8.24-27.52-1-20-7.88-26.67Z" fill="#5c04a0"/>
    <g clip-path="url(#clip-path-2)">
      <path d="M347.52,624.56c-10.59,10-11.08,26.34-12.88,40.82a160.05,160.05,0,0,1-25.59,68.89c-19.63,29.44-48.91,52.16-64.75,83.8-5.41,10.78-8.88,24.44-2.05,34.38,6.59,9.6,19.81,11.53,31.46,11.74,66,1.16,132.58-24.79,196.74-9.35,11.87,2.86,23.83,7.14,36,5.7S530.9,849.39,530,837.22" fill="none" stroke="#fff" stroke-linecap="round" stroke-linejoin="round" stroke-width="2" opacity="0.15"/>
      <path d="M355.9,626.6c-9.41,8.47-9.14,22.93-9.53,35.58A174.82,174.82,0,0,1,310.92,762c-9.81,12.86-21.42,24.35-30.27,37.89a89.51,89.51,0,0,0-7.08,13C267,828,279.78,844.43,296.13,842q25.47-3.86,50.73-9c26.58-5.45,53.71-12,80.55-8,14.8,2.2,29,7.58,43.75,10S502.27,836.2,514,827" fill="none" stroke="#fff" stroke-linecap="round" stroke-linejoin="round" stroke-width="2" opacity="0.15"/>
      <path d="M361.36,722.46c-.59,13-2.63,24.62-4.1,36.78a15.6,15.6,0,0,0,16,17.52c11.77-.47,23.56-3.36,34.81-7,16.82-5.5,33.09-12.81,50.32-16.85s36.05-4.58,52,3.16,27.85,25.31,25,42.78" fill="none" stroke="#fff" stroke-linecap="round" stroke-linejoin="round" stroke-width="2" opacity="0.15"/>
      <path d="M365.52,632.47c-8.38,28.18-8.21,58.28-15.75,86.7-5.77,21.78-30.93,56.08-40,76.71-2.52,5.74-4.93,12.5-1.95,18,2.3,4.25,7.33,6.44,12.15,6.66s9.56-1.22,14.19-2.61c28-8.41,71.57-29.93,100.78-31.14s59.41,4.32,83.91,20.26" fill="none" stroke="#fff" stroke-linecap="round" stroke-linejoin="round" stroke-width="2" opacity="0.15"/>
    </g>
  </g>
  <path d="M359.3,710.09c.87-11.88,7-23,10.64-34.36s5.81-24,1.24-35c0,0-3.81-15.37-21.39-15.28" fill="none" stroke="#fff" stroke-linecap="round" stroke-linejoin="round" stroke-width="2"/>
  <path d="M380.54,743.72s27.11,14.4,78-10.14c61.12-29.49,89.23,20.85,89.23,20.85" fill="none" stroke="#fff" stroke-linecap="round" stroke-linejoin="round" stroke-width="2"/>
  <path d="M512.31,818A11.07,11.07,0,0,0,519,831.37a130.9,130.9,0,0,1,28.13,14.9c10.42,7.26,20,16.16,31.91,20.55,21.3,7.86,38.61,4.63,66.6,8.11,4,.5,8.1.44,12,1.38,1.45.36,3.23.57,4-1.1a2.92,2.92,0,0,0,.09-2.06c-1.36-4.47-3.66-8.09-8.05-9.55a91.51,91.51,0,0,0,16.66,1.95,3.78,3.78,0,0,0,3.48-5.44,17.73,17.73,0,0,0-8.89-8.56,56.49,56.49,0,0,0,16.16-.62,4,4,0,0,0,2.35-6.58c-4.24-5-14.82-6.83-21.52-7.66-8.78-1.08-14-.57-22.81-.62C623.28,836,608.39,830,596.16,820c8.4-3.13,17.67.2,26,3.44s17.72,6.41,26,3c.57-.23,1.2-.59,1.27-1.19s-.67-1.24-1.32-1.57c-17.38-8.9-35.12-17.92-54.39-21-18.53-3-38.3-.56-55.8-6.6a13.11,13.11,0,0,0-12.44,2.25A40.09,40.09,0,0,0,512.31,818Z" fill="#ffc9e6"/>
  <path d="M588.67,841.24c4.61,6.27,13.4,7.3,21.16,7.79,19.7,1.26,39.34,1.58,59,2.84" fill="none" stroke="#000" stroke-linecap="round" stroke-linejoin="round"/>
  <path d="M584.91,852.21c9.17,7.57,23.63,9.29,35.52,9.43s24-.14,35.59,2.54" fill="none" stroke="#000" stroke-linecap="round" stroke-linejoin="round"/>
  <path d="M588.7,815.08l13.3,9.26" fill="none" stroke="#000" stroke-linecap="round" stroke-linejoin="round"/>
  <path d="M664,845.56a3.25,3.25,0,0,1,1.09-1.38,3.11,3.11,0,0,1,2.07-.13,46,46,0,0,1,9.55,2.75,5.4,5.4,0,0,1,2.34,1.5,2,2,0,0,1,.06,2.57,2.94,2.94,0,0,1-1.86.65,61.14,61.14,0,0,1-11.79.26C660.62,851.33,662.31,848.86,664,845.56Z" fill="none" stroke="#000" stroke-linecap="round" stroke-linejoin="round"/>
  <path d="M656.76,858a2.37,2.37,0,0,1,3.37-1,46.13,46.13,0,0,1,9,4.26,5.49,5.49,0,0,1,2,1.86,2,2,0,0,1-.35,2.54,2.92,2.92,0,0,1-1.94.35,61.46,61.46,0,0,1-11.68-1.66C652.45,863.17,654.52,861,656.76,858Z" fill="none" stroke="#000" stroke-linecap="round" stroke-linejoin="round"/>
  <path d="M649.84,869.74a2.45,2.45,0,0,1,1-.87,2.4,2.4,0,0,1,1.57.2,35.3,35.3,0,0,1,6.75,3.47A4.18,4.18,0,0,1,660.7,874a1.55,1.55,0,0,1-.32,1.94,2.3,2.3,0,0,1-1.49.22,46.67,46.67,0,0,1-8.87-1.55C646.42,873.56,648.06,872,649.84,869.74Z" fill="none" stroke="#000" stroke-linecap="round" stroke-linejoin="round"/>
  <path d="M635.15,817.13l-2.77,4.29s10.13,5.52,15.44,3.76a.9.9,0,0,0,.1-1.65Z" fill="none" stroke="#000" stroke-linecap="round" stroke-linejoin="round"/>
</svg>
