<svg id="Layer_1" data-name="Layer 1" xmlns="http://www.w3.org/2000/svg" xmlns:xlink="http://www.w3.org/1999/xlink" viewBox="0 0 1920 1080">
  <defs>
    <clipPath id="clip-path">
      <path d="M878.68,231.66c-8.88,5.4-18.07,12.07-28.43,11.37-8.93-.6-16.43-6.56-23.87-11.54a131.93,131.93,0,0,0-69-22.12c-10.3-.32-22.06,1.34-28,9.8-5.24,7.52-3.92,17.63-2.38,26.67l5.29,31c1.18,7,2.4,14.05,5.47,20.42s8.27,12.07,15.06,14.05c15.65,4.57,30.35-11.46,46.66-11.43s29.57,16.09,45.89,15.45c8.1-.32,15.53-4.86,21.26-10.61s10.06-12.69,14.8-19.26c9.53-13.21,21.23-25.38,36-32.14,6.25-2.85,12.92-4.68,19.17-7.53s12.24-7,15.53-13c2.81-5.17,3.76-15.38-1.47-19.63-5.07-4.12-16.14-1-21.88-.07A140.21,140.21,0,0,0,878.68,231.66Z" fill="#5c04a0"/>
    </clipPath>
    <clipPath id="clip-path-2">
      <path d="M927.57,218A122.48,122.48,0,0,0,917.49,233q-9.78,17.25-19.54,34.5c-3.23,5.71-6.55,11.7-6.77,18.25-.31,8.82,5,16.85,6.28,25.59,2.64,18.31-12.63,37.71-4.41,54.29,5.36,10.79,19.07,15.11,31,13.58s22.76-7.57,33.65-12.72,22.86-9.61,34.75-7.64c9.35,1.55,19.56,6.82,27.55,1.74,6.68-4.25,7.67-14.13,4.27-21.28s-10-12.15-16.41-16.77-13.12-9.39-16.94-16.32c-10.76-19.57,6.44-44.15,1-65.81-2.91-11.57-12.25-20.84-23.16-25.68a63.24,63.24,0,0,0-23.91-5,21.25,21.25,0,0,0-17.3,8.18Z" fill="#5c04a0"/>
    </clipPath>
    <clipPath id="clip-path-3">
      <path d="M960.06,233c-1.78,6.38,0,13.3,3.16,19.11,7.52,13.77,21.95,22.1,35.66,29.74l44.18,24.6c11.7,6.51,24.38,13.24,37.7,11.84,17-1.79,29.48-16,41.73-27.87A221.32,221.32,0,0,1,1166,257.48c5-2.91,10.42-5.81,13.66-10.66,5.24-7.84,3.41-18.34.39-27.27-4.61-13.65-12-27.06-24.13-34.86s-29.68-8.35-40,1.72c-7.2,7-9.61,17.49-14.63,26.2-5.68,9.87-14.61,17.37-23.36,24.66s-18.55,14.79-29.73,13.75c-8.88-.83-16.19-7-23.55-12C1011.53,230,967.7,205.71,960.06,233Z" fill="#5c04a0"/>
    </clipPath>
  </defs>
  <title>Vector 1</title>
  <rect x="278.88" y="103.54" width="436.53" height="401.88" rx="25.44" fill="#fff" stroke="#000" stroke-miterlimit="10" stroke-width="2"/>
  <g>
    <g>
      <circle cx="452.02" cy="392.48" r="17.1" fill="#fff"/>
      <path d="M452,375.88a16.6,16.6,0,1,1-16.6,16.6,16.62,16.62,0,0,1,16.6-16.6m0-1a17.6,17.6,0,1,0,17.6,17.6,17.6,17.6,0,0,0-17.6-17.6Z"/>
    </g>
    <g>
      <circle cx="575.22" cy="392.48" r="17.1" fill="#fff"/>
      <path d="M575.22,375.88a16.6,16.6,0,1,1-16.6,16.6,16.62,16.62,0,0,1,16.6-16.6m0-1a17.6,17.6,0,1,0,17.6,17.6,17.6,17.6,0,0,0-17.6-17.6Z"/>
    </g>
    <g>
      <path d="M443.22,365.58a8.3,8.3,0,0,1-8.18-6.86L409.86,216H381.62a8.3,8.3,0,0,1,0-16.6h35.2a8.29,8.29,0,0,1,8.18,6.86l3.44,19.54H596.25A12.7,12.7,0,0,1,608.71,241l-15.83,79.2a12.78,12.78,0,0,1-12.47,10.21H446.9l3.28,18.6H584a8.3,8.3,0,1,1,0,16.6Z" fill="#fff"/>
      <path d="M416.82,199.88a7.79,7.79,0,0,1,7.68,6.44l3.37,19.13.15.83H596.27a12.21,12.21,0,0,1,12,14.59l-15.84,79.2a12.27,12.27,0,0,1-12,9.81H446.31l.2,1.17,3.11,17.6.14.83H584a7.8,7.8,0,1,1,0,15.6H443.22a7.77,7.77,0,0,1-7.68-6.45L410.42,216.31l-.14-.83H381.62a7.8,7.8,0,0,1,0-15.6h35.2m0-1h-35.2a8.8,8.8,0,0,0,0,17.6h27.82L434.55,358.8a8.81,8.81,0,0,0,8.67,7.28H584a8.8,8.8,0,1,0,0-17.6H450.6l-3.1-17.6H580.41a13.25,13.25,0,0,0,13-10.61l15.84-79.2a13.22,13.22,0,0,0-12.94-15.79H428.86l-3.37-19.13a8.81,8.81,0,0,0-8.67-7.27Z"/>
    </g>
  </g>
  <path d="M1202.65,772c1.14,1.89,61.81,69.92,61.81,69.92l33.34-20.07-64-72.06-32.71,19.69" fill="#ffc9e6"/>
  <polygon points="1223.86 796.24 1255.61 774.3 1297.8 821.84 1263.45 841.66 1223.86 796.24" fill="#fca1bb"/>
  <polygon points="1228.07 801.08 1259.68 778.89 1263.69 783.4 1232.34 805.97 1228.07 801.08" fill="#151614"/>
  <polygon points="1233.88 807.87 1266.11 785.3 1270.12 789.82 1238.14 812.76 1233.88 807.87" fill="#fff"/>
  <g>
    <path d="M1254.84,819.41c-6.6-2.6-8.76-11.51-15.11-14.63s-15.48-2.55-19.62,3.37c-3.35,4.81-2.5,11.6.54,16.6s7.9,8.61,12.67,12a167.07,167.07,0,0,1-45.75,35.83c-8,4.26-16.36,7.9-23.79,13.07s-14,12.19-16.56,20.87c-1.93,6.58-2.47,15.42.58,21.61a8,8,0,0,0,8.49,4.27c57.51-9.72,91.51-20.84,174.38-52.4-3-27.88-20.62-59.63-41.82-75.64C1288.85,804.36,1282.16,830.19,1254.84,819.41Z" fill="#fff" stroke="#000" stroke-miterlimit="10"/>
    <path d="M1146.56,915.75S1281,886,1326,859.63" fill="#fff" stroke="#000" stroke-miterlimit="10"/>
    <path d="M1194.44,869.45c9.62,3.57,20.69.87,29.3-4.7s15.23-13.69,21.51-21.8l-13.33-6.82" fill="none" stroke="#000" stroke-miterlimit="10"/>
    <path d="M1209.18,859.48c5.11,2.85,9,5.58,14.89,5.47" fill="none" stroke="#000" stroke-miterlimit="10"/>
    <path d="M1221,848.29a52.77,52.77,0,0,0,15.8,5.79" fill="none" stroke="#000" stroke-miterlimit="10"/>
    <path d="M1245.61,889.72c2-10.36,10.33-18.36,19.3-23.9s19-9.41,27.45-15.68,15.55-15.9,14.89-26.43" fill="none" stroke="#000" stroke-miterlimit="10"/>
    <path d="M1258.13,887.31c4.35-7.64,12-12.77,19.93-16.69s16.25-6.92,23.58-11.77,13.74-12,15-20.73" fill="none" stroke="#000" stroke-miterlimit="10"/>
  </g>
  <path d="M1156.66,876.36a33.39,33.39,0,0,0-21.7,27.76" fill="none" stroke="#000" stroke-miterlimit="10"/>
  <path d="M1147.85,861.69A32,32,0,0,0,1123.78,896" fill="none" stroke="#000" stroke-miterlimit="10"/>
  <g>
    <path d="M963.59,801.2c.26,2.19,27.7,89.12,27.7,89.12l38.64-4.64-28.78-91.94-37.91,4.55" fill="#ffc9e6"/>
    <polygon points="972.99 832.02 1010.94 825.03 1029.93 885.68 990.48 889.68 972.99 832.02" fill="#fca1bb"/>
    <polygon points="974.85 838.16 1012.78 830.88 1014.58 836.64 976.73 844.37 974.85 838.16" fill="#151614"/>
    <polygon points="977.36 846.73 1016.01 839.37 1017.82 845.13 979.24 852.94 977.36 846.73" fill="#fff"/>
  </g>
  <g>
    <path d="M983.17,856.68c-5.6-4.35-5.17-13.5-10.39-18.29s-14.13-6.8-19.77-2.28c-4.57,3.67-5.67,10.43-4.15,16.09s5.16,10.47,8.79,15.08a167.38,167.38,0,0,1-54,21.51c-8.86,1.84-17.92,3-26.5,5.86S860.28,902.4,855.4,910c-3.7,5.77-6.71,14.1-5.52,20.9a8,8,0,0,0,7,6.48c57.92,6.85,93.68,5.74,182.08-1.25,5-27.59-3-63-18.87-84.35C1020,851.8,1006.36,874.7,983.17,856.68Z" fill="#fff" stroke="#000" stroke-miterlimit="10"/>
    <path d="M852.17,918.69s137.36,9.22,188-3.4" fill="#fff" stroke="#000" stroke-miterlimit="10"/>
    <path d="M911.14,887.72c8.22,6.13,19.61,6.65,29.44,3.73s18.46-8.86,26.77-14.88l-10.87-10.29" fill="none" stroke="#000" stroke-miterlimit="10"/>
    <path d="M928.09,882.3c4.1,4.17,7.1,7.89,12.75,9.43" fill="none" stroke="#000" stroke-miterlimit="10"/>
    <path d="M942.6,874.89a52.26,52.26,0,0,0,13.53,10" fill="none" stroke="#000" stroke-miterlimit="10"/>
    <path d="M954.55,921.56c4.79-9.39,15.07-14.71,25.24-17.51s20.85-3.7,30.75-7.33,19.39-10.88,21.72-21.17" fill="none" stroke="#000" stroke-miterlimit="10"/>
    <path d="M967.24,922.77c6.32-6.11,15.15-8.87,23.81-10.41s17.54-2.08,26-4.67,16.56-7.69,20.25-15.67" fill="none" stroke="#000" stroke-miterlimit="10"/>
  </g>
  <line x1="765.59" y1="324.59" x2="784.26" y2="285.03" fill="#fff" stroke="#1b0042" stroke-linecap="round" stroke-linejoin="round" stroke-width="2"/>
  <path d="M829.61,310.86c-2.48,10.67-6.64,24.69-9.12,35.36" fill="none" stroke="#1b0042" stroke-linecap="round" stroke-linejoin="round" stroke-width="2"/>
  <path d="M1091.56,317.57l7.45,32" fill="none" stroke="#1b0042" stroke-linecap="round" stroke-linejoin="round" stroke-width="2"/>
  <polygon points="1043.14 369.51 1119.99 340.96 1157.2 441.4 1087.42 484.33 1037.17 479.74 1043.14 369.51" fill="none" stroke="#1b0042" stroke-linecap="round" stroke-linejoin="round" stroke-width="2"/>
  <line x1="1060.14" y1="364.98" x2="1087.42" y2="484.33" fill="none" stroke="#1b0042" stroke-linecap="round" stroke-linejoin="round" stroke-width="2"/>
  <path d="M907.61,369c-10.47,32.21,3.94,66.73,18.5,97.31,50.92,107,148.31,265.09,239.41,343.81a17.92,17.92,0,0,0,11.53,4.37c25.26.25,48.15-13.8,69.51-28.14a18,18,0,0,0,2.79-27.62c-46.48-47.27-135.73-153.09-153.72-195.54-44-103.79-58.23-149.89-108.47-183.71-13.33-9-25.17-13-39.46-20.36S912.58,353.69,907.61,369Z" fill="#1b0042"/>
  <path d="M946.67,368.76C904,423.69,861.11,478.87,827,539.47c-13.42,23.81-25.8,50.06-23.2,77.27,2,21,12.71,40,24.1,57.68,41.32,64.22,47.49,80.41,90.78,131.8a46.56,46.56,0,0,0,30,16.43c20.82,2.45,63.16,4.75,77.53-9.45,7-6.94,6.82-17.33,2.07-26-33.58-61.29-69.69-123.85-105-187.17,32.85-60.2,79.3-105.34,107.43-173,10.25-24.66,12.82-56-5.34-75.57a46.33,46.33,0,0,0-44.45-13.15C965.16,342.27,956.62,356,946.67,368.76Z" fill="#1b0042"/>
  <g>
    <path d="M878.68,231.66c-8.88,5.4-18.07,12.07-28.43,11.37-8.93-.6-16.43-6.56-23.87-11.54a131.93,131.93,0,0,0-69-22.12c-10.3-.32-22.06,1.34-28,9.8-5.24,7.52-3.92,17.63-2.38,26.67l5.29,31c1.18,7,2.4,14.05,5.47,20.42s8.27,12.07,15.06,14.05c15.65,4.57,30.35-11.46,46.66-11.43s29.57,16.09,45.89,15.45c8.1-.32,15.53-4.86,21.26-10.61s10.06-12.69,14.8-19.26c9.53-13.21,21.23-25.38,36-32.14,6.25-2.85,12.92-4.68,19.17-7.53s12.24-7,15.53-13c2.81-5.17,3.76-15.38-1.47-19.63-5.07-4.12-16.14-1-21.88-.07A140.21,140.21,0,0,0,878.68,231.66Z" fill="#5c04a0"/>
    <g clip-path="url(#clip-path)">
      <path d="M723.82,229.35c15.55-9.17,35.36-6.88,52.49-1.17s33.32,14.52,51.06,17.9A87.08,87.08,0,0,0,883,238c14.83-7.65,26.79-20,43.3-17.59" fill="none" stroke="#fff" stroke-linecap="round" stroke-linejoin="round" stroke-width="2" opacity="0.15"/>
      <path d="M727.08,245.87c17.7-6.11,37.23-2,55,3.79s35.38,13.43,54.07,14.38A78.32,78.32,0,0,0,882,251.86c5.75-3.69,11-8.14,17.09-11.3s13.27-4.92,19.75-2.77" fill="none" stroke="#fff" stroke-linecap="round" stroke-linejoin="round" stroke-width="2" opacity="0.15"/>
      <path d="M734.65,267.08q40,6.07,79.43,15c16.28,3.68,33.8,7.63,49.22,1.23,13.09-5.44,23.46-18,37.6-18.93l-3,2.88" fill="none" stroke="#fff" stroke-linecap="round" stroke-linejoin="round" stroke-width="2" opacity="0.15"/>
      <path d="M732.59,281.4A170.1,170.1,0,0,0,796,298.77" fill="none" stroke="#fff" stroke-linecap="round" stroke-linejoin="round" stroke-width="2" opacity="0.15"/>
      <path d="M813.78,303.39a132.61,132.61,0,0,0,61.64-10.3" fill="none" stroke="#fff" stroke-linecap="round" stroke-linejoin="round" stroke-width="2" opacity="0.15"/>
    </g>
  </g>
  <path d="M750.23,237.11a90.06,90.06,0,0,1-22.07-.26c-13.2-1.68-27.27,1.59-40.45,4.92-15.55,3.94-32.32,7.8-47.48,3.59a2.11,2.11,0,0,0-2.13,3.43,24.49,24.49,0,0,0,22.5,7.62A66.78,66.78,0,0,1,630.35,260c-.74,3.1,1.45,6.29,4.27,7.76s6.12,1.63,9.3,1.75c7.61.3,15.51.55,22.53-2.42-8,5.11-16,12-24,17.11-.92.59-2,1.33-1.56,2.67a2.38,2.38,0,0,0,1.72,1.57c13.55,3.4,28.86-2.56,36.66-14.12,6-8.89,17.88-7.34,28.42-5.41-6.78,3.5-15.19,8.37-20.47,13.88a26.16,26.16,0,0,0-7.36,14.77,2.49,2.49,0,0,0,4.12,2.14,42.22,42.22,0,0,1,13.86-8.11c8.56-3.11,18.57-.58,26.79-4.49a19,19,0,0,0,10.57-17.52c3.88-2.7,9.23-.84,13.77.5s8.77,3.62,13.37,4.72,10,.78,13.38-2.49,4-8.81,3-13.53a27.77,27.77,0,0,0-15.58-19.34A24.12,24.12,0,0,0,750.23,237.11Z" fill="#ffc9e6"/>
  <path d="M663.8,268.81c5.11-5,10.3-10.12,16.56-13.6s13.86-5.19,20.69-3" fill="none" stroke="#000" stroke-linecap="round" stroke-linejoin="round"/>
  <path d="M659.23,257.08c7.17-4,19.84-12.7,33.25-9.35" fill="none" stroke="#000" stroke-linecap="round" stroke-linejoin="round"/>
  <path d="M649.89,279.73a11.52,11.52,0,0,0,4.45,3.49,29.65,29.65,0,0,1-12.16,1.63C644.19,282.55,647.21,281.2,649.89,279.73Z" fill="none" stroke="#000" stroke-linecap="round" stroke-linejoin="round"/>
  <path d="M639.41,261l0,3.14a9.37,9.37,0,0,1-8.5-3.49A27.53,27.53,0,0,0,639.41,261Z" fill="none" stroke="#000" stroke-linecap="round" stroke-linejoin="round"/>
  <path d="M683.81,292.19a7.19,7.19,0,0,1,3.88-2.92,3.41,3.41,0,0,1,4,2,3.5,3.5,0,0,1-.79,3.08,10.07,10.07,0,0,1-2.55,2.07l-4.28,2.78C678.28,303,682.3,294.18,683.81,292.19Z" fill="none" stroke="#000" stroke-linecap="round" stroke-linejoin="round"/>
  <path d="M639.33,245.62a6.18,6.18,0,0,0,7.69,4.55l.57-3.45C644.83,247.17,642,245,639.33,245.62Z" fill="none" stroke="#000" stroke-linecap="round" stroke-linejoin="round"/>
  <path d="M950.41,124.92s-14.41.36-25.53,15.66c-10.55,14.53-19,51.67-9.21,52.36s30.23-3.08,30.23-3.08l-5,24.67,28,3.42s5.65-31.74,14.33-48.75c.19-.35.36-.71.52-1.06,7.54-16.12-1-35.1-17.81-41A35.69,35.69,0,0,0,950.41,124.92Z" fill="#ffc9e6"/>
  <path d="M932.79,140.76c6.81,7.86,15.65,13.45,23.79,17.91,1.18.65,2.25,1.39,3.12.35,1.93-2.3,5.75-4.05,8.33-3.92,3.3.16,6.67,1.41,8,4.44,1.64,3.81-.32,8.14-2.89,11.34-.55.69-.18,1.62-1,2.05l-1.07-.37c-2.22,1.25-4.79.88-3.66,3.17a124.9,124.9,0,0,0,8.69,13.57A102.58,102.58,0,0,0,986,165.05c2.28-8.22,2.24-17.45-2-24.85-3.78-6.6-10.56-11.13-17.85-13.3s-15.06-2.19-22.62-1.33A35.47,35.47,0,0,0,928,131.45a15.79,15.79,0,0,0-6.28,13.72S925.18,145.31,932.79,140.76Z" fill="#1b0042"/>
  <path d="M945.69,189.76l13.65-1.23a21.47,21.47,0,0,1-16,13.79Z" fill="#1b0042"/>
  <path d="M942.8,159.07a13.62,13.62,0,0,0-5.66-1.46,6.47,6.47,0,0,0-4.76,2,1.09,1.09,0,0,0,.4,1.71,13,13,0,0,0,8.92,1,3.69,3.69,0,0,0,1.61-.82A1.51,1.51,0,0,0,942.8,159.07Z" fill="none" stroke="#000" stroke-linecap="round" stroke-linejoin="round"/>
  <path d="M927.85,155.77a58.55,58.55,0,0,1-6.42,11.13c-.43.59-.9,1.32-.63,2s1,.87,1.67,1l6.39,1.51" fill="none" stroke="#000" stroke-linecap="round" stroke-linejoin="round"/>
  <path d="M935.86,159.54a1.61,1.61,0,0,1-3,1.13A1.61,1.61,0,1,1,935.86,159.54Z"/>
  <g>
    <path d="M917.6,156.13a11.36,11.36,0,0,1,4.72.48,5.51,5.51,0,0,1,3.24,3,.9.9,0,0,1-.79,1.21,11,11,0,0,1-7.43-1.8,4,4,0,0,1-.83-.75A1.39,1.39,0,0,1,917.6,156.13Z" fill="none" stroke="#000" stroke-linecap="round" stroke-linejoin="round"/>
    <path d="M919.26,157.45a1.44,1.44,0,0,1-2.81.6A1.44,1.44,0,1,1,919.26,157.45Z"/>
  </g>
  <path d="M932.74,153.48a3.6,3.6,0,0,1,2.94-1.25,15.89,15.89,0,0,1,8.23,1.81" fill="none" stroke="#000" stroke-linecap="round" stroke-linejoin="round"/>
  <path d="M916.3,151.22a7.36,7.36,0,0,1,7.36.86" fill="none" stroke="#000" stroke-linecap="round" stroke-linejoin="round"/>
  <path d="M926.59,177.35a6.63,6.63,0,0,0-8.78-2.19C920.57,175.7,923.83,176.8,926.59,177.35Z" fill="none" stroke="#000" stroke-linecap="round" stroke-linejoin="round"/>
  <path d="M917.72,175.47a4.56,4.56,0,0,0,3.54,3.55c1.75.33,4.73-.14,5.67-1.65"/>
  <path d="M962.69,169.27c-3.27-2.18-8.35-.38-10.28,3.64s-.25,9.34,3.37,10.76,8.4-1.39,9.64-5.67" fill="none" stroke="#fff" stroke-linecap="round" stroke-linejoin="round"/>
  <path d="M962.54,166a10.76,10.76,0,0,1,9.76-5" fill="none" stroke="#000" stroke-linecap="round" stroke-linejoin="round"/>
  <path d="M967.89,161.76a7.24,7.24,0,0,1-1.23,8.19" fill="none" stroke="#000" stroke-linecap="round" stroke-linejoin="round"/>
  <ellipse cx="1003.58" cy="192.27" rx="23.95" ry="29.47" transform="translate(297.26 930.69) rotate(-57.12)" fill="#1b0042"/>
  <path d="M930.47,157.7c3.68-.83,9-.71,17.86.72a1.23,1.23,0,0,1,.74,2c-2.28,2.61-7.46,7.22-14.84,5.95-5.4-.93-6.79-3.7-6.66-5.44A3.68,3.68,0,0,1,930.47,157.7Z"/>
  <path d="M923.2,157.1c-2.41-1.8-6.28-3.44-13.15-5.33a1.23,1.23,0,0,0-1.5,1.57c.92,2.74,3.27,7.33,8.88,8.79,4.33,1.13,6.32-.41,6.83-1.72A2.87,2.87,0,0,0,923.2,157.1Z"/>
  <path d="M945.16,161.22c.12-.34,14.17-.9,14.17-.9a10.73,10.73,0,0,1,9.95-5.57c4,.37,7.64,3.81,7.79,7.83.09,2.71-1.27,5.28-3,7.4a12.52,12.52,0,0,1-5.68,4.35,6.59,6.59,0,0,1-6.74-1.4" fill="none" stroke="#000" stroke-linecap="round" stroke-linejoin="round"/>
  <path d="M923.71,159.36s1.08-2.17,4,1.1" fill="none" stroke="#000" stroke-linecap="round" stroke-linejoin="round"/>
  <g>
    <path d="M927.57,218A122.48,122.48,0,0,0,917.49,233q-9.78,17.25-19.54,34.5c-3.23,5.71-6.55,11.7-6.77,18.25-.31,8.82,5,16.85,6.28,25.59,2.64,18.31-12.63,37.71-4.41,54.29,5.36,10.79,19.07,15.11,31,13.58s22.76-7.57,33.65-12.72,22.86-9.61,34.75-7.64c9.35,1.55,19.56,6.82,27.55,1.74,6.68-4.25,7.67-14.13,4.27-21.28s-10-12.15-16.41-16.77-13.12-9.39-16.94-16.32c-10.76-19.57,6.44-44.15,1-65.81-2.91-11.57-12.25-20.84-23.16-25.68a63.24,63.24,0,0,0-23.91-5,21.25,21.25,0,0,0-17.3,8.18Z" fill="#5c04a0"/>
    <g clip-path="url(#clip-path-2)">
      <path d="M944.6,208.59l-36.79,59.88c-3.41,5.55-6.92,11.41-7.19,17.92-.29,6.89,3.09,13.34,4.66,20.05,2.9,12.39-.42,25.27-1.39,38s1.4,27.24,11.93,34.38" fill="none" stroke="#fff" stroke-linecap="round" stroke-linejoin="round" stroke-width="2" opacity="0.15"/>
      <path d="M932.05,377.31c-7.24-8-9.51-19.35-10.08-30.15s.25-21.75-2.05-32.32c-2.12-9.78-6.89-19.23-6.23-29.21.54-8,4.53-15.32,8.42-22.34l28.95-52.1" fill="none" stroke="#fff" stroke-linecap="round" stroke-linejoin="round" stroke-width="2" opacity="0.15"/>
      <path d="M960.42,211.77c-.91,19.9-21,34.09-24.91,53.61-2.94,14.54,3.54,29.14,5.63,43.83,1.45,10.26.76,20.72,2.08,31s5.07,20.9,13.32,27.18" fill="none" stroke="#fff" stroke-linecap="round" stroke-linejoin="round" stroke-width="2" opacity="0.15"/>
      <path d="M971.45,216.24c-17.79,46.07-14.3,99.87,9.27,143.26" fill="none" stroke="#fff" stroke-linecap="round" stroke-linejoin="round" stroke-width="2" opacity="0.15"/>
      <path d="M999.32,360.51c-.21-15.39-6.72-29.87-11.89-44.37s-9.06-30.55-4-45.1" fill="none" stroke="#fff" stroke-linecap="round" stroke-linejoin="round" stroke-width="2" opacity="0.15"/>
      <path d="M1006.92,321.34a128.06,128.06,0,0,1,12.58,40.27" fill="none" stroke="#fff" stroke-linecap="round" stroke-linejoin="round" stroke-width="2" opacity="0.15"/>
    </g>
  </g>
  <g>
    <path d="M960.06,233c-1.78,6.38,0,13.3,3.16,19.11,7.52,13.77,21.95,22.1,35.66,29.74l44.18,24.6c11.7,6.51,24.38,13.24,37.7,11.84,17-1.79,29.48-16,41.73-27.87A221.32,221.32,0,0,1,1166,257.48c5-2.91,10.42-5.81,13.66-10.66,5.24-7.84,3.41-18.34.39-27.27-4.61-13.65-12-27.06-24.13-34.86s-29.68-8.35-40,1.72c-7.2,7-9.61,17.49-14.63,26.2-5.68,9.87-14.61,17.37-23.36,24.66s-18.55,14.79-29.73,13.75c-8.88-.83-16.19-7-23.55-12C1011.53,230,967.7,205.71,960.06,233Z" fill="#5c04a0"/>
    <g clip-path="url(#clip-path-3)">
      <path d="M970.86,258.35c22.95,8.82,50.17,21.3,71.26,33.94,9.11,5.47,19,11.51,29.55,10.11,7.78-1,14.39-6,20.62-10.74l35.18-27,55-42.21" fill="none" stroke="#fff" stroke-linecap="round" stroke-linejoin="round" stroke-width="2" opacity="0.15"/>
      <path d="M965.78,244.86c26.36,10.66,56.07,23,82.43,33.66,7.53,3.05,15.56,6.15,23.55,4.72s14.41-7.12,20.4-12.57l70.77-64.43" fill="none" stroke="#fff" stroke-linecap="round" stroke-linejoin="round" stroke-width="2" opacity="0.15"/>
      <path d="M966.38,232.24c17.56,1.78,35.34,12.62,51.69,19.27s34.54,11.75,51.49,6.82c33.92-9.86,47.34-54.12,80.24-67" fill="none" stroke="#fff" stroke-linecap="round" stroke-linejoin="round" stroke-width="2" opacity="0.15"/>
      <path d="M973.93,223.63l42,9.94" fill="none" stroke="#fff" stroke-linecap="round" stroke-linejoin="round" stroke-width="2" opacity="0.15"/>
      <path d="M1085.45,230.4c11.79-4.41,19.2-15.83,25.92-26.48s14.49-21.94,26.47-25.79" fill="none" stroke="#fff" stroke-linecap="round" stroke-linejoin="round" stroke-width="2" opacity="0.15"/>
    </g>
  </g>
  <path d="M940.3,208.09c-3.82-.06-10.66,6.63-12.88,9.73s-3.45,6.8-4.82,10.37a115.13,115.13,0,0,1-24.92,38.92" fill="none" stroke="#fff" stroke-linecap="round" stroke-linejoin="round" stroke-width="2"/>
  <path d="M1142.88,200.41c7.11-13.78,20.17-22.64,30-34.64s20.9-21.31,35.88-25.3,25.44,2,41.83-5.57a2.32,2.32,0,0,1,3.31,2.13c-.24,6.4-5.4,8.69-11.43,11.25-8.37,3.56-18,3.49-27,4.76-7.29,1-9.55-.45-15.67,9.91-1.35,2.28-4.52,7.22-2,7.85,5.53,1.36,11-3.09,15.92-5,3.34-1.3,6.39-3.33,9.82-4.42a11.86,11.86,0,0,1,8.1.1,1.86,1.86,0,0,1,.67,2.93c-6.21,6.94-12.94,13.93-20.82,18.77-8.47,5.2-19.11,7.8-28.5,4.54-3.07,10.52-7.79,20.64-11.56,30.93-1.42,3.88-2.93,7.81-5.48,11.07s-6.33,5.8-10.46,5.88c-4.46.1-8.63-2.73-11-6.48s-3.27-8.31-3.43-12.77C1140.84,211.48,1140.65,204.71,1142.88,200.41Z" fill="#ffc9e6"/>
  <path d="M1206,145.87a42.9,42.9,0,0,0,25.69-25.35c.45-1.21,1.4-2.74,2.61-2.27a2.24,2.24,0,0,1,1.06,1.2,19.14,19.14,0,0,1-11.71,27" fill="#ffc9e6"/>
  <path d="M1204.77,151.23a43,43,0,0,0,12.59-33.83c-.11-1.29.11-3.08,1.4-3.16a2.24,2.24,0,0,1,1.47.64,19.15,19.15,0,0,1,.77,29.39" fill="#ffc9e6"/>
  <path d="M1212.8,140.14a37.9,37.9,0,0,1,22.21-1" fill="none" stroke="#000" stroke-linecap="round" stroke-linejoin="round"/>
  <path d="M1218.71,138.31a36.2,36.2,0,0,0,9.25-11.37" fill="none" stroke="#000" stroke-linecap="round" stroke-linejoin="round"/>
  <path d="M1243.83,137.44l1.59,5.4a8.06,8.06,0,0,0,6.09-8C1248.88,135.88,1246.46,136.45,1243.83,137.44Z" fill="none" stroke="#000" stroke-linecap="round" stroke-linejoin="round"/>
  <path d="M1229.26,125l3.17,1.91c.75-3.07,1.36-5.78,2.11-8.85A10.2,10.2,0,0,0,1229.26,125Z" fill="none" stroke="#000" stroke-linecap="round" stroke-linejoin="round"/>
  <path d="M1217.84,123.8l2.85-1.59a7.15,7.15,0,0,0-3.45-7.12C1217.16,118.16,1217.92,120.73,1217.84,123.8Z" fill="none" stroke="#000" stroke-linecap="round" stroke-linejoin="round"/>
  <path d="M1231.89,163.77a1.85,1.85,0,0,0-1.73-1.33,5.36,5.36,0,0,0-2.28.47l-5.31,1.93c-1.58.57-3.41,1.43-3.66,3.09-.4,2.64,3.42,4,4,6.67C1225.7,171.18,1229.06,167.19,1231.89,163.77Z" fill="none" stroke="#000" stroke-linecap="round" stroke-linejoin="round"/>
  <path d="M977.66,219.4c-6.3,1-13,9.77-13.74,16.11-1.8,16.25,11.54,33.11,26.65,39.35" fill="none" stroke="#fff" stroke-linecap="round" stroke-linejoin="round" stroke-width="2"/>
  <path d="M908.55,421.16a303.69,303.69,0,0,0,31.28-45.86" fill="none" stroke="#fff" stroke-linecap="round" stroke-linejoin="round" stroke-width="2"/>
  <path d="M964.77,537c28.2-37.36,49.57-83.7,65.57-112" fill="none" stroke="#fff" stroke-linecap="round" stroke-linejoin="round" stroke-width="2"/>
  <path d="M1099.76,211.27c.92-4.88-4.35-9.37-9.29-8.84s-8.83,4.79-10.39,9.51-1.19,9.82-.65,14.75c4.19,38.08,18.53,74.5,37.49,107.79" fill="none" stroke="#1b0042" stroke-linecap="round" stroke-linejoin="round" stroke-width="2"/>
  <path d="M1133.36,280l16.34,28.5" fill="none" stroke="#1b0042" stroke-linecap="round" stroke-linejoin="round" stroke-width="2"/>
  <polygon points="1101.94 343.7 1167.32 294.25 1231.86 379.75 1177.38 440.94 1127.92 450.99 1101.94 343.7" fill="#fff" stroke="#1b0042" stroke-linecap="round" stroke-linejoin="round" stroke-width="2"/>
  <line x1="1116.92" y1="334.48" x2="1177.38" y2="440.93" fill="none" stroke="#1b0042" stroke-linecap="round" stroke-linejoin="round" stroke-width="2"/>
  <path d="M1079.16,242.05c2.28-4.41-1.48-10.23-6.35-11.14S1063,233,1060.12,237s-4,9.06-4.87,13.94c-6.94,37.67-3.69,76.68,4.89,114" fill="none" stroke="#1b0042" stroke-linecap="round" stroke-linejoin="round" stroke-width="2"/>
  <polygon points="876.35 366.16 799.51 337.6 762.29 438.05 832.07 480.98 882.33 476.39 876.35 366.16" fill="none" stroke="#1b0042" stroke-linecap="round" stroke-linejoin="round" stroke-width="2"/>
  <line x1="859.35" y1="361.63" x2="832.07" y2="480.98" fill="none" stroke="#1b0042" stroke-linecap="round" stroke-linejoin="round" stroke-width="2"/>
  <path d="M810.51,222.17c-.91-4.88,7.71-6,12.65-5.49s8.83,4.79,10.39,9.51,1.19,9.82.65,14.75c-4.19,38.08-12.66,56.9-31.62,90.18" fill="none" stroke="#1b0042" stroke-linecap="round" stroke-linejoin="round" stroke-width="2"/>
  <polygon points="817.56 340.35 742.96 317.72 690.99 388.13 766.43 437.58 791.58 447.64 817.56 340.35" fill="#fff" stroke="#1b0042" stroke-linecap="round" stroke-linejoin="round" stroke-width="2"/>
  <line x1="802.58" y1="331.12" x2="765.59" y2="435.07" fill="none" stroke="#1b0042" stroke-linecap="round" stroke-linejoin="round" stroke-width="2"/>
  <path d="M840.34,238.7c-2.28-4.41,1.47-10.23,6.35-11.14s9.84,2.05,12.69,6.12,4,9.06,4.87,13.94c6.94,37.67,3.68,76.68-4.9,114" fill="none" stroke="#1b0042" stroke-linecap="round" stroke-linejoin="round" stroke-width="2"/>
</svg>
