<svg id="Layer_1" data-name="Layer 1" xmlns="http://www.w3.org/2000/svg" xmlns:xlink="http://www.w3.org/1999/xlink" viewBox="0 0 1920 1080">
  <defs>
    <clipPath id="clip-path">
      <path d="M719.06,378.54c0,16-13,42.72-15.24,58.6s-1.35,27.51,8.88,39.87c14.46,17.48,50.61,20.44,72.13,13.27s41.37-19.88,63.82-23.13c17.65-2.56,36.24.85,53-5.12,15-5.32,26.77-17.83,33.2-32.35s7.86-30.9,6.23-46.71c-1.26-12.24-4.93-25.29-14.8-32.63-12.39-9.22-30.38-6.11-43.59,1.88s-23.44,20-35.62,29.53-28,16.6-42.86,12.25c-13.83-4.07-23.12-17-29-30.19C767.41,346.47,792.11,304,752,304,730,304,719,332,719.06,378.54Z" fill="#5c04a0"/>
    </clipPath>
    <clipPath id="clip-path-2">
      <path d="M767.33,288.77c-8.33-2.77-13.07,3.1-13.82,8.92s2.9,9.41,8.5,11.17c10,3.14,15.34,3.95,21.2,3.55,6.31-.44,9.45-.18,12.38-5.8a10.55,10.55,0,0,0,.73-7.66c-1.56-6-6.34-8-12.57-7.77Z" fill="#5c04a0"/>
    </clipPath>
    <clipPath id="clip-path-3">
      <path d="M777.7,311c-13.14-6.22-29.78.65-38,12.61s-9.49,27.52-7.51,41.92S737.92,392.6,736,407c-2,15,1.47,21.54-4,35-2.93,7.22-2,33,45.42,18.42,7.81-2.4,17.37-5.51,22.15,1.12" fill="#5c04a0"/>
    </clipPath>
    <clipPath id="clip-path-4">
      <path d="M767.67,384.76c.74,16-4,31.72-6.25,47.6s-1.35,33.51,8.88,45.87c14.46,17.48,41.61,17.44,63.13,10.27s41.37-19.88,63.82-23.13c17.65-2.56,36.25.85,53-5.12,15-5.32,26.76-17.83,33.2-32.35s7.85-30.9,6.23-46.71c-1.26-12.23-4.94-25.29-14.81-32.63-12.38-9.22-30.38-6.11-43.59,1.88s-23.44,20-35.62,29.53-28,16.6-42.85,12.25c-13.83-4.07-23.13-17-29-30.19-7.81-17.34-20.57-65.17-49.25-55.13C746.51,316.73,766.77,365.4,767.67,384.76Z" fill="#5c04a0"/>
    </clipPath>
  </defs>
  <title>Vector 1</title>
  <path d="M1092,268s17.82,52.81,4.66,81.2a24.31,24.31,0,0,1-24.83,13.66L1002,355s40-37,19-87" fill="#fff" stroke="#000" stroke-miterlimit="10" stroke-width="2"/>
  <path d="M1196.7,326,930.77,305a18,18,0,0,1-17.56-22.17l30.52-129.91A18,18,0,0,1,961.3,139h262.93a18,18,0,0,1,17.56,22.17l-27.52,150.91A18,18,0,0,1,1196.7,326Z" fill="#fff" stroke="#000" stroke-miterlimit="10" stroke-width="2"/>
  <path d="M1008.3,761.08c.52,2,6,88.26,6,88.26l-35.74,9.12-6-91.12,35.06-9" fill="#ffc9e6"/>
  <polygon points="1010.54 791.53 974.6 798.35 978.57 858.46 1014.81 848.49 1010.54 791.53" fill="#fca1bb"/>
  <g>
    <path d="M1009.44,825.91c4.31-5.17,2.06-13.55,5.92-19s11.71-9.16,17.85-6.12c5,2.47,7.36,8.5,7.1,14s-2.66,10.75-5.08,15.75a158.85,158.85,0,0,0,54.35,9c8.58-.09,17.19-.87,25.73.05s17.19,3.76,23.26,9.83c4.6,4.6,9.08,11.71,9.35,18.25a7.55,7.55,0,0,1-5.13,7.39c-50.92,17.62-83.87,24-162.58,34.88a7.9,7.9,0,0,1-8.58-5.39c-7-21.48-6.92-48.49.08-69a5.17,5.17,0,0,1,7.57-2.77C985.69,836.66,997.45,840.3,1009.44,825.91Z" fill="#fff" stroke="#000" stroke-miterlimit="10"/>
    <path d="M1143.32,856.78S1018,893.15,968.57,891.72" fill="#fff" stroke="#000" stroke-miterlimit="10"/>
    <path d="M1082.43,840.05c-6.37,7.35-16.8,10.13-26.5,9.42s-18.89-4.46-27.81-8.35l8-11.73" fill="none" stroke="#000" stroke-linecap="round" stroke-linejoin="round"/>
    <path d="M1065.64,838.47c-3,4.69-5,8.74-9.89,11.31" fill="none" stroke="#000" stroke-linecap="round" stroke-linejoin="round"/>
    <path d="M1050.71,834.54a49.78,49.78,0,0,1-10.51,12" fill="none" stroke="#000" stroke-linecap="round" stroke-linejoin="round"/>
    <path d="M1049.1,880.19c-6.35-7.73-16.94-10.58-26.92-11.1s-20.06.8-30-.56-20.17-6.15-24.4-15.2" fill="none" stroke="#000" stroke-linecap="round" stroke-linejoin="round"/>
    <path d="M1037.59,883.87c-7.09-4.37-15.83-5.14-24.16-4.81s-16.66,1.63-25,.93-16.9-3.75-21.93-10.4" fill="none" stroke="#000" stroke-linecap="round" stroke-linejoin="round"/>
  </g>
  <polygon points="1010.99 797.6 974.98 804.14 975.36 809.86 1011.45 803.74 1010.99 797.6" fill="#151614"/>
  <polygon points="1011.71 806.04 975.02 812.75 975.4 818.47 1012.17 812.17 1011.71 806.04" fill="#fff"/>
  <path d="M764.92,436.94c-12,16.58-31.33,40.47-34.22,60.79-5.76,40.5,14,60.34,31.42,70.68C811.71,597.78,933.3,589.22,932.24,589h0c-25.32,91.5,11.48,128,21.11,187.31,22.63,3.41,34.34,1.28,56.89-2.55.43.38-.08,1.23-.62,1-.9-34.27-1.74-69-2.64-103.25-.81-30.77,6.3-85.38-3.45-114.57s-25.17-38.28-54-49.14c-20.9-7.87-36.93-7.27-59.26-6.68S842,500,822.78,488.64c-19.62-11.58-31.46-31.67-46.55-48.73a19.64,19.64,0,0,0-5-4.5A5.16,5.16,0,0,0,764.92,436.94Z" fill="#1b0042"/>
  <path d="M896.19,348.47a259.32,259.32,0,0,0,42.94-51.31c1.59-2.49,2.36-4.19,5.17-5.08s7.62.46,6.81,3.3c.72-2.78,2-2.64,4.9-3,1.75-.2,4.6,1.72,4.86,4.57-.58-2.6,5-5.92,7.6-5.35,6.2,1.34,10.54,15.21,14.22,20.77.92,1.4,1.92,5.47,2.23,7.11s-.29,3.6-1.82,4.28c-2,.86-4.07-.68-5.61-2.15-3.74-3.58-5.48-9.18-8.73-13.22C961,317,959.65,346,946.39,346c-2.87,0-7.4.07-9.72,1.77-12.77,9.35-15.36,28.48-29.16,36.23" fill="#ffc9e6"/>
  <path d="M944.29,303.83c3.21-5.33,3.31-5.87,6.58-9.44" fill="none" stroke="#000" stroke-linecap="round" stroke-linejoin="round"/>
  <path d="M954,305.93c2.64-3.55,3.77-6.51,7.64-11.11" fill="none" stroke="#000" stroke-linecap="round" stroke-linejoin="round"/>
  <path d="M989,338.12c-.73-6.27-1.39-12.95,1.42-18.61a157.81,157.81,0,0,1,8.66-13.94,17,17,0,0,0,3.48-7.35,1.36,1.36,0,0,1,2.43-.67l0,0a5.27,5.27,0,0,1,.67,2.6c.52,7.66-5.47,13.26.33,23.69" fill="#ffc9e6"/>
  <path d="M963.19,358.79a293.77,293.77,0,0,0,48.59-58.06c1.8-2.82,3.8-5.88,7-6.89s7.48,1.65,6.57,4.87c.82-3.14,3.45-4.11,6.68-4.48,2-.23,4.07,3.07,4.36,6.31-.65-3,5.66-6.71,8.61-6.06,7,1.52,11.92,17.22,16.09,23.51,1,1.58,2.17,6.18,2.52,8s-.33,4.08-2.06,4.84c-2.2,1-4.6-.76-6.34-2.43-4.24-4.05-6.21-10.38-9.88-14.95C1043,326,1035,356,1020,356c-3.25,0-8.38.08-11,2-14.45,10.58-17.38,32.23-33,41" fill="#ffc9e6"/>
  <g>
    <path d="M719.06,378.54c0,16-13,42.72-15.24,58.6s-1.35,27.51,8.88,39.87c14.46,17.48,50.61,20.44,72.13,13.27s41.37-19.88,63.82-23.13c17.65-2.56,36.24.85,53-5.12,15-5.32,26.77-17.83,33.2-32.35s7.86-30.9,6.23-46.71c-1.26-12.24-4.93-25.29-14.8-32.63-12.39-9.22-30.38-6.11-43.59,1.88s-23.44,20-35.62,29.53-28,16.6-42.86,12.25c-13.83-4.07-23.12-17-29-30.19C767.41,346.47,792.11,304,752,304,730,304,719,332,719.06,378.54Z" fill="#5c04a0"/>
    <g clip-path="url(#clip-path)">
      <path d="M749.75,308.25c-9,3.38-15.49,11.57-18.84,20.54S727,347.53,727,357.11s.57,19.21-.68,28.71c-1.47,11.16-5.39,21.82-8.68,32.58s-6,22-4.9,33.18,6.54,22.5,16.28,28.12" fill="none" stroke="#fff" stroke-miterlimit="10" opacity="0.15"/>
      <path d="M730.88,471.42c-8.37-7.13-11.32-19-10.67-30s4.36-21.51,7.18-32.14A203.59,203.59,0,0,0,734.17,357" fill="none" stroke="#fff" stroke-miterlimit="10" opacity="0.15"/>
      <path d="M842.05,393.11,882.22,359c7.92-6.74,16.5-13.77,26.83-14.95" fill="none" stroke="#fff" stroke-linecap="round" stroke-linejoin="round" opacity="0.15"/>
      <path d="M851.08,397.45a451.2,451.2,0,0,0,67-52.68" fill="none" stroke="#fff" stroke-linecap="round" stroke-linejoin="round" opacity="0.15"/>
    </g>
  </g>
  <path d="M1132.12,682.31c1.44,1.89,45.58,89.8,45.58,89.8l-33.38,25.47-46.88-92.79,32.75-25" fill="#ffc9e6"/>
  <polygon points="1148.02 713.22 1113.39 736.37 1144.32 797.58 1177.85 771 1148.02 713.22" fill="#fca1bb"/>
  <g>
    <path d="M1162.18,749.73c2.21-7.33-3.89-15.12-2.28-22.59,1.63-7.63,8.18-14.81,16-14.35,6.32.37,11.5,5.63,13.7,11.56s2,12.44,1.69,18.76a180.74,180.74,0,0,0,60.94-14.79c9-3.92,17.63-8.57,27-11.41s19.69-3.72,28.75-.06c6.87,2.77,14.73,8.23,17.92,15a8.6,8.6,0,0,1-2.08,10c-45.5,41.13-77.2,62.46-154.82,108.93a9,9,0,0,1-11.38-1.82c-16.89-19.39-28.83-47.72-30.66-72.36a5.91,5.91,0,0,1,6.71-6.28C1142.08,771.57,1156,770.14,1162.18,749.73Z" fill="#fff" stroke="#000" stroke-miterlimit="10"/>
    <path d="M1316.19,722.47s-115.11,93.9-167.53,114.41" fill="#fff" stroke="#000" stroke-miterlimit="10"/>
    <path d="M1245,732c-3.41,10.54-13.1,18.1-23.58,21.67s-21.77,3.74-32.85,3.64l3.15-15.85" fill="none" stroke="#000" stroke-linecap="round" stroke-linejoin="round"/>
    <path d="M1226.65,737.86c-1,6.24-1.32,11.38-5.32,16.26" fill="none" stroke="#000" stroke-linecap="round" stroke-linejoin="round"/>
    <path d="M1209.25,740.4a56.58,56.58,0,0,1-5.66,17.25" fill="none" stroke="#000" stroke-linecap="round" stroke-linejoin="round"/>
    <path d="M1227.89,788.94c-10.08-5.27-22.45-3.54-33.15.35s-20.65,9.78-31.63,12.76-23.87,2.54-32.34-5.06" fill="none" stroke="#000" stroke-linecap="round" stroke-linejoin="round"/>
    <path d="M1217.48,797.92c-9.38-1.42-18.88,1.67-27.46,5.72s-16.73,9.13-25.74,12.1-19.38,3.58-27.62-1.14" fill="none" stroke="#000" stroke-linecap="round" stroke-linejoin="round"/>
  </g>
  <polygon points="1151.2 719.38 1116.38 742.27 1119.32 748.09 1154.41 725.6 1151.2 719.38" fill="#151614"/>
  <polygon points="1155.7 727.9 1120.25 751.27 1123.19 757.09 1158.92 734.12 1155.7 727.9" fill="#fff"/>
  <path d="M732.79,451.07C727.59,473.79,718,507.43,724,530c12,45,41.5,57,64.39,60.06,65,8.69,188.62-54.41,187.39-54.21h0c14.22,107.15,69,129,105.53,186.85,25.22-6.5,36.55-13.94,58.47-28a.73.73,0,0,1-.19,1.36c-16.2-35.51-32.54-71.5-48.74-107-14.55-31.87-31.42-92.26-54.63-118.5s-43.42-28.9-78.42-27.45c-25.41,1-41.93,8.83-65.07,19.38s-51.09,20.31-76.3,17c-25.71-3.39-47.06-19.17-70.47-30.32a22.23,22.23,0,0,0-7.2-2.51A5.87,5.87,0,0,0,732.79,451.07Z" fill="#1b0042"/>
  <path d="M808.72,215.93s7.93,6.26,16.67,20.46c9.61,15.61-3.24,47.51-11.58,45.23s-20.25-10.36-20.25-10.36l-3,22-24.26-5.3s4.55-28,2.28-44.72c0-.34-.09-.69-.12-1-1.58-15.61,11.07-28.9,26.76-29A31.69,31.69,0,0,1,808.72,215.93Z" fill="#ffc9e6"/>
  <path d="M791,242.78a9.45,9.45,0,0,0-6.65-7.53,7.62,7.62,0,0,0-8.76,4.24,10.24,10.24,0,0,0,.3,7,11.13,11.13,0,0,0,3.47,5.27,5.78,5.78,0,0,0,6,.79" fill="none" stroke="#000" stroke-linecap="round" stroke-linejoin="round"/>
  <path d="M793.77,271.23l-11-5A18.92,18.92,0,0,0,792,282.35Z" fill="#1b0042"/>
  <path d="M805.1,246.55a12.18,12.18,0,0,1,5.14.43,5.75,5.75,0,0,1,3.38,3.06,1,1,0,0,1-.84,1.3,11.42,11.42,0,0,1-7.69-1.79,3.1,3.1,0,0,1-1.1-1.15A1.33,1.33,0,0,1,805.1,246.55Z" fill="none" stroke="#000" stroke-linecap="round" stroke-linejoin="round"/>
  <path d="M826.85,250.56A9.83,9.83,0,0,0,823,249a4.87,4.87,0,0,0-3.76,1,.79.79,0,0,0,.13,1.27,9.73,9.73,0,0,0,6.53,1.64,3.42,3.42,0,0,0,1-.25A1.22,1.22,0,0,0,826.85,250.56Z" fill="none" stroke="#000" stroke-linecap="round" stroke-linejoin="round"/>
  <path d="M818.5,248.16a51.08,51.08,0,0,0,2.1,11.13,2,2,0,0,1-.06,1.84,1.92,1.92,0,0,1-1.68.36l-5.76-.61" fill="none" stroke="#000" stroke-linecap="round" stroke-linejoin="round"/>
  <path d="M810.74,249a1.48,1.48,0,0,0,.22,2,1.46,1.46,0,0,0,2-.14A1.42,1.42,0,1,0,810.74,249Z"/>
  <path d="M825,250.9a1.27,1.27,0,0,0,2,1.63A1.27,1.27,0,1,0,825,250.9Z"/>
  <path d="M813.27,266.47a5.85,5.85,0,0,1,7.94.74C818.75,266.86,815.72,266.82,813.27,266.47Z" fill="none" stroke="#000" stroke-linecap="round" stroke-linejoin="round"/>
  <path d="M821.19,267.49a4,4,0,0,1-4,1.93c-1.55-.24-3.89-1.49-4.23-3"/>
  <circle cx="809.77" cy="251.23" r="6.5" fill="none" stroke="#000" stroke-linecap="round" stroke-linejoin="round"/>
  <circle cx="825.77" cy="253.23" r="6.5" fill="none" stroke="#000" stroke-linecap="round" stroke-linejoin="round"/>
  <line x1="803.99" y1="248.4" x2="791.83" y2="241.67" fill="none" stroke="#000" stroke-linecap="round" stroke-linejoin="round"/>
  <path d="M786.66,246.58a9.49,9.49,0,0,0-6.67-7" fill="none" stroke="#000" stroke-linecap="round" stroke-linejoin="round"/>
  <path d="M785,244c-1,2.21-1.91,2.43-2.87,4.64" fill="none" stroke="#000" stroke-linecap="round" stroke-linejoin="round"/>
  <g>
    <path d="M767.33,288.77c-8.33-2.77-13.07,3.1-13.82,8.92s2.9,9.41,8.5,11.17c10,3.14,15.34,3.95,21.2,3.55,6.31-.44,9.45-.18,12.38-5.8a10.55,10.55,0,0,0,.73-7.66c-1.56-6-6.34-8-12.57-7.77Z" fill="#5c04a0"/>
    <g clip-path="url(#clip-path-2)">
      <path d="M761.35,307.12a14.77,14.77,0,0,1,2.78-18.86" fill="none" stroke="#fff" stroke-linecap="round" stroke-linejoin="round" opacity="0.15"/>
      <path d="M768.75,307.33c.21-2.71.64-10.39,1.29-19.07" fill="none" stroke="#fff" stroke-linecap="round" stroke-linejoin="round" opacity="0.15"/>
      <path d="M780.16,307.34V290.18" fill="none" stroke="#fff" stroke-linecap="round" stroke-linejoin="round" opacity="0.15"/>
      <path d="M788.94,310.39c1.91-6.08,3.32-12.91.4-18.58" fill="none" stroke="#fff" stroke-linecap="round" stroke-linejoin="round" opacity="0.15"/>
    </g>
  </g>
  <g>
    <path d="M777.7,311c-13.14-6.22-29.78.65-38,12.61s-9.49,27.52-7.51,41.92S737.92,392.6,736,407c-2,15,1.47,21.54-4,35-2.93,7.22-2,33,45.42,18.42,7.81-2.4,17.37-5.51,22.15,1.12" fill="#5c04a0"/>
    <g clip-path="url(#clip-path-3)">
      <path d="M750.68,312c-7.14,16.6-6.7,35.4-5,53.38s4.49,36.17,1.67,54c-1.27,8.05-3.68,15.93-4.32,24.05s.72,16.87,6.08,23" fill="none" stroke="#fff" stroke-miterlimit="10" opacity="0.15"/>
      <path d="M758.35,463.32c-4.27-5.93-5.76-13.48-5.7-20.79s1.55-14.52,2.71-21.74a246.16,246.16,0,0,0,2.3-58.91" fill="none" stroke="#fff" stroke-miterlimit="10" opacity="0.15"/>
    </g>
  </g>
  <path d="M762.71,461.9a1,1,0,0,1-1,1.56c-6.55-1.35-14.16,2.28-20.52-.37-5.24-2.18-8-8-9-13.62-2.42-14,3.44-28.1,3.89-42.32.43-13.2,1.2-26.1.12-39.26-1.87-23-5.29-55.89,19.25-62.3" fill="none" stroke="#fff" stroke-linecap="round" stroke-linejoin="round" stroke-width="2"/>
  <g>
    <g>
      <path d="M767.67,384.76c.74,16-4,31.72-6.25,47.6s-1.35,33.51,8.88,45.87c14.46,17.48,41.61,17.44,63.13,10.27s41.37-19.88,63.82-23.13c17.65-2.56,36.25.85,53-5.12,15-5.32,26.76-17.83,33.2-32.35s7.85-30.9,6.23-46.71c-1.26-12.23-4.94-25.29-14.81-32.63-12.38-9.22-30.38-6.11-43.59,1.88s-23.44,20-35.62,29.53-28,16.6-42.85,12.25c-13.83-4.07-23.13-17-29-30.19-7.81-17.34-20.57-65.17-49.25-55.13C746.51,316.73,766.77,365.4,767.67,384.76Z" fill="#5c04a0"/>
      <g clip-path="url(#clip-path-4)">
        <path d="M759.16,319.68c4.71,33.52,18.05,66.19,16,100-.57,9.35-2.34,18.66-1.73,28s4,19.1,11.67,24.53c7.88,5.62,18.62,5.48,27.89,2.73s17.68-7.8,26.61-11.51c22.73-9.43,48-10,72.51-11.86s50.12-5.74,69.91-20.37" fill="none" stroke="#fff" stroke-miterlimit="10" opacity="0.15"/>
        <path d="M767.36,314.15a534.93,534.93,0,0,1,26.33,120c.65,6.43,1.71,13.8,7.17,17.28,6.07,3.87,14,.75,20.57-2.1a212.21,212.21,0,0,1,62.83-16.17c18.34-1.8,36.89-1.2,55.15-3.69s36.77-8.48,50-21.33" fill="none" stroke="#fff" stroke-miterlimit="10" opacity="0.15"/>
        <path d="M775.55,308.91c11.63,13.78,17.42,31.5,21.53,49s6.82,35.55,13.46,52.31c1.33,3.36,2.92,6.78,5.75,9,3.61,2.86,8.56,3.24,13.18,3.17,12.71-.18,25.24-2.85,37.67-5.51l79.09-16.89c15.76-3.36,32.95-7.63,42.42-20.66" fill="none" stroke="#fff" stroke-linecap="round" stroke-linejoin="round" opacity="0.15"/>
        <path d="M789.71,307.32c18.52,20.33,16.79,52.39,31.8,75.43,4.2,6.45,9.85,12.19,16.92,15.26,7.59,3.3,16.2,3.29,24.46,2.57a155.78,155.78,0,0,0,75.69-27.73c7.2-5.07,14.11-10.84,22.4-13.78s18.59-2.38,24.6,4" fill="none" stroke="#fff" stroke-linecap="round" stroke-linejoin="round" opacity="0.15"/>
      </g>
    </g>
    <path d="M793.78,308.58c-14-4.43-30.82,2.91-37.09,16.24-4,8.53-3.91,18.47-2.08,27.72s5.28,18.08,7.74,27.18a131.94,131.94,0,0,1,3.78,48.89c-1.58,14.25-5.37,29.32.44,42.42,4.48,10.13,15.73,20.45,26.76,21.42" fill="none" stroke="#fff" stroke-linecap="round" stroke-linejoin="round" stroke-width="2"/>
    <path d="M842,386.33c8.45,4.24,22,10.67,33.57,4.19,8.26-4.61,16.61-9,24.23-14.57,13.9-10.18,19.17-19.95,34.69-27.56" fill="none" stroke="#fff" stroke-linecap="round" stroke-linejoin="round" stroke-width="2"/>
  </g>
  <path d="M777,251.63c13,1.37,9.26,14.38,7.93,28a10,10,0,0,1-11.62,8.9c-6.22-1.07-13.16-2.89-19.15-4.4a10,10,0,0,1-7.54-10.72A151.52,151.52,0,0,1,752,246.21c3.46-11.63,9.59-22.75,19-30.38s22.42-11.36,34.07-8,22.31,12,21.88,24.16c0,0-32-26-47-10S767.89,250.66,777,251.63Z" fill="#1b0042"/>
  <path d="M797,207c33.33,0,35.22,25.91,37.4,36.54a2.11,2.11,0,0,1-2.4,2.52c-11.24-1.73-28.5-4.94-40.2-3.63,0,0-6.8-12.43-14.51-5.37-7.47,6.84,3.48,16.17,3.48,16.17L774,265l-17-10S756,207,797,207Z" fill="#1b0042"/>
  <path d="M785.6,249.24c3.34-.86,7,2.12,7.48,6s-2.51,7.85-5.94,8-6.58-3.6-6.36-7.52" fill="none" stroke="#fff" stroke-miterlimit="10"/>
  <line x1="816" y1="251" x2="819.34" y2="251.29" fill="none" stroke="#000" stroke-linecap="round" stroke-linejoin="round"/>
  <path d="M1016.49,308.27c4.57-4.27,6-7.77,9.71-11.81" fill="none" stroke="#000" stroke-linecap="round" stroke-linejoin="round"/>
  <path d="M1027.52,309.52c3-4,7.66-8.5,12-13.71" fill="none" stroke="#000" stroke-linecap="round" stroke-linejoin="round"/>
  <path d="M1048.87,309.72c-5.37,2.78-4.37,14.78-8,21.48" fill="none" stroke="#000" stroke-linecap="round" stroke-linejoin="round"/>
  <line x1="988.36" y1="332.53" x2="1006" y2="309.52" fill="none" stroke="#000" stroke-linecap="round" stroke-linejoin="round"/>
  <path d="M955,342.26c5.14-2.16,15.57-10.55,18.71-15.17a138.52,138.52,0,0,0,7-12.71,15,15,0,0,1,4.15-5.87,1.2,1.2,0,0,0-.54-2.16h0a4.71,4.71,0,0,0-2.3.61c-6.12,2.92-7.83,10-18.38,10" fill="#ffc9e6"/>
  <path d="M957.5,317.5s8,1.91,13-2.05,7-8.95,13.88-9.18" fill="none" stroke="#000" stroke-linecap="round" stroke-linejoin="round"/>
  <path d="M977.09,321.24s3.68-8.69,5-9.71" fill="none" stroke="#000" stroke-linecap="round" stroke-linejoin="round"/>
  <path d="M799.25,591.82s73.25.68,178.25-52.32c0,0,4.5,52.5,49.17,119.71" fill="none" stroke="#fff" stroke-linecap="round" stroke-linejoin="round" stroke-width="2"/>
  <path d="M998,410l89.12,12.2a39.1,39.1,0,0,0,25.75-5.62l45.73-23.46a4.55,4.55,0,0,0-2-8.39L1009,368" fill="#fff" stroke="#000" stroke-miterlimit="10" stroke-width="2"/>
  <line x1="963" y1="171" x2="1041" y2="173" fill="#fff" stroke="#000" stroke-miterlimit="10" stroke-width="2"/>
  <line x1="959.5" y1="191.5" x2="1199.5" y2="198.5" fill="#fff" stroke="#000" stroke-miterlimit="10" stroke-width="2"/>
  <line x1="952.5" y1="241.5" x2="1192.5" y2="248.5" fill="#fff" stroke="#000" stroke-miterlimit="10" stroke-width="2"/>
  <line x1="1066" y1="173" x2="1206" y2="175" fill="#fff" stroke="#000" stroke-miterlimit="10" stroke-width="2"/>
  <line x1="948" y1="267" x2="1095" y2="273" fill="#fff" stroke="#000" stroke-miterlimit="10" stroke-width="2"/>
  <line x1="958" y1="217" x2="1036" y2="219" fill="#fff" stroke="#000" stroke-miterlimit="10" stroke-width="2"/>
  <line x1="1061" y1="219" x2="1195" y2="222" fill="#fff" stroke="#000" stroke-miterlimit="10" stroke-width="2"/>
  <path d="M1049.33,289.89a13.22,13.22,0,0,1,8.82,15.14" fill="none" stroke="#000" stroke-linecap="round" stroke-linejoin="round"/>
  <path d="M1055.61,279.75a36.77,36.77,0,0,1,12.4,27.31" fill="none" stroke="#000" stroke-linecap="round" stroke-linejoin="round"/>
  <path d="M1282.23,703.34a30.59,30.59,0,0,1,34.27,5.33" fill="none" stroke="#000" stroke-linecap="round" stroke-linejoin="round"/>
  <path d="M1274.52,692.48A49.07,49.07,0,0,1,1325,703.16" fill="none" stroke="#000" stroke-linecap="round" stroke-linejoin="round"/>
</svg>
