<svg id="Layer_1" data-name="Layer 1" xmlns="http://www.w3.org/2000/svg" xmlns:xlink="http://www.w3.org/1999/xlink" viewBox="0 0 1920 1080">
  <defs>
    <clipPath id="clip-path">
      <path d="M1171.74,285.7c1,3.65.63,7.48.48,11.23-.73,18.58,4.48,36.9,6.68,55.4s.86,38.71-11,53.12c-11.43,13.9-30.84,19.73-49.2,19s-36-7.1-53.08-14-34-14.45-52.15-17.69c-4.74-.84-9.72-1.46-13.75-4.08-5.31-3.47-7.93-10-8.05-16.17s1.91-12.22,4.2-18c4.8-12.1,11.1-24.07,21.32-32.35s25.07-12.14,37.3-6.76c6.9,3,12.27,8.56,17.79,13.63a177.9,177.9,0,0,0,38.24,26.76c4.55,2.36,9.88,4.57,14.65,2.8s7.13-6.73,8.87-11.34a155.84,155.84,0,0,0,9.72-45.28c.3-4.83.39-9.73,1.76-14.36s4.27-9.07,8.74-11.11,10.62-.95,13.22,3.2c-.44-.71-2.5.85-2.2-1.26C1168.61,278.91,1170.94,282.79,1171.74,285.7Z" fill="#5c04a0"/>
    </clipPath>
    <clipPath id="clip-path-2">
      <path d="M1171.5,274.56c-4.5-2.56-11.35,2.36-16.29,8.28S1148,297,1142.1,304.05c-4.73,5.66-9.2,10.93-11.71,17.87s-3.46,14.79-.66,21.61,10.14,12.09,17.4,10.77c1.37,7.51-.64,15.29-3.94,22.17s-7.84,13.08-11.91,19.53c-2.77,4.4-5.38,9.89-3.1,14.56,1.94,4,6.72,5.66,11.1,6.38a52.63,52.63,0,0,0,41.39-11.2c3.84-3.17,7.22-6.88,11.27-9.76s9.06-4.89,14-4c4,.71,7.48,3.27,11.47,4,8.67,1.51,16.7-6.65,18.06-15.35s-2.17-17.38-6.25-25.18c-6.63-12.71-11.93-21.81-9.41-35.92,1.4-7.87,4.63-17.64,4.82-25.63s0-18.51-6.07-23.75-17.43-7.7-22.48-1.5c-3,3.67-5,7.19-9.26,9.25C1172,285,1172.08,274.89,1171.5,274.56Z" fill="#5c04a0"/>
    </clipPath>
    <clipPath id="clip-path-3">
      <path d="M1220.82,274c1.88,3.55,7.82,20.79,9.13,24.58,7,20.46,7.22,24.35,13.8,43.08s10,40.1,1.38,58c-8.3,17.24-26.58,28-45.35,31.73s-38.17,1.34-57.06-1.72-37.87-6.81-57-5.79c-5,.27-10.19.84-14.88-.92-6.21-2.33-10.39-8.46-12-14.89s-.94-13.19,0-19.74c2-13.77,5.57-27.76,14-38.86s22.53-18.72,36.19-16.08c7.7,1.49,14.44,6,21.22,9.89a182.38,182.38,0,0,0,45,18.61c5.17,1.36,11.09,2.37,15.51-.63s5.63-8.74,6.31-14a171.57,171.57,0,0,0-.82-49.52c-.84-5.09-1.9-10.22-1.6-15.38s2.18-10.48,6.23-13.68,10.53-3.57,14.15.12c-.62-.62-2.33,1.5-2.53-.77C1216,267.65,1219.31,271.13,1220.82,274Z" fill="#5c04a0"/>
    </clipPath>
  </defs>
  <title>Vector 1</title>
  <path d="M924,715.5c-.45,2.33-.83,100.7-.83,100.7l41.24,7.94.65-104-40.46-7.79" fill="#ffc9e6"/>
  <polygon points="923.55 750.26 964.86 755.56 964.43 824.14 922.57 815.27 923.55 750.26" fill="#fca1bb"/>
  <polygon points="923.44 757.18 964.82 762.17 964.78 768.69 923.34 764.18 923.44 757.18" fill="#151614"/>
  <polygon points="923.2 766.82 965.35 771.96 965.31 778.48 923.1 773.82 923.2 766.82" fill="#fff"/>
  <g>
    <path d="M923.55,788.79c-5.24-5.58-3.25-15.26-8-21.24-6.11-7.65-18.83-11.24-25.33-1.24a16.77,16.77,0,0,0-2.58,8.14c-.46,7.81,3.22,14.75,6.94,21.36a180.77,180.77,0,0,1-61.16,13.91c-9.76.48-19.6.17-29.23,1.8s-19.29,5.44-25.77,12.75c-4.92,5.54-9.52,13.93-9.38,21.38a8.6,8.6,0,0,0,6.33,8.05c58.48,16.4,96.2,21.44,184.51,28.38A12,12,0,0,0,972.51,873c5.7-24.39,3.59-53.74-5.42-75.81a5.9,5.9,0,0,0-8.8-2.64C951.27,799.4,938.15,804.33,923.55,788.79Z" fill="#fff" stroke="#000" stroke-miterlimit="10"/>
    <path d="M773.52,833s144.88,32.81,201,27.84" fill="#fff" stroke="#000" stroke-miterlimit="10"/>
    <path d="M841.57,809.82c7.74,7.92,19.78,10.37,30.76,8.9s21.16-6.35,31-11.37l-9.87-12.79" fill="none" stroke="#000" stroke-miterlimit="10"/>
    <path d="M860.54,806.88c3.68,5.14,6.25,9.6,12,12.19" fill="none" stroke="#000" stroke-miterlimit="10"/>
    <path d="M877.25,801.41A56.84,56.84,0,0,0,890,814.33" fill="none" stroke="#000" stroke-miterlimit="10"/>
    <path d="M882.18,853.17C888.86,844,900.71,840,912,838.72s22.84-.45,34-2.66,22.49-8.36,26.69-18.94" fill="none" stroke="#000" stroke-miterlimit="10"/>
    <path d="M895.5,856.57c7.77-5.45,17.65-6.91,27.14-7.11s19,.73,28.43-.63,18.95-5.42,24.22-13.32" fill="none" stroke="#000" stroke-miterlimit="10"/>
  </g>
  <path d="M825.38,618.31c-1.44,1.89-45.59,89.8-45.59,89.8l33.39,25.47,46.88-92.79-32.76-25" fill="#ffc9e6"/>
  <polygon points="809.48 649.22 844.11 672.37 813.18 733.58 779.64 707 809.48 649.22" fill="#fca1bb"/>
  <g>
    <path d="M795.32,685.73c-2.21-7.33,3.89-15.12,2.28-22.59-1.63-7.63-8.19-14.81-16-14.35-6.32.37-11.5,5.63-13.7,11.56s-2,12.44-1.69,18.76a180.74,180.74,0,0,1-60.94-14.79c-9-3.92-17.63-8.57-27-11.41s-19.69-3.72-28.75-.06c-6.87,2.77-14.73,8.23-17.92,15a8.59,8.59,0,0,0,2.08,10c45.5,41.13,77.2,62.46,154.81,108.93A9,9,0,0,0,799.93,785c16.89-19.39,28.83-47.72,30.65-72.36a5.9,5.9,0,0,0-6.7-6.28C815.42,707.57,801.47,706.14,795.32,685.73Z" fill="#fff" stroke="#000" stroke-miterlimit="10"/>
    <path d="M641.31,658.47s115.11,93.9,167.53,114.41" fill="#fff" stroke="#000" stroke-miterlimit="10"/>
    <path d="M712.55,668c3.4,10.54,13.1,18.1,23.58,21.67s21.77,3.74,32.84,3.64l-3.14-15.85" fill="none" stroke="#000" stroke-miterlimit="10"/>
    <path d="M730.85,673.86c1,6.24,1.32,11.38,5.32,16.26" fill="none" stroke="#000" stroke-miterlimit="10"/>
    <path d="M748.24,676.4a57.13,57.13,0,0,0,5.66,17.25" fill="none" stroke="#000" stroke-miterlimit="10"/>
    <path d="M729.6,724.94c10.09-5.27,22.46-3.54,33.15.35s20.66,9.78,31.64,12.76,23.87,2.54,32.34-5.06" fill="none" stroke="#000" stroke-miterlimit="10"/>
    <path d="M740,733.92c9.38-1.42,18.88,1.67,27.46,5.72s16.73,9.13,25.74,12.1,19.38,3.58,27.61-1.14" fill="none" stroke="#000" stroke-miterlimit="10"/>
  </g>
  <polygon points="806.3 655.38 841.12 678.27 838.18 684.09 803.09 661.6 806.3 655.38" fill="#151614"/>
  <polygon points="801.79 663.9 837.24 687.27 834.3 693.09 798.58 670.12 801.79 663.9" fill="#fff"/>
  <path d="M1174.73,354.05c14.39,18.33,2.48,18.66,18.36,47.65,11.22,20.49,26.06,31,25.05,54.37-1.23,28.52-9,43.07-31.61,60.45-52,39.94-155.49,17-194.35,6.84-1.2-.31-14.45,150.82-22.8,218.66-25.59,4.87-45.85-3.35-71.68-6.72-.46.45-1.84-22.6-1.25-22.85-.48-39-1.05-54.55-1.53-93.58-.43-35-.79-70.67,9-104.3S925.4,449,957.68,435.38c23.43-9.88,49.73-9.26,75.16-9.57s52.16-2.14,73.55-15.89c21.81-14,39.18-31.92,55.6-52a22.28,22.28,0,0,1,5.45-5.34A5.86,5.86,0,0,1,1174.73,354.05Z" fill="#1b0042"/>
  <path d="M1224.71,387.07C1229.91,409.79,1236,409,1238,442c1.41,23.32,4.86,58.32-6,79-13.27,25.27-37,38-59.89,41.06-65,8.69-160.54-62.36-191.38-88.07a1.22,1.22,0,0,1,1-2.14h0c-20.35,65.25-69,129-105.52,186.85-25.22-6.5-36.55-13.94-58.47-28a.73.73,0,0,0,.19,1.36c16.2-35.51,32.54-71.5,48.74-107,14.55-31.87,29.42-64.26,52.63-90.5s44.42-46.9,79.42-45.45c25.41,1,45.93,10.83,69.07,21.38s48.09,20.31,73.3,17c25.71-3.39,47.06-31.17,70.47-42.32a22.23,22.23,0,0,1,7.2-2.51A5.87,5.87,0,0,1,1224.71,387.07Z" fill="#1b0042"/>
  <path d="M885.25,644.58S953,537,981,474c0,0,50,48.18,97.51,65.09" fill="none" stroke="#fff" stroke-linecap="round" stroke-linejoin="round" stroke-width="2"/>
  <path d="M1104.71,423.86a192,192,0,0,1,48.22,25.76" fill="none" stroke="#fff" stroke-linecap="round" stroke-linejoin="round" stroke-width="2"/>
  <g>
    <path d="M1171.74,285.7c1,3.65.63,7.48.48,11.23-.73,18.58,4.48,36.9,6.68,55.4s.86,38.71-11,53.12c-11.43,13.9-30.84,19.73-49.2,19s-36-7.1-53.08-14-34-14.45-52.15-17.69c-4.74-.84-9.72-1.46-13.75-4.08-5.31-3.47-7.93-10-8.05-16.17s1.91-12.22,4.2-18c4.8-12.1,11.1-24.07,21.32-32.35s25.07-12.14,37.3-6.76c6.9,3,12.27,8.56,17.79,13.63a177.9,177.9,0,0,0,38.24,26.76c4.55,2.36,9.88,4.57,14.65,2.8s7.13-6.73,8.87-11.34a155.84,155.84,0,0,0,9.72-45.28c.3-4.83.39-9.73,1.76-14.36s4.27-9.07,8.74-11.11,10.62-.95,13.22,3.2c-.44-.71-2.5.85-2.2-1.26C1168.61,278.91,1170.94,282.79,1171.74,285.7Z" fill="#5c04a0"/>
    <g clip-path="url(#clip-path)">
      <path d="M991.37,369.37c1.4,5.35,5.94,9.41,11,11.71s10.58,3.13,16,4.11a260.21,260.21,0,0,1,55.09,16.35" fill="none" stroke="#fff" stroke-miterlimit="10" stroke-width="2" opacity="0.15"/>
      <path d="M995.46,356.06c10.76,9.85,26,12.56,40.42,15s29.68,5.54,40,15.84" fill="none" stroke="#fff" stroke-miterlimit="10" stroke-width="2" opacity="0.15"/>
      <path d="M1014.8,325.86c27.33,3.12,46.21,30.83,73.12,36.54" fill="none" stroke="#fff" stroke-miterlimit="10" stroke-width="2" opacity="0.15"/>
      <path d="M1057.72,327.94A254.06,254.06,0,0,1,1088.34,352" fill="none" stroke="#fff" stroke-miterlimit="10" stroke-width="2" opacity="0.15"/>
    </g>
  </g>
  <path d="M987.76,319.55l7.94-23.92c.33-1,.8-2.09,1.85-2.37,1.39-.36,2.58,1,3.13,2.23,2.07,4.61,1.36,9.86.22,14.74S998.19,320,998.66,325" fill="#ffc9e6"/>
  <path d="M960.38,236.43c7.49.52,25.08,3.47,37,15a6.07,6.07,0,0,0,6.86,1.13c9.8-4.73,38.94-6.84,63.24-4.06a2.54,2.54,0,0,1,2.27,2.42l.34,76.11a2.52,2.52,0,0,1-3.21,2.54c-9.57-2.7-37.49-9.71-55.78-5.36a5.76,5.76,0,0,1-6.07-2.24c-4.17-5.94-14.17-17.81-28.77-20.07a2.51,2.51,0,0,1-2-1.85l-16.09-60.89A2.14,2.14,0,0,1,960.38,236.43Z" fill="#1b0042"/>
  <path d="M1154.05,204.69s-11.88,4.5-16.67,20.47c-4.55,15.16-.76,48.5,7.58,46.23S1169.21,260,1169.21,260l3,22,24.25-5.31s-4.54-28-2.27-44.71c0-.35.09-.69.12-1,1.58-15.6-11.08-28.89-26.76-28.94A31.68,31.68,0,0,0,1154.05,204.69Z" fill="#ffc9e6"/>
  <path d="M1197,362.45c-3.63,4.4-16,5.28-21.47,3.51s-13.52-7-13.87-12.74" fill="none" stroke="#fff" stroke-linecap="round" stroke-linejoin="round" stroke-width="2"/>
  <g>
    <path d="M1171.5,274.56c-4.5-2.56-11.35,2.36-16.29,8.28S1148,297,1142.1,304.05c-4.73,5.66-9.2,10.93-11.71,17.87s-3.46,14.79-.66,21.61,10.14,12.09,17.4,10.77c1.37,7.51-.64,15.29-3.94,22.17s-7.84,13.08-11.91,19.53c-2.77,4.4-5.38,9.89-3.1,14.56,1.94,4,6.72,5.66,11.1,6.38a52.63,52.63,0,0,0,41.39-11.2c3.84-3.17,7.22-6.88,11.27-9.76s9.06-4.89,14-4c4,.71,7.48,3.27,11.47,4,8.67,1.51,16.7-6.65,18.06-15.35s-2.17-17.38-6.25-25.18c-6.63-12.71-11.93-21.81-9.41-35.92,1.4-7.87,4.63-17.64,4.82-25.63s0-18.51-6.07-23.75-17.43-7.7-22.48-1.5c-3,3.67-5,7.19-9.26,9.25C1172,285,1172.08,274.89,1171.5,274.56Z" fill="#5c04a0"/>
    <g clip-path="url(#clip-path-2)">
      <path d="M1173.5,277.77l-14.43,19.82c-6.79,9.32-13.68,18.83-17.36,29.75s-3.73,23.69,2.66,33.29" fill="none" stroke="#fff" stroke-linecap="round" stroke-linejoin="round" stroke-width="2" opacity="0.15"/>
      <path d="M1158.24,362.63c-7.19-7.25-8.64-18.69-6.39-28.65s7.65-18.86,12.71-27.73,10-18.15,11.11-28.3" fill="none" stroke="#fff" stroke-linecap="round" stroke-linejoin="round" stroke-width="2" opacity="0.15"/>
      <path d="M1183.16,277.59c2.21,7,.4,14.64-2.55,21.35s-7,12.92-9.58,19.77a50.81,50.81,0,0,0,4.66,44.49" fill="none" stroke="#fff" stroke-linecap="round" stroke-linejoin="round" stroke-width="2" opacity="0.15"/>
      <path d="M1191,362.4a62.72,62.72,0,0,1,5.48-41.85" fill="none" stroke="#fff" stroke-linecap="round" stroke-linejoin="round" stroke-width="2" opacity="0.15"/>
    </g>
  </g>
  <g>
    <path d="M1220.82,274c1.88,3.55,7.82,20.79,9.13,24.58,7,20.46,7.22,24.35,13.8,43.08s10,40.1,1.38,58c-8.3,17.24-26.58,28-45.35,31.73s-38.17,1.34-57.06-1.72-37.87-6.81-57-5.79c-5,.27-10.19.84-14.88-.92-6.21-2.33-10.39-8.46-12-14.89s-.94-13.19,0-19.74c2-13.77,5.57-27.76,14-38.86s22.53-18.72,36.19-16.08c7.7,1.49,14.44,6,21.22,9.89a182.38,182.38,0,0,0,45,18.61c5.17,1.36,11.09,2.37,15.51-.63s5.63-8.74,6.31-14a171.57,171.57,0,0,0-.82-49.52c-.84-5.09-1.9-10.22-1.6-15.38s2.18-10.48,6.23-13.68,10.53-3.57,14.15.12c-.62-.62-2.33,1.5-2.53-.77C1216,267.65,1219.31,271.13,1220.82,274Z" fill="#5c04a0"/>
    <g clip-path="url(#clip-path-3)">
      <path d="M1057.47,398c2.79,7.42,10.86,11.67,18.71,12.7s15.79-.45,23.69-1c43.67-2.95,87.87,23.11,129.72,10.3" fill="none" stroke="#fff" stroke-linecap="round" stroke-linejoin="round" stroke-width="2" opacity="0.15"/>
      <path d="M1060.86,389.77a330.82,330.82,0,0,1,82.71,4.42c17.86,3.23,35.54,7.95,53.66,8.93s37.22-2.19,51.65-13.19" fill="none" stroke="#fff" stroke-linecap="round" stroke-linejoin="round" stroke-width="2" opacity="0.15"/>
      <path d="M1091.91,366.15l95.54,11.41c13.62,1.62,29.32,2.59,39.07-7.06,8.62-8.53,9.13-22.25,7.24-34.23s-5.64-24-3.5-36" fill="none" stroke="#fff" stroke-linecap="round" stroke-linejoin="round" stroke-width="2" opacity="0.15"/>
      <path d="M1075,345.92a72.18,72.18,0,0,1,60.42.17" fill="none" stroke="#fff" stroke-linecap="round" stroke-linejoin="round" stroke-width="2" opacity="0.15"/>
      <path d="M1194.94,357.43c5.09,2.43,11.46-.85,14.3-5.73s3-10.82,2.84-16.46a199.3,199.3,0,0,0-3.75-33.48c-1.19-5.95-2.65-12-1.64-18S1212,271.83,1218,271" fill="none" stroke="#fff" stroke-linecap="round" stroke-linejoin="round" stroke-width="2" opacity="0.15"/>
    </g>
  </g>
  <path d="M1201.66,267.33c-5.38,1.93-8.68,7.59-9.54,13.24s.24,11.38,1.14,17c2.39,15.06,6.28,29.37,5.67,44.61-.28,7-1.36,14.83-7,18.9s-13.2,2.65-19.78.78a194.62,194.62,0,0,1-40.25-16.44" fill="none" stroke="#fff" stroke-linecap="round" stroke-linejoin="round" stroke-width="2"/>
  <path d="M1081.07,340.59c-19,19.31-26.21,49.46-17.92,75.28" fill="none" stroke="#fff" stroke-linecap="round" stroke-linejoin="round" stroke-width="2"/>
  <path d="M1143,300.89c2.78-2.09,9.74-12.09,11.54-15.07s3.55-6.07,6.06-8.48,6-4.12,9.43-3.64" fill="none" stroke="#fff" stroke-linecap="round" stroke-linejoin="round" stroke-width="2"/>
  <path d="M1144,223c8,4.56,16.94,6.63,25,8,1.17.2,2.27.5,2.69-.61a10.52,10.52,0,0,1,5.79-5.7c2.79-.82,6-.76,7.92,1.38,2.48,2.69,2.1,6.86.9,10.28-.25.73.32,1.39-.19,2h-1c-1.48,1.69-3.73,2.13-2.12,3.7a109.08,109.08,0,0,0,11.18,8.76,90.4,90.4,0,0,0,1.19-23.06c-.5-7.5-3.22-15.17-8.91-20.09-5.06-4.39-12-6.18-18.72-5.86s-13.16,2.57-19.2,5.48a31.39,31.39,0,0,0-11.27,9.44,13.91,13.91,0,0,0-1.23,13.24S1139,229,1144,223Z" fill="#1b0042"/>
  <path d="M1171.78,231.54a9.43,9.43,0,0,1,6.65-7.53,7.63,7.63,0,0,1,8.76,4.25,10.27,10.27,0,0,1-.3,7,11,11,0,0,1-3.47,5.27,5.77,5.77,0,0,1-6,.8" fill="none" stroke="#000" stroke-linecap="round" stroke-linejoin="round"/>
  <path d="M1169,260l11-5a18.92,18.92,0,0,1-9.26,16.12Z" fill="#1b0042"/>
  <path d="M1157.66,235.32a12,12,0,0,0-5.13.43,5.76,5.76,0,0,0-3.38,3.05,1,1,0,0,0,.84,1.3,11.36,11.36,0,0,0,7.69-1.78,3.06,3.06,0,0,0,1.1-1.16A1.32,1.32,0,0,0,1157.66,235.32Z" fill="none" stroke="#000" stroke-linecap="round" stroke-linejoin="round"/>
  <path d="M1135.92,239.32a10,10,0,0,1,3.88-1.56,4.88,4.88,0,0,1,3.76,1,.79.79,0,0,1-.13,1.27,9.67,9.67,0,0,1-6.53,1.64,3.1,3.1,0,0,1-1-.25A1.22,1.22,0,0,1,1135.92,239.32Z" fill="none" stroke="#000" stroke-linecap="round" stroke-linejoin="round"/>
  <path d="M1144.27,236.92a51.17,51.17,0,0,1-2.1,11.14c-.19.61-.37,1.35,0,1.83a1.94,1.94,0,0,0,1.69.37l5.76-.61" fill="none" stroke="#000" stroke-linecap="round" stroke-linejoin="round"/>
  <path d="M1152,237.73a1.42,1.42,0,0,1-2.19,1.82A1.42,1.42,0,1,1,1152,237.73Z"/>
  <path d="M1137.75,239.67a1.27,1.27,0,0,1-2,1.62A1.27,1.27,0,1,1,1137.75,239.67Z"/>
  <path d="M1147.05,232.8a3.17,3.17,0,0,1,2.08-1.9,14.08,14.08,0,0,1,7.37-.89" fill="none" stroke="#000" stroke-linecap="round" stroke-linejoin="round"/>
  <path d="M1133.7,233.67a6.51,6.51,0,0,1,6.37-1.43" fill="none" stroke="#000" stroke-linecap="round" stroke-linejoin="round"/>
  <path d="M1149.5,255.24a5.83,5.83,0,0,0-7.94.74C1144,255.63,1147,255.59,1149.5,255.24Z" fill="none" stroke="#000" stroke-linecap="round" stroke-linejoin="round"/>
  <path d="M1141.58,256.26a4,4,0,0,0,4,1.92c1.55-.23,3.89-1.49,4.23-3"/>
  <circle cx="1153" cy="240" r="6.5" fill="none" stroke="#000" stroke-linecap="round" stroke-linejoin="round"/>
  <circle cx="1137" cy="242" r="6.5" fill="none" stroke="#000" stroke-linecap="round" stroke-linejoin="round"/>
  <line x1="1158.78" y1="237.16" x2="1170.94" y2="230.44" fill="none" stroke="#000" stroke-linecap="round" stroke-linejoin="round"/>
  <path d="M1084.26,385.19a10.23,10.23,0,0,1-12.78-1.84c-5.7-5.86-13.48-9.56-20.88-13.27-8.7-4.37-17.72-9.53-22.26-18.15s-3.68-18.89-3.72-28.62a140.85,140.85,0,0,0-4.55-34.85,1.27,1.27,0,0,1,1.67-1.52,7.09,7.09,0,0,1,3.12,2.32,16,16,0,0,1,2.48,5.58,76.51,76.51,0,0,1,2.58,13.74c-.56-8-.87-16-1.43-24a2,2,0,0,1,.06-.92,1.51,1.51,0,0,1,2-.66,4.07,4.07,0,0,1,1.64,1.65,35,35,0,0,1,5.5,22.22,176.1,176.1,0,0,0,.44-22.84,1.38,1.38,0,0,1,2.09-1.26,8.19,8.19,0,0,1,3,3.18,21.06,21.06,0,0,1,1.83,6.5q2.71,15.94,5.42,31.9a.27.27,0,0,0,.52,0,80,80,0,0,1,6.22-16,2.52,2.52,0,0,1,1.5-1.33c1.94-.56,2.86,1.69,3,3.44.27,5.46-1.91,10.75-2.08,16.21-.13,4.06.85,8.06,1.31,12.1s.33,8.37-1.81,11.82a48.07,48.07,0,0,0,20.27,5.23c2.57.11,5.28,0,7.55,1.26,2.43,1.32,3.9,3.95,4.68,6.61a20.32,20.32,0,0,1-5.88,20.41A10.39,10.39,0,0,1,1084.26,385.19Z" fill="#ffc9e6"/>
  <path d="M1000.05,330.62a48.07,48.07,0,0,0,20.27,5.23c2.57.11,5.28,0,7.55,1.26,2.43,1.32,3.9,3.95,4.68,6.61a20.32,20.32,0,0,1-5.88,20.41,10.39,10.39,0,0,1-1.41,1.06,10.23,10.23,0,0,1-12.78-1.84c-5.7-5.86-13.48-9.56-20.88-13.27-8.7-4.37-17.72-9.53-22.26-18.15s-3.68-18.89-3.72-28.62a140.85,140.85,0,0,0-4.55-34.85,1.27,1.27,0,0,1,1.67-1.52,7.09,7.09,0,0,1,3.12,2.32,16,16,0,0,1,2.48,5.58,76.51,76.51,0,0,1,2.58,13.74c-.56-8-.87-16-1.43-24a2,2,0,0,1,.06-.92,1.51,1.51,0,0,1,2-.66,4.07,4.07,0,0,1,1.64,1.65,35,35,0,0,1,5.5,22.22,176.1,176.1,0,0,0,.44-22.84,1.38,1.38,0,0,1,2.09-1.26,8.19,8.19,0,0,1,3,3.18,21.06,21.06,0,0,1,1.83,6.5q2.82,16.57,5.63,33.15S998.11,313.25,1000.05,330.62Z" fill="#ffc9e6"/>
  <path d="M1031.49,357.14a55.36,55.36,0,0,1-6.92-21" fill="none" stroke="#000" stroke-linecap="round" stroke-linejoin="round"/>
  <path d="M1029.77,318.1a128.17,128.17,0,0,0-.52-17.31" fill="none" stroke="#000" stroke-linecap="round" stroke-linejoin="round"/>
  <path d="M1037.1,319.05a132.92,132.92,0,0,0,.36-19.14" fill="none" stroke="#000" stroke-linecap="round" stroke-linejoin="round"/>
  <path d="M977.1,303.05c.58-6.36,1.7-13.76,1.36-20.14" fill="none" stroke="#000" stroke-linecap="round" stroke-linejoin="round"/>
  <path d="M970.1,302.05a119.42,119.42,0,0,0,.36-18.14" fill="none" stroke="#000" stroke-linecap="round" stroke-linejoin="round"/>
  <path d="M991.18,304.54c4.32,6,7.32,13,7.12,17.27" fill="none" stroke="#000" stroke-linecap="round" stroke-linejoin="round"/>
  <line x1="1050.5" y1="323.5" x2="1047.5" y2="330.5" fill="none" stroke="#000" stroke-linecap="round" stroke-linejoin="round"/>
  <path d="M1177.17,238c-3.34-.86-7.05,2.12-7.48,6s2.51,7.84,5.94,8,6.58-3.6,6.36-7.53" fill="none" stroke="#000" stroke-linecap="round" stroke-linejoin="round"/>
  <path d="M1176.11,235.35a9.49,9.49,0,0,1,6.67-7" fill="none" stroke="#000" stroke-linecap="round" stroke-linejoin="round"/>
  <path d="M1177.81,230.78l2.87,6.64" fill="none" stroke="#000" stroke-linecap="round" stroke-linejoin="round"/>
  <path d="M1003.52,251.78c4.19-7.6,11-13.53,18.68-17.63,8.35-4.47,23-7.81,32.32-9.41,2-.08-.74,6,.34,12.48" fill="none" stroke="#000" stroke-linecap="round" stroke-linejoin="round"/>
  <path d="M1001.18,250.52c3.72-16.75,16.31-28.29,32.29-34.53.72,4.52-.64,7.13.07,11.66" fill="none" stroke="#000" stroke-linecap="round" stroke-linejoin="round"/>
  <path d="M999.57,249.27a35.47,35.47,0,0,0-18.15-34.69c-.28,3.4.49,7.77.21,11.17" fill="none" stroke="#000" stroke-linecap="round" stroke-linejoin="round"/>
  <path d="M966.4,236.29c0-3.41-1.15-7.77-1.2-11.17a26.76,26.76,0,0,1,19.42,4.28c5.6,3.85,11.71,11.84,13,18.51" fill="none" stroke="#000" stroke-linecap="round" stroke-linejoin="round"/>
  <ellipse cx="1203.73" cy="182.66" rx="34.46" ry="28" transform="translate(443.67 1133.79) rotate(-60)" fill="#1b0042"/>
  <path d="M1008.5,249.5c16-9,39-13,54.21-11.45,0,2.84-.09,4.68-.13,7.52" fill="none" stroke="#000" stroke-linecap="round" stroke-linejoin="round"/>
  <path d="M627.13,641a72.83,72.83,0,0,1,51.38-5.86" fill="none" stroke="#000" stroke-linecap="round" stroke-linejoin="round"/>
  <path d="M641.61,624.44a63.17,63.17,0,0,1,40,.79" fill="none" stroke="#000" stroke-linecap="round" stroke-linejoin="round"/>
  <path d="M945.17,253.9a26.47,26.47,0,0,1-2.87-24.1" fill="none" stroke="#000" stroke-linecap="round" stroke-linejoin="round"/>
  <path d="M933.8,252.77a24.47,24.47,0,0,1-4.56-15.92" fill="none" stroke="#000" stroke-linecap="round" stroke-linejoin="round"/>
</svg>
