<svg id="Layer_1" data-name="Layer 1" xmlns="http://www.w3.org/2000/svg" xmlns:xlink="http://www.w3.org/1999/xlink" viewBox="0 0 1920 1080">
  <defs>
    <clipPath id="clip-path">
      <path d="M609.61,431.05A227.28,227.28,0,0,1,647,470.68c4.94,6.69,10.29,14.18,18.42,15.94,4.64,1,9.45-.08,14-1.27a298.34,298.34,0,0,0,47.34-16.63c11.39-5.11,24.33-11,35.78-6.05,7.46,3.24,12.48,10.68,14.61,18.53s1.74,16.15,1,24.25c-1.36,14.33-3.9,28.62-8.77,42.16-2,5.65-5,11.73-10.72,13.7-3.44,1.18-7.2.61-10.78,0l-60.39-9.93c-7.93-1.31-16-2.64-23.32-5.86-9.24-4-17-10.89-23.75-18.39-12.58-13.95-22.2-30.45-35.44-43.78-8.26-8.32-18-15.48-24-25.52-5.46-9.05-7.53-23.12.1-31.73C589.1,417.06,602.46,425.1,609.61,431.05Z" fill="#5c04a0"/>
    </clipPath>
    <clipPath id="clip-path-2">
      <path d="M558.71,423c-5.32,5.05-8.09,12.13-11.27,18.74-6,12.38-19.16,22.36-19.88,36.08C525,527,515.12,529.08,506.17,539.5c-31.88,37.15-12.61,43.66-5.17,39.5,19.17-10.72,90.14-25.42,95.5-21.77,5,3.43,12.25,5.32,16.94,1.44,2.94-2.44,4-6.63,3.43-10.4a21.78,21.78,0,0,0-5-10.12c-3.19-3.93-7.36-7.07-10.05-11.35-6.78-10.8-5-28.29-3.72-33.18,1.15-4.41,2.82-11.11,7.37-11.39C625,481,621.65,454,616,442,608.62,426.39,575.82,406.74,558.71,423Z" fill="#5c04a0"/>
    </clipPath>
    <clipPath id="clip-path-3">
      <path d="M574.31,410.08c-7-2.33-11,2.61-11.62,7.5s2.44,7.9,7.15,9.38c8.39,2.64,12.89,3.32,17.81,3,5.3-.36,7.94-.15,10.4-4.87a8.86,8.86,0,0,0,.62-6.43c-1.31-5.07-5.33-6.72-10.56-6.53Z" fill="#5c04a0"/>
    </clipPath>
    <clipPath id="clip-path-4">
      <path d="M570.8,422.9c-10-5.91-18.25-7.71-28.8-2.9s-19,8-31,16c-9.65,6.43-28.95,21.76-38,29-19.76,15.81-27.51,20.23-44.32,39.15-9.84,11.08-22.11,34.37-27.17,48.3-4.18,11.51-8.36,23-11.89,34.75-1.71,5.7-3.25,12-.92,17.44,3.35,7.91,13,10.66,21.55,11.79a169.66,169.66,0,0,0,44.23.06c10.28-1.34,14.12-2,21.18-9.59,5.91-6.36,8.26-15.31,8.81-24s-.48-17.36-.31-26c.6-29.53,23.06-60.39,47.32-77.24,12.11-8.4,32.8-11.56,40.19-24.32,4.88-8.43,6.72-15.08,3.22-24.17Z" fill="#5c04a0"/>
    </clipPath>
    <clipPath id="clip-path-5">
      <path d="M1321.66,385.13c-4.14-4.84-11.74-5.46-17.63-3s-10.38,7.32-14.4,12.27c-8.46,10.45-15.65,21.9-24.43,32.08s-2.37,8.5-15.27,12.27c-8.14-16.72-19.11-42-27.25-58.76-2.68-5.52-5.53-11.25-10.4-15-9.42-7.26-22.81-4.82-34.38-2-9,2.17-18.22,4.42-26.18,9.21S1137.08,384.77,1136,394c-1,8.8,3.18,17.42,8.53,24.48s9.83,14.35,14.9,21.61c6.14,8.77,26.4,31.85,18.65,24.48-2.78-2.64,7.54,44.8,18.06,50.72,9.75,5.48,22.22,3.62,32.59-.57s19.35-11.12,28.17-18c22.6-17.59,32-40.53,54.45-58.36" fill="#5c04a0"/>
    </clipPath>
    <clipPath id="clip-path-6">
      <path d="M1320.66,385.78c-5-1.9-10.72,1-13.82,5.29s-4.15,9.73-5.13,14.95c-2.13,11.41-11.78,21.21-13.91,32.62-.9,4.82,3.61,11,7.71,16.08,3.08,3.8,8,7.5,11.94,4.6,4.33,5.17,3.06,12.81,1.83,19.44s-1.74,14.6,3.39,19c4.24,3.61,10.68,3.09,15.84,1s9.72-5.51,15-7.35c17.51-6.14,38.24,6.37,54.87-1.88,5.27-2.61,9.7-7.64,10.08-13.52.51-7.92-6.1-14.46-12.87-18.61S1381,450,1376.45,443.49A170.55,170.55,0,0,0,1363.74,391c-1.6-3.82-3.45-7.73-6.71-10.3s-8.3-3.32-11.45-.63Z" fill="#5c04a0"/>
    </clipPath>
    <clipPath id="clip-path-7">
      <path d="M1347,405.07l9.59,43.21c.85,3.84,1.57,8.29-.9,11.34-1.49,1.84-3.84,2.73-6.13,3.32-12.13,3.14-24.86.05-37.29-1.51s-26.41-1.09-35.59,7.43c-8.55,7.94-10.52,20.94-8.72,32.47,2.94,18.79,15.21,36.18,32.51,44.07s39.21,5.41,53.52-7.11,20-33,34.43-45.61c4.42-3.87,9.65-7,13-11.75,6.84-9.65,4.22-23.18-1.24-33.67s-13.44-19.7-17.37-30.85c-2.26-6.42-3.1-13.26-4.85-19.83s-4.66-13.19-10-17.41c-5.06-4-15.63-5.84-20.5-.46C1342,384.77,1345.45,398.18,1347,405.07Z" fill="#5c04a0"/>
    </clipPath>
    <clipPath id="clip-path-8">
      <path d="M1346.06,381.31c-2.9,5-9.21,6.93-15,6.84a18.48,18.48,0,0,1-10-2.69c-2.92-1.94-5.06-5.29-4.89-8.79,4.2,3,10.18.92,14.29-2.23,3.46-2.65,8.23-9.38,13-7.22C1348.07,369.28,1348.16,377.72,1346.06,381.31Z" fill="#5c04a0"/>
    </clipPath>
  </defs>
  <title>Vector 1</title>
  <path d="M1289.28,342.87c-8.51,3.8-10.88,14.55-12.17,23.78-1,6.92-1.92,14-.89,20.86s4.34,13.81,10.23,17.55c9.52,6,23,1.73,30.07-7.06s8.92-20.68,8.81-31.95c-.09-9.4-2.7-20.57-11.52-23.81" fill="#1b0042"/>
  <g>
    <path d="M609.61,431.05A227.28,227.28,0,0,1,647,470.68c4.94,6.69,10.29,14.18,18.42,15.94,4.64,1,9.45-.08,14-1.27a298.34,298.34,0,0,0,47.34-16.63c11.39-5.11,24.33-11,35.78-6.05,7.46,3.24,12.48,10.68,14.61,18.53s1.74,16.15,1,24.25c-1.36,14.33-3.9,28.62-8.77,42.16-2,5.65-5,11.73-10.72,13.7-3.44,1.18-7.2.61-10.78,0l-60.39-9.93c-7.93-1.31-16-2.64-23.32-5.86-9.24-4-17-10.89-23.75-18.39-12.58-13.95-22.2-30.45-35.44-43.78-8.26-8.32-18-15.48-24-25.52-5.46-9.05-7.53-23.12.1-31.73C589.1,417.06,602.46,425.1,609.61,431.05Z" fill="#5c04a0"/>
    <g clip-path="url(#clip-path)">
      <path d="M576.48,441.21c21,7.78,35.31,27,47.88,45.51S649.92,525,670,535c12.22,6.09,26.06,8,39.66,9.38q16.51,1.67,33.11,2.47c3,.14,6.14.25,8.93-.91s5.12-3.95,4.76-6.95" fill="none" stroke="#fff" stroke-linecap="round" stroke-linejoin="round" stroke-width="2" opacity="0.15"/>
      <path d="M583.81,436.1c19.27,5,33.11,21.55,44.4,37.94s22.08,34.22,39.21,44.36c18.84,11.17,42.08,11.09,64,10.12" fill="none" stroke="#fff" stroke-linecap="round" stroke-linejoin="round" stroke-width="2" opacity="0.15"/>
      <path d="M604.32,437.24c12,3.68,21.25,13.19,28.84,23.17s14.18,20.89,23.47,29.32c17.88,16.22,43.54,21.07,67.67,20.21" fill="none" stroke="#fff" stroke-linecap="round" stroke-linejoin="round" stroke-width="2" opacity="0.15"/>
      <path d="M668.76,486.55c19.5-1.2,39.22,2.3,57.8,8.34" fill="none" stroke="#fff" stroke-linecap="round" stroke-linejoin="round" stroke-width="2" opacity="0.15"/>
      <path d="M715.75,472.12c8.12-2.42,17.51,1.08,23.36,7.22" fill="none" stroke="#fff" stroke-linecap="round" stroke-linejoin="round" stroke-width="2" opacity="0.15"/>
      <path d="M744.92,459.8c.13-.45,4.26,2.09,4.4,1.64a13.76,13.76,0,0,1,4.83,12" fill="none" stroke="#fff" stroke-linecap="round" stroke-linejoin="round" stroke-width="2" opacity="0.15"/>
    </g>
  </g>
  <path d="M1331.62,640h145.69a7.69,7.69,0,0,0,7.69-7.69V359.69a7.69,7.69,0,0,0-7.69-7.69H1329.17a7.69,7.69,0,0,0-7.69,7.76l2.45,272.62A7.69,7.69,0,0,0,1331.62,640Z" fill="none" stroke="#000" stroke-linecap="round" stroke-linejoin="round" stroke-width="2"/>
  <path d="M1381,449s40,21,58,57,45,39,45,39v58s-118-10-171-118Z" fill="#1b0042"/>
  <path d="M1369.35,462.73s30.51,34.29,23.19,73.87,21.54,103.66,21.54,103.66l-67.65-.37s-49.38-71.37-26.64-189.5Z" fill="#1b0042"/>
  <path d="M857.23,459.75l29.56-5.81a2.38,2.38,0,0,1,1.54,0c1.08.55.7,2.19.09,3.25a26.54,26.54,0,0,1-15.16,12" fill="#ffc9e6"/>
  <g>
    <path d="M888.32,546a8.33,8.33,0,0,1-8.32-8.32V397.32a8.33,8.33,0,0,1,8.32-8.32h140.36a8.33,8.33,0,0,1,8.32,8.32v27a3.89,3.89,0,0,0,3.89,3.87,4,4,0,0,0,1.76-.41,46,46,0,0,1,66.32,43A46,46,0,0,1,1064,515h-1a45.59,45.59,0,0,1-20.38-4.75,3.94,3.94,0,0,0-1.74-.41,3.88,3.88,0,0,0-3.88,3.88v24a8.33,8.33,0,0,1-8.32,8.32Z" fill="#fff"/>
    <path d="M1028.68,390a7.32,7.32,0,0,1,7.32,7.32v27a4.89,4.89,0,0,0,7.09,4.35A45,45,0,1,1,1064,514h-1a44.64,44.64,0,0,1-19.94-4.64,4.76,4.76,0,0,0-2.18-.52,4.88,4.88,0,0,0-3.39,1.37,4.81,4.81,0,0,0-1.49,3.51v24a7.32,7.32,0,0,1-7.32,7.32H888.32a7.32,7.32,0,0,1-7.32-7.32V397.32a7.32,7.32,0,0,1,7.32-7.32h140.36m0-2H888.32a9.32,9.32,0,0,0-9.32,9.32V537.68a9.32,9.32,0,0,0,9.32,9.32h140.36a9.32,9.32,0,0,0,9.32-9.32v-24a2.87,2.87,0,0,1,2.88-2.88,3,3,0,0,1,1.3.31A46.85,46.85,0,0,0,1063,516h1a47,47,0,1,0-21.84-89.15,3,3,0,0,1-1.31.31,2.87,2.87,0,0,1-2.89-2.87v-27a9.32,9.32,0,0,0-9.32-9.32Z"/>
  </g>
  <g>
    <path d="M550.12,662.79a3.57,3.57,0,0,1-.47,0L330.71,624.22a2.73,2.73,0,0,1-.58-5.21l164.43-68.74a2.7,2.7,0,0,1,1.05-.21h.21l186.74,14.15a2.73,2.73,0,0,1,1.36,5L551.69,662.29A2.67,2.67,0,0,1,550.12,662.79Z" fill="#fff"/>
    <path d="M495.61,551.06h.13l186.74,14.15a1.73,1.73,0,0,1,.87,3.14L551.12,661.47a1.72,1.72,0,0,1-1,.32l-.3,0L330.88,623.24a1.73,1.73,0,0,1-.36-3.31l164.42-68.74a1.74,1.74,0,0,1,.67-.13m0-2a3.6,3.6,0,0,0-1.44.29L329.75,618.09a3.73,3.73,0,0,0,.79,7.12l218.93,38.52a3.57,3.57,0,0,0,.65.06,3.8,3.8,0,0,0,2.15-.68L684.5,570a3.74,3.74,0,0,0-1.87-6.78L495.89,549.07Z"/>
  </g>
  <path d="M552.37,533.09s-17.66-3.61-36.09,17.1c-16,17.92-46.74,99.49-46.74,99.49l81.69,13.85L573.88,598S594,542.76,552.37,533.09Z" fill="#1b0042"/>
  <path d="M532.32,546.06S530,548,533.5,575.5c3,23.81,51,64,51,64l72.94-51.67L608.07,555S567,521,532.32,546.06Z" fill="#1b0042"/>
  <path d="M609.8,349.45s9.93,4.26,18.67,18.46c9.61,15.61-5.24,49.5-13.58,47.23s-23.25-12.37-23.25-12.37l0,24-24.25-5.3s4.54-28.05,2.27-44.72c0-.35-.09-.69-.12-1-1.58-15.61,11.08-28.9,26.76-28.95A31.54,31.54,0,0,1,609.8,349.45Z" fill="#ffc9e6"/>
  <path d="M592.07,376.29a9.45,9.45,0,0,0-6.65-7.53,7.63,7.63,0,0,0-8.76,4.25,10.27,10.27,0,0,0,.3,7,11,11,0,0,0,3.47,5.27,5.77,5.77,0,0,0,6,.8" fill="none" stroke="#000" stroke-linecap="round" stroke-linejoin="round"/>
  <path d="M606.18,380.07a12.18,12.18,0,0,1,5.14.43,5.76,5.76,0,0,1,3.38,3.05,1,1,0,0,1-.84,1.31,11.42,11.42,0,0,1-7.69-1.79,3.06,3.06,0,0,1-1.1-1.16A1.32,1.32,0,0,1,606.18,380.07Z" fill="none" stroke="#000" stroke-linecap="round" stroke-linejoin="round"/>
  <path d="M628.86,384.26a11.07,11.07,0,0,0-4.33-1.74,5.45,5.45,0,0,0-4.2,1.14.89.89,0,0,0,.14,1.42,10.83,10.83,0,0,0,7.29,1.83,3.84,3.84,0,0,0,1.07-.28A1.37,1.37,0,0,0,628.86,384.26Z" fill="none" stroke="#000" stroke-linecap="round" stroke-linejoin="round"/>
  <path d="M619.58,381.67c-2.08,3.83.87,7.09,2.1,11.14.19.61.37,1.35,0,1.83a1.91,1.91,0,0,1-1.69.37c-1.92-.2-1.44-.51-5.76-3.61" fill="none" stroke="#000" stroke-linecap="round" stroke-linejoin="round"/>
  <path d="M611.82,382.48A1.42,1.42,0,0,0,614,384.3,1.42,1.42,0,1,0,611.82,382.48Z"/>
  <path d="M626.81,384.65a1.42,1.42,0,0,0,2.18,1.81A1.42,1.42,0,1,0,626.81,384.65Z"/>
  <path d="M614.35,400a5.83,5.83,0,0,1,7.94.74C619.83,400.38,616.8,400.34,614.35,400Z" fill="none" stroke="#000" stroke-linecap="round" stroke-linejoin="round"/>
  <path d="M622.27,401a4,4,0,0,1-4,1.92c-1.55-.23-3.89-1.49-4.23-3" stroke="#000" stroke-miterlimit="10"/>
  <path d="M587.74,380.1a9.49,9.49,0,0,0-6.67-7" fill="none" stroke="#000" stroke-linecap="round" stroke-linejoin="round"/>
  <path d="M586,377.53c-1,2.21-1.91,2.42-2.87,4.64" fill="none" stroke="#000" stroke-linecap="round" stroke-linejoin="round"/>
  <g>
    <path d="M558.71,423c-5.32,5.05-8.09,12.13-11.27,18.74-6,12.38-19.16,22.36-19.88,36.08C525,527,515.12,529.08,506.17,539.5c-31.88,37.15-12.61,43.66-5.17,39.5,19.17-10.72,90.14-25.42,95.5-21.77,5,3.43,12.25,5.32,16.94,1.44,2.94-2.44,4-6.63,3.43-10.4a21.78,21.78,0,0,0-5-10.12c-3.19-3.93-7.36-7.07-10.05-11.35-6.78-10.8-5-28.29-3.72-33.18,1.15-4.41,2.82-11.11,7.37-11.39C625,481,621.65,454,616,442,608.62,426.39,575.82,406.74,558.71,423Z" fill="#5c04a0"/>
    <g clip-path="url(#clip-path-2)">
      <path d="M501.72,578.4c-4-7.78-.86-17.46,4.3-24.52s12.19-12.62,17.24-19.76c11.37-16.09,11.11-37.37,10.4-57.06" fill="none" stroke="#fff" stroke-miterlimit="10" stroke-width="2" opacity="0.15"/>
      <path d="M541.07,472a108.5,108.5,0,0,1-12.59,73.65c-5,8.58-11.38,17.76-9.31,27.45" fill="none" stroke="#fff" stroke-miterlimit="10" stroke-width="2" opacity="0.15"/>
      <path d="M536.64,565.68A145.94,145.94,0,0,0,555,463.74" fill="none" stroke="#fff" stroke-miterlimit="10" stroke-width="2" opacity="0.15"/>
      <path d="M571.24,443.16c6.76,34.84-1.15,79.58-5.59,117.07" fill="none" stroke="#fff" stroke-miterlimit="10" stroke-width="2" opacity="0.15"/>
      <path d="M575.57,428.31c9.59,8.16,13.43,21.43,13.63,34s-2.72,25-4.31,37.5a179.46,179.46,0,0,0,2.22,58.71" fill="none" stroke="#fff" stroke-miterlimit="10" stroke-width="2" opacity="0.15"/>
      <path d="M585.87,428.4c8.63,11.1,15,26.49,14.57,40.14s-2.91,21.84-4.54,35.4a97.33,97.33,0,0,0,10.73,57l-.58-2.62" fill="none" stroke="#fff" stroke-miterlimit="10" stroke-width="2" opacity="0.15"/>
      <path d="M596.42,429.62c13.08,8.88,18.29,34.12,16,48.42" fill="none" stroke="#fff" stroke-miterlimit="10" stroke-width="2" opacity="0.15"/>
    </g>
  </g>
  <path d="M600.3,429s31,25.13,14.05,46.57c-7.85,9.93-18.65,9.61-23.17,6" fill="none" stroke="#fff" stroke-linecap="round" stroke-linejoin="round"/>
  <g>
    <path d="M574.31,410.08c-7-2.33-11,2.61-11.62,7.5s2.44,7.9,7.15,9.38c8.39,2.64,12.89,3.32,17.81,3,5.3-.36,7.94-.15,10.4-4.87a8.86,8.86,0,0,0,.62-6.43c-1.31-5.07-5.33-6.72-10.56-6.53Z" fill="#5c04a0"/>
    <g clip-path="url(#clip-path-3)">
      <path d="M569.28,425.5a12.41,12.41,0,0,1,2.34-15.85" fill="none" stroke="#fff" stroke-linecap="round" stroke-linejoin="round" opacity="0.15"/>
      <path d="M575.5,425.68c.17-2.28.54-8.74,1.09-16" fill="none" stroke="#fff" stroke-linecap="round" stroke-linejoin="round" opacity="0.15"/>
      <path d="M585.09,425.68V411.26" fill="none" stroke="#fff" stroke-linecap="round" stroke-linejoin="round" opacity="0.15"/>
      <path d="M592.46,428.25c1.61-5.12,2.79-10.85.34-15.61" fill="none" stroke="#fff" stroke-linecap="round" stroke-linejoin="round" opacity="0.15"/>
    </g>
  </g>
  <path d="M592,403.32l-8.66-5.39c-.23,5.39,3,10.56,8.36,11.32C591.76,407.1,591.85,405.47,592,403.32Z" fill="#1b0042"/>
  <path d="M632,379.4c-4.73-3.59-3.86-6-8.58-9.64-7,3.51-20.21,5.78-27.48,8.77-1.06,2.09-2.49,4.11-2.45,6.45-.83.84-2.4.11-2.78-1a5.31,5.31,0,0,1,.45-3.44,5.2,5.2,0,0,0,.41-3.45c-1.23-3.47-3.42-7.43-7.08-7.82s-6.39,2.07-7.64,5.53,1,8.63,3.75,11c.74,10.65-8.53,21-18.23,25.43s-21.37,3.45-30.92-1.31c-5.74-2.87-11-7.19-13.73-13-4.88-10.15-1-24.21,8.86-29.62,24.4-13.36,35.79,5.13,44.52,12.23-9.12-9.59-3.29-28.07,5.85-33a39.52,39.52,0,0,1,31.17-2.08C654,321,669,371,648.77,382.94,639.5,388.42,632.55,383.17,632,379.4Z" fill="#1b0042"/>
  <path d="M606.1,375.31a10,10,0,0,1,9.51,2" fill="none" stroke="#000" stroke-linecap="round" stroke-linejoin="round"/>
  <path d="M631.36,380.84a10,10,0,0,0-9.23-3.09" fill="none" stroke="#000" stroke-linecap="round" stroke-linejoin="round"/>
  <path d="M1285.13,314.76s-8.85,6.21-14.49,21.9c-6.19,17.25,15.31,47.38,23,43.44s20.21-16.88,20.21-16.88l5,23.46,22.65-10.18S1331.24,350,1330,333.21c0-.35,0-.7-.09-1-1.67-15.6-16.78-26-32.14-22.83A31.59,31.59,0,0,0,1285.13,314.76Z" fill="#ffc9e6"/>
  <path d="M1295,344a12.13,12.13,0,0,0-4.93,1.47,5.72,5.72,0,0,0-2.68,3.69,1,1,0,0,0,1.08,1.1,11.39,11.39,0,0,0,7.16-3.33,3.26,3.26,0,0,0,.85-1.36A1.33,1.33,0,0,0,1295,344Z" fill="none" stroke="#000" stroke-linecap="round" stroke-linejoin="round"/>
  <path d="M1273.62,352.75a11.13,11.13,0,0,1,3.89-2.6,5.39,5.39,0,0,1,4.33.26.88.88,0,0,1,.16,1.41,10.79,10.79,0,0,1-6.76,3.29,3.67,3.67,0,0,1-1.1-.05A1.36,1.36,0,0,1,1273.62,352.75Z" fill="none" stroke="#000" stroke-linecap="round" stroke-linejoin="round"/>
  <path d="M1281.4,347.64c-.06.64.93,13.4,1.44,13.78a1.89,1.89,0,0,0,1.72,0c1.84-.59,1.31-.79,4.89-4.71" fill="none" stroke="#000" stroke-linecap="round" stroke-linejoin="round"/>
  <path d="M1289.93,347.51a1.42,1.42,0,0,1-1.76,2.22A1.42,1.42,0,1,1,1289.93,347.51Z"/>
  <path d="M1275.7,352.71a1.45,1.45,0,0,1,.2,2,1.48,1.48,0,0,1-2,.27A1.41,1.41,0,1,1,1275.7,352.71Z"/>
  <path d="M1291.06,365.16a5.84,5.84,0,0,0-7.62,2.35C1285.77,366.66,1288.72,366,1291.06,365.16Z" fill="none" stroke="#000" stroke-linecap="round" stroke-linejoin="round"/>
  <path d="M1283.51,367.78a4,4,0,0,0,4.29,1.07c1.47-.55,3.51-2.26,3.52-3.83" stroke="#000" stroke-miterlimit="10"/>
  <path d="M1313.65,363.82l7.37-7.06c1.33,5.23-.78,10.95-5.85,12.8Z" fill="#1b0042"/>
  <path d="M1294.06,339.31a10,10,0,0,0-8.9,3.95" fill="none" stroke="#000" stroke-linecap="round" stroke-linejoin="round"/>
  <path d="M1270.47,349.91a10,10,0,0,1,8.4-4.91" fill="none" stroke="#000" stroke-linecap="round" stroke-linejoin="round"/>
  <path d="M765.05,483.23a18,18,0,0,0,2.2,0c28.16-1.26,51.92-25.71,80.23-25.71,12.6,0,24.6,4.91,36.57,8.85s25,7,37.05,3.26h0A2.67,2.67,0,0,1,923,473c-1.55,4.83-5.91,8.7-10.77,10.48-5.9,2.16-12.42,1.79-18.64.92a127.06,127.06,0,0,1-21.23-5,36.56,36.56,0,0,0-21-.63,23.59,23.59,0,0,0-4.86,1.9c-3.18,1.72-11.59,5.11-8.89,7.52,9.57,8.54,22.09,9.26,35.61,9.19,10.37-.05,12,3.39,15.21,6.46a3.14,3.14,0,0,1-1.51,5.34c-20.87,4.44-43,5.76-64,2.19-10-1.7-20.49.08-30.25,2.82-7.62,2.14-16.64,7.61-25.35,11.26-15.29,6.4-30.92-9.23-24.16-24.36.17-.39.36-.79.56-1.19C751.9,483.36,762.32,483,765.05,483.23Z" fill="#ffc9e6"/>
  <path d="M766.93,482.42c-.64-4.51-4.94-7.88-9.44-8.55s-9.07.86-13,3.07c-11.49,6.37-19.51,19.11-19,32.24s10.16,25.71,23,28.42c3.74.79,7.83.74,11.19-1.1s5.75-5.76,5-9.51" fill="none" stroke="#fff" stroke-linecap="round" stroke-linejoin="round" stroke-width="2"/>
  <g>
    <path d="M570.8,422.9c-10-5.91-18.25-7.71-28.8-2.9s-19,8-31,16c-9.65,6.43-28.95,21.76-38,29-19.76,15.81-27.51,20.23-44.32,39.15-9.84,11.08-22.11,34.37-27.17,48.3-4.18,11.51-8.36,23-11.89,34.75-1.71,5.7-3.25,12-.92,17.44,3.35,7.91,13,10.66,21.55,11.79a169.66,169.66,0,0,0,44.23.06c10.28-1.34,14.12-2,21.18-9.59,5.91-6.36,8.26-15.31,8.81-24s-.48-17.36-.31-26c.6-29.53,23.06-60.39,47.32-77.24,12.11-8.4,32.8-11.56,40.19-24.32,4.88-8.43,6.72-15.08,3.22-24.17Z" fill="#5c04a0"/>
    <g clip-path="url(#clip-path-4)">
      <path d="M460.8,614A129.51,129.51,0,0,1,525.06,468.9c9.08-4.89,18.75-8.7,27.43-14.27S569,441.35,572,431.49" fill="none" stroke="#fff" stroke-miterlimit="10" stroke-width="2" opacity="0.15"/>
      <path d="M447.54,617.29C432.6,586.91,434.32,549,452,520.07c25.94-42.54,79.2-60.64,110.43-99.46" fill="none" stroke="#fff" stroke-miterlimit="10" stroke-width="2" opacity="0.15"/>
      <path d="M424,618.53c-16.55-36.87-9.65-83.09,16.95-113.51,28.28-32.35,75.27-46.84,96.13-84.4" fill="none" stroke="#fff" stroke-miterlimit="10" stroke-width="2" opacity="0.15"/>
      <path d="M403.6,615.13c-4.62-1.19-6.54-6.6-7.48-11.27A137.69,137.69,0,0,1,393.76,567l1.69,1.36" fill="none" stroke="#fff" stroke-miterlimit="10" stroke-width="2" opacity="0.15"/>
    </g>
  </g>
  <path d="M524.32,485.38c6.48-6.76,14.82-12.36,22.53-17.67s19.2-11.77,22.54-20.52,4.19-21.17-3.93-25.85" fill="none" stroke="#fff" stroke-linecap="round" stroke-linejoin="round"/>
  <path d="M408.15,613c-1.32,5-2.52,10.74.43,15,2.63,3.78,7.65,4.95,12.23,5.55a113.9,113.9,0,0,0,23.71.59c4.26-.35,8.61-1,12.37-3s6.85-5.78,7.05-10.05a9.85,9.85,0,0,0-4.42-8.55" fill="#5c04a0"/>
  <path d="M394.82,634.86c-5.71,10.3-11.42,21.61-17.12,31.91-1.19,2.15-2.41,4.71-1.43,7,1.32,3,5.55,3.25,8.73,2.41,8.28-2.18,15.1-8.26,19.89-15.35s7.8-15.22,10.77-23.24c-4.58,13.51-9.76,28.49-14.34,42-1.59,4.66-2.86,10.61.84,13.86,2.41,2.12,6.16,2.07,9,.68s5.08-3.88,7.08-6.38a112.16,112.16,0,0,0,22.06-46.52c-2,12.11-4.8,24.25-6.77,36.37a23.54,23.54,0,0,0-.41,7.19,7.93,7.93,0,0,0,3.7,5.91,7.64,7.64,0,0,0,6.77-.12A17.37,17.37,0,0,0,449,686.1a48.12,48.12,0,0,0,11.15-38.28" fill="#ffc9e6"/>
  <path d="M394.56,635.57a12.11,12.11,0,0,1,23.18-.73,13.27,13.27,0,0,1,23.84,1.85c.27-4.33,6-9.45,10.31-9s9.91,3.75,11.94,7.58,4.77,10.2,5.48,14.48" fill="#ffc9e6"/>
  <path d="M544.51,555.27c12,9.23,43.18-9.77,55,3.23" fill="none" stroke="#fff" stroke-linecap="round" stroke-linejoin="round"/>
  <path d="M594,571s-12.5,2.5-29,57.37" fill="none" stroke="#fff" stroke-linecap="round" stroke-linejoin="round"/>
  <path d="M547.6,477.8a16.55,16.55,0,0,0,18.72,8.46c18.18-4.76,17.18-14.76,16-21.26" fill="none" stroke="#fff" stroke-linecap="round" stroke-linejoin="round"/>
  <path d="M404.72,615.45s33.26,6.41,57.52-.27" fill="none" stroke="#fff" stroke-linecap="round" stroke-linejoin="round"/>
  <line x1="859.87" y1="458.98" x2="881.01" y2="465.39" fill="none" stroke="#000" stroke-linecap="round" stroke-linejoin="round"/>
  <g>
    <path d="M1321.66,385.13c-4.14-4.84-11.74-5.46-17.63-3s-10.38,7.32-14.4,12.27c-8.46,10.45-15.65,21.9-24.43,32.08s-2.37,8.5-15.27,12.27c-8.14-16.72-19.11-42-27.25-58.76-2.68-5.52-5.53-11.25-10.4-15-9.42-7.26-22.81-4.82-34.38-2-9,2.17-18.22,4.42-26.18,9.21S1137.08,384.77,1136,394c-1,8.8,3.18,17.42,8.53,24.48s9.83,14.35,14.9,21.61c6.14,8.77,26.4,31.85,18.65,24.48-2.78-2.64,7.54,44.8,18.06,50.72,9.75,5.48,22.22,3.62,32.59-.57s19.35-11.12,28.17-18c22.6-17.59,32-40.53,54.45-58.36" fill="#5c04a0"/>
    <g clip-path="url(#clip-path-5)">
      <path d="M1309.72,384.62c-4.85.09-8.77,3.87-11.9,7.58-14.89,17.64-26.72,37.94-45.12,51.89" fill="none" stroke="#fff" stroke-miterlimit="10" stroke-width="2" opacity="0.15"/>
      <path d="M1307.38,391.64l-37.29,50.59c-3.49,4.73-7.34,9.74-12.94,11.55" fill="none" stroke="#fff" stroke-miterlimit="10" stroke-width="2" opacity="0.15"/>
      <path d="M1301.46,413.17c-6.35,8-12.37,17.73-18.54,26.45-6.32,8.92-10.46,20.49-20.71,24.31" fill="none" stroke="#fff" stroke-miterlimit="10" stroke-width="2" opacity="0.15"/>
      <path d="M1289.31,446.86a105.25,105.25,0,0,1-24.74,28.24" fill="none" stroke="#fff" stroke-miterlimit="10" stroke-width="2" opacity="0.15"/>
    </g>
  </g>
  <g>
    <path d="M1320.66,385.78c-5-1.9-10.72,1-13.82,5.29s-4.15,9.73-5.13,14.95c-2.13,11.41-11.78,21.21-13.91,32.62-.9,4.82,3.61,11,7.71,16.08,3.08,3.8,8,7.5,11.94,4.6,4.33,5.17,3.06,12.81,1.83,19.44s-1.74,14.6,3.39,19c4.24,3.61,10.68,3.09,15.84,1s9.72-5.51,15-7.35c17.51-6.14,38.24,6.37,54.87-1.88,5.27-2.61,9.7-7.64,10.08-13.52.51-7.92-6.1-14.46-12.87-18.61S1381,450,1376.45,443.49A170.55,170.55,0,0,0,1363.74,391c-1.6-3.82-3.45-7.73-6.71-10.3s-8.3-3.32-11.45-.63Z" fill="#5c04a0"/>
    <g clip-path="url(#clip-path-6)">
      <path d="M1341,378.52c-3.88,6.32-4,14.24-3.06,21.6s3,14.6,3.09,22c0,5.25-.87,10.46-.77,15.7s1.4,10.77,5.12,14.46c2.38,2.37,1,6.35-.68,9.26" fill="none" stroke="#fff" stroke-miterlimit="10" stroke-width="2" opacity="0.15"/>
      <path d="M1330.78,380.59c-2.25,4.05-2.58,8.91-2.2,13.53s1.39,9.18,1.65,13.81c.41,7.62-1.26,15.18-2,22.78s-.48,15.69,3.43,22.24a6.31,6.31,0,0,1-1.18,7.56" fill="none" stroke="#fff" stroke-miterlimit="10" stroke-width="2" opacity="0.15"/>
      <path d="M1321.36,387.4c-2.42,3.8-3,8.49-2.9,13s.93,9,1.08,13.47c.26,7.92-1.52,15.74-2.63,23.58s-1.53,16.07,1.31,23.46" fill="none" stroke="#fff" stroke-miterlimit="10" stroke-width="2" opacity="0.15"/>
      <path d="M1315.72,385.49c-4.26,6.69-5,15-5.1,22.9s.49,16-1.51,23.65c-1.07,4.07-2.83,7.93-3.94,12s-1.56,8.49,0,12.38" fill="none" stroke="#fff" stroke-miterlimit="10" stroke-width="2" opacity="0.15"/>
      <path d="M1305.53,401.51c1.5,8.57-2.76,18.05-6.48,25.92s-7.71,16.18-6.9,24.85" fill="none" stroke="#fff" stroke-miterlimit="10" stroke-width="2" opacity="0.15"/>
    </g>
  </g>
  <g>
    <path d="M1347,405.07l9.59,43.21c.85,3.84,1.57,8.29-.9,11.34-1.49,1.84-3.84,2.73-6.13,3.32-12.13,3.14-24.86.05-37.29-1.51s-26.41-1.09-35.59,7.43c-8.55,7.94-10.52,20.94-8.72,32.47,2.94,18.79,15.21,36.18,32.51,44.07s39.21,5.41,53.52-7.11,20-33,34.43-45.61c4.42-3.87,9.65-7,13-11.75,6.84-9.65,4.22-23.18-1.24-33.67s-13.44-19.7-17.37-30.85c-2.26-6.42-3.1-13.26-4.85-19.83s-4.66-13.19-10-17.41c-5.06-4-15.63-5.84-20.5-.46C1342,384.77,1345.45,398.18,1347,405.07Z" fill="#5c04a0"/>
    <g clip-path="url(#clip-path-7)">
      <path d="M1366.15,376.86a157.51,157.51,0,0,0,24.15,70.83c2.46,3.83,5.18,7.87,5.17,12.43,0,4.81-3.17,9.1-6.9,12.12s-8.13,5.14-12,8c-8.14,5.92-13.68,14.67-19,23.24S1346.94,520.84,1339,527s-19.17,9.22-28.25,4.88" fill="none" stroke="#fff" stroke-miterlimit="10" stroke-width="2" opacity="0.15"/>
      <path d="M1359.85,375.14a129.12,129.12,0,0,0,11.21,64.73c2.67,5.82,5.84,12.33,3.6,18.32-1.5,4-5.1,6.74-8.53,9.28l-43.41,32.08" fill="none" stroke="#fff" stroke-miterlimit="10" stroke-width="2" opacity="0.15"/>
      <path d="M1352.4,374.55c-5.22,6.85-4.14,16.44-2.8,24.95L1355,434c1,6.63,2,13.75-.91,19.79-3.71,7.66-12.67,11.31-21.11,12.4s-17.12.32-25.4,2.31-16.54,7.82-17.65,16.26" fill="none" stroke="#fff" stroke-miterlimit="10" stroke-width="2" opacity="0.15"/>
      <path d="M1378.89,504.18c-5.07,6.07-16.06,15.2-20.91,21.44-9.72,12.53-17.16,18.88-25.82,21.27-10.52,2.91-22.21,2.4-30.15-5.09-10-9.38-6.93-16.63-6.5-21.9" fill="none" stroke="#fff" stroke-miterlimit="10" stroke-width="2" opacity="0.15"/>
    </g>
  </g>
  <path d="M1403.71,453.55C1415,478,1387.24,495,1382.07,499.26" fill="none" stroke="#fff" stroke-linecap="round" stroke-linejoin="round" stroke-width="2"/>
  <path d="M1317.45,380.8c-3.85-.34-7.22,2.9-8.66,6.49s-1.54,7.56-2.31,11.35c-1.38,6.84-4.94,13-8.34,19.09s-8.58,11.23-9.45,18.15,1.22,14.63,6.89,18.69,15.06,2.69,17.93-3.66" fill="none" stroke="#fff" stroke-linecap="round" stroke-linejoin="round" stroke-width="2"/>
  <path d="M1352.4,447.2c-2.06,3.94-11.4,6.59-15.82,6.12s-11.46-3.21-12.63-7.5" fill="none" stroke="#fff" stroke-linecap="round" stroke-linejoin="round" stroke-width="2"/>
  <g>
    <path d="M1346.06,381.31c-2.9,5-9.21,6.93-15,6.84a18.48,18.48,0,0,1-10-2.69c-2.92-1.94-5.06-5.29-4.89-8.79,4.2,3,10.18.92,14.29-2.23,3.46-2.65,8.23-9.38,13-7.22C1348.07,369.28,1348.16,377.72,1346.06,381.31Z" fill="#5c04a0"/>
    <g clip-path="url(#clip-path-8)">
      <path d="M1345.23,383.05a23.5,23.5,0,0,0-5-15.87" fill="none" stroke="#fff" stroke-miterlimit="10" stroke-width="2" opacity="0.15"/>
      <path d="M1340.72,386.42l-4.25-16" fill="none" stroke="#fff" stroke-miterlimit="10" stroke-width="2" opacity="0.15"/>
      <path d="M1334.3,388.07a83.62,83.62,0,0,1-2.47-13.6l.4,1" fill="none" stroke="#fff" stroke-miterlimit="10" stroke-width="2" opacity="0.15"/>
      <path d="M1326.62,387.88a23.93,23.93,0,0,1,0-10.55" fill="none" stroke="#fff" stroke-miterlimit="10" stroke-width="2" opacity="0.15"/>
      <path d="M1319.46,383.94a7.53,7.53,0,0,1,1-5.63" fill="none" stroke="#fff" stroke-miterlimit="10" stroke-width="2" opacity="0.15"/>
    </g>
  </g>
  <path d="M1266.44,490.76c1.3-27.37,29.7-29.9,29.7-29.9,10.88.57,32.77.41,43.65,1,4.16.21,8.73.31,12-2.25,5.37-4.18,4.2-12.45,2.5-19q-4.63-18-9.29-36.08c-2.13-8.31-4-18,1.34-24.72" fill="none" stroke="#fff" stroke-linecap="round" stroke-linejoin="round" stroke-width="2"/>
  <g>
    <path d="M1133.38,530a13.12,13.12,0,0,1-12.78-10.39l-2.55-12.15a4.64,4.64,0,0,1,.65-3.48,4.77,4.77,0,0,1,3-2.05,46.5,46.5,0,1,0-19-91,5.23,5.23,0,0,1-1.07.12,4.63,4.63,0,0,1-4.59-3.69L1094.65,396a13.11,13.11,0,0,1,10.12-15.5l123.58-25.94a13,13,0,0,1,2.7-.28,13.14,13.14,0,0,1,12.8,10.4l25.94,123.58a13.1,13.1,0,0,1-10.12,15.51l-123.58,25.94A13,13,0,0,1,1133.38,530Z" fill="#fff"/>
    <path d="M1231.05,355.24a12.14,12.14,0,0,1,11.82,9.6l26,123.59a12.12,12.12,0,0,1-9.35,14.32l-123.59,25.94a11.66,11.66,0,0,1-2.5.26,12.11,12.11,0,0,1-11.8-9.6L1119,507.2a3.58,3.58,0,0,1,.51-2.72,3.72,3.72,0,0,1,2.4-1.62l.06,0a47.48,47.48,0,0,0,36.73-56.24,47.47,47.47,0,0,0-56.25-36.73h-.06a3.57,3.57,0,0,1-.8.09,3.65,3.65,0,0,1-3.62-2.9l-2.37-11.31a12.1,12.1,0,0,1,9.35-14.32l123.57-25.94a11.8,11.8,0,0,1,2.5-.26m0-2a13.83,13.83,0,0,0-2.91.3l-123.57,25.94a14.09,14.09,0,0,0-10.9,16.69l2.38,11.31a5.66,5.66,0,0,0,5.57,4.49,6.41,6.41,0,0,0,1.22-.13h.06a45.06,45.06,0,0,1,9.39-1,45.5,45.5,0,0,1,9.3,90l0,0a5.68,5.68,0,0,0-4.47,6.71l2.55,12.15A14.08,14.08,0,0,0,1133.38,531a14.45,14.45,0,0,0,2.91-.3l123.59-25.95A14.09,14.09,0,0,0,1270.77,488l-25.94-123.59a14.09,14.09,0,0,0-13.78-11.19Z"/>
  </g>
  <path d="M1190.83,361a8.56,8.56,0,0,0-16.75-1.47,7,7,0,0,0-13.75,2.43c-.08-3.1-3.26-5.55-6.36-5.44a9,9,0,0,0-7.27,5.09,17.85,17.85,0,0,0-1.58,9.06" fill="#ffc9e6"/>
  <path d="M1188.11,360.14c.17,5.22-1.35,10-2.32,15.16s-5.34,11.42-9.26,14.86c-1.47,1.28-3.59,2.36-5.32,1.45a3.89,3.89,0,0,1-1.81-3.58,12.64,12.64,0,0,1,1-4.07c2.79-7.68,3.55-15.65,3.74-23.81" fill="#ffc9e6"/>
  <path d="M1173.45,362.42a65.75,65.75,0,0,1-2.31,16,28.88,28.88,0,0,1-9.52,14.9c-1.76,1.35-4.25,2.51-6.24,1.65a3.53,3.53,0,0,1-2-3.54,12.1,12.1,0,0,1,1.34-4.14c3.52-7.82,4.68-15.88,5.19-24.11" fill="#ffc9e6"/>
  <path d="M1159.1,366.23c-.3,6-1.31,12.64-3.53,17-2.36,4.65-4,10.33-7.89,13.77-1.47,1.29-3.59,2.36-5.32,1.45a3.87,3.87,0,0,1-1.81-3.57,12.7,12.7,0,0,1,1-4.08c2.79-7.67,3.55-15.64,3.74-23.81" fill="#ffc9e6"/>
  <path d="M1174,358.54c-.87,2.74.06,14.51-3.64,27.25" fill="none" stroke="#000" stroke-linecap="round" stroke-linejoin="round"/>
  <path d="M1160.14,359.31c-.61,3.25-2.8,21.25-5.27,28.24" fill="none" stroke="#000" stroke-linecap="round" stroke-linejoin="round"/>
  <path d="M1171.54,381.81l5.68.21a17.64,17.64,0,0,1-2.73,6.3,4.63,4.63,0,0,1-1.54,1.48,1.94,1.94,0,0,1-2,0,2.7,2.7,0,0,1-.8-2.22A13.05,13.05,0,0,1,1171.54,381.81Z" fill="none" stroke="#000" stroke-linecap="round" stroke-linejoin="round"/>
  <path d="M1156,384.73a16.38,16.38,0,0,0,6.24-.19,9.88,9.88,0,0,1-4.58,7.65c-1,.6-2.36,1-3.09.11a2.52,2.52,0,0,1-.31-2.12A18.18,18.18,0,0,1,1156,384.73Z" fill="none" stroke="#000" stroke-linecap="round" stroke-linejoin="round"/>
  <path d="M1143.24,387.17a10.16,10.16,0,0,0,5.68.09,10.2,10.2,0,0,1-4.44,7.91c-.9.59-2.29.93-2.91.05a2.32,2.32,0,0,1-.11-1.92A41.78,41.78,0,0,1,1143.24,387.17Z" fill="none" stroke="#000" stroke-linecap="round" stroke-linejoin="round"/>
  <path d="M1295.34,521.67c1.62,5.75,7.56,9.76,13.53,9.72s11.59-3.8,14.51-9a22.63,22.63,0,0,0,1.54-17.35,32.7,32.7,0,0,0-9.76-14.72c-4.7-4.22-10.72-7.46-17-7.12s-12.58,5.18-12.92,11.48" fill="none" stroke="#fff" stroke-linecap="round" stroke-linejoin="round" stroke-width="2"/>
  <path d="M1302.23,501.86a9.92,9.92,0,0,0-8.58-7.39c-6.63-.67-13.72,1.51-19.84,4.54-8.42,4.18-16.73,3.64-25.85,5.92-6.76,1.69-13.42,7.65-20.06,9.75s-16,4.3-15.4,11.24c-7.17-.14-10.81-1.06-17.83-2.52s-17.93-1-25,.21c-5.63,1-10.82,3-14.29,7a1.83,1.83,0,0,0,1.58,3c24.34-2.16,39.29,13.35,68.5,10.27,13.55-1.43,29.93-10.48,42.67-15.3,10.09-3.82,26.44-7.69,34.6-7.61a3.41,3.41,0,0,0,3.35-4.26Z" fill="#ffc9e6"/>
  <path d="M1212.56,527.9c8.18,3,30.84-3,39.16-5.51" fill="none" stroke="#000" stroke-linecap="round" stroke-linejoin="round"/>
  <path d="M1167.86,532.17a4.64,4.64,0,0,0-.16-4.2,16.65,16.65,0,0,0-9.46,1.72,3.26,3.26,0,0,0-1.5,1.26,1.29,1.29,0,0,0,.42,1.73,2,2,0,0,0,.84.12l10.11-.11" fill="none" stroke="#000" stroke-linecap="round" stroke-linejoin="round"/>
  <path d="M1225.53,528.21c-.45-1.13-.13-2.39,0-3.6s-.2-2.66-1.31-3.14a3.52,3.52,0,0,0-1.88-.09l-3.91.55c-1.68.23-3.47.51-4.71,1.66s-1.5,3.49-.07,4.4" fill="none" stroke="#000" stroke-linecap="round" stroke-linejoin="round"/>
  <path d="M1191.06,364.64a9.06,9.06,0,0,1-4.56-2.16,4.24,4.24,0,0,1-1-4.68,6.21,6.21,0,0,1,2.93-2.45,46.86,46.86,0,0,1,8.26-3.23,16.65,16.65,0,0,1,7.23-.75,7.38,7.38,0,0,1,5.7,4.1C1213.19,364.21,1195.9,365.68,1191.06,364.64Z" fill="#ffc9e6"/>
  <path d="M1195.39,363.89l-1.58-6.9s-9.19-.08-7.68,3.52S1195.39,363.89,1195.39,363.89Z" fill="none" stroke="#000" stroke-linecap="round" stroke-linejoin="round"/>
  <path d="M1308.84,338.92a27.44,27.44,0,0,0-27.64.52c-1.57.95-3.16,1.84-4.8,2.64-8.08,3.9-19.72,6.88-24.85-1.52-2.53-4.13-4.16-12-2.23-16.46,3.79-8.69,15.22-14.84,24.1-16.23,7.36-1.16,25.46-4.94,31.38-4.51s16.53,3.18,20.32,7.76,8.34,16.31,4.14,20.5c8.65-2.05,18.26-.82,26.46,2.63s15.08,10.38,17.52,18.93-.06,18.56-6.9,24.25c-8.91,7.42-23.1,5.83-32-1.59-6.15-5.12-10-12.35-12.14-20.15a27.24,27.24,0,0,0-13.11-16.64Z" fill="#1b0042"/>
  <path d="M1308.2,338.37a9.4,9.4,0,0,1,5-8.73,7.62,7.62,0,0,1,9.44,2.35,10.28,10.28,0,0,1,1.15,6.93,11.17,11.17,0,0,1-2.31,5.87,5.8,5.8,0,0,1-5.72,2" fill="#ffc9e6"/>
  <path d="M1313,340.23a9.46,9.46,0,0,1,5.1-8.18" fill="none" stroke="#000" stroke-linecap="round" stroke-linejoin="round"/>
  <path d="M1314.15,337.36c1.38,2,2.36,2,3.75,3.95" fill="none" stroke="#000" stroke-linecap="round" stroke-linejoin="round"/>
  <path d="M435.35,670.75,449,673s-1,18-13,15C431.15,686.79,435.35,670.75,435.35,670.75Z" fill="none" stroke="#000" stroke-linecap="round" stroke-linejoin="round"/>
  <path d="M403.9,675.87,417,680.38S413,698,401.66,693C397.08,691,403.9,675.87,403.9,675.87Z" fill="none" stroke="#000" stroke-linecap="round" stroke-linejoin="round"/>
  <path d="M382.2,661.21l10.51,5.28s-5.36,14.35-14.34,8.89C374.74,673.17,382.2,661.21,382.2,661.21Z" fill="none" stroke="#000" stroke-linecap="round" stroke-linejoin="round"/>
  <path d="M410.8,651.75c4.2-8.75,4.06-14.57,7.05-18.38" fill="none" stroke="#000" stroke-linecap="round" stroke-linejoin="round"/>
  <path d="M437.69,653c1.31-6,.31-16,4.41-20.47" fill="none" stroke="#000" stroke-linecap="round" stroke-linejoin="round"/>
  <path d="M460.45,650l-1.13-7.86a4.28,4.28,0,0,1,.18-2.61c.42-.78,1.6-1.2,2.21-.56" fill="none" stroke="#000" stroke-linecap="round" stroke-linejoin="round"/>
  <path d="M907.32,472.32,907,478s13.25-.36,16.13-6.68c0,0,.13-1.71-8.07-.33C909,472,907.32,472.32,907.32,472.32Z" fill="none" stroke="#000" stroke-linecap="round" stroke-linejoin="round"/>
  <path d="M876.6,505.92a4.2,4.2,0,0,1,3.21-1.3,39.61,39.61,0,0,1,8,.65,2.3,2.3,0,0,1,.35,4.39,27.67,27.67,0,0,1-7.87,1.8C877.14,511.67,873.3,509.52,876.6,505.92Z" fill="none" stroke="#000" stroke-linecap="round" stroke-linejoin="round"/>
  <path d="M1356.45,544.28s16,17.14,37.78,28.43" fill="none" stroke="#fff" stroke-linecap="round" stroke-linejoin="round" stroke-width="2"/>
  <path d="M820,446.87A30.94,30.94,0,0,1,849.65,445" fill="none" stroke="#000" stroke-linecap="round" stroke-linejoin="round"/>
  <path d="M822.34,434.57a26.37,26.37,0,0,1,29.59-4.35" fill="none" stroke="#000" stroke-linecap="round" stroke-linejoin="round"/>
  <path d="M1197.76,550.86c11.19,8.89,28.56,8.83,39.69-.14" fill="none" stroke="#000" stroke-linecap="round" stroke-linejoin="round"/>
  <path d="M1201.3,566.3a51.33,51.33,0,0,0,44.28-9.69" fill="none" stroke="#000" stroke-linecap="round" stroke-linejoin="round"/>
  <path d="M1390.78,375.62A30.79,30.79,0,0,1,1398,402.9" fill="none" stroke="#000" stroke-linecap="round" stroke-linejoin="round"/>
  <path d="M1401.28,376.5a24.76,24.76,0,0,1,5.41,25.17" fill="none" stroke="#000" stroke-linecap="round" stroke-linejoin="round"/>
</svg>
