<svg id="Layer_1" data-name="Layer 1" xmlns="http://www.w3.org/2000/svg" xmlns:xlink="http://www.w3.org/1999/xlink" viewBox="0 0 1920 1080">
  <defs>
    <clipPath id="clip-path">
      <path d="M811.06,284c3.92-7.17,13.29-9.94,21.32-8.42s15,6.44,21.3,11.6c13.37,10.87,25.4,23.35,39.1,33.81s29.56,19,46.75,20.34Q948.23,306.67,957,272c1.92-7.64,4-15.58,9.1-21.56,9.91-11.59,27.35-12.06,42.6-11.61,11.9.35,24,.74,35.27,4.66s21.69,12,25.44,23.27c3.58,10.78.61,22.69-4.25,32.95s-8.55,20.6-13,31c-5.38,12.62-24.72,46.92-16.94,35.62,2.78-4-20.73,37.69-32.38,47.88-10.79,9.44-26.93,10.39-41,7.87s-27.21-8.85-40.09-15.14c-33-16.11-50.87-42.4-83.68-58.87" fill="#5c04a0"/>
    </clipPath>
    <clipPath id="clip-path-2">
      <path d="M812.48,284.57c5.72-3.7,13.71-1.6,18.74,3S839,298.67,841.59,305c5.68,13.76,20.36,23.51,26,37.27C870,348,866,357,862.2,364.43c-2.86,5.59-8.05,11.51-13.77,8.91-4.07,7.63-.47,16.89,2.82,24.88s6,17.85.74,24.69c-4.36,5.65-12.58,6.7-19.6,5.43s-13.65-4.35-20.72-5.28c-23.59-3.09-46.3,18.06-69.33,12.1-7.31-1.9-14.19-7-16.21-14.32-2.73-9.8,3.85-19.75,11.25-26.73s16.28-13.1,20.31-22.45a218.49,218.49,0,0,1,2.12-69.22c1-5.22,2.29-10.61,5.7-14.69s9.54-6.35,14.21-3.81Z" fill="#5c04a0"/>
    </clipPath>
    <clipPath id="clip-path-3">
      <path d="M784.55,315.7l-.65,56.73c-.06,5,.2,10.82,4.12,14,2.35,1.9,5.53,2.4,8.56,2.54,16,.75,31.19-6.48,46.38-11.71s32.84-8.33,46.6-.05c12.82,7.71,18.72,23.49,19.5,38.43,1.26,24.35-9.55,49.4-29.18,63.86s-47.76,17.12-69,5.17-33.82-36.17-55.21-48.15c-6.57-3.68-13.94-6.19-19.46-11.31-11.12-10.3-11.4-28-7.31-42.56s11.67-28.26,13.67-43.28c1.15-8.66.39-17.44.86-26.16s2.37-17.77,8-24.47c5.3-6.34,18.07-11.45,25.6-6C785.49,288.92,784.65,306.65,784.55,315.7Z" fill="#5c04a0"/>
    </clipPath>
    <clipPath id="clip-path-4">
      <path d="M779.44,285.65c4.95,5.47,13.38,6.27,20.57,4.65,4.39-1,8.72-2.81,11.87-6s5-8,3.83-12.33c-4.49,4.89-12.54,3.84-18.52,1-5-2.42-12.79-9.61-18.23-5.64C773.75,271.09,775.86,281.7,779.44,285.65Z" fill="#5c04a0"/>
    </clipPath>
  </defs>
  <title>Vector 1</title>
  <g>
    <path d="M811.06,284c3.92-7.17,13.29-9.94,21.32-8.42s15,6.44,21.3,11.6c13.37,10.87,25.4,23.35,39.1,33.81s29.56,19,46.75,20.34Q948.23,306.67,957,272c1.92-7.64,4-15.58,9.1-21.56,9.91-11.59,27.35-12.06,42.6-11.61,11.9.35,24,.74,35.27,4.66s21.69,12,25.44,23.27c3.58,10.78.61,22.69-4.25,32.95s-8.55,20.6-13,31c-5.38,12.62-24.72,46.92-16.94,35.62,2.78-4-20.73,37.69-32.38,47.88-10.79,9.44-26.93,10.39-41,7.87s-27.21-8.85-40.09-15.14c-33-16.11-50.87-42.4-83.68-58.87" fill="#5c04a0"/>
    <g clip-path="url(#clip-path)">
      <path d="M825.9,280.23c6.12-1.16,12,2.54,16.93,6.37,23.33,18.21,43.52,40.56,70.27,53.22" fill="none" stroke="#fff" stroke-miterlimit="10" stroke-width="2" opacity="0.15"/>
      <path d="M830.69,288.42l60.11,53.65c5.63,5,11.77,10.28,19.27,11.08" fill="none" stroke="#fff" stroke-miterlimit="10" stroke-width="2" opacity="0.15"/>
      <path d="M843.79,313.88c10.06,8.32,20.18,19,30.22,28.29,10.28,9.53,18.53,23,32.39,25" fill="none" stroke="#fff" stroke-miterlimit="10" stroke-width="2" opacity="0.15"/>
      <path d="M867.9,352.93a134.94,134.94,0,0,0,38.48,28.92" fill="none" stroke="#fff" stroke-miterlimit="10" stroke-width="2" opacity="0.15"/>
    </g>
  </g>
  <path d="M770.53,213.11c-.22.17-30.3,23-37.53,113.89-5.11,64.18-31,133-64,151s-41,71-17,95c30.5,30.5,101,43,126-25s25-222,24-225,0-78,0-78V218Z" fill="#1b0042"/>
  <g>
    <path d="M839.48,818.78c0,2.38-18.23,99-18.23,99h-42l19-102.21h41.2" fill="#ffc9e6"/>
    <polygon points="833.37 853 791.8 850.39 779.26 917.82 822.04 917.03 833.37 853" fill="#fca1bb"/>
    <path d="M869.11,456.19A1315.15,1315.15,0,0,1,851.49,807c-1.07,5.74-2.25,11.64-5.44,16.54-5.53,8.48-16.3,12.34-26.43,12.21-7.63-.1-15-2.12-22.32-4.59a11.17,11.17,0,0,1-7.59-9.93c-4.19-77.08,29.44-154.11,22-231.14-4.52-47.19-23.82-93.45-18.06-140.51C820,447.7,843.48,450,869.11,456.19Z" fill="#151614"/>
    <g>
      <path d="M826.08,890.84c6.2-4.49,6.08-14.37,11.89-19.34s15.49-6.81,21.41-1.72c4.79,4.12,5.72,11.45,3.87,17.5s-6,11.1-10,15.93a180.78,180.78,0,0,0,57.42,25.22c9.49,2.31,19.21,3.87,28.37,7.29s17.91,9,22.89,17.39c3.78,6.37,6.71,15.46,5.18,22.74a8.62,8.62,0,0,1-7.74,6.74c-62.72,5.23-101.24,2.7-196.32-8.12-4.33-29.94,5.61-67.85,23.48-90.26C786.5,884.21,800.41,909.41,826.08,890.84Z" fill="#fff" stroke="#000" stroke-miterlimit="10"/>
      <path d="M965.06,962.58s-148.48,4.84-202.6-10.65" fill="#fff" stroke="#000" stroke-miterlimit="10"/>
      <path d="M902.61,927c-9.09,6.31-21.39,6.44-31.89,2.92s-19.58-10.23-28.32-17l12.12-10.7" fill="none" stroke="#000" stroke-miterlimit="10"/>
      <path d="M884.54,920.51c-4.58,4.35-7.95,8.25-14.1,9.7" fill="none" stroke="#000" stroke-miterlimit="10"/>
      <path d="M869.17,912a57,57,0,0,1-15,10.28" fill="none" stroke="#000" stroke-miterlimit="10"/>
      <path d="M854.54,961.87c-4.82-10.31-15.71-16.43-26.57-19.82s-22.35-4.76-32.89-9-20.51-12.46-22.63-23.64" fill="none" stroke="#000" stroke-miterlimit="10"/>
      <path d="M840.81,962.7c-6.59-6.82-16-10.13-25.3-12.11s-18.83-2.89-27.8-6-17.58-8.9-21.27-17.65" fill="none" stroke="#000" stroke-miterlimit="10"/>
    </g>
    <polygon points="832.16 859.82 790.59 856.9 789.4 863.3 830.94 866.71 832.16 859.82" fill="#151614"/>
    <polygon points="830.58 869.33 788.22 866.4 787.02 872.81 829.36 876.22 830.58 869.33" fill="#fff"/>
  </g>
  <g>
    <path d="M782.48,825.78c0,2.38-18.23,99-18.23,99h-42l19-102.21h41.2" fill="#ffc9e6"/>
    <polygon points="776.37 860 734.8 857.39 722.26 924.82 765.04 924.03 776.37 860" fill="#fca1bb"/>
    <path d="M812.11,463.19A1315.15,1315.15,0,0,1,794.49,814c-1.07,5.74-2.25,11.64-5.44,16.54-5.53,8.48-16.3,12.34-26.43,12.21-7.63-.1-15-2.12-22.32-4.59a11.17,11.17,0,0,1-7.59-9.93c-4.19-77.08,29.44-154.11,22-231.14-4.52-47.19-21.82-132.45-16.06-179.51C765,415.7,786.48,457,812.11,463.19Z" fill="#151614"/>
    <g>
      <path d="M769.08,897.84c6.2-4.49,6.08-14.37,11.89-19.34s15.49-6.81,21.41-1.72c4.79,4.12,5.72,11.45,3.87,17.5s-6,11.1-10,15.93a180.78,180.78,0,0,0,57.42,25.22c9.49,2.31,19.21,3.87,28.37,7.29s17.91,9,22.89,17.39c3.78,6.37,6.71,15.46,5.18,22.74a8.62,8.62,0,0,1-7.74,6.74c-62.72,5.23-101.24,2.7-196.32-8.12-4.33-29.94,5.61-67.85,23.48-90.26C729.5,891.21,743.41,916.41,769.08,897.84Z" fill="#fff" stroke="#000" stroke-miterlimit="10"/>
      <path d="M908.06,969.58s-148.48,4.84-202.6-10.65" fill="#fff" stroke="#000" stroke-miterlimit="10"/>
      <path d="M845.61,934c-9.09,6.31-21.39,6.44-31.89,2.92s-19.58-10.23-28.32-17l12.12-10.7" fill="none" stroke="#000" stroke-miterlimit="10"/>
      <path d="M827.54,927.51c-4.58,4.35-7.95,8.25-14.1,9.7" fill="none" stroke="#000" stroke-miterlimit="10"/>
      <path d="M812.17,919a57,57,0,0,1-15,10.28" fill="none" stroke="#000" stroke-miterlimit="10"/>
      <path d="M797.54,968.87c-4.82-10.31-15.71-16.43-26.57-19.82s-22.35-4.76-32.89-9-20.51-12.46-22.63-23.64" fill="none" stroke="#000" stroke-miterlimit="10"/>
      <path d="M783.81,969.7c-6.59-6.82-16-10.13-25.3-12.11s-18.83-2.89-27.8-6-17.58-8.9-21.27-17.65" fill="none" stroke="#000" stroke-miterlimit="10"/>
    </g>
    <polygon points="775.16 866.82 733.59 863.9 732.4 870.3 773.94 873.71 775.16 866.82" fill="#151614"/>
    <polygon points="773.58 876.33 731.22 873.4 730.02 879.81 772.36 883.22 773.58 876.33" fill="#fff"/>
  </g>
  <path d="M814.91,263.16c6.62,2.87,15.41,5.66,21.47,1.72,5-3.26,6.5-9.83,7.34-15.76,1-7-.74-14.32-3.55-20.77-3.32-7.64-8.49-12.54-16-16.09-9.19-4.33-19.56-7.36-29.46-5.09s-18.76,11.31-17.92,21.43c-6.62,1.46-11,9.42-8.57,15.76s10.87,9.51,16.82,6.26c2.21,8.12-2.86,10.93-1.33,16.26A18.4,18.4,0,0,0,794.27,279c4.3,1.67,13.59,2.55,17.29-1C814.82,274.76,813.39,267.27,814.91,263.16Z" fill="#ffc9e6"/>
  <path d="M837.67,223.66l-12.9-8s-26.08,20.55-45.85,14.23c0,0-8.55-3.36-11.39,8.2,0,0-8.37-21.64,11.39-31.92S837.14,199.24,837.67,223.66Z" fill="#1b0042"/>
  <path d="M815.29,263.09l-19-7.12a82.51,82.51,0,0,0,17.49,17.4Z"/>
  <path d="M781.17,247.71a8.83,8.83,0,0,0-6.86-12.08" fill="none" stroke="#000" stroke-linecap="round" stroke-linejoin="round"/>
  <path d="M780.69,240.85a7,7,0,0,0-5.15,3.65" fill="none" stroke="#000" stroke-linecap="round" stroke-linejoin="round"/>
  <path d="M789.75,240A14.57,14.57,0,0,0,776.31,229" fill="none" stroke="#000" stroke-linecap="round" stroke-linejoin="round"/>
  <path d="M828.76,230.18a57.49,57.49,0,0,0,4.31,11.91l-6.38.52" fill="none" stroke="#000" stroke-linecap="round" stroke-linejoin="round"/>
  <path d="M813.18,231.79c1.43-1.25,4.86-1.63,6.76-1.65a8.11,8.11,0,0,1,5.27,1.89c-1.55,1.33-2.46,2.67-5.17,2.72C816.23,234.82,814.71,233.14,813.18,231.79Z" fill="none" stroke="#000" stroke-linecap="round" stroke-linejoin="round"/>
  <circle cx="823.19" cy="232.26" r="1.58"/>
  <g>
    <path d="M832.22,232.23c1.09-1,3.72-1.32,5.19-1.35a6.21,6.21,0,0,1,4.07,1.39c-1.17,1-1.86,2.08-4,2.15C834.61,234.52,833.42,233.24,832.22,232.23Z" fill="none" stroke="#000" stroke-linecap="round" stroke-linejoin="round"/>
    <circle cx="839" cy="232.26" r="1.58"/>
  </g>
  <path d="M837.42,251.23s-3.16-5.53-11.86,0Z" stroke="#000" stroke-miterlimit="10"/>
  <path d="M837.42,251.23s-.79,4-3.95,4-8.7-4-8.7-4Z" fill="none" stroke="#000" stroke-linecap="round" stroke-linejoin="round"/>
  <path d="M824.32,225.18a11.24,11.24,0,0,0-9.63-.2" fill="none" stroke="#000" stroke-linecap="round" stroke-linejoin="round"/>
  <path d="M841,226.17a5.87,5.87,0,0,0-7.13,0" fill="none" stroke="#000" stroke-linecap="round" stroke-linejoin="round"/>
  <g>
    <path d="M812.48,284.57c5.72-3.7,13.71-1.6,18.74,3S839,298.67,841.59,305c5.68,13.76,20.36,23.51,26,37.27C870,348,866,357,862.2,364.43c-2.86,5.59-8.05,11.51-13.77,8.91-4.07,7.63-.47,16.89,2.82,24.88s6,17.85.74,24.69c-4.36,5.65-12.58,6.7-19.6,5.43s-13.65-4.35-20.72-5.28c-23.59-3.09-46.3,18.06-69.33,12.1-7.31-1.9-14.19-7-16.21-14.32-2.73-9.8,3.85-19.75,11.25-26.73s16.28-13.1,20.31-22.45a218.49,218.49,0,0,1,2.12-69.22c1-5.22,2.29-10.61,5.7-14.69s9.54-6.35,14.21-3.81Z" fill="#5c04a0"/>
    <g clip-path="url(#clip-path-2)">
      <path d="M785.05,280.82c6.54,6.9,8.84,16.8,9.53,26.29s.07,19.1,1.93,28.43c1.31,6.59,3.84,12.9,5.09,19.5s1.09,13.87-2.6,19.48c-2.37,3.6.39,8.24,3.28,11.43" fill="none" stroke="#fff" stroke-miterlimit="10" stroke-width="2" opacity="0.15"/>
      <path d="M798.42,280.72c3.89,4.49,5.58,10.5,6.33,16.4s.67,11.88,1.57,17.76c1.48,9.67,5.57,18.71,8.52,28s4.74,19.56,1.57,28.81a8,8,0,0,0,3.47,9.17" fill="none" stroke="#fff" stroke-miterlimit="10" stroke-width="2" opacity="0.15"/>
      <path d="M812,286.78c4,4.14,6,9.86,7.06,15.55s1.19,11.49,2.19,17.18c1.76,10,6.05,19.35,9.51,28.89s6.16,19.76,4.54,29.78" fill="none" stroke="#fff" stroke-miterlimit="10" stroke-width="2" opacity="0.15"/>
      <path d="M818.61,282.9c7.1,7.27,10.27,17.45,12.42,27.38s3.6,20.19,8.14,29.28c2.4,4.83,5.62,9.2,8.09,14s4.19,10.24,3.24,15.54" fill="none" stroke="#fff" stroke-miterlimit="10" stroke-width="2" opacity="0.15"/>
      <path d="M835.61,300.31c.37,11.16,8.21,21.93,15,30.82s13.93,18.27,15.19,29.36" fill="none" stroke="#fff" stroke-miterlimit="10" stroke-width="2" opacity="0.15"/>
    </g>
  </g>
  <g>
    <path d="M784.55,315.7l-.65,56.73c-.06,5,.2,10.82,4.12,14,2.35,1.9,5.53,2.4,8.56,2.54,16,.75,31.19-6.48,46.38-11.71s32.84-8.33,46.6-.05c12.82,7.71,18.72,23.49,19.5,38.43,1.26,24.35-9.55,49.4-29.18,63.86s-47.76,17.12-69,5.17-33.82-36.17-55.21-48.15c-6.57-3.68-13.94-6.19-19.46-11.31-11.12-10.3-11.4-28-7.31-42.56s11.67-28.26,13.67-43.28c1.15-8.66.39-17.44.86-26.16s2.37-17.77,8-24.47c5.3-6.34,18.07-11.45,25.6-6C785.49,288.92,784.65,306.65,784.55,315.7Z" fill="#5c04a0"/>
    <g clip-path="url(#clip-path-3)">
      <path d="M753.07,285.35a201.94,201.94,0,0,1-11.65,95.23c-2.07,5.46-4.42,11.24-3.2,16.95,1.29,6,6.36,10.58,11.84,13.4s11.55,4.3,17.17,6.83c11.78,5.28,21,14.8,29.91,24.17s18,19,29.55,24.66,26.48,6.52,36.73-1.32" fill="none" stroke="#fff" stroke-miterlimit="10" stroke-width="2" opacity="0.15"/>
      <path d="M760.51,281.54a165.35,165.35,0,0,1,3,84.17c-1.82,8-4.08,17,.32,23.92,2.93,4.61,8.17,7.12,13.14,9.4l62.91,28.81" fill="none" stroke="#fff" stroke-miterlimit="10" stroke-width="2" opacity="0.15"/>
      <path d="M769.71,278.84c8.36,7.22,9.52,19.54,10.08,30.56l2.28,44.77c.44,8.59,1.08,17.77,6.34,24.58,6.68,8.63,18.88,10.85,29.76,10s21.56-4.11,32.47-3.79,22.82,5.45,26.42,15.75" fill="none" stroke="#fff" stroke-miterlimit="10" stroke-width="2" opacity="0.15"/>
      <path d="M770.62,448.45c8,6.27,24.15,14.84,31.88,21.39C818,483,829,489,840.5,489.72c14,.88,28.48-2.84,36.48-14.33,10-14.39,4.32-22.69,2.38-29.19" fill="none" stroke="#fff" stroke-miterlimit="10" stroke-width="2" opacity="0.15"/>
    </g>
  </g>
  <path d="M728.05,406.79c-.2,8.6,21.82,26.11,29.43,30.11" fill="none" stroke="#fff" stroke-linecap="round" stroke-linejoin="round" stroke-width="2"/>
  <path d="M815.2,277.48c4.75-1.45,9.82,1.74,12.58,5.86s3.92,9.07,5.88,13.63c3.54,8.21,9.63,15,15.49,21.76s13.73,11.81,16.64,20.26,2.33,18.69-3.72,25.27-18.18,7.35-23.46.13" fill="none" stroke="#fff" stroke-linecap="round" stroke-linejoin="round" stroke-width="2"/>
  <path d="M788.84,370c3.63,4.4,16,5.27,21.47,3.51s13.52-7,13.87-12.74" fill="none" stroke="#fff" stroke-linecap="round" stroke-linejoin="round" stroke-width="2"/>
  <g>
    <path d="M779.44,285.65c4.95,5.47,13.38,6.27,20.57,4.65,4.39-1,8.72-2.81,11.87-6s5-8,3.83-12.33c-4.49,4.89-12.54,3.84-18.52,1-5-2.42-12.79-9.61-18.23-5.64C773.75,271.09,775.86,281.7,779.44,285.65Z" fill="#5c04a0"/>
    <g clip-path="url(#clip-path-4)">
      <path d="M781,287.61a30.1,30.1,0,0,1,2.12-21.24" fill="none" stroke="#fff" stroke-miterlimit="10" stroke-width="2" opacity="0.15"/>
      <path d="M787.49,290.65l1.11-21.22" fill="none" stroke="#fff" stroke-miterlimit="10" stroke-width="2" opacity="0.15"/>
      <path d="M796,291a107,107,0,0,0-.48-17.72l-.22,1.43" fill="none" stroke="#fff" stroke-miterlimit="10" stroke-width="2" opacity="0.15"/>
      <path d="M805.57,288.77a30.94,30.94,0,0,0-2.76-13.24" fill="none" stroke="#fff" stroke-miterlimit="10" stroke-width="2" opacity="0.15"/>
      <path d="M813.51,282a9.7,9.7,0,0,0-2.71-6.81" fill="none" stroke="#fff" stroke-miterlimit="10" stroke-width="2" opacity="0.15"/>
    </g>
  </g>
  <path d="M908.16,402C899.32,368,863,372.31,863,372.31c-13.5,3.57-41,9.14-54.51,12.71-5.16,1.37-10.87,2.69-15.67.35-7.83-3.82-8.55-14.51-8.16-23.22q1.08-23.86,2.15-47.72c.49-11,.28-23.66-8.19-30.66" fill="none" stroke="#fff" stroke-linecap="round" stroke-linejoin="round" stroke-width="2"/>
  <g>
    <g>
      <g>
        <rect x="903" y="220.75" width="196" height="196" rx="13.09" fill="#fff"/>
        <path d="M1085.91,221.75A12.1,12.1,0,0,1,1098,233.84V403.66a12.1,12.1,0,0,1-12.09,12.09H916.09A12.1,12.1,0,0,1,904,403.66V233.84a12.1,12.1,0,0,1,12.09-12.09h169.82m0-2H916.09A14.09,14.09,0,0,0,902,233.84V403.66a14.09,14.09,0,0,0,14.09,14.09h169.82A14.09,14.09,0,0,0,1100,403.66V233.84a14.09,14.09,0,0,0-14.09-14.09Z"/>
      </g>
      <line x1="902" y1="245.25" x2="1100" y2="245.25" fill="#fff" stroke="#000" stroke-miterlimit="10" stroke-width="2"/>
    </g>
    <g>
      <rect x="922.93" y="277.5" width="42.03" height="42.03" rx="4.42" fill="#fff" stroke="#000" stroke-miterlimit="10" stroke-width="2"/>
      <rect x="980.49" y="277.5" width="42.03" height="42.03" rx="4.42" fill="#fff" stroke="#000" stroke-miterlimit="10" stroke-width="2"/>
      <rect x="1038.05" y="277.5" width="42.03" height="42.03" rx="4.42" fill="#fff" stroke="#000" stroke-miterlimit="10" stroke-width="2"/>
      <rect x="922.93" y="335.97" width="42.03" height="42.03" rx="4.42" fill="#fff" stroke="#000" stroke-miterlimit="10" stroke-width="2"/>
      <rect x="980.49" y="335.97" width="42.03" height="42.03" rx="4.42" fill="#fff" stroke="#000" stroke-miterlimit="10" stroke-width="2"/>
      <rect x="1038.05" y="335.97" width="42.03" height="42.03" rx="4.42" fill="#fff" stroke="#000" stroke-miterlimit="10" stroke-width="2"/>
    </g>
  </g>
  <path d="M968.84,219.28A11,11,0,0,1,989.47,213a9,9,0,0,1,17.89-.57c-.72-3.91,1.62-5.82,5.54-6.49s8,1.39,10.47,4.46,1.63,2.58,5.36,9" fill="#ffc9e6"/>
  <path d="M972,217.49c1.16,6.59,4.34,12.24,6.91,18.41s9.71,12.91,15.53,16.19c2.19,1.23,5.12,2,7,.43a5,5,0,0,0,1.34-5,16.38,16.38,0,0,0-2.37-4.84c-5.52-8.89-8.58-18.69-11-28.88" fill="#ffc9e6"/>
  <path d="M991,216.49a84.37,84.37,0,0,0,7.1,19.41c3,6.17,9,12.91,15.87,16.19,2.56,1.23,6,2,8.26.43a4.55,4.55,0,0,0,1.57-5,15.44,15.44,0,0,0-2.78-4.84c-6.47-8.89-10.06-18.69-12.86-28.88" fill="#ffc9e6"/>
  <path d="M1010,217.49c2,7.51,5,15.51,8.91,20.41,4.19,5.21,7.71,11.91,13.53,15.19,2.19,1.23,5.12,2,7,.43,1.4-1.15,2.74-4.21,2.34-6s-2.7-6.16-3.37-7.84c-3.48-8.71-6.48-11.71-10-20.88" fill="#ffc9e6"/>
  <path d="M989.25,211.78C991.07,215,993,230,1001,245" fill="none" stroke="#000" stroke-linecap="round" stroke-linejoin="round"/>
  <path d="M1004.9,207.08c3.6,8.42,10.6,27.42,16,36" fill="none" stroke="#000" stroke-linecap="round" stroke-linejoin="round"/>
  <path d="M998.53,240.3l-7.08,1.77a22.49,22.49,0,0,0,5.08,7.18,6.12,6.12,0,0,0,2.32,1.46,2.53,2.53,0,0,0,2.56-.59,3.46,3.46,0,0,0,.41-3A16.81,16.81,0,0,0,998.53,240.3Z" fill="none" stroke="#000" stroke-miterlimit="10"/>
  <path d="M1018.77,239.88a21,21,0,0,1-7.88,1.41,12.69,12.69,0,0,0,7.77,8.39c1.35.5,3.21.59,3.91-.68a3.31,3.31,0,0,0-.18-2.74A23.54,23.54,0,0,0,1018.77,239.88Z" fill="none" stroke="#000" stroke-miterlimit="10"/>
  <path d="M1036.44,239.59a16.83,16.83,0,0,1-8.11,1.6,13.08,13.08,0,0,0,7.65,8.75c1.29.5,3.13.57,3.68-.7.34-.78,1-1.67.62-2.43A52.5,52.5,0,0,0,1036.44,239.59Z" fill="none" stroke="#000" stroke-miterlimit="10"/>
  <path d="M880.05,448.39c-.52,7.63-6.92,14.23-14.42,15.74s-15.55-1.71-20.57-7.47-7.15-13.74-6.51-21.36a42,42,0,0,1,8.37-21.05c4.78-6.52,11.48-12.17,19.47-13.4s17.15,3.18,19.24,11" fill="none" stroke="#fff" stroke-linecap="round" stroke-linejoin="round" stroke-width="2"/>
  <g>
    <path d="M866.18,425.34A12.71,12.71,0,0,1,875,413.82c8.14-2.6,17.61-1.73,26.09.47,11.66,3,21.95.15,34,.61,8.93.34,18.85,6.07,27.74,7s21.24,1.18,22.29,10c8.95-2.06,13.28-4.18,21.7-7.87s22.22-6,31.41-6.32c7.31-.25,14.35.88,19.76,5a2.35,2.35,0,0,1-1.18,4.19c-31.11,3.69-45.79,27.09-83.24,30.92-17.37,1.77-40.31-5.26-57.56-8-13.68-2.13-35.21-2.68-45.41-.44a4.36,4.36,0,0,1-5.33-4.45Z" fill="#ffc9e6"/>
    <path d="M985.54,434.4c-9.47,5.93-39.47,4.41-50.59,3.39" fill="none" stroke="#000" stroke-linecap="round" stroke-linejoin="round"/>
    <path d="M1042.75,428a5.89,5.89,0,0,1-.91-5.32,21.45,21.45,0,0,1,12.32-.33,4.2,4.2,0,0,1,2.21,1.19,1.66,1.66,0,0,1-.07,2.28,2.5,2.5,0,0,1-1,.37l-12.71,2.52" fill="none" stroke="#000" stroke-linecap="round" stroke-linejoin="round"/>
    <path d="M969.35,438.19c.27-1.53-.47-3-.91-4.52s-.44-3.39.83-4.29a4.52,4.52,0,0,1,2.33-.6l5-.35c2.17-.15,4.49-.26,6.35.86s2.8,4,1.24,5.49" fill="none" stroke="#000" stroke-linecap="round" stroke-linejoin="round"/>
  </g>
  <path d="M969.51,223.91a11.48,11.48,0,0,0,5.15-3.91,5.42,5.42,0,0,0,.08-6.15,7.87,7.87,0,0,0-4.32-2.3,59,59,0,0,0-11.2-1.87,21.31,21.31,0,0,0-9.27,1c-2.92,1.14-5.5,3.56-6.08,6.64C941.63,229.2,963.71,226.49,969.51,223.91Z" fill="#ffc9e6"/>
  <path d="M963.88,224.11,964,215s11.51-2.52,10.57,2.39S963.88,224.11,963.88,224.11Z" fill="none" stroke="#000" stroke-miterlimit="10"/>
  <path d="M829,506s9,146-36,320.61" fill="none" stroke="#fff" stroke-linecap="round" stroke-linejoin="round" stroke-width="2"/>
  <path d="M759.8,226a20,20,0,1,1,28.27-22.75" fill="#1b0042"/>
  <path d="M1016.14,185.31c9.58-1.34,19.26,7.36,19,17l.43-3" fill="none" stroke="#000" stroke-linecap="round" stroke-linejoin="round"/>
  <path d="M1029.87,179.7a18.9,18.9,0,0,1,16.88,17.37" fill="none" stroke="#000" stroke-linecap="round" stroke-linejoin="round"/>
</svg>
