<svg width="1010" height="928" viewBox="0 0 1010 928" fill="none" xmlns="http://www.w3.org/2000/svg">
<path d="M983.28 317.561H767.31C753.26 317.561 741.87 306.171 741.87 292.121V83.9907C741.87 69.9407 753.26 58.5508 767.31 58.5508H983.28C997.33 58.5508 1008.72 69.9407 1008.72 83.9907V292.121C1008.72 306.171 997.33 317.561 983.28 317.561Z" fill="white"/>
<path d="M983.28 317.561H767.31C753.26 317.561 741.87 306.171 741.87 292.121V83.9907C741.87 69.9407 753.26 58.5508 767.31 58.5508H983.28C997.33 58.5508 1008.72 69.9407 1008.72 83.9907V292.121C1008.72 306.171 997.33 317.561 983.28 317.561Z" stroke="black" stroke-linecap="round" stroke-linejoin="round" stroke-dasharray="29.65 29.65"/>
<path d="M193.2 254.46C201.09 256.25 211.33 257.51 217.19 251.92C222.04 247.29 222.31 239.75 222.02 233.06C221.67 225.2 218.25 217.45 213.83 210.93C208.59 203.2 201.89 198.88 192.86 196.53C181.86 193.67 169.81 192.47 159.39 197.01C148.97 201.56 141.07 213.32 144.09 224.29C137.11 227.26 133.99 236.91 137.92 243.41C141.85 249.91 151.84 251.63 157.72 246.83C161.83 255.31 158.49 268.3 161.28 273.84C164.07 279.39 169.32 283.79 175.42 284.94C180.5 285.89 190.91 284.95 194.23 280.25C197.15 276.09 192.38 259.29 193.2 254.46Z" fill="#FFC9E6"/>
<path d="M210.1 206.279L194.25 200.139C194.25 200.139 169.78 228.139 146.73 225.259C146.73 225.259 136.63 223.329 135.89 236.639C135.89 236.639 122.21 214.549 141.84 199.159C161.47 183.769 204.48 179.519 210.1 206.279Z" fill="#1B0042"/>
<path d="M193.6 254.299L171.25 250.379C171.25 250.379 183.07 269.029 195.74 274.759L193.6 254.299Z" fill="black"/>
<path d="M122.78 206.8C136.714 206.8 148.01 195.504 148.01 181.57C148.01 167.636 136.714 156.34 122.78 156.34C108.846 156.34 97.5498 167.636 97.5498 181.57C97.5498 195.504 108.846 206.8 122.78 206.8Z" fill="#1B0042"/>
<path d="M152.88 244.41C153.48 241.49 152.67 238.31 150.75 236.03C148.83 233.75 145.83 232.42 142.84 232.53" stroke="black" stroke-miterlimit="10" stroke-linecap="round" stroke-linejoin="round"/>
<path d="M150.94 236.961C148.62 237.731 146.72 239.691 146.02 242.041" stroke="black" stroke-miterlimit="10" stroke-linecap="round" stroke-linejoin="round"/>
<path d="M160.74 234.179C157.98 227.749 150.58 223.659 143.66 224.769" stroke="black" stroke-miterlimit="10" stroke-linecap="round" stroke-linejoin="round"/>
<path d="M201.64 215.301C203.58 219.621 206 223.731 208.84 227.521C206.54 228.151 204.23 228.781 201.93 229.411" stroke="black" stroke-miterlimit="10" stroke-linecap="round" stroke-linejoin="round"/>
<path d="M184.82 220.29C186.14 218.61 189.84 217.49 191.93 217.07C194.02 216.65 196.26 217.01 198.12 218.06C196.69 219.84 195.96 221.51 192.99 222.12C188.81 222.99 186.78 221.46 184.82 220.29Z" stroke="black" stroke-miterlimit="10" stroke-linecap="round" stroke-linejoin="round"/>
<path d="M195.94 220.511C196.917 220.511 197.71 219.718 197.71 218.741C197.71 217.763 196.917 216.971 195.94 216.971C194.962 216.971 194.17 217.763 194.17 218.741C194.17 219.718 194.962 220.511 195.94 220.511Z" fill="black"/>
<path d="M205.87 216.829C206.86 215.519 209.69 214.619 211.3 214.279C212.9 213.939 214.63 214.189 216.07 214.969C214.99 216.359 214.45 217.639 212.17 218.149C208.97 218.869 207.4 217.709 205.87 216.829Z" stroke="black" stroke-miterlimit="10" stroke-linecap="round" stroke-linejoin="round"/>
<path d="M213.34 217.239C214.318 217.239 215.11 216.447 215.11 215.469C215.11 214.492 214.318 213.699 213.34 213.699C212.363 213.699 211.57 214.492 211.57 215.469C211.57 216.447 212.363 217.239 213.34 217.239Z" fill="black"/>
<path d="M215.51 236.679C215.51 236.679 210.89 231.239 202.46 239.129L215.51 236.679Z" fill="black" stroke="black" stroke-miterlimit="10"/>
<path d="M215.51 236.68C215.51 236.68 215.46 241.19 211.98 241.85C208.5 242.5 201.59 239.29 201.59 239.29L215.51 236.68Z" stroke="black" stroke-miterlimit="10" stroke-linecap="round" stroke-linejoin="round"/>
<path d="M195.72 210.71C192.15 209.66 188.12 210.33 185.08 212.48" stroke="black" stroke-miterlimit="10" stroke-linecap="round" stroke-linejoin="round"/>
<path d="M214.25 208.371C211.73 206.991 208.28 207.61 206.39 209.78" stroke="black" stroke-miterlimit="10" stroke-linecap="round" stroke-linejoin="round"/>
<path d="M220.28 273.941C233.48 279.211 258.87 300.481 272.73 303.661C286.59 306.841 302.18 306.141 313.65 297.751C321.72 291.851 326.9 282.831 331.12 273.771C338.51 257.921 343.72 241.051 346.56 223.801C348.56 211.641 349.58 198.761 356.4 188.491C363.43 177.901 375.93 171.721 388.58 170.471C401.22 169.221 413.98 172.471 425.58 177.641C444.89 186.251 452.42 184.181 464.3 201.681C470.23 210.431 474.98 221.921 470.02 231.251C465.5 239.771 453.27 264.631 447.4 272.291C435.94 287.221 424.32 310.021 418.37 320.841C406.74 341.991 389.57 385.711 373.49 403.711C357.41 421.711 349.78 431.591 325.71 429.741C312.08 428.691 299.15 405.581 286.75 399.821C263.23 388.901 239.4 370.911 215.88 359.991C203.81 354.391 197.75 326.671 190.38 315.591C184.75 307.131 175.64 287.221 186.14 280.921C196.48 274.701 210.45 270.021 220.28 273.941Z" fill="#5C04A0"/>
<path opacity="0.15" d="M198.88 339.73C238.29 347.8 275.57 366.01 306.17 392.13C313.36 398.27 321.24 405.25 330.69 404.96C336.78 404.77 342.35 401.5 347.16 397.75C365.38 383.53 376.25 362 384.95 340.58C393.65 319.17 400.93 296.82 414.27 277.94C423.28 265.19 434.8 254.41 444.24 241.98C453.67 229.54 461.16 214.57 460.09 198.99" stroke="white" stroke-width="2" stroke-miterlimit="10" stroke-linecap="round" stroke-linejoin="round"/>
<path opacity="0.15" d="M197.37 324.012C215.86 321.522 234.66 326.352 251.79 333.752C268.92 341.142 284.83 351.072 301.47 359.492C308.34 362.972 315.94 366.272 323.49 364.802C332.77 362.992 339.11 354.622 344.41 346.782C379.98 294.252 410.11 238.042 434.16 179.332" stroke="white" stroke-width="2" stroke-miterlimit="10" stroke-linecap="round" stroke-linejoin="round"/>
<path opacity="0.15" d="M191.069 301.831C224.969 295.911 261.099 304.021 289.209 323.871C296.379 328.931 304.099 335.041 312.819 334.021C323.629 332.761 329.879 321.49 334.569 311.66C357.869 262.83 386.319 216.461 419.289 173.561" stroke="white" stroke-width="2" stroke-miterlimit="10" stroke-linecap="round" stroke-linejoin="round"/>
<path opacity="0.15" d="M217.47 283.061C216.66 282.571 216.35 283.88 215.93 282.75C226.1 280.1 239.58 288.6 249.64 290.14" stroke="white" stroke-width="2" stroke-miterlimit="10" stroke-linecap="round" stroke-linejoin="round"/>
<path opacity="0.15" d="M329.149 278.971C349.399 245.371 365.439 209.251 376.779 171.701" stroke="white" stroke-width="2" stroke-miterlimit="10" stroke-linecap="round" stroke-linejoin="round"/>
<path d="M503.48 664.359C504.65 666.599 535.15 766.809 535.15 766.809L495.52 787.529L463.03 681.689L501.91 661.359" fill="#FFC9E6"/>
<path d="M514.6 699.67L474.09 717.72L495.52 787.53L535.51 765.68L514.6 699.67Z" fill="#FCA1BB"/>
<path d="M522.89 740.529C526.53 733.239 521.53 723.969 524.56 716.419C527.65 708.709 535.82 702.349 543.91 704.229C550.47 705.759 554.96 712.209 556.2 718.829C557.44 725.449 556.06 732.249 554.59 738.819C576.95 741.179 599.39 739.679 621.22 734.279C631.32 731.779 641.26 728.459 651.59 727.169C661.92 725.879 672.92 726.809 681.78 732.279C688.49 736.429 695.75 743.569 697.89 751.209C698.98 755.079 697.29 759.209 693.9 761.359C638.73 796.329 601.63 812.999 511.79 847.789C507.47 849.459 502.58 847.779 500.17 843.819C485.93 820.429 478.5 788.539 481.03 762.349C481.41 758.369 485.4 755.729 489.2 756.969C497.86 759.829 512.75 760.849 522.89 740.529Z" fill="white" stroke="black" stroke-miterlimit="10"/>
<path d="M689.44 739.66C689.44 739.66 551.71 817.48 493 829.56Z" fill="white"/>
<path d="M689.44 739.66C689.44 739.66 551.71 817.48 493 829.56" stroke="black" stroke-miterlimit="10"/>
<path d="M612.939 736.879C607.469 747.319 595.929 753.519 584.289 755.379C572.649 757.239 560.759 755.379 549.159 753.279C551.209 747.919 553.259 742.569 555.309 737.209" stroke="black" stroke-miterlimit="10"/>
<path d="M592.69 739.689C590.51 746.049 589.25 751.4 584.17 755.8" stroke="black" stroke-miterlimit="10"/>
<path d="M573.97 739.219C571.9 745.349 568.83 751.149 564.92 756.309" stroke="black" stroke-miterlimit="10"/>
<path d="M584.789 793.519C575.149 786.169 561.859 785.769 549.929 787.919C537.999 790.079 526.489 794.459 514.429 795.609C502.369 796.769 488.929 793.969 481.409 784.469" stroke="black" stroke-miterlimit="10"/>
<path d="M572.239 801.079C562.649 797.889 552.129 799.429 542.389 802.129C532.649 804.839 523.189 808.699 513.189 810.189C503.189 811.679 492.199 810.459 484.409 804.029" stroke="black" stroke-miterlimit="10"/>
<path d="M516.83 706.699L476.16 724.449L478.19 731.089L519.08 713.809L516.83 706.699Z" fill="#151614"/>
<path d="M520.02 716.449L478.61 734.599L480.64 741.229L522.28 723.559L520.02 716.449Z" fill="white"/>
<path d="M135.43 353.98C125.88 376.89 110.23 370.71 102.19 404.98C96.5105 429.2 86.5805 465.309 94.2505 488.969C103.62 517.879 126.24 535.52 149.71 542.85C216.4 563.69 329.44 506.329 366.44 484.889C367.59 484.229 367.11 482.479 365.79 482.469C375.4 554.609 415.01 630.35 442.88 697.58C470.52 695.3 483.75 689.529 509.29 678.729C509.89 679.059 509.53 680.209 508.85 680.129C498.24 639.939 489.21 598.98 483.62 557.79C476.84 507.86 486.86 458.46 467.23 426.73C447.6 395.01 439.76 389.86 402.76 385.08C375.91 381.61 312.72 395.65 286.54 402.56C260.36 409.47 232.4 415.209 206.54 407.179C180.17 398.989 172.17 370.25 149.61 354.33C147.39 352.76 145.12 351.119 142.5 350.399C139.74 349.649 136.53 351.34 135.43 353.98Z" fill="#1B0042"/>
<path d="M707.47 723.85C692.53 712.48 673.31 706.88 654.6 708.44" stroke="black" stroke-miterlimit="10" stroke-linecap="round" stroke-linejoin="round"/>
<path d="M695.25 703.9C682.41 697.3 667.38 695.03 653.16 697.53" stroke="black" stroke-miterlimit="10" stroke-linecap="round" stroke-linejoin="round"/>
<path d="M329.58 740.031C329.14 742.441 292.85 837.051 292.85 837.051L250.29 829.311L288.41 729.221L330.17 736.821" fill="#FFC9E6"/>
<path d="M317.09 773.589L275.44 763.279L250.29 829.309L293.81 836.399L317.09 773.589Z" fill="#FCA1BB"/>
<path d="M299.12 809.7C306.23 806.3 307.93 796.25 314.73 792.29C321.67 788.24 331.69 788.25 336.75 794.49C340.85 799.55 340.44 807.15 337.45 812.94C334.46 818.73 329.37 823.1 324.34 827.24C340 842.34 358.02 854.53 377.89 863.38C387.09 867.48 396.65 870.85 405.3 876.01C413.95 881.17 421.8 888.42 425.3 897.86C427.96 905.01 429.25 914.78 426.35 921.89C424.88 925.49 421.14 927.64 417.27 927.26C354.38 921.16 316.14 911.83 226.9 884.98C222.61 883.69 219.88 879.5 220.39 875.05C223.43 848.73 236.71 819.98 254.21 801.49C256.87 798.68 261.48 799.03 263.64 802.24C268.55 809.55 279.3 819.18 299.12 809.7Z" fill="white" stroke="black" stroke-miterlimit="10"/>
<path d="M370.03 860.449C359.65 865.169 347.16 863.04 337.17 857.54C327.18 852.04 319.21 843.55 311.61 835.05C316.36 832.18 321.11 829.309 325.86 826.439" stroke="black" stroke-miterlimit="10"/>
<path d="M314.87 886.94C311.88 875.6 301.98 867.39 291.59 861.95C281.21 856.51 269.82 853.01 259.92 846.72C250.02 840.43 241.43 830.31 241.34 818.59" stroke="black" stroke-miterlimit="10"/>
<path d="M314.61 780.281L273.01 769.65L270.62 775.93L312.1 787.041L314.61 780.281Z" fill="#151614"/>
<path d="M311.25 789.62L268.85 778.85L266.46 785.129L308.74 796.389L311.25 789.62Z" fill="white"/>
<path d="M216.33 329.04C197.22 339.83 214.55 331.22 190.32 350.76C173.2 364.57 146.66 384.36 139.16 405.04C130 430.3 136.19 454.88 148.57 472.75C183.77 523.51 279.39 541.58 316.84 546.73C318 546.89 333.01 548.74 332.08 548.01L311.05 545.93C278.57 601.47 271.7 674.57 254.62 736.6C275.14 750.03 301.89 756.51 325.57 762.85C325.81 763.41 324.93 764.01 324.5 763.58C338.93 729.78 353.61 695.59 368.04 661.8C380.99 631.47 394.09 600.58 397.63 567.79C401.17 535 402.1 507.14 378.89 483.71C362.04 466.7 342.23 458.62 320.21 449.22C298.19 439.82 275.58 428.64 261.9 408.99C247.95 388.95 233.1 360.35 226.02 336.99C225.32 334.69 224.63 332.319 223.19 330.389C221.69 328.359 218.53 327.8 216.33 329.04Z" fill="#1B0042"/>
<path d="M394.86 585.26C394.86 585.26 370.32 526.991 367.93 491.311L236.85 539.97" stroke="white" stroke-width="2" stroke-miterlimit="10" stroke-linecap="round" stroke-linejoin="round"/>
<path d="M203.94 273.409C210.44 277.379 219.37 282.119 223.96 288.199C235.49 303.439 243.41 329.419 246.51 346.209C250.01 365.229 266.82 389.129 269.65 397.749C271.81 404.339 266.41 412.179 260.15 415.179C252.97 418.619 244.63 414.869 236.75 413.689C221.89 411.459 207.37 418.689 194.38 426.269C181.4 433.849 167.94 442.249 152.92 442.649C142.61 442.919 130.97 437.809 128.48 427.799C125.85 417.209 134.22 407.489 139.04 397.699C147.54 380.429 145.14 360.049 142.91 340.929C140.68 321.809 139.1 301.149 148.86 284.559C152.7 278.029 158.69 272.209 166.17 271.039C174.24 269.779 177.21 276.129 183.85 278.049C190.03 279.839 197.8 269.659 203.94 273.409Z" fill="#5C04A0"/>
<path opacity="0.15" d="M168.921 269.58C181.961 284.92 184.191 307.06 180.441 326.84C176.681 346.62 167.721 364.96 160.431 383.73C153.141 402.5 147.391 422.7 150.511 442.59" stroke="white" stroke-width="2" stroke-miterlimit="10" stroke-linecap="round" stroke-linejoin="round"/>
<path opacity="0.15" d="M167.63 440.51C167.11 412.42 178.71 385.77 186.97 358.92C195.23 332.07 199.91 301.62 186.53 276.92" stroke="white" stroke-width="2" stroke-miterlimit="10" stroke-linecap="round" stroke-linejoin="round"/>
<path opacity="0.15" d="M195.021 275.811C209.581 298.831 214.741 327.6 209.091 354.24C206.641 365.79 202.271 376.88 199.991 388.47C197.711 400.06 197.721 412.71 203.591 422.96" stroke="white" stroke-width="2" stroke-miterlimit="10" stroke-linecap="round" stroke-linejoin="round"/>
<path opacity="0.15" d="M222.211 412.89C223.441 392.78 224.671 372.68 225.911 352.57C226.751 338.84 227.591 324.97 225.331 311.4C223.081 297.83 217.431 284.39 207.181 275.22C207.101 276.94 200.631 271.72 200.551 273.45" stroke="white" stroke-width="2" stroke-miterlimit="10" stroke-linecap="round" stroke-linejoin="round"/>
<path opacity="0.15" d="M241.771 312.609C243.221 336.939 244.681 361.269 246.131 385.599C246.841 397.479 248.231 410.779 257.381 418.389" stroke="white" stroke-width="2" stroke-miterlimit="10" stroke-linecap="round" stroke-linejoin="round"/>
<path d="M164.57 319.261C151.14 354.431 145.99 396.321 127.44 429.081C123.18 436.611 122.67 443.581 122.86 451.281C123.33 470.441 130.45 488.631 141.88 504.021C151.92 517.541 153.37 555.531 141.45 567.431C135.37 573.491 126.35 575.251 117.9 576.731C95.01 580.731 72.12 584.731 49.23 588.731C40.97 590.171 28.8 584.091 20.93 581.191C9.39004 576.941 2.32004 556.271 0.920039 544.061C-1.30996 524.561 6.80004 505.531 14.73 487.571C36.77 437.701 28.04 405.581 62.81 358.741C74.47 343.031 103.35 305.661 118.79 282.851C125.56 272.851 159.17 264.141 167.61 277.401C175.69 290.051 169.37 306.671 164.57 319.261Z" fill="#5C04A0"/>
<path opacity="0.15" d="M22.0896 582.8C11.6996 548.81 20.2396 512.26 28.8096 477.76C35.9696 448.94 43.1896 419.93 55.3796 392.85C69.5496 361.37 90.0696 333.24 110.45 305.38C120.09 292.2 129.91 278.83 142.89 268.93" stroke="white" stroke-width="2" stroke-miterlimit="10" stroke-linecap="round" stroke-linejoin="round"/>
<path opacity="0.15" d="M35.1299 587.02C32.6399 551.8 39.9099 516.7 47.1499 482.14C53.0599 453.9 59.0199 425.51 69.5999 398.67C88.1399 351.62 120.05 311.27 151.51 271.68" stroke="white" stroke-width="2" stroke-miterlimit="10" stroke-linecap="round" stroke-linejoin="round"/>
<path opacity="0.15" d="M65.4404 538.03C72.6604 443.38 106.75 350.93 162.69 274.24" stroke="white" stroke-width="2" stroke-miterlimit="10" stroke-linecap="round" stroke-linejoin="round"/>
<path opacity="0.15" d="M98.4301 579.74C87.6901 505.97 99.5401 429.06 131.98 361.94C143.34 338.43 157.12 316.16 168.64 292.73" stroke="white" stroke-width="2" stroke-miterlimit="10" stroke-linecap="round" stroke-linejoin="round"/>
<path opacity="0.15" d="M123.25 575.009C131.32 549.929 125.9 522.789 121.55 496.799C117.2 470.809 114.31 442.679 126.6 419.379" stroke="white" stroke-width="2" stroke-miterlimit="10" stroke-linecap="round" stroke-linejoin="round"/>
<path d="M162.88 276.83C177.37 309.39 158.53 336.89 146.28 358.65C134.03 380.41 129.28 393.55 125.87 434.05" stroke="white" stroke-width="2" stroke-miterlimit="10" stroke-linecap="round" stroke-linejoin="round"/>
<path d="M54.7104 537.41C49.2704 538.35 45.4704 543.41 45.9904 548.91C46.9604 559.12 46.6804 569.45 45.1604 579.59C43.3504 591.69 39.7604 603.78 41.0704 615.95C43.4004 637.71 53.6004 651.27 62.5704 676.94C63.8404 680.58 65.6704 684.13 66.5104 687.89C66.8204 689.29 67.4004 690.92 69.1704 690.86C69.8504 690.84 70.4904 690.52 70.9804 690.05C74.2604 686.96 76.4004 683.43 75.7904 679.01C77.2804 684.51 78.8104 689.08 81.2404 694.23C82.4004 696.69 85.8104 697.1 87.4304 694.91C89.8604 691.62 91.2904 687.74 91.0204 683.57C92.8304 688.46 95.3504 693.08 98.4704 697.26C100.26 699.66 103.96 699.21 105.16 696.47C107.69 690.65 104.72 680.75 102.57 674.61C99.7504 666.56 97.0904 662.3 93.3404 654.64C86.6504 640.96 85.4804 625.53 88.8804 610.68C95.1704 616.59 96.2604 626.03 97.0404 634.62C97.8204 643.22 99.0904 652.68 105.56 658.38C106 658.77 106.58 659.16 107.13 658.96C107.79 658.72 107.91 657.85 107.92 657.15C108.17 638.33 108.36 619.15 102.81 601.16C97.4804 583.87 86.9004 567.84 84.6304 550.14C84.0804 545.85 81.2804 542.18 77.3604 540.36C70.4004 537.12 62.3204 536.1 54.7104 537.41Z" fill="#FFC9E6"/>
<path d="M67.2996 613.33C63.8596 619.99 66.7296 628.03 69.6296 634.94C76.9696 652.49 85.1096 669.59 92.4496 687.14" stroke="black" stroke-miterlimit="10" stroke-linecap="round" stroke-linejoin="round"/>
<path d="M56.2101 614.77C53.6001 625.93 58.3101 639.16 63.2801 649.49C68.2501 659.82 73.6801 670.17 76.3201 681.32" stroke="black" stroke-miterlimit="10" stroke-linecap="round" stroke-linejoin="round"/>
<path d="M89.8996 602.15C89.1296 607.3 88.3596 612.441 87.5996 617.591" stroke="black" stroke-miterlimit="10" stroke-linecap="round" stroke-linejoin="round"/>
<path d="M95.8298 680.27C96.3998 680.28 97.0098 680.31 97.4798 680.62C98.0498 681 98.2898 681.7 98.4898 682.35C99.3998 685.42 99.9698 688.59 100.2 691.78C100.26 692.68 100.29 693.62 99.8998 694.44C99.5098 695.26 98.5698 695.87 97.7098 695.59C97.0898 695.39 96.6898 694.81 96.3498 694.27C94.3398 691.09 92.4398 687.71 91.0798 684.19C89.3798 679.79 92.2398 680.19 95.8298 680.27Z" stroke="black" stroke-miterlimit="10" stroke-linecap="round" stroke-linejoin="round"/>
<path d="M81.9498 679.321C82.5098 679.431 83.1099 679.551 83.5199 679.941C84.0199 680.401 84.1498 681.131 84.2298 681.811C84.6298 684.991 84.6798 688.201 84.3898 691.391C84.3098 692.291 84.1798 693.221 83.6698 693.961C83.1598 694.701 82.1199 695.161 81.3199 694.741C80.7399 694.441 80.4399 693.811 80.1899 693.211C78.7199 689.751 77.3999 686.101 76.6299 682.411C75.6599 677.801 78.4198 678.661 81.9498 679.321Z" stroke="black" stroke-miterlimit="10" stroke-linecap="round" stroke-linejoin="round"/>
<path d="M68.8704 678.35C69.3004 678.44 69.7504 678.55 70.0604 678.86C70.4304 679.23 70.5104 679.79 70.5604 680.3C70.7904 682.73 70.7504 685.19 70.4604 687.61C70.3804 688.29 70.2604 689 69.8504 689.56C69.4404 690.11 68.6404 690.44 68.0404 690.1C67.6104 689.86 67.3904 689.37 67.2104 688.91C66.1704 686.24 65.2504 683.42 64.7504 680.59C64.1004 677.04 66.1904 677.76 68.8704 678.35Z" stroke="black" stroke-miterlimit="10" stroke-linecap="round" stroke-linejoin="round"/>
<path d="M108.02 643.15L103.13 642.59C103.13 642.59 102.69 653.71 106.49 657.54C107.03 658.08 107.95 657.68 107.96 656.92L108.02 643.15Z" stroke="black" stroke-miterlimit="10" stroke-linecap="round" stroke-linejoin="round"/>
<path d="M202.55 274.01C208.82 273.36 234.08 290.47 241.02 316.64C246.98 339.11 242.37 367.26 266.47 389.12" stroke="white" stroke-width="2" stroke-miterlimit="10" stroke-linecap="round" stroke-linejoin="round"/>
<path d="M459.84 112.91C462.78 98.3199 470.87 84.8101 482.36 75.3401C484.14 73.8701 486.33 72.42 488.58 72.94C491.7 73.66 492.77 77.6301 492.44 80.8201C491.74 87.5701 487.25 93.7901 481.07 96.5901" fill="#FFC9E6"/>
<path d="M695.57 288.79L481.93 257.15C468.03 255.09 458.44 242.16 460.49 228.26L490.98 22.38C493.04 8.48001 505.97 -1.10993 519.87 0.940069L733.51 32.5802C747.41 34.6402 757 47.5701 754.95 61.4701L724.46 267.35C722.4 281.25 709.46 290.85 695.57 288.79Z" fill="white" stroke="black" stroke-miterlimit="10"/>
<path d="M397.03 186.53C397.62 186.09 398.18 185.61 398.71 185.1C418.98 165.53 420.62 131.48 441.85 112.74C451.3 104.4 463.54 100.14 475.13 95.1801C486.72 90.2201 498.5 83.8703 505.06 73.1103L505.11 73.0903C506.45 72.4503 508.1 72.9903 508.7 74.3503C510.74 79.0003 510.03 84.7703 507.56 89.3303C504.57 94.8603 499.43 98.9003 494.19 102.36C488.11 106.38 481.6 109.7 474.93 112.62C468.37 115.49 462.62 120.05 458.74 126.08C457.78 127.58 456.95 129.11 456.35 130.72C455.1 134.12 451.04 142.22 454.65 142.24C467.48 142.31 477.34 134.56 487.44 125.56C495.18 118.66 498.68 120.16 503.12 120.34C505.64 120.44 507.02 123.32 505.52 125.35C492.82 142.49 477.13 158.09 459.02 169.31C450.4 174.65 443.71 182.93 438.21 191.44C433.91 198.09 430.77 208.16 426.65 216.66C419.42 231.57 397.36 230.2 392.42 214.38C392.29 213.97 392.17 213.55 392.05 213.12C387.25 195.34 394.83 188.18 397.03 186.53Z" fill="#FFC9E6"/>
<path d="M452.08 105.611L481.63 92.6211" stroke="black" stroke-miterlimit="10" stroke-linecap="round" stroke-linejoin="round"/>
<path d="M496.48 84.2204L500 88.6904C500 88.6904 509.7 79.6504 507.67 73.0104C507.67 73.0104 506.641 71.6405 501.401 78.0905C497.531 82.8605 496.48 84.2204 496.48 84.2204Z" stroke="black" stroke-miterlimit="10" stroke-linecap="round" stroke-linejoin="round"/>
<path d="M495.68 129.73C495.7 128.52 496.3 127.41 497.22 126.63C499.2 124.95 501.33 123.07 503.68 121.81C505.68 120.73 507.91 122.86 506.85 124.87C505.59 127.27 504.01 129.53 502.13 131.42C499.89 133.69 495.59 134.62 495.68 129.73Z" stroke="black" stroke-miterlimit="10" stroke-linecap="round" stroke-linejoin="round"/>
<path d="M414.14 122.94C416.94 112.97 425.2 104.71 435.18 101.92" stroke="black" stroke-miterlimit="10" stroke-linecap="round" stroke-linejoin="round"/>
<path d="M407.78 112.141C408.63 101.531 416.77 91.9008 427.1 89.3008" stroke="black" stroke-miterlimit="10" stroke-linecap="round" stroke-linejoin="round"/>
<path d="M688.73 104.45C675.47 77.8597 649.83 59.4597 620.61 55.2597C611.03 53.8797 601.08 54.0296 591.04 55.9096C541.92 65.1196 509.56 112.41 518.77 161.54C527.98 210.66 575.27 243.02 624.4 233.81C673.52 224.6 705.88 177.31 696.67 128.18C695.08 119.73 692.37 111.79 688.73 104.45ZM620.7 214.08C582.47 221.25 545.67 196.07 538.5 157.85C531.33 119.63 556.51 82.8296 594.75 75.6596C602.58 74.1896 610.36 74.0797 617.82 75.1697C640.53 78.4497 660.44 92.7596 670.74 113.41C673.59 119.12 675.7 125.31 676.93 131.9C684.1 170.11 658.92 206.91 620.7 214.08Z" stroke="black" stroke-miterlimit="10" stroke-linecap="round" stroke-linejoin="round"/>
<path d="M620.61 55.2598L617.82 75.1597C640.53 78.4397 660.44 92.7497 670.74 113.4L688.73 104.45" stroke="black" stroke-miterlimit="10" stroke-linecap="round" stroke-linejoin="round"/>
</svg>
