<svg width="1314" height="916" viewBox="0 0 1314 916" fill="none" xmlns="http://www.w3.org/2000/svg">
<path d="M29.5 143.561C13.51 143.561 0.5 130.551 0.5 114.561C0.5 98.5705 13.51 85.5605 29.5 85.5605H657.5C673.49 85.5605 686.5 98.5705 686.5 114.561C686.5 130.551 673.49 143.561 657.5 143.561H29.5Z" fill="white"/>
<path d="M657.5 86.0605C673.21 86.0605 686 98.8505 686 114.561C686 130.271 673.21 143.061 657.5 143.061H29.5C13.79 143.061 1 130.271 1 114.561C1 98.8505 13.79 86.0605 29.5 86.0605H657.5ZM657.5 85.0605H29.5C13.21 85.0605 0 98.2705 0 114.561C0 130.851 13.21 144.061 29.5 144.061H657.5C673.79 144.061 687 130.851 687 114.561C687 98.2705 673.79 85.0605 657.5 85.0605Z" fill="black"/>
<path d="M987.74 107.689C987.74 107.689 1015.8 108.25 1016.59 143.28C1017.38 178.32 946.71 249.68 929.9 290.85C916.27 324.23 869.89 348.109 845.35 322.399C820.81 296.689 757.1 242.03 776.04 198.04C794.98 154.05 832.91 137.72 854.02 162.55C875.14 187.38 873.13 199.51 895.57 207.27C918.01 215.03 937.45 114.879 987.74 107.689Z" fill="#5C04A0"/>
<path opacity="0.15" d="M792.77 188.04C781.31 202.44 784.62 219.83 787.81 227.54C791 235.25 796.35 241.84 801.63 248.3C812.63 261.78 823.63 275.26 834.63 288.75C844.7 301.09 856.85 314.51 872.78 314.85C882.78 315.07 892.25 309.79 899.33 302.74C906.42 295.68 911.51 286.93 916.68 278.37C935.66 246.95 956.73 216.78 979.7 188.15C994.01 170.32 1009.78 151.33 1011.08 128.51" stroke="white" stroke-width="2" stroke-miterlimit="10" stroke-linecap="round" stroke-linejoin="round"/>
<path opacity="0.15" d="M800.2 198.169C794.73 208.139 802.17 223.429 806.6 228.149C821.31 243.839 836.03 259.529 850.74 275.229C855.81 280.629 861.39 286.329 868.68 287.639C874.7 288.719 880.95 286.519 885.89 282.919C890.83 279.319 894.67 274.429 898.3 269.509C918.38 242.249 934.2 211.739 957.22 186.909C966.84 176.539 977.63 167.259 986.72 156.409C995.8 145.569 1003.27 132.709 1004.57 118.629" stroke="white" stroke-width="2" stroke-miterlimit="10" stroke-linecap="round" stroke-linejoin="round"/>
<path opacity="0.15" d="M814.5 196.229C822.99 209.309 845.16 238.739 857.56 248.189C861.32 251.059 865.64 253.849 870.36 253.559C874.54 253.299 878.16 250.669 881.38 247.989C912.88 221.759 930.72 182.359 960.65 154.359C967.19 148.239 974.29 142.689 980.14 135.909C985.99 129.129 990.61 120.829 990.94 111.879" stroke="white" stroke-width="2" stroke-miterlimit="10" stroke-linecap="round" stroke-linejoin="round"/>
<path opacity="0.15" d="M823.95 185.64C830.99 183.56 838.68 186.15 844.73 190.31C850.78 194.47 855.63 200.11 861.01 205.11C866.39 210.11 872.66 214.64 879.92 215.74C887.18 216.84 895.52 213.56 898.23 206.74" stroke="white" stroke-width="2" stroke-miterlimit="10" stroke-linecap="round" stroke-linejoin="round"/>
<path opacity="0.15" d="M939.22 150.73C954.9 136.57 970.58 122.41 986.26 108.25" stroke="white" stroke-width="2" stroke-miterlimit="10" stroke-linecap="round" stroke-linejoin="round"/>
<path opacity="0.15" d="M809.96 173.329C812.92 167.089 819.5 163.039 826.34 162.029C833.17 161.019 840.19 162.739 846.43 165.699C852.67 168.649 858.27 172.799 863.81 176.909" stroke="white" stroke-width="2" stroke-miterlimit="10" stroke-linecap="round" stroke-linejoin="round"/>
<path d="M743.03 125.349C732.04 120.129 719.49 105.339 717.6 93.0891C717.04 89.4791 719.63 86.4289 722.66 88.4589C724.62 89.7689 726.46 91.469 728.16 93.029C734.27 98.609 741.4 103.079 749.08 106.159C753.72 108.019 758.56 109.379 763.07 111.519C767.58 113.669 777.49 120.529 779.91 124.899" fill="#FFC9E6"/>
<path d="M794 137.36C785.42 125.75 774.25 114.889 760.09 112.059C750.17 110.069 739.9 112.269 730.2 115.159C721.43 117.769 712.84 120.959 704.49 124.699C699.04 127.139 693.25 130.29 691.11 135.86C688.97 141.43 693.49 149.329 699.28 147.899C693.5 151.279 695.12 161.86 701.64 163.37C699.09 169.24 700.51 176.129 715.69 176.219C722.57 176.259 728.1 170.39 734.5 167.86C751.76 161.04 773.08 166.329 785.15 180.419C789.59 185.599 793.11 192.009 799.24 194.979C812.46 201.399 826.96 187.03 821.07 173.62C818.79 168.44 813.02 164.479 809.62 159.969C804.1 152.659 799.44 144.73 794 137.36Z" fill="#FFC9E6"/>
<path d="M722.39 89.0898C721.91 91.6498 722.89 94.4397 724.86 96.1497C726.83 97.8597 729.73 98.4198 732.2 97.5698C729.2 94.9198 726.21 92.2796 723.21 89.6296" stroke="black" stroke-miterlimit="10" stroke-linecap="round" stroke-linejoin="round"/>
<path d="M1196.21 730.539C1196.83 732.789 1239.32 819.389 1239.32 819.389L1279.01 808.419L1234.33 716.779L1195.39 727.549" fill="#FFC9E6"/>
<path d="M1210.93 761.291L1249.54 747.971L1279.01 808.421L1238.36 818.861L1210.93 761.291Z" fill="#FCA1BB"/>
<path d="M1213.85 767.421L1252.38 753.801L1255.18 759.551L1216.8 773.621L1213.85 767.421Z" fill="#151614"/>
<path d="M1217.83 776L1257.11 762.17L1259.91 767.91L1220.79 782.2L1217.83 776Z" fill="white"/>
<path d="M1308.07 866.229C1313.44 864.079 1313.59 852.449 1312.27 846.829C1306.66 822.909 1292.03 798.029 1274.5 782.559C1271.74 780.129 1267.4 780.859 1265.63 784.079C1261.59 791.429 1252.21 801.479 1232.61 794.179C1225.58 791.559 1223.11 782.179 1216.32 779.009C1207.62 774.939 1194.88 777.329 1193.52 788.939C1193.19 791.749 1193.68 794.619 1194.79 797.219C1197.79 804.279 1204.05 808.779 1210.19 812.969C1196.63 828.619 1180.59 841.719 1162.5 851.809C1154.13 856.479 1145.35 860.499 1137.59 866.119C1129.83 871.749 1123.01 879.289 1120.49 888.539C1119.28 892.989 1119.86 900.749 1121.31 907.499C1122.48 912.959 1127.99 916.329 1133.37 914.829L1308.07 866.229Z" fill="white" stroke="black" stroke-miterlimit="10"/>
<path d="M1119.99 898.309C1119.99 898.309 1261.6 864.079 1308.7 835.299Z" fill="white"/>
<path d="M1119.99 898.309C1119.99 898.309 1261.6 864.079 1308.7 835.299" stroke="black" stroke-miterlimit="10"/>
<path d="M1169.71 848.34C1179.96 851.93 1191.61 848.84 1200.62 842.78C1209.62 836.71 1216.45 827.99 1222.94 819.28C1218.19 816.97 1213.45 814.65 1208.7 812.34" stroke="black" stroke-miterlimit="10"/>
<path d="M1185.11 837.5C1190.58 840.41 1194.78 843.22 1200.97 842.98" stroke="black" stroke-miterlimit="10"/>
<path d="M1197.41 825.418C1202.66 828.238 1208.37 830.208 1214.24 831.228" stroke="black" stroke-miterlimit="10"/>
<path d="M1224.27 868.758C1226.14 857.758 1234.82 849.128 1244.21 843.078C1253.59 837.028 1264.09 832.738 1272.94 825.928C1281.79 819.118 1289.07 808.788 1288.15 797.668" stroke="black" stroke-miterlimit="10"/>
<path d="M1237.46 865.949C1241.91 857.779 1249.95 852.189 1258.21 847.889C1266.47 843.589 1275.26 840.239 1282.92 834.949C1290.58 829.669 1297.21 821.939 1298.41 812.709" stroke="black" stroke-miterlimit="10"/>
<path d="M872.23 732.199C872 734.519 880.38 830.62 880.38 830.62L921.36 834.7L912.74 733.11L872.53 729.1" fill="#FFC9E6"/>
<path d="M874.86 769.129L915.68 770.629L921.36 837.649L879.69 832.719L874.86 769.129Z" fill="#FCA1BB"/>
<path d="M874.81 763.949L915.68 763.529L916.47 769.869L875.6 770.779L874.81 763.949Z" fill="#151614"/>
<path d="M876 782.391L917.62 783.67L918.16 790.03L876.52 789.241L876 782.391Z" fill="white"/>
<path d="M883.2 806.771C877.58 801.791 878.67 792.151 873.48 786.741C866.84 779.811 854.09 777.441 848.64 787.771C847.32 790.281 846.75 793.12 846.84 795.96C847.09 803.63 851.3 810.08 855.52 816.21C837.23 825.92 817.54 832.34 797.03 835.23C787.54 836.57 777.9 837.14 768.64 839.59C759.38 842.04 750.29 846.621 744.61 854.331C740.3 860.181 736.55 868.781 737.35 876.041C737.75 879.721 740.61 882.67 744.25 883.34C802.82 894.15 840.11 895.721 926.97 894.641C932.75 894.571 937.71 890.33 938.51 884.61C941.91 860.28 937.24 831.8 926.47 811.05C924.78 807.78 920.46 806.89 917.64 809.26C911.21 814.66 898.84 820.651 883.2 806.771Z" fill="white" stroke="black" stroke-miterlimit="10"/>
<path d="M740.6 863.27C740.6 863.27 885.02 882.419 939.34 872.569Z" fill="white"/>
<path d="M740.6 863.27C740.6 863.27 885.02 882.419 939.34 872.569" stroke="black" stroke-miterlimit="10"/>
<path d="M805 834.6C813.26 841.64 825.25 842.97 835.84 840.56C846.43 838.15 855.94 832.47 865.13 826.69C861.54 822.82 857.94 818.95 854.35 815.08" stroke="black" stroke-miterlimit="10"/>
<path d="M823.27 830.041C827.32 834.731 830.23 838.861 836.09 840.871" stroke="black" stroke-miterlimit="10"/>
<path d="M839.1 823.211C842.98 827.741 847.59 831.631 852.7 834.701" stroke="black" stroke-miterlimit="10"/>
<path d="M848.52 873.32C854.23 863.73 865.45 858.811 876.38 856.561C887.31 854.301 898.649 854.091 909.359 850.931C920.069 847.771 930.58 840.761 933.75 830.061" stroke="black" stroke-miterlimit="10"/>
<path d="M861.83 875.461C868.93 869.441 878.45 867.131 887.7 866.101C896.95 865.071 906.36 865.111 915.42 862.951C924.47 860.791 933.44 855.971 937.89 847.791" stroke="black" stroke-miterlimit="10"/>
<path d="M1080 268.58C1080 268.58 1158.45 299.96 1151.59 392.15C1144.73 484.33 1151.59 532.39 1151.59 532.39L1262.58 735.55C1264.93 739.85 1262.44 745.2 1257.64 746.17L1185.34 760.78C1176.08 762.65 1166.59 758.97 1161 751.36C1131.49 711.14 1040.81 584.68 1030.98 536.32C1019.21 478.46 1036.48 305.02 1019.02 282.39L1080 268.58Z" fill="#1B0042"/>
<path d="M1043.05 269.09C1043.05 269.09 1090.43 339.06 1033.06 411.55C975.7 484.04 954.439 527.68 954.439 527.68L941.199 732.13C940.489 743.69 931.019 752.77 919.439 752.99L865.5 754.05C853.45 754.29 843.409 744.89 842.849 732.85C839.989 671.54 833.77 507.95 852.36 463.31C875.05 408.8 986.58 274.85 984.81 246.33L1043.05 269.09Z" fill="#1B0042"/>
<path d="M1017.72 104.459C1014.95 104.949 1012.16 105.189 1009.35 105.249C1001.44 105.409 994.07 111.738 989.48 118.628C984.13 126.658 980.51 136.139 973.12 142.349C967.2 147.309 966.2 150.709 960.88 156.299C954.21 163.319 952 175.499 955.76 184.429C957.94 189.609 955.7 195.009 960.15 198.469C966.09 203.089 969.86 221.469 968.3 228.829C965.05 244.099 962.47 245.939 957.82 260.959C954.96 270.199 952.35 281.109 958.18 288.829C964.16 296.739 975.62 295.619 983.9 290.169C995.86 282.299 1021.89 286.469 1032.93 293.109C1042.16 298.659 1067.96 313.279 1078.34 316.199C1088.71 319.119 1099.45 322.179 1110.11 320.609C1120.77 319.039 1131.37 311.429 1132.68 300.729C1134.2 288.209 1123.39 278.138 1116.81 267.388C1107.22 251.718 1070.21 223.478 1072.46 184.638C1073.52 166.298 1071.64 147.088 1062.98 130.888C1055.03 116.018 1034.27 101.529 1017.72 104.459Z" fill="#5C04A0"/>
<path opacity="0.15" d="M1030.37 104.939C1024.25 113.529 1018.07 122.209 1013.96 131.929C1009.85 141.649 1007.91 152.62 1010.57 162.83C1015.52 181.78 1034.24 193.17 1046.92 208.1C1056.84 219.78 1063.23 233.999 1069.07 248.169C1074.92 262.339 1080.43 276.8 1088.96 289.53C1097.5 302.26 1109.54 313.319 1124.32 317.379" stroke="white" stroke-width="2" stroke-miterlimit="10" stroke-linecap="round" stroke-linejoin="round"/>
<path opacity="0.15" d="M1018.89 104.029C1011.34 115.289 1003.73 126.689 998.98 139.389C994.23 152.089 992.55 166.409 997.07 179.189C1002.82 195.439 1017.36 206.659 1027.79 220.379C1039.43 235.689 1045.92 254.169 1053.25 271.949C1060.58 289.729 1069.33 307.679 1084.06 320.049" stroke="white" stroke-width="2" stroke-miterlimit="10" stroke-linecap="round" stroke-linejoin="round"/>
<path opacity="0.15" d="M1004.3 104.799C997.13 118.799 989.96 132.809 982.79 146.809C978.63 154.939 974.36 163.459 974.32 172.599C974.25 187.799 985.54 200.259 994.96 212.189C1014.06 236.379 1027.87 264.719 1035.14 294.679" stroke="white" stroke-width="2" stroke-miterlimit="10" stroke-linecap="round" stroke-linejoin="round"/>
<path opacity="0.15" d="M969.1 145.488C963.37 158.378 957.5 172.208 959.85 186.118C962.22 200.158 972.46 211.328 979.83 223.518C992.15 243.878 996.78 268.768 992.62 292.198" stroke="white" stroke-width="2" stroke-miterlimit="10" stroke-linecap="round" stroke-linejoin="round"/>
<path opacity="0.15" d="M964.37 231.859C972.75 251.969 973.29 275.229 965.84 295.699" stroke="white" stroke-width="2" stroke-miterlimit="10" stroke-linecap="round" stroke-linejoin="round"/>
<path d="M1003.27 311.029C1023.74 344.159 1033.7 384.799 1027.29 423.209" stroke="white" stroke-width="2" stroke-miterlimit="10" stroke-linecap="round" stroke-linejoin="round"/>
<path d="M1007.34 104.33C1000.82 105.12 993.489 111.89 989.689 117.25C985.889 122.61 982.19 127.7 978.22 132.94C972.41 140.61 957 155.05 953.58 163.08C944.85 183.65 950.54 192.08 967.75 215.6C967.75 215.6 967.99 229.05 964.52 242.44" stroke="white" stroke-width="2" stroke-miterlimit="10" stroke-linecap="round" stroke-linejoin="round"/>
<path d="M751.98 145.551C741.41 138.111 738.83 123.221 729.39 114.391" stroke="black" stroke-miterlimit="10"/>
<path d="M1033.8 159.939C1046.97 194.429 1052.02 235.509 1070.21 267.639C1074.39 275.019 1074.89 281.859 1074.7 289.409C1074.24 308.199 1067.25 326.039 1056.05 341.129C1046.2 354.389 1044.78 391.649 1056.47 403.309C1062.43 409.249 1071.28 410.979 1079.56 412.429C1102.01 416.349 1124.45 420.269 1146.9 424.189C1155 425.609 1166.93 419.639 1174.65 416.789C1185.96 412.619 1192.9 392.359 1194.27 380.379C1196.46 361.259 1188.5 342.589 1180.72 324.989C1159.11 276.079 1167.67 244.579 1133.57 198.649C1122.14 183.249 1093.82 146.589 1078.67 124.219C1072.03 114.409 1039.07 105.879 1030.8 118.869C1022.9 131.309 1029.09 147.599 1033.8 159.939Z" fill="#5C04A0"/>
<path opacity="0.15" d="M1173.53 418.399C1183.72 385.069 1175.35 349.219 1166.94 315.389C1159.92 287.119 1152.84 258.68 1140.89 232.12C1127 201.25 1106.87 173.67 1086.89 146.34C1077.44 133.42 1067.81 120.3 1055.07 110.6" stroke="white" stroke-width="2" stroke-miterlimit="10" stroke-linecap="round" stroke-linejoin="round"/>
<path opacity="0.15" d="M1160.74 422.529C1163.18 387.989 1156.05 353.569 1148.95 319.679C1143.15 291.989 1137.31 264.139 1126.94 237.819C1108.76 191.679 1077.46 152.109 1046.61 113.279" stroke="white" stroke-width="2" stroke-miterlimit="10" stroke-linecap="round" stroke-linejoin="round"/>
<path opacity="0.15" d="M1131.01 374.489C1123.93 281.669 1090.5 190.999 1035.64 115.789" stroke="white" stroke-width="2" stroke-miterlimit="10" stroke-linecap="round" stroke-linejoin="round"/>
<path opacity="0.15" d="M1098.67 415.399C1109.2 343.049 1097.58 267.63 1065.77 201.81C1054.63 178.76 1041.11 156.919 1029.82 133.939" stroke="white" stroke-width="2" stroke-miterlimit="10" stroke-linecap="round" stroke-linejoin="round"/>
<path opacity="0.15" d="M1074.32 410.759C1066.41 386.159 1071.72 359.549 1075.99 334.059C1080.25 308.579 1083.09 280.989 1071.03 258.129" stroke="white" stroke-width="2" stroke-miterlimit="10" stroke-linecap="round" stroke-linejoin="round"/>
<path d="M1141.53 373.88C1146.86 374.8 1150.59 379.77 1150.08 385.15C1149.13 395.16 1149.4 405.29 1150.89 415.24C1152.67 427.11 1156.18 438.96 1154.91 450.9C1152.63 472.24 1142.62 485.54 1133.83 510.71C1132.58 514.28 1130.79 517.76 1129.96 521.45C1129.65 522.83 1129.08 524.421 1127.35 524.371C1126.68 524.351 1126.05 524.041 1125.57 523.581C1122.35 520.551 1120.25 517.09 1120.86 512.75C1119.4 518.14 1117.9 522.62 1115.52 527.68C1114.38 530.1 1111.04 530.491 1109.45 528.341C1107.07 525.111 1105.66 521.31 1105.93 517.22C1104.16 522.01 1101.69 526.55 1098.63 530.65C1096.88 533 1093.24 532.56 1092.07 529.88C1089.59 524.17 1092.5 514.47 1094.61 508.44C1097.38 500.55 1099.98 496.371 1103.66 488.861C1110.22 475.451 1111.36 460.31 1108.03 445.75C1101.86 451.55 1100.79 460.8 1100.02 469.23C1099.26 477.66 1098.01 486.94 1091.66 492.54C1091.23 492.92 1090.66 493.301 1090.12 493.111C1089.47 492.881 1089.35 492.031 1089.34 491.341C1089.1 472.881 1088.91 454.07 1094.35 436.44C1099.58 419.49 1109.95 403.77 1112.18 386.4C1112.72 382.2 1115.47 378.6 1119.31 376.81C1126.15 373.6 1134.07 372.6 1141.53 373.88Z" fill="#FFC9E6"/>
<path d="M1129.19 448.33C1132.56 454.86 1129.75 462.74 1126.91 469.52C1119.71 486.73 1111.73 503.5 1104.53 520.71" stroke="black" stroke-miterlimit="10" stroke-linecap="round" stroke-linejoin="round"/>
<path d="M1140.07 449.75C1142.63 460.7 1138.01 473.66 1133.14 483.79C1128.27 493.92 1122.95 504.07 1120.35 515.01" stroke="black" stroke-miterlimit="10" stroke-linecap="round" stroke-linejoin="round"/>
<path d="M1107.02 437.379C1107.77 442.429 1108.53 447.469 1109.28 452.519" stroke="black" stroke-miterlimit="10" stroke-linecap="round" stroke-linejoin="round"/>
<path d="M1101.21 513.981C1100.65 513.991 1100.06 514.021 1099.59 514.331C1099.03 514.701 1098.79 515.391 1098.6 516.031C1097.71 519.041 1097.15 522.151 1096.92 525.281C1096.86 526.161 1096.83 527.09 1097.21 527.88C1097.59 528.68 1098.52 529.281 1099.36 529.011C1099.96 528.821 1100.36 528.251 1100.7 527.711C1102.67 524.601 1104.53 521.271 1105.86 517.831C1107.54 513.511 1104.73 513.901 1101.21 513.981Z" stroke="black" stroke-miterlimit="10" stroke-linecap="round" stroke-linejoin="round"/>
<path d="M1114.83 513.05C1114.28 513.15 1113.7 513.27 1113.29 513.65C1112.8 514.11 1112.68 514.82 1112.59 515.48C1112.2 518.59 1112.15 521.75 1112.43 524.88C1112.51 525.76 1112.63 526.68 1113.14 527.4C1113.65 528.12 1114.66 528.57 1115.44 528.17C1116 527.88 1116.3 527.26 1116.55 526.67C1117.99 523.28 1119.29 519.7 1120.04 516.08C1121 511.56 1118.29 512.4 1114.83 513.05Z" stroke="black" stroke-miterlimit="10" stroke-linecap="round" stroke-linejoin="round"/>
<path d="M1127.66 512.099C1127.24 512.189 1126.8 512.299 1126.5 512.599C1126.14 512.959 1126.06 513.509 1126.01 514.019C1125.79 516.409 1125.82 518.819 1126.11 521.189C1126.19 521.859 1126.31 522.559 1126.71 523.099C1127.11 523.639 1127.9 523.959 1128.49 523.629C1128.91 523.399 1129.13 522.909 1129.3 522.459C1130.32 519.839 1131.22 517.069 1131.72 514.299C1132.33 510.819 1130.28 511.529 1127.66 512.099Z" stroke="black" stroke-miterlimit="10" stroke-linecap="round" stroke-linejoin="round"/>
<path d="M1089.26 477.579L1094.05 477.029C1094.05 477.029 1094.48 487.929 1090.76 491.689C1090.23 492.219 1089.32 491.829 1089.32 491.089L1089.26 477.579Z" stroke="black" stroke-miterlimit="10" stroke-linecap="round" stroke-linejoin="round"/>
<path d="M1067.46 314.23C1076.57 296.61 1075.85 275.28 1070.33 256.22C1064.81 237.16 1054.88 219.75 1045.89 202.08C1036.89 184.4 1027.65 167.81 1025.89 148.05C1025.27 141.05 1026.52 129.81 1029.62 123.5C1032.72 117.2 1040.2 110.17 1047.21 110.52" stroke="white" stroke-width="2" stroke-miterlimit="10" stroke-linecap="round" stroke-linejoin="round"/>
<path d="M721.86 152.81C719.97 152.81 718.34 151.63 716.89 149.21C709.2 136.4 702.2 121.07 696.38 107.76L696.18 107.29L695.72 107.5C689.29 110.45 682.42 112.13 675.28 112.5C674.31 112.55 673.33 112.57 672.37 112.57C642.56 112.57 618.02 89.2299 616.49 59.4399C614.91 28.5999 638.71 2.2299 669.55 0.649902C670.52 0.599902 671.5 0.580078 672.47 0.580078C702.28 0.580078 726.82 23.92 728.35 53.71C729.3 72.33 720.97 90.1401 706.05 101.36L705.74 101.59L705.89 101.95C710.64 113.2 718.08 129.7 726.57 144.42C727.66 146.32 728.02 147.93 727.63 149.21C727.28 150.34 726.37 151.25 724.84 152C723.73 152.55 722.76 152.81 721.86 152.81Z" fill="white"/>
<path d="M672.46 0.0800781V1.08008C702 1.08008 726.32 24.21 727.84 53.74C728.79 72.19 720.52 89.84 705.74 100.96L705.12 101.43L705.42 102.15C710.17 113.41 717.62 129.93 726.12 144.68C727.14 146.45 727.48 147.93 727.13 149.07C726.83 150.06 726 150.88 724.59 151.56C723.57 152.06 722.68 152.3 721.85 152.3C720.15 152.3 718.67 151.2 717.31 148.95C709.63 136.16 702.65 120.85 696.83 107.56L696.42 106.63L695.5 107.05C689.13 109.97 682.32 111.64 675.25 112C674.29 112.05 673.32 112.07 672.36 112.07C642.82 112.07 618.49 88.9399 616.98 59.4099C615.41 28.8499 639 2.70989 669.56 1.13989C670.52 1.08989 671.49 1.07007 672.45 1.07007L672.46 0.0800781ZM672.45 0.0800781C671.48 0.0800781 670.49 0.0999121 669.51 0.159912C638.35 1.75991 614.38 28.32 615.98 59.48C617.53 89.66 642.48 113.09 672.36 113.09C673.33 113.09 674.32 113.07 675.3 113.01C682.66 112.63 689.61 110.86 695.92 107.97C702.07 122 708.95 136.96 716.46 149.47C718.1 152.21 719.91 153.31 721.85 153.31C722.88 153.31 723.94 153 725.03 152.46C728.19 150.92 729.4 148.38 726.98 144.18C719.57 131.33 712.36 116.05 706.33 101.76C720.83 90.85 729.83 73.1699 728.83 53.6799C727.29 23.5199 702.33 0.0800781 672.45 0.0800781Z" fill="black"/>
<path d="M672.44 15.0801V16.0801C694 16.0801 711.75 32.96 712.85 54.51C713.4 65.31 709.72 75.69 702.47 83.72C695.22 91.75 685.28 96.48 674.48 97.03C673.78 97.07 673.07 97.0801 672.37 97.0801C650.81 97.0801 633.06 80.1999 631.96 58.6499C631.41 47.8499 635.09 37.4699 642.34 29.4399C649.59 21.4099 659.53 16.6799 670.33 16.1299C671.03 16.0899 671.74 16.0801 672.44 16.0801V15.0801ZM672.44 15.0801C671.72 15.0801 671 15.0999 670.28 15.1399C647.39 16.3099 629.79 35.82 630.96 58.71C632.1 80.88 650.43 98.0901 672.37 98.0901C673.09 98.0901 673.81 98.07 674.53 98.03C697.42 96.86 715.02 77.35 713.85 54.46C712.72 32.29 694.39 15.0801 672.44 15.0801Z" fill="black"/>
<path d="M709.19 161.96C717.18 161.38 725.11 159.96 732.82 157.75C737 156.55 741.88 154.13 741.98 149.79C742.05 146.83 739.61 144.28 736.82 143.29C734.03 142.3 730.97 142.56 728.04 142.92C719.46 143.99 708.98 144.94 700.79 147.72C709.33 145.39 719.19 143.11 727.47 139.97C729.98 139.02 732.54 137.99 734.52 136.18C736.5 134.37 737.82 131.59 737.17 128.98C736.51 126.3 733.93 124.44 731.24 123.83C728.55 123.22 725.75 123.62 723.03 124.07C714.56 125.48 706.16 127.331 697.88 129.601" fill="#FFC9E6"/>
<path d="M709.19 161.96C717.18 161.38 725.11 159.96 732.82 157.75C737 156.55 741.88 154.13 741.98 149.79C742.05 146.83 739.61 144.28 736.82 143.29C734.03 142.3 730.97 142.56 728.04 142.92C719.46 143.99 708.98 144.94 700.79 147.72C709.33 145.39 719.19 143.11 727.47 139.97C729.98 139.02 732.54 137.99 734.52 136.18C736.5 134.37 737.82 131.59 737.17 128.98C736.51 126.3 733.93 124.44 731.24 123.83C728.55 123.22 725.75 123.62 723.03 124.07C714.56 125.48 706.16 127.331 697.88 129.601" stroke="black" stroke-miterlimit="10"/>
<path d="M697.42 148.289C700.63 147.619 712.13 145.079 719.16 143.609" stroke="black" stroke-miterlimit="10" stroke-linecap="round" stroke-linejoin="round"/>
<path d="M701.12 163.369C704.68 162.779 717.12 160.949 720.67 160.359Z" fill="white"/>
<path d="M701.12 163.369C704.68 162.779 717.12 160.949 720.67 160.359" stroke="black" stroke-miterlimit="10" stroke-linecap="round" stroke-linejoin="round"/>
<path d="M730.45 156.73C729.44 153.54 728.42 150.35 727.41 147.16C729.1 146.49 731.34 145.64 733.15 145.52C734.97 145.41 736.92 145.95 738.07 147.37C739.72 149.39 739.14 152.59 737.39 154.53C735.65 156.46 733.01 156.18 730.45 156.73Z" stroke="black" stroke-miterlimit="10" stroke-linecap="round" stroke-linejoin="round"/>
<path d="M726.78 137.239C725.77 134.049 724.75 130.859 723.74 127.669C725.43 126.999 727.67 126.149 729.48 126.029C731.3 125.919 733.25 126.459 734.4 127.879C736.05 129.899 735.47 133.099 733.72 135.039C731.97 136.969 729.33 136.689 726.78 137.239Z" stroke="black" stroke-miterlimit="10" stroke-linecap="round" stroke-linejoin="round"/>
<path d="M714.26 176.459C722.46 176.609 733.36 173.089 741.2 170.689C743.32 170.039 745.73 168.939 746.1 166.759C746.62 163.719 742.87 161.879 739.85 161.309C729.36 159.349 718.97 161.669 707.8 162.169" fill="#FFC9E6"/>
<path d="M714.26 176.459C722.46 176.609 733.36 173.089 741.2 170.689C743.32 170.039 745.73 168.939 746.1 166.759C746.62 163.719 742.87 161.879 739.85 161.309C729.36 159.349 718.97 161.669 707.8 162.169" stroke="black" stroke-miterlimit="10"/>
<path d="M733.66 172.541C732.85 170.371 732.03 168.211 731.22 166.041C733.57 165.451 735.98 164.86 738.38 165.15C740.78 165.45 743.21 166.841 744.01 169.121C740.73 170.361 737.45 171.591 734.17 172.831" stroke="black" stroke-miterlimit="10" stroke-linecap="round" stroke-linejoin="round"/>
<path d="M1006.55 19.0912C1006.55 19.0912 995.76 24.1911 981.93 38.1911C966.73 53.5811 973.02 93.6812 983.21 93.2912C993.4 92.8912 1009.26 86.7511 1009.26 86.7511L1001.78 112.081C1001.3 117.341 1005.41 121.891 1010.69 121.951L1017.19 122.031C1024.44 122.121 1030.57 116.701 1031.4 109.501C1032.71 98.0711 1041.21 72.3911 1045.48 61.1611C1045.66 60.7011 1045.82 60.2312 1045.97 59.7712C1051.78 42.2812 1040.68 23.7612 1022.73 19.5712C1017.68 18.3912 1012.05 17.9012 1006.55 19.0912Z" fill="#FFC9E6"/>
<path d="M1019.8 54.6804C1021.42 50.8304 1025.27 47.8706 1029.45 47.7906C1033.63 47.7106 1037.78 50.8605 1038.39 55.0005C1038.8 57.7905 1037.69 60.6005 1036.18 62.9905C1034.84 65.1205 1033.09 67.0904 1030.79 68.1304C1028.5 69.1704 1025.58 69.0905 1023.67 67.4505" stroke="black" stroke-miterlimit="10" stroke-linecap="round" stroke-linejoin="round"/>
<path d="M1009.03 86.6694L1023.01 83.8496C1023.01 83.8496 1018.84 95.7494 1006.07 99.9194L1009.03 86.6694Z" fill="#1B0042"/>
<path d="M1002.56 55.2709C1000.6 54.6409 998.569 54.1608 996.539 54.4008C994.709 54.6208 992.879 55.5409 991.839 57.0109C991.399 57.6309 991.719 58.5009 992.449 58.7309C995.579 59.6909 998.689 59.9809 1001.78 58.7209C1002.37 58.4809 1002.96 58.1809 1003.35 57.6909C1004.01 56.8509 1003.57 55.6009 1002.56 55.2709Z" stroke="black" stroke-miterlimit="10" stroke-linecap="round" stroke-linejoin="round"/>
<path d="M976.479 54.0893C978.059 53.5593 979.709 53.1693 981.359 53.3293C982.929 53.4893 984.509 54.2492 985.409 55.4992C985.779 56.0092 985.529 56.7291 984.929 56.9291C982.269 57.7991 979.629 58.1093 976.979 57.0793C976.619 56.9393 976.249 56.7792 975.949 56.5392C975.079 55.8592 975.439 54.4393 976.479 54.0893Z" stroke="black" stroke-miterlimit="10" stroke-linecap="round" stroke-linejoin="round"/>
<path d="M986.72 53.5508C985.48 57.4808 983.83 61.4708 981.34 65.7908C980.96 66.4508 980.56 67.2507 980.92 67.9207C981.25 68.5407 982.06 68.7008 982.76 68.7908C985.02 69.0708 987.28 69.3508 989.54 69.6208" stroke="black" stroke-miterlimit="10" stroke-linecap="round" stroke-linejoin="round"/>
<path d="M995.43 56.5402C995.79 57.3202 995.43 58.3501 994.66 58.7401C993.89 59.1301 992.85 58.8002 992.44 58.0502C991.34 56.0402 994.48 54.4602 995.43 56.5402Z" fill="black"/>
<path d="M978.5 54.9805C978.82 55.6805 978.5 56.6005 977.81 56.9405C977.13 57.2805 976.19 57.0006 975.82 56.3206C974.84 54.5306 977.65 53.1205 978.5 54.9805Z" fill="black"/>
<path d="M987.87 76.0113C985.77 73.2213 981.31 72.6213 978.54 74.7413C981.46 74.9913 984.95 75.7613 987.87 76.0113Z" stroke="black" stroke-miterlimit="10" stroke-linecap="round" stroke-linejoin="round"/>
<path d="M978.489 75.0703C979.019 76.8403 980.709 78.2003 982.559 78.3503C984.409 78.4903 987.429 77.6702 988.229 76.0002" fill="black"/>
<path d="M995.949 67.0803C1000.19 67.0803 1003.62 63.6462 1003.62 59.4102C1003.62 55.1741 1000.19 51.7402 995.949 51.7402C991.713 51.7402 988.279 55.1741 988.279 59.4102C988.279 63.6462 991.713 67.0803 995.949 67.0803Z" stroke="black" stroke-miterlimit="10" stroke-linecap="round" stroke-linejoin="round"/>
<path d="M977.02 65.1309C981.256 65.1309 984.69 61.697 984.69 57.4609C984.69 53.2249 981.256 49.791 977.02 49.791C972.784 49.791 969.35 53.2249 969.35 57.4609C969.35 61.697 972.784 65.1309 977.02 65.1309Z" stroke="black" stroke-miterlimit="10" stroke-linecap="round" stroke-linejoin="round"/>
<path d="M1003.35 57.6897L1019.12 53.1797" stroke="black" stroke-miterlimit="10" stroke-linecap="round" stroke-linejoin="round"/>
<path d="M1023.76 60.2104C1025.48 56.6104 1029.3 54.1105 1033.29 53.9805" stroke="black" stroke-miterlimit="10" stroke-linecap="round" stroke-linejoin="round"/>
<path d="M1026.4 57.6992C1026.91 60.4992 1027.95 60.9993 1028.46 63.7993" stroke="black" stroke-miterlimit="10" stroke-linecap="round" stroke-linejoin="round"/>
<path d="M1033.48 68.5696C1018.21 66.6996 1019.01 82.6394 1016.92 98.6394C1016.04 105.419 1021.09 111.579 1027.92 111.959C1035.35 112.379 1043.82 112.14 1051.11 111.99C1056.97 111.87 1061.91 107.489 1062.62 101.669C1063.95 90.8295 1064.34 79.8295 1063.67 68.9795C1062.78 54.6895 1058.69 40.2695 1049.88 28.9895C1041.07 17.7095 1027.12 9.95953 1012.82 10.7395C998.519 11.5195 983.959 18.6495 981.229 32.6995C981.229 32.6995 1024.95 11.3095 1037.94 33.6995C1050.95 56.0995 1044.27 69.8996 1033.48 68.5696Z" fill="#1B0042"/>
<path d="M1022.4 11.9402C984.07 3.07022 969 29.0603 969.67 44.0203C969.75 45.7703 970.01 47.4203 971.76 47.5503C985.15 48.5503 1005.84 49.4503 1018.95 54.0603C1018.95 54.0603 1030.08 41.5803 1037.07 51.7503C1043.84 61.6003 1028.77 69.4202 1028.77 69.4202L1033.42 84.7503L1055.63 77.7703C1055.63 77.7803 1069.55 22.8402 1022.4 11.9402Z" fill="#1B0042"/>
<path d="M1024.28 63.5509C1020.66 61.6709 1015.6 64.1109 1014.07 68.4809C1012.54 72.8509 1014.87 78.1709 1018.78 79.2309C1022.69 80.2909 1027.31 76.8409 1028.1 72.2709" stroke="white" stroke-miterlimit="10"/>
<path d="M988.84 57.4897L984.93 56.9297" stroke="black" stroke-miterlimit="10" stroke-linecap="round" stroke-linejoin="round"/>
</svg>
