<svg width="1217" height="639" viewBox="0 0 1217 639" fill="none" xmlns="http://www.w3.org/2000/svg">
<path d="M848.1 603.05H462.44C448.39 603.05 437 591.66 437 577.61V336.44C437 322.39 448.39 311 462.44 311H848.1C862.15 311 873.54 322.39 873.54 336.44V577.61C873.53 591.67 862.15 603.05 848.1 603.05Z" fill="white" stroke="black" stroke-width="2" stroke-miterlimit="10"/>
<path d="M981.04 149.89C940.08 149.89 906.76 116.57 906.76 75.6101C906.76 34.6501 940.08 1.33008 981.04 1.33008C1022 1.33008 1055.32 34.6501 1055.32 75.6101C1055.32 116.56 1022 149.89 981.04 149.89ZM964.64 45.6602C961.94 45.6802 959.75 47.8901 959.77 50.5901V100.63C959.77 101.52 960.01 102.4 960.47 103.17C961.35 104.64 962.96 105.55 964.68 105.55C965.56 105.55 966.43 105.31 967.2 104.85L1008.63 79.8201C1009.3 79.4101 1009.87 78.8402 1010.28 78.1702C1010.97 77.0402 1011.17 75.7202 1010.86 74.4302C1010.55 73.1502 1009.76 72.0601 1008.63 71.3801L967.2 46.3501C966.43 45.8901 965.56 45.6501 964.68 45.6501H964.64V45.6602Z" fill="white"/>
<path d="M981.04 2.32031C1021.45 2.32031 1054.32 35.2003 1054.32 75.6003C1054.32 116 1021.44 148.88 981.04 148.88C940.64 148.88 907.76 116 907.76 75.6003C907.76 35.2003 940.63 2.32031 981.04 2.32031ZM964.68 106.55C965.74 106.55 966.79 106.26 967.72 105.71L1009.15 80.6804C1009.96 80.1904 1010.64 79.5003 1011.13 78.7003C1011.96 77.3403 1012.2 75.7503 1011.83 74.2103C1011.46 72.6703 1010.5 71.3604 1009.14 70.5304L967.71 45.5004C966.79 44.9504 965.75 44.6604 964.64 44.6604C961.39 44.6804 958.75 47.3403 958.77 50.5803V100.61C958.76 101.69 959.05 102.75 959.61 103.68C960.67 105.45 962.61 106.55 964.68 106.55ZM981.04 0.320312C939.53 0.320312 905.76 34.0903 905.76 75.6003C905.76 117.11 939.53 150.88 981.04 150.88C1022.55 150.88 1056.32 117.11 1056.32 75.6003C1056.32 34.0903 1022.55 0.320312 981.04 0.320312ZM964.68 104.55C963.35 104.55 962.06 103.87 961.33 102.65C960.96 102.04 960.77 101.34 960.78 100.62V50.5803C960.77 48.4303 962.5 46.6704 964.66 46.6604C964.67 46.6604 964.68 46.6604 964.68 46.6604C965.39 46.6604 966.08 46.8503 966.69 47.2103L1008.11 72.2303C1009.97 73.3603 1010.56 75.7904 1009.43 77.6504C1009.1 78.1904 1008.65 78.6403 1008.11 78.9703L966.69 103.99C966.05 104.37 965.36 104.55 964.68 104.55Z" fill="black"/>
<path d="M1140.95 201.589H821.12C818.21 201.589 815.85 199.709 815.85 197.399C815.85 195.089 818.21 193.209 821.12 193.209H1140.95C1143.86 193.209 1146.22 195.089 1146.22 197.399C1146.22 199.709 1143.86 201.589 1140.95 201.589Z" fill="white" stroke="black" stroke-width="2" stroke-miterlimit="10" stroke-linecap="round" stroke-linejoin="round"/>
<path d="M911.789 208.25V186.53C911.789 184.22 913.669 182.34 915.979 182.34C918.289 182.34 920.169 184.22 920.169 186.53V208.25C920.169 210.56 918.289 212.44 915.979 212.44C913.669 212.45 911.789 210.57 911.789 208.25Z" fill="white" stroke="black" stroke-width="2" stroke-miterlimit="10" stroke-linecap="round" stroke-linejoin="round"/>
<path d="M1016 515.17C1018.73 514.51 1134.92 508.57 1134.92 508.57L1146.6 556.84L1023.82 563.41L1012.36 516.05" fill="#FFC9E6"/>
<path d="M1057.04 512.671L1065.6 561.181L1146.6 556.851L1133.79 507.881L1057.04 512.671Z" fill="#FCA1BB"/>
<path d="M1103.3 514.73C1096.42 508.85 1085.09 511.74 1077.76 506.45C1070.28 501.05 1065.62 490.53 1069.83 482.32C1073.24 475.66 1081.4 472.56 1088.87 473C1096.34 473.44 1103.3 476.75 1109.98 480.1C1118.54 456.64 1122.95 432.05 1122.99 407.08C1123.01 395.52 1122.1 383.91 1123.49 372.44C1124.88 360.97 1128.84 349.35 1137.11 341.28C1143.38 335.16 1153.03 329.26 1161.84 329C1166.31 328.87 1170.3 331.79 1171.71 336.03C1194.57 404.87 1202.57 449.35 1215.92 555.5C1216.56 560.61 1213.44 565.42 1208.52 566.95C1179.49 576.01 1143.13 575.44 1115.58 565.69C1111.4 564.21 1109.62 559.2 1111.98 555.44C1117.37 546.88 1122.47 531.11 1103.3 514.73Z" fill="white" stroke="black" stroke-miterlimit="10"/>
<path d="M1147.12 335.01C1147.12 335.01 1193.97 504.34 1191.22 570.86Z" fill="white"/>
<path d="M1147.12 335.01C1147.12 335.01 1193.97 504.34 1191.22 570.86" stroke="black" stroke-miterlimit="10"/>
<path d="M1123.56 416.699C1133.34 425.399 1136.92 439.499 1135.8 452.539C1134.68 465.589 1129.48 477.899 1124.09 489.829C1118.87 486.179 1113.65 482.529 1108.43 478.879" stroke="black" stroke-miterlimit="10"/>
<path d="M1121.15 439.281C1127.42 443.341 1132.84 446.131 1136.22 452.791" stroke="black" stroke-miterlimit="10"/>
<path d="M1115.62 459.32C1121.67 463.2 1127.09 468.07 1131.6 473.66" stroke="black" stroke-miterlimit="10"/>
<path d="M1177.04 462.25C1166.53 470.66 1162.52 484.88 1161.64 498.31C1160.76 511.74 1162.38 525.33 1160.39 538.64C1158.4 551.95 1151.77 565.68 1139.51 571.23" stroke="black" stroke-miterlimit="10"/>
<path d="M1181.81 477.811C1175.8 487.291 1174.62 499.04 1174.92 510.26C1175.22 521.48 1176.84 532.721 1175.76 543.891C1174.68 555.061 1170.42 566.58 1161.38 573.24" stroke="black" stroke-miterlimit="10"/>
<path d="M1065.21 512.16L1073.42 560.76L1081.11 560.35L1073.48 511.65L1065.21 512.16Z" fill="#151614"/>
<path d="M1076.58 511.34L1085.01 560.85L1092.7 560.44L1084.85 510.82L1076.58 511.34Z" fill="white"/>
<path d="M452.17 447.23L1045.89 456.7V564.32L424.97 612.811L452.17 447.23Z" fill="#1B0042"/>
<path d="M951.531 444.06C953.751 445.78 1030.95 532.81 1030.95 532.81L1000.54 572.08L918.73 480.29L948.561 441.76" fill="#FFC9E6"/>
<path d="M979.11 474.539L946.58 511.529L1000.55 572.079L1030.79 531.489L979.11 474.539Z" fill="#FCA1BB"/>
<path d="M1006.4 511.949C1006.69 502.899 997.36 495.859 996.92 486.829C996.47 477.609 1001.77 467.409 1010.81 465.559C1018.14 464.059 1025.66 468.499 1029.98 474.609C1034.3 480.719 1036.06 488.219 1037.62 495.529C1061.29 487.559 1083.24 475.649 1102.77 460.089C1111.81 452.889 1120.31 444.929 1130.13 438.849C1139.95 432.769 1151.5 428.609 1162.97 430.029C1171.66 431.109 1182.3 434.959 1188 441.679C1190.89 445.089 1191.1 450.029 1188.67 453.779C1149.18 514.629 1119.44 548.649 1044.88 625.379C1041.29 629.069 1035.58 629.639 1031.32 626.759C1006.11 609.739 983.84 580.989 974.27 553.389C972.82 549.199 975.62 544.679 980.02 544.179C990.08 543.029 1005.58 537.159 1006.4 511.949Z" fill="white" stroke="black" stroke-miterlimit="10"/>
<path d="M1174.12 433.939C1174.12 433.939 1071.13 576.29 1017.46 615.68Z" fill="white"/>
<path d="M1174.12 433.939C1174.12 433.939 1071.13 576.29 1017.46 615.68" stroke="black" stroke-miterlimit="10"/>
<path d="M1095.62 466.559C1094.93 479.639 1086.16 491.229 1075.27 498.499C1064.38 505.769 1051.52 509.399 1038.83 512.649C1038.42 506.289 1038.01 499.938 1037.6 493.578" stroke="black" stroke-miterlimit="10"/>
<path d="M1076.48 478.779C1077.23 486.209 1078.43 492.189 1075.34 498.989" stroke="black" stroke-miterlimit="10"/>
<path d="M1057.36 486.969C1058.11 494.119 1057.69 501.389 1056.14 508.409" stroke="black" stroke-miterlimit="10"/>
<path d="M1093.44 536.768C1080.31 533.818 1066.7 539.558 1055.66 547.258C1044.62 554.958 1035.03 564.708 1023.38 571.468C1011.74 578.228 996.88 581.628 984.88 575.518" stroke="black" stroke-miterlimit="10"/>
<path d="M1084.27 550.209C1073.11 551.439 1063.2 557.859 1054.63 565.099C1046.06 572.339 1038.29 580.619 1028.89 586.759C1019.49 592.889 1007.83 596.759 996.99 593.869" stroke="black" stroke-miterlimit="10"/>
<path d="M984.61 480.609L951.78 517.369L956.91 523.119L990.18 486.739L984.61 480.609Z" fill="#151614"/>
<path d="M992.36 488.969L958.95 526.479L964.08 532.229L997.92 495.109L992.36 488.969Z" fill="white"/>
<path d="M470.3 421.75C483.84 390.25 503.31 361.7 522.8 333.49C555.15 286.68 591.59 237.36 645.61 219.46C682.45 207.25 722.96 211.6 760.22 222.46C821.42 240.3 876.66 274.96 925.36 316.09C974.06 357.22 990.06 377.64 1032.59 425.13C995.01 451.23 940.07 488.86 932.3 494.77C878.14 447.15 818.12 406.21 754.03 373.16C737.71 364.75 719.19 356.64 701.56 361.78C679.35 368.26 668.19 392.62 661.34 414.72C644.12 470.31 636.16 529.64 607.43 580.25C595.52 601.23 578.62 621.37 555.35 627.77C527.51 635.44 496.99 620.63 479.52 597.64C442.86 549.37 447.61 474.53 470.3 421.75Z" fill="#1B0042"/>
<path d="M658.43 424.459C658.43 424.459 636.73 559.699 593.33 601.059" stroke="white" stroke-width="2" stroke-miterlimit="10" stroke-linecap="round" stroke-linejoin="round"/>
<path d="M225.73 327.99C225.46 328.19 189.89 355.25 181.34 462.69C175.3 538.59 75.6804 457.99 36.6504 479.28C-2.37958 500.57 -11.8396 563.25 16.5404 591.64C52.6204 627.72 203.43 654.49 233 574.06C262.57 493.64 264.13 461.51 262.94 457.96C261.76 454.41 262.94 365.71 262.94 365.71V333.78L225.73 327.99Z" fill="#1B0042"/>
<path d="M299.091 360.789C307.541 362.059 318.43 362.589 324.16 356.249C328.91 350.999 328.611 343.039 327.781 336.009C326.801 327.759 322.59 319.859 317.43 313.339C311.31 305.609 303.921 301.569 294.221 299.799C282.411 297.639 269.631 297.309 259.001 302.909C248.381 308.509 240.971 321.519 245.001 332.829C237.871 336.499 235.341 346.909 239.981 353.449C244.621 359.989 255.281 361.029 261.101 355.509C266.091 364.119 261.151 378.329 264.511 383.959C267.881 389.589 273.751 384.359 280.271 385.089C285.691 385.699 296.581 383.889 299.721 378.679C302.511 374.079 298.611 365.949 299.091 360.789Z" fill="#FFC9E6"/>
<path d="M313.15 308.729L295.98 303.499C295.98 303.499 272.38 334.899 247.87 333.659C247.87 333.659 237.08 332.419 237.33 346.489C237.33 346.489 221.2 324.279 240.68 306.549C260.17 288.809 305.15 280.979 313.15 308.729Z" fill="#1B0042"/>
<path d="M299.51 360.589L275.67 358.199C275.67 358.199 287.13 367.739 300.93 372.779L299.51 360.589Z" fill="black"/>
<path d="M255.85 353.35C256.26 350.23 255.16 346.94 252.95 344.69C250.74 342.44 247.48 341.27 244.35 341.62" stroke="black" stroke-miterlimit="10" stroke-linecap="round" stroke-linejoin="round"/>
<path d="M253.22 345.65C250.83 346.65 248.99 348.86 248.43 351.38" stroke="black" stroke-miterlimit="10" stroke-linecap="round" stroke-linejoin="round"/>
<path d="M263.32 341.961C259.92 335.401 251.8 331.671 244.6 333.381" stroke="black" stroke-miterlimit="10" stroke-linecap="round" stroke-linejoin="round"/>
<path d="M304.939 318.891C307.319 323.291 310.189 327.431 313.469 331.201C311.089 332.041 308.71 332.891 306.34 333.731" stroke="black" stroke-miterlimit="10" stroke-linecap="round" stroke-linejoin="round"/>
<path d="M287.61 325.451C288.87 323.581 292.68 322.111 294.85 321.511C297.02 320.911 299.41 321.111 301.44 322.081C300.07 324.071 299.44 325.881 296.35 326.761C292.02 327.991 289.77 326.531 287.61 325.451Z" stroke="black" stroke-miterlimit="10" stroke-linecap="round" stroke-linejoin="round"/>
<path d="M299.2 324.82C300.233 324.82 301.07 323.983 301.07 322.95C301.07 321.917 300.233 321.08 299.2 321.08C298.167 321.08 297.33 321.917 297.33 322.95C297.33 323.983 298.167 324.82 299.2 324.82Z" fill="black"/>
<path d="M309.52 320.18C310.46 318.73 313.38 317.55 315.04 317.07C316.7 316.58 318.54 316.71 320.12 317.43C319.09 318.97 318.62 320.37 316.26 321.09C312.94 322.08 311.19 320.98 309.52 320.18Z" stroke="black" stroke-miterlimit="10" stroke-linecap="round" stroke-linejoin="round"/>
<path d="M317.279 320.029C318.312 320.029 319.149 319.192 319.149 318.159C319.149 317.126 318.312 316.289 317.279 316.289C316.247 316.289 315.409 317.126 315.409 318.159C315.409 319.192 316.247 320.029 317.279 320.029Z" fill="black"/>
<path d="M321.22 340.33C321.22 340.33 315.93 334.96 307.66 343.92L321.22 340.33Z" fill="black" stroke="black" stroke-miterlimit="10"/>
<path d="M321.22 340.33C321.22 340.33 321.51 345.09 317.9 346.05C314.29 347.01 306.76 344.17 306.76 344.17L321.22 340.33Z" stroke="black" stroke-miterlimit="10" stroke-linecap="round" stroke-linejoin="round"/>
<path d="M298.35 314.52C294.51 313.69 290.31 314.71 287.28 317.21" stroke="black" stroke-miterlimit="10" stroke-linecap="round" stroke-linejoin="round"/>
<path d="M317.689 310.61C314.919 309.35 311.34 310.27 309.52 312.71" stroke="black" stroke-miterlimit="10" stroke-linecap="round" stroke-linejoin="round"/>
<path d="M213.04 343.199C203.55 338.549 198.02 326.979 200.36 316.669C202.7 306.359 212.69 298.319 223.26 298.239C233.83 298.149 243.95 306.029 246.46 316.299" fill="#1B0042"/>
<path d="M429.669 382.921C439.569 378.011 449.109 371.911 459.909 369.581C470.709 367.251 483.549 369.761 489.659 378.971C495.989 388.521 471.46 466.351 466.36 476.621C459.08 491.271 462.219 509.041 458.129 524.881C454.159 540.271 441.11 542.151 427.11 549.681C413.12 557.221 397.13 560.261 381.3 561.601C358.43 563.531 335.28 562.101 312.83 557.351C304.83 555.661 296.699 553.451 290.149 548.561C283.599 543.671 278.899 535.541 280.199 527.471C282.039 516.041 294.69 508.621 296.31 497.161C297.42 489.331 292.97 481.731 287.49 476.031C282.01 470.331 275.37 465.771 270.36 459.661C256.51 442.771 257.97 418.471 260.16 396.741C264.06 357.991 299.08 376.791 319.73 388.901C347.06 404.931 348.46 399.881 379.98 396.891C397.2 395.231 414.159 390.611 429.669 382.921Z" fill="#5C04A0"/>
<path opacity="0.15" d="M275.33 384.52C287.55 381.67 299.11 390.23 309.64 397.05C349.61 422.92 402.17 428.24 446.51 410.88C461.61 404.97 476.45 396.47 492.67 396.71" stroke="white" stroke-width="2" stroke-miterlimit="10"/>
<path opacity="0.15" d="M286.159 396.33C313.459 416.06 342.759 436.53 376.379 438.6C409.299 440.62 452.999 424.06 479.999 436.49" stroke="white" stroke-width="2" stroke-miterlimit="10"/>
<path opacity="0.15" d="M286.239 415.32C297.949 425.86 309.739 436.45 323.059 444.86C336.379 453.27 351.459 459.46 367.189 460.3C382.919 461.14 398.369 456.66 413.899 454C429.429 451.34 455.299 464.73 468.969 472.55" stroke="white" stroke-width="2" stroke-miterlimit="10"/>
<path opacity="0.15" d="M282.58 433.98C304.28 456.67 329.92 477.971 360.84 483.411C376.92 486.241 393.4 484.58 409.73 484.74C426.06 484.9 443.16 487.21 456.41 496.76" stroke="white" stroke-width="2" stroke-miterlimit="10"/>
<path opacity="0.15" d="M274.09 445.611C287.4 455.161 301.22 465.371 308.29 480.151C313.04 490.061 314.33 501.221 315.57 512.131C316.81 523.051 318.14 534.201 322.93 544.091C327.72 553.981 336.72 562.531 347.64 563.751" stroke="white" stroke-width="2" stroke-miterlimit="10"/>
<path d="M278.11 383.06C266.61 374.63 250.28 378.29 243.53 390.85C242.18 393.35 241.07 395.98 240.22 398.63C236.38 410.48 236.2 423.21 233.29 435.33C227.39 459.9 210.74 480.38 193.44 498.8C176.13 517.22 157.39 534.93 145.57 557.26C136.95 573.54 132.59 594.12 141.91 610.01C149.61 623.14 164.8 629.95 179.6 633.46C244.12 648.74 311.95 616.28 377.32 627.38C392.04 629.88 406.34 634.56 421.11 636.8C435.88 639.04 451.68 638.63 464.8 631.5C485.38 620.32 494.71 594.37 491.79 571.13C488.86 547.89 475.84 527.1 460.8 509.14C448.01 493.86 432.14 479.28 412.42 476.38C391.88 473.36 372.04 483.55 353.07 491.97C334.1 500.39 311.73 507.2 293.17 497.9C280.98 491.79 272.51 478.84 271.81 465.22C271.31 455.63 274.37 446.24 277.76 437.25C281.15 428.27 284.94 419.28 286.01 409.74C287.08 400.2 284.99 389.76 278.11 383.06Z" fill="#5C04A0"/>
<path opacity="0.15" d="M260.52 377.609C249.94 387.649 249.44 403.949 247.65 418.429C244.61 442.959 235.77 466.759 222.06 487.319C202.43 516.759 173.15 539.479 157.3 571.119C151.9 581.909 148.43 595.559 155.25 605.509C161.84 615.109 175.06 617.039 186.71 617.239C252.68 618.399 319.3 592.449 383.45 607.889C395.33 610.749 407.29 615.029 419.42 613.599C431.55 612.159 443.9 602.449 442.96 590.269" stroke="white" stroke-width="2" stroke-miterlimit="10" stroke-linecap="round" stroke-linejoin="round"/>
<path opacity="0.15" d="M268.9 379.66C259.49 388.12 259.77 402.59 259.37 415.24C258.26 451.09 245.68 486.5 223.92 515.02C214.11 527.88 202.5 539.37 193.65 552.91C190.97 557.01 188.55 561.37 186.57 565.9C179.94 581.05 192.77 597.49 209.12 595.02C226.11 592.45 243.03 589.44 259.86 585.99C286.44 580.54 313.57 573.95 340.41 577.95C355.21 580.16 369.38 585.53 384.15 587.92C398.92 590.31 415.27 589.26 427.03 580.01" stroke="white" stroke-width="2" stroke-miterlimit="10" stroke-linecap="round" stroke-linejoin="round"/>
<path opacity="0.15" d="M274.36 475.52C273.78 488.56 271.73 500.14 270.26 512.3C269.11 521.79 276.68 530.199 286.24 529.819C298.01 529.349 309.79 526.47 321.05 522.79C337.87 517.29 354.14 509.98 371.37 505.93C388.6 501.88 407.42 501.349 423.33 509.099C439.25 516.839 451.18 534.41 448.3 551.87" stroke="white" stroke-width="2" stroke-miterlimit="10" stroke-linecap="round" stroke-linejoin="round"/>
<path opacity="0.15" d="M278.52 385.52C270.14 413.7 270.31 443.809 262.77 472.229C257 493.999 231.84 528.299 222.8 548.939C220.29 554.679 217.88 561.439 220.86 566.949C223.16 571.199 228.19 573.389 233.01 573.609C237.83 573.829 242.57 572.39 247.19 571C275.19 562.59 318.76 541.059 347.98 539.859C377.2 538.649 407.38 544.18 431.89 560.12" stroke="white" stroke-width="2" stroke-miterlimit="10" stroke-linecap="round" stroke-linejoin="round"/>
<path d="M272.3 463.149C273.17 451.269 279.33 440.149 282.93 428.789C286.54 417.439 288.75 404.819 284.17 393.829C284.17 393.829 280.37 378.459 262.78 378.549" stroke="white" stroke-width="2" stroke-miterlimit="10" stroke-linecap="round" stroke-linejoin="round"/>
<path d="M293.54 496.77C293.54 496.77 320.65 511.17 371.49 486.64C432.61 457.15 460.72 507.49 460.72 507.49" stroke="white" stroke-width="2" stroke-miterlimit="10" stroke-linecap="round" stroke-linejoin="round"/>
<path d="M425.31 571.02C423.68 576.51 426.629 582.37 431.979 584.42C441.919 588.22 451.39 593.24 460.12 599.32C470.54 606.58 480.12 615.48 492.03 619.87C513.33 627.73 530.64 624.49 558.62 627.98C562.59 628.47 566.73 628.41 570.62 629.36C572.07 629.71 573.85 629.93 574.61 628.26C574.9 627.62 574.899 626.88 574.699 626.2C573.339 621.73 571.039 618.11 566.649 616.64C572.439 617.79 577.4 618.47 583.31 618.59C586.13 618.65 588.08 615.66 586.79 613.15C584.85 609.37 581.909 606.26 577.909 604.59C583.289 605.16 588.75 604.95 594.07 603.98C597.12 603.42 598.419 599.77 596.419 597.4C592.179 592.37 581.609 590.57 574.909 589.74C566.129 588.66 560.95 589.16 552.1 589.12C536.3 589.04 521.419 583.01 509.189 573.01C517.579 569.89 526.859 573.22 535.209 576.45C543.559 579.69 552.939 582.86 561.229 579.47C561.789 579.24 562.419 578.88 562.489 578.28C562.579 577.56 561.819 577.04 561.169 576.71C543.789 567.81 526.05 558.79 506.78 555.67C488.25 552.66 468.479 555.11 450.979 549.06C446.739 547.6 442.04 548.51 438.54 551.31C432.27 556.31 427.6 563.34 425.31 571.02Z" fill="#FFC9E6"/>
<path d="M501.67 594.301C506.28 600.571 515.07 601.601 522.83 602.091C542.52 603.351 562.17 603.671 581.86 604.921" stroke="black" stroke-miterlimit="10" stroke-linecap="round" stroke-linejoin="round"/>
<path d="M497.91 605.27C507.08 612.83 521.54 614.549 533.43 614.689C545.32 614.829 557.44 614.549 569.02 617.229" stroke="black" stroke-miterlimit="10" stroke-linecap="round" stroke-linejoin="round"/>
<path d="M501.7 568.141C506.13 571.221 510.56 574.311 514.99 577.391" stroke="black" stroke-miterlimit="10" stroke-linecap="round" stroke-linejoin="round"/>
<path d="M577.04 598.621C577.32 598.101 577.62 597.541 578.13 597.251C578.74 596.901 579.51 596.991 580.2 597.111C583.47 597.681 586.68 598.601 589.75 599.861C590.62 600.211 591.51 600.621 592.08 601.361C592.65 602.101 592.8 603.261 592.14 603.931C591.67 604.411 590.95 604.521 590.28 604.591C586.4 605.001 582.38 605.201 578.49 604.841C573.62 604.391 575.31 601.921 577.04 598.621Z" stroke="black" stroke-miterlimit="10" stroke-linecap="round" stroke-linejoin="round"/>
<path d="M569.76 611.08C570.12 610.61 570.5 610.11 571.06 609.9C571.72 609.65 572.46 609.87 573.13 610.1C576.26 611.19 579.28 612.63 582.11 614.36C582.91 614.85 583.72 615.4 584.17 616.22C584.62 617.04 584.57 618.21 583.82 618.76C583.28 619.16 582.55 619.15 581.88 619.11C577.99 618.88 573.99 618.43 570.2 617.45C565.45 616.23 567.52 614.06 569.76 611.08Z" stroke="black" stroke-miterlimit="10" stroke-linecap="round" stroke-linejoin="round"/>
<path d="M562.84 622.799C563.12 622.449 563.43 622.079 563.86 621.929C564.37 621.759 564.93 621.939 565.43 622.129C567.8 623.039 570.06 624.199 572.18 625.599C572.78 625.989 573.38 626.429 573.71 627.069C574.03 627.709 573.97 628.599 573.38 628.999C572.96 629.289 572.4 629.259 571.89 629.219C568.92 628.949 565.88 628.509 563.02 627.679C559.42 626.619 561.06 625.009 562.84 622.799Z" stroke="black" stroke-miterlimit="10" stroke-linecap="round" stroke-linejoin="round"/>
<path d="M548.15 570.189L545.38 574.479C545.38 574.479 555.51 580.01 560.82 578.24C561.57 577.99 561.63 576.949 560.92 576.589L548.15 570.189Z" stroke="black" stroke-miterlimit="10" stroke-linecap="round" stroke-linejoin="round"/>
</svg>
