<svg width="1503" height="988" viewBox="0 0 1503 988" fill="none" xmlns="http://www.w3.org/2000/svg">
<path d="M1062.14 699.791C1061.27 702.651 1047.66 825.801 1047.66 825.801L1098.25 841.251L1112.94 711.131L1063.31 695.971" fill="#FFC9E6"/>
<path d="M1056.91 743.26L1107.94 755.42L1098.24 841.26L1046.99 824.56L1056.91 743.26Z" fill="#FCA1BB"/>
<path d="M1056.18 792.569C1050.36 784.879 1054.15 773.019 1048.98 764.899C1043.7 756.609 1032.82 750.999 1023.82 754.949C1016.53 758.149 1012.71 766.639 1012.71 774.599C1012.71 782.559 1015.79 790.169 1018.94 797.489C993.46 805.109 967.05 808.259 940.49 806.739C928.2 806.039 915.92 804.339 903.63 805.099C891.35 805.849 878.75 809.339 869.65 817.619C862.75 823.899 855.87 833.789 855.04 843.139C854.62 847.879 857.48 852.309 861.9 854.069C933.65 882.699 980.43 893.989 1092.45 914.859C1097.84 915.859 1103.15 912.839 1105.09 907.719C1116.54 877.419 1118.23 838.729 1109.58 808.839C1108.27 804.299 1103.05 802.089 1098.91 804.369C1089.49 809.559 1072.4 813.989 1056.18 792.569Z" fill="white" stroke="black" stroke-miterlimit="10"/>
<path d="M862.37 827.879C862.37 827.879 1039.45 888.319 1110.34 889.569Z" fill="white"/>
<path d="M862.37 827.879C862.37 827.879 1039.45 888.319 1110.34 889.569" stroke="black" stroke-miterlimit="10"/>
<path d="M950.689 807.959C959.329 818.909 974.089 823.589 988.029 823.219C1001.97 822.849 1015.38 818.089 1028.41 813.119C1024.86 807.339 1021.31 801.559 1017.76 795.779" stroke="black" stroke-miterlimit="10"/>
<path d="M974.85 806.818C978.77 813.738 981.4 819.678 988.27 823.688" stroke="black" stroke-miterlimit="10"/>
<path d="M996.5 802.189C1000.25 808.869 1005.08 814.929 1010.75 820.079" stroke="black" stroke-miterlimit="10"/>
<path d="M995.77 867.679C1005.37 857.039 1020.74 853.669 1035.07 853.569C1049.4 853.479 1063.74 856.059 1078.02 854.769C1092.3 853.479 1107.31 847.299 1113.98 834.619" stroke="black" stroke-miterlimit="10"/>
<path d="M1012 873.73C1022.46 867.94 1035.02 867.42 1046.93 868.45C1058.84 869.48 1070.69 871.9 1082.63 871.45C1094.58 871 1107.09 867.19 1114.74 858.01" stroke="black" stroke-miterlimit="10"/>
<path d="M1055.85 751.92L1107 763.7L1106.08 771.86L1054.78 760.68L1055.85 751.92Z" fill="#151614"/>
<path d="M1054.26 763.961L1106.37 776.031L1105.45 784.181L1053.19 772.721L1054.26 763.961Z" fill="white"/>
<path d="M1422.35 258.729C1438.45 283.279 1455.29 272.68 1472.11 310.77C1484 337.69 1503.41 377.499 1499.65 406.689C1495.05 442.339 1472.61 467.78 1446.92 481.42C1373.93 520.19 1230.01 478.14 1182.32 461.29C1180.84 460.77 1181.01 458.629 1182.55 458.339C1187.1 544.309 1157.57 640.989 1139.82 725.229C1107.19 728.609 1090.55 724.78 1058.5 717.79C1057.87 718.3 1058.55 719.559 1059.32 719.319C1062.9 670.289 1064.46 620.689 1061.99 571.589C1058.99 512.069 1036.57 456.82 1052.48 415.66C1068.39 374.5 1076.38 366.81 1118.35 353.18C1148.81 343.29 1225.33 345.84 1257.28 348.16C1289.22 350.49 1322.98 351.069 1351.29 336.099C1380.16 320.829 1383.2 285.669 1405.95 262.239C1408.19 259.929 1410.47 257.539 1413.36 256.119C1416.4 254.629 1420.5 255.899 1422.35 258.729Z" fill="#1B0042"/>
<path d="M837.95 813.421C852.84 796.951 873.96 786.24 896.05 783.98" stroke="black" stroke-miterlimit="10" stroke-linecap="round" stroke-linejoin="round"/>
<path d="M847.81 787.561C861.3 777.091 878.27 771.17 895.35 770.98" stroke="black" stroke-miterlimit="10" stroke-linecap="round" stroke-linejoin="round"/>
<path d="M1280.8 749.86C1281.83 752.57 1344.65 854.65 1344.65 854.65L1392.44 836.37L1326.31 728.32L1279.42 746.25" fill="#FFC9E6"/>
<path d="M1302.64 786.14L1348.81 765.09L1392.44 836.37L1343.4 854.09L1302.64 786.14Z" fill="#FCA1BB"/>
<path d="M1331.4 824.211C1322.39 821.801 1318.23 810.501 1309.46 807.371C1300.51 804.181 1288.86 806.371 1284.34 814.731C1280.68 821.511 1282.81 830.251 1287.54 836.331C1292.27 842.411 1299.15 846.381 1305.9 850.101C1290.98 871.061 1272.69 889.171 1251.52 903.791C1241.72 910.561 1231.34 916.571 1222.41 924.441C1213.48 932.311 1205.94 942.461 1203.92 954.201C1202.39 963.091 1203.01 974.741 1207.94 982.361C1210.44 986.231 1215.25 987.911 1219.67 986.631C1291.45 965.831 1333.87 946.641 1431.77 895.981C1436.48 893.541 1438.74 888.081 1437.17 883.011C1427.9 853.081 1406.19 822.541 1381.82 804.871C1378.12 802.191 1372.83 803.601 1371.02 807.801C1366.91 817.381 1356.5 830.921 1331.4 824.211Z" fill="white" stroke="black" stroke-miterlimit="10"/>
<path d="M1204.45 966.361C1204.45 966.361 1375.54 907.231 1430.39 866.051Z" fill="white"/>
<path d="M1204.45 966.361C1204.45 966.361 1375.54 907.231 1430.39 866.051" stroke="black" stroke-miterlimit="10"/>
<path d="M1260.03 898.66C1273.13 901.88 1287.18 896.68 1297.6 888.11C1308.02 879.54 1315.43 867.93 1322.42 856.39C1316.27 854.09 1310.13 851.79 1303.98 849.49" stroke="black" stroke-miterlimit="10"/>
<path d="M1277.79 883.432C1284.9 886.382 1290.43 889.352 1298.06 888.332" stroke="black" stroke-miterlimit="10"/>
<path d="M1291.57 867.031C1298.4 869.901 1305.69 871.661 1313.08 872.221" stroke="black" stroke-miterlimit="10"/>
<path d="M1329.93 917.451C1330.93 903.621 1340.66 891.911 1351.54 883.321C1362.43 874.731 1374.9 868.171 1385.04 858.711C1395.18 849.251 1402.96 835.601 1400.51 821.951" stroke="black" stroke-miterlimit="10"/>
<path d="M1345.91 912.41C1350.45 901.77 1359.73 893.91 1369.43 887.61C1379.13 881.31 1389.61 876.12 1398.46 868.68C1407.31 861.24 1414.6 850.89 1414.98 839.34" stroke="black" stroke-miterlimit="10"/>
<path d="M1306.98 793.381L1353.02 771.961L1357.17 778.741L1311.37 800.701L1306.98 793.381Z" fill="#151614"/>
<path d="M1312.92 803.51L1359.87 781.75L1364.01 788.52L1317.31 810.83L1312.92 803.51Z" fill="white"/>
<path d="M1298.03 247.37C1322.59 255.75 1325.41 249.52 1357.84 266.95C1380.76 279.27 1415.92 296.49 1429.15 318.9C1445.31 346.26 1443.47 376.2 1432.97 399.67C1403.12 466.36 1295.89 508.21 1253.48 522.36C1252.17 522.8 1235.12 528.21 1236.04 527.17L1260.04 520.17C1309.91 577.66 1333.83 661.14 1367.21 729.53C1346.29 749.61 1316.6 762.98 1290.45 775.51C1290.29 776.21 1291.44 776.72 1291.85 776.13C1267.71 739.99 1243.18 703.44 1219.04 667.3C1197.37 634.86 1175.41 601.81 1164.15 564.46C1152.89 527.11 1145.74 494.92 1167.61 462.62C1183.49 439.17 1204.76 425.46 1228.31 409.73C1251.86 394 1275.71 376.07 1287.33 350.25C1299.18 323.92 1285.37 287.43 1288.51 258.73C1288.82 255.9 1289.11 252.99 1290.36 250.44C1291.65 247.75 1295.2 246.41 1298.03 247.37Z" fill="#1B0042"/>
<path d="M1177.23 969.84C1178.8 948.41 1188.56 927.69 1204.08 912.83" stroke="black" stroke-miterlimit="10" stroke-linecap="round" stroke-linejoin="round"/>
<path d="M1169.38 944.25C1173.45 928.24 1182.89 913.63 1195.81 903.34" stroke="black" stroke-miterlimit="10" stroke-linecap="round" stroke-linejoin="round"/>
<path d="M973.5 273.67C966.18 274.76 958.49 273.13 952.24 269.17C950.32 267.95 948.32 265.95 948.89 263.75C949.49 261.45 952.36 260.77 954.72 260.5C962.74 259.59 970.75 258.67 978.77 257.76C984.97 257.05 991.23 256.35 997.44 256.94C1003.65 257.53 1009.9 259.55 1014.58 263.69" fill="#FFC9E6"/>
<path d="M951.02 302.9C952.41 300.13 982.909 210 982.909 210" stroke="black" stroke-width="4" stroke-miterlimit="10" stroke-linecap="round" stroke-linejoin="round"/>
<path d="M1018.94 299.611C1025.2 295.281 1034.35 293.161 1040.46 298.051C1054.33 309.141 1063.73 316.681 1073.61 322.921C1083.49 329.161 1097.31 329.941 1106.53 320.821C1112.27 315.131 1112.98 306.301 1111.22 298.411C1109.46 290.521 1103.85 283.591 1096.5 280.221C1090.26 277.361 1083.21 277.051 1076.54 275.461C1062.19 272.041 1050.05 262.831 1037.66 254.821C1026.71 247.741 1019.98 244.671 1007.14 242.761C998.89 241.531 987.16 245.151 981.32 251.111C975.77 256.771 971.34 260.931 966.98 267.541C962.66 274.101 952.61 281.991 945.61 285.551C942.32 287.231 937.9 289.661 939.16 293.261C939.88 295.331 942.08 296.511 944.27 296.281C956.57 294.991 968.18 288.391 975.67 278.571C974.64 281.101 973.42 284.571 975.07 286.751C976.72 288.931 979.56 290.141 982.27 289.841C981.37 293.491 983.01 297.181 986.3 299.021C996.52 304.761 1009.29 306.281 1018.94 299.611Z" fill="#FFC9E6"/>
<path d="M975.26 279.919C979.4 274.789 984.93 265.509 989.07 260.379C990.88 258.139 992.73 255.859 995.17 254.309C997.6 252.759 1000.75 252.059 1003.4 253.209" stroke="black" stroke-miterlimit="10" stroke-linecap="round" stroke-linejoin="round"/>
<path d="M982.37 289.34C986.92 283.43 993.76 268.51 999.88 264.25C1002.53 262.4 1006.48 259.92 1009.87 261.31" stroke="black" stroke-miterlimit="10" stroke-linecap="round" stroke-linejoin="round"/>
<path d="M1010.02 303.109C1014.8 302.899 1022 299.029 1023.23 296.109C1024.46 293.189 1023.85 289.249 1021.09 287.679C1019.42 286.729 1017.37 286.829 1015.45 286.959C1009.39 287.369 1002.59 288.129 998.78 292.859" stroke="black" stroke-miterlimit="10" stroke-linecap="round" stroke-linejoin="round"/>
<path d="M963.26 271.73C967.14 266.54 978.75 248.82 988.66 246.26" stroke="black" stroke-miterlimit="10" stroke-linecap="round" stroke-linejoin="round"/>
<path d="M1022.97 296.77C1026.54 296.49 1030.11 296.21 1033.68 295.92C1035.85 295.75 1038.12 295.55 1039.96 294.38C1041.63 293.32 1042.76 291.57 1043.43 289.72C1044.1 287.86 1044.35 285.89 1044.6 283.93" stroke="black" stroke-miterlimit="10" stroke-linecap="round" stroke-linejoin="round"/>
<path d="M1057.78 104.76C1048.94 96.0502 1041.83 77.5902 1044.12 65.1602C1044.79 61.5002 1048.31 59.4302 1050.55 62.4002C1052 64.3202 1053.19 66.5802 1054.31 68.6402C1058.33 76.0602 1063.68 82.7602 1070.05 88.3002C1073.89 91.6502 1078.09 94.5802 1081.72 98.1602C1085.34 101.74 1092.59 111.67 1093.45 116.69" fill="#FFC9E6"/>
<path d="M1292.06 81.4895C1292.06 81.4895 1276.35 89.8495 1272.55 112.9C1268.94 134.77 1280.16 180.43 1291.33 175.78C1302.5 171.13 1323 155.66 1323 155.66L1331.14 185.66L1363.89 173.959C1363.89 173.959 1352.57 135.809 1352.75 112.239C1352.75 111.749 1352.75 111.26 1352.74 110.78C1352.14 88.8095 1332.19 72.6095 1310.39 75.3395C1304.23 76.0995 1297.73 77.8795 1292.06 81.4895Z" fill="#FFC9E6"/>
<path d="M1281.36 108.721C1293.23 113.631 1306.08 114.911 1317.53 115.331C1319.19 115.391 1320.78 115.611 1321.16 114.001C1322.02 110.391 1325.27 106.341 1328.19 105.051C1331.91 103.411 1336.33 102.931 1339.44 105.551C1343.36 108.851 1343.58 114.711 1342.52 119.671C1342.29 120.731 1343.21 121.551 1342.61 122.461L1341.22 122.641C1339.46 125.251 1336.42 126.271 1338.93 128.161C1342.71 131.021 1351.64 136.111 1356.03 138.331C1356.76 127.821 1355.6 116.421 1353.57 106.081C1351.54 95.7407 1346.39 85.5807 1337.61 79.7507C1329.79 74.5607 1319.79 73.3207 1310.55 74.9507C1301.31 76.5807 1292.72 80.8707 1284.86 86.0007C1279.29 89.6307 1274.04 95.2807 1270.88 101.121C1268.25 105.991 1267.83 113.281 1271.54 119.731C1271.54 119.741 1275.49 117.951 1281.36 108.721Z" fill="#1B0042"/>
<path d="M1321.49 115.631C1321.71 110.671 1324.77 105.791 1329.39 103.981C1334.01 102.171 1339.93 103.961 1342.31 108.311C1343.92 111.251 1343.84 114.831 1343.14 118.111C1342.52 121.031 1341.39 123.951 1339.27 126.051C1337.14 128.151 1333.87 129.261 1331.07 128.231" stroke="black" stroke-miterlimit="10" stroke-linecap="round" stroke-linejoin="round"/>
<path d="M1322.7 155.66L1337.09 146.75C1337.09 146.75 1339.59 160.89 1327.1 170.8L1322.7 155.66Z" fill="#1B0042"/>
<path d="M1302.55 123.39C1300.11 123.49 1297.65 123.8 1295.49 124.91C1293.54 125.9 1291.89 127.69 1291.34 129.76C1291.11 130.64 1291.82 131.47 1292.73 131.42C1296.61 131.19 1300.19 130.24 1303.1 127.56C1303.66 127.05 1304.2 126.48 1304.42 125.76C1304.81 124.55 1303.81 123.34 1302.55 123.39Z" stroke="black" stroke-miterlimit="10" stroke-linecap="round" stroke-linejoin="round"/>
<path d="M1273.05 132.839C1274.59 131.589 1276.26 130.479 1278.17 129.979C1279.98 129.509 1282.05 129.709 1283.57 130.729C1284.19 131.149 1284.21 132.049 1283.63 132.519C1281.03 134.589 1278.22 136.009 1274.85 135.959C1274.39 135.949 1273.91 135.919 1273.48 135.779C1272.22 135.379 1272.03 133.659 1273.05 132.839Z" stroke="black" stroke-miterlimit="10" stroke-linecap="round" stroke-linejoin="round"/>
<path d="M1284.22 128.01C1284.46 132.89 1284.27 138.01 1283.29 143.85C1283.14 144.74 1283.03 145.79 1283.7 146.39C1284.33 146.95 1285.29 146.79 1286.11 146.59C1288.74 145.97 1291.37 145.34 1294 144.72" stroke="black" stroke-miterlimit="10" stroke-linecap="round" stroke-linejoin="round"/>
<path d="M1295.15 127.75C1295.87 128.47 1295.89 129.77 1295.2 130.51C1294.51 131.26 1293.21 131.33 1292.44 130.66C1290.38 128.89 1293.22 125.83 1295.15 127.75Z" fill="black"/>
<path d="M1275.66 132.991C1276.3 133.631 1276.32 134.791 1275.71 135.461C1275.1 136.131 1273.93 136.191 1273.25 135.591C1271.41 134.011 1273.94 131.281 1275.66 132.991Z" fill="black"/>
<path d="M1287.35 121.781C1287.5 120.421 1288.72 119.451 1289.91 118.781C1292.96 117.041 1296.48 116.151 1299.99 116.221" stroke="black" stroke-miterlimit="10" stroke-linecap="round" stroke-linejoin="round"/>
<path d="M1268.96 125.391C1270.98 122.901 1274.41 121.661 1277.55 122.261" stroke="black" stroke-miterlimit="10" stroke-linecap="round" stroke-linejoin="round"/>
<path d="M1294.76 152.531C1291.27 150.301 1286.06 151.461 1283.86 154.971C1287.21 154.041 1291.41 153.451 1294.76 152.531Z" stroke="black" stroke-miterlimit="10" stroke-linecap="round" stroke-linejoin="round"/>
<path d="M1283.93 155.361C1285.25 157.111 1287.7 157.931 1289.81 157.331C1291.92 156.731 1294.95 154.561 1295.15 152.371" fill="black"/>
<path d="M1296.9 139.841C1301.93 139.841 1306.01 135.762 1306.01 130.731C1306.01 125.7 1301.93 121.621 1296.9 121.621C1291.87 121.621 1287.79 125.7 1287.79 130.731C1287.79 135.762 1291.87 139.841 1296.9 139.841Z" stroke="black" stroke-miterlimit="10" stroke-linecap="round" stroke-linejoin="round"/>
<path d="M1275.03 145.47C1280.06 145.47 1284.14 141.391 1284.14 136.36C1284.14 131.329 1280.06 127.25 1275.03 127.25C1270 127.25 1265.92 131.329 1265.92 136.36C1265.92 141.391 1270 145.47 1275.03 145.47Z" stroke="black" stroke-miterlimit="10" stroke-linecap="round" stroke-linejoin="round"/>
<path d="M1304.43 125.75L1320.12 114.24" stroke="black" stroke-miterlimit="10" stroke-linecap="round" stroke-linejoin="round"/>
<path d="M1330.13 123.65C1325.32 123.05 1320.71 127.85 1320.81 133.35C1320.91 138.85 1325.69 143.8 1330.48 143.36C1335.27 142.92 1338.98 137.18 1337.98 131.77" stroke="black" stroke-miterlimit="10" stroke-linecap="round" stroke-linejoin="round"/>
<path d="M1328.17 120.141C1328.6 115.421 1331.82 111.071 1336.21 109.281" stroke="black" stroke-miterlimit="10" stroke-linecap="round" stroke-linejoin="round"/>
<path d="M1329.73 113.49C1331.45 116.39 1333.18 119.3 1334.9 122.2" stroke="black" stroke-miterlimit="10" stroke-linecap="round" stroke-linejoin="round"/>
<path d="M1424.08 130.397C1425.86 114.17 1411.12 99.2376 1391.14 97.0456C1371.17 94.8535 1353.54 106.232 1351.76 122.459C1349.98 138.687 1364.72 153.619 1384.69 155.811C1404.67 158.003 1422.3 146.625 1424.08 130.397Z" fill="#1B0042"/>
<path d="M1206.53 50.5605C1208.46 50.5605 1208.46 47.5605 1206.53 47.5605C1204.6 47.5605 1204.59 50.5605 1206.53 50.5605Z" fill="white"/>
<path d="M1300.63 198.251C1287.55 215.971 1281.6 237.761 1273.48 258.231C1265.36 278.701 1253.69 299.421 1234.07 309.421C1211.23 263.251 1188.4 217.081 1165.56 170.921C1159.92 159.511 1153.73 147.501 1142.86 140.891C1122.25 128.371 1119.48 140.581 1099.16 153.571C1085.36 162.391 1071.06 172.531 1065.07 187.771C1058.26 205.081 1063.84 224.671 1071.07 241.811C1089.62 285.771 1120.24 326.071 1162.45 348.321C1204.66 370.571 1235.67 372.051 1275.06 345.111C1315.16 317.681 1332.74 268.211 1347.89 222.051C1352.3 208.631 1364.96 178.631 1347.67 172.481C1331.75 166.811 1308.85 187.121 1300.63 198.251Z" fill="#5C04A0"/>
<path opacity="0.15" d="M1071.15 178.08C1067.46 185.64 1070.03 194.64 1072.93 202.53C1081.12 224.77 1091.65 246.15 1104.31 266.19" stroke="white" stroke-width="2" stroke-miterlimit="10"/>
<path opacity="0.15" d="M1084.88 184.941C1085.67 196.541 1092.15 206.871 1098.44 216.641C1109.58 233.941 1120.71 251.231 1131.85 268.531" stroke="white" stroke-width="2" stroke-miterlimit="10"/>
<path opacity="0.15" d="M1111.63 189.342C1128.96 218.242 1144.91 247.972 1159.4 278.402" stroke="white" stroke-width="2" stroke-miterlimit="10"/>
<path opacity="0.15" d="M1116.07 170.852C1130.2 176.702 1138.79 190.842 1146.42 204.102C1160.66 228.862 1174.89 253.622 1189.13 278.382" stroke="white" stroke-width="2" stroke-miterlimit="10"/>
<path opacity="0.15" d="M1107.83 156.941C1114.3 152.291 1123.39 152.751 1130.58 156.161C1137.77 159.571 1143.43 165.501 1148.64 171.511C1173.47 200.111 1192.22 233.381 1210.79 266.401" stroke="white" stroke-width="2" stroke-miterlimit="10"/>
<path d="M1356.59 176.71C1358.06 176.88 1359.55 176.82 1360.99 176.47C1379.17 172.09 1397.84 185.88 1407.61 202.18C1417.73 219.06 1422.03 238.92 1432.2 255.76C1450.42 285.93 1485.56 303.4 1500.02 336.19C1501.98 340.64 1502.74 345.6 1501.76 350.37C1498.05 368.54 1475.15 368.62 1459.88 361.86C1445.84 355.64 1431.64 345.78 1416.6 348.9C1403.82 351.55 1395.06 362.87 1384.88 371.03C1363.5 388.16 1336.48 387.21 1327.34 377.89C1319.65 370.04 1321.98 354.3 1325.73 343.98C1329.48 333.66 1334.14 322.15 1329.58 312.15C1325.27 302.69 1314.44 298.48 1306.25 292.07C1286.04 276.25 1282.7 244.94 1294.29 222.04C1305.44 200 1327.51 185.24 1350.97 177.27C1352.78 176.66 1354.7 176.49 1356.59 176.71Z" fill="#5C04A0"/>
<path opacity="0.15" d="M1308.66 232.57C1302.15 248.36 1311.39 266.09 1321.83 279.61C1332.27 293.13 1344.82 306.88 1345.81 323.94C1346.45 334.9 1342.11 345.46 1340.2 356.27C1338.29 367.08 1339.66 379.93 1348.61 386.29" stroke="white" stroke-width="2" stroke-miterlimit="10"/>
<path opacity="0.15" d="M1366.2 382.651C1356.9 362.201 1368.88 337.991 1364.43 315.971C1359.22 290.161 1332.3 271.121 1332.5 244.791" stroke="white" stroke-width="2" stroke-miterlimit="10"/>
<path opacity="0.15" d="M1342.66 224.689C1366.05 268.659 1383.19 315.949 1393.4 364.699" stroke="white" stroke-width="2" stroke-miterlimit="10"/>
<path opacity="0.15" d="M1361.44 214.24C1382.92 227.94 1393.36 253.55 1400.04 278.14C1406.72 302.73 1411.27 328.71 1425.78 349.65" stroke="white" stroke-width="2" stroke-miterlimit="10"/>
<path opacity="0.15" d="M1374.32 194.801C1395.55 206.061 1407.38 229.231 1415.99 251.661C1424.6 274.091 1431.77 298.021 1448.1 315.651C1455.03 323.131 1463.43 329.241 1469.76 337.241C1476.09 345.241 1480.19 356.111 1476.66 365.681" stroke="white" stroke-width="2" stroke-miterlimit="10"/>
<path d="M1285.49 205.37C1267.75 227.01 1251.32 252.09 1225.31 262.42C1200.11 272.44 1171.59 266.2 1145.69 258.18C1126.84 252.35 1106.24 245.66 1087.96 253.08C1072.33 259.43 1061.96 275.47 1059.44 292.15C1055.38 319.05 1070.22 346.63 1092.53 362.21C1114.84 377.79 1143.32 382.59 1170.44 380.36C1197.56 378.14 1234.03 375.42 1259.54 365.97C1296.04 352.45 1325.51 327.25 1337.82 290.33C1343.1 274.51 1342.61 256.87 1350.15 241.99C1355.62 231.2 1364.85 222.85 1371.91 213.03C1386.57 192.64 1381.09 163.44 1352.12 162.95C1326.59 162.55 1300.26 187.35 1285.49 205.37Z" fill="#5C04A0"/>
<path opacity="0.15" d="M1066.87 331.931C1095.24 352.311 1129.5 364.381 1164.37 366.301C1199.24 368.221 1234.62 359.971 1265.05 342.831C1292.08 327.601 1321.78 305.871 1344.15 284.381" stroke="white" stroke-width="2" stroke-miterlimit="10"/>
<path opacity="0.15" d="M1059.97 312.12C1120.33 349.92 1201.83 350.93 1263.1 314.62C1291.14 298.01 1314.89 274.46 1344.24 260.27" stroke="white" stroke-width="2" stroke-miterlimit="10"/>
<path opacity="0.15" d="M1062.35 291.38C1122.77 317.62 1194.86 315.41 1253.56 285.52C1291.65 266.12 1324.42 235.78 1365.33 223.4" stroke="white" stroke-width="2" stroke-miterlimit="10"/>
<path opacity="0.15" d="M1069.92 267.55C1132.29 288.86 1204.23 279.94 1259.51 244.04C1284.15 228.04 1306.52 206.62 1335.11 199.83C1349.49 196.42 1364.81 197.05 1378.86 201.63" stroke="white" stroke-width="2" stroke-miterlimit="10"/>
<path opacity="0.15" d="M1286.54 203.27C1305.04 190.86 1325.35 181.16 1346.63 174.57C1357.3 171.26 1370.01 169.09 1378.74 176.07" stroke="white" stroke-width="2" stroke-miterlimit="10"/>
<path d="M1216.8 264.709C1216.8 264.709 1170.97 275.519 1114.74 250.399C1084.83 237.039 1061.93 276.959 1061.93 276.959" stroke="white" stroke-width="2" stroke-miterlimit="10" stroke-linecap="round" stroke-linejoin="round"/>
<path d="M1376.83 173.471C1383.02 184.461 1379.6 202.651 1373.37 213.621C1367.14 224.591 1358.35 234.041 1353.05 245.491C1342.75 267.751 1345.88 296.701 1328.28 313.781" stroke="white" stroke-width="2" stroke-miterlimit="10" stroke-linecap="round" stroke-linejoin="round"/>
<path d="M1102.83 133.421C1098.46 119.361 1091.35 105.151 1078.67 97.6706C1069.78 92.4306 1059.16 91.0906 1048.85 90.6206C1039.53 90.1906 1030.19 90.3806 1020.89 91.1806C1014.83 91.7006 1008.19 92.7905 1004.26 97.4405C1000.33 102.091 1002.03 111.211 1008.09 111.771C1001.39 113.091 999.4 123.821 1005.17 127.461C1000.75 132.251 999.79 139.371 1014.39 144.551C1021 146.891 1028.3 143.101 1035.31 142.821C1054.22 142.051 1072.97 154.291 1079.86 171.921C1082.39 178.391 1083.64 185.751 1088.54 190.671C1099.11 201.291 1117.9 192.321 1116.73 177.421C1116.28 171.671 1112.04 165.921 1110.28 160.441C1107.42 151.551 1105.6 142.351 1102.83 133.421Z" fill="#FFC9E6"/>
<path d="M1062.64 109.54C1062.64 109.54 1075.45 90.9098 1089.41 96.7298C1103.38 102.55 1099.89 129.32 1089.41 136.31C1078.93 143.3 1062.64 133.98 1062.64 133.98" stroke="black" stroke-width="3" stroke-miterlimit="10"/>
<path d="M1171.17 584.151C1171.17 584.151 1187 511.051 1182 469.051L1345 497.051" stroke="white" stroke-width="2" stroke-miterlimit="10" stroke-linecap="round" stroke-linejoin="round"/>
<path d="M764 181.061L813.59 314.171C818.05 326.131 829.46 334.061 842.23 334.061H967" stroke="black" stroke-width="10" stroke-miterlimit="10" stroke-linecap="round"/>
<path d="M663.56 405.061H26.44C12.39 405.061 1 393.671 1 379.621V26.4907C1 12.4407 12.39 1.05078 26.44 1.05078H663.57C677.62 1.05078 689.01 12.4407 689.01 26.4907V379.621C689 393.671 677.61 405.061 663.56 405.061Z" fill="white" stroke="black" stroke-width="2" stroke-miterlimit="10"/>
<path d="M148.36 156.69C149.92 158.09 151.49 158.84 153.06 158.93V161.76C147.4 161.48 140.24 161.35 131.58 161.35C121.91 161.35 114.75 161.49 110.1 161.76V158.93C113.64 158.79 116.19 158.35 117.73 157.62C119.27 156.88 120.04 155.59 120.04 153.75C120.04 152.32 119.46 150.09 118.31 147.05L109.82 123.85H79.0203L75.2904 133.59C72.7104 140.22 71.4203 145.47 71.4203 149.33C71.4203 152.83 72.4603 155.27 74.5303 156.65C76.6003 158.03 79.7303 158.79 83.9203 158.93V161.76C77.5703 161.48 71.7203 161.35 66.3803 161.35C62.0503 161.35 58.4604 161.49 55.6104 161.76V158.93C60.3104 158.15 64.3604 153.2 67.7604 144.08L100.01 61.3496C101.53 61.4896 103.16 61.5597 104.91 61.5597C106.75 61.5597 108.39 61.4896 109.81 61.3496L144.13 149.88C145.39 153.02 146.79 155.29 148.36 156.69ZM94.7703 82.8396L80.1303 121.03H108.79L94.7703 82.8396Z" fill="black"/>
<path d="M191.76 92.8492C189.9 90.5992 186.98 89.4692 183.02 89.4692C181.18 89.4692 179.34 89.7592 177.5 90.3292C175.66 90.9092 174.14 91.7693 172.94 92.9193C175.56 93.7993 177.61 95.1593 179.09 97.0293C180.56 98.8893 181.3 101.229 181.3 104.039C181.3 105.969 180.83 107.709 179.88 109.249C178.94 110.789 177.59 112.009 175.84 112.909C174.09 113.809 172.09 114.259 169.83 114.259C166.79 114.259 164.36 113.219 162.55 111.149C160.73 109.079 159.82 106.479 159.82 103.349C159.82 98.4692 162.44 94.5092 167.69 91.4692C173.44 88.2892 180.63 86.6992 189.23 86.6992C198.9 86.6992 205.78 88.8193 209.88 93.0493C211.86 95.0293 213.19 97.4892 213.88 100.439C214.57 103.389 214.92 107.509 214.92 112.799V151.259C214.92 153.559 215.14 155.189 215.58 156.129C216.02 157.069 216.79 157.549 217.89 157.549C219.41 157.549 221.16 156.749 223.14 155.129L224.59 157.549C222.43 159.349 220.08 160.659 217.55 161.489C215.02 162.319 211.98 162.729 208.43 162.729C203.64 162.729 200.19 161.669 198.07 159.549C195.95 157.429 194.89 154.669 194.89 151.259C192.59 155.079 189.57 157.949 185.84 159.859C182.11 161.769 178.13 162.729 173.89 162.729C168.5 162.729 164.19 161.309 160.94 158.479C157.69 155.649 156.07 151.699 156.07 146.639C156.07 141.709 157.68 137.639 160.9 134.419C164.12 131.199 169.12 128.339 175.88 125.859C176.62 125.579 179.01 124.679 183.06 123.129C187.11 121.589 190.03 120.009 191.83 118.399C193.63 116.789 194.52 115.019 194.52 113.079V102.099C194.55 98.1892 193.62 95.1092 191.76 92.8492ZM191.62 122.029C190.26 123.109 188.32 124.439 185.78 125.999C182.79 128.069 180.44 130.409 178.74 133.009C177.04 135.609 176.18 138.849 176.18 142.709C176.18 146.389 176.98 149.139 178.6 150.959C180.21 152.779 182.33 153.689 184.95 153.689C188.68 153.689 191.88 151.759 194.55 147.889V118.889C193.96 119.899 192.98 120.939 191.62 122.029Z" fill="black"/>
<path d="M56 210.061H616" stroke="black" stroke-width="2" stroke-miterlimit="10" stroke-linecap="round" stroke-linejoin="round"/>
<path d="M56 297.061H616" stroke="black" stroke-width="2" stroke-miterlimit="10" stroke-linecap="round" stroke-linejoin="round"/>
<path d="M56 343.061H476" stroke="black" stroke-width="2" stroke-miterlimit="10" stroke-linecap="round" stroke-linejoin="round"/>
<path d="M56 253.061H345" stroke="black" stroke-width="2" stroke-miterlimit="10" stroke-linecap="round" stroke-linejoin="round"/>
<path d="M1033.61 159.78C1023.41 159.78 1015.11 151.48 1015.11 141.28V90.4996C1015.11 90.0496 1015.48 89.6797 1015.93 89.6797H1066.36C1066.81 89.6797 1067.18 90.0496 1067.18 90.4996V141.28C1067.18 151.48 1058.88 159.78 1048.68 159.78H1033.61Z" fill="white"/>
<path d="M1066.18 90.6797V141.28C1066.18 150.93 1058.33 158.78 1048.68 158.78H1033.6C1023.95 158.78 1016.1 150.93 1016.1 141.28V90.6797H1066.18ZM1066.36 88.6797H1015.93C1014.92 88.6797 1014.11 89.4996 1014.11 90.4996V141.28C1014.11 152.05 1022.84 160.78 1033.61 160.78H1048.69C1059.46 160.78 1068.19 152.05 1068.19 141.28V90.4996C1068.18 89.4896 1067.37 88.6797 1066.36 88.6797Z" fill="black"/>
<path d="M1012.91 128.65C1020.8 130.77 1028.91 132.07 1037.07 132.53C1041.49 132.77 1047.01 132.08 1048.56 127.93C1049.62 125.11 1048.12 121.819 1045.77 119.939C1043.42 118.059 1040.38 117.27 1037.44 116.64C1028.81 114.79 1020 113.82 1011.18 113.75C1020.18 114.37 1028.86 113.849 1037.88 113.599C1040.62 113.529 1043.43 113.399 1045.95 112.319C1048.47 111.239 1050.67 109 1050.92 106.28C1051.18 103.48 1049.32 100.819 1046.94 99.3295C1044.56 97.8395 1041.72 97.2896 1038.95 96.8096C1030.32 95.3196 1021.61 94.2795 1012.88 93.6895C1012.08 94.2795 1011.83 95.4995 1012.33 96.3595" fill="#FFC9E6"/>
<path d="M1007.13 111.869C1012.39 112.559 1023.41 113.639 1028.67 114.329" stroke="black" stroke-miterlimit="10" stroke-linecap="round" stroke-linejoin="round"/>
<path d="M1012.93 144.32C1020.77 147.22 1032.46 147.48 1040.81 147.81C1043.06 147.9 1045.76 147.65 1046.85 145.67C1048.37 142.92 1045.38 139.88 1042.66 138.33C1033.22 132.93 1022.44 131.67 1011.51 128.4" fill="#FFC9E6"/>
<path d="M1004.67 127.311C1008.29 127.931 1020.88 130.35 1024.51 130.97Z" fill="white"/>
<path d="M1004.67 127.311C1008.29 127.931 1020.88 130.35 1024.51 130.97" stroke="black" stroke-miterlimit="10" stroke-linecap="round" stroke-linejoin="round"/>
<path d="M1035.14 130.749C1035.23 127.339 1035.33 123.929 1035.42 120.519C1037.27 120.439 1039.71 120.369 1041.5 120.869C1043.29 121.369 1044.99 122.549 1045.62 124.299C1046.53 126.799 1044.9 129.689 1042.57 130.959C1040.24 132.239 1037.79 131.079 1035.14 130.749Z" stroke="black" stroke-miterlimit="10" stroke-linecap="round" stroke-linejoin="round"/>
<path d="M1038.14 110.749C1038.23 107.339 1038.33 103.929 1038.42 100.519C1040.27 100.439 1042.71 100.369 1044.5 100.869C1046.29 101.369 1047.99 102.549 1048.62 104.299C1049.53 106.799 1047.9 109.689 1045.57 110.959C1043.24 112.239 1040.79 111.079 1038.14 110.749Z" stroke="black" stroke-miterlimit="10" stroke-linecap="round" stroke-linejoin="round"/>
<path d="M1032.92 147.051C1032.86 144.691 1032.8 142.331 1032.75 139.971C1035.21 140.191 1037.73 140.431 1039.95 141.521C1042.16 142.611 1044.03 144.771 1044.04 147.241C1040.47 147.331 1036.9 147.421 1033.32 147.511" stroke="black" stroke-miterlimit="10" stroke-linecap="round" stroke-linejoin="round"/>
<path d="M1050.08 62.9199C1048.76 65.2299 1048.76 68.2399 1050.09 70.5399C1051.42 72.8499 1054.02 74.3599 1056.68 74.3799C1054.68 70.8299 1052.69 67.2698 1050.69 63.7198" stroke="black" stroke-miterlimit="10" stroke-linecap="round" stroke-linejoin="round"/>
<path d="M1009.44 303.17C1009.09 301.28 1009.95 299.38 1011.6 298.4C1012.17 298.06 1012.73 297.67 1013.28 297.3C1014.68 296.36 1016.25 295.44 1017.94 295.55C1019.63 295.66 1021.3 297.27 1020.83 298.89" stroke="black" stroke-miterlimit="10" stroke-linecap="round" stroke-linejoin="round"/>
<path d="M951.09 262.48C952.27 264.51 954.73 264.71 957.05 264.4C959.38 264.09 961.44 262.3 962.05 260.03C958.29 259.88 954.49 260.66 951.09 262.27" stroke="black" stroke-miterlimit="10" stroke-linecap="round" stroke-linejoin="round"/>
<path d="M943.09 292.291C944.41 292.471 945.74 292.051 946.97 291.531C949.21 290.601 951.31 289.331 953.18 287.791C951.94 286.541 950.56 285.43 949.08 284.48C949.1 284.49 946.4 286.23 946.13 286.36C945.02 286.91 943.88 287.39 942.8 287.99C942.16 288.35 940.21 289.331 940.19 290.171C940.16 291.251 942.26 292.181 943.09 292.291Z" stroke="black" stroke-miterlimit="10" stroke-linecap="round" stroke-linejoin="round"/>
</svg>
