<svg width="452" height="931" viewBox="0 0 452 931" fill="none" xmlns="http://www.w3.org/2000/svg">
<path d="M51.9917 91.7953C69.5203 89.8714 82.0788 73.2652 80.0416 54.7045C78.0044 36.1438 62.143 22.657 44.6143 24.5809C27.0857 26.5048 14.5275 43.1109 16.5647 61.6717C18.6019 80.2324 34.463 93.7192 51.9917 91.7953Z" fill="#1B0042"/>
<path d="M122.05 120.09C126.54 111.89 137.25 108.72 146.43 110.46C155.61 112.2 163.54 117.83 170.79 123.73C186.08 136.17 199.85 150.43 215.51 162.4C231.17 174.37 249.32 184.15 268.98 185.67C275.62 159.23 282.26 132.79 288.9 106.34C291.09 97.6102 293.46 88.5301 299.31 81.6901C310.64 68.4301 330.59 67.9001 348.03 68.4101C361.64 68.8101 375.51 69.2601 388.37 73.7401C401.23 78.2201 413.18 87.4303 417.47 100.36C421.56 112.68 418.16 126.31 412.61 138.04C407.05 149.77 402.83 161.6 397.74 173.54C391.58 187.97 369.47 227.19 378.37 214.28C381.55 209.66 354.66 257.38 341.34 269.04C329.01 279.84 310.55 280.92 294.41 278.04C278.27 275.16 263.29 267.92 248.57 260.72C210.85 242.29 190.38 212.23 152.86 193.39" fill="#5C04A0"/>
<path opacity="0.15" d="M139.02 115.761C146.01 114.441 152.769 118.671 158.379 123.051C185.059 143.881 208.15 169.441 238.75 183.911" stroke="white" stroke-width="2" stroke-miterlimit="10"/>
<path opacity="0.15" d="M144.49 125.121C167.41 145.571 190.32 166.031 213.24 186.481C219.67 192.221 226.7 198.241 235.28 199.151" stroke="white" stroke-width="2" stroke-miterlimit="10"/>
<path opacity="0.15" d="M159.479 154.24C170.989 163.75 182.56 175.95 194.05 186.6C205.81 197.51 215.24 212.86 231.1 215.24" stroke="white" stroke-width="2" stroke-miterlimit="10"/>
<path opacity="0.15" d="M187.05 198.91C199.58 212.45 214.57 223.71 231.06 231.98" stroke="white" stroke-width="2" stroke-miterlimit="10"/>
<path d="M154.55 731.7C154.55 734.42 133.71 844.97 133.71 844.97H85.6797L107.43 728.07H154.55" fill="#FFC9E6"/>
<path d="M147.56 770.839L100.02 767.859L85.6699 844.969L134.61 844.069L147.56 770.839Z" fill="#FCA1BB"/>
<path d="M188.43 317.01C199.7 450.84 192.9 586.19 168.28 718.22C167.05 724.79 165.71 731.54 162.06 737.14C155.73 746.84 143.42 751.26 131.83 751.11C123.09 750.99 114.61 748.68 106.3 745.86C101.37 744.19 97.9098 739.71 97.6198 734.51C92.8298 646.34 131.29 558.25 122.84 470.15C117.66 416.18 95.5896 363.27 102.18 309.45C132.25 307.29 159.13 309.96 188.43 317.01Z" fill="#151614"/>
<path d="M139.23 814.11C146.32 808.98 146.18 797.67 152.82 791.99C159.6 786.19 170.54 784.2 177.31 790.02C182.79 794.74 183.86 803.12 181.74 810.03C179.63 816.95 174.93 822.74 170.26 828.26C190.37 841.64 212.47 851.38 235.93 857.1C246.79 859.75 257.91 861.53 268.37 865.45C278.84 869.36 288.85 875.73 294.56 885.34C298.88 892.62 302.23 903.02 300.48 911.35C299.59 915.59 295.94 918.69 291.63 919.05C219.89 925.03 175.84 922.14 67.0898 909.77C62.1398 875.52 73.4997 832.17 93.9497 806.53C93.9597 806.53 109.86 835.36 139.23 814.11Z" fill="white" stroke="black" stroke-miterlimit="10"/>
<path d="M298.18 896.17C298.18 896.17 128.37 901.7 66.4697 883.98Z" fill="white"/>
<path d="M298.18 896.17C298.18 896.17 128.37 901.7 66.4697 883.98" stroke="black" stroke-miterlimit="10"/>
<path d="M226.76 855.46C216.35 862.68 202.29 862.83 190.29 858.81C178.28 854.79 167.889 847.1 157.899 839.32C162.519 835.24 167.13 831.17 171.75 827.09" stroke="black" stroke-miterlimit="10"/>
<path d="M206.079 848.061C200.839 853.031 196.979 857.49 189.949 859.15" stroke="black" stroke-miterlimit="10"/>
<path d="M188.5 838.289C183.47 843.089 177.67 847.079 171.38 850.049" stroke="black" stroke-miterlimit="10"/>
<path d="M171.78 895.361C166.26 883.571 153.81 876.571 141.39 872.691C128.97 868.811 115.83 867.251 103.77 862.341C91.7098 857.431 80.3096 848.091 77.8896 835.301" stroke="black" stroke-miterlimit="10"/>
<path d="M156.07 896.31C148.53 888.51 137.749 884.73 127.139 882.46C116.529 880.19 105.6 879.15 95.3396 875.6C85.0796 872.05 75.2295 865.42 71.0195 855.41" stroke="black" stroke-miterlimit="10"/>
<path d="M146.179 778.641L98.6394 775.301L97.2695 782.631L144.79 786.521L146.179 778.641Z" fill="#151614"/>
<path d="M144.37 789.51L95.9194 786.17L94.5596 793.5L142.969 797.4L144.37 789.51Z" fill="white"/>
<path d="M89.3496 739.708C89.3496 742.428 68.5095 852.978 68.5095 852.978H20.4795L42.2295 736.078H89.3496" fill="#FFC9E6"/>
<path d="M82.3696 778.839L34.8296 775.859L20.4795 852.979L69.4194 852.069L82.3696 778.839Z" fill="#FCA1BB"/>
<path d="M123.239 325.009C134.509 458.839 127.709 594.189 103.089 726.219C101.869 732.789 100.52 739.539 96.8695 745.139C90.5395 754.839 78.2293 759.259 66.6393 759.109C57.8993 758.989 49.4195 756.679 41.1095 753.859C36.1795 752.189 32.7193 747.709 32.4293 742.509C27.6393 654.339 66.0993 566.249 57.6493 478.149C52.4693 424.179 32.6894 326.669 39.2794 272.849C69.3494 270.689 93.9394 317.969 123.239 325.009Z" fill="#151614"/>
<path d="M74.0399 822.12C81.1299 816.99 80.9897 805.68 87.6297 800C94.4097 794.2 105.35 792.21 112.12 798.03C117.6 802.75 118.67 811.13 116.55 818.04C114.44 824.96 109.74 830.75 105.07 836.27C125.18 849.65 147.28 859.39 170.74 865.11C181.6 867.76 192.72 869.54 203.18 873.46C213.64 877.38 223.66 883.74 229.37 893.35C233.69 900.63 237.04 911.03 235.29 919.36C234.4 923.6 230.75 926.7 226.44 927.06C154.7 933.04 110.65 930.15 1.89976 917.78C-3.05024 883.53 8.31986 840.18 28.7599 814.54C28.7699 814.54 44.6699 843.36 74.0399 822.12Z" fill="white" stroke="black" stroke-miterlimit="10"/>
<path d="M232.979 904.18C232.979 904.18 63.1695 909.71 1.26953 891.99Z" fill="white"/>
<path d="M232.979 904.18C232.979 904.18 63.1695 909.71 1.26953 891.99" stroke="black" stroke-miterlimit="10"/>
<path d="M161.57 863.46C151.16 870.68 137.1 870.83 125.1 866.81C113.09 862.79 102.7 855.1 92.71 847.32C97.33 843.24 101.94 839.17 106.56 835.09" stroke="black" stroke-miterlimit="10"/>
<path d="M140.89 856.061C135.65 861.031 131.79 865.49 124.76 867.15" stroke="black" stroke-miterlimit="10"/>
<path d="M123.31 846.301C118.28 851.101 112.479 855.091 106.189 858.061" stroke="black" stroke-miterlimit="10"/>
<path d="M106.58 903.361C101.06 891.571 88.6095 884.571 76.1895 880.691C63.7695 876.811 50.6296 875.251 38.5696 870.341C26.5096 865.441 15.1095 856.091 12.6895 843.301" stroke="black" stroke-miterlimit="10"/>
<path d="M90.8799 904.31C83.3399 896.51 72.56 892.73 61.95 890.46C51.34 888.19 40.4099 887.15 30.1499 883.6C19.8899 880.04 10.0401 873.42 5.83008 863.41" stroke="black" stroke-miterlimit="10"/>
<path d="M80.99 786.639L33.45 783.299L32.0801 790.629L79.6001 794.529L80.99 786.639Z" fill="#151614"/>
<path d="M79.1792 797.52L30.7292 794.18L29.3594 801.51L77.7793 805.4L79.1792 797.52Z" fill="white"/>
<path d="M126.44 96.2411C134.02 99.5211 144.07 102.711 151 98.211C156.74 94.481 158.43 86.961 159.4 80.181C160.53 72.221 158.55 63.791 155.35 56.421C151.55 47.681 145.63 42.0711 137.01 38.0111C126.5 33.0611 114.64 29.591 103.32 32.201C92.0001 34.801 81.8601 45.131 82.8201 56.701C75.2501 58.371 70.3 67.4711 73.02 74.7311C75.74 81.9911 85.45 85.601 92.25 81.891C94.78 91.181 88.98 94.3911 90.74 100.491C92.5 106.591 96.9401 112.001 102.85 114.291C107.77 116.201 118.39 117.211 122.62 113.121C126.34 109.511 124.71 100.941 126.44 96.2411Z" fill="#FFC9E6"/>
<path d="M152.48 51.0604L137.72 41.9102C137.72 41.9102 107.88 65.4202 85.2801 58.1802C85.2801 58.1802 75.5001 54.3404 72.2501 67.5604C72.2501 67.5604 62.6701 42.8104 85.2801 31.0504C107.89 19.3104 151.87 23.1304 152.48 51.0604Z" fill="#1B0042"/>
<path d="M126.88 96.1497L105.18 88.0098C105.18 88.0098 113.53 99.7597 125.18 107.9L126.88 96.1497Z" fill="black"/>
<path d="M87.8599 78.5698C89.0099 75.7498 88.7998 72.4098 87.2898 69.7598C85.7898 67.1098 83.0198 65.2098 80.0098 64.7598" stroke="black" stroke-miterlimit="10" stroke-linecap="round" stroke-linejoin="round"/>
<path d="M87.3101 70.7207C84.8301 71.0607 82.5599 72.6706 81.4199 74.8906" stroke="black" stroke-miterlimit="10" stroke-linecap="round" stroke-linejoin="round"/>
<path d="M97.6697 69.7693C96.1197 62.7893 89.4498 57.2994 82.2998 57.1094" stroke="black" stroke-miterlimit="10" stroke-linecap="round" stroke-linejoin="round"/>
<path d="M142.29 58.5195C143.43 63.2195 145.08 67.7994 147.22 72.1394C144.79 72.3394 142.36 72.5395 139.92 72.7395" stroke="black" stroke-miterlimit="10" stroke-linecap="round" stroke-linejoin="round"/>
<path d="M124.47 60.3593C126.11 58.9193 130.03 58.4891 132.21 58.4691C134.39 58.4491 136.57 59.229 138.23 60.629C136.46 62.149 135.42 63.6791 132.31 63.7391C127.96 63.8191 126.22 61.8993 124.47 60.3593Z" stroke="black" stroke-miterlimit="10" stroke-linecap="round" stroke-linejoin="round"/>
<path d="M135.92 62.7C136.92 62.7 137.73 61.8895 137.73 60.8899C137.73 59.8903 136.92 59.0801 135.92 59.0801C134.921 59.0801 134.11 59.8903 134.11 60.8899C134.11 61.8895 134.921 62.7 135.92 62.7Z" fill="black"/>
<path d="M146.25 60.8604C147.49 59.7404 150.5 59.3603 152.18 59.3203C153.86 59.2803 155.54 59.8502 156.84 60.9102C155.5 62.1002 154.71 63.2904 152.33 63.3704C148.98 63.4804 147.61 62.0204 146.25 60.8604Z" stroke="black" stroke-miterlimit="10" stroke-linecap="round" stroke-linejoin="round"/>
<path d="M154 62.7C154.999 62.7 155.81 61.8895 155.81 60.8899C155.81 59.8903 154.999 59.0801 154 59.0801C153 59.0801 152.189 59.8903 152.189 60.8899C152.189 61.8895 153 62.7 154 62.7Z" fill="black"/>
<path d="M152.19 82.5907C152.19 82.5907 148.57 76.2607 138.63 82.5907H152.19Z" fill="black" stroke="black" stroke-miterlimit="10"/>
<path d="M152.19 82.5898C152.19 82.5898 151.29 87.1099 147.67 87.1099C144.05 87.1099 137.72 82.5898 137.72 82.5898H152.19Z" stroke="black" stroke-miterlimit="10" stroke-linecap="round" stroke-linejoin="round"/>
<path d="M137.21 52.8004C133.83 51.0704 129.65 50.9904 126.2 52.5704" stroke="black" stroke-miterlimit="10" stroke-linecap="round" stroke-linejoin="round"/>
<path d="M156.25 53.9295C153.98 52.0695 150.4 52.0397 148.1 53.8697" stroke="black" stroke-miterlimit="10" stroke-linecap="round" stroke-linejoin="round"/>
<path d="M123.67 120.72C130.21 116.49 139.36 118.89 145.1 124.15C150.85 129.41 153.99 136.85 156.96 144.05C163.46 159.78 180.25 170.94 186.75 186.67C189.49 193.31 184.88 203.56 180.53 212.06C177.26 218.45 171.32 225.23 164.78 222.26C160.13 230.98 164.25 241.57 168.01 250.72C171.77 259.86 174.9 271.13 168.85 278.96C163.86 285.42 154.46 286.62 146.43 285.17C138.4 283.72 130.82 280.19 122.73 279.13C95.76 275.6 69.78 299.79 43.44 292.97C35.08 290.8 27.21 284.92 24.9 276.6C21.78 265.39 29.3001 254.01 37.7601 246.02C46.2201 238.03 56.3801 231.04 60.9901 220.35C57.5801 194.05 58.4 167.22 63.41 141.18C64.56 135.21 66.04 129.04 69.94 124.38C73.84 119.72 80.85 117.11 86.18 120.02L123.67 120.72Z" fill="#5C04A0"/>
<path opacity="0.15" d="M92.2998 116.43C99.7798 124.33 102.41 135.65 103.21 146.5C104.01 157.35 103.29 168.35 105.41 179.02C106.91 186.56 109.8 193.77 111.23 201.32C112.67 208.87 112.47 217.18 108.25 223.6C105.54 227.72 108.7 233.02 112.01 236.68" stroke="white" stroke-width="2" stroke-miterlimit="10"/>
<path opacity="0.15" d="M107.59 116.32C112.04 121.46 113.97 128.33 114.83 135.07C115.68 141.82 115.59 148.66 116.62 155.38C118.32 166.44 123 176.79 126.37 187.46C129.74 198.13 131.79 209.82 128.16 220.41C126.89 224.11 128.68 229.07 132.13 230.9" stroke="white" stroke-width="2" stroke-miterlimit="10"/>
<path opacity="0.15" d="M123.16 123.26C127.78 127.98 130.07 134.53 131.24 141.04C132.41 147.54 132.6 154.19 133.75 160.7C135.77 172.14 140.67 182.82 144.63 193.74C148.59 204.66 151.67 216.34 149.82 227.8" stroke="white" stroke-width="2" stroke-miterlimit="10"/>
<path opacity="0.15" d="M130.68 118.811C138.8 127.121 142.42 138.77 144.89 150.13C147.36 161.49 149 173.221 154.19 183.621C156.94 189.141 160.63 194.141 163.45 199.621C166.27 205.101 168.24 211.33 167.15 217.4" stroke="white" stroke-width="2" stroke-miterlimit="10"/>
<path opacity="0.15" d="M150.12 138.73C150.55 151.49 159.52 163.81 167.24 173.98C174.96 184.15 183.18 194.871 184.62 207.551" stroke="white" stroke-width="2" stroke-miterlimit="10"/>
<path d="M91.7204 156.329C91.4704 177.959 91.2204 199.589 90.9704 221.219C90.9004 226.989 91.2103 233.589 95.6803 237.219C98.3703 239.399 102.01 239.969 105.47 240.129C123.82 240.979 141.15 232.719 158.51 226.729C175.87 220.739 196.08 217.209 211.82 226.679C226.48 235.499 233.231 253.549 234.121 270.629C235.571 298.479 223.2 327.129 200.75 343.659C178.3 360.189 146.13 363.239 121.82 349.579C97.3705 335.839 83.1403 308.219 58.6803 294.509C51.1703 290.299 42.7403 287.429 36.4203 281.579C23.7003 269.799 23.3905 249.599 28.0705 232.899C32.7505 216.209 41.4203 200.579 43.7003 183.399C45.0103 173.499 44.1503 163.449 44.6903 153.479C45.2303 143.509 47.4004 133.149 53.8004 125.489C59.8604 118.239 74.4705 112.399 83.0805 118.649C92.8005 125.689 91.8404 145.979 91.7204 156.329Z" fill="#5C04A0"/>
<path opacity="0.15" d="M55.7208 121.621C60.1208 158.291 55.5007 196.011 42.4007 230.531C40.0307 236.771 37.3408 243.391 38.7408 249.921C40.2108 256.811 46.0208 262.021 52.2908 265.241C58.5608 268.461 65.5007 270.161 71.9307 273.051C85.3907 279.101 95.9807 289.981 106.131 300.691C116.281 311.401 126.661 322.431 139.921 328.901C153.181 335.371 170.201 336.361 181.931 327.391" stroke="white" stroke-width="2" stroke-miterlimit="10"/>
<path opacity="0.15" d="M64.2402 117.26C73.6502 148.33 74.8402 181.86 67.6602 213.52C65.5802 222.67 62.9903 232.96 68.0203 240.88C71.3703 246.15 77.3703 249.02 83.0503 251.62C107.03 262.6 131.02 273.59 155 284.57" stroke="white" stroke-width="2" stroke-miterlimit="10"/>
<path opacity="0.15" d="M74.75 114.17C84.31 122.43 85.63 136.51 86.28 149.12C87.15 166.18 88.0199 183.25 88.8899 200.32C89.3899 210.15 90.1299 220.65 96.1499 228.44C103.78 238.31 117.74 240.85 130.18 239.88C142.62 238.9 154.84 235.18 167.32 235.54C179.8 235.9 193.42 241.78 197.54 253.56" stroke="white" stroke-width="2" stroke-miterlimit="10"/>
<path opacity="0.15" d="M75.8008 308.15C84.9008 315.32 103.421 325.12 112.261 332.62C129.991 347.67 142.571 354.53 155.721 355.36C171.691 356.36 188.301 352.11 197.441 338.97C208.901 322.51 202.381 313.02 200.161 305.58" stroke="white" stroke-width="2" stroke-miterlimit="10"/>
<path d="M27.1098 260.5C26.8898 270.33 52.0597 290.36 60.7697 294.94" stroke="white" stroke-width="2" stroke-miterlimit="10" stroke-linecap="round" stroke-linejoin="round"/>
<path d="M126.78 112.61C132.21 110.95 138.01 114.6 141.17 119.31C144.33 124.02 145.65 129.69 147.89 134.9C151.93 144.29 158.9 152.07 165.61 159.78C172.32 167.5 181.31 173.29 184.65 182.96C187.99 192.63 187.31 204.33 180.39 211.86C173.47 219.39 159.6 220.26 153.56 212.01" stroke="white" stroke-width="2" stroke-miterlimit="10" stroke-linecap="round" stroke-linejoin="round"/>
<path d="M96.6299 218.399C100.78 223.439 114.98 224.429 121.19 222.419C127.4 220.409 136.65 214.36 137.05 207.85" stroke="white" stroke-width="2" stroke-miterlimit="10" stroke-linecap="round" stroke-linejoin="round"/>
<path d="M85.8793 121.961C91.5393 128.211 101.179 129.131 109.409 127.271C114.429 126.141 119.379 124.061 122.989 120.391C126.599 116.721 128.66 111.271 127.36 106.291C122.23 111.881 113.029 110.681 106.189 107.411C100.419 104.651 91.5595 96.4208 85.3395 100.961C79.3695 105.311 81.7893 117.441 85.8793 121.961Z" fill="#5C04A0"/>
<path opacity="0.15" d="M87.5994 124.2C85.4094 116.17 86.2893 107.34 90.0293 99.9102" stroke="white" stroke-width="2" stroke-miterlimit="10"/>
<path opacity="0.15" d="M95.0801 127.68C95.5001 119.59 95.9301 111.5 96.3501 103.41" stroke="white" stroke-width="2" stroke-miterlimit="10"/>
<path opacity="0.15" d="M104.789 128.121C105.169 121.371 104.979 114.581 104.239 107.861C104.159 108.401 104.069 108.951 103.989 109.491" stroke="white" stroke-width="2" stroke-miterlimit="10"/>
<path opacity="0.15" d="M115.76 125.521C115.85 120.321 114.76 115.111 112.6 110.371" stroke="white" stroke-width="2" stroke-miterlimit="10"/>
<path opacity="0.15" d="M124.839 117.72C124.879 114.85 123.739 111.99 121.739 109.93" stroke="white" stroke-width="2" stroke-miterlimit="10"/>
<path d="M233.101 255.021C222.991 216.131 181.48 221.061 181.48 221.061C166.04 225.151 134.59 231.521 119.14 235.601C113.23 237.161 106.71 238.681 101.21 236.001C92.2504 231.631 91.4404 219.401 91.8904 209.441C92.7104 191.251 93.5306 173.051 94.3506 154.861C94.9106 142.301 94.6705 127.811 84.9805 119.801" stroke="white" stroke-width="2" stroke-miterlimit="10" stroke-linecap="round" stroke-linejoin="round"/>
<path d="M238.85 271.3C231.36 271.3 225.26 265.2 225.26 257.71V59.4297C225.26 51.9397 231.36 45.8398 238.85 45.8398H437.12C444.61 45.8398 450.71 51.9397 450.71 59.4297V257.71C450.71 265.2 444.61 271.3 437.12 271.3H238.85Z" fill="white"/>
<path d="M437.13 46.3496C444.35 46.3496 450.22 52.2195 450.22 59.4395V257.719C450.22 264.939 444.35 270.81 437.13 270.81H238.85C231.63 270.81 225.76 264.939 225.76 257.719V59.4395C225.76 52.2195 231.63 46.3496 238.85 46.3496H437.13ZM437.13 45.3496H238.85C231.07 45.3496 224.76 51.6595 224.76 59.4395V257.719C224.76 265.499 231.07 271.81 238.85 271.81H437.13C444.91 271.81 451.22 265.499 451.22 257.719V59.4395C451.21 51.6595 444.91 45.3496 437.13 45.3496Z" fill="black"/>
<path d="M302.5 46.0504C301.91 40.3104 305.82 34.4203 311.35 32.7503C316.88 31.0803 323.4 33.7902 326.1 38.8902C326.34 33.7902 330.93 29.2804 336.03 29.1104C341.13 28.9404 346 33.1603 346.56 38.2303C345.74 33.7603 348.42 31.5704 352.9 30.8104C357.38 30.0504 361.99 32.4002 364.87 35.9102C367.75 39.4302 366.74 38.8602 371.01 46.1402" fill="#FFC9E6"/>
<path d="M306.14 44.0005C307.47 51.5305 311.1 57.9905 314.05 65.0505C317 72.1105 325.15 79.8206 331.81 83.5706C334.31 84.9806 337.66 85.8805 339.87 84.0605C341.46 82.7505 341.86 80.3904 341.4 78.3804C340.94 76.3704 339.78 74.6006 338.69 72.8406C332.38 62.6706 328.88 51.4605 326.15 39.8105" fill="#FFC9E6"/>
<path d="M327.87 42.8604C329.42 50.3904 332.54 58.0003 335.99 65.0603C339.44 72.1203 346.32 79.8303 354.13 83.5803C357.06 84.9903 360.99 85.8903 363.58 84.0703C365.45 82.7603 365.91 80.4001 365.37 78.3901C364.83 76.3801 363.47 74.6103 362.2 72.8503C354.8 62.6803 350.7 51.4703 347.49 39.8203" fill="#FFC9E6"/>
<path d="M349.6 44C351.86 52.59 355.3 61.7401 359.79 67.3401C364.58 73.3001 368.6 80.97 375.26 84.72C377.76 86.13 381.11 87.03 383.32 85.21C384.91 83.9 386.45 80.3999 385.99 78.3899C385.53 76.3799 382.909 71.3399 382.139 69.4199C378.159 59.4599 374.73 56.03 370.74 45.54" fill="#FFC9E6"/>
<path d="M325.84 37.4707C327.92 41.1307 330.13 58.3107 339.28 75.4707" stroke="black" stroke-miterlimit="10" stroke-linecap="round" stroke-linejoin="round"/>
<path d="M343.74 32.0898C347.86 41.7198 355.87 63.4498 362.09 73.3198" stroke="black" stroke-miterlimit="10" stroke-linecap="round" stroke-linejoin="round"/>
<path d="M336.45 70.0898C333.75 70.7598 331.06 71.4399 328.36 72.1099C329.79 75.1499 331.68 78.0598 334.17 80.3198C334.95 81.0298 335.81 81.6997 336.82 81.9897C337.83 82.2797 339.04 82.0998 339.74 81.3098C340.53 80.4098 340.45 79.0596 340.22 77.8896C339.66 75.0696 338.22 72.3798 336.45 70.0898Z" stroke="black" stroke-miterlimit="10"/>
<path d="M359.61 69.6094C356.75 70.7194 353.67 71.2692 350.6 71.2192C351.84 75.6092 355.189 79.2493 359.479 80.8193C361.029 81.3893 363.149 81.4893 363.949 80.0393C364.469 79.0893 364.15 77.9192 363.75 76.9092C362.75 74.3992 361.35 71.6594 359.61 69.6094Z" stroke="black" stroke-miterlimit="10"/>
<path d="M379.82 69.2695C377.36 70.6395 373.35 71.2796 370.54 71.0996C371.49 75.4196 375.18 79.5096 379.29 81.1096C380.76 81.6896 382.86 81.7596 383.49 80.3096C383.88 79.4196 384.62 78.3995 384.21 77.5295C382.92 74.8295 381.52 71.7295 379.82 69.2695Z" stroke="black" stroke-miterlimit="10"/>
<path d="M185.09 281.72C185.38 275.66 189.39 270.38 195.17 268.54C204.48 265.57 215.31 266.57 225.01 269.08C238.35 272.53 250.11 269.26 263.88 269.78C274.09 270.17 285.44 276.72 295.61 277.73C305.78 278.74 319.9 279.07 321.09 289.22C331.33 286.86 336.28 284.44 345.91 280.23C355.54 276.02 371.33 273.36 381.83 273C390.2 272.71 398.25 274 404.44 278.73C406.34 280.18 405.46 283.24 403.08 283.52C367.5 287.75 350.72 314.509 307.89 318.889C288.02 320.919 261.79 312.88 242.05 309.79C226.41 307.35 201.79 306.72 190.12 309.29C186.89 310 183.87 307.499 184.02 304.199L185.09 281.72Z" fill="#FFC9E6"/>
<path d="M321.59 292.08C310.77 298.86 276.45 297.12 263.74 295.96" stroke="black" stroke-miterlimit="10" stroke-linecap="round" stroke-linejoin="round"/>
<path d="M387.03 284.739C385.74 283.039 385.34 280.699 385.99 278.659C390.51 277.149 395.48 277.019 400.08 278.279C401.02 278.539 401.99 278.879 402.61 279.639C403.23 280.389 403.3 281.659 402.53 282.249C402.2 282.499 401.77 282.589 401.36 282.669C396.51 283.629 391.67 284.6 386.82 285.56" stroke="black" stroke-miterlimit="10" stroke-linecap="round" stroke-linejoin="round"/>
<path d="M303.08 296.42C303.39 294.67 302.54 292.95 302.04 291.24C301.54 289.53 301.53 287.37 302.98 286.34C303.74 285.8 304.72 285.72 305.65 285.66C307.58 285.53 309.5 285.39 311.43 285.26C313.91 285.09 316.56 284.96 318.69 286.24C320.82 287.52 321.89 290.79 320.11 292.52" stroke="black" stroke-miterlimit="10" stroke-linecap="round" stroke-linejoin="round"/>
<path d="M303.271 51.3401C305.551 50.3201 307.79 48.9601 309.16 46.8601C310.53 44.7601 310.8 41.8001 309.25 39.8401C308.08 38.3501 306.151 37.7 304.311 37.21C300.121 36.09 295.82 35.3701 291.49 35.0601C287.92 34.8101 284.23 34.8599 280.89 36.1599C277.55 37.4599 274.61 40.24 273.95 43.76C271.38 57.4 296.641 54.3001 303.271 51.3401Z" fill="#FFC9E6"/>
<path d="M296.83 51.5801L297.01 41.2C297.01 41.2 310.17 38.3099 309.1 43.9299C308.02 49.5499 296.83 51.5801 296.83 51.5801Z" stroke="black" stroke-miterlimit="10"/>
<path d="M142.56 373.971C142.56 373.971 152.85 540.951 101.42 740.651" stroke="white" stroke-width="2" stroke-miterlimit="10" stroke-linecap="round" stroke-linejoin="round"/>
<path d="M356.6 7.18936C367.55 5.65936 378.63 15.6093 378.29 26.6593" stroke="black" stroke-miterlimit="10" stroke-linecap="round" stroke-linejoin="round"/>
<path d="M364.29 0.779297C374.36 1.5293 383.13 10.5592 383.6 20.6492" stroke="black" stroke-miterlimit="10" stroke-linecap="round" stroke-linejoin="round"/>
<path d="M312.221 142.96V112.36C312.221 98.1299 323.761 86.5898 337.991 86.5898C352.221 86.5898 363.761 98.1299 363.761 112.36V142.96" fill="white"/>
<path d="M312.221 142.96V112.36C312.221 98.1299 323.761 86.5898 337.991 86.5898C352.221 86.5898 363.761 98.1299 363.761 112.36V142.96" stroke="black" stroke-miterlimit="10"/>
<path d="M301.91 230.069C293.66 230.069 286.95 223.359 286.95 215.109V158.419C286.95 150.169 293.66 143.459 301.91 143.459H374.06C382.31 143.459 389.02 150.169 389.02 158.419V215.109C389.02 223.359 382.31 230.069 374.06 230.069H301.91Z" fill="white"/>
<path d="M374.06 143.959C382.03 143.959 388.52 150.449 388.52 158.419V215.109C388.52 223.079 382.03 229.569 374.06 229.569H301.91C293.94 229.569 287.45 223.079 287.45 215.109V158.419C287.45 150.449 293.94 143.959 301.91 143.959H374.06ZM374.06 142.959H301.91C293.37 142.959 286.45 149.879 286.45 158.419V215.109C286.45 223.649 293.37 230.569 301.91 230.569H374.06C382.6 230.569 389.52 223.649 389.52 215.109V158.419C389.52 149.879 382.6 142.959 374.06 142.959Z" fill="black"/>
<path d="M86.5 99.0605C91.7467 99.0605 96 94.8073 96 89.5605C96 84.3138 91.7467 80.0605 86.5 80.0605C81.2533 80.0605 77 84.3138 77 89.5605C77 94.8073 81.2533 99.0605 86.5 99.0605Z" stroke="#1B0042" stroke-miterlimit="10"/>
</svg>
