<svg width="709" height="852" viewBox="0 0 709 852" fill="none" xmlns="http://www.w3.org/2000/svg">
<path d="M259.84 235H12.16C6 235 1 230 1 223.84V12.16C1 6 6 1 12.16 1H259.84C266 1 271 6 271 12.16V223.84C271 230 266 235 259.84 235Z" fill="white" stroke="black" stroke-width="2" stroke-miterlimit="10"/>
<path d="M63.2898 192.03H33.2598C29.8298 192.03 27.0498 189.25 27.0498 185.82V155.62C27.0498 152.19 29.8298 149.41 33.2598 149.41H63.2898C66.7198 149.41 69.4998 152.19 69.4998 155.62V185.82C69.4998 189.25 66.7198 192.03 63.2898 192.03Z" fill="white" stroke="black" stroke-width="2" stroke-miterlimit="10"/>
<path d="M121.91 192.03H91.8799C88.4499 192.03 85.6699 189.25 85.6699 185.82V136.12C85.6699 132.69 88.4499 129.91 91.8799 129.91H121.91C125.34 129.91 128.12 132.69 128.12 136.12V185.82C128.12 189.25 125.34 192.03 121.91 192.03Z" fill="white" stroke="black" stroke-width="2" stroke-miterlimit="10"/>
<path d="M180.53 192.031H150.5C147.07 192.031 144.29 189.251 144.29 185.821V102.181C144.29 98.7507 147.07 95.9707 150.5 95.9707H180.53C183.96 95.9707 186.74 98.7507 186.74 102.181V185.821C186.73 189.251 183.95 192.031 180.53 192.031Z" fill="white" stroke="black" stroke-width="2" stroke-miterlimit="10"/>
<path d="M239.139 192.031H209.109C205.679 192.031 202.899 189.251 202.899 185.821V50.1807C202.899 46.7507 205.679 43.9707 209.109 43.9707H239.139C242.569 43.9707 245.349 46.7507 245.349 50.1807V185.821C245.349 189.251 242.569 192.031 239.139 192.031Z" fill="white" stroke="black" stroke-width="2" stroke-miterlimit="10"/>
<path d="M541.61 634.241L593.11 691.291L623.22 658.811L571.72 602.551L541.61 634.241Z" fill="#FFC9E6"/>
<path d="M568.09 664.001L598.73 632.051L626.39 661.181L595.49 693.671L568.09 664.001Z" fill="#FCA1BB"/>
<path d="M567.33 662.919L598.78 632.27L603.04 636.4L571.92 668.19L567.33 662.919Z" fill="#151614"/>
<path d="M573.89 669.949L605.15 638.789L610.2 643.709L579.27 676.019L573.89 669.949Z" fill="white"/>
<path d="M443.36 684.16C443.36 686.54 461.58 783.2 461.58 783.2H503.57L484.55 680.99H443.35" fill="#FFC9E6"/>
<path d="M449.47 718.379L491.03 715.779L503.58 783.199L460.79 782.409L449.47 718.379Z" fill="#FCA1BB"/>
<path d="M413.73 321.57C403.88 438.59 409.82 556.92 431.35 672.37C432.42 678.11 433.59 684.02 436.79 688.91C442.32 697.39 453.09 701.26 463.22 701.12C470.86 701.02 478.28 699 485.54 696.53C489.85 695.07 492.88 691.15 493.13 686.61C497.32 609.52 463.69 532.49 471.08 455.47C475.61 408.28 494.91 362.02 489.15 314.96C462.86 313.08 439.35 315.41 413.73 321.57Z" fill="#151614"/>
<path d="M464.75 314.32C464.75 314.32 382.35 412.39 391.06 459.14C398.23 497.61 501.46 613.89 537.78 653.86C544.34 661.08 555.79 660.73 561.9 653.14L588.12 620.6C592.86 614.71 592.8 606.3 587.97 600.49L464.75 452.01C464.75 452.01 536.06 389.42 528.93 330.78L464.75 314.32Z" fill="#151614"/>
<path d="M437.23 186.829C417.68 186.169 398.17 196.999 388.37 213.929C378.06 231.759 378.13 254.889 364.95 270.709C357.63 265.949 352.44 258.809 346.83 252.109C346.39 239.749 343.55 226.579 335.37 217.309C327.18 208.029 313.15 203.259 301.9 208.389C292.65 212.609 287.19 222.129 282.34 231.069C275.63 243.429 268.75 256.359 268.25 270.409C267.96 278.569 269.85 286.639 271.98 294.519C275.37 307.059 279.51 319.629 286.92 330.299C294.33 340.969 305.47 349.629 318.33 351.449C329.54 353.029 340.8 349.369 351.22 344.939C369.26 337.259 387.05 326.259 396.31 308.969C393.58 315.399 398.14 322.889 404.38 326.039C410.62 329.189 418.1 328.629 424.86 326.859C431.62 325.099 438.08 322.219 444.93 320.859C455.96 318.679 467.77 320.679 477.46 326.379C484.46 330.489 490.26 336.359 497.04 340.819C503.82 345.279 512.32 348.319 520.03 345.799C522.5 356.779 524.7 367.159 529.21 377.459C533.72 387.769 540.43 397.399 549.81 403.609C561.9 411.609 578.04 413.109 591.38 407.429C604.72 401.759 614.85 389.079 617.42 374.809C619.22 364.819 617.5 354.559 615.38 344.629C613.42 335.459 611.08 326.289 606.91 317.889C594.29 292.499 567.07 277.899 549.87 255.359C542.8 246.099 539.25 234.599 533.35 224.559C525.53 211.239 517.15 197.339 503.78 189.619C493.98 183.959 482.33 182.189 471.02 182.679C459.7 183.179 448.54 187.209 437.23 186.829Z" fill="#5C04A0"/>
<path opacity="0.15" d="M273.07 256.551C278.72 276.511 284.52 296.811 295.75 314.261C306.98 331.711 324.64 346.211 345.25 348.531" stroke="white" stroke-width="2" stroke-miterlimit="10"/>
<path opacity="0.15" d="M281.7 236.141C292.37 247.781 299.08 262.411 305.81 276.691C312.54 290.971 319.68 305.471 330.97 316.521C342.26 327.561 358.64 334.671 373.98 330.921" stroke="white" stroke-width="2" stroke-miterlimit="10"/>
<path opacity="0.15" d="M305.08 205.48C314.13 227.66 323.3 250.07 337.27 269.53C351.24 288.99 370.68 305.51 393.94 311.25" stroke="white" stroke-width="2" stroke-miterlimit="10"/>
<path opacity="0.15" d="M382.98 282.789C389.19 285.589 395.39 288.389 401.6 291.189" stroke="white" stroke-width="2" stroke-miterlimit="10"/>
<path opacity="0.15" d="M374.141 275.699C381.171 267.779 384.731 257.399 387.231 247.119C389.731 236.829 391.351 226.269 395.271 216.429C399.191 206.589 405.821 197.289 415.471 192.949" stroke="white" stroke-width="2" stroke-miterlimit="10"/>
<path opacity="0.15" d="M387.79 284.611C397.82 269.141 400.86 250.341 405.58 232.521C410.3 214.691 417.83 196.171 433.31 186.141" stroke="white" stroke-width="2" stroke-miterlimit="10"/>
<path opacity="0.15" d="M413.59 328.601C407.81 320.011 407.72 308.731 409.97 298.631C412.22 288.531 416.54 278.991 419 268.941C422.31 255.421 422.18 241.331 423.77 227.511C425.35 213.681 429 199.421 438.37 189.141" stroke="white" stroke-width="2" stroke-miterlimit="10"/>
<path opacity="0.15" d="M447.42 188.699C444.03 212.809 443.77 237.229 443.51 261.579C443.36 275.779 443.21 289.989 443.06 304.189C442.99 310.579 443.55 318.159 449.02 321.459" stroke="white" stroke-width="2" stroke-miterlimit="10"/>
<path opacity="0.15" d="M461.95 187.721C476.45 212.191 468.07 243.661 474.81 271.301C477.39 281.911 482.2 291.841 485.39 302.291C488.58 312.731 490.08 324.271 486.02 334.411" stroke="white" stroke-width="2" stroke-miterlimit="10"/>
<path opacity="0.15" d="M471.721 182.59C490.141 204.36 487.541 236.73 498.671 262.98C505.201 278.39 516.821 293.18 514.611 309.76" stroke="white" stroke-width="2" stroke-miterlimit="10"/>
<path opacity="0.15" d="M485.55 184.08C497.86 191.7 505.59 204.97 510.75 218.5C519.04 240.24 521.91 263.61 524.44 286.74C526.97 309.87 529.28 333.24 536.58 355.34C543.87 377.43 556.72 398.49 576.22 411.17" stroke="white" stroke-width="2" stroke-miterlimit="10"/>
<path opacity="0.15" d="M497.54 186.289C514.7 199.589 523.82 220.869 528.54 242.059C533.26 263.249 534.26 285.119 538.91 306.319C547.53 345.649 568.98 382.069 599.21 408.669C598.12 407.419 597.03 406.159 595.94 404.909" stroke="white" stroke-width="2" stroke-miterlimit="10"/>
<path opacity="0.15" d="M538.33 230.869C549.87 289.809 574.71 346.099 610.49 394.329" stroke="white" stroke-width="2" stroke-miterlimit="10"/>
<path opacity="0.15" d="M557.55 262.779C581.06 301.749 600.53 343.159 615.57 386.109" stroke="white" stroke-width="2" stroke-miterlimit="10"/>
<path opacity="0.15" d="M589.5 294.16C600.54 315.71 610.02 338.05 617.84 360.97" stroke="white" stroke-width="2" stroke-miterlimit="10"/>
<path d="M278.95 252.74C278.95 252.74 271.82 266.21 282.12 281.26C282.12 281.26 317.77 276.51 313.81 223.42C313.81 223.42 306.68 210.74 300.34 216.29L278.95 252.74Z" stroke="#5C04A0" stroke-miterlimit="10"/>
<path d="M417.12 203.1C419.38 207.26 418.42 212.51 416.22 216.69C414.02 220.87 410.71 224.37 408.02 228.26C405.33 232.16 403.21 236.81 403.88 241.49C404.55 246.17 408.97 250.51 413.62 249.65C411.6 265.7 407.49 282.01 399.87 296.28C396.71 302.19 393.02 310.67 395.79 316.76" stroke="white" stroke-width="2" stroke-miterlimit="10" stroke-linecap="round" stroke-linejoin="round"/>
<path d="M487.72 210.9C502.16 232.77 511.39 258.05 514.46 284.07C517.17 307.06 518.38 346.73 525.63 368.72" stroke="white" stroke-width="2" stroke-miterlimit="10" stroke-linecap="round" stroke-linejoin="round"/>
<path d="M437.4 172.389C430.76 175.269 421.95 178.059 415.88 174.109C410.85 170.839 409.37 164.249 408.52 158.309C407.53 151.339 409.26 143.949 412.07 137.489C415.4 129.829 420.59 124.919 428.14 121.359C437.35 117.029 447.75 113.979 457.66 116.259C467.58 118.539 476.47 127.589 475.62 137.729C482.26 139.189 486.59 147.169 484.21 153.529C481.83 159.889 473.32 163.059 467.36 159.799C465.14 167.939 470.22 170.759 468.69 176.099C467.15 181.439 463.26 186.179 458.08 188.199C453.77 189.869 444.46 190.759 440.76 187.169C437.49 184.019 438.92 176.509 437.4 172.389Z" fill="#FFC9E6"/>
<path d="M414.58 132.8L427.51 124.78C427.51 124.78 453.66 145.38 473.46 139.04C473.46 139.04 482.03 135.68 484.88 147.26C484.88 147.26 493.27 125.57 473.46 115.27C453.66 104.97 415.12 108.33 414.58 132.8Z" fill="#1B0042"/>
<path d="M437.02 172.319L456.039 165.189C456.039 165.189 448.72 175.489 438.51 182.619L437.02 172.319Z" fill="black"/>
<path d="M436.31 180.52C436.27 178.74 437.82 177.34 439.59 177.55C444.04 178.09 448.51 178.48 452.99 178.22C457.91 177.93 462.89 176.79 467.14 174.35C468.23 173.72 469.63 174.1 470.18 175.23C472.07 179.15 473.23 183.41 473.59 187.75C473.95 192.12 451.7 193.85 449.07 193.71C446.53 193.57 438.89 193.44 437.31 191.13C436.03 189.27 436.4 184.34 436.31 180.52Z" fill="#5C04A0"/>
<path d="M487.34 119.23C499.81 119.23 509.92 109.121 509.92 96.6503C509.92 84.1797 499.81 74.0703 487.34 74.0703C474.869 74.0703 464.76 84.1797 464.76 96.6503C464.76 109.121 474.869 119.23 487.34 119.23Z" fill="#1B0042"/>
<path d="M471.22 156.901C470.21 154.431 470.4 151.501 471.72 149.181C473.04 146.861 475.46 145.201 478.1 144.801" stroke="black" stroke-miterlimit="10" stroke-linecap="round" stroke-linejoin="round"/>
<path d="M471.7 150.029C473.87 150.329 475.86 151.739 476.87 153.689" stroke="black" stroke-miterlimit="10" stroke-linecap="round" stroke-linejoin="round"/>
<path d="M462.62 149.199C463.98 143.079 469.83 138.269 476.09 138.109" stroke="black" stroke-miterlimit="10" stroke-linecap="round" stroke-linejoin="round"/>
<path d="M423.52 139.33C422.52 143.45 421.07 147.46 419.2 151.27C421.33 151.44 423.46 151.62 425.59 151.79" stroke="black" stroke-miterlimit="10" stroke-linecap="round" stroke-linejoin="round"/>
<path d="M439.14 140.949C437.71 139.689 434.27 139.309 432.36 139.289C430.45 139.269 428.54 139.959 427.08 141.189C428.63 142.519 429.55 143.869 432.27 143.919C436.07 143.989 437.6 142.299 439.14 140.949Z" stroke="black" stroke-miterlimit="10" stroke-linecap="round" stroke-linejoin="round"/>
<path d="M429.099 143C429.972 143 430.68 142.292 430.68 141.42C430.68 140.547 429.972 139.84 429.099 139.84C428.227 139.84 427.52 140.547 427.52 141.42C427.52 142.292 428.227 143 429.099 143Z" fill="black"/>
<path d="M420.049 141.38C418.959 140.39 416.319 140.07 414.849 140.03C413.379 139.99 411.91 140.5 410.77 141.43C411.95 142.47 412.629 143.52 414.729 143.59C417.649 143.68 418.849 142.41 420.049 141.38Z" stroke="black" stroke-miterlimit="10" stroke-linecap="round" stroke-linejoin="round"/>
<path d="M413.25 143C414.123 143 414.83 142.292 414.83 141.42C414.83 140.547 414.123 139.84 413.25 139.84C412.377 139.84 411.67 140.547 411.67 141.42C411.67 142.292 412.377 143 413.25 143Z" fill="black"/>
<path d="M414.84 160.43C414.84 160.43 418.01 154.88 426.72 160.43H414.84Z" fill="black" stroke="black" stroke-miterlimit="10"/>
<path d="M414.84 160.43C414.84 160.43 415.63 164.39 418.8 164.39C421.97 164.39 427.52 160.43 427.52 160.43H414.84Z" stroke="black" stroke-miterlimit="10" stroke-linecap="round" stroke-linejoin="round"/>
<path d="M451.28 329.199L409.18 395.309" stroke="white" stroke-width="2" stroke-miterlimit="10" stroke-linecap="round" stroke-linejoin="round"/>
<path d="M411.67 499.811L484.89 593.221" stroke="white" stroke-width="2" stroke-miterlimit="10" stroke-linecap="round" stroke-linejoin="round"/>
<path d="M475.33 464.86L464.75 452.01L484.43 432.57" stroke="white" stroke-width="2" stroke-miterlimit="10" stroke-linecap="round" stroke-linejoin="round"/>
<path d="M427.97 134.321C430.94 132.811 434.6 132.731 437.62 134.121" stroke="black" stroke-miterlimit="10" stroke-linecap="round" stroke-linejoin="round"/>
<path d="M411.28 135.32C413.27 133.69 416.41 133.67 418.43 135.27" stroke="black" stroke-miterlimit="10" stroke-linecap="round" stroke-linejoin="round"/>
<path d="M281.58 253.36C281.18 256.75 280.8 260.18 281.32 263.55C281.84 266.92 283.37 270.27 286.12 272.28C290.45 275.45 296.83 274.45 301.1 271.19C305.37 267.93 307.9 262.91 309.79 257.89C312.27 251.3 313.9 244.39 314.62 237.39C314.99 233.76 315.09 229.91 313.41 226.68C311.73 223.44 307.74 221.14 304.36 222.5" stroke="white" stroke-width="2" stroke-miterlimit="10" stroke-linecap="round" stroke-linejoin="round"/>
<path d="M290.2 274.191C289.67 269.251 289.13 264.321 288.6 259.381" stroke="white" stroke-width="2" stroke-miterlimit="10" stroke-linecap="round" stroke-linejoin="round"/>
<path d="M297.3 255.24C299.92 258.74 302.55 262.25 305.17 265.75" stroke="white" stroke-width="2" stroke-miterlimit="10" stroke-linecap="round" stroke-linejoin="round"/>
<path d="M303.68 244.83C306.43 247.81 309.18 250.79 311.94 253.78" stroke="white" stroke-width="2" stroke-miterlimit="10" stroke-linecap="round" stroke-linejoin="round"/>
<path d="M306.35 231.35C309.58 232.09 312.63 233.6 315.17 235.73" stroke="white" stroke-width="2" stroke-miterlimit="10" stroke-linecap="round" stroke-linejoin="round"/>
<path d="M574.48 397.979C571.24 402.069 564.35 401.869 560.58 398.259C556.81 394.649 556.01 388.689 557.58 383.719C559.15 378.749 562.74 374.649 566.73 371.289C572.17 366.699 578.52 363.199 585.3 361.049C590.07 359.539 595.21 358.689 600.09 359.849C604.96 360.999 609.5 364.469 610.85 369.289C612.2 374.109 609.52 380.019 604.68 381.279" stroke="white" stroke-width="2" stroke-miterlimit="10" stroke-linecap="round" stroke-linejoin="round"/>
<path d="M559.22 379.631C564.27 385.371 570.57 390.001 577.56 393.111" stroke="white" stroke-width="2" stroke-miterlimit="10" stroke-linecap="round" stroke-linejoin="round"/>
<path d="M563.68 374.57C568.85 378.62 574.01 382.67 579.18 386.73" stroke="white" stroke-width="2" stroke-miterlimit="10" stroke-linecap="round" stroke-linejoin="round"/>
<path d="M578.01 363.76C581.64 369.35 585.26 374.94 588.89 380.53" stroke="white" stroke-width="2" stroke-miterlimit="10" stroke-linecap="round" stroke-linejoin="round"/>
<path d="M583.83 361.369C585.9 367.249 589.14 372.719 593.33 377.339" stroke="white" stroke-width="2" stroke-miterlimit="10" stroke-linecap="round" stroke-linejoin="round"/>
<path d="M600.55 377.47C600.97 372.07 601.39 366.66 601.81 361.26" stroke="white" stroke-width="2" stroke-miterlimit="10" stroke-linecap="round" stroke-linejoin="round"/>
<path d="M594.02 378.111C598.58 376.491 603.67 378.731 605.63 383.151C609.28 391.371 613.93 399.151 619.45 406.251C626.04 414.721 633.97 422.421 638.21 432.291C645.79 449.931 643.82 464.691 647.99 488.161C648.58 491.491 648.71 494.991 649.68 498.231C650.04 499.441 650.3 500.931 648.92 501.651C648.39 501.921 647.76 501.961 647.19 501.811C643.35 500.861 640.2 499.081 638.77 495.431C639.99 500.271 640.79 504.431 641.15 509.411C641.32 511.791 638.89 513.571 636.71 512.591C633.44 511.121 630.67 508.771 629.09 505.471C629.81 509.991 629.87 514.601 629.28 519.141C628.94 521.741 625.92 522.991 623.83 521.411C619.39 518.051 617.41 509.201 616.42 503.581C615.12 496.211 615.32 491.821 614.89 484.351C614.13 471.021 608.38 458.711 599.4 448.831C597.13 456.061 600.35 463.741 603.45 470.651C606.55 477.561 609.65 485.331 607.15 492.481C606.98 492.971 606.7 493.511 606.2 493.601C605.59 493.701 605.13 493.091 604.82 492.561C596.54 478.281 588.14 463.701 584.66 447.561C581.31 432.051 582.5 415.251 576.62 400.731C575.2 397.221 575.77 393.211 577.98 390.121C581.9 384.641 587.64 380.381 594.02 378.111Z" fill="#FFC9E6"/>
<path d="M617.04 441.57C622.53 445.18 623.79 452.56 624.55 459.09C626.48 475.66 627.61 492.24 629.54 508.81" stroke="black" stroke-miterlimit="10" stroke-linecap="round" stroke-linejoin="round"/>
<path d="M626.14 437.9C632.93 445.31 635.02 457.45 635.66 467.48C636.3 477.51 636.6 487.76 639.38 497.42" stroke="black" stroke-miterlimit="10" stroke-linecap="round" stroke-linejoin="round"/>
<path d="M594.95 442.75C597.75 446.36 600.55 449.96 603.35 453.57" stroke="black" stroke-miterlimit="10" stroke-linecap="round" stroke-linejoin="round"/>
<path d="M624 505.02C623.57 505.28 623.12 505.55 622.89 506C622.62 506.53 622.73 507.17 622.87 507.76C623.5 510.5 624.42 513.17 625.61 515.7C625.95 516.41 626.33 517.15 626.98 517.6C627.63 518.05 628.61 518.12 629.15 517.54C629.54 517.12 629.59 516.51 629.62 515.94C629.79 512.65 629.78 509.24 629.31 505.97C628.73 501.87 626.71 503.41 624 505.02Z" stroke="black" stroke-miterlimit="10" stroke-linecap="round" stroke-linejoin="round"/>
<path d="M634.21 498.32C633.83 498.64 633.42 498.99 633.27 499.47C633.09 500.04 633.3 500.65 633.53 501.21C634.59 503.81 635.93 506.29 637.53 508.6C637.98 509.25 638.48 509.91 639.19 510.26C639.9 510.6 640.89 510.51 641.32 509.85C641.63 509.38 641.59 508.76 641.53 508.2C641.17 504.92 640.61 501.56 639.61 498.41C638.36 494.45 636.62 496.3 634.21 498.32Z" stroke="black" stroke-miterlimit="10" stroke-linecap="round" stroke-linejoin="round"/>
<path d="M643.79 491.96C643.5 492.21 643.21 492.49 643.1 492.86C642.97 493.3 643.15 493.76 643.34 494.18C644.21 496.14 645.29 498 646.56 499.73C646.92 500.22 647.31 500.71 647.86 500.95C648.41 501.19 649.16 501.1 649.48 500.59C649.71 500.22 649.66 499.75 649.6 499.32C649.25 496.83 648.74 494.28 647.91 491.9C646.87 488.91 645.59 490.36 643.79 491.96Z" stroke="black" stroke-miterlimit="10" stroke-linecap="round" stroke-linejoin="round"/>
<path d="M598.73 481.87L602.23 479.34C602.23 479.34 607.341 487.65 606.091 492.21C605.911 492.85 605.031 492.95 604.701 492.37L598.73 481.87Z" stroke="black" stroke-miterlimit="10" stroke-linecap="round" stroke-linejoin="round"/>
<path d="M456.75 756.22C450.55 751.73 450.67 741.85 444.87 736.88C438.94 731.81 429.38 730.07 423.46 735.16C418.67 739.28 417.74 746.61 419.58 752.66C421.43 758.71 425.53 763.77 429.61 768.6C412.03 780.3 392.7 788.81 372.19 793.81C362.7 796.12 352.98 797.69 343.82 801.11C334.67 804.53 325.91 810.1 320.92 818.5C317.15 824.86 314.21 833.96 315.74 841.24C316.52 844.94 319.71 847.66 323.48 847.97C386.21 853.2 424.72 850.67 519.81 839.85C524.14 809.91 514.2 772 496.32 749.59C496.33 749.59 482.43 774.8 456.75 756.22Z" fill="white" stroke="black" stroke-miterlimit="10"/>
<path d="M317.78 827.971C317.78 827.971 466.26 832.801 520.37 817.311Z" fill="white"/>
<path d="M317.78 827.971C317.78 827.971 466.26 832.801 520.37 817.311" stroke="black" stroke-miterlimit="10"/>
<path d="M380.221 792.37C389.321 798.68 401.611 798.82 412.111 795.3C422.611 791.78 431.691 785.06 440.431 778.26C436.391 774.7 432.361 771.13 428.321 767.57" stroke="black" stroke-miterlimit="10"/>
<path d="M398.301 785.9C402.881 790.25 406.251 794.15 412.401 795.6" stroke="black" stroke-miterlimit="10"/>
<path d="M413.67 777.359C418.06 781.559 423.14 785.049 428.64 787.639" stroke="black" stroke-miterlimit="10"/>
<path d="M428.301 827.26C433.121 816.95 444.011 810.83 454.871 807.44C465.731 804.05 477.221 802.68 487.761 798.39C498.301 794.1 508.271 785.93 510.391 774.75" stroke="black" stroke-miterlimit="10"/>
<path d="M442.03 828.08C448.63 821.26 458.05 817.95 467.33 815.97C476.61 813.99 486.17 813.08 495.13 809.97C504.1 806.86 512.71 801.07 516.39 792.32" stroke="black" stroke-miterlimit="10"/>
<path d="M586.52 676.221C578.9 676.941 572.47 669.431 564.83 669.531C557.03 669.631 548.69 674.641 547.61 682.361C546.73 688.621 550.86 694.741 556.24 698.071C561.62 701.401 568.04 702.491 574.3 703.431C568.81 723.821 559.9 742.971 547.79 760.261C542.18 768.261 535.91 775.851 531.29 784.461C526.67 793.071 523.76 803.031 525.56 812.631C526.92 819.901 530.72 828.671 536.67 833.141C539.7 835.411 543.88 835.351 546.93 833.101C597.52 795.651 624.8 768.341 689.11 697.471C672.61 672.111 640.13 650.181 611.91 645.141C611.89 645.121 618.07 673.241 586.52 676.221Z" fill="white" stroke="black" stroke-miterlimit="10"/>
<path d="M529.42 821.83C529.42 821.83 644.18 727.5 674.63 680.15Z" fill="white"/>
<path d="M529.42 821.83C529.42 821.83 644.18 727.5 674.63 680.15" stroke="black" stroke-miterlimit="10"/>
<path d="M552.859 753.87C563.859 752.61 573.189 744.6 578.759 735.03C584.329 725.46 586.719 714.42 588.799 703.54C583.409 703.52 578.029 703.51 572.639 703.49" stroke="black" stroke-miterlimit="10"/>
<path d="M562.17 737.081C568.48 737.321 573.59 738.031 579.16 735.061" stroke="black" stroke-miterlimit="10"/>
<path d="M568.09 720.531C574.16 720.791 580.28 720.061 586.12 718.381" stroke="black" stroke-miterlimit="10"/>
<path d="M612 748.37C608.82 737.44 612.96 725.66 618.89 715.94C624.81 706.22 632.54 697.62 637.64 687.44C642.73 677.26 644.83 664.55 639.05 654.74" stroke="black" stroke-miterlimit="10"/>
<path d="M622.869 739.94C623.319 730.46 628.219 721.76 633.889 714.15C639.559 706.54 646.139 699.55 650.819 691.3C655.499 683.05 658.159 673.01 655.149 664.01" stroke="black" stroke-miterlimit="10"/>
<path d="M341.23 272.96C342.79 265.77 348.28 257.89 346.72 242.67" stroke="white" stroke-width="2" stroke-miterlimit="10" stroke-linecap="round" stroke-linejoin="round"/>
<path d="M361.43 267.211C366.84 270.061 376.44 279.361 382.51 282.561" stroke="white" stroke-width="2" stroke-miterlimit="10" stroke-linecap="round" stroke-linejoin="round"/>
<path d="M436.46 186.25C446.53 192.12 463.17 188.95 472.83 182.83" stroke="white" stroke-width="2" stroke-miterlimit="10" stroke-linecap="round" stroke-linejoin="round"/>
<path d="M450.67 725.199L492.24 722.279L493.44 728.689L451.89 732.099L450.67 725.199Z" fill="#151614"/>
<path d="M452.26 734.709L494.62 731.789L495.81 738.199L453.48 741.599L452.26 734.709Z" fill="white"/>
<path d="M259.08 194.72C268.39 212.42 277.34 231.4 281.05 251.32C282.37 258.4 291.1 261.14 296.26 256.11C299.13 253.31 301.47 249.98 303.05 246.29C306.69 237.81 307.97 227.56 302.57 220.09C297.28 212.76 295.81 203.33 295.9 194.29C295.99 185.25 297.48 176.27 297.42 167.23C297.27 144.68 287.61 123.42 278.14 102.96C277.71 102.03 277.08 100.94 275.88 101.21C275.18 101.37 274.65 101.96 274.46 102.65C272.28 110.8 272.43 119.56 274.89 127.63C265.82 105.45 252.79 91.0903 241.25 63.0403C240.56 61.3503 238.57 59.9103 236.73 61.1303C235.81 61.7503 235.34 62.8603 235.4 63.9603C236.3 81.4103 241.25 97.9603 251.87 111.77C249.77 110.43 246.85 110.52 244.84 111.99C242.83 113.46 242.35 116.42 242.99 118.83C240.5 117.72 237.45 119.32 236.11 121.7C234.77 124.08 234.76 126.96 235 129.68C235.91 140.05 240.98 149.86 247.7 157.81C247.72 157.83 247.53 172.75 259.08 194.72Z" fill="#FFC9E6"/>
<path d="M242.86 118.461C243.76 129.031 247.74 139.321 254.19 147.731C254.91 148.661 255.69 149.611 256.76 150.091C257.83 150.581 260.05 149.681 260.77 148.751C261.52 147.771 261.23 146.381 260.9 145.201C259.11 138.721 257.33 132.241 255.54 125.761" stroke="black" stroke-miterlimit="10" stroke-linecap="round" stroke-linejoin="round"/>
<path d="M274.19 126.49C275.3 131.32 276.97 136.81 279.16 141.25C273.83 145.06 271.02 151.61 270.68 158.15C270.34 164.69 272.1 171.16 274.28 177.34" stroke="black" stroke-miterlimit="10" stroke-linecap="round" stroke-linejoin="round"/>
<path d="M244.82 153.14C245.58 154.55 249.15 157.95 250.61 157.28C252.41 156.47 253.57 155.67 253.73 154.07C253.9 152.47 253.55 148.5 253.21 146.93" stroke="black" stroke-miterlimit="10" stroke-linecap="round" stroke-linejoin="round"/>
<path d="M250.38 108.811C252.64 112.021 259.54 120.821 259.55 125.561" stroke="black" stroke-miterlimit="10" stroke-linecap="round" stroke-linejoin="round"/>
<path d="M277.6 102.891C275.96 104.741 275.51 107.561 276.5 109.831C277.49 112.101 279.86 113.691 282.33 113.761C280.73 110.421 279.21 106.221 277.6 102.891Z" stroke="black" stroke-miterlimit="10" stroke-linecap="round" stroke-linejoin="round"/>
<path d="M240.08 62.4492C238.78 66.7492 241.2 71.8492 245.36 73.5592C244.4 69.6092 242.89 65.3792 240.08 62.4492Z" stroke="black" stroke-miterlimit="10" stroke-linecap="round" stroke-linejoin="round"/>
<path d="M251.62 145.151L255.08 143.221C256.17 142.611 257.7 142.961 258.21 143.931C259.29 146.021 260.68 149.171 259.56 149.741C256.37 151.351 251.62 145.151 251.62 145.151Z" fill="#FFC9E6" stroke="black" stroke-miterlimit="10"/>
<path d="M242.9 150.931L246.36 148.461C247.45 147.681 248.98 148.131 249.49 149.371C250.57 152.041 251.96 156.081 250.84 156.801C247.66 158.851 242.9 150.931 242.9 150.931Z" fill="#FFC9E6" stroke="black" stroke-miterlimit="10"/>
<path d="M442.75 236.24C446.72 241.18 453.09 244.1 459.42 243.87C465.75 243.65 471.9 240.29 475.52 235.09" stroke="white" stroke-width="2" stroke-miterlimit="10" stroke-linecap="round" stroke-linejoin="round"/>
<path d="M678.63 650.029C691.53 662.549 699.23 680.279 699.57 698.249" stroke="black" stroke-miterlimit="10" stroke-linecap="round" stroke-linejoin="round"/>
<path d="M698.18 654.91C704.08 666.99 707.45 680.3 708 693.74" stroke="black" stroke-miterlimit="10" stroke-linecap="round" stroke-linejoin="round"/>
<path d="M294.45 116.359C298.21 123.979 300.66 132.239 301.66 140.679" stroke="black" stroke-miterlimit="10" stroke-linecap="round" stroke-linejoin="round"/>
<path d="M301.11 112.619C303.17 117.739 305.22 122.869 307.28 127.989" stroke="black" stroke-miterlimit="10" stroke-linecap="round" stroke-linejoin="round"/>
</svg>
