<svg width="462" height="814" viewBox="0 0 462 814" fill="none" xmlns="http://www.w3.org/2000/svg">
<path d="M173.061 105.08C176.981 97.9104 186.35 95.1404 194.38 96.6604C202.41 98.1804 209.34 103.1 215.68 108.26C229.05 119.13 241.091 131.61 254.781 142.07C268.471 152.53 284.351 161.08 301.531 162.41C307.341 139.29 313.14 116.17 318.95 93.0504C320.87 85.4104 322.941 77.4804 328.051 71.4904C337.961 59.9004 355.4 59.4304 370.65 59.8804C382.55 60.2304 394.68 60.6204 405.92 64.5404C417.16 68.4604 427.611 76.5104 431.361 87.8204C434.941 98.5904 431.971 110.51 427.111 120.77C422.251 131.03 418.561 141.37 414.101 151.81C408.721 164.43 389.38 198.72 397.16 187.43C399.94 183.39 376.431 225.12 364.781 235.31C354.001 244.75 337.86 245.7 323.75 243.18C309.64 240.66 296.54 234.33 283.67 228.04C250.69 211.93 232.79 185.64 199.99 169.17" fill="#5C04A0"/>
<path opacity="0.15" d="M187.9 101.291C194.02 100.131 199.921 103.831 204.831 107.671C228.161 125.881 248.351 148.231 275.101 160.891" stroke="white" stroke-width="2" stroke-miterlimit="10"/>
<path opacity="0.15" d="M192.69 109.48C212.73 127.36 232.771 145.25 252.801 163.13C258.421 168.15 264.571 173.41 272.071 174.21" stroke="white" stroke-width="2" stroke-miterlimit="10"/>
<path opacity="0.15" d="M205.791 134.939C215.851 143.259 225.971 153.919 236.011 163.229C246.291 172.769 254.531 186.189 268.401 188.269" stroke="white" stroke-width="2" stroke-miterlimit="10"/>
<path opacity="0.15" d="M229.9 173.99C240.86 185.83 253.96 195.67 268.38 202.9" stroke="white" stroke-width="2" stroke-miterlimit="10"/>
<path d="M132.53 34.1699C132.3 34.3399 102.22 57.2199 95.0004 148.06C89.8904 212.24 64.0004 281.06 31.0004 299.06C-1.99964 317.06 -9.99964 370.06 14.0004 394.06C44.5004 424.56 115 437.06 140 369.06C165 301.06 165 147.06 164 144.06C163 141.06 164 66.0599 164 66.0599V39.0599L132.53 34.1699Z" fill="#1B0042"/>
<path d="M201.48 639.84C201.48 642.22 183.26 738.88 183.26 738.88H141.271L160.291 636.67H201.49" fill="#FFC9E6"/>
<path d="M195.371 674.059L153.801 671.449L141.261 738.879L184.041 738.079L195.371 674.059Z" fill="#FCA1BB"/>
<path d="M231.111 277.25C240.961 394.27 235.021 512.6 213.491 628.05C212.421 633.79 211.251 639.7 208.051 644.59C202.521 653.07 191.751 656.94 181.621 656.8C173.981 656.7 166.561 654.68 159.301 652.21C154.991 650.75 151.961 646.83 151.711 642.29C147.521 565.2 181.151 488.17 173.761 411.15C169.231 363.96 149.931 317.7 155.691 270.64C181.981 268.76 205.481 271.09 231.111 277.25Z" fill="#151614"/>
<path d="M188.08 711.89C194.28 707.4 194.16 697.52 199.96 692.55C205.89 687.48 215.461 685.74 221.371 690.83C226.161 694.95 227.09 702.28 225.25 708.33C223.4 714.38 219.3 719.44 215.22 724.27C232.8 735.97 252.13 744.48 272.64 749.48C282.13 751.79 291.85 753.36 301.01 756.78C310.16 760.2 318.92 765.77 323.91 774.17C327.68 780.53 330.62 789.63 329.09 796.91C328.31 800.61 325.12 803.33 321.35 803.64C258.62 808.87 220.11 806.34 125.02 795.52C120.69 765.58 130.63 727.67 148.51 705.26C148.5 705.26 162.41 730.47 188.08 711.89Z" fill="white" stroke="black" stroke-miterlimit="10"/>
<path d="M327.061 783.641C327.061 783.641 178.581 788.47 124.471 772.98Z" fill="white"/>
<path d="M327.061 783.641C327.061 783.641 178.581 788.47 124.471 772.98" stroke="black" stroke-miterlimit="10"/>
<path d="M264.611 748.04C255.511 754.35 243.22 754.49 232.72 750.97C222.22 747.45 213.14 740.73 204.4 733.93C208.44 730.37 212.47 726.8 216.51 723.24" stroke="black" stroke-miterlimit="10"/>
<path d="M246.541 741.57C241.961 745.92 238.59 749.82 232.44 751.27" stroke="black" stroke-miterlimit="10"/>
<path d="M231.17 733.039C226.78 737.239 221.7 740.729 216.2 743.319" stroke="black" stroke-miterlimit="10"/>
<path d="M216.54 782.93C211.72 772.62 200.83 766.5 189.97 763.11C179.11 759.72 167.62 758.35 157.08 754.06C146.54 749.77 136.57 741.6 134.45 730.42" stroke="black" stroke-miterlimit="10"/>
<path d="M202.81 783.76C196.21 776.94 186.79 773.63 177.51 771.65C168.23 769.67 158.67 768.76 149.71 765.65C140.74 762.54 132.13 756.75 128.45 748" stroke="black" stroke-miterlimit="10"/>
<path d="M194.16 680.869L152.591 677.959L151.4 684.359L192.94 687.769L194.16 680.869Z" fill="#151614"/>
<path d="M192.581 690.379L150.22 687.459L149.021 693.869L191.361 697.279L192.581 690.379Z" fill="white"/>
<path d="M144.48 646.84C144.48 649.22 126.26 745.88 126.26 745.88H84.2705L103.291 643.67H144.49" fill="#FFC9E6"/>
<path d="M138.371 681.061L96.8008 678.451L84.2607 745.881L127.041 745.081L138.371 681.061Z" fill="#FCA1BB"/>
<path d="M174.111 284.25C183.961 401.27 178.021 519.6 156.491 635.05C155.421 640.79 154.251 646.7 151.051 651.59C145.521 660.07 134.751 663.94 124.621 663.8C116.981 663.7 109.561 661.68 102.301 659.21C97.9906 657.75 94.9605 653.83 94.7105 649.29C90.5205 572.2 124.151 495.17 116.761 418.15C112.231 370.96 94.9305 285.7 100.691 238.64C126.981 236.76 148.481 278.09 174.111 284.25Z" fill="#151614"/>
<path d="M131.08 718.89C137.28 714.4 137.16 704.52 142.96 699.55C148.89 694.48 158.461 692.74 164.371 697.83C169.161 701.95 170.09 709.28 168.25 715.33C166.4 721.38 162.3 726.44 158.22 731.27C175.8 742.97 195.13 751.48 215.64 756.48C225.13 758.79 234.85 760.36 244.01 763.78C253.16 767.2 261.92 772.77 266.91 781.17C270.68 787.53 273.62 796.63 272.09 803.91C271.31 807.61 268.12 810.33 264.35 810.64C201.62 815.87 163.11 813.34 68.0204 802.52C63.6904 772.58 73.6304 734.67 91.5104 712.26C91.5004 712.26 105.41 737.47 131.08 718.89Z" fill="white" stroke="black" stroke-miterlimit="10"/>
<path d="M270.061 790.641C270.061 790.641 121.581 795.47 67.4707 779.98Z" fill="white"/>
<path d="M270.061 790.641C270.061 790.641 121.581 795.47 67.4707 779.98" stroke="black" stroke-miterlimit="10"/>
<path d="M207.611 755.04C198.511 761.35 186.22 761.49 175.72 757.97C165.22 754.45 156.14 747.73 147.4 740.93C151.44 737.37 155.47 733.8 159.51 730.24" stroke="black" stroke-miterlimit="10"/>
<path d="M189.541 748.57C184.961 752.92 181.59 756.82 175.44 758.27" stroke="black" stroke-miterlimit="10"/>
<path d="M174.17 740.039C169.78 744.239 164.7 747.729 159.2 750.319" stroke="black" stroke-miterlimit="10"/>
<path d="M159.54 789.93C154.72 779.62 143.83 773.5 132.97 770.11C122.11 766.72 110.62 765.35 100.08 761.06C89.5403 756.77 79.5702 748.6 77.4502 737.42" stroke="black" stroke-miterlimit="10"/>
<path d="M145.81 790.76C139.21 783.94 129.79 780.63 120.51 778.65C111.23 776.67 101.67 775.76 92.7102 772.65C83.7402 769.54 75.1302 763.75 71.4502 755" stroke="black" stroke-miterlimit="10"/>
<path d="M137.16 687.871L95.5906 684.961L94.4004 691.361L135.94 694.771L137.16 687.871Z" fill="#151614"/>
<path d="M135.581 697.381L93.2205 694.461L92.0205 700.871L134.361 704.281L135.581 697.381Z" fill="white"/>
<path d="M176.91 84.2194C183.54 87.0894 192.33 89.8794 198.38 85.9394C203.4 82.6794 204.88 76.0994 205.72 70.1794C206.71 63.2194 204.98 55.8494 202.17 49.4094C198.85 41.7694 193.67 36.8694 186.13 33.3194C176.94 28.9994 166.57 25.9594 156.67 28.2394C146.77 30.5194 137.91 39.5394 138.75 49.6594C132.13 51.1194 127.81 59.0794 130.18 65.4294C132.56 71.7794 141.05 74.9394 147 71.6894C149.21 79.8094 144.14 82.6194 145.68 87.9494C147.21 93.2794 151.1 98.0094 156.27 100.019C160.57 101.689 169.86 102.579 173.55 98.9994C176.82 95.8194 175.39 88.3294 176.91 84.2194Z" fill="#FFC9E6"/>
<path d="M199.67 44.7109L186.77 36.7109C186.77 36.7109 160.68 57.2609 140.92 50.9409C140.92 50.9409 132.37 47.5909 129.53 59.1409C129.53 59.1409 121.16 37.5009 140.92 27.2209C160.68 16.9409 199.14 20.3009 199.67 44.7109Z" fill="#1B0042"/>
<path d="M177.29 84.1491L158.32 77.0391C158.32 77.0391 165.63 87.3191 175.81 94.4291L177.29 84.1491Z" fill="black"/>
<path d="M143.17 68.7695C144.18 66.2995 143.99 63.3794 142.68 61.0594C141.36 58.7394 138.95 57.0795 136.32 56.6895" stroke="black" stroke-miterlimit="10" stroke-linecap="round" stroke-linejoin="round"/>
<path d="M142.69 61.9102C140.52 62.2102 138.54 63.6102 137.54 65.5602" stroke="black" stroke-miterlimit="10" stroke-linecap="round" stroke-linejoin="round"/>
<path d="M151.75 61.0798C150.39 54.9798 144.561 50.1798 138.311 50.0098" stroke="black" stroke-miterlimit="10" stroke-linecap="round" stroke-linejoin="round"/>
<path d="M190.76 51.2402C191.75 55.3502 193.2 59.3502 195.07 63.1502C192.94 63.3202 190.819 63.5002 188.689 63.6702" stroke="black" stroke-miterlimit="10" stroke-linecap="round" stroke-linejoin="round"/>
<path d="M175.18 52.8497C176.61 51.5897 180.04 51.2196 181.95 51.1996C183.85 51.1796 185.76 51.8596 187.22 53.0896C185.67 54.4196 184.76 55.7596 182.05 55.8096C178.23 55.8796 176.71 54.1997 175.18 52.8497Z" stroke="black" stroke-miterlimit="10" stroke-linecap="round" stroke-linejoin="round"/>
<path d="M185.19 54.9002C186.063 54.9002 186.77 54.1928 186.77 53.3202C186.77 52.4476 186.063 51.7402 185.19 51.7402C184.318 51.7402 183.61 52.4476 183.61 53.3202C183.61 54.1928 184.318 54.9002 185.19 54.9002Z" fill="black"/>
<path d="M194.22 53.2799C195.31 52.2999 197.94 51.9699 199.4 51.9299C200.86 51.8899 202.34 52.3999 203.47 53.3199C202.3 54.3599 201.61 55.3999 199.52 55.4699C196.61 55.5799 195.42 54.2999 194.22 53.2799Z" stroke="black" stroke-miterlimit="10" stroke-linecap="round" stroke-linejoin="round"/>
<path d="M201 54.9002C201.873 54.9002 202.58 54.1928 202.58 53.3202C202.58 52.4476 201.873 51.7402 201 51.7402C200.127 51.7402 199.42 52.4476 199.42 53.3202C199.42 54.1928 200.127 54.9002 201 54.9002Z" fill="black"/>
<path d="M199.42 72.2898C199.42 72.2898 196.261 66.7598 187.561 72.2898H199.42Z" fill="black" stroke="black" stroke-miterlimit="10"/>
<path d="M199.419 72.2891C199.419 72.2891 198.629 76.2391 195.469 76.2391C192.309 76.2391 186.77 72.2891 186.77 72.2891H199.419Z" stroke="black" stroke-miterlimit="10" stroke-linecap="round" stroke-linejoin="round"/>
<path d="M186.32 46.2408C183.36 44.7308 179.709 44.6508 176.689 46.0408" stroke="black" stroke-miterlimit="10" stroke-linecap="round" stroke-linejoin="round"/>
<path d="M202.97 47.2305C200.98 45.6005 197.85 45.5805 195.84 47.1805" stroke="black" stroke-miterlimit="10" stroke-linecap="round" stroke-linejoin="round"/>
<path d="M174.48 105.63C180.2 101.93 188.19 104.03 193.22 108.63C198.24 113.23 200.99 119.73 203.59 126.03C209.27 139.78 223.95 149.54 229.64 163.29C232.04 169.09 228 178.06 224.2 185.49C221.34 191.08 216.15 197.01 210.43 194.41C206.36 202.04 209.96 211.3 213.25 219.29C216.54 227.28 219.27 237.14 213.99 243.98C209.63 249.62 201.41 250.67 194.39 249.41C187.37 248.15 180.74 245.06 173.67 244.13C150.08 241.04 127.37 262.19 104.34 256.23C97.0305 254.34 90.1503 249.19 88.1303 241.92C85.4003 232.12 91.9803 222.17 99.3803 215.18C106.78 208.19 115.66 202.08 119.69 192.74C116.71 169.75 117.43 146.28 121.8 123.52C122.8 118.3 124.1 112.91 127.51 108.83C130.92 104.75 137.05 102.47 141.71 105.02L174.48 105.63Z" fill="#5C04A0"/>
<path opacity="0.15" d="M147.051 101.879C153.591 108.789 155.891 118.679 156.591 128.169C157.291 137.649 156.661 147.279 158.511 156.599C159.821 163.189 162.351 169.499 163.601 176.099C164.851 182.699 164.691 189.969 161.001 195.579C158.631 199.179 161.391 203.819 164.281 207.009" stroke="white" stroke-width="2" stroke-miterlimit="10"/>
<path opacity="0.15" d="M160.42 101.779C164.31 106.269 166 112.279 166.75 118.169C167.5 124.069 167.41 130.049 168.32 135.929C169.8 145.599 173.9 154.649 176.85 163.979C179.8 173.309 181.59 183.529 178.41 192.789C177.3 196.019 178.86 200.359 181.88 201.959" stroke="white" stroke-width="2" stroke-miterlimit="10"/>
<path opacity="0.15" d="M174.041 107.84C178.081 111.97 180.081 117.7 181.101 123.38C182.121 129.07 182.291 134.88 183.291 140.57C185.051 150.57 189.341 159.91 192.801 169.46C196.261 179 198.951 189.22 197.331 199.24" stroke="white" stroke-width="2" stroke-miterlimit="10"/>
<path opacity="0.15" d="M180.61 103.959C187.71 111.229 190.88 121.419 193.04 131.339C195.2 141.269 196.64 151.529 201.17 160.619C203.58 165.439 206.8 169.819 209.27 174.609C211.74 179.399 213.46 184.849 212.5 190.149" stroke="white" stroke-width="2" stroke-miterlimit="10"/>
<path opacity="0.15" d="M197.61 121.369C197.99 132.519 205.83 143.299 212.58 152.189C219.33 161.079 226.51 170.459 227.77 181.549" stroke="white" stroke-width="2" stroke-miterlimit="10"/>
<path d="M146.55 136.761C146.33 155.671 146.12 174.581 145.9 193.491C145.84 198.531 146.11 204.301 150.02 207.481C152.37 209.391 155.55 209.891 158.58 210.031C174.62 210.771 189.78 203.551 204.96 198.311C220.14 193.071 237.81 189.991 251.57 198.261C264.39 205.971 270.29 221.751 271.06 236.691C272.33 261.041 261.51 286.091 241.88 300.541C222.25 315.001 194.13 317.661 172.87 305.711C151.49 293.691 139.05 269.541 117.66 257.561C111.09 253.881 103.72 251.371 98.2001 246.261C87.0801 235.961 86.8101 218.291 90.9001 203.701C94.9901 189.101 102.57 175.441 104.56 160.421C105.71 151.771 104.95 142.981 105.42 134.261C105.89 125.541 107.79 116.491 113.39 109.791C118.69 103.451 131.46 98.3507 138.99 103.811C147.49 109.981 146.65 127.711 146.55 136.761Z" fill="#5C04A0"/>
<path opacity="0.15" d="M115.07 106.41C118.91 138.47 114.88 171.45 103.42 201.64C101.35 207.1 98.9999 212.88 100.22 218.59C101.51 224.62 106.58 229.17 112.07 231.98C117.56 234.79 123.62 236.28 129.24 238.81C141.01 244.1 150.27 253.61 159.15 262.98C168.03 272.35 177.1 281.99 188.7 287.65C200.3 293.31 215.18 294.17 225.43 286.33" stroke="white" stroke-width="2" stroke-miterlimit="10"/>
<path opacity="0.15" d="M122.51 102.6C130.74 129.77 131.78 159.08 125.5 186.76C123.68 194.76 121.42 203.76 125.82 210.68C128.75 215.29 133.99 217.8 138.96 220.07C159.93 229.67 180.9 239.28 201.87 248.88" stroke="white" stroke-width="2" stroke-miterlimit="10"/>
<path opacity="0.15" d="M131.71 99.9004C140.07 107.12 141.23 119.43 141.79 130.46C142.55 145.38 143.31 160.3 144.07 175.22C144.51 183.81 145.15 193 150.42 199.8C157.09 208.43 169.29 210.65 180.17 209.8C191.05 208.95 201.73 205.69 212.64 206.01C223.55 206.32 235.46 211.47 239.07 221.76" stroke="white" stroke-width="2" stroke-miterlimit="10"/>
<path opacity="0.15" d="M132.62 269.51C140.58 275.78 156.77 284.35 164.5 290.9C180 304.06 191 310.06 202.5 310.78C216.46 311.66 230.98 307.94 238.98 296.45C249 282.06 243.3 273.76 241.36 267.26" stroke="white" stroke-width="2" stroke-miterlimit="10"/>
<path d="M90.0502 227.85C89.8502 236.45 111.87 253.96 119.48 257.96" stroke="white" stroke-width="2" stroke-miterlimit="10" stroke-linecap="round" stroke-linejoin="round"/>
<path d="M177.2 98.5293C181.94 97.0793 187.02 100.269 189.78 104.389C192.54 108.509 193.7 113.469 195.66 118.019C199.2 126.229 205.29 133.029 211.15 139.779C217.01 146.529 224.88 151.599 227.79 160.049C230.71 168.499 230.11 178.729 224.07 185.319C218.02 191.909 205.89 192.659 200.61 185.449" stroke="white" stroke-width="2" stroke-miterlimit="10" stroke-linecap="round" stroke-linejoin="round"/>
<path d="M150.84 191.041C154.47 195.441 166.88 196.321 172.31 194.551C177.74 192.791 185.83 187.501 186.18 181.811" stroke="white" stroke-width="2" stroke-miterlimit="10" stroke-linecap="round" stroke-linejoin="round"/>
<path d="M141.44 106.71C146.39 112.18 154.82 112.98 162.01 111.36C166.4 110.37 170.73 108.55 173.89 105.34C177.05 102.13 178.84 97.3699 177.71 93.0099C173.23 97.8999 165.18 96.8499 159.2 93.9899C154.15 91.5699 146.41 84.3899 140.97 88.3499C135.75 92.1499 137.86 102.76 141.44 106.71Z" fill="#5C04A0"/>
<path opacity="0.15" d="M142.95 108.67C141.03 101.65 141.81 93.9297 145.08 87.4297" stroke="white" stroke-width="2" stroke-miterlimit="10"/>
<path opacity="0.15" d="M149.49 111.71C149.86 104.64 150.23 97.5602 150.6 90.4902" stroke="white" stroke-width="2" stroke-miterlimit="10"/>
<path opacity="0.15" d="M157.969 112.101C158.299 106.191 158.14 100.261 157.49 94.3809C157.42 94.8609 157.35 95.3309 157.27 95.8109" stroke="white" stroke-width="2" stroke-miterlimit="10"/>
<path opacity="0.15" d="M167.57 109.83C167.64 105.28 166.69 100.72 164.81 96.5898" stroke="white" stroke-width="2" stroke-miterlimit="10"/>
<path opacity="0.15" d="M175.51 103.009C175.54 100.499 174.55 97.9992 172.8 96.1992" stroke="white" stroke-width="2" stroke-miterlimit="10"/>
<path d="M270.16 223.06C261.32 189.06 225.03 193.37 225.03 193.37C211.53 196.94 184.03 202.51 170.53 206.09C165.36 207.46 159.66 208.78 154.85 206.44C147.02 202.62 146.31 191.93 146.7 183.22C147.42 167.31 148.13 151.41 148.85 135.5C149.34 124.52 149.13 111.85 140.66 104.84" stroke="white" stroke-width="2" stroke-miterlimit="10" stroke-linecap="round" stroke-linejoin="round"/>
<path d="M278.09 237.811C270.87 237.811 265 231.941 265 224.721V54.9005C265 47.6805 270.87 41.8105 278.09 41.8105H447.91C455.13 41.8105 461 47.6805 461 54.9005V224.721C461 231.941 455.13 237.811 447.91 237.811H278.09Z" fill="white"/>
<path d="M447.91 42.8105C454.58 42.8105 460 48.2305 460 54.9005V224.721C460 231.391 454.58 236.811 447.91 236.811H278.09C271.42 236.811 266 231.391 266 224.721V54.9005C266 48.2305 271.42 42.8105 278.09 42.8105H447.91ZM447.91 40.8105H278.09C270.31 40.8105 264 47.1205 264 54.9005V224.721C264 232.501 270.31 238.811 278.09 238.811H447.91C455.69 238.811 462 232.501 462 224.721V54.9005C462 47.1205 455.69 40.8105 447.91 40.8105Z" fill="black"/>
<path d="M264 66.3105H462" stroke="black" stroke-width="2" stroke-miterlimit="10"/>
<path d="M322.54 140.591H289.34C286.9 140.591 284.92 138.611 284.92 136.171V102.971C284.92 100.531 286.9 98.5508 289.34 98.5508H322.54C324.98 98.5508 326.96 100.531 326.96 102.971V136.171C326.95 138.611 324.98 140.591 322.54 140.591Z" fill="white" stroke="black" stroke-width="2" stroke-miterlimit="10"/>
<path d="M380.101 140.591H346.9C344.46 140.591 342.48 138.611 342.48 136.171V102.971C342.48 100.531 344.46 98.5508 346.9 98.5508H380.101C382.541 98.5508 384.521 100.531 384.521 102.971V136.171C384.511 138.611 382.541 140.591 380.101 140.591Z" fill="white" stroke="black" stroke-width="2" stroke-miterlimit="10"/>
<path d="M437.66 140.591H404.46C402.02 140.591 400.04 138.611 400.04 136.171V102.971C400.04 100.531 402.02 98.5508 404.46 98.5508H437.66C440.1 98.5508 442.08 100.531 442.08 102.971V136.171C442.07 138.611 440.1 140.591 437.66 140.591Z" fill="white" stroke="black" stroke-width="2" stroke-miterlimit="10"/>
<path d="M322.54 199.061H289.34C286.9 199.061 284.92 197.082 284.92 194.642V161.441C284.92 159.001 286.9 157.021 289.34 157.021H322.54C324.98 157.021 326.96 159.001 326.96 161.441V194.642C326.95 197.082 324.98 199.061 322.54 199.061Z" fill="white" stroke="black" stroke-width="2" stroke-miterlimit="10"/>
<path d="M380.101 199.061H346.9C344.46 199.061 342.48 197.082 342.48 194.642V161.441C342.48 159.001 344.46 157.021 346.9 157.021H380.101C382.541 157.021 384.521 159.001 384.521 161.441V194.642C384.511 197.082 382.541 199.061 380.101 199.061Z" fill="white" stroke="black" stroke-width="2" stroke-miterlimit="10"/>
<path d="M437.66 199.061H404.46C402.02 199.061 400.04 197.082 400.04 194.642V161.441C400.04 159.001 402.02 157.021 404.46 157.021H437.66C440.1 157.021 442.08 159.001 442.08 161.441V194.642C442.07 197.082 440.1 199.061 437.66 199.061Z" fill="white" stroke="black" stroke-width="2" stroke-miterlimit="10"/>
<path d="M330.84 40.3393C330.32 35.3193 333.75 30.1693 338.57 28.7093C343.4 27.2393 349.1 29.6193 351.46 34.0793C351.67 29.6193 355.68 25.6693 360.14 25.5293C364.6 25.3893 368.85 29.0693 369.35 33.5093C368.63 29.5993 370.97 27.6893 374.89 27.0193C378.81 26.3493 382.84 28.4093 385.36 31.4793C387.88 34.5593 386.99 34.0593 390.73 40.4293" fill="#FFC9E6"/>
<path d="M334.02 38.5504C335.18 45.1404 338.359 50.7904 340.929 56.9604C343.499 63.1304 350.629 69.8704 356.459 73.1604C358.649 74.3904 361.58 75.1804 363.51 73.5904C364.9 72.4404 365.25 70.3804 364.85 68.6204C364.45 66.8604 363.439 65.3104 362.479 63.7804C356.959 54.8904 353.9 45.0904 351.51 34.9004" fill="#FFC9E6"/>
<path d="M353.02 37.5504C354.38 44.1404 357.1 50.7904 360.12 56.9604C363.14 63.1304 369.149 69.8704 375.979 73.1604C378.539 74.3904 381.98 75.1804 384.25 73.5904C385.88 72.4404 386.29 70.3804 385.82 68.6204C385.35 66.8604 384.16 65.3104 383.05 63.7804C376.58 54.8904 372.989 45.0904 370.189 34.9004" fill="#FFC9E6"/>
<path d="M372.02 38.5508C374 46.0608 376.999 54.0608 380.929 58.9608C385.119 64.1708 388.629 70.8708 394.459 74.1608C396.649 75.3908 399.58 76.1808 401.51 74.5908C402.9 73.4408 404.25 70.3808 403.85 68.6208C403.45 66.8608 401.149 62.4508 400.479 60.7808C396.999 52.0708 394 49.0708 390.51 39.9008" fill="#FFC9E6"/>
<path d="M351.25 32.8398C353.07 36.0398 355 51.0598 363 66.0598" stroke="black" stroke-miterlimit="10" stroke-linecap="round" stroke-linejoin="round"/>
<path d="M366.9 28.1406C370.5 36.5606 377.5 55.5606 382.95 64.1906" stroke="black" stroke-miterlimit="10" stroke-linecap="round" stroke-linejoin="round"/>
<path d="M360.53 61.3594C358.17 61.9494 355.81 62.5394 353.46 63.1294C354.71 65.7894 356.36 68.3394 358.54 70.3094C359.22 70.9294 359.97 71.5194 360.86 71.7694C361.75 72.0194 362.8 71.8694 363.41 71.1694C364.1 70.3894 364.03 69.1994 363.83 68.1794C363.33 65.7094 362.07 63.3594 360.53 61.3594Z" stroke="black" stroke-miterlimit="10"/>
<path d="M380.77 60.9395C378.27 61.9095 375.58 62.3895 372.89 62.3495C373.98 66.1895 376.9 69.3695 380.65 70.7495C382.01 71.2495 383.86 71.3295 384.56 70.0695C385.02 69.2395 384.73 68.2095 384.39 67.3295C383.52 65.1295 382.3 62.7295 380.77 60.9395Z" stroke="black" stroke-miterlimit="10"/>
<path d="M398.44 60.6406C396.29 61.8406 392.79 62.4006 390.33 62.2406C391.16 66.0106 394.38 69.5906 397.98 70.9906C399.27 71.4906 401.1 71.5606 401.65 70.2906C401.99 69.5106 402.64 68.6206 402.28 67.8606C401.16 65.5106 399.93 62.7906 398.44 60.6406Z" stroke="black" stroke-miterlimit="10"/>
<path d="M242.051 269.439C241.541 277.069 235.13 283.669 227.64 285.189C220.14 286.699 212.091 283.479 207.061 277.709C202.031 271.939 199.911 263.969 200.551 256.349C201.191 248.729 204.41 241.469 208.92 235.299C213.7 228.769 220.4 223.129 228.4 221.889C236.4 220.659 245.54 225.079 247.64 232.889" stroke="white" stroke-width="2" stroke-miterlimit="10" stroke-linecap="round" stroke-linejoin="round"/>
<path d="M228.179 246.4C228.429 241.1 231.939 236.49 236.999 234.87C245.139 232.27 254.61 233.15 263.09 235.34C274.75 238.36 285.04 235.49 297.08 235.95C306.01 236.29 315.93 242.02 324.82 242.9C333.71 243.78 346.06 244.07 347.1 252.95C356.06 250.89 360.379 248.77 368.799 245.09C377.219 241.41 391.019 239.08 400.209 238.77C407.529 238.52 414.559 239.64 419.979 243.78C421.649 245.05 420.869 247.72 418.789 247.97C387.679 251.67 373 275.06 335.56 278.89C318.18 280.67 295.249 273.63 277.989 270.93C264.319 268.79 242.79 268.25 232.58 270.49C229.76 271.11 227.109 268.92 227.249 266.04L228.179 246.4Z" fill="#FFC9E6"/>
<path d="M347.539 255.459C338.079 261.389 308.079 259.869 296.959 258.849" stroke="black" stroke-miterlimit="10" stroke-linecap="round" stroke-linejoin="round"/>
<path d="M404.749 249.04C403.619 247.55 403.27 245.51 403.84 243.73C407.8 242.41 412.139 242.3 416.159 243.4C416.979 243.62 417.83 243.93 418.37 244.59C418.91 245.25 418.979 246.36 418.299 246.87C418.009 247.09 417.639 247.17 417.279 247.24C413.039 248.08 408.799 248.92 404.569 249.77" stroke="black" stroke-miterlimit="10" stroke-linecap="round" stroke-linejoin="round"/>
<path d="M331.35 259.25C331.62 257.72 330.88 256.22 330.44 254.72C330 253.23 329.99 251.33 331.26 250.43C331.92 249.96 332.78 249.89 333.59 249.83C335.27 249.71 336.96 249.6 338.64 249.48C340.8 249.33 343.12 249.22 344.98 250.33C346.84 251.45 347.78 254.31 346.22 255.82" stroke="black" stroke-miterlimit="10" stroke-linecap="round" stroke-linejoin="round"/>
<path d="M331.51 44.9701C333.51 44.0801 335.47 42.8901 336.66 41.0601C337.85 39.2301 338.09 36.6401 336.74 34.9201C335.71 33.6101 334.03 33.0501 332.42 32.6201C328.76 31.6401 325 31.0101 321.21 30.7401C318.09 30.5201 314.86 30.5601 311.94 31.7001C309.02 32.8401 306.45 35.2601 305.87 38.3401C303.63 50.2601 325.71 47.5501 331.51 44.9701Z" fill="#FFC9E6"/>
<path d="M325.88 45.1696L326.04 36.0996C326.04 36.0996 337.55 33.5696 336.61 38.4896C335.67 43.4096 325.88 45.1696 325.88 45.1696Z" stroke="black" stroke-miterlimit="10"/>
<path d="M191 327.061C191 327.061 200 473.061 155.03 647.671" stroke="white" stroke-width="2" stroke-miterlimit="10" stroke-linecap="round" stroke-linejoin="round"/>
<path d="M121.801 47.0301C113.771 43.1001 109.101 33.3201 111.081 24.6001C113.061 15.8801 121.51 9.09008 130.45 9.02008C139.39 8.95008 147.941 15.6001 150.071 24.2901" fill="#1B0042"/>
<path d="M378.14 6.35962C387.72 5.01962 397.4 13.7196 397.1 23.3796C397.24 22.3796 397.38 21.3896 397.52 20.3896" stroke="black" stroke-miterlimit="10" stroke-linecap="round" stroke-linejoin="round"/>
<path d="M391.87 0.759766C400.67 1.41977 408.35 9.30977 408.75 18.1298" stroke="black" stroke-miterlimit="10" stroke-linecap="round" stroke-linejoin="round"/>
</svg>
