<svg width="133" height="70" viewBox="0 0 133 70" fill="none" xmlns="http://www.w3.org/2000/svg">
<g clip-path="url(#clip0)">
<path d="M92.434 19.291C92.4741 19.3424 87.9984 22.7912 92.4741 29.8361C96.9497 36.881 97.6484 38.0312 97.6484 38.0312L105.201 36.4491L92.434 19.291Z" fill="#F52D44"/>
<path d="M103.667 34.7249C102.709 34.7249 101.605 34.3442 100.383 33.5928L99.8216 29.7403C99.8148 29.69 99.7808 29.648 99.7332 29.6296C99.7161 29.6229 99.6991 29.6195 99.6804 29.6195C99.6481 29.6195 99.6158 29.6296 99.5902 29.6514L98.0334 30.8992C97.882 31.02 97.6914 31.0871 97.4958 31.0871C97.2508 31.0871 97.0177 30.9831 96.856 30.8019C95.2771 29.0191 91.8215 24.5175 93.8088 21.2537C95.3503 18.7211 97.4549 18.1895 98.9488 18.1895C99.7774 18.1895 100.346 18.3589 100.351 18.3605C100.356 18.3622 100.361 18.3639 100.368 18.3639C100.405 18.3706 104.145 19.1086 105.249 23.4642C106.313 27.6606 107.265 30.5487 107.381 30.8942C107.305 31.2732 106.53 34.7249 103.667 34.7249Z" fill="#FEC5A7"/>
<path d="M92.6033 16.037C91.7197 16.6916 91.1278 17.6873 91.0403 18.7864C90.9288 20.1731 91.579 21.8131 95.1321 22.068C101.447 22.5211 107.293 30.5694 107.293 30.5694C107.293 30.5694 114.339 28.5143 119.918 32.5195L109.036 19.3962C107.826 17.7717 106.315 16.3901 104.56 15.3858C101.646 13.7148 97.2939 12.5675 92.6033 16.037Z" fill="#F52D44"/>
<path d="M112.72 67.2446C109.144 67.2446 106.262 67.095 105.676 67.0627L104.565 61.4698C104.551 61.4018 104.492 61.356 104.426 61.356C104.42 61.356 104.413 61.356 104.404 61.3577L101.712 61.7638C101.095 57.8194 98.0567 53.3396 98.0263 53.2937C97.9993 53.2547 97.9554 53.2326 97.9098 53.2326C97.8997 53.2326 97.8895 53.2343 97.8811 53.236C97.8253 53.2479 97.7814 53.292 97.7713 53.3498C96.9014 58.0879 93.5873 61.446 90.9608 63.4293C88.395 65.3667 85.966 66.4067 85.4813 66.6039L78.4917 59.1586C79.2434 58.9699 81.6301 58.2833 84.1925 56.6485C87.042 54.8301 90.704 51.4294 91.9573 45.5646C93.1904 39.8018 95.4048 36.8838 97.0467 35.4495C98.6429 34.0542 100.02 33.7568 100.288 33.7109C101.361 34.3839 102.371 34.7255 103.291 34.7255C106.171 34.7255 107.053 31.398 107.23 30.8304C108.622 30.4888 110.278 30.3154 111.598 30.3154C117.289 30.3154 122.275 33.4577 126.417 39.6556C129.785 44.6962 131.704 50.4642 132.547 53.4552C133.589 57.1532 132.809 61.0942 130.457 63.9986C130.388 64.0836 130.317 64.1703 130.245 64.2552C128.125 66.7245 119.544 67.2446 112.72 67.2446Z" fill="#F7F7F7"/>
<path opacity="0.4" fill-rule="evenodd" clip-rule="evenodd" d="M114.66 40.8064C114.742 40.7628 114.844 40.7956 114.887 40.8798L121.902 54.6741C122.414 55.6787 121.882 56.9053 120.811 57.2L120.811 57.2001L104.323 61.726C104.233 61.7507 104.141 61.6964 104.117 61.6048C104.092 61.5132 104.146 61.419 104.236 61.3943L120.723 56.8684C121.587 56.6306 122.015 55.6416 121.603 54.8323L121.603 54.8323L114.588 41.038C114.545 40.9538 114.577 40.8501 114.66 40.8064Z" fill="#1F2B60"/>
<path opacity="0.4" fill-rule="evenodd" clip-rule="evenodd" d="M97.0283 41.3528C97.117 41.39 97.158 41.4907 97.12 41.5776L97.1198 41.5782L97.1186 41.581C97.1175 41.5835 97.1158 41.5876 97.1135 41.5931C97.1089 41.604 97.102 41.6208 97.093 41.6431C97.0751 41.6878 97.049 41.7548 97.0172 41.8428C96.9534 42.0188 96.8664 42.2785 96.7746 42.6105C96.5909 43.2747 96.3881 44.2273 96.3133 45.3772C96.1638 47.6761 96.5255 50.7618 98.572 53.9141C98.5722 53.9144 98.5724 53.9147 98.5727 53.9151L98.5739 53.9169L98.5812 53.9279C98.5876 53.9375 98.5971 53.9518 98.6094 53.9705C98.6341 54.008 98.6701 54.063 98.716 54.1339C98.8076 54.2757 98.9383 54.4809 99.0951 54.7351C99.4086 55.2434 99.8268 55.9485 100.245 56.7352C100.663 57.5215 101.083 58.392 101.399 59.2307C101.713 60.0661 101.93 60.8843 101.93 61.5613C101.93 61.6559 101.852 61.7326 101.755 61.7326C101.659 61.7326 101.581 61.6559 101.581 61.5613C101.581 60.9453 101.381 60.1727 101.071 59.3492C100.762 58.5291 100.35 57.6726 99.9354 56.8936C99.5213 56.115 99.107 55.4164 98.7961 54.9123C98.6407 54.6604 98.5113 54.4572 98.4208 54.3172C98.3755 54.2472 98.34 54.193 98.3159 54.1564C98.3038 54.138 98.2946 54.1241 98.2884 54.1148L98.2815 54.1044L98.2794 54.1012C98.2794 54.1012 98.2793 54.1011 98.4253 54.007L98.2793 54.1011L98.2779 54.099C96.1826 50.8721 95.8115 47.7098 95.9646 45.3554C96.0412 44.1786 96.2486 43.2031 96.4373 42.5209C96.5317 42.1797 96.6214 41.9117 96.6879 41.7282C96.7211 41.6364 96.7485 41.5658 96.7678 41.5178C96.7774 41.4937 96.785 41.4754 96.7903 41.4628C96.793 41.4565 96.795 41.4517 96.7965 41.4483L96.7981 41.4444L96.7986 41.4432L96.7988 41.4429C96.7988 41.4428 96.7989 41.4427 96.9594 41.5102L96.7989 41.4427C96.8369 41.3557 96.9396 41.3155 97.0283 41.3528Z" fill="#1F2B60"/>
<path d="M92.0627 66.8822C91.6747 67.2324 91.0605 66.9688 91.0344 66.4364C90.9613 65.0322 91.5633 62.9115 95.6767 62.4152C101.951 61.659 104.578 61.1807 104.578 61.1807L105.746 67.1078C105.746 67.1078 102.682 69.0751 98.4502 66.3516C98.4467 66.3534 94.9006 64.3229 92.0627 66.8822Z" fill="#FEC5A7"/>
<path d="M99.75 29.4335L101.361 28.1104C101.361 28.1104 101.655 30.3592 100.19 31.4174L99.75 29.4335Z" fill="#FF896F"/>
<path opacity="0.1" d="M132.48 52.9131C132.48 52.9131 137.687 68.0746 109.561 67.0758C109.561 67.0758 116.532 67.7853 125.551 66.2881C130.263 65.5054 131.574 63.1285 132.498 59.8532C133.062 57.8575 133.271 55.6745 132.48 52.9131Z" fill="black"/>
<path opacity="0.1" d="M115.012 41.3389L120.283 57.3231C120.283 57.3231 123.213 57.2851 121.628 54.0636L115.012 41.3389Z" fill="black"/>
<path opacity="0.1" d="M86.668 64.172C86.668 64.172 94.5944 59.8 96.6046 51.2598L97.5696 53.2044C97.5696 53.2044 96.1794 61.5704 87.1633 65.5905L86.668 64.172Z" fill="black"/>
<path d="M33.3185 31.9681C33.1083 31.9681 32.8899 31.9578 32.6715 31.9389C32.5011 31.9012 29.2432 31.1346 27.2544 27.6701C27.7011 27.291 29.2697 25.4971 29.4186 18.8802C29.45 17.5065 29.8306 16.2116 30.5206 15.1362C31.5679 13.5034 33.0455 12.6768 34.9102 12.6768C35.5273 12.6768 36.1925 12.7694 36.8891 12.9546C38.0655 13.2667 38.954 13.9562 39.5281 15.0076C41.1596 17.9935 39.917 23.2383 39.3064 25.3547C39.1592 25.8675 38.6942 26.2243 38.178 26.2243C38.0407 26.2243 37.905 26.1985 37.7743 26.1505L35.7623 25.3924L35.8169 25.648C35.8285 25.7029 36.1296 26.9875 38.6893 28.4144C38.4229 29.037 36.9718 31.9681 33.3185 31.9681Z" fill="#FEC5A7"/>
<path d="M34.9948 12.6768V12.9606C35.6347 12.9606 36.3253 13.0519 37.0491 13.2293C38.2521 13.5267 39.1595 14.184 39.747 15.1843C41.4429 18.0787 40.1386 23.2002 39.5004 25.2684C39.3623 25.7128 38.9304 26.0237 38.4479 26.0237C38.3202 26.0237 38.1926 26.0018 38.072 25.9595L36.1959 25.3005L35.6941 25.1231L35.8095 25.6283C35.8218 25.6841 36.1452 26.9716 38.7976 28.3859C38.4129 29.1598 36.8883 31.6825 33.311 31.6825C33.096 31.6825 32.8722 31.6741 32.6484 31.6555C32.4071 31.6048 29.1375 30.8529 27.0901 27.6171C27.6846 27.0713 29.1882 25.0893 29.3369 18.9354C29.3683 17.609 29.7635 16.3586 30.4768 15.3211C31.5539 13.7548 33.075 12.9606 34.993 12.9606L34.9948 12.6768ZM34.993 12.6768C32.5697 12.6768 31.1028 13.9001 30.2321 15.164C29.4662 16.2775 29.0746 17.5921 29.0431 18.9287C28.863 26.3819 26.709 27.5529 26.709 27.5529C28.9085 31.2381 32.6047 31.9377 32.6047 31.9377C32.8477 31.958 33.082 31.9681 33.3093 31.9681C37.7677 31.9681 39.1717 28.2626 39.1717 28.2626C36.3847 26.8449 36.0928 25.5692 36.0928 25.5692L37.9688 26.2282C38.1262 26.2839 38.287 26.3093 38.4461 26.3093C39.0423 26.3093 39.5983 25.9375 39.7802 25.3512C40.768 22.156 42.5864 14.3039 37.1208 12.9556C36.341 12.7629 35.6347 12.6768 34.993 12.6768Z" fill="#FEC5A7"/>
<path d="M28.6759 23.1496L32.2805 20.8427C32.2805 20.8427 31.8469 17.8578 33.146 17.573C34.445 17.2883 34.3005 20.4156 34.3005 20.4156H34.8768C34.8768 20.4156 34.4759 14.9627 40.448 16.2679C46.4201 17.573 45.1228 11.176 45.1228 11.176C45.1228 11.176 44.5464 8.19112 41.3702 9.8963C39.1283 11.1015 35.233 12.0219 33.1356 12.4592C31.2826 12.8456 29.7169 14.1016 29.0218 15.8373C28.3869 17.4205 28.0531 19.7545 28.6759 23.1496Z" fill="#180049"/>
<path opacity="0.4" fill-rule="evenodd" clip-rule="evenodd" d="M68.6714 26.4967C68.688 26.5367 68.6803 26.5898 68.6542 26.6152L67.1313 28.0971C67.1051 28.1226 67.0704 28.1108 67.0537 28.0709C67.0371 28.0309 67.0448 27.9778 67.0709 27.9524L68.5938 26.4705C68.62 26.445 68.6547 26.4568 68.6714 26.4967Z" fill="#1F2B60"/>
<path d="M70.0419 23.7012C70.0419 23.7012 74.8832 23.7429 74.0306 27.0872C73.1798 30.4316 70.1146 31.4177 70.1146 31.4177C70.1146 31.4177 60.8043 27.9156 70.0419 23.7012Z" fill="#FEC5A7"/>
<path d="M63.229 31.1612L65.3252 26.9609C66.2082 25.1916 67.5933 23.7633 69.334 22.8297L73.727 20.4712C73.8214 20.4206 73.9242 20.3936 74.0303 20.3936C74.3084 20.3936 74.5544 20.5708 74.642 20.8359C74.7111 21.0435 74.6723 21.2664 74.5409 21.4352C74.0185 22.1004 73.5417 22.487 71.86 23.6097C71.7824 23.662 71.6898 23.7228 71.587 23.7903C70.7748 24.3221 69.4149 25.2135 69.0863 25.8736L68.4039 27.2411L68.446 27.3188C68.473 27.3627 68.5235 27.3914 68.5757 27.3914H68.6179L68.6583 27.366C68.9077 27.204 71.1253 25.7791 72.475 25.7791C72.8339 25.7791 73.085 25.877 73.2434 26.0813C73.3563 26.2265 73.3934 26.3835 73.3614 26.5624C73.2603 27.1128 72.4902 27.8489 71.1927 28.6373C70.6804 28.9479 70.4799 29.5827 70.7141 30.1449C71.1168 31.1089 71.3696 32.5844 70.335 34.1731L63.229 31.1612Z" fill="#FEC5A7"/>
<path d="M74.1556 20.3936C74.3796 20.3936 74.5775 20.5353 74.6487 20.7462C74.7042 20.9122 74.673 21.0902 74.5671 21.2251C74.041 21.8906 73.5549 22.2813 71.838 23.4205C71.7581 23.4741 71.6644 23.5346 71.5585 23.6038C70.4596 24.3194 69.26 25.1371 68.9301 25.7923L68.2635 27.1217C68.2166 27.215 68.2218 27.3239 68.2774 27.4138C68.3312 27.502 68.4302 27.5556 68.5343 27.5556L68.6263 27.5539L68.6993 27.5072C68.951 27.343 71.2026 25.9047 72.5515 25.9047C72.8727 25.9047 73.0949 25.9877 73.2286 26.1588C73.3188 26.2729 73.3484 26.3939 73.3223 26.5357C73.2268 27.0491 72.4369 27.789 71.1557 28.5617C70.5672 28.9178 70.3346 29.6421 70.6037 30.2852C70.996 31.2205 71.246 32.638 70.2895 34.1731L63.229 31.198L65.3192 27.0352C66.215 25.2512 67.6212 23.8095 69.3885 22.8691L73.9143 20.4541C73.9872 20.4143 74.0688 20.3936 74.1556 20.3936Z" fill="#FEC5A7"/>
<path fill-rule="evenodd" clip-rule="evenodd" d="M74.0061 20.1925C73.9497 20.1925 73.8988 20.2064 73.8536 20.2322L73.8523 20.2329L69.4836 22.6754L69.4834 22.6755C67.8082 23.6095 66.4755 25.0411 65.6263 26.8132L63.6885 30.8567L70.2053 33.7339C71.0048 32.2932 70.7772 30.9744 70.4228 30.0894C70.1319 29.3609 70.383 28.5354 71.0233 28.1294L71.0235 28.1293C71.6357 27.7424 72.1251 27.3671 72.4705 27.0285C72.8228 26.6832 73.0011 26.3993 73.0369 26.1981C73.0534 26.1038 73.0367 26.0324 72.9796 25.9567L72.979 25.9559C72.8947 25.8429 72.7418 25.7664 72.4577 25.7664C71.8503 25.7664 71.0133 26.1113 70.2762 26.496C69.5478 26.8762 68.9498 27.2773 68.831 27.3585L68.8297 27.3594L68.7194 27.4334L68.5815 27.4361H68.5799C68.4232 27.4361 68.2724 27.3521 68.1889 27.209C68.1056 27.0675 68.0971 26.8934 68.1686 26.7443C68.1686 26.7443 68.1686 26.7443 68.1686 26.7443L68.8122 25.3995C68.9897 25.0302 69.3862 24.6371 69.8484 24.2568C70.3167 23.8715 70.8769 23.4801 71.4073 23.1182C71.4339 23.1 71.4595 23.0825 71.4842 23.0656C71.5554 23.017 71.6189 22.9737 71.6753 22.9341L71.676 22.9336C73.3334 21.7813 73.7819 21.3995 74.2713 20.7508C74.2713 20.7508 74.2713 20.7508 74.2713 20.7508L74.4033 20.8586L74.2716 20.7505C74.2715 20.7506 74.2714 20.7507 74.2713 20.7508C74.3386 20.661 74.359 20.5424 74.3231 20.4299C74.3231 20.4298 74.3231 20.4299 74.3231 20.4299L74.482 20.3743L74.323 20.4296C74.3231 20.4297 74.3231 20.4298 74.3231 20.4299C74.2773 20.2879 74.1503 20.1925 74.0061 20.1925ZM73.6934 19.9251C73.7889 19.8707 73.8951 19.8428 74.0061 19.8428C74.2942 19.8428 74.5492 20.034 74.6409 20.3186L74.641 20.319C74.7123 20.5421 74.6723 20.7834 74.5353 20.9663L74.5349 20.9667C74.0089 21.6641 73.5189 22.0726 71.8622 23.2243C71.8038 23.2654 71.7377 23.3105 71.6659 23.3595C71.6415 23.3761 71.6166 23.3931 71.591 23.4106L71.5909 23.4107C71.0605 23.7726 70.5114 24.1566 70.0559 24.5314C69.5944 24.9111 69.2529 25.2628 69.1119 25.5561C69.1119 25.5561 69.1118 25.5562 69.1118 25.5562L68.4684 26.9005C68.4495 26.94 68.4509 26.9861 68.4746 27.0263L68.4751 27.0271C68.4953 27.0618 68.5349 27.086 68.5787 27.0864L68.6181 27.0856L68.6473 27.0661C68.6475 27.0659 68.6477 27.0658 68.6479 27.0656C68.7735 26.9798 69.3828 26.5713 70.1263 26.1833C70.8622 25.7991 71.763 25.4167 72.4577 25.4167C72.7934 25.4167 73.0693 25.5079 73.2432 25.7408C73.3601 25.8958 73.4003 26.069 73.3666 26.2612L73.3665 26.2615C73.31 26.5796 73.061 26.9294 72.7 27.2833C72.332 27.6441 71.8217 28.0337 71.1972 28.4284C70.7015 28.7428 70.5036 29.3825 70.7321 29.9547C71.1247 30.9353 71.3768 32.4317 70.4165 34.0463L70.3409 34.1735L63.229 31.0336L65.3265 26.6568C66.2066 24.8202 67.5887 23.3355 69.3253 22.3672M69.3254 22.3671L73.6927 19.9255C73.6929 19.9253 73.6931 19.9252 73.6934 19.9251" fill="#FF896F"/>
<path d="M26.806 27.6189C26.806 27.6189 9.37309 25.5996 4.41327 44.9289C-0.546559 64.2582 0.0195543 64.1154 0.0195543 64.1154C0.0195543 64.1154 -0.546558 70.4622 11.357 69.3081C23.2623 68.154 34.7417 68.2984 34.7417 68.2984L35.8756 59.3545L43.955 62.3834C43.955 62.3834 47.7809 69.0191 54.3005 64.6916C60.8201 60.3641 70.3156 33.8212 70.3156 33.8212L62.946 30.6478L51.7488 52.5743C51.7488 52.5743 55.1505 29.7827 38.8515 28.3396C38.8532 28.3396 33.6095 36.5629 26.806 27.6189Z" fill="#4D68F4"/>
<path opacity="0.4" fill-rule="evenodd" clip-rule="evenodd" d="M12.5397 54.7067C12.5573 54.6134 12.6449 54.5525 12.7354 54.5706L35.8399 59.1871C35.9305 59.2052 35.9896 59.2955 35.9721 59.3887C35.9545 59.482 35.8669 59.5429 35.7764 59.5248L12.6718 54.9083C12.5813 54.8902 12.5221 54.7999 12.5397 54.7067Z" fill="#1F2B60"/>
<path opacity="0.4" fill-rule="evenodd" clip-rule="evenodd" d="M18.3796 43.544C18.4738 43.5541 18.5419 43.6379 18.5317 43.7312L17.2396 55.5174C17.2294 55.6107 17.1448 55.6781 17.0505 55.6679C16.9563 55.6578 16.8883 55.574 16.8985 55.4807L18.1905 43.6945C18.2007 43.6013 18.2854 43.5339 18.3796 43.544Z" fill="#1F2B60"/>
<path opacity="0.4" fill-rule="evenodd" clip-rule="evenodd" d="M45.6649 44.0956C45.7393 44.1052 45.7935 44.189 45.7859 44.2828L44.4219 61.0281C44.4142 61.1218 44.3476 61.1901 44.2731 61.1804C44.1986 61.1708 44.1444 61.087 44.1521 60.9933L45.5161 44.248C45.5238 44.1542 45.5904 44.086 45.6649 44.0956Z" fill="#1F2B60"/>
<path d="M49.8025 62.5474C46.935 61.0081 36.0333 58.9766 36.0333 58.9766L34.8853 68.1986C37.325 68.7833 42.3464 67.4673 45.0736 67.1741C47.8007 66.8809 47.8709 66.9542 49.8093 67.0275C52.0027 67.1095 50.829 65.263 50.829 65.263C50.829 65.263 51.5305 64.832 50.9573 64.2456C50.9556 64.2456 52.0916 63.7778 49.8025 62.5474Z" fill="#FEC5A7"/>
<path d="M50.6927 65.5906C50.6927 65.5906 48.4817 64.0897 43.0615 64.5906L50.6927 65.5906Z" fill="#FEC5A7"/>
<path fill-rule="evenodd" clip-rule="evenodd" d="M50.6193 65.2266C50.6194 65.2266 50.6195 65.2267 50.5261 65.3913L50.6195 65.2267C50.6957 65.2883 50.7156 65.4119 50.664 65.5028C50.6124 65.5936 50.5089 65.6174 50.4328 65.5559L50.4326 65.5558M50.4326 65.5558L50.4325 65.5557L50.4292 65.5532C50.426 65.5507 50.4208 65.5466 50.4134 65.5412C50.3986 65.5302 50.3753 65.5136 50.3434 65.4921C50.2796 65.4492 50.181 65.3872 50.0458 65.314C49.7755 65.1674 49.3586 64.9754 48.78 64.8002C47.6231 64.45 45.8177 64.1664 43.2434 64.4498C43.1518 64.4599 43.0707 64.3794 43.0622 64.2701C43.0538 64.1608 43.1212 64.064 43.2128 64.0539C45.8221 63.7667 47.6657 64.0528 48.8619 64.4149C49.4599 64.5959 49.8955 64.7958 50.1836 64.952C50.3277 65.0301 50.4348 65.0973 50.5068 65.1457C50.5428 65.1699 50.5701 65.1894 50.5888 65.2032C50.5981 65.2101 50.6054 65.2156 50.6105 65.2196L50.6166 65.2244L50.6184 65.2258L50.6191 65.2264L50.6193 65.2266" fill="#FF896F"/>
<path d="M50.6925 64.4879C50.6925 64.4879 48.3226 62.5077 43.6064 62.2832L50.6925 64.4879Z" fill="#FEC5A7"/>
<path fill-rule="evenodd" clip-rule="evenodd" d="M43.6066 62.4349C43.6109 62.3473 43.6936 62.2795 43.7913 62.2834C46.235 62.3803 48.0744 62.8567 49.3056 63.3109C49.9211 63.5379 50.3844 63.7594 50.6951 63.925C50.8504 64.0078 50.9676 64.0766 51.0466 64.1252C51.0862 64.1495 51.1161 64.1687 51.1366 64.1821C51.1468 64.1888 51.1546 64.194 51.16 64.1977L51.1664 64.202L51.1682 64.2033L51.1688 64.2037L51.169 64.2038C51.1691 64.2039 51.1692 64.2039 51.0606 64.3292L51.1692 64.2039C51.2464 64.2577 51.2603 64.3574 51.2003 64.4266C51.1404 64.4958 51.0293 64.5083 50.9521 64.4546L50.952 64.4546L50.952 64.4545L50.9512 64.454L50.9469 64.4511C50.9428 64.4483 50.9364 64.444 50.9276 64.4382C50.91 64.4267 50.8829 64.4093 50.8464 64.3869C50.7734 64.342 50.6627 64.2769 50.5142 64.1978C50.2172 64.0395 49.7693 63.8251 49.1709 63.6044C47.9744 63.1629 46.1752 62.6956 43.7756 62.6004C43.678 62.5965 43.6023 62.5224 43.6066 62.4349Z" fill="#FF896F"/>
<path d="M35.7342 25.3968L32.7051 24.252C32.7051 24.252 32.9941 27.559 37.6108 27.559C37.6108 27.559 35.8787 26.2868 35.7342 25.3968Z" fill="#FF896F"/>
<path opacity="0.1" d="M0.815668 60.0791C0.815668 60.0791 0.184061 65.2342 6.6994 65.6657C13.2147 66.0988 34.8852 67.1078 34.8852 67.1078L34.7434 68.55C34.7434 68.55 28.1115 67.7593 11.9566 69.2943C-4.48881 70.8569 0.815668 60.0791 0.815668 60.0791Z" fill="black"/>
<g opacity="0.1">
<path opacity="0.1" d="M52.019 52.4584L50.1475 55.6689L52.3278 49.0547L52.019 52.4584Z" fill="black"/>
</g>
<path d="M100.153 69.9996H87.7588V67.7949H100.153C100.831 67.7949 101.381 68.2835 101.386 68.8896C101.389 69.5018 100.836 69.9996 100.153 69.9996Z" fill="#CFD8E2"/>
<path d="M57.7788 67.7949C57.7788 69.0117 58.8597 69.9996 60.1947 69.9996H87.7583V67.7949H57.7788Z" fill="#CFD8E2"/>
<path d="M87.7584 67.7949H57.8763L50.7351 44.7222C50.5544 44.1387 50.9765 43.543 51.5693 43.543H79.6125C79.9941 43.543 80.3318 43.7973 80.4466 44.1718L87.7584 67.7949Z" fill="#CFD8E2"/>
<path d="M24.125 11.5748H6.3996C4.67045 11.5748 3.27051 10.1022 3.27051 8.28718V3.28762C3.27051 1.47262 4.67045 0 6.3996 0H24.125C25.8542 0 27.2541 1.47262 27.2541 3.28762V8.28543C27.2541 10.1022 25.8525 11.5748 24.125 11.5748Z" fill="#CFD8E2"/>
<path d="M24.2571 3.30704H6.2679C6.11823 3.30704 5.99609 3.18281 5.99609 3.03145C5.99609 2.87866 6.11823 2.75586 6.2679 2.75586H24.2571C24.4067 2.75586 24.5289 2.88009 24.5289 3.03145C24.5289 3.18281 24.4067 3.30704 24.2571 3.30704Z" fill="white"/>
<path d="M24.2571 8.26798H6.2679C6.11823 8.26798 5.99609 8.14375 5.99609 7.99239C5.99609 7.8396 6.11823 7.7168 6.2679 7.7168H24.2571C24.4067 7.7168 24.5289 7.84103 24.5289 7.99239C24.5289 8.14375 24.4067 8.26798 24.2571 8.26798Z" fill="white"/>
<path d="M11.1739 6.0633H7.35859C7.20846 6.0633 7.08594 5.81484 7.08594 5.51212C7.08594 5.20654 7.20846 4.96094 7.35859 4.96094H11.1739C11.3241 4.96094 11.4466 5.2094 11.4466 5.51212C11.4449 5.81484 11.3241 6.0633 11.1739 6.0633Z" fill="white"/>
<path d="M23.1748 6.0633H12.801C12.6557 6.0633 12.5371 5.81484 12.5371 5.51212C12.5371 5.20654 12.6557 4.96094 12.801 4.96094H23.1748C23.3202 4.96094 23.4387 5.2094 23.4387 5.51212C23.4387 5.81484 23.3202 6.0633 23.1748 6.0633Z" fill="white"/>
<path d="M127.144 12.1256H109.42C107.691 12.1256 106.291 10.6527 106.291 8.83747V3.8389C106.291 2.02187 107.693 0.550781 109.42 0.550781H127.146C128.875 0.550781 130.275 2.02362 130.275 3.8389V8.83747C130.275 10.6527 128.873 12.1256 127.144 12.1256Z" fill="#CFD8E2"/>
<path d="M127.278 4.409H109.288C109.139 4.409 109.017 4.16054 109.017 3.85782C109.017 3.55224 109.139 3.30664 109.288 3.30664H127.278C127.427 3.30664 127.549 3.5551 127.549 3.85782C127.548 4.16054 127.427 4.409 127.278 4.409Z" fill="white"/>
<path d="M127.278 8.81876H109.288C109.139 8.81876 109.017 8.69453 109.017 8.54317C109.017 8.39038 109.139 8.26758 109.288 8.26758H127.278C127.427 8.26758 127.549 8.39181 127.549 8.54317C127.548 8.69453 127.427 8.81876 127.278 8.81876Z" fill="white"/>
<path d="M114.193 6.61408H110.379C110.229 6.61408 110.106 6.36562 110.106 6.0629C110.106 5.75732 110.229 5.51172 110.379 5.51172H114.194C114.345 5.51172 114.467 5.76018 114.467 6.0629C114.465 6.36848 114.343 6.61408 114.193 6.61408Z" fill="white"/>
<path d="M126.195 6.61408H115.822C115.676 6.61408 115.558 6.36562 115.558 6.0629C115.558 5.75732 115.676 5.51172 115.822 5.51172H126.195C126.341 5.51172 126.459 5.76018 126.459 6.0629C126.458 6.36848 126.341 6.61408 126.195 6.61408Z" fill="white"/>
</g>
<defs>
<clipPath id="clip0">
<rect width="133" height="70" fill="white"/>
</clipPath>
</defs>
</svg>
