<?xml version="1.0" encoding="utf-8"?>
<!-- Generator: Adobe Illustrator 24.0.2, SVG Export Plug-In . SVG Version: 6.00 Build 0)  -->
<svg version="1.1" id="Layer_1" xmlns="http://www.w3.org/2000/svg" xmlns:xlink="http://www.w3.org/1999/xlink" x="0px" y="0px"
	 viewBox="0 0 1920 1080" style="enable-background:new 0 0 1920 1080;" xml:space="preserve">
<style type="text/css">
	.st0{fill:#6CACEC;}
	.st1{fill:none;stroke:#000000;stroke-width:2;stroke-linecap:round;stroke-linejoin:round;stroke-miterlimit:10;}
	.st2{opacity:0.1;}
	.st3{fill:#FFFFFF;}
	.st4{fill:#FF81C4;}
	.st5{fill:#FFFFFF;stroke:#000000;stroke-width:2;stroke-linecap:round;stroke-linejoin:round;stroke-miterlimit:10;}
	.st6{fill:#5856D6;}
	.st7{fill:#FF81C4;stroke:#000000;stroke-width:2;stroke-linecap:round;stroke-linejoin:round;stroke-miterlimit:10;}
	.st8{fill:#3880BA;}
	.st9{fill:#FFFFFF;stroke:#000000;stroke-miterlimit:10;}
	.st10{fill:none;stroke:#000000;stroke-miterlimit:10;}
	.st11{fill:none;stroke:#000000;stroke-width:8;stroke-linecap:round;stroke-linejoin:round;stroke-miterlimit:10;}
	.st12{fill:url(#SVGID_1_);stroke:#F2566A;stroke-miterlimit:10;}
	.st13{fill:url(#SVGID_2_);}
	.st14{fill:none;stroke:#F2566A;stroke-miterlimit:10;}
	.st15{fill:none;stroke:#F2566A;stroke-miterlimit:10;stroke-dasharray:10.2805,139.8143;}
	.st16{fill:url(#SVGID_4_);stroke:#F2566A;stroke-miterlimit:10;}
	.st17{fill:url(#SVGID_5_);stroke:#F2566A;stroke-miterlimit:10;}
	.st18{fill:url(#SVGID_6_);fill-opacity:0.15;stroke:#549BF4;stroke-width:2;stroke-opacity:8.222246e-02;}
	.st19{fill:url(#SVGID_8_);fill-opacity:0.15;stroke:#549BF4;stroke-width:2;stroke-opacity:8.222246e-02;}
	.st20{opacity:0.62;fill:url(#SVGID_10_);fill-opacity:0.5;}
	.st21{opacity:0.62;fill:url(#SVGID_12_);fill-opacity:0.5;}
	.st22{opacity:0.62;fill:url(#SVGID_13_);fill-opacity:0.5;}
	.st23{opacity:0.62;fill:url(#SVGID_14_);fill-opacity:0.5;}
	.st24{opacity:0.62;fill:url(#SVGID_15_);fill-opacity:0.5;}
	.st25{opacity:0.62;fill:url(#SVGID_16_);fill-opacity:0.5;}
	.st26{opacity:0.62;fill:url(#SVGID_17_);fill-opacity:0.5;}
	.st27{opacity:0.62;fill:url(#SVGID_18_);fill-opacity:0.5;}
	.st28{fill:url(#SVGID_19_);stroke:#F2566A;stroke-miterlimit:10;stroke-dasharray:203,31,0,0,0;}
	.st29{fill:none;stroke:#F2566A;stroke-miterlimit:10;stroke-dasharray:110,0,0,0,0;}
	.st30{fill:none;stroke:#CBD6E8;stroke-miterlimit:10;}
	.st31{fill:url(#SVGID_20_);}
	.st32{fill:url(#SVGID_21_);}
	.st33{fill:url(#SVGID_22_);}
	.st34{fill:url(#SVGID_23_);}
	.st35{fill:url(#SVGID_24_);}
	.st36{fill:url(#SVGID_25_);}
	.st37{fill:none;stroke:#FFFFFF;stroke-miterlimit:10;}
	.st38{fill:url(#SVGID_27_);}
	.st39{fill:none;stroke:#FFFFFF;stroke-linecap:round;stroke-miterlimit:10;}
	.st40{fill:url(#SVGID_28_);}
	.st41{fill:url(#SVGID_29_);}
	.st42{opacity:0.36;fill:url(#SVGID_30_);enable-background:new    ;}
	.st43{opacity:0.36;fill:url(#SVGID_31_);enable-background:new    ;}
	.st44{fill:url(#SVGID_32_);fill-opacity:0.15;stroke:#549BF4;stroke-width:2;stroke-opacity:8.222246e-02;}
	.st45{fill:url(#SVGID_34_);fill-opacity:0.15;stroke:#549BF4;stroke-width:2;stroke-opacity:8.222246e-02;}
	.st46{fill:url(#SVGID_35_);fill-opacity:0.15;stroke:#549BF4;stroke-width:2;stroke-opacity:8.222246e-02;}
	.st47{fill:url(#SVGID_36_);fill-opacity:0.15;stroke:#549BF4;stroke-width:2;stroke-opacity:8.222246e-02;}
	.st48{fill:url(#SVGID_37_);fill-opacity:0.5;stroke:#FFFFFF;stroke-linejoin:round;}
	.st49{fill:url(#SVGID_38_);fill-opacity:0.15;stroke:#549BF4;stroke-width:2;stroke-opacity:8.222246e-02;}
	.st50{opacity:0.54;fill:#FFFFFF;enable-background:new    ;}
	.st51{fill:#363C61;}
	.st52{fill:none;stroke:url(#SVGID_39_);stroke-width:9;stroke-miterlimit:10;}
	.st53{fill:none;stroke:url(#SVGID_40_);stroke-width:9;stroke-miterlimit:10;}
	.st54{fill:none;stroke:#FFFFFF;stroke-width:3;stroke-miterlimit:10;}
	.st55{opacity:0.62;fill:url(#SVGID_41_);fill-opacity:0.5;}
	.st56{opacity:0.62;fill:url(#SVGID_42_);fill-opacity:0.5;}
	.st57{opacity:0.62;fill:url(#SVGID_43_);fill-opacity:0.5;}
	.st58{opacity:0.6;fill:url(#SVGID_44_);fill-opacity:0.5;}
	.st59{fill:url(#SVGID_45_);fill-opacity:0.15;stroke:#549BF4;stroke-width:2;stroke-opacity:8.222246e-02;}
	.st60{fill:url(#SVGID_46_);fill-opacity:0.15;stroke:#549BF4;stroke-width:2;stroke-opacity:8.222246e-02;}
	.st61{fill:url(#SVGID_47_);fill-opacity:0.15;stroke:#549BF4;stroke-width:2;stroke-opacity:8.222246e-02;}
	.st62{fill:url(#SVGID_48_);fill-opacity:0.15;stroke:#549BF4;stroke-width:2;stroke-opacity:8.222246e-02;}
	.st63{opacity:0.62;fill:url(#SVGID_49_);fill-opacity:0.5;}
	.st64{opacity:0.62;fill:url(#SVGID_50_);fill-opacity:0.5;}
	.st65{opacity:5.000000e-02;fill:none;stroke:#FFFFFF;stroke-width:2;stroke-miterlimit:10;}
	.st66{opacity:0.15;fill:url(#SVGID_51_);fill-opacity:0.5;}
	.st67{opacity:0.5;}
	.st68{fill:none;stroke:#FFFFFF;stroke-width:2;stroke-dasharray:11.8503,11.8503;}
	.st69{fill:url(#SVGID_52_);fill-opacity:0.5;stroke:#FFFFFF;stroke-linejoin:round;}
	.st70{fill:url(#SVGID_53_);fill-opacity:0.15;stroke:#549BF4;stroke-width:2;stroke-opacity:8.222246e-02;}
	.st71{fill:#CAD6E8;}
	.st72{fill:url(#SVGID_54_);}
	.st73{fill:url(#SVGID_55_);}
	.st74{opacity:0.89;fill:#F2566A;enable-background:new    ;}
	.st75{fill:#EBF1FC;}
	.st76{fill:#CEDEF2;}
	.st77{fill:url(#SVGID_56_);}
	.st78{fill:url(#SVGID-2_1_);}
	.st79{fill:url(#SVGID-3_1_);}
	.st80{fill:url(#SVGID_57_);}
	.st81{clip-path:url(#SVGID_58_);}
	.st82{fill:url(#SVGID_59_);}
	.st83{fill:#CBD6E8;}
	.st84{stroke:#000000;stroke-miterlimit:10;}
	.st85{fill:url(#SVGID_60_);}
	.st86{fill:url(#SVGID-4_1_);}
	.st87{fill:url(#SVGID_61_);}
	.st88{opacity:0.36;fill:url(#SVGID_62_);enable-background:new    ;}
	.st89{opacity:0.4;fill:#3574EC;enable-background:new    ;}
	.st90{fill:url(#SVGID-5_1_);}
	.st91{fill:url(#SVGID-6_1_);}
	.st92{fill:url(#SVGID_63_);}
	.st93{clip-path:url(#SVGID_64_);}
	.st94{fill:url(#SVGID_65_);}
	.st95{fill:url(#SVGID-7_1_);}
	.st96{opacity:0.4;fill:#FFFFFF;enable-background:new    ;}
	.st97{opacity:0.9;fill:#FFFFFF;enable-background:new    ;}
	.st98{opacity:0.9;}
	.st99{fill:url(#SVGID_66_);}
	.st100{opacity:0.36;fill:url(#SVGID_67_);enable-background:new    ;}
	.st101{fill:url(#SVGID_68_);}
	.st102{fill:url(#SVGID_69_);}
	.st103{fill:url(#SVGID_70_);fill-opacity:0.3;}
	.st104{opacity:8.000000e-02;fill:#549BF4;enable-background:new    ;}
	.st105{fill:url(#SVGID_71_);fill-opacity:0.15;}
	.st106{opacity:0.8;}
	.st107{fill:#9090D0;}
	.st108{fill:none;stroke:#000000;stroke-width:3;stroke-linecap:round;stroke-linejoin:round;stroke-miterlimit:10;}
	.st109{fill:#CFCED4;}
	.st110{fill:#FEAD91;}
	.st111{fill:#FFFFFF;stroke:#000000;stroke-width:3;stroke-linecap:round;stroke-linejoin:round;stroke-miterlimit:10;}
	.st112{fill:#FEAD91;stroke:#000000;stroke-width:3;stroke-miterlimit:10;}
	.st113{fill:#FFE2AA;}
	.st114{fill:#FFE2AA;stroke:#000000;stroke-width:3;stroke-linecap:round;stroke-linejoin:round;stroke-miterlimit:10;}
	.st115{fill:none;stroke:#000000;stroke-width:4;stroke-linecap:round;stroke-linejoin:round;stroke-miterlimit:10;}
	.st116{fill:#FFFFFF;stroke:#000000;stroke-width:5;stroke-linecap:round;stroke-linejoin:round;stroke-miterlimit:10;}
	.st117{fill:none;stroke:#000000;stroke-width:3;stroke-miterlimit:10;}
	.st118{fill:#FFFFFF;stroke:#000000;stroke-width:2;stroke-miterlimit:10;}
	.st119{fill:#FFC9E6;}
	.st120{fill:#FCA1BB;}
	.st121{fill:#151614;}
	.st122{fill:#FFFFFF;stroke:#1B0042;stroke-width:2;stroke-linecap:round;stroke-linejoin:round;stroke-miterlimit:10;}
	.st123{fill:none;stroke:#1B0042;stroke-width:2;stroke-linecap:round;stroke-linejoin:round;stroke-miterlimit:10;}
	.st124{fill:#1B0042;}
	
		.st125{opacity:0.15;clip-path:url(#XMLID_13_);fill:none;stroke:#FFFFFF;stroke-width:2;stroke-linecap:round;stroke-linejoin:round;stroke-miterlimit:10;}
	.st126{fill:none;stroke:#000000;stroke-linecap:round;stroke-linejoin:round;stroke-miterlimit:10;}
	.st127{fill:none;stroke:#FFFFFF;stroke-linecap:round;stroke-linejoin:round;stroke-miterlimit:10;}
	
		.st128{opacity:0.15;clip-path:url(#XMLID_15_);fill:none;stroke:#FFFFFF;stroke-width:2;stroke-linecap:round;stroke-linejoin:round;stroke-miterlimit:10;}
	
		.st129{opacity:0.15;clip-path:url(#XMLID_16_);fill:none;stroke:#FFFFFF;stroke-width:2;stroke-linecap:round;stroke-linejoin:round;stroke-miterlimit:10;}
	.st130{fill:none;stroke:#FFFFFF;stroke-width:2;stroke-linecap:round;stroke-linejoin:round;stroke-miterlimit:10;}
	
		.st131{opacity:0.15;clip-path:url(#XMLID_17_);fill:none;stroke:#FFFFFF;stroke-width:2;stroke-linecap:round;stroke-linejoin:round;stroke-miterlimit:10;}
	.st132{opacity:0.15;clip-path:url(#XMLID_18_);fill:none;stroke:#FFFFFF;stroke-width:2;stroke-miterlimit:10;}
	
		.st133{opacity:0.15;clip-path:url(#XMLID_19_);fill:none;stroke:#FFFFFF;stroke-width:2;stroke-linecap:round;stroke-linejoin:round;stroke-miterlimit:10;}
	.st134{fill:#FFFFFF;stroke:#2C234A;stroke-width:2;stroke-linecap:round;stroke-linejoin:round;stroke-miterlimit:10;}
	.st135{fill:#8AAFF6;}
	.st136{fill:none;stroke:#2C234A;stroke-width:2;stroke-linecap:round;stroke-linejoin:round;stroke-miterlimit:10;}
	.st137{opacity:0.2;}
	.st138{fill:#2C234A;}
	.st139{fill:none;stroke:#4417D7;stroke-width:2;stroke-linecap:round;stroke-linejoin:round;stroke-miterlimit:10;}
	.st140{fill:none;stroke:#EFCC4A;stroke-width:2;stroke-linecap:round;stroke-linejoin:round;stroke-miterlimit:10;}
	.st141{fill:#E3DFFF;}
	.st142{fill:none;stroke:#9D8AF6;stroke-width:2;stroke-linecap:round;stroke-linejoin:round;stroke-miterlimit:10;}
	.st143{clip-path:url(#SVGID_72_);}
	.st144{fill:none;stroke:#E3DFFF;stroke-width:4;stroke-linecap:round;stroke-linejoin:round;stroke-miterlimit:10;}
	.st145{fill:none;stroke:#D6D4D4;stroke-width:10;stroke-linecap:round;stroke-linejoin:round;stroke-miterlimit:10;}
	.st146{fill:none;stroke:#FF4B42;stroke-width:10;stroke-linecap:round;stroke-linejoin:round;stroke-miterlimit:10;}
	.st147{fill:#D7B9D8;}
	.st148{fill:#D6D4D4;}
	.st149{fill:#FFB69D;}
	.st150{fill:#D6D4D4;stroke:#FFFFFF;stroke-width:2;stroke-miterlimit:10;}
	.st151{clip-path:url(#XMLID_20_);}
	.st152{clip-path:url(#XMLID_21_);}
	.st153{fill:none;stroke:#FFFFFF;stroke-width:5;stroke-linecap:round;stroke-linejoin:round;stroke-miterlimit:10;}
	.st154{fill:#FF4B42;}
	.st155{clip-path:url(#XMLID_24_);}
	.st156{clip-path:url(#SVGID_74_);}
	.st157{clip-path:url(#XMLID_25_);}
	.st158{fill:#FEC0D9;}
	
		.st159{fill:none;stroke:#D6D4D4;stroke-width:3;stroke-linecap:round;stroke-linejoin:round;stroke-miterlimit:10;stroke-dasharray:20,20;}
	.st160{fill:#6BA5BD;}
	.st161{clip-path:url(#XMLID_28_);}
	.st162{clip-path:url(#SVGID_76_);}
	.st163{clip-path:url(#XMLID_29_);}
	.st164{clip-path:url(#XMLID_33_);}
	.st165{fill:none;stroke:#FFFFFF;stroke-width:4;stroke-linecap:round;stroke-linejoin:round;stroke-miterlimit:10;}
	.st166{fill:none;stroke:#FFFF00;stroke-width:2;stroke-linecap:round;stroke-linejoin:round;stroke-miterlimit:10;}
	.st167{fill:#FEC0D9;stroke:#000000;stroke-width:3;stroke-linecap:round;stroke-linejoin:round;stroke-miterlimit:10;}
	.st168{fill:#FFCDB2;stroke:#000000;stroke-width:2;stroke-linecap:round;stroke-linejoin:round;stroke-miterlimit:10;}
	.st169{stroke:#FFFFFF;stroke-width:2;stroke-miterlimit:10;}
	.st170{fill:#996533;stroke:#000000;stroke-width:2;stroke-linecap:round;stroke-linejoin:round;stroke-miterlimit:10;}
	.st171{stroke:#000000;stroke-width:2;stroke-linecap:round;stroke-linejoin:round;stroke-miterlimit:10;}
	.st172{fill:#996533;stroke:#000000;stroke-width:2;stroke-miterlimit:10;}
	.st173{fill:#FF6600;stroke:#000000;stroke-width:2;stroke-linecap:round;stroke-linejoin:round;stroke-miterlimit:10;}
	.st174{fill:#FFCDB2;}
	.st175{fill:none;stroke:#000000;stroke-width:2;stroke-miterlimit:10;}
	.st176{fill:none;stroke:#000000;stroke-width:5;stroke-linecap:round;stroke-linejoin:round;stroke-miterlimit:10;}
	.st177{fill:#9B4CB5;stroke:#000000;stroke-width:2;stroke-linecap:round;stroke-linejoin:round;stroke-miterlimit:10;}
	.st178{fill:#C8C8FF;stroke:#000000;stroke-width:2;stroke-linecap:round;stroke-linejoin:round;stroke-miterlimit:10;}
	.st179{fill:#DDDCDD;}
	.st180{fill:#FA6058;stroke:#000000;stroke-width:2;stroke-miterlimit:10;}
	.st181{fill:#FBBC2D;stroke:#000000;stroke-width:2;stroke-miterlimit:10;}
	.st182{fill:#30CA41;stroke:#000000;stroke-width:2;stroke-miterlimit:10;}
	.st183{stroke:#FFFFFF;stroke-width:2;stroke-linecap:round;stroke-linejoin:round;stroke-miterlimit:10;}
	.st184{fill:none;stroke:#C8C8FF;stroke-width:5;stroke-linecap:round;stroke-linejoin:round;stroke-miterlimit:10;}
	.st185{stroke:#000000;stroke-width:2;stroke-miterlimit:10;}
	.st186{fill:#FF2D55;}
	.st187{fill:#D4D7FF;}
	.st188{fill:#FFCBC2;}
	.st189{clip-path:url(#SVGID_77_);}
	.st190{fill:#352F84;}
	.st191{clip-path:url(#SVGID_78_);}
	.st192{clip-path:url(#SVGID_79_);}
	.st193{clip-path:url(#XMLID_37_);}
	.st194{opacity:0.4;clip-path:url(#XMLID_41_);}
	.st195{clip-path:url(#XMLID_44_);}
	.st196{fill:#FF3167;}
	.st197{fill:#91A3B4;}
	.st198{fill:#E05555;}
	.st199{fill:none;stroke:#EFA9A9;stroke-width:2;stroke-miterlimit:10;}
	.st200{clip-path:url(#XMLID_46_);}
	.st201{fill:#F2F2F2;}
	.st202{fill:#6F8393;}
	.st203{fill:#333333;}
	.st204{fill:#B5C7C3;}
	.st205{clip-path:url(#XMLID_47_);}
	.st206{clip-path:url(#SVGID_81_);}
	.st207{clip-path:url(#XMLID_50_);}
	.st208{fill:#5595E0;}
	.st209{fill:#FCFCFC;}
	.st210{fill:none;stroke:#CACBDB;stroke-width:10;stroke-linecap:round;stroke-linejoin:round;stroke-miterlimit:10;}
	
		.st211{fill:none;stroke:#CACBDB;stroke-width:10;stroke-linecap:round;stroke-linejoin:round;stroke-miterlimit:10;stroke-dasharray:30,30;}
	.st212{fill:none;stroke:#CACBDB;stroke-width:21;stroke-linecap:round;stroke-linejoin:round;stroke-miterlimit:10;}
	.st213{fill:#E45858;}
	.st214{fill:#CFD4FF;}
	.st215{fill:#2A2C67;}
	.st216{clip-path:url(#XMLID_51_);}
	.st217{fill:#585DE4;}
	.st218{fill:none;stroke:#324A81;stroke-width:5;stroke-linecap:round;stroke-linejoin:round;stroke-miterlimit:10;}
	.st219{fill:#CFD4FF;stroke:#2A2C67;stroke-width:5;stroke-linecap:round;stroke-linejoin:round;stroke-miterlimit:10;}
	.st220{clip-path:url(#XMLID_52_);}
	.st221{clip-path:url(#XMLID_53_);}
	.st222{fill:none;stroke:#FEFEFF;stroke-width:5;stroke-linecap:round;stroke-linejoin:round;stroke-miterlimit:10;}
	.st223{fill:#CFD4FF;stroke:#2A2C67;stroke-width:5;stroke-miterlimit:10;}
	.st224{fill:none;stroke:#2A2C67;stroke-width:5;stroke-linecap:round;stroke-linejoin:round;stroke-miterlimit:10;}
	.st225{fill:none;stroke:#585DE4;stroke-width:5;stroke-miterlimit:10;}
	.st226{fill:none;stroke:#585DE4;stroke-width:5;stroke-linecap:round;stroke-linejoin:round;stroke-miterlimit:10;}
	.st227{fill:#E8E8F7;}
	
		.st228{opacity:0.4;fill:none;stroke:#303044;stroke-width:2.5095;stroke-linecap:round;stroke-linejoin:round;stroke-miterlimit:10;}
	.st229{fill:#FEC5C4;}
	.st230{fill:#EF8D8B;}
	.st231{fill:#FEC5C4;stroke:#EF8D8B;stroke-width:2.5095;stroke-linecap:round;stroke-linejoin:round;stroke-miterlimit:10;}
	.st232{fill:#F048BA;}
	.st233{fill:#FFFFFF;stroke:#E8E8F7;stroke-width:2;stroke-linecap:round;stroke-linejoin:round;stroke-miterlimit:10;}
	.st234{fill:none;stroke:#E8E8F7;stroke-width:2;stroke-linecap:round;stroke-linejoin:round;stroke-miterlimit:10;}
	.st235{fill:#303044;}
	.st236{fill:none;}
	.st237{fill:none;stroke:#EF8D8B;stroke-width:2.5095;stroke-linecap:round;stroke-linejoin:round;stroke-miterlimit:10;}
	.st238{fill:none;stroke:#E8E8F7;stroke-width:7;stroke-linecap:round;stroke-linejoin:round;stroke-miterlimit:10;}
	.st239{fill:#FFFFFF;stroke:#E8E8F7;stroke-width:7;stroke-linecap:round;stroke-linejoin:round;stroke-miterlimit:10;}
	.st240{fill:#FFFFFF;stroke:#E8E8F7;stroke-width:5.62;stroke-miterlimit:10;}
	.st241{fill:#E8E8F7;stroke:#E8E8F7;stroke-width:5.62;stroke-miterlimit:10;}
	.st242{fill:#FEC5C4;stroke:#EF8D8B;stroke-width:2;stroke-linecap:round;stroke-linejoin:round;stroke-miterlimit:10;}
	.st243{fill:none;stroke:#EF8D8B;stroke-width:2;stroke-linecap:round;stroke-linejoin:round;stroke-miterlimit:10;}
	.st244{fill:#E8E8F7;stroke:#FFFFFF;stroke-width:5.62;stroke-miterlimit:10;}
	.st245{opacity:0.4;fill:none;stroke:#000000;stroke-width:2;stroke-linecap:round;stroke-linejoin:round;stroke-miterlimit:10;}
	.st246{fill:none;stroke:#E8E8F7;stroke-width:5.1321;stroke-miterlimit:10;}
	.st247{fill:none;stroke:#EF8D8B;stroke-width:2;stroke-linecap:round;stroke-miterlimit:10;}
	.st248{fill:#FFFFFF;stroke:#E8E8F7;stroke-width:5;stroke-miterlimit:10;}
	.st249{fill:#E8E8F7;stroke:#E8E8F7;stroke-width:5;stroke-miterlimit:10;}
	.st250{fill:#FFFFFF;stroke:#E8E8F7;stroke-width:5;stroke-miterlimit:10;stroke-dasharray:20,20;}
	.st251{fill:#F2F2F6;}
	.st252{opacity:0.4;fill:#FFFFFF;stroke:#000000;stroke-width:2.1161;stroke-linecap:round;stroke-miterlimit:10;}
	
		.st253{opacity:0.4;fill:none;stroke:#000000;stroke-width:2.1161;stroke-linecap:round;stroke-linejoin:round;stroke-miterlimit:10;stroke-dasharray:140.7185,204.2005;}
	.st254{opacity:0.4;fill:none;stroke:#000000;stroke-width:2.1161;stroke-linecap:round;stroke-miterlimit:10;}
	.st255{fill:#282828;}
	.st256{fill:#FEC5C4;stroke:#EF8D8B;stroke-width:1.058;stroke-linecap:round;stroke-miterlimit:10;}
	.st257{fill:none;stroke:#FFFFFF;stroke-width:8;stroke-linecap:round;stroke-linejoin:round;stroke-miterlimit:10;}
	
		.st258{fill:none;stroke:#E8E8F7;stroke-width:5;stroke-linecap:round;stroke-linejoin:round;stroke-miterlimit:10;stroke-dasharray:20,20;}
	.st259{fill:none;stroke:#E8E8F7;stroke-width:4.7431;stroke-linecap:round;stroke-linejoin:round;stroke-miterlimit:10;}
	
		.st260{opacity:0.4;fill:none;stroke:#000000;stroke-width:1.7088;stroke-linecap:round;stroke-linejoin:round;stroke-miterlimit:10;}
	.st261{fill-rule:evenodd;clip-rule:evenodd;fill:#F7931A;}
	.st262{fill:none;stroke:#EF8D8B;stroke-width:1.9557;stroke-linecap:round;stroke-linejoin:round;stroke-miterlimit:10;}
</style>
<path class="st248" d="M1346.7,880H413.1c-47.2,0-85.4-38.3-85.4-85.4V239.3c0-47.2,38.3-85.4,85.4-85.4h933.6
	c47.2,0,85.4,38.3,85.4,85.4v555.2C1432.2,841.7,1393.9,880,1346.7,880z"/>
<path class="st249" d="M841.4,808.9H675.8c-4.9,0-8.8-3.9-8.8-8.8v-99.7c0-4.9,3.9-8.8,8.8-8.8h165.5c4.9,0,8.8,3.9,8.8,8.8v99.7
	C850.2,805,846.2,808.9,841.4,808.9z"/>
<path class="st227" d="M1432.2,265.8H327.7v-31.7c0-44.4,36-80.3,80.3-80.3h943.8c44.4,0,80.3,36,80.3,80.3V265.8z"/>
<path class="st248" d="M593.3,444.8H427.8c-4.9,0-8.8-3.9-8.8-8.8v-99.7c0-4.9,3.9-8.8,8.8-8.8h165.5c4.9,0,8.8,3.9,8.8,8.8V436
	C602.1,440.8,598.2,444.8,593.3,444.8z"/>
<path class="st248" d="M840.9,444.8H675.3c-4.9,0-8.8-3.9-8.8-8.8v-99.7c0-4.9,3.9-8.8,8.8-8.8h165.5c4.9,0,8.8,3.9,8.8,8.8V436
	C849.7,440.8,845.7,444.8,840.9,444.8z"/>
<path class="st249" d="M1084.5,444.8H918.9c-4.9,0-8.8-3.9-8.8-8.8v-99.7c0-4.9,3.9-8.8,8.8-8.8h165.5c4.9,0,8.8,3.9,8.8,8.8V436
	C1093.3,440.8,1089.3,444.8,1084.5,444.8z"/>
<path class="st248" d="M1331.1,444.8h-165.5c-4.9,0-8.8-3.9-8.8-8.8v-99.7c0-4.9,3.9-8.8,8.8-8.8h165.5c4.9,0,8.8,3.9,8.8,8.8V436
	C1339.9,440.8,1336,444.8,1331.1,444.8z"/>
<path class="st248" d="M593.3,627.3H427.8c-4.9,0-8.8-3.9-8.8-8.8v-99.7c0-4.9,3.9-8.8,8.8-8.8h165.5c4.9,0,8.8,3.9,8.8,8.8v99.7
	C602.1,623.4,598.2,627.3,593.3,627.3z"/>
<path class="st248" d="M1083.5,629.9H918c-4.9,0-8.8-3.9-8.8-8.8v-99.7c0-4.9,3.9-8.8,8.8-8.8h165.5c4.9,0,8.8,3.9,8.8,8.8v99.7
	C1092.4,626,1088.4,629.9,1083.5,629.9z"/>
<path class="st250" d="M841.1,629.9H675.5c-4.9,0-8.8-3.9-8.8-8.8v-99.7c0-4.9,3.9-8.8,8.8-8.8h165.5c4.9,0,8.8,3.9,8.8,8.8v99.7
	C849.9,626,845.9,629.9,841.1,629.9z"/>
<path class="st248" d="M1331.1,627.3h-165.5c-4.9,0-8.8-3.9-8.8-8.8v-99.7c0-4.9,3.9-8.8,8.8-8.8h165.5c4.9,0,8.8,3.9,8.8,8.8v99.7
	C1339.9,623.4,1336,627.3,1331.1,627.3z"/>
<path class="st248" d="M591.8,808.6H426.3c-4.9,0-8.8-3.9-8.8-8.8v-99.7c0-4.9,3.9-8.8,8.8-8.8h165.5c4.9,0,8.8,3.9,8.8,8.8v99.7
	C600.7,804.7,596.7,808.6,591.8,808.6z"/>
<path class="st248" d="M1083.5,808.6H918c-4.9,0-8.8-3.9-8.8-8.8v-99.7c0-4.9,3.9-8.8,8.8-8.8h165.5c4.9,0,8.8,3.9,8.8,8.8v99.7
	C1092.4,804.7,1088.4,808.6,1083.5,808.6z"/>
<path class="st248" d="M1331.1,808.6h-165.5c-4.9,0-8.8-3.9-8.8-8.8v-99.7c0-4.9,3.9-8.8,8.8-8.8h165.5c4.9,0,8.8,3.9,8.8,8.8v99.7
	C1339.9,804.7,1336,808.6,1331.1,808.6z"/>
<path class="st251" d="M1615.9,770.1c0,0.2,0,0.2,0,0.2C1615.9,770.3,1615.8,770.2,1615.9,770.1L1615.9,770.1z"/>
<path class="st251" d="M1615.9,770.3c0,0,0-0.1-0.1-0.3l0,0.1C1615.9,770.2,1615.9,770.3,1615.9,770.3z"/>
<g>
	<g>
		<g>
			<path class="st227" d="M1356.9,959.9c-1.9,0-3.4-1.5-3.4-3.4V953c0-9.5,5.7-18,14.6-21.6l56.5-24.2l47.9-0.5v49.8
				c0,1.9-1.5,3.4-3.4,3.4H1356.9z"/>
		</g>
	</g>
</g>
<g>
	<g>
		<g>
			<path class="st227" d="M1418.8,964.8c-2.3,0-4.2-1.8-4.2-4v-4.1c0-9.3,5.7-17.3,18.1-25.3l41.5-27.9l58.1-0.6v57.9
				c0,2.2-1.9,4-4.2,4H1418.8z"/>
		</g>
	</g>
</g>
<polygon class="st6" points="1555.7,548.1 1533.5,908.6 1423.9,908.6 1394.8,548.1 "/>
<line class="st252" x1="1464.8" y1="906.5" x2="1457" y2="593.8"/>
<g class="st2">
	<polygon points="1396.2,565.1 1554.5,566.7 1555.5,551.4 1394.6,551.4 	"/>
</g>
<g>
	<path class="st232" d="M1507.1,288.7h-47.7c-27.7,0-53.1,15.5-65.8,40.2l-32.8,63.9c-0.5,0.9-0.9,1.8-1.3,2.7l-67.8,152.2l264,3.1
		l4.2-36.1c0,0,121.1-89.9,98.9-179.4c-6.8-27.5-31.7-46.6-60.1-46.6H1546C1546,288.7,1527.9,313.7,1507.1,288.7z"/>
</g>
<path class="st253" d="M1593.1,349.7c0,0,15.3,84.6-102.6,155.3c0,0,15.6,23.4,2.7,45.1c-0.4,0.7,0.3,1.4,1,1.1
	c10-4.1,56.7-26.4,73.1-40.8"/>
<line class="st254" x1="1433.3" y1="373.4" x2="1394.1" y2="451.1"/>
<g>
	<path class="st229" d="M1544.6,288.7c0,0-11.8-9.7-14.6-30.5c-0.9-6.8-1.9-12.2-2.9-16.5c-2.1-9-9.4-15.9-18.6-17.3
		c-8.2-1.2-23.5-5.8-29.8,3.3c-9.4,13.6,4.9,40,9.8,49.3c1.5,2.8,4.8,4.2,7.8,3.2l10.2-4c0,0,1.4,6.9-5.5,13.9
		C1500.9,290.1,1521.7,320.6,1544.6,288.7z"/>
</g>
<g>
	<path class="st255" d="M1507.9,251.3c0,0,2.8-13.9,9.7-8.3c6.9,5.5-2.8,11.1-2.8,11.1l15.7,12.6l0.5-4.9c0.2-2,0.5-3.9,0.9-5.8
		c1.3-6.9,3.8-27.6-8.8-37.9c-12.6-10.3-40.2-0.8-49.5,2.9c-3.1,1.2-5.8,3.3-7.6,6.1c-1.8,2.9-2.7,6.6,1,10c3.8,3.5,9.4,4,14,1.6
		C1480.9,238.7,1503,225.6,1507.9,251.3z"/>
</g>
<path class="st230" d="M1506.7,276.8l11.1-5.5c0,0-1.9,10.4-14.1,15.6C1503.6,286.9,1508.1,281,1506.7,276.8z"/>
<g class="st2">
	<path d="M1660.2,373.6c0,0-58.2,121.9-159.1,159.6c0,0-1.1,11.4-5.3,18.3C1495.8,551.4,1633.3,496.6,1660.2,373.6z"/>
</g>
<g class="st2">
	<path d="M1414.6,959.9c0,0-2-10,7.4-20c9.4-10,44.5-31.3,44.5-31.3h-9.4c0,0-35.9,21.3-42.6,34.8
		C1410.7,951.1,1414.6,959.9,1414.6,959.9z"/>
</g>
<path class="st227" d="M1446.2,437.8v121.7c-13.4,2.3-27,4-40.6,5.2c-13.7,1.2-27.4,1.7-41.2,1.7c-27.2,0-54.5-2.3-81-6.8
	c-0.5-0.1-0.8-0.4-0.8-0.8v-121c0-0.4,0.5-0.9,1.1-0.8c23.9,5.7,78,5.7,78,5.7c0.9,0,1.9,0,2.8,0c27,0,54.1-1.9,80.6-5.7
	c0.1,0,0.1,0,0.2,0C1445.7,437.1,1446.2,437.4,1446.2,437.8z"/>
<g>
	<g>
		<path class="st229" d="M1490.5,503.7c0,0-6.7,8-59.6,0.4c-1.9-0.3-3.8,0.8-4.3,2.7c-1.2,4,2.5,12.1,19.5,14.9c0,0-13,5-34.7,5.5
			c-2.4,0.1-4.5,2-4.5,4.4c0,2.3,1.7,6.1,8.7,6.8c0,0-4.2,5.5,4.2,6.9c0,0-8.3,6.9,5.5,9.7c0,0-2.8,4.2,4.2,5.5
			c6.9,1.4,37.4,6.9,66.6-9.7C1496,550.8,1511.3,520.3,1490.5,503.7z"/>
	</g>
	<path class="st256" d="M1415.6,538.3c0,0,25,2.8,45.8-6.9"/>
	<path class="st256" d="M1420.9,546.1c0,0,22,2,43.4-4.5"/>
	<path class="st256" d="M1425.1,554.5c0,0,20.6,2,42-4.5"/>
</g>
<polyline class="st257" points="959.8,391.5 984.7,416.4 1043.7,357.4 "/>
<path class="st248" d="M467.8,213.5h-14.1c-9.9,0-17.9-8-17.9-17.9v-73.1c0-9.9,8-17.9,17.9-17.9h14.1c9.9,0,17.9,8,17.9,17.9v73.1
	C485.6,205.5,477.6,213.5,467.8,213.5z"/>
<path class="st248" d="M1306.6,213.5h-14.1c-9.9,0-17.9-8-17.9-17.9v-73.1c0-9.9,8-17.9,17.9-17.9h14.1c9.9,0,17.9,8,17.9,17.9v73.1
	C1324.5,205.5,1316.5,213.5,1306.6,213.5z"/>
<g>
	<path class="st3" d="M790.5,786.7c-1.2,0-2.3-0.4-3.2-1.3l-63.8-63.8c-1.8-1.8-1.8-4.7,0-6.4c1.8-1.8,4.7-1.8,6.4,0l63.8,63.8
		c1.8,1.8,1.8,4.7,0,6.4C792.8,786.3,791.6,786.7,790.5,786.7z"/>
	<path class="st3" d="M726.7,786.7c-1.2,0-2.3-0.4-3.2-1.3c-1.8-1.8-1.8-4.7,0-6.4l63.8-63.8c1.8-1.8,4.7-1.8,6.4,0
		c1.8,1.8,1.8,4.7,0,6.4l-63.8,63.8C729,786.3,727.9,786.7,726.7,786.7z"/>
</g>
<path class="st3" d="M1373.2,538.5h-63.3c-2.1,0-3.8-1.7-3.8-3.8v-3c0-2.1,1.7-3.8,3.8-3.8h63.3c2.1,0,3.8,1.7,3.8,3.8v3
	C1376.9,536.8,1375.2,538.5,1373.2,538.5z"/>
<path class="st3" d="M1412.5,505.8h-102.6c-2.1,0-3.8-1.7-3.8-3.8v-3c0-2.1,1.7-3.8,3.8-3.8h102.6c2.1,0,3.8,1.7,3.8,3.8v3
	C1416.2,504.1,1414.6,505.8,1412.5,505.8z"/>
<g>
	<g>
		<path class="st229" d="M1270.7,555.2c9.2,2.9,17,2.2,23.6,1.2c12.4-2,8.8-8.6,8.8-8.6c12.7-5.8,5.9-9.4,5.9-9.4
			c11.9-2.9,4.9-8.9,4.9-8.9c6.4-4.3,4.9-6.9,3.1-8.2c-1-0.7-2.3-0.9-3.5-0.8c-9.3,1.3-15.9-0.5-15.9-0.5c1.8-10.5-5.7-8.6-11-9.6
			c-17.5-3.3-26.8,10.2-28.3,24.7c-0.8,8.3,3.9,16.2,11.5,19.5C1270.2,555,1270.5,555.2,1270.7,555.2z"/>
	</g>
</g>
<path class="st256" d="M1305.1,521.2c-2.4,0.1-11.8,0.1-21.6-4.2"/>
<path class="st256" d="M1313.8,529.6c0,0-22,2.4-34.7-2.8"/>
<path class="st256" d="M1308.9,538.5c0,0-22,2.4-34.7-2.8"/>
<path class="st256" d="M1303.1,547.9c0,0-22,2.4-34.7-2.8"/>
</svg>
