<?xml version="1.0" encoding="utf-8"?>
<!-- Generator: Adobe Illustrator 24.0.2, SVG Export Plug-In . SVG Version: 6.00 Build 0)  -->
<svg version="1.1" id="Layer_1" xmlns="http://www.w3.org/2000/svg" xmlns:xlink="http://www.w3.org/1999/xlink" x="0px" y="0px"
	 viewBox="0 0 1920 1080" style="enable-background:new 0 0 1920 1080;" xml:space="preserve">
<style type="text/css">
	.st0{fill:#6CACEC;}
	.st1{fill:none;stroke:#000000;stroke-width:2;stroke-linecap:round;stroke-linejoin:round;stroke-miterlimit:10;}
	.st2{opacity:0.1;}
	.st3{fill:#FFFFFF;}
	.st4{fill:#FF81C4;}
	.st5{fill:#FFFFFF;stroke:#000000;stroke-width:2;stroke-linecap:round;stroke-linejoin:round;stroke-miterlimit:10;}
	.st6{fill:#5856D6;}
	.st7{fill:#FF81C4;stroke:#000000;stroke-width:2;stroke-linecap:round;stroke-linejoin:round;stroke-miterlimit:10;}
	.st8{fill:#3880BA;}
	.st9{fill:#FFFFFF;stroke:#000000;stroke-miterlimit:10;}
	.st10{fill:none;stroke:#000000;stroke-miterlimit:10;}
	.st11{fill:none;stroke:#000000;stroke-width:8;stroke-linecap:round;stroke-linejoin:round;stroke-miterlimit:10;}
	.st12{fill:url(#SVGID_1_);stroke:#F2566A;stroke-miterlimit:10;}
	.st13{fill:url(#SVGID_2_);}
	.st14{fill:none;stroke:#F2566A;stroke-miterlimit:10;}
	.st15{fill:none;stroke:#F2566A;stroke-miterlimit:10;stroke-dasharray:10.2805,139.8143;}
	.st16{fill:url(#SVGID_4_);stroke:#F2566A;stroke-miterlimit:10;}
	.st17{fill:url(#SVGID_5_);stroke:#F2566A;stroke-miterlimit:10;}
	.st18{fill:url(#SVGID_6_);fill-opacity:0.15;stroke:#549BF4;stroke-width:2;stroke-opacity:8.222246e-02;}
	.st19{fill:url(#SVGID_8_);fill-opacity:0.15;stroke:#549BF4;stroke-width:2;stroke-opacity:8.222246e-02;}
	.st20{opacity:0.62;fill:url(#SVGID_10_);fill-opacity:0.5;}
	.st21{opacity:0.62;fill:url(#SVGID_12_);fill-opacity:0.5;}
	.st22{opacity:0.62;fill:url(#SVGID_13_);fill-opacity:0.5;}
	.st23{opacity:0.62;fill:url(#SVGID_14_);fill-opacity:0.5;}
	.st24{opacity:0.62;fill:url(#SVGID_15_);fill-opacity:0.5;}
	.st25{opacity:0.62;fill:url(#SVGID_16_);fill-opacity:0.5;}
	.st26{opacity:0.62;fill:url(#SVGID_17_);fill-opacity:0.5;}
	.st27{opacity:0.62;fill:url(#SVGID_18_);fill-opacity:0.5;}
	.st28{fill:url(#SVGID_19_);stroke:#F2566A;stroke-miterlimit:10;stroke-dasharray:203,31,0,0,0;}
	.st29{fill:none;stroke:#F2566A;stroke-miterlimit:10;stroke-dasharray:110,0,0,0,0;}
	.st30{fill:none;stroke:#CBD6E8;stroke-miterlimit:10;}
	.st31{fill:url(#SVGID_20_);}
	.st32{fill:url(#SVGID_21_);}
	.st33{fill:url(#SVGID_22_);}
	.st34{fill:url(#SVGID_23_);}
	.st35{fill:url(#SVGID_24_);}
	.st36{fill:url(#SVGID_25_);}
	.st37{fill:none;stroke:#FFFFFF;stroke-miterlimit:10;}
	.st38{fill:url(#SVGID_27_);}
	.st39{fill:none;stroke:#FFFFFF;stroke-linecap:round;stroke-miterlimit:10;}
	.st40{fill:url(#SVGID_28_);}
	.st41{fill:url(#SVGID_29_);}
	.st42{opacity:0.36;fill:url(#SVGID_30_);enable-background:new    ;}
	.st43{opacity:0.36;fill:url(#SVGID_31_);enable-background:new    ;}
	.st44{fill:url(#SVGID_32_);fill-opacity:0.15;stroke:#549BF4;stroke-width:2;stroke-opacity:8.222246e-02;}
	.st45{fill:url(#SVGID_34_);fill-opacity:0.15;stroke:#549BF4;stroke-width:2;stroke-opacity:8.222246e-02;}
	.st46{fill:url(#SVGID_35_);fill-opacity:0.15;stroke:#549BF4;stroke-width:2;stroke-opacity:8.222246e-02;}
	.st47{fill:url(#SVGID_36_);fill-opacity:0.15;stroke:#549BF4;stroke-width:2;stroke-opacity:8.222246e-02;}
	.st48{fill:url(#SVGID_37_);fill-opacity:0.5;stroke:#FFFFFF;stroke-linejoin:round;}
	.st49{fill:url(#SVGID_38_);fill-opacity:0.15;stroke:#549BF4;stroke-width:2;stroke-opacity:8.222246e-02;}
	.st50{opacity:0.54;fill:#FFFFFF;enable-background:new    ;}
	.st51{fill:#363C61;}
	.st52{fill:none;stroke:url(#SVGID_39_);stroke-width:9;stroke-miterlimit:10;}
	.st53{fill:none;stroke:url(#SVGID_40_);stroke-width:9;stroke-miterlimit:10;}
	.st54{fill:none;stroke:#FFFFFF;stroke-width:3;stroke-miterlimit:10;}
	.st55{opacity:0.62;fill:url(#SVGID_41_);fill-opacity:0.5;}
	.st56{opacity:0.62;fill:url(#SVGID_42_);fill-opacity:0.5;}
	.st57{opacity:0.62;fill:url(#SVGID_43_);fill-opacity:0.5;}
	.st58{opacity:0.6;fill:url(#SVGID_44_);fill-opacity:0.5;}
	.st59{fill:url(#SVGID_45_);fill-opacity:0.15;stroke:#549BF4;stroke-width:2;stroke-opacity:8.222246e-02;}
	.st60{fill:url(#SVGID_46_);fill-opacity:0.15;stroke:#549BF4;stroke-width:2;stroke-opacity:8.222246e-02;}
	.st61{fill:url(#SVGID_47_);fill-opacity:0.15;stroke:#549BF4;stroke-width:2;stroke-opacity:8.222246e-02;}
	.st62{fill:url(#SVGID_48_);fill-opacity:0.15;stroke:#549BF4;stroke-width:2;stroke-opacity:8.222246e-02;}
	.st63{opacity:0.62;fill:url(#SVGID_49_);fill-opacity:0.5;}
	.st64{opacity:0.62;fill:url(#SVGID_50_);fill-opacity:0.5;}
	.st65{opacity:5.000000e-02;fill:none;stroke:#FFFFFF;stroke-width:2;stroke-miterlimit:10;}
	.st66{opacity:0.15;fill:url(#SVGID_51_);fill-opacity:0.5;}
	.st67{opacity:0.5;}
	.st68{fill:none;stroke:#FFFFFF;stroke-width:2;stroke-dasharray:11.8503,11.8503;}
	.st69{fill:url(#SVGID_52_);fill-opacity:0.5;stroke:#FFFFFF;stroke-linejoin:round;}
	.st70{fill:url(#SVGID_53_);fill-opacity:0.15;stroke:#549BF4;stroke-width:2;stroke-opacity:8.222246e-02;}
	.st71{fill:#CAD6E8;}
	.st72{fill:url(#SVGID_54_);}
	.st73{fill:url(#SVGID_55_);}
	.st74{opacity:0.89;fill:#F2566A;enable-background:new    ;}
	.st75{fill:#EBF1FC;}
	.st76{fill:#CEDEF2;}
	.st77{fill:url(#SVGID_56_);}
	.st78{fill:url(#SVGID-2_1_);}
	.st79{fill:url(#SVGID-3_1_);}
	.st80{fill:url(#SVGID_57_);}
	.st81{clip-path:url(#SVGID_58_);}
	.st82{fill:url(#SVGID_59_);}
	.st83{fill:#CBD6E8;}
	.st84{stroke:#000000;stroke-miterlimit:10;}
	.st85{fill:url(#SVGID_60_);}
	.st86{fill:url(#SVGID-4_1_);}
	.st87{fill:url(#SVGID_61_);}
	.st88{opacity:0.36;fill:url(#SVGID_62_);enable-background:new    ;}
	.st89{opacity:0.4;fill:#3574EC;enable-background:new    ;}
	.st90{fill:url(#SVGID-5_1_);}
	.st91{fill:url(#SVGID-6_1_);}
	.st92{fill:url(#SVGID_63_);}
	.st93{clip-path:url(#SVGID_64_);}
	.st94{fill:url(#SVGID_65_);}
	.st95{fill:url(#SVGID-7_1_);}
	.st96{opacity:0.4;fill:#FFFFFF;enable-background:new    ;}
	.st97{opacity:0.9;fill:#FFFFFF;enable-background:new    ;}
	.st98{opacity:0.9;}
	.st99{fill:url(#SVGID_66_);}
	.st100{opacity:0.36;fill:url(#SVGID_67_);enable-background:new    ;}
	.st101{fill:url(#SVGID_68_);}
	.st102{fill:url(#SVGID_69_);}
	.st103{fill:url(#SVGID_70_);fill-opacity:0.3;}
	.st104{opacity:8.000000e-02;fill:#549BF4;enable-background:new    ;}
	.st105{fill:url(#SVGID_71_);fill-opacity:0.15;}
	.st106{opacity:0.8;}
	.st107{fill:#9090D0;}
	.st108{fill:none;stroke:#000000;stroke-width:3;stroke-linecap:round;stroke-linejoin:round;stroke-miterlimit:10;}
	.st109{fill:#CFCED4;}
	.st110{fill:#FEAD91;}
	.st111{fill:#FFFFFF;stroke:#000000;stroke-width:3;stroke-linecap:round;stroke-linejoin:round;stroke-miterlimit:10;}
	.st112{fill:#FEAD91;stroke:#000000;stroke-width:3;stroke-miterlimit:10;}
	.st113{fill:#FFE2AA;}
	.st114{fill:#FFE2AA;stroke:#000000;stroke-width:3;stroke-linecap:round;stroke-linejoin:round;stroke-miterlimit:10;}
	.st115{fill:none;stroke:#000000;stroke-width:4;stroke-linecap:round;stroke-linejoin:round;stroke-miterlimit:10;}
	.st116{fill:#FFFFFF;stroke:#000000;stroke-width:5;stroke-linecap:round;stroke-linejoin:round;stroke-miterlimit:10;}
	.st117{fill:none;stroke:#000000;stroke-width:3;stroke-miterlimit:10;}
	.st118{fill:#FFFFFF;stroke:#000000;stroke-width:2;stroke-miterlimit:10;}
	.st119{fill:#FFC9E6;}
	.st120{fill:#FCA1BB;}
	.st121{fill:#151614;}
	.st122{fill:#FFFFFF;stroke:#1B0042;stroke-width:2;stroke-linecap:round;stroke-linejoin:round;stroke-miterlimit:10;}
	.st123{fill:none;stroke:#1B0042;stroke-width:2;stroke-linecap:round;stroke-linejoin:round;stroke-miterlimit:10;}
	.st124{fill:#1B0042;}
	
		.st125{opacity:0.15;clip-path:url(#XMLID_13_);fill:none;stroke:#FFFFFF;stroke-width:2;stroke-linecap:round;stroke-linejoin:round;stroke-miterlimit:10;}
	.st126{fill:none;stroke:#000000;stroke-linecap:round;stroke-linejoin:round;stroke-miterlimit:10;}
	.st127{fill:none;stroke:#FFFFFF;stroke-linecap:round;stroke-linejoin:round;stroke-miterlimit:10;}
	
		.st128{opacity:0.15;clip-path:url(#XMLID_15_);fill:none;stroke:#FFFFFF;stroke-width:2;stroke-linecap:round;stroke-linejoin:round;stroke-miterlimit:10;}
	
		.st129{opacity:0.15;clip-path:url(#XMLID_16_);fill:none;stroke:#FFFFFF;stroke-width:2;stroke-linecap:round;stroke-linejoin:round;stroke-miterlimit:10;}
	.st130{fill:none;stroke:#FFFFFF;stroke-width:2;stroke-linecap:round;stroke-linejoin:round;stroke-miterlimit:10;}
	
		.st131{opacity:0.15;clip-path:url(#XMLID_17_);fill:none;stroke:#FFFFFF;stroke-width:2;stroke-linecap:round;stroke-linejoin:round;stroke-miterlimit:10;}
	.st132{opacity:0.15;clip-path:url(#XMLID_18_);fill:none;stroke:#FFFFFF;stroke-width:2;stroke-miterlimit:10;}
	
		.st133{opacity:0.15;clip-path:url(#XMLID_19_);fill:none;stroke:#FFFFFF;stroke-width:2;stroke-linecap:round;stroke-linejoin:round;stroke-miterlimit:10;}
	.st134{fill:#FFFFFF;stroke:#2C234A;stroke-width:2;stroke-linecap:round;stroke-linejoin:round;stroke-miterlimit:10;}
	.st135{fill:#8AAFF6;}
	.st136{fill:none;stroke:#2C234A;stroke-width:2;stroke-linecap:round;stroke-linejoin:round;stroke-miterlimit:10;}
	.st137{opacity:0.2;}
	.st138{fill:#2C234A;}
	.st139{fill:none;stroke:#4417D7;stroke-width:2;stroke-linecap:round;stroke-linejoin:round;stroke-miterlimit:10;}
	.st140{fill:none;stroke:#EFCC4A;stroke-width:2;stroke-linecap:round;stroke-linejoin:round;stroke-miterlimit:10;}
	.st141{fill:#E3DFFF;}
	.st142{fill:none;stroke:#9D8AF6;stroke-width:2;stroke-linecap:round;stroke-linejoin:round;stroke-miterlimit:10;}
	.st143{clip-path:url(#SVGID_72_);}
	.st144{fill:none;stroke:#E3DFFF;stroke-width:4;stroke-linecap:round;stroke-linejoin:round;stroke-miterlimit:10;}
	.st145{fill:none;stroke:#D6D4D4;stroke-width:10;stroke-linecap:round;stroke-linejoin:round;stroke-miterlimit:10;}
	.st146{fill:none;stroke:#FF4B42;stroke-width:10;stroke-linecap:round;stroke-linejoin:round;stroke-miterlimit:10;}
	.st147{fill:#D7B9D8;}
	.st148{fill:#D6D4D4;}
	.st149{fill:#FFB69D;}
	.st150{fill:#D6D4D4;stroke:#FFFFFF;stroke-width:2;stroke-miterlimit:10;}
	.st151{clip-path:url(#XMLID_20_);}
	.st152{clip-path:url(#XMLID_21_);}
	.st153{fill:none;stroke:#FFFFFF;stroke-width:5;stroke-linecap:round;stroke-linejoin:round;stroke-miterlimit:10;}
	.st154{fill:#FF4B42;}
	.st155{clip-path:url(#XMLID_24_);}
	.st156{clip-path:url(#SVGID_74_);}
	.st157{clip-path:url(#XMLID_25_);}
	.st158{fill:#FEC0D9;}
	
		.st159{fill:none;stroke:#D6D4D4;stroke-width:3;stroke-linecap:round;stroke-linejoin:round;stroke-miterlimit:10;stroke-dasharray:20,20;}
	.st160{fill:#6BA5BD;}
	.st161{clip-path:url(#XMLID_28_);}
	.st162{clip-path:url(#SVGID_76_);}
	.st163{clip-path:url(#XMLID_29_);}
	.st164{clip-path:url(#XMLID_33_);}
	.st165{fill:none;stroke:#FFFFFF;stroke-width:4;stroke-linecap:round;stroke-linejoin:round;stroke-miterlimit:10;}
	.st166{fill:none;stroke:#FFFF00;stroke-width:2;stroke-linecap:round;stroke-linejoin:round;stroke-miterlimit:10;}
	.st167{fill:#FEC0D9;stroke:#000000;stroke-width:3;stroke-linecap:round;stroke-linejoin:round;stroke-miterlimit:10;}
	.st168{fill:#FFCDB2;stroke:#000000;stroke-width:2;stroke-linecap:round;stroke-linejoin:round;stroke-miterlimit:10;}
	.st169{stroke:#FFFFFF;stroke-width:2;stroke-miterlimit:10;}
	.st170{fill:#996533;stroke:#000000;stroke-width:2;stroke-linecap:round;stroke-linejoin:round;stroke-miterlimit:10;}
	.st171{stroke:#000000;stroke-width:2;stroke-linecap:round;stroke-linejoin:round;stroke-miterlimit:10;}
	.st172{fill:#996533;stroke:#000000;stroke-width:2;stroke-miterlimit:10;}
	.st173{fill:#FF6600;stroke:#000000;stroke-width:2;stroke-linecap:round;stroke-linejoin:round;stroke-miterlimit:10;}
	.st174{fill:#FFCDB2;}
	.st175{fill:none;stroke:#000000;stroke-width:2;stroke-miterlimit:10;}
	.st176{fill:none;stroke:#000000;stroke-width:5;stroke-linecap:round;stroke-linejoin:round;stroke-miterlimit:10;}
	.st177{fill:#9B4CB5;stroke:#000000;stroke-width:2;stroke-linecap:round;stroke-linejoin:round;stroke-miterlimit:10;}
	.st178{fill:#C8C8FF;stroke:#000000;stroke-width:2;stroke-linecap:round;stroke-linejoin:round;stroke-miterlimit:10;}
	.st179{fill:#DDDCDD;}
	.st180{fill:#FA6058;stroke:#000000;stroke-width:2;stroke-miterlimit:10;}
	.st181{fill:#FBBC2D;stroke:#000000;stroke-width:2;stroke-miterlimit:10;}
	.st182{fill:#30CA41;stroke:#000000;stroke-width:2;stroke-miterlimit:10;}
	.st183{stroke:#FFFFFF;stroke-width:2;stroke-linecap:round;stroke-linejoin:round;stroke-miterlimit:10;}
	.st184{fill:none;stroke:#C8C8FF;stroke-width:5;stroke-linecap:round;stroke-linejoin:round;stroke-miterlimit:10;}
	.st185{stroke:#000000;stroke-width:2;stroke-miterlimit:10;}
	.st186{fill:#FF2D55;}
	.st187{fill:#D4D7FF;}
	.st188{fill:#FFCBC2;}
	.st189{clip-path:url(#SVGID_77_);}
	.st190{fill:#352F84;}
	.st191{clip-path:url(#SVGID_78_);}
	.st192{clip-path:url(#SVGID_79_);}
	.st193{clip-path:url(#XMLID_37_);}
	.st194{opacity:0.4;clip-path:url(#XMLID_41_);}
	.st195{clip-path:url(#XMLID_44_);}
	.st196{fill:#FF3167;}
	.st197{fill:#91A3B4;}
	.st198{fill:#E05555;}
	.st199{fill:none;stroke:#EFA9A9;stroke-width:2;stroke-miterlimit:10;}
	.st200{clip-path:url(#XMLID_46_);}
	.st201{fill:#F2F2F2;}
	.st202{fill:#6F8393;}
	.st203{fill:#333333;}
	.st204{fill:#B5C7C3;}
	.st205{clip-path:url(#XMLID_47_);}
	.st206{clip-path:url(#SVGID_81_);}
	.st207{clip-path:url(#XMLID_50_);}
	.st208{fill:#5595E0;}
	.st209{fill:#FCFCFC;}
	.st210{fill:none;stroke:#CACBDB;stroke-width:10;stroke-linecap:round;stroke-linejoin:round;stroke-miterlimit:10;}
	
		.st211{fill:none;stroke:#CACBDB;stroke-width:10;stroke-linecap:round;stroke-linejoin:round;stroke-miterlimit:10;stroke-dasharray:30,30;}
	.st212{fill:none;stroke:#CACBDB;stroke-width:21;stroke-linecap:round;stroke-linejoin:round;stroke-miterlimit:10;}
	.st213{fill:#E45858;}
	.st214{fill:#CFD4FF;}
	.st215{fill:#2A2C67;}
	.st216{clip-path:url(#XMLID_51_);}
	.st217{fill:#585DE4;}
	.st218{fill:none;stroke:#324A81;stroke-width:5;stroke-linecap:round;stroke-linejoin:round;stroke-miterlimit:10;}
	.st219{fill:#CFD4FF;stroke:#2A2C67;stroke-width:5;stroke-linecap:round;stroke-linejoin:round;stroke-miterlimit:10;}
	.st220{clip-path:url(#XMLID_52_);}
	.st221{clip-path:url(#XMLID_53_);}
	.st222{fill:none;stroke:#FEFEFF;stroke-width:5;stroke-linecap:round;stroke-linejoin:round;stroke-miterlimit:10;}
	.st223{fill:#CFD4FF;stroke:#2A2C67;stroke-width:5;stroke-miterlimit:10;}
	.st224{fill:none;stroke:#2A2C67;stroke-width:5;stroke-linecap:round;stroke-linejoin:round;stroke-miterlimit:10;}
	.st225{fill:none;stroke:#585DE4;stroke-width:5;stroke-miterlimit:10;}
	.st226{fill:none;stroke:#585DE4;stroke-width:5;stroke-linecap:round;stroke-linejoin:round;stroke-miterlimit:10;}
	.st227{fill:#E8E8F7;}
	
		.st228{opacity:0.4;fill:none;stroke:#303044;stroke-width:2.5095;stroke-linecap:round;stroke-linejoin:round;stroke-miterlimit:10;}
	.st229{fill:#FEC5C4;}
	.st230{fill:#EF8D8B;}
	.st231{fill:#FEC5C4;stroke:#EF8D8B;stroke-width:2.5095;stroke-linecap:round;stroke-linejoin:round;stroke-miterlimit:10;}
	.st232{fill:#F048BA;}
	.st233{fill:#FFFFFF;stroke:#E8E8F7;stroke-width:2;stroke-linecap:round;stroke-linejoin:round;stroke-miterlimit:10;}
	.st234{fill:none;stroke:#E8E8F7;stroke-width:2;stroke-linecap:round;stroke-linejoin:round;stroke-miterlimit:10;}
	.st235{fill:#303044;}
	.st236{fill:none;}
	.st237{fill:none;stroke:#EF8D8B;stroke-width:2.5095;stroke-linecap:round;stroke-linejoin:round;stroke-miterlimit:10;}
	.st238{fill:none;stroke:#E8E8F7;stroke-width:7;stroke-linecap:round;stroke-linejoin:round;stroke-miterlimit:10;}
	.st239{fill:#FFFFFF;stroke:#E8E8F7;stroke-width:7;stroke-linecap:round;stroke-linejoin:round;stroke-miterlimit:10;}
	.st240{fill:#FFFFFF;stroke:#E8E8F7;stroke-width:5.62;stroke-miterlimit:10;}
	.st241{fill:#E8E8F7;stroke:#E8E8F7;stroke-width:5.62;stroke-miterlimit:10;}
	.st242{fill:#FEC5C4;stroke:#EF8D8B;stroke-width:2;stroke-linecap:round;stroke-linejoin:round;stroke-miterlimit:10;}
	.st243{fill:none;stroke:#EF8D8B;stroke-width:2;stroke-linecap:round;stroke-linejoin:round;stroke-miterlimit:10;}
	.st244{fill:#E8E8F7;stroke:#FFFFFF;stroke-width:5.62;stroke-miterlimit:10;}
	.st245{opacity:0.4;fill:none;stroke:#000000;stroke-width:2;stroke-linecap:round;stroke-linejoin:round;stroke-miterlimit:10;}
	.st246{fill:none;stroke:#E8E8F7;stroke-width:5.1321;stroke-miterlimit:10;}
	.st247{fill:none;stroke:#EF8D8B;stroke-width:2;stroke-linecap:round;stroke-miterlimit:10;}
	.st248{fill:#FFFFFF;stroke:#E8E8F7;stroke-width:5;stroke-miterlimit:10;}
	.st249{fill:#E8E8F7;stroke:#E8E8F7;stroke-width:5;stroke-miterlimit:10;}
	.st250{fill:#FFFFFF;stroke:#E8E8F7;stroke-width:5;stroke-miterlimit:10;stroke-dasharray:20,20;}
	.st251{fill:#F2F2F6;}
	.st252{opacity:0.4;fill:#FFFFFF;stroke:#000000;stroke-width:2.1161;stroke-linecap:round;stroke-miterlimit:10;}
	
		.st253{opacity:0.4;fill:none;stroke:#000000;stroke-width:2.1161;stroke-linecap:round;stroke-linejoin:round;stroke-miterlimit:10;stroke-dasharray:140.7185,204.2005;}
	.st254{opacity:0.4;fill:none;stroke:#000000;stroke-width:2.1161;stroke-linecap:round;stroke-miterlimit:10;}
	.st255{fill:#282828;}
	.st256{fill:#FEC5C4;stroke:#EF8D8B;stroke-width:1.058;stroke-linecap:round;stroke-miterlimit:10;}
	.st257{fill:none;stroke:#FFFFFF;stroke-width:8;stroke-linecap:round;stroke-linejoin:round;stroke-miterlimit:10;}
	
		.st258{fill:none;stroke:#E8E8F7;stroke-width:5;stroke-linecap:round;stroke-linejoin:round;stroke-miterlimit:10;stroke-dasharray:20,20;}
	.st259{fill:none;stroke:#E8E8F7;stroke-width:4.7431;stroke-linecap:round;stroke-linejoin:round;stroke-miterlimit:10;}
	
		.st260{opacity:0.4;fill:none;stroke:#000000;stroke-width:1.7088;stroke-linecap:round;stroke-linejoin:round;stroke-miterlimit:10;}
	.st261{fill-rule:evenodd;clip-rule:evenodd;fill:#F7931A;}
	.st262{fill:none;stroke:#EF8D8B;stroke-width:1.9557;stroke-linecap:round;stroke-linejoin:round;stroke-miterlimit:10;}
</style>
<path class="st134" d="M918.3,280.7l-50,27.4l-25.5-112.3c-1.1-7.2-5-15.8-8.6-22.2c-3.7-6.3-15.2-19.5-21.5-15.7
	c-4.8,2.9-6.7,7.6-7.2,7.6c-3.9-0.5-4.6-2.4-8.1-4.1c-3.5-1.8-10.4-3.2-14.1-2c-3.7,1.2-6.1,6.4-3.4,9.3c-2.8,0.1-6.5,3.2-7.1,5.9
	s0.8,6.7,3.2,7.9c-2.9,0.3-5.4,2.1-5.9,4.9c-0.5,2.8,1.1,5.9,3.7,7.2c14.5,7,23.7,17.6,38.1,24.7c-0.7,0,3.3,18.9,2.6,18.8
	c5.6,46.3,8.1,63.2,15.1,105.8c1.9,11.7,4.3,17.9,15.4,22.2c7.4,2.8,20.3-2.5,27.8-5.1c18.5-6.4,43.7-19.5,62.2-26
	C928.8,309.6,924.4,306.2,918.3,280.7z"/>
<path class="st135" d="M985.5,314.1l-56.2,24.5L913.7,282c0,0,58.4-41.7,88.3-16.1"/>
<path class="st136" d="M1161.5,566.8c-0.4,14.9,4.4,29.9,10.3,43.6c1,2.3,2.2,4.7,4.5,5.6c1.7,0.7,3.8,0.3,5.2-0.9s1.9-3.3,1.4-5.1"
	/>
<g>
	<path class="st135" d="M860,868.7l-11.2,36.6c-2.4,4.5-7.1,7.3-12.2,7.2l-97.6,5.6c-6.5-0.1-12.5,3.6-15.4,9.4v0
		c-4.7,9.5,0.4,21,10.7,23.8l140.5,38.9c7.8,2.1,16-1.5,19.6-8.7l31.6-92.1L860,868.7z"/>
	<g class="st137">
		<path d="M911.4,884.2l-19.9,75.7c-5.2,11.4-17.2,18.3-29.7,17l-55.8-5.6l65.7,19.9c10,3,18.7-2.3,23.2-11.6l30.9-90L911.4,884.2z"
			/>
	</g>
</g>
<g>
	<path class="st135" d="M1084.8,882l15,35.3c1.1,5-0.7,10.2-4.7,13.4l-71.1,67.1c-5.1,4.1-7.3,10.8-5.7,17.1v0
		c2.5,10.3,13.8,15.8,23.5,11.4l132.6-60.6c7.3-3.4,11.3-11.4,9.4-19.3l-35.1-90.8L1084.8,882z"/>
	<g class="st137">
		<path d="M1134.2,860.8l33.5,70.7c3.3,12.1-1.4,25-11.8,32.1l-46.3,31.6l63.1-27.1c9.6-4.1,12.8-13.7,10.3-23.8l-34.3-88.8
			L1134.2,860.8z"/>
	</g>
</g>
<g>
	<path class="st3" d="M995.3,252.2c4.9-4.2,7.6-10,5.8-16.2c-13.3-3.7-20.7-18.8-20.7-32.6c0-13.8,4.6-27,10.3-39.5
		c6-13,27.7-18.9,40.3-12.2c0,0,32,8.9,23.4,46.8c-0.8,3.4-2.6,8.4-5.1,12.8c-4.6,7.9-7.5,16.7-7.9,25.8c-0.3,7.8,0.8,16.6,5.3,23.8
		c0,0-2.6,22.1-37.5,23C974.5,285.1,995.3,252.2,995.3,252.2z"/>
</g>
<path class="st136" d="M1047.1,261.9c-6.3,14.4-22.7,23.7-38.3,21.8l-13.4-31.4c4.9-4.2,7.6-10,5.8-16.2
	c-13.3-3.7-20.7-18.8-20.7-32.6"/>
<path class="st136" d="M990.7,163.9c6-13,27.7-18.9,40.3-12.2c0,0,32,8.9,23.4,46.8c-0.7,3.1-2.7,8.3-5.3,13.1
	c-5.5,10-8,21.4-6.6,32.6c0.6,5.3,1.9,11,4.2,16.7c0,0-3.4,21.1-37.3,23.3"/>
<path class="st138" d="M1001.3,235.2c0,0,6.1,1.4,16-1.9c0,0-3.6,12-16.4,11.9C1000.9,245.1,1002.8,241,1001.3,235.2z"/>
<path class="st136" d="M993.3,185.5c0.1,2-0.9,3.8-2.2,5.3c-1.3,1.5-4.8,3.2-6.2,4.5c-1,1-2,2.3-1.9,3.8c0.1,1.5,1.4,2.7,2.7,3.4
	c2.2,1.2,6.9,0.9,9.3,0.1"/>
<path class="st136" d="M999.4,190.6c1.5-1.7,3.6-2.3,5-1.5s2.2,2.8,1.9,5.1"/>
<path class="st136" d="M980.7,186.5c1.2-1.9,3-2.9,4.6-2.5c1.5,0.5,2.7,2.3,2.8,4.7"/>
<path class="st138" d="M1030,170.3c-0.3-1.8-39.1,13.6-55.9-10.4c-16.8-23.9,11.2-36.7,26.3-30.3c4,1.7,8.5,3.4,12.5,4.9
	c5.5,2.1,11.3,3,17.2,2.9c5.4-0.2,13.5,1,22.2,7.4c15.2,11.2,13.6,31.9,4,53.5c-11,24.8-9.7,18.5-9.7,18.5l-4.5-11.2
	c-0.6-1.5-0.4-3.3,0.4-4.7c3.3-5.1,10.5-17.3,4.1-18.6c-4.9-1-7.6,3.7-9.1,7.5c-0.9,2.3-3.5,3.3-5.6,2.1h0c-1.6-0.9-2.3-2.6-1.9-4.4
	C1030.8,184.3,1031.5,178.7,1030,170.3z"/>
<path class="st135" d="M1046.5,251.5c0,0-29.9,21.7-52.7,0c0,0-32,7.2-38.2,40.3c-6.2,33-12.4,184.8-12.4,184.8l127.6,4.1
	c0,0,14.2-119.3,17-139.4C1094,295.9,1077.5,262.8,1046.5,251.5z"/>
<circle class="st138" cx="1007.5" cy="216.1" r="7.1"/>
<path class="st3" d="M1076.9,350.5l49.1,65.1l36.8,125.5c-1.3,23.4,5.1,47.1,17.5,66.9c1.3,2,2.6,4,4.6,5.3c2,1.3,4.7,1.7,6.6,0.3
	c1.9-1.4,2.3-4.7,0.3-6c1.6,1.6,3.2,3.3,5.6,3.5c1.3,0.1,2.5-0.4,3.2-1.5c1.1-1.9-0.2-4-1.4-5.6c-8.2-11.5-13.5-25-15.1-39
	c1.6,4.1,2.6,6,5.2,9.6c1,1.4,2.3,2.7,3.6,3.8c2.1,1.7,5.1-0.5,4.1-3c-1.8-4.4-3.1-9-3.9-13.7c-1-6-1.2-12.1-2.4-18.1
	c-1.1-6-3.4-12-7.8-16.2c-2.7-16.5-5.3-35.5-8-51.9c-4-24.2-8.1-48.6-15.9-71.9c-11.9-35.4-32.1-65.5-52.1-97
	c-0.1,1.2-0.3,0.5-0.4,1.7"/>
<path class="st136" d="M1085.3,361.9l35.9,50l35.3,119.6c0.9,2.9,1.4,5.9,1.4,9c0.1,22.6,10.6,48.9,22.4,67.6c1.3,2,2.6,4,4.6,5.3
	c2,1.3,4.7,1.7,6.6,0.3c1.9-1.4,2.3-4.7,0.3-6c1.6,1.6,3.2,3.3,5.6,3.5c1.3,0.1,2.5-0.4,3.2-1.5c1.1-1.9-0.2-4-1.4-5.6
	c-8.2-11.5-11.6-25-13.3-39c1.6,4.1,1.6,7.9,4.2,11.4c1,1.4,3.8,4.9,5.5,4.8c4.8-0.5,4.2-3.3,3.2-5.9c-1.8-4.4-3.1-9-3.9-13.7
	c-1-6-1.2-12.1-2.4-18.1c-0.9-4.6-3.6-9.3-6.8-13.1c-2-2.4-3.3-5.3-3.7-8.3c-2.4-15.2-4.7-32-7.2-46.7c-4-24.2-8.1-48.6-15.9-71.9
	c-11.9-35.4-26.4-66.4-46.4-97.9"/>
<path class="st135" d="M1037.2,301.5l36.8,49.1l41.5-41.5c0,0-30.2-65.1-68.9-57.6"/>
<polyline class="st139" points="1033.4,295.8 1074,350.5 1088.4,337 "/>
<path class="st136" d="M1192.4,608.5c-9.9-9.8-19.3-30.5-23.5-44.6"/>
<path class="st136" d="M1186,565.4c3.9-11.6,3.6-24.5-0.7-35.9"/>
<path class="st139" d="M950.3,344.8c-0.3-14,1.2-34.7,3.2-48.5c2-13.9,9.1-26,22.3-36.3"/>
<path class="st138" d="M995.1,478.2L907,688.3l-55.7,198.2l69.8,24.5l49.3-174.4c6.4-22.6,15.6-44.3,27.5-64.6
	c28.4-48.4,80.9-145.5,73.2-191.3L995.1,478.2z"/>
<path class="st138" d="M942.9,476c0,0,0,150,54.7,232.1c0,0,90.6,188.7,94.4,188.7s62.3-28.3,62.3-28.3L1058,656.3l-24.5-177.5
	L942.9,476z"/>
<line class="st140" x1="953.1" y1="579.9" x2="990.7" y2="489.6"/>
<line class="st140" x1="987.1" y1="693.2" x2="1046.4" y2="578.3"/>
<g>
	<g>
		<path class="st141" d="M782.7,207c3,1.5,5.7,0.9,7.5-3.4c5.7-13.7,13.5-28.8,21.1-42.2c-3.4-1.8-6.9-3.5-10.4-5.2
			c-7.5,13.6-15.5,28.5-21,42.4C778.3,203.1,779.7,205.5,782.7,207z"/>
		<path class="st141" d="M790.4,151.7c9.9,5.6,27.8,14,36.7,17c7,2.3,6.6,0.5,9.1-2.7c4.4-5.9,7.3-14.3,10.4-20.7
			c1.7-3.5,0.9-5.9-2.8-7.9c-11.6-6-25.1-12.2-37.3-17.9C801.1,130.3,795.3,140.8,790.4,151.7z"/>
		<path class="st135" d="M729.6,141.7c21.3-1,40.7,1.9,60.4,10.2c5.4-11,11-21.8,16.5-32.7c-18.1-11.4-32.9-24.7-45.4-42.1
			C750.6,98.7,740.1,120.2,729.6,141.7z"/>
		<path class="st141" d="M717.1,153.7c2.9,1.4,6,1.1,7.8-2.7c13.4-27.2,27.4-56,40.7-83.3c1.8-3.8,0.1-6.4-2.8-7.8
			c-2.9-1.4-6-1.1-7.8,2.7c-13.4,27.2-27.5,56-40.7,83.3C712.5,149.7,714.2,152.3,717.1,153.7z"/>
	</g>
</g>
<path class="st134" d="M770.4,189.7c1.6,9.9,12.3,14.1,20.7,18.5c1.9,1,4.2,1.8,6.1,0.9c2.1-1,2.9-3.7,2.3-5.9
	c-0.6-2.2-2.1-4.1-3.8-5.7c-4-4-8.7-3.6-13.6-9.8"/>
<path class="st134" d="M772.3,177.4c1.6,9.9,14.2,15,22.6,19.5c1.9,1,4.2,1.8,6.1,0.9c2.1-1,2.9-3.7,2.3-5.9
	c-0.6-2.2-2.1-4.1-3.8-5.7c-4-4-8.7-3.6-13.6-9.8"/>
<path class="st134" d="M778.9,166.1c1.6,9.9,13.2,16,21.7,20.4c1.9,1,4.2,1.8,6.1,0.9c2.1-1,2.9-3.7,2.3-5.9
	c-0.6-2.2-2.1-4.1-3.8-5.7c-4-4-8.7-3.6-13.6-9.8"/>
<path class="st134" d="M809.8,161.8c0,0-16.9,16.1-10.3,17.9c6.6,1.9,14.2-4.7,14.2-4.7s-8.5,15.1,2.8,26.4"/>
<path class="st138" d="M867.4,306.2l2.8,15.1c0,0,17.5-14.2,20.5-25.5L867.4,306.2z"/>
<path class="st136" d="M819,358.4c1.4,10.2,8.6,19.3,18.2,23.1"/>
<path class="st136" d="M811,368c-0.6,7.7,5,15.4,12.5,17.1"/>
<path class="st136" d="M1175.5,374.4c6.2,11,8.7,24,7.3,36.6"/>
<path class="st136" d="M1186,376.6c4.5,4.9,7.3,11.5,7.7,18.2"/>
</svg>
