<?xml version="1.0" encoding="utf-8"?>
<!-- Generator: Adobe Illustrator 24.0.2, SVG Export Plug-In . SVG Version: 6.00 Build 0)  -->
<svg version="1.1" id="Layer_1" xmlns="http://www.w3.org/2000/svg" xmlns:xlink="http://www.w3.org/1999/xlink" x="0px" y="0px"
	 viewBox="0 0 1920 1080" style="enable-background:new 0 0 1920 1080;" xml:space="preserve">
<style type="text/css">
	.st0{fill:#6CACEC;}
	.st1{fill:none;stroke:#000000;stroke-width:2;stroke-linecap:round;stroke-linejoin:round;stroke-miterlimit:10;}
	.st2{opacity:0.1;}
	.st3{fill:#FFFFFF;}
	.st4{fill:#FF81C4;}
	.st5{fill:#FFFFFF;stroke:#000000;stroke-width:2;stroke-linecap:round;stroke-linejoin:round;stroke-miterlimit:10;}
	.st6{fill:#5856D6;}
	.st7{fill:#FF81C4;stroke:#000000;stroke-width:2;stroke-linecap:round;stroke-linejoin:round;stroke-miterlimit:10;}
	.st8{fill:#3880BA;}
	.st9{fill:#FFFFFF;stroke:#000000;stroke-miterlimit:10;}
	.st10{fill:none;stroke:#000000;stroke-miterlimit:10;}
	.st11{fill:none;stroke:#000000;stroke-width:8;stroke-linecap:round;stroke-linejoin:round;stroke-miterlimit:10;}
	.st12{fill:url(#SVGID_1_);stroke:#F2566A;stroke-miterlimit:10;}
	.st13{fill:url(#SVGID_2_);}
	.st14{fill:none;stroke:#F2566A;stroke-miterlimit:10;}
	.st15{fill:none;stroke:#F2566A;stroke-miterlimit:10;stroke-dasharray:10.2805,139.8143;}
	.st16{fill:url(#SVGID_4_);stroke:#F2566A;stroke-miterlimit:10;}
	.st17{fill:url(#SVGID_5_);stroke:#F2566A;stroke-miterlimit:10;}
	.st18{fill:url(#SVGID_6_);fill-opacity:0.15;stroke:#549BF4;stroke-width:2;stroke-opacity:8.222246e-02;}
	.st19{fill:url(#SVGID_8_);fill-opacity:0.15;stroke:#549BF4;stroke-width:2;stroke-opacity:8.222246e-02;}
	.st20{opacity:0.62;fill:url(#SVGID_10_);fill-opacity:0.5;}
	.st21{opacity:0.62;fill:url(#SVGID_12_);fill-opacity:0.5;}
	.st22{opacity:0.62;fill:url(#SVGID_13_);fill-opacity:0.5;}
	.st23{opacity:0.62;fill:url(#SVGID_14_);fill-opacity:0.5;}
	.st24{opacity:0.62;fill:url(#SVGID_15_);fill-opacity:0.5;}
	.st25{opacity:0.62;fill:url(#SVGID_16_);fill-opacity:0.5;}
	.st26{opacity:0.62;fill:url(#SVGID_17_);fill-opacity:0.5;}
	.st27{opacity:0.62;fill:url(#SVGID_18_);fill-opacity:0.5;}
	.st28{fill:url(#SVGID_19_);stroke:#F2566A;stroke-miterlimit:10;stroke-dasharray:203,31,0,0,0;}
	.st29{fill:none;stroke:#F2566A;stroke-miterlimit:10;stroke-dasharray:110,0,0,0,0;}
	.st30{fill:none;stroke:#CBD6E8;stroke-miterlimit:10;}
	.st31{fill:url(#SVGID_20_);}
	.st32{fill:url(#SVGID_21_);}
	.st33{fill:url(#SVGID_22_);}
	.st34{fill:url(#SVGID_23_);}
	.st35{fill:url(#SVGID_24_);}
	.st36{fill:url(#SVGID_25_);}
	.st37{fill:none;stroke:#FFFFFF;stroke-miterlimit:10;}
	.st38{fill:url(#SVGID_27_);}
	.st39{fill:none;stroke:#FFFFFF;stroke-linecap:round;stroke-miterlimit:10;}
	.st40{fill:url(#SVGID_28_);}
	.st41{fill:url(#SVGID_29_);}
	.st42{opacity:0.36;fill:url(#SVGID_30_);enable-background:new    ;}
	.st43{opacity:0.36;fill:url(#SVGID_31_);enable-background:new    ;}
	.st44{fill:url(#SVGID_32_);fill-opacity:0.15;stroke:#549BF4;stroke-width:2;stroke-opacity:8.222246e-02;}
	.st45{fill:url(#SVGID_34_);fill-opacity:0.15;stroke:#549BF4;stroke-width:2;stroke-opacity:8.222246e-02;}
	.st46{fill:url(#SVGID_35_);fill-opacity:0.15;stroke:#549BF4;stroke-width:2;stroke-opacity:8.222246e-02;}
	.st47{fill:url(#SVGID_36_);fill-opacity:0.15;stroke:#549BF4;stroke-width:2;stroke-opacity:8.222246e-02;}
	.st48{fill:url(#SVGID_37_);fill-opacity:0.5;stroke:#FFFFFF;stroke-linejoin:round;}
	.st49{fill:url(#SVGID_38_);fill-opacity:0.15;stroke:#549BF4;stroke-width:2;stroke-opacity:8.222246e-02;}
	.st50{opacity:0.54;fill:#FFFFFF;enable-background:new    ;}
	.st51{fill:#363C61;}
	.st52{fill:none;stroke:url(#SVGID_39_);stroke-width:9;stroke-miterlimit:10;}
	.st53{fill:none;stroke:url(#SVGID_40_);stroke-width:9;stroke-miterlimit:10;}
	.st54{fill:none;stroke:#FFFFFF;stroke-width:3;stroke-miterlimit:10;}
	.st55{opacity:0.62;fill:url(#SVGID_41_);fill-opacity:0.5;}
	.st56{opacity:0.62;fill:url(#SVGID_42_);fill-opacity:0.5;}
	.st57{opacity:0.62;fill:url(#SVGID_43_);fill-opacity:0.5;}
	.st58{opacity:0.6;fill:url(#SVGID_44_);fill-opacity:0.5;}
	.st59{fill:url(#SVGID_45_);fill-opacity:0.15;stroke:#549BF4;stroke-width:2;stroke-opacity:8.222246e-02;}
	.st60{fill:url(#SVGID_46_);fill-opacity:0.15;stroke:#549BF4;stroke-width:2;stroke-opacity:8.222246e-02;}
	.st61{fill:url(#SVGID_47_);fill-opacity:0.15;stroke:#549BF4;stroke-width:2;stroke-opacity:8.222246e-02;}
	.st62{fill:url(#SVGID_48_);fill-opacity:0.15;stroke:#549BF4;stroke-width:2;stroke-opacity:8.222246e-02;}
	.st63{opacity:0.62;fill:url(#SVGID_49_);fill-opacity:0.5;}
	.st64{opacity:0.62;fill:url(#SVGID_50_);fill-opacity:0.5;}
	.st65{opacity:5.000000e-02;fill:none;stroke:#FFFFFF;stroke-width:2;stroke-miterlimit:10;}
	.st66{opacity:0.15;fill:url(#SVGID_51_);fill-opacity:0.5;}
	.st67{opacity:0.5;}
	.st68{fill:none;stroke:#FFFFFF;stroke-width:2;stroke-dasharray:11.8503,11.8503;}
	.st69{fill:url(#SVGID_52_);fill-opacity:0.5;stroke:#FFFFFF;stroke-linejoin:round;}
	.st70{fill:url(#SVGID_53_);fill-opacity:0.15;stroke:#549BF4;stroke-width:2;stroke-opacity:8.222246e-02;}
	.st71{fill:#CAD6E8;}
	.st72{fill:url(#SVGID_54_);}
	.st73{fill:url(#SVGID_55_);}
	.st74{opacity:0.89;fill:#F2566A;enable-background:new    ;}
	.st75{fill:#EBF1FC;}
	.st76{fill:#CEDEF2;}
	.st77{fill:url(#SVGID_56_);}
	.st78{fill:url(#SVGID-2_1_);}
	.st79{fill:url(#SVGID-3_1_);}
	.st80{fill:url(#SVGID_57_);}
	.st81{clip-path:url(#SVGID_58_);}
	.st82{fill:url(#SVGID_59_);}
	.st83{fill:#CBD6E8;}
	.st84{stroke:#000000;stroke-miterlimit:10;}
	.st85{fill:url(#SVGID_60_);}
	.st86{fill:url(#SVGID-4_1_);}
	.st87{fill:url(#SVGID_61_);}
	.st88{opacity:0.36;fill:url(#SVGID_62_);enable-background:new    ;}
	.st89{opacity:0.4;fill:#3574EC;enable-background:new    ;}
	.st90{fill:url(#SVGID-5_1_);}
	.st91{fill:url(#SVGID-6_1_);}
	.st92{fill:url(#SVGID_63_);}
	.st93{clip-path:url(#SVGID_64_);}
	.st94{fill:url(#SVGID_65_);}
	.st95{fill:url(#SVGID-7_1_);}
	.st96{opacity:0.4;fill:#FFFFFF;enable-background:new    ;}
	.st97{opacity:0.9;fill:#FFFFFF;enable-background:new    ;}
	.st98{opacity:0.9;}
	.st99{fill:url(#SVGID_66_);}
	.st100{opacity:0.36;fill:url(#SVGID_67_);enable-background:new    ;}
	.st101{fill:url(#SVGID_68_);}
	.st102{fill:url(#SVGID_69_);}
	.st103{fill:url(#SVGID_70_);fill-opacity:0.3;}
	.st104{opacity:8.000000e-02;fill:#549BF4;enable-background:new    ;}
	.st105{fill:url(#SVGID_71_);fill-opacity:0.15;}
	.st106{opacity:0.8;}
	.st107{fill:#9090D0;}
	.st108{fill:none;stroke:#000000;stroke-width:3;stroke-linecap:round;stroke-linejoin:round;stroke-miterlimit:10;}
	.st109{fill:#CFCED4;}
	.st110{fill:#FEAD91;}
	.st111{fill:#FFFFFF;stroke:#000000;stroke-width:3;stroke-linecap:round;stroke-linejoin:round;stroke-miterlimit:10;}
	.st112{fill:#FEAD91;stroke:#000000;stroke-width:3;stroke-miterlimit:10;}
	.st113{fill:#FFE2AA;}
	.st114{fill:#FFE2AA;stroke:#000000;stroke-width:3;stroke-linecap:round;stroke-linejoin:round;stroke-miterlimit:10;}
	.st115{fill:none;stroke:#000000;stroke-width:4;stroke-linecap:round;stroke-linejoin:round;stroke-miterlimit:10;}
	.st116{fill:#FFFFFF;stroke:#000000;stroke-width:5;stroke-linecap:round;stroke-linejoin:round;stroke-miterlimit:10;}
	.st117{fill:none;stroke:#000000;stroke-width:3;stroke-miterlimit:10;}
	.st118{fill:#FFFFFF;stroke:#000000;stroke-width:2;stroke-miterlimit:10;}
	.st119{fill:#FFC9E6;}
	.st120{fill:#FCA1BB;}
	.st121{fill:#151614;}
	.st122{fill:#FFFFFF;stroke:#1B0042;stroke-width:2;stroke-linecap:round;stroke-linejoin:round;stroke-miterlimit:10;}
	.st123{fill:none;stroke:#1B0042;stroke-width:2;stroke-linecap:round;stroke-linejoin:round;stroke-miterlimit:10;}
	.st124{fill:#1B0042;}
	
		.st125{opacity:0.15;clip-path:url(#XMLID_13_);fill:none;stroke:#FFFFFF;stroke-width:2;stroke-linecap:round;stroke-linejoin:round;stroke-miterlimit:10;}
	.st126{fill:none;stroke:#000000;stroke-linecap:round;stroke-linejoin:round;stroke-miterlimit:10;}
	.st127{fill:none;stroke:#FFFFFF;stroke-linecap:round;stroke-linejoin:round;stroke-miterlimit:10;}
	
		.st128{opacity:0.15;clip-path:url(#XMLID_15_);fill:none;stroke:#FFFFFF;stroke-width:2;stroke-linecap:round;stroke-linejoin:round;stroke-miterlimit:10;}
	
		.st129{opacity:0.15;clip-path:url(#XMLID_16_);fill:none;stroke:#FFFFFF;stroke-width:2;stroke-linecap:round;stroke-linejoin:round;stroke-miterlimit:10;}
	.st130{fill:none;stroke:#FFFFFF;stroke-width:2;stroke-linecap:round;stroke-linejoin:round;stroke-miterlimit:10;}
	
		.st131{opacity:0.15;clip-path:url(#XMLID_17_);fill:none;stroke:#FFFFFF;stroke-width:2;stroke-linecap:round;stroke-linejoin:round;stroke-miterlimit:10;}
	.st132{opacity:0.15;clip-path:url(#XMLID_18_);fill:none;stroke:#FFFFFF;stroke-width:2;stroke-miterlimit:10;}
	
		.st133{opacity:0.15;clip-path:url(#XMLID_19_);fill:none;stroke:#FFFFFF;stroke-width:2;stroke-linecap:round;stroke-linejoin:round;stroke-miterlimit:10;}
	.st134{fill:#FFFFFF;stroke:#2C234A;stroke-width:2;stroke-linecap:round;stroke-linejoin:round;stroke-miterlimit:10;}
	.st135{fill:#8AAFF6;}
	.st136{fill:none;stroke:#2C234A;stroke-width:2;stroke-linecap:round;stroke-linejoin:round;stroke-miterlimit:10;}
	.st137{opacity:0.2;}
	.st138{fill:#2C234A;}
	.st139{fill:none;stroke:#4417D7;stroke-width:2;stroke-linecap:round;stroke-linejoin:round;stroke-miterlimit:10;}
	.st140{fill:none;stroke:#EFCC4A;stroke-width:2;stroke-linecap:round;stroke-linejoin:round;stroke-miterlimit:10;}
	.st141{fill:#E3DFFF;}
	.st142{fill:none;stroke:#9D8AF6;stroke-width:2;stroke-linecap:round;stroke-linejoin:round;stroke-miterlimit:10;}
	.st143{clip-path:url(#SVGID_72_);}
	.st144{fill:none;stroke:#E3DFFF;stroke-width:4;stroke-linecap:round;stroke-linejoin:round;stroke-miterlimit:10;}
	.st145{fill:none;stroke:#D6D4D4;stroke-width:10;stroke-linecap:round;stroke-linejoin:round;stroke-miterlimit:10;}
	.st146{fill:none;stroke:#FF4B42;stroke-width:10;stroke-linecap:round;stroke-linejoin:round;stroke-miterlimit:10;}
	.st147{fill:#D7B9D8;}
	.st148{fill:#D6D4D4;}
	.st149{fill:#FFB69D;}
	.st150{fill:#D6D4D4;stroke:#FFFFFF;stroke-width:2;stroke-miterlimit:10;}
	.st151{clip-path:url(#XMLID_20_);}
	.st152{clip-path:url(#XMLID_21_);}
	.st153{fill:none;stroke:#FFFFFF;stroke-width:5;stroke-linecap:round;stroke-linejoin:round;stroke-miterlimit:10;}
	.st154{fill:#FF4B42;}
	.st155{clip-path:url(#XMLID_24_);}
	.st156{clip-path:url(#SVGID_74_);}
	.st157{clip-path:url(#XMLID_25_);}
	.st158{fill:#FEC0D9;}
	
		.st159{fill:none;stroke:#D6D4D4;stroke-width:3;stroke-linecap:round;stroke-linejoin:round;stroke-miterlimit:10;stroke-dasharray:20,20;}
	.st160{fill:#6BA5BD;}
	.st161{clip-path:url(#XMLID_28_);}
	.st162{clip-path:url(#SVGID_76_);}
	.st163{clip-path:url(#XMLID_29_);}
	.st164{clip-path:url(#XMLID_33_);}
	.st165{fill:none;stroke:#FFFFFF;stroke-width:4;stroke-linecap:round;stroke-linejoin:round;stroke-miterlimit:10;}
	.st166{fill:none;stroke:#FFFF00;stroke-width:2;stroke-linecap:round;stroke-linejoin:round;stroke-miterlimit:10;}
	.st167{fill:#FEC0D9;stroke:#000000;stroke-width:3;stroke-linecap:round;stroke-linejoin:round;stroke-miterlimit:10;}
	.st168{fill:#FFCDB2;stroke:#000000;stroke-width:2;stroke-linecap:round;stroke-linejoin:round;stroke-miterlimit:10;}
	.st169{stroke:#FFFFFF;stroke-width:2;stroke-miterlimit:10;}
	.st170{fill:#996533;stroke:#000000;stroke-width:2;stroke-linecap:round;stroke-linejoin:round;stroke-miterlimit:10;}
	.st171{stroke:#000000;stroke-width:2;stroke-linecap:round;stroke-linejoin:round;stroke-miterlimit:10;}
	.st172{fill:#996533;stroke:#000000;stroke-width:2;stroke-miterlimit:10;}
	.st173{fill:#FF6600;stroke:#000000;stroke-width:2;stroke-linecap:round;stroke-linejoin:round;stroke-miterlimit:10;}
	.st174{fill:#FFCDB2;}
	.st175{fill:none;stroke:#000000;stroke-width:2;stroke-miterlimit:10;}
	.st176{fill:none;stroke:#000000;stroke-width:5;stroke-linecap:round;stroke-linejoin:round;stroke-miterlimit:10;}
	.st177{fill:#9B4CB5;stroke:#000000;stroke-width:2;stroke-linecap:round;stroke-linejoin:round;stroke-miterlimit:10;}
	.st178{fill:#C8C8FF;stroke:#000000;stroke-width:2;stroke-linecap:round;stroke-linejoin:round;stroke-miterlimit:10;}
	.st179{fill:#DDDCDD;}
	.st180{fill:#FA6058;stroke:#000000;stroke-width:2;stroke-miterlimit:10;}
	.st181{fill:#FBBC2D;stroke:#000000;stroke-width:2;stroke-miterlimit:10;}
	.st182{fill:#30CA41;stroke:#000000;stroke-width:2;stroke-miterlimit:10;}
	.st183{stroke:#FFFFFF;stroke-width:2;stroke-linecap:round;stroke-linejoin:round;stroke-miterlimit:10;}
	.st184{fill:none;stroke:#C8C8FF;stroke-width:5;stroke-linecap:round;stroke-linejoin:round;stroke-miterlimit:10;}
	.st185{stroke:#000000;stroke-width:2;stroke-miterlimit:10;}
	.st186{fill:#FF2D55;}
	.st187{fill:#D4D7FF;}
	.st188{fill:#FFCBC2;}
	.st189{clip-path:url(#SVGID_77_);}
	.st190{fill:#352F84;}
	.st191{clip-path:url(#SVGID_78_);}
	.st192{clip-path:url(#SVGID_79_);}
	.st193{clip-path:url(#XMLID_37_);}
	.st194{opacity:0.4;clip-path:url(#XMLID_41_);}
	.st195{clip-path:url(#XMLID_44_);}
	.st196{fill:#FF3167;}
	.st197{fill:#91A3B4;}
	.st198{fill:#E05555;}
	.st199{fill:none;stroke:#EFA9A9;stroke-width:2;stroke-miterlimit:10;}
	.st200{clip-path:url(#XMLID_46_);}
	.st201{fill:#F2F2F2;}
	.st202{fill:#6F8393;}
	.st203{fill:#333333;}
	.st204{fill:#B5C7C3;}
	.st205{clip-path:url(#XMLID_47_);}
	.st206{clip-path:url(#SVGID_81_);}
	.st207{clip-path:url(#XMLID_50_);}
	.st208{fill:#5595E0;}
	.st209{fill:#FCFCFC;}
	.st210{fill:none;stroke:#CACBDB;stroke-width:10;stroke-linecap:round;stroke-linejoin:round;stroke-miterlimit:10;}
	
		.st211{fill:none;stroke:#CACBDB;stroke-width:10;stroke-linecap:round;stroke-linejoin:round;stroke-miterlimit:10;stroke-dasharray:30,30;}
	.st212{fill:none;stroke:#CACBDB;stroke-width:21;stroke-linecap:round;stroke-linejoin:round;stroke-miterlimit:10;}
	.st213{fill:#E45858;}
	.st214{fill:#CFD4FF;}
	.st215{fill:#2A2C67;}
	.st216{clip-path:url(#XMLID_51_);}
	.st217{fill:#585DE4;}
	.st218{fill:none;stroke:#324A81;stroke-width:5;stroke-linecap:round;stroke-linejoin:round;stroke-miterlimit:10;}
	.st219{fill:#CFD4FF;stroke:#2A2C67;stroke-width:5;stroke-linecap:round;stroke-linejoin:round;stroke-miterlimit:10;}
	.st220{clip-path:url(#XMLID_52_);}
	.st221{clip-path:url(#XMLID_53_);}
	.st222{fill:none;stroke:#FEFEFF;stroke-width:5;stroke-linecap:round;stroke-linejoin:round;stroke-miterlimit:10;}
	.st223{fill:#CFD4FF;stroke:#2A2C67;stroke-width:5;stroke-miterlimit:10;}
	.st224{fill:none;stroke:#2A2C67;stroke-width:5;stroke-linecap:round;stroke-linejoin:round;stroke-miterlimit:10;}
	.st225{fill:none;stroke:#585DE4;stroke-width:5;stroke-miterlimit:10;}
	.st226{fill:none;stroke:#585DE4;stroke-width:5;stroke-linecap:round;stroke-linejoin:round;stroke-miterlimit:10;}
	.st227{fill:#E8E8F7;}
	
		.st228{opacity:0.4;fill:none;stroke:#303044;stroke-width:2.5095;stroke-linecap:round;stroke-linejoin:round;stroke-miterlimit:10;}
	.st229{fill:#FEC5C4;}
	.st230{fill:#EF8D8B;}
	.st231{fill:#FEC5C4;stroke:#EF8D8B;stroke-width:2.5095;stroke-linecap:round;stroke-linejoin:round;stroke-miterlimit:10;}
	.st232{fill:#F048BA;}
	.st233{fill:#FFFFFF;stroke:#E8E8F7;stroke-width:2;stroke-linecap:round;stroke-linejoin:round;stroke-miterlimit:10;}
	.st234{fill:none;stroke:#E8E8F7;stroke-width:2;stroke-linecap:round;stroke-linejoin:round;stroke-miterlimit:10;}
	.st235{fill:#303044;}
	.st236{fill:none;}
	.st237{fill:none;stroke:#EF8D8B;stroke-width:2.5095;stroke-linecap:round;stroke-linejoin:round;stroke-miterlimit:10;}
	.st238{fill:none;stroke:#E8E8F7;stroke-width:7;stroke-linecap:round;stroke-linejoin:round;stroke-miterlimit:10;}
	.st239{fill:#FFFFFF;stroke:#E8E8F7;stroke-width:7;stroke-linecap:round;stroke-linejoin:round;stroke-miterlimit:10;}
	.st240{fill:#FFFFFF;stroke:#E8E8F7;stroke-width:5.62;stroke-miterlimit:10;}
	.st241{fill:#E8E8F7;stroke:#E8E8F7;stroke-width:5.62;stroke-miterlimit:10;}
	.st242{fill:#FEC5C4;stroke:#EF8D8B;stroke-width:2;stroke-linecap:round;stroke-linejoin:round;stroke-miterlimit:10;}
	.st243{fill:none;stroke:#EF8D8B;stroke-width:2;stroke-linecap:round;stroke-linejoin:round;stroke-miterlimit:10;}
	.st244{fill:#E8E8F7;stroke:#FFFFFF;stroke-width:5.62;stroke-miterlimit:10;}
	.st245{opacity:0.4;fill:none;stroke:#000000;stroke-width:2;stroke-linecap:round;stroke-linejoin:round;stroke-miterlimit:10;}
	.st246{fill:none;stroke:#E8E8F7;stroke-width:5.1321;stroke-miterlimit:10;}
	.st247{fill:none;stroke:#EF8D8B;stroke-width:2;stroke-linecap:round;stroke-miterlimit:10;}
	.st248{fill:#FFFFFF;stroke:#E8E8F7;stroke-width:5;stroke-miterlimit:10;}
	.st249{fill:#E8E8F7;stroke:#E8E8F7;stroke-width:5;stroke-miterlimit:10;}
	.st250{fill:#FFFFFF;stroke:#E8E8F7;stroke-width:5;stroke-miterlimit:10;stroke-dasharray:20,20;}
	.st251{fill:#F2F2F6;}
	.st252{opacity:0.4;fill:#FFFFFF;stroke:#000000;stroke-width:2.1161;stroke-linecap:round;stroke-miterlimit:10;}
	
		.st253{opacity:0.4;fill:none;stroke:#000000;stroke-width:2.1161;stroke-linecap:round;stroke-linejoin:round;stroke-miterlimit:10;stroke-dasharray:140.7185,204.2005;}
	.st254{opacity:0.4;fill:none;stroke:#000000;stroke-width:2.1161;stroke-linecap:round;stroke-miterlimit:10;}
	.st255{fill:#282828;}
	.st256{fill:#FEC5C4;stroke:#EF8D8B;stroke-width:1.058;stroke-linecap:round;stroke-miterlimit:10;}
	.st257{fill:none;stroke:#FFFFFF;stroke-width:8;stroke-linecap:round;stroke-linejoin:round;stroke-miterlimit:10;}
	
		.st258{fill:none;stroke:#E8E8F7;stroke-width:5;stroke-linecap:round;stroke-linejoin:round;stroke-miterlimit:10;stroke-dasharray:20,20;}
	.st259{fill:none;stroke:#E8E8F7;stroke-width:4.7431;stroke-linecap:round;stroke-linejoin:round;stroke-miterlimit:10;}
	
		.st260{opacity:0.4;fill:none;stroke:#000000;stroke-width:1.7088;stroke-linecap:round;stroke-linejoin:round;stroke-miterlimit:10;}
	.st261{fill-rule:evenodd;clip-rule:evenodd;fill:#F7931A;}
	.st262{fill:none;stroke:#EF8D8B;stroke-width:1.9557;stroke-linecap:round;stroke-linejoin:round;stroke-miterlimit:10;}
</style>
<path class="st158" d="M1048,308.7c0,0,37-35,48-28s-5.6,16.2-3.8,25.6C1094,315.7,1048,308.7,1048,308.7z"/>
<g>
	<path class="st148" d="M1658,316.6L1131.2,372c-25.1,2.6-47.6-15.6-50.2-40.7l0,0c-2.6-25.1,15.6-47.6,40.7-50.2l526.7-55.4
		c25.1-2.6,47.6,15.6,50.2,40.7v0C1701.3,291.5,1683.1,314,1658,316.6z"/>
</g>
<g>
	<g>
		<path class="st3" d="M1145.5,294.7c16.3,0,29.5,13.2,29.5,29.5s-13.2,29.5-29.5,29.5s-29.5-13.2-29.5-29.5
			S1129.2,294.7,1145.5,294.7 M1145.5,291.7c-17.9,0-32.5,14.6-32.5,32.5s14.6,32.5,32.5,32.5s32.5-14.6,32.5-32.5
			S1163.5,291.7,1145.5,291.7L1145.5,291.7z"/>
	</g>
	<polyline class="st54" points="1128.5,326.2 1138.5,337.2 1164.5,314.2 	"/>
</g>
<g>
	<path class="st148" d="M1670.7,182.1H1141c-25.2,0-45.7-20.5-45.7-45.7v0c0-25.2,20.5-45.7,45.7-45.7h529.6
		c25.2,0,45.7,20.5,45.7,45.7v0C1716.3,161.6,1695.9,182.1,1670.7,182.1z"/>
</g>
<path class="st159" d="M1670.7,573.1H1141c-25.2,0-45.7-20.5-45.7-45.7v0c0-25.2,20.5-45.7,45.7-45.7h529.6
	c25.2,0,45.7,20.5,45.7,45.7v0C1716.3,552.6,1695.9,573.1,1670.7,573.1z"/>
<path class="st159" d="M1670.7,377.1H1141c-25.2,0-45.7-20.5-45.7-45.7v0c0-25.2,20.5-45.7,45.7-45.7h529.6
	c25.2,0,45.7,20.5,45.7,45.7v0C1716.3,356.6,1695.9,377.1,1670.7,377.1z"/>
<g>
	<polygon class="st158" points="1137,818.7 1188,862.7 1128,938.7 1080,891.7 	"/>
</g>
<g>
	<path class="st160" d="M978.9,879.1c16.6,15.3,36.9,28.9,59.5,29.1c18.2,0.2,35.5-8.5,50.1-19.4c21.3-16,38.3-37.6,49.1-61.9
		c5.6-12.6,9.5-27,5.2-40.2c-4.4-13.5-16.4-22.8-27.8-31.2c-47.6-35.3-95.1-70.6-142.7-105.9c-5.7-4.2-12.5-8.7-19.3-6.8
		c-7.1,2-10.6,9.7-13,16.7c-16.9,48.4-26.4,99.3-28,150.5c-0.2,6.5-0.2,13.4,3.1,19.1c5,8.4,22.9,11.3,31,18.3
		C957.6,857.3,967.7,868.8,978.9,879.1z"/>
</g>
<g>
	<defs>
		<path id="XMLID_61_" d="M1098.2,984.6c-0.4,4.9-0.7,10,1.7,14.3c3.8,7.1,13,8.9,20.9,9.7c61.7,6,90.6,1.5,161.5,1
			c27.2-0.2,72.9,0.9,105.2,1.3c21.9,0.2,42.8,4.7,54.9-7.8c9.2-9.5,6.1-19.8,4.2-32.9c-4.3-29.4-30.3-51.5-58.1-61.8
			c-27.9-10.3-58.1-11.4-87.5-15.9c-40.7-6.2-80.3-18.9-117-37.6c-4.8-2.4-10.6-0.6-13.2,4.1c-5,9.1-13.7,21.7-15.1,23.3
			c-8.7,10.1-19.5,18.3-31.5,23.9c-16.2,7.5-20.5,3.9-22,23.4C1100.9,948,1099.6,966.3,1098.2,984.6z"/>
	</defs>
	<use xlink:href="#XMLID_61_"  style="overflow:visible;fill:#FECF43;"/>
	<clipPath id="XMLID_13_">
		<use xlink:href="#XMLID_61_"  style="overflow:visible;"/>
	</clipPath>
	<g style="clip-path:url(#XMLID_13_);">
		<g>
			<path class="st160" d="M1131.5,947.2c5.7-3.4,11.4-6.8,17.1-10.2c2.8-1.7,5.6-3.3,8.3-5c2.6-1.6,5.2-3.2,8-4.5
				c-0.6,0.3-1.2,0.5-1.8,0.8c1.2-0.5,2.3-0.8,3.6-1c-0.7,0.1-1.3,0.2-2,0.3c1-0.1,2-0.1,2.9,0c-0.7-0.1-1.3-0.2-2-0.3
				c0.6,0.1,1.2,0.2,1.8,0.5c-0.6-0.3-1.2-0.5-1.8-0.8c0.3,0.1,0.6,0.3,0.9,0.5c0.5,0.3,0.4,0.2-0.2-0.2c-0.6-0.5-0.6-0.5-0.2-0.2
				c0.1,0.1,0.2,0.2,0.2,0.2c0.5,0.6,0.3,0.3-0.5-0.7c0.1,0.3,0.4,0.6,0.5,0.9c-0.3-0.6-0.5-1.2-0.8-1.8c0.2,0.6,0.4,1.1,0.5,1.7
				c-0.1-0.7-0.2-1.3-0.3-2c0,0.5,0,0.9,0,1.4c0.1-0.7,0.2-1.3,0.3-2c-0.1,0.6-0.2,1.1-0.5,1.6c0.3-0.6,0.5-1.2,0.8-1.8
				c-0.2,0.5-0.5,1.1-0.8,1.6c-0.1,0.2-0.3,0.4-0.4,0.6c0.9-1.6,0.8-1,0.3-0.5c-0.8,1-1.8,1.8-2.7,2.7c-2,1.8-3.8,3.6-5.4,5.7
				c-3.9,5-6.7,10.3-9,16.2c-2.6,6.5,0.5,14.6,6.8,17.7c3.3,1.6,7.2,2.2,10.8,1c1.1-0.4,2.1-0.8,3.2-1.4c9.2-4.6,18.3-9.3,27.4-13.9
				c3.4-1.7,6.8-3.4,10.2-5.2c3.5-1.8,4.8-7,2.7-10.3c-2.3-3.6-6.5-4.6-10.3-2.7c-4.3,2.2-8.6,4.3-12.9,6.5
				c-6.9,3.5-13.7,6.9-20.6,10.4c-1.6,0.8-3.3,1.7-4.9,2.5c0.6-0.3,1.2-0.5,1.8-0.8c-0.6,0.3-1.3,0.5-2,0.6c0.7-0.1,1.3-0.2,2-0.3
				c-0.5,0.1-1.1,0.1-1.6,0c0.7,0.1,1.3,0.2,2,0.3c-0.6-0.1-1.2-0.2-1.8-0.5c0.6,0.3,1.2,0.5,1.8,0.8c-0.4-0.2-0.7-0.4-1.1-0.6
				c-1-0.6,1.5,1.4,0.3,0.2c-1.2-1.2,0.8,1.3,0.2,0.3c-0.2-0.4-0.4-0.7-0.6-1.1c0.3,0.6,0.5,1.2,0.8,1.8c-0.2-0.6-0.4-1.2-0.5-1.8
				c0.1,0.7,0.2,1.3,0.3,2c0-0.6,0-1.1,0-1.6c-0.1,0.7-0.2,1.3-0.3,2c0.2-1,0.5-1.9,0.9-2.8c-0.3,0.6-0.5,1.2-0.8,1.8
				c1.1-2.6,2.4-5.2,3.8-7.7c0.7-1.2,1.4-2.3,2.2-3.4c0.1-0.2,1-1.3,0.1-0.2c-0.8,1.1,0,0,0.2-0.2c0.5-0.6,1.1-1.2,1.6-1.8
				c1.8-2,4-3.6,5.8-5.6c2.7-3.1,4.7-6.6,4.8-10.8c0.1-4.7-2.6-9-6.4-11.5c-3.7-2.4-8.3-2.6-12.5-1.7c-3.2,0.7-6.2,2.3-9,4
				c-3,1.8-5.9,3.5-8.9,5.3c-6.7,4-13.4,8-20.1,11.9c-3.4,2-4.9,6.8-2.7,10.3C1123.4,947.9,1127.9,949.4,1131.5,947.2L1131.5,947.2z
				"/>
		</g>
	</g>
	<g style="clip-path:url(#XMLID_13_);">
		<g>
			<path class="st160" d="M1110.5,1008.9c85.3,0.5,170.5,0.9,255.8,1.4c23.5,0.1,47,0.3,70.5,0.4c16.7,0.1,16.8-25.9,0-26
				c-85.3-0.5-170.5-0.9-255.8-1.4c-23.5-0.1-47-0.3-70.5-0.4C1093.7,982.8,1093.7,1008.8,1110.5,1008.9L1110.5,1008.9z"/>
		</g>
	</g>
</g>
<g>
	<g>
		<path class="st160" d="M1257.5,909.3c3.3-6.5,6.6-13,10-19.5c0.9-1.8,1.3-3.8,0.8-5.8c-0.5-1.7-1.8-3.6-3.4-4.5
			c-3.4-1.8-8.4-1-10.3,2.7c-3.3,6.5-6.6,13-10,19.5c-0.9,1.8-1.3,3.8-0.8,5.8c0.5,1.7,1.8,3.6,3.4,4.5
			C1250.6,913.8,1255.6,913,1257.5,909.3L1257.5,909.3z"/>
	</g>
</g>
<g>
	<g>
		<path class="st160" d="M1290.5,913.3c3.3-6.5,6.6-13,10-19.5c0.9-1.8,1.3-3.8,0.8-5.8c-0.5-1.7-1.8-3.6-3.4-4.5
			c-3.4-1.8-8.4-1-10.3,2.7c-3.3,6.5-6.6,13-10,19.5c-0.9,1.8-1.3,3.8-0.8,5.8c0.5,1.7,1.8,3.6,3.4,4.5
			C1283.6,917.8,1288.6,917,1290.5,913.3L1290.5,913.3z"/>
	</g>
</g>
<polygon class="st158" points="666.4,849.3 599.8,855.8 587.7,760.6 654.4,758.3 "/>
<g>
	<path class="st148" d="M450,517.7l174-56l24,95l-249.3,83.4c-27.2,9.1-56.5-6.2-64.6-33.7l0,0c-7.8-26.5,7-54.4,33.3-62.7
		L450,517.7z"/>
</g>
<g>
	<defs>
		<path id="SVGID_75_" d="M885.1,602.4c20.2,5.1,40.4,11.5,58.2,22.4c17.8,10.8,33.4,26.4,40.9,45.9c10.3,26.6,12.5,59.6,4.6,87
			c-7.8,26.7-21.9,50.5-40.3,71.4c-20.7,23.6-54.5,37.8-85.2,44.6c-30.6,6.9-62.4,7-93.8,6.2c-26.2-0.7-52.4-1.9-78.5-3.8
			c-9.6-0.7-20-1.8-26.7-8.7c-6-6.2-7.4-15.3-8.4-23.9c-3.2-29.3-4.1-58.9-2.7-88.4c-46.1-1.2-88.9-37.7-97.3-83
			c-4.6-24.5,1-51.9,18.6-69.5c12.5-12.5,29.7-19.1,46.9-23.3c21.5-5.2,43.8-7.2,65.9-5.8c20.4,1.3,38.4,8.8,57.9,11.9
			c22.4,3.6,46.6,1.2,69.4,3.9C838.4,592.2,862,596.5,885.1,602.4z"/>
	</defs>
	<use xlink:href="#SVGID_75_"  style="overflow:visible;fill:#6BA5BD;"/>
	<clipPath id="SVGID_1_">
		<use xlink:href="#SVGID_75_"  style="overflow:visible;"/>
	</clipPath>
	<g style="clip-path:url(#SVGID_1_);">
		<g>
			<path class="st3" d="M663.5,628.5c17.1,9.7,35.9,16,55,20.3c19.9,4.5,40.2,6.8,60.4,8.8c20.4,2,40.9,3.6,61.3,6.2
				c19.6,2.6,39.1,6.2,57.8,12.6c4.5,1.5,8.7,3.4,12.6,6.2c3.6,2.6,6.8,5.8,9.9,9c1.7,1.7,3.5,3.4,5.2,5.2c1.1,1.1,1.7,1.9,2.6,3.5
				c1.9,3.3,3.1,6.6,4.1,10.4c2.1,7.7,3,15.9,2.3,23.9c0,0.4-0.1,0.8-0.1,1.3c0,0.1-0.1,0.6,0,0.1c0,0.2-0.1,0.4-0.1,0.6
				c-0.1,0.8-0.3,1.6-0.5,2.4c-0.5,2-1.2,3.9-2.1,5.8c-2.1,4.2-4.8,8-8,11.4c-6.8,7.4-15,13.5-23.8,18.4
				c-9.2,5.1-18.8,9.6-28.6,13.4c-20.7,8.1-42.6,13.1-64.8,15.2c-23.6,2.2-47.3,1.6-71,1.6c-23.6,0-47.4,0.6-70.7,5
				c-5.6,1.1-11.2,2.4-16.7,3.9c-3.7,1-2.1,6.8,1.6,5.8c23-6.4,46.9-8.2,70.7-8.5c24-0.4,47.9,0.5,71.9-0.7c23.5-1.2,46.6-5,69-12.3
				c10-3.3,19.7-7.3,29.2-11.8c9.7-4.7,19.1-9.7,27.5-16.4c7.7-6.2,15.2-13.8,19.3-22.9c3.4-7.5,3.7-15.7,3-23.9
				c-0.8-8.4-2.6-17.1-6.6-24.6c-2-3.7-4.8-6.4-7.6-9.3c-3.3-3.4-6.6-6.8-10.3-9.7c-4-3.2-8.3-5.7-13.1-7.4
				c-4.6-1.7-9.4-3.2-14.2-4.6c-9.6-2.7-19.4-4.8-29.2-6.6c-20.5-3.6-41.3-5.5-62-7.4c-20.5-1.9-41.1-3.7-61.4-7.2
				c-19.4-3.3-38.8-8.2-56.8-16.4c-4.3-2-8.6-4.1-12.7-6.5C663.1,621.4,660.1,626.6,663.5,628.5L663.5,628.5z"/>
		</g>
	</g>
	<g style="clip-path:url(#SVGID_1_);">
		<g>
			<path class="st3" d="M641.2,632c13.3,13.1,29.3,22.6,46.7,29.2c17.1,6.5,35.2,10,53.4,12.3c18.3,2.3,36.6,3.4,55,4.6
				c17.2,1.2,34.2,2.4,51,5.6c7.7,1.5,15.1,3.5,22.5,6c8.4,2.8,16.9,5.5,24.9,9.4c1.9,0.9,3.7,1.9,5.5,3c0.7,0.5,1.5,0.9,2.2,1.5
				c-0.3-0.3,0.6,0.5,0.7,0.6c0.4,0.3,0.7,0.7,1.1,1c2.8,2.8,4.9,6.5,6.5,10.3c1.8,4.1,3,8.7,3.3,13.1c0.1,2.1,0.1,3.9-0.3,5.6
				c-0.5,2-0.9,3-1.8,4.7c-4.1,7.8-11,14.5-18,19.9c-8.2,6.3-17.9,10.1-27.6,13.4c-11.5,3.9-23.4,6.8-35.3,9.5
				c-10.4,2.3-20.8,3.9-31.4,4.9c-22.4,2-44.8,1.9-67.3,2.3c-22.2,0.4-44.5,1-66.5,4.9c-5,0.9-9.9,1.9-14.8,3.2
				c-3.7,1-2.2,6.8,1.6,5.8c21.1-5.5,43-6.9,64.7-7.5c22.9-0.7,45.8-0.4,68.7-1.6c11.1-0.6,22.1-1.6,33.1-3.4
				c11.4-1.9,22.8-4.6,34-7.6c11.9-3.2,23.7-7.1,34.7-12.6c8.2-4.1,15.5-10.4,21.6-17.2c5.9-6.6,11.1-14.3,10.8-23.5
				c-0.4-9.4-4.1-19.2-10-26.4c-2.6-3.1-5.9-5.4-9.4-7.3c-4.2-2.3-8.7-4.1-13.2-5.9c-7.8-3-15.8-5.7-23.8-8
				c-16.3-4.7-33.3-6.6-50.1-8c-18.3-1.6-36.7-2.4-55-4c-18.3-1.7-36.6-4.2-54.4-9.2c-17.3-4.9-33.9-12.3-48.1-23.3
				c-3.6-2.8-7.1-5.9-10.4-9.1C642.7,625.1,638.5,629.3,641.2,632L641.2,632z"/>
		</g>
	</g>
</g>
<g>
	<defs>
		<path id="XMLID_62_" d="M524.7,752.3c-9.2-0.7-19.4-1-26.3,5c-7.2,6.2-8.2,16.9-8.6,26.4c-1.8,47.8-0.7,95.7,3.3,143.4
			c1.7,20.5,5.1,43.2,21.1,56.2c12.7,10.3,30.3,11.7,46.6,12.7c40.5,2.4,81,4.7,121.6,7.1c9.3,0.5,19.3,0.9,27.2-4
			c11-6.8,14.1-21.6,12.6-34.4c-3.4-29-27.1-54.4-55.8-59.8c-15.2-2.9-33.1-1.4-43.7-12.7c-5.4-5.8-7.6-13.8-9.4-21.5
			c-7.6-32.9-4.8-66.5-10.9-99C597.7,746.3,545.1,753.8,524.7,752.3z"/>
	</defs>
	<use xlink:href="#XMLID_62_"  style="overflow:visible;fill:#FECF43;"/>
	<clipPath id="XMLID_15_">
		<use xlink:href="#XMLID_62_"  style="overflow:visible;"/>
	</clipPath>
	<g style="clip-path:url(#XMLID_15_);">
		<g>
			<path class="st160" d="M546.1,829.6c1.4-5.4,2.7-10.8,4.1-16.2c0.7-2.7,1.3-5.3,2-8c0.5-2.2,1-4.4,1.9-6.4
				c-0.3,0.6-0.5,1.2-0.8,1.8c0.2-0.4,0.4-0.9,0.6-1.3c0.1-0.2,0.2-0.4,0.4-0.6c0.4-0.6,0.3-0.4-0.5,0.7c0.3-0.2,0.8-0.7,1-1
				c-1,0.8-1.2,0.9-0.6,0.5c0.2-0.1,0.4-0.2,0.7-0.3c-0.6,0.3-1.2,0.5-1.8,0.8c0.5-0.2,1-0.3,1.5-0.4c-0.7,0.1-1.3,0.2-2,0.3
				c0.4,0,0.7,0,1.1,0c-0.7-0.1-1.3-0.2-2-0.3c0.5,0.1,1,0.2,1.5,0.4c-0.6-0.3-1.2-0.5-1.8-0.8c0.3,0.2,1.1,0.7,0-0.1
				c-0.5-0.4-0.7-0.6-0.4-0.3c0.1,0.1,0.2,0.2,0.3,0.3c-0.1,0-1.1-1.7-0.6-0.8c0.1,0.3,0.3,0.5,0.4,0.8c-0.3-0.6-0.5-1.2-0.8-1.8
				c0.3,0.7,0.4,1.4,0.6,2.1c-0.1-0.7-0.2-1.3-0.3-2c0.2,1.8,0.1,3.5,0,5.3c-0.1,2.9,0.2,5.8,0.7,8.6c0.4,2.4,1.1,4.7,1.9,7
				c1,2.9,2,5.7,4.1,8c3.6,4,9.7,5.1,14.5,3c3.8-1.6,6.3-4.6,7.6-8.5c2.6-7.8,5.1-15.7,7.7-23.6c1-3,1.9-5.9,2.9-8.9
				c1.2-3.7-1.4-8.4-5.2-9.2c-4.1-0.9-7.9,1.2-9.2,5.2c-3.1,9.6-6.3,19.3-9.4,28.9c-0.5,1.4-0.9,2.9-1.5,4.4
				c0.3-0.6,0.5-1.2,0.8-1.8c-0.1,0.3-0.5,0.7-0.6,1c0-0.2,1.4-1.7,0.5-0.7c-0.7,0.8,1.6-1,0.7-0.5c-0.3,0.2-0.6,0.3-0.9,0.5
				c0.6-0.3,1.2-0.5,1.8-0.8c-0.5,0.2-1,0.3-1.5,0.4c0.7-0.1,1.3-0.2,2-0.3c-0.5,0-1,0-1.5,0c0.7,0.1,1.3,0.2,2,0.3
				c-0.4-0.1-0.8-0.2-1.2-0.3c0.6,0.3,1.2,0.5,1.8,0.8c-0.3-0.1-0.6-0.3-0.9-0.5c-1-0.6,1.6,1.4,0.6,0.4c-1-1,1,1.6,0.4,0.5
				c-0.2-0.4-0.4-0.8-0.6-1.2c0.3,0.6,0.5,1.2,0.8,1.8c-1.5-3.5-2.6-7.2-3.2-11c0.1,0.7,0.2,1.3,0.3,2c-0.6-4.4,0.2-8.7-0.6-13.1
				c-1.1-5.9-6.6-10.7-12.7-10.2c-6.8,0.6-11.2,5.6-13.4,11.7c-1.5,4.2-2.4,8.8-3.5,13.1c-1.4,5.5-2.8,11-4.2,16.4
				c-1,3.8,1.2,8.3,5.2,9.2C540.8,835.7,545.1,833.6,546.1,829.6L546.1,829.6z"/>
		</g>
	</g>
	<g style="clip-path:url(#XMLID_15_);">
		<g>
			<path class="st160" d="M491.8,761.2c-1.1,54.5-4.3,109.6,1.9,163.9c2.9,24.9,8.9,54.9,34.3,66.4c11.6,5.2,24.1,6.8,36.7,7.7
				c12.5,0.9,25.1,1.8,37.6,2.6c35.7,2.2,71.5,2,107.2,3.1c7.3,0.2,13.5-6.4,13.5-13.5c0-7.5-6.2-13.3-13.5-13.5
				c-29.9-0.9-59.8-0.9-89.7-2.2c-13.8-0.6-27.5-1.8-41.3-2.6c-5.1-0.3-10.2-0.5-15.3-0.9c-6.6-0.5-8.6-0.6-14.7-2
				c-2.6-0.6-5.2-1.4-7.7-2.3c-3.8-1.4,1.2,0.7-0.9-0.4c-0.9-0.5-1.9-1-2.8-1.5c-0.3-0.2-3.4-2.6-1.3-0.8c-1-0.9-1.9-1.8-2.8-2.8
				c-1.1-1.2-2.6-3.3-4-5.8c-2.4-4.2-3.8-8.2-5.2-13.7c-1.4-5.6-2.4-11.9-2.9-16.2c-3-25.5-3.6-51.3-3.7-77c0-29.5,1-58.9,1.6-88.3
				c0.1-7.3-6.3-13.5-13.5-13.5C497.9,747.7,492,753.9,491.8,761.2L491.8,761.2z"/>
		</g>
	</g>
</g>
<path class="st115" d="M653.9,776c1.1-9.3-2.6-34.4,3.4-39.3s14.2-5.9,22-6.6c62.9-6.3,125.9-12.6,188.8-18.9"/>
<path class="st158" d="M594,317.1l-11.4,73.8c14.6,2.6,35.4-10.6,49.6-14.9c7.3-2.2,16.6,5.3,18.6-2c2-7.3-5.6-20.8-3.9-28.7
	l20.8,5.1c5.2,0.4,9.8-2.4,10.9-6.3c2.3-8.7,2.1-16.7,1.4-24.8c0.8,0.4,2.7,0.6,3.6,0.7c2.3,0.3,3.4-1.4,3.6-3.7
	c1.5-20.3,3.9-61.8-26.9-64.1c-0.2,0-7.4,17-7.7,17c-27.4-1.9-52,16.9-57.7,43.8L594,317.1z"/>
<path d="M711.2,267.9c0.8-11.4-7.8-21.4-19.2-22.3c-11.6-1-23.9-2.3-32.8-1.4c-15.1,1.4-31.3-1.5-44.8,5.3
	c-11.8,5.9-19.1,18.4-22.1,31.2c-1.3,5.7-6.5,54.9-0.4,58.4c2.2,1.2,25.7-23.1,34-26.1c2.1-0.8,3.2-3,2.6-5.1
	c-0.9-3.1-5.4-11.6-4.4-14.8c2.9-9.9,14.9-7.3,14,3c-0.1,0.6-0.3,1.5-0.6,2.3c-1.2,3.6-0.8,7.5,0.9,10.9l0.1,0.3
	c0.7,1.3,2.7,1.1,3-0.4c1.9-8.8,6.8-17.2,13.4-19.3c4.5-1.4,21.5-2.5,35.5-2.4C701.3,287.4,710.4,278.9,711.2,267.9L711.2,267.9z"/>
<path class="st115" d="M934.9,839.4c28-25.5,43.2-63.4,47.3-101c4.1-37.6,4-63.6-17.8-94.5"/>
<path class="st158" d="M1060.5,407.5c12.5-0.1,24.6-5.2,37.1-5.8c8-0.4,16.1,0.7,24.1-0.3c8-1,16.3-4.5,20.1-11.5
	c3.9-7,2.1-20.3-5.6-22.3c6.2-2.3,14.3-9.2,14.5-15.8c0.2-6.6-6-15.1-12-17.8c7.2-0.8,17,1.9,24.2,1.4c8.9-0.6,18.3-3.2,23.3-11.3
	c2.3-3.7,3-8.3,1.5-12.4c-2.8-7.5-15.2-7.6-22.3-8.7c-24.2-3.7-42.6-2.7-67.1-4.1c-48.6-2.9-123.4,15.5-150,56.3l33.8,53.2
	c8.7-5.1,17.9-9.5,27.5-12.3c7.4-2.1,15.3-0.5,21.4,4.2C1035.7,403.9,1044.6,407.7,1060.5,407.5z"/>
<g>
	<defs>
		<path id="XMLID_63_" d="M731.5,547.5c7.4,13.2,15.2,30.5,5.6,42.3c-3.9,4.8-9.8,7.2-15.5,9.6c-40.6,16.5-81.1,33-121.7,49.5
			c-9.7,4-19.7,8-30.2,8.3s-21.7-3.8-27.1-12.8c-5.6-9.4-6.6-26.3-1.4-35.9c23.7-43.8,2-77.8,11-122.1
			c-32.2,15.3-56.2,17.3-100.7,31.3c-7.1-26.2,8.8-53.8,29.7-71.1c20.9-17.3,46.6-27.7,69.3-42.7c23.5-15.5,44.5-36.5,71.9-43.3
			c33.7-8.4,69.3,7.2,96.1,29.4c15.3,12.6,30.1,28.1,49.7,31.1c21.7,3.4,42.3-9.6,60.5-22c22.3-15.2,44.6-30.4,66.8-45.6
			c7.1-4.8,14.3-9.7,22.6-12c8.3-2.3,17.9-1.4,24.3,4.3c4.3-10.6,19.8-12.2,29.3-5.9c9.6,6.2,14.6,17.3,19.1,27.8
			c4.6,10.5,9.2,21.8,7.6,33.1c-1.6,11.4-12,22.4-23.2,20.1c7.7,8.5,3.8,22.8-4.6,30.7s-19.8,11.2-30.2,16.1
			c-43.8,20.4-74.1,68.9-121.9,75.3c-36.2,4.8-62.5-16.1-91.6-33.1C717.9,519.5,725.9,537.6,731.5,547.5z"/>
	</defs>
	<use xlink:href="#XMLID_63_"  style="overflow:visible;fill:#FECF43;"/>
	<clipPath id="XMLID_16_">
		<use xlink:href="#XMLID_63_"  style="overflow:visible;"/>
	</clipPath>
	<g style="clip-path:url(#XMLID_16_);">
		<g>
			<path class="st3" d="M953.2,374.8c-1.9,1.6-3.7,3.1-5.6,4.6c-0.9,0.7-1.8,1.4-2.7,2.2c-0.5,0.4-1,0.8-1.5,1.2
				c-0.3,0.2-1.8,1.4-0.9,0.7c-4.1,3.2-8.3,6.3-12.5,9.3c-8.8,6.3-17.8,12.3-26.9,18c-18.6,11.7-37.9,22.5-57.7,32.1
				c-4.7,2.3-9.4,4.5-14.2,6.6c-2.3,1-4.6,2-6.9,3c-0.3,0.1-1.5,0.6-0.5,0.2c-0.6,0.2-1.1,0.5-1.7,0.7c-1.2,0.5-2.4,1-3.6,1.5
				c-5.3,2.1-10.7,3.8-16.3,4.7c-0.3,0-2.1,0.3-1.1,0.2c-0.7,0.1-1.4,0.2-2.1,0.2c-1.4,0.1-2.8,0.2-4.3,0.3c-2.9,0.1-5.7,0.1-8.6,0
				c-2.9-0.1-5.8-0.4-8.7-0.7c-0.7-0.1-1.5-0.2-2.2-0.3c-0.2,0-1.7-0.2-0.9-0.1c-1.6-0.2-3.2-0.5-4.8-0.7c-4.6-0.7-9.1-1.5-13.5-3.1
				c-0.5-0.2-1-0.4-1.4-0.5c-0.5-0.2-1.5-0.6-0.4-0.1c-0.9-0.4-1.9-0.8-2.8-1.3c-1.8-0.9-3.6-1.9-5.4-3c-1.8-1.1-3.5-2.2-5.1-3.4
				c-0.4-0.3-0.8-0.6-1.2-0.9c-0.5-0.4,0.3,0.2,0.3,0.3c-0.2-0.1-0.4-0.3-0.5-0.4c-0.9-0.7-1.7-1.4-2.6-2.1
				c-13.2-11.1-23.8-24.9-36.7-36.3c-15.6-13.8-35.9-24.2-57.3-21.2c-21.6,3.1-34.1,22.9-38.3,42.7c-4.3,20.7-2.1,42.3,2.7,62.6
				c4.8,20.5,12.4,40.1,19.4,59.9c3.6,10,7,20.1,9.9,30.4c1.4,5.1,2.8,10.2,3.9,15.3c0.6,2.6,1.1,5.1,1.5,7.7
				c0.2,1.2,0.4,2.4,0.6,3.6c0.1,0.6,0.2,1.3,0.3,1.9c0,0.3,0.1,0.6,0.1,0.8c0,0.2,0.2,1.5,0.1,0.4c0.6,5,1.1,10,1.2,15.1
				c0.1,3.1,2.7,6.1,6,6c3.2-0.1,6.1-2.6,6-6c-0.7-21.3-5.9-42.1-12.5-62.2c-6.6-20.1-14.5-39.7-20.6-59.9c-3-9.8-5.5-19.7-7.1-29.8
				c-0.2-1.3-0.4-2.5-0.6-3.8c-0.2-1.2,0.1,0.6-0.1-0.6c-0.1-0.7-0.2-1.5-0.3-2.2c-0.3-2.6-0.5-5.1-0.7-7.7
				c-0.3-5.1-0.3-10.1,0-15.2c0.2-2.6,0.4-5.2,0.7-7.8c0.1-0.8,0,0.2,0,0.3c0-0.3,0.1-0.7,0.1-1c0.1-0.5,0.2-1,0.2-1.5
				c0.2-1.3,0.4-2.5,0.7-3.7c0.5-2.3,1.1-4.6,1.8-6.9c0.3-1.1,0.7-2.1,1.1-3.1c0.2-0.5,0.4-1,0.5-1.4c0.1-0.3,0.3-0.6,0.4-0.9
				c-0.2,0.5-0.3,0.6,0,0c1-2.1,2-4.2,3.2-6.2c0.6-0.9,1.1-1.8,1.8-2.7c0.2-0.3,1.1-1.5,0.4-0.6c0.4-0.5,0.8-1,1.2-1.5
				c1.5-1.7,3.1-3.3,4.9-4.7c0.9-0.7-0.6,0.4,0.3-0.2c0.5-0.3,0.9-0.7,1.4-1c1-0.6,2-1.2,3-1.7c0.6-0.3,1.2-0.6,1.8-0.9
				c-0.9,0.4,0.4-0.1,0.7-0.2c1.3-0.5,2.7-0.9,4.1-1.2c0.6-0.1,1.3-0.3,2-0.4c1.1-0.2-0.5,0,0.7-0.1c1.4-0.2,2.9-0.2,4.3-0.3
				c1.2,0,2.5,0,3.7,0.1c0.7,0,1.3,0.1,2,0.2c0.7,0,0,0-0.2,0c0.4,0.1,0.8,0.1,1.2,0.2c2.7,0.4,5.4,1.1,8,1.9
				c1.2,0.4,2.4,0.8,3.6,1.2c0.6,0.2,1.3,0.5,1.9,0.7c0,0,0.9,0.4,0.4,0.2c-0.6-0.2,0.8,0.4,0.9,0.4c2.2,1,4.3,2.1,6.4,3.3
				c1.8,1,3.5,2.1,5.2,3.3c0.8,0.6,1.6,1.1,2.4,1.7c0.1,0.1,1.5,1.1,0.9,0.6c-0.6-0.5,0,0,0.1,0.1c0.3,0.2,0.6,0.5,0.9,0.7
				c13.5,10.8,24.1,24.5,36.8,36.2c6.3,5.8,13.1,11.2,20.8,15c3.9,2,8.1,3.6,12.4,4.7c5.4,1.4,11.1,2.1,16.7,2.8
				c11.7,1.5,23.5,1.8,35-0.7c10.5-2.2,20.5-7.1,30.3-11.5c19.7-8.9,38.8-19.1,57.4-30.2c18.7-11.1,36.8-23.2,54-36.6
				c3.7-2.9,7.4-5.9,11.1-8.9c2.4-2,2.2-6.4,0-8.5C959.1,372.4,955.8,372.6,953.2,374.8L953.2,374.8z"/>
		</g>
	</g>
</g>
<path class="st165" d="M549.4,485.9c3.1-41.7,13.1-79.7,35.4-106.5"/>
<path class="st165" d="M647.6,462.1c24.5,10.2,62.4,43.6,84.2,51.3"/>
<path class="st3" d="M677.8,322.1H651c0.1,2.3,0.6,9.6,3.6,13.5c3.7,4.8,9.8,7.5,16.6,7.6c3.2,0,6-2.4,6.3-5.7
	c0.1-1.5,0.2-3,0.3-4.5C677.9,330.1,677.9,324.5,677.8,322.1z"/>
<path class="st1" d="M665,295.7c0,0,4,6,13,2"/>
<ellipse transform="matrix(0.1156 -0.9933 0.9933 0.1156 306.6469 954.8107)" class="st166" cx="689.5" cy="305.2" rx="12" ry="5.1"/>
<line class="st166" x1="684" y1="303.7" x2="646" y2="299.7"/>
<line class="st167" x1="621" y1="338.7" x2="648" y2="345.7"/>
<g>
	<g>
		<g>
			<path class="st160" d="M602.7,876.1c7.3,0.2,14.6,0.5,21.9,0.7c3.9,0.1,7.7-3.5,7.5-7.5c-0.2-4.2-3.3-7.4-7.5-7.5
				c-7.3-0.2-14.6-0.5-21.9-0.7c-3.9-0.1-7.7,3.5-7.5,7.5C595.4,872.8,598.5,876,602.7,876.1L602.7,876.1z"/>
		</g>
	</g>
	<g>
		<g>
			<path class="st160" d="M613.1,907.7c7.3,0.2,14.6,0.5,21.9,0.7c3.9,0.1,7.7-3.5,7.5-7.5c-0.2-4.2-3.3-7.4-7.5-7.5
				c-7.3-0.2-14.6-0.5-21.9-0.7c-3.9-0.1-7.7,3.5-7.5,7.5C605.8,904.4,608.9,907.6,613.1,907.7L613.1,907.7z"/>
		</g>
	</g>
</g>
<g>
	<g>
		<path class="st3" d="M942.3,345.4c0-0.2,0-0.3,0-0.5c0,0.4-0.1,0.4,0,0.1c0-0.3,0-0.5,0.1-0.8c-0.9,0.3-1.9,0.5-2.8,0.8
			c13.9,18.1,26.2,38.1,33,60c1.9,6.1,3.4,12.3,4.2,18.7c0.1,0.8,0.6,1.5,1.5,1.5c0.7,0,1.6-0.7,1.5-1.5
			c-3.1-23.2-13.6-44.9-26.3-64.2c-3.6-5.5-7.4-10.8-11.3-15.9c-0.9-1.1-2.8-0.9-2.8,0.8c0,0.2,0,0.3,0,0.5c0-0.4,0.1-0.4,0-0.1
			c0,0.3,0,0.5-0.1,0.8C939.3,347.3,942.3,347.3,942.3,345.4L942.3,345.4z"/>
	</g>
</g>
<g>
	<g>
		<path class="st3" d="M956.2,360.9c4.2-2.6,8.4-5.1,12.7-7.7c1.6-1,0.1-3.6-1.5-2.6c-4.2,2.6-8.4,5.1-12.7,7.7
			C953,359.3,954.5,361.9,956.2,360.9L956.2,360.9z"/>
	</g>
</g>
<g>
	<g>
		<path class="st3" d="M965.5,385.2c4.6-2.2,9.1-4.5,13.7-6.7c0.7-0.4,0.9-1.4,0.5-2.1c-0.4-0.7-1.3-0.9-2.1-0.5
			c-4.6,2.2-9.1,4.5-13.7,6.7c-0.7,0.4-0.9,1.4-0.5,2.1C963.9,385.4,964.8,385.6,965.5,385.2L965.5,385.2z"/>
	</g>
</g>
<g>
	<g>
		<path class="st3" d="M975.5,410.2c4-2,7.7-4.7,11.7-6.7c0.7-0.4,0.9-1.4,0.5-2.1c-0.4-0.7-1.3-0.9-2.1-0.5c-4,2-7.7,4.7-11.7,6.7
			c-0.7,0.4-0.9,1.4-0.5,2.1C973.9,410.4,974.8,410.6,975.5,410.2L975.5,410.2z"/>
	</g>
</g>
<g>
	<g>
		<path class="st3" d="M1144.5,106.7c16.3,0,29.5,13.2,29.5,29.5s-13.2,29.5-29.5,29.5s-29.5-13.2-29.5-29.5
			S1128.2,106.7,1144.5,106.7 M1144.5,103.7c-17.9,0-32.5,14.6-32.5,32.5s14.6,32.5,32.5,32.5s32.5-14.6,32.5-32.5
			S1162.5,103.7,1144.5,103.7L1144.5,103.7z"/>
	</g>
	<polyline class="st54" points="1127.5,138.2 1137.5,149.2 1163.5,126.2 	"/>
</g>
<g>
	<path class="st3" d="M381.5,562.7c16.3,0,29.5,13.2,29.5,29.5s-13.2,29.5-29.5,29.5S352,608.5,352,592.2S365.2,562.7,381.5,562.7
		 M381.5,559.7c-17.9,0-32.5,14.6-32.5,32.5s14.6,32.5,32.5,32.5s32.5-14.6,32.5-32.5S399.5,559.7,381.5,559.7L381.5,559.7z"/>
</g>
<path class="st165" d="M562.4,545.5c0,0,1.7,21.7-14.1,46.7"/>
<path class="st5" d="M1111.4,368.8c8.6,0.4,17.2,0,25.7-1.1"/>
<path class="st5" d="M1111.5,332.8c8.9,0.3,17.8,0.5,26.8,0.8"/>
<path class="st5" d="M1015,387.7c0,0,4.9,7,18.9,14.5"/>
</svg>
