<?xml version="1.0" encoding="utf-8"?>
<!-- Generator: Adobe Illustrator 24.0.2, SVG Export Plug-In . SVG Version: 6.00 Build 0)  -->
<svg version="1.1" id="Layer_1" xmlns="http://www.w3.org/2000/svg" xmlns:xlink="http://www.w3.org/1999/xlink" x="0px" y="0px"
	 viewBox="0 0 1920 1080" style="enable-background:new 0 0 1920 1080;" xml:space="preserve">
<style type="text/css">
	.st0{fill:#6CACEC;}
	.st1{fill:none;stroke:#000000;stroke-width:2;stroke-linecap:round;stroke-linejoin:round;stroke-miterlimit:10;}
	.st2{opacity:0.1;}
	.st3{fill:#FFFFFF;}
	.st4{fill:#FF81C4;}
	.st5{fill:#FFFFFF;stroke:#000000;stroke-width:2;stroke-linecap:round;stroke-linejoin:round;stroke-miterlimit:10;}
	.st6{fill:#5856D6;}
	.st7{fill:#FF81C4;stroke:#000000;stroke-width:2;stroke-linecap:round;stroke-linejoin:round;stroke-miterlimit:10;}
	.st8{fill:#3880BA;}
	.st9{fill:#FFFFFF;stroke:#000000;stroke-miterlimit:10;}
	.st10{fill:none;stroke:#000000;stroke-miterlimit:10;}
	.st11{fill:none;stroke:#000000;stroke-width:8;stroke-linecap:round;stroke-linejoin:round;stroke-miterlimit:10;}
	.st12{fill:url(#SVGID_1_);stroke:#F2566A;stroke-miterlimit:10;}
	.st13{fill:url(#SVGID_2_);}
	.st14{fill:none;stroke:#F2566A;stroke-miterlimit:10;}
	.st15{fill:none;stroke:#F2566A;stroke-miterlimit:10;stroke-dasharray:10.2805,139.8143;}
	.st16{fill:url(#SVGID_4_);stroke:#F2566A;stroke-miterlimit:10;}
	.st17{fill:url(#SVGID_5_);stroke:#F2566A;stroke-miterlimit:10;}
	.st18{fill:url(#SVGID_6_);fill-opacity:0.15;stroke:#549BF4;stroke-width:2;stroke-opacity:8.222246e-02;}
	.st19{fill:url(#SVGID_8_);fill-opacity:0.15;stroke:#549BF4;stroke-width:2;stroke-opacity:8.222246e-02;}
	.st20{opacity:0.62;fill:url(#SVGID_10_);fill-opacity:0.5;}
	.st21{opacity:0.62;fill:url(#SVGID_12_);fill-opacity:0.5;}
	.st22{opacity:0.62;fill:url(#SVGID_13_);fill-opacity:0.5;}
	.st23{opacity:0.62;fill:url(#SVGID_14_);fill-opacity:0.5;}
	.st24{opacity:0.62;fill:url(#SVGID_15_);fill-opacity:0.5;}
	.st25{opacity:0.62;fill:url(#SVGID_16_);fill-opacity:0.5;}
	.st26{opacity:0.62;fill:url(#SVGID_17_);fill-opacity:0.5;}
	.st27{opacity:0.62;fill:url(#SVGID_18_);fill-opacity:0.5;}
	.st28{fill:url(#SVGID_19_);stroke:#F2566A;stroke-miterlimit:10;stroke-dasharray:203,31,0,0,0;}
	.st29{fill:none;stroke:#F2566A;stroke-miterlimit:10;stroke-dasharray:110,0,0,0,0;}
	.st30{fill:none;stroke:#CBD6E8;stroke-miterlimit:10;}
	.st31{fill:url(#SVGID_20_);}
	.st32{fill:url(#SVGID_21_);}
	.st33{fill:url(#SVGID_22_);}
	.st34{fill:url(#SVGID_23_);}
	.st35{fill:url(#SVGID_24_);}
	.st36{fill:url(#SVGID_25_);}
	.st37{fill:none;stroke:#FFFFFF;stroke-miterlimit:10;}
	.st38{fill:url(#SVGID_27_);}
	.st39{fill:none;stroke:#FFFFFF;stroke-linecap:round;stroke-miterlimit:10;}
	.st40{fill:url(#SVGID_28_);}
	.st41{fill:url(#SVGID_29_);}
	.st42{opacity:0.36;fill:url(#SVGID_30_);enable-background:new    ;}
	.st43{opacity:0.36;fill:url(#SVGID_31_);enable-background:new    ;}
	.st44{fill:url(#SVGID_32_);fill-opacity:0.15;stroke:#549BF4;stroke-width:2;stroke-opacity:8.222246e-02;}
	.st45{fill:url(#SVGID_34_);fill-opacity:0.15;stroke:#549BF4;stroke-width:2;stroke-opacity:8.222246e-02;}
	.st46{fill:url(#SVGID_35_);fill-opacity:0.15;stroke:#549BF4;stroke-width:2;stroke-opacity:8.222246e-02;}
	.st47{fill:url(#SVGID_36_);fill-opacity:0.15;stroke:#549BF4;stroke-width:2;stroke-opacity:8.222246e-02;}
	.st48{fill:url(#SVGID_37_);fill-opacity:0.5;stroke:#FFFFFF;stroke-linejoin:round;}
	.st49{fill:url(#SVGID_38_);fill-opacity:0.15;stroke:#549BF4;stroke-width:2;stroke-opacity:8.222246e-02;}
	.st50{opacity:0.54;fill:#FFFFFF;enable-background:new    ;}
	.st51{fill:#363C61;}
	.st52{fill:none;stroke:url(#SVGID_39_);stroke-width:9;stroke-miterlimit:10;}
	.st53{fill:none;stroke:url(#SVGID_40_);stroke-width:9;stroke-miterlimit:10;}
	.st54{fill:none;stroke:#FFFFFF;stroke-width:3;stroke-miterlimit:10;}
	.st55{opacity:0.62;fill:url(#SVGID_41_);fill-opacity:0.5;}
	.st56{opacity:0.62;fill:url(#SVGID_42_);fill-opacity:0.5;}
	.st57{opacity:0.62;fill:url(#SVGID_43_);fill-opacity:0.5;}
	.st58{opacity:0.6;fill:url(#SVGID_44_);fill-opacity:0.5;}
	.st59{fill:url(#SVGID_45_);fill-opacity:0.15;stroke:#549BF4;stroke-width:2;stroke-opacity:8.222246e-02;}
	.st60{fill:url(#SVGID_46_);fill-opacity:0.15;stroke:#549BF4;stroke-width:2;stroke-opacity:8.222246e-02;}
	.st61{fill:url(#SVGID_47_);fill-opacity:0.15;stroke:#549BF4;stroke-width:2;stroke-opacity:8.222246e-02;}
	.st62{fill:url(#SVGID_48_);fill-opacity:0.15;stroke:#549BF4;stroke-width:2;stroke-opacity:8.222246e-02;}
	.st63{opacity:0.62;fill:url(#SVGID_49_);fill-opacity:0.5;}
	.st64{opacity:0.62;fill:url(#SVGID_50_);fill-opacity:0.5;}
	.st65{opacity:5.000000e-02;fill:none;stroke:#FFFFFF;stroke-width:2;stroke-miterlimit:10;}
	.st66{opacity:0.15;fill:url(#SVGID_51_);fill-opacity:0.5;}
	.st67{opacity:0.5;}
	.st68{fill:none;stroke:#FFFFFF;stroke-width:2;stroke-dasharray:11.8503,11.8503;}
	.st69{fill:url(#SVGID_52_);fill-opacity:0.5;stroke:#FFFFFF;stroke-linejoin:round;}
	.st70{fill:url(#SVGID_53_);fill-opacity:0.15;stroke:#549BF4;stroke-width:2;stroke-opacity:8.222246e-02;}
	.st71{fill:#CAD6E8;}
	.st72{fill:url(#SVGID_54_);}
	.st73{fill:url(#SVGID_55_);}
	.st74{opacity:0.89;fill:#F2566A;enable-background:new    ;}
	.st75{fill:#EBF1FC;}
	.st76{fill:#CEDEF2;}
	.st77{fill:url(#SVGID_56_);}
	.st78{fill:url(#SVGID-2_1_);}
	.st79{fill:url(#SVGID-3_1_);}
	.st80{fill:url(#SVGID_57_);}
	.st81{clip-path:url(#SVGID_58_);}
	.st82{fill:url(#SVGID_59_);}
	.st83{fill:#CBD6E8;}
	.st84{stroke:#000000;stroke-miterlimit:10;}
	.st85{fill:url(#SVGID_60_);}
	.st86{fill:url(#SVGID-4_1_);}
	.st87{fill:url(#SVGID_61_);}
	.st88{opacity:0.36;fill:url(#SVGID_62_);enable-background:new    ;}
	.st89{opacity:0.4;fill:#3574EC;enable-background:new    ;}
	.st90{fill:url(#SVGID-5_1_);}
	.st91{fill:url(#SVGID-6_1_);}
	.st92{fill:url(#SVGID_63_);}
	.st93{clip-path:url(#SVGID_64_);}
	.st94{fill:url(#SVGID_65_);}
	.st95{fill:url(#SVGID-7_1_);}
	.st96{opacity:0.4;fill:#FFFFFF;enable-background:new    ;}
	.st97{opacity:0.9;fill:#FFFFFF;enable-background:new    ;}
	.st98{opacity:0.9;}
	.st99{fill:url(#SVGID_66_);}
	.st100{opacity:0.36;fill:url(#SVGID_67_);enable-background:new    ;}
	.st101{fill:url(#SVGID_68_);}
	.st102{fill:url(#SVGID_69_);}
	.st103{fill:url(#SVGID_70_);fill-opacity:0.3;}
	.st104{opacity:8.000000e-02;fill:#549BF4;enable-background:new    ;}
	.st105{fill:url(#SVGID_71_);fill-opacity:0.15;}
	.st106{opacity:0.8;}
	.st107{fill:#9090D0;}
	.st108{fill:none;stroke:#000000;stroke-width:3;stroke-linecap:round;stroke-linejoin:round;stroke-miterlimit:10;}
	.st109{fill:#CFCED4;}
	.st110{fill:#FEAD91;}
	.st111{fill:#FFFFFF;stroke:#000000;stroke-width:3;stroke-linecap:round;stroke-linejoin:round;stroke-miterlimit:10;}
	.st112{fill:#FEAD91;stroke:#000000;stroke-width:3;stroke-miterlimit:10;}
	.st113{fill:#FFE2AA;}
	.st114{fill:#FFE2AA;stroke:#000000;stroke-width:3;stroke-linecap:round;stroke-linejoin:round;stroke-miterlimit:10;}
	.st115{fill:none;stroke:#000000;stroke-width:4;stroke-linecap:round;stroke-linejoin:round;stroke-miterlimit:10;}
	.st116{fill:#FFFFFF;stroke:#000000;stroke-width:5;stroke-linecap:round;stroke-linejoin:round;stroke-miterlimit:10;}
	.st117{fill:none;stroke:#000000;stroke-width:3;stroke-miterlimit:10;}
	.st118{fill:#FFFFFF;stroke:#000000;stroke-width:2;stroke-miterlimit:10;}
	.st119{fill:#FFC9E6;}
	.st120{fill:#FCA1BB;}
	.st121{fill:#151614;}
	.st122{fill:#FFFFFF;stroke:#1B0042;stroke-width:2;stroke-linecap:round;stroke-linejoin:round;stroke-miterlimit:10;}
	.st123{fill:none;stroke:#1B0042;stroke-width:2;stroke-linecap:round;stroke-linejoin:round;stroke-miterlimit:10;}
	.st124{fill:#1B0042;}
	
		.st125{opacity:0.15;clip-path:url(#XMLID_13_);fill:none;stroke:#FFFFFF;stroke-width:2;stroke-linecap:round;stroke-linejoin:round;stroke-miterlimit:10;}
	.st126{fill:none;stroke:#000000;stroke-linecap:round;stroke-linejoin:round;stroke-miterlimit:10;}
	.st127{fill:none;stroke:#FFFFFF;stroke-linecap:round;stroke-linejoin:round;stroke-miterlimit:10;}
	
		.st128{opacity:0.15;clip-path:url(#XMLID_15_);fill:none;stroke:#FFFFFF;stroke-width:2;stroke-linecap:round;stroke-linejoin:round;stroke-miterlimit:10;}
	
		.st129{opacity:0.15;clip-path:url(#XMLID_16_);fill:none;stroke:#FFFFFF;stroke-width:2;stroke-linecap:round;stroke-linejoin:round;stroke-miterlimit:10;}
	.st130{fill:none;stroke:#FFFFFF;stroke-width:2;stroke-linecap:round;stroke-linejoin:round;stroke-miterlimit:10;}
	
		.st131{opacity:0.15;clip-path:url(#XMLID_17_);fill:none;stroke:#FFFFFF;stroke-width:2;stroke-linecap:round;stroke-linejoin:round;stroke-miterlimit:10;}
	.st132{opacity:0.15;clip-path:url(#XMLID_18_);fill:none;stroke:#FFFFFF;stroke-width:2;stroke-miterlimit:10;}
	
		.st133{opacity:0.15;clip-path:url(#XMLID_19_);fill:none;stroke:#FFFFFF;stroke-width:2;stroke-linecap:round;stroke-linejoin:round;stroke-miterlimit:10;}
	.st134{fill:#FFFFFF;stroke:#2C234A;stroke-width:2;stroke-linecap:round;stroke-linejoin:round;stroke-miterlimit:10;}
	.st135{fill:#8AAFF6;}
	.st136{fill:none;stroke:#2C234A;stroke-width:2;stroke-linecap:round;stroke-linejoin:round;stroke-miterlimit:10;}
	.st137{opacity:0.2;}
	.st138{fill:#2C234A;}
	.st139{fill:none;stroke:#4417D7;stroke-width:2;stroke-linecap:round;stroke-linejoin:round;stroke-miterlimit:10;}
	.st140{fill:none;stroke:#EFCC4A;stroke-width:2;stroke-linecap:round;stroke-linejoin:round;stroke-miterlimit:10;}
	.st141{fill:#E3DFFF;}
	.st142{fill:none;stroke:#9D8AF6;stroke-width:2;stroke-linecap:round;stroke-linejoin:round;stroke-miterlimit:10;}
	.st143{clip-path:url(#SVGID_72_);}
	.st144{fill:none;stroke:#E3DFFF;stroke-width:4;stroke-linecap:round;stroke-linejoin:round;stroke-miterlimit:10;}
	.st145{fill:none;stroke:#D6D4D4;stroke-width:10;stroke-linecap:round;stroke-linejoin:round;stroke-miterlimit:10;}
	.st146{fill:none;stroke:#FF4B42;stroke-width:10;stroke-linecap:round;stroke-linejoin:round;stroke-miterlimit:10;}
	.st147{fill:#D7B9D8;}
	.st148{fill:#D6D4D4;}
	.st149{fill:#FFB69D;}
	.st150{fill:#D6D4D4;stroke:#FFFFFF;stroke-width:2;stroke-miterlimit:10;}
	.st151{clip-path:url(#XMLID_20_);}
	.st152{clip-path:url(#XMLID_21_);}
	.st153{fill:none;stroke:#FFFFFF;stroke-width:5;stroke-linecap:round;stroke-linejoin:round;stroke-miterlimit:10;}
	.st154{fill:#FF4B42;}
	.st155{clip-path:url(#XMLID_24_);}
	.st156{clip-path:url(#SVGID_74_);}
	.st157{clip-path:url(#XMLID_25_);}
	.st158{fill:#FEC0D9;}
	
		.st159{fill:none;stroke:#D6D4D4;stroke-width:3;stroke-linecap:round;stroke-linejoin:round;stroke-miterlimit:10;stroke-dasharray:20,20;}
	.st160{fill:#6BA5BD;}
	.st161{clip-path:url(#XMLID_28_);}
	.st162{clip-path:url(#SVGID_76_);}
	.st163{clip-path:url(#XMLID_29_);}
	.st164{clip-path:url(#XMLID_33_);}
	.st165{fill:none;stroke:#FFFFFF;stroke-width:4;stroke-linecap:round;stroke-linejoin:round;stroke-miterlimit:10;}
	.st166{fill:none;stroke:#FFFF00;stroke-width:2;stroke-linecap:round;stroke-linejoin:round;stroke-miterlimit:10;}
	.st167{fill:#FEC0D9;stroke:#000000;stroke-width:3;stroke-linecap:round;stroke-linejoin:round;stroke-miterlimit:10;}
	.st168{fill:#FFCDB2;stroke:#000000;stroke-width:2;stroke-linecap:round;stroke-linejoin:round;stroke-miterlimit:10;}
	.st169{stroke:#FFFFFF;stroke-width:2;stroke-miterlimit:10;}
	.st170{fill:#996533;stroke:#000000;stroke-width:2;stroke-linecap:round;stroke-linejoin:round;stroke-miterlimit:10;}
	.st171{stroke:#000000;stroke-width:2;stroke-linecap:round;stroke-linejoin:round;stroke-miterlimit:10;}
	.st172{fill:#996533;stroke:#000000;stroke-width:2;stroke-miterlimit:10;}
	.st173{fill:#FF6600;stroke:#000000;stroke-width:2;stroke-linecap:round;stroke-linejoin:round;stroke-miterlimit:10;}
	.st174{fill:#FFCDB2;}
	.st175{fill:none;stroke:#000000;stroke-width:2;stroke-miterlimit:10;}
	.st176{fill:none;stroke:#000000;stroke-width:5;stroke-linecap:round;stroke-linejoin:round;stroke-miterlimit:10;}
	.st177{fill:#9B4CB5;stroke:#000000;stroke-width:2;stroke-linecap:round;stroke-linejoin:round;stroke-miterlimit:10;}
	.st178{fill:#C8C8FF;stroke:#000000;stroke-width:2;stroke-linecap:round;stroke-linejoin:round;stroke-miterlimit:10;}
	.st179{fill:#DDDCDD;}
	.st180{fill:#FA6058;stroke:#000000;stroke-width:2;stroke-miterlimit:10;}
	.st181{fill:#FBBC2D;stroke:#000000;stroke-width:2;stroke-miterlimit:10;}
	.st182{fill:#30CA41;stroke:#000000;stroke-width:2;stroke-miterlimit:10;}
	.st183{stroke:#FFFFFF;stroke-width:2;stroke-linecap:round;stroke-linejoin:round;stroke-miterlimit:10;}
	.st184{fill:none;stroke:#C8C8FF;stroke-width:5;stroke-linecap:round;stroke-linejoin:round;stroke-miterlimit:10;}
	.st185{stroke:#000000;stroke-width:2;stroke-miterlimit:10;}
	.st186{fill:#FF2D55;}
	.st187{fill:#D4D7FF;}
	.st188{fill:#FFCBC2;}
	.st189{clip-path:url(#SVGID_77_);}
	.st190{fill:#352F84;}
	.st191{clip-path:url(#SVGID_78_);}
	.st192{clip-path:url(#SVGID_79_);}
	.st193{clip-path:url(#XMLID_37_);}
	.st194{opacity:0.4;clip-path:url(#XMLID_41_);}
	.st195{clip-path:url(#XMLID_44_);}
	.st196{fill:#FF3167;}
	.st197{fill:#91A3B4;}
	.st198{fill:#E05555;}
	.st199{fill:none;stroke:#EFA9A9;stroke-width:2;stroke-miterlimit:10;}
	.st200{clip-path:url(#XMLID_46_);}
	.st201{fill:#F2F2F2;}
	.st202{fill:#6F8393;}
	.st203{fill:#333333;}
	.st204{fill:#B5C7C3;}
	.st205{clip-path:url(#XMLID_47_);}
	.st206{clip-path:url(#SVGID_81_);}
	.st207{clip-path:url(#XMLID_50_);}
	.st208{fill:#5595E0;}
	.st209{fill:#FCFCFC;}
	.st210{fill:none;stroke:#CACBDB;stroke-width:10;stroke-linecap:round;stroke-linejoin:round;stroke-miterlimit:10;}
	
		.st211{fill:none;stroke:#CACBDB;stroke-width:10;stroke-linecap:round;stroke-linejoin:round;stroke-miterlimit:10;stroke-dasharray:30,30;}
	.st212{fill:none;stroke:#CACBDB;stroke-width:21;stroke-linecap:round;stroke-linejoin:round;stroke-miterlimit:10;}
	.st213{fill:#E45858;}
	.st214{fill:#CFD4FF;}
	.st215{fill:#2A2C67;}
	.st216{clip-path:url(#XMLID_51_);}
	.st217{fill:#585DE4;}
	.st218{fill:none;stroke:#324A81;stroke-width:5;stroke-linecap:round;stroke-linejoin:round;stroke-miterlimit:10;}
	.st219{fill:#CFD4FF;stroke:#2A2C67;stroke-width:5;stroke-linecap:round;stroke-linejoin:round;stroke-miterlimit:10;}
	.st220{clip-path:url(#XMLID_52_);}
	.st221{clip-path:url(#XMLID_53_);}
	.st222{fill:none;stroke:#FEFEFF;stroke-width:5;stroke-linecap:round;stroke-linejoin:round;stroke-miterlimit:10;}
	.st223{fill:#CFD4FF;stroke:#2A2C67;stroke-width:5;stroke-miterlimit:10;}
	.st224{fill:none;stroke:#2A2C67;stroke-width:5;stroke-linecap:round;stroke-linejoin:round;stroke-miterlimit:10;}
	.st225{fill:none;stroke:#585DE4;stroke-width:5;stroke-miterlimit:10;}
	.st226{fill:none;stroke:#585DE4;stroke-width:5;stroke-linecap:round;stroke-linejoin:round;stroke-miterlimit:10;}
	.st227{fill:#E8E8F7;}
	
		.st228{opacity:0.4;fill:none;stroke:#303044;stroke-width:2.5095;stroke-linecap:round;stroke-linejoin:round;stroke-miterlimit:10;}
	.st229{fill:#FEC5C4;}
	.st230{fill:#EF8D8B;}
	.st231{fill:#FEC5C4;stroke:#EF8D8B;stroke-width:2.5095;stroke-linecap:round;stroke-linejoin:round;stroke-miterlimit:10;}
	.st232{fill:#F048BA;}
	.st233{fill:#FFFFFF;stroke:#E8E8F7;stroke-width:2;stroke-linecap:round;stroke-linejoin:round;stroke-miterlimit:10;}
	.st234{fill:none;stroke:#E8E8F7;stroke-width:2;stroke-linecap:round;stroke-linejoin:round;stroke-miterlimit:10;}
	.st235{fill:#303044;}
	.st236{fill:none;}
	.st237{fill:none;stroke:#EF8D8B;stroke-width:2.5095;stroke-linecap:round;stroke-linejoin:round;stroke-miterlimit:10;}
	.st238{fill:none;stroke:#E8E8F7;stroke-width:7;stroke-linecap:round;stroke-linejoin:round;stroke-miterlimit:10;}
	.st239{fill:#FFFFFF;stroke:#E8E8F7;stroke-width:7;stroke-linecap:round;stroke-linejoin:round;stroke-miterlimit:10;}
	.st240{fill:#FFFFFF;stroke:#E8E8F7;stroke-width:5.62;stroke-miterlimit:10;}
	.st241{fill:#E8E8F7;stroke:#E8E8F7;stroke-width:5.62;stroke-miterlimit:10;}
	.st242{fill:#FEC5C4;stroke:#EF8D8B;stroke-width:2;stroke-linecap:round;stroke-linejoin:round;stroke-miterlimit:10;}
	.st243{fill:none;stroke:#EF8D8B;stroke-width:2;stroke-linecap:round;stroke-linejoin:round;stroke-miterlimit:10;}
	.st244{fill:#E8E8F7;stroke:#FFFFFF;stroke-width:5.62;stroke-miterlimit:10;}
	.st245{opacity:0.4;fill:none;stroke:#000000;stroke-width:2;stroke-linecap:round;stroke-linejoin:round;stroke-miterlimit:10;}
	.st246{fill:none;stroke:#E8E8F7;stroke-width:5.1321;stroke-miterlimit:10;}
	.st247{fill:none;stroke:#EF8D8B;stroke-width:2;stroke-linecap:round;stroke-miterlimit:10;}
	.st248{fill:#FFFFFF;stroke:#E8E8F7;stroke-width:5;stroke-miterlimit:10;}
	.st249{fill:#E8E8F7;stroke:#E8E8F7;stroke-width:5;stroke-miterlimit:10;}
	.st250{fill:#FFFFFF;stroke:#E8E8F7;stroke-width:5;stroke-miterlimit:10;stroke-dasharray:20,20;}
	.st251{fill:#F2F2F6;}
	.st252{opacity:0.4;fill:#FFFFFF;stroke:#000000;stroke-width:2.1161;stroke-linecap:round;stroke-miterlimit:10;}
	
		.st253{opacity:0.4;fill:none;stroke:#000000;stroke-width:2.1161;stroke-linecap:round;stroke-linejoin:round;stroke-miterlimit:10;stroke-dasharray:140.7185,204.2005;}
	.st254{opacity:0.4;fill:none;stroke:#000000;stroke-width:2.1161;stroke-linecap:round;stroke-miterlimit:10;}
	.st255{fill:#282828;}
	.st256{fill:#FEC5C4;stroke:#EF8D8B;stroke-width:1.058;stroke-linecap:round;stroke-miterlimit:10;}
	.st257{fill:none;stroke:#FFFFFF;stroke-width:8;stroke-linecap:round;stroke-linejoin:round;stroke-miterlimit:10;}
	
		.st258{fill:none;stroke:#E8E8F7;stroke-width:5;stroke-linecap:round;stroke-linejoin:round;stroke-miterlimit:10;stroke-dasharray:20,20;}
	.st259{fill:none;stroke:#E8E8F7;stroke-width:4.7431;stroke-linecap:round;stroke-linejoin:round;stroke-miterlimit:10;}
	
		.st260{opacity:0.4;fill:none;stroke:#000000;stroke-width:1.7088;stroke-linecap:round;stroke-linejoin:round;stroke-miterlimit:10;}
	.st261{fill-rule:evenodd;clip-rule:evenodd;fill:#F7931A;}
	.st262{fill:none;stroke:#EF8D8B;stroke-width:1.9557;stroke-linecap:round;stroke-linejoin:round;stroke-miterlimit:10;}
</style>
<path class="st168" d="M865.9,696c0,0-33.8-3.1-60.6,11.8c-26.7,14.9-34.3,30.1-23.3,32.4c11,2.4,24.9-20.6,35.9-19.1
	c11,1.6,7.2,6,7.2,6s-20.9,3.3-20.3,14.8c0.5,8.5,16.2-1.5,24.1,0.9c7.9,2.4,29.9-2,29.9-2L865.9,696z"/>
<path class="st169" d="M1024.7,545l-32.9,96.1c-4.3,12.5-14.7,21.9-27.6,24.9L847.1,693l9.3,44.9l145.8-9.5
	c15.1-0.8,28.7-9.5,35.7-22.8c21.3-40.3,65.3-124.8,69.6-145.6c4.1-19.7-9.8-36.7-22.1-43.4C1070,508.2,1040.1,512.4,1024.7,545z"/>
<path class="st170" d="M1103.1,483.2c0,0,19.3,4.5-25.7,79.3c-22.8,37.9-30.6,144.8-79.5,181.7c-48.9,37-81.7-13.8-62.3-53.7
	s55.8-115,62.2-168.2s16.9-69.9,36.3-76.3C1063.3,436.4,1093.5,438.6,1103.1,483.2z"/>
<path class="st168" d="M1057.9,579.6l-5.9-43.6l38.8-20.3l7.9,58.5C1098.8,574.1,1083.6,595,1057.9,579.6z"/>
<path class="st168" d="M1087.2,526c5.9-11.1,6.7-24.7,5.9-36c-2.2-30.3-34.6-49-61.5-35c-0.5,0.3-1.1,0.6-1.6,0.9
	c-30.5,16.7-27,72.3-9.1,97.3c6.8,9.4,19.5,12.5,30,7.4C1061.7,555.3,1077.2,545.1,1087.2,526z"/>
<path class="st168" d="M1080,490.9c0,0,10.9,2.9,8,12.1c-1.3,4-4.4,7.3-8.4,8.7c-1.9,0.7-4.1,1-6.6,0.7"/>
<path class="st168" d="M1081,500.1c0,0-6.4-2.5-6.5,6.8"/>
<line class="st171" x1="1036.3" y1="504.8" x2="1036.6" y2="510.2"/>
<line class="st171" x1="1017.4" y1="505.1" x2="1017.8" y2="510.5"/>
<path class="st1" d="M1026.9,503.8l-4.4,19.2c-0.5,2.4,1.4,4.6,3.8,4.3l8-0.8"/>
<path class="st5" d="M1034.4,539.5l18.4-10.9C1052.8,528.6,1052.3,549.5,1034.4,539.5z"/>
<path class="st172" d="M1161.8,728.1c-54.2-26.2-54.3-175.3-82.5-211.7c-28.1-7.3-48.5-26.8-57.8-37.3c-14,1.2-18.9,14.1-18.9,14.1
	c0.7-45.6,35.6-56.3,66.1-52.5c20.2,2.5,33,18.9,49.7,69.8c16.7,50.9,67.1,117.5,94,152.8C1239.2,698.5,1217,754.7,1161.8,728.1z"/>
<path class="st168" d="M1252.9,655.7l51,10l-11,113c0,0-49.4,11.3-93.2-35.9L1252.9,655.7z"/>
<path class="st168" d="M1629.7,508.7l12.5-17.8c3-4.3,8.4-6.2,13.5-4.9l93.1,24.9c5.9,1.6,9.8,7.2,9.2,13.3l0,0
	c-0.6,5.9-5.2,10.5-11,11.2l-78.3,9.1l-17.2,26.6l-40.5-38.4L1629.7,508.7z"/>
<path class="st168" d="M1564.2,405.8c0,2.2-0.6,4.5-1.7,6.5l-26.1,47.8l-7.5,85.5l-50.7,8.1l7-60.3l-13.8-15.6
	c-5.5-6.2-4.9-15.7,1.3-21.2l68.9-61.1c5.6-5,14.3-4.5,19.3,1.2C1563.1,399.3,1564.2,402.6,1564.2,405.8z"/>
<path class="st173" d="M1500.9,647.7c2-1,123-133,123-133l39,40l-139,198L1500.9,647.7z"/>
<g>
	<path class="st179" d="M583.5,265.5v-33.7c0-4.1,3.3-7.4,7.4-7.4h317.6c4.1,0,7.4,3.3,7.4,7.4v35.7L583.5,265.5z"/>
	<path d="M908.5,225.4c3.5,0,6.4,2.9,6.4,6.4v34.7l-330.4-2v-32.7c0-3.5,2.9-6.4,6.4-6.4H908.5 M908.5,223.4H590.9
		c-4.6,0-8.4,3.8-8.4,8.4v34.7l334.4,2.1v-36.7C916.9,227.2,913.1,223.4,908.5,223.4L908.5,223.4z"/>
</g>
<g>
	<path class="st3" d="M590.9,555.8c-4.1,0-7.4-3.3-7.4-7.4V266.5l332.4,2v279.9c0,4.1-3.3,7.4-7.4,7.4H590.9z"/>
	<path d="M584.5,267.5l330.4,2v278.9c0,3.5-2.9,6.4-6.4,6.4H590.9c-3.5,0-6.4-2.9-6.4-6.4V267.5 M582.5,265.5v282.9
		c0,4.6,3.8,8.4,8.4,8.4h317.6c4.6,0,8.4-3.8,8.4-8.4V267.5L582.5,265.5L582.5,265.5z"/>
</g>
<circle class="st180" cx="601.8" cy="245.3" r="7.4"/>
<circle class="st181" cx="623.7" cy="245.3" r="7.4"/>
<circle class="st182" cx="645.6" cy="245.3" r="7.4"/>
<path class="st173" d="M1294.9,656.7l164,37l23-167c0,0,54-23,55-19c0.7,2.8,5.4,142.2,8.1,224.3c1,31.7-25.1,57.7-56.8,56.5
	l-208.3-4.8L1294.9,656.7z"/>
<path class="st183" d="M1259.9,644.7l-21,133c0,0-65.9-27.2-86-39c-63-37-80,2.4-108.9-37.3c-8.3-11.5-12.4-23.5-12.3-37.6
	c0.3-21.7,32.1-57.1,24.1-98.1c0,0,13,13,41-8c0,0,21.5,4,46,22C1180.9,607.7,1184.9,626.7,1259.9,644.7z"/>
<path class="st168" d="M909.9,728c0,0-33.8-3.1-60.6,11.8c-26.7,14.9-34.3,30.1-23.3,32.4c11,2.4,24.9-20.6,35.9-19.1
	c11,1.6,7.2,6,7.2,6s-20.9,3.3-20.3,14.8c0.5,8.5,16.2-1.5,24.1,0.9c7.9,2.4,29.9-2,29.9-2L909.9,728z"/>
<path class="st175" d="M902.8,771.2c0,0-17,9.6-35-17.2"/>
<path class="st169" d="M1086.4,598.4l-42.2,92.4c-5.5,12-16.8,20.4-29.9,22.1l-119.2,15.3l4.8,45.6l146.1,4.9
	c15.1,0.7,29.4-6.6,37.8-19.2c25.2-38,77.3-117.8,83.6-138c6-19.2-6.2-37.5-17.7-45.3C1135.1,566.3,1105,567.5,1086.4,598.4z"/>
<path class="st184" d="M1081.1,484.2c0,0-12.6-76.4-38.9-48.3"/>
<path class="st5" d="M468.8,682.7c0,0-12.8-17.5,5.7-44.6c17.3-25.4,38.7-37,49.5-60c1.2-2.7,0-5.8-2.7-6.9l0,0
	c-2.5-1-5.3,0.1-6.5,2.5c-3,6.1-10.3,18.1-27,33.9c0,0-54.2,43.9-24.8,84.3L468.8,682.7z"/>
<path class="st5" d="M529.1,751.7c0,0-1.3,17.7,11.2,18.5c6,0.4,6.9,3.2,6.6,5.6c-0.2,1.7-1.7,3-3.4,3h-18.9l-20-33.8l2.6-7.9
	l18.7,4.9L529.1,751.7z"/>
<path class="st5" d="M529.1,751.7c0,0-1.3,17.7,11.2,18.5c6,0.4,6.9,3.2,6.6,5.6c-0.2,1.7-1.7,3-3.4,3h-18.9l-20-33.8l2.6-7.9
	l18.7,4.9L529.1,751.7z"/>
<path class="st5" d="M678,733.8c0,0,13.5,19.5,53.2,26.5c3.4,0.6,6.8,1.5,10,2.9c0.8,0.4,1.7,0.7,2.6,1.2c5.2,2.6,3.3,10.5-2.5,10.5
	h-8.8c0,0-40.4,1.3-88.6-18.7"/>
<path class="st5" d="M678,733.8c0,0,13.5,19.5,53.2,26.5c3.4,0.6,6.8,1.5,10,2.9c0.8,0.4,1.7,0.7,2.6,1.2c5.2,2.6,3.3,10.5-2.5,10.5
	h-8.8c0,0-40.4,1.3-88.6-18.7"/>
<path class="st5" d="M733.3,707.9c0,0,1.6-12.8-17.4-23l2-11.2c0-1.5-1.3-2.6-2.7-2.3c-4.2,0.7-9.1,5-12.4,11.9l-6.2,0.3l1.6-12.9
	c0-1.5-1.3-2.6-2.7-2.3c-4.4,0.8-15.3,9.7-22.5,22.8L669,692c-11.4,2.5-23.3,1.8-34.4-1.9c-11.2-3.8-26.4-9.3-41.1-15.3
	c-25.5-10.6-46-20.2-65-24.4c-17.5-3.9-35.9-0.9-51,8.7c-15.5,9.9-31,28.5-22.8,61.5c-0.4,1.3,7.2,22.9,39.7,44.2
	c0,0,6.2,6.1,9.1,11.6c2.2,4.2,6.6,6.8,11.4,6.8H530c3,0,4.6-2.3,3.5-5.1c-1.6-4.1-5.3-9-13.5-10.7l-6.2-23.6
	c0,0,10.4,6.2,34.7,17.1c27.1,12.2,60.8,17.3,90.4,14.2c5.6-0.6,11.5-1.5,17.4-2.8c0,0,24.9,0.7,44.3-22.3c0,0,4.9-2.3,29.9-15.1
	c0,0,12.1-8.9,14.1-19C744.4,715.8,742.8,712.5,733.3,707.9z"/>
<path class="st5" d="M682.7,743.7c0,0,13.5,19.5,53.2,26.5c3.4,0.6,6.8,1.5,10,2.9c0.8,0.4,1.7,0.7,2.6,1.2
	c5.2,2.6,3.3,10.5-2.5,10.5h-8.8c0,0-40.4,1.3-88.6-18.7"/>
<path class="st5" d="M682.7,743.7c0,0,13.5,19.5,53.2,26.5c3.4,0.6,6.8,1.5,10,2.9c0.8,0.4,1.7,0.7,2.6,1.2
	c5.2,2.6,3.3,10.5-2.5,10.5h-8.8c0,0-40.4,1.3-88.6-18.7"/>
<path class="st5" d="M500.3,719.4c0,0,13.8,4.6,13.5,24.3"/>
<circle class="st185" cx="720" cy="709.5" r="2"/>
<path class="st5" d="M744.3,715.3h-4.6c0,0,3.4,1.7,3.3,4.3C743,719.6,743.3,720.2,744.3,715.3z"/>
<path class="st5" d="M715.9,684.9c0,0-8.2-2.3-19.4-1.3"/>
<g>
	<path class="st5" d="M714.8,725.7c0,0-9.4,3.4-11.8,11.7"/>
	<path class="st5" d="M717.5,728.4c0,0-8.1,5.9-8,14.5"/>
	<path class="st5" d="M719.9,730.9c0,0-4.8,7.3-2.1,14.3"/>
</g>
<path class="st5" d="M697,473.5c-3.1-0.4-6.1-1.3-8.6-2.5c-1.3-0.6-2.9-1.5-3.2-1.7c-0.1-0.1-0.7-0.5-1.3-1c-4.3-3.2-7.4-8-8.4-13.1
	c-0.3-1.7-0.3-5,0-6.7c0.8-3.9,2.6-7.4,5.4-10.4c3.9-4.1,9.2-6.8,15.5-7.8c2-0.3,6.8-0.3,8.8,0c2,0.3,4.3,0.9,5.1,1.2
	c1,0.4,1.5,0.4,2-0.2l0.4-0.5v-38.5c0-37.3,0-38.5,0.3-38.7c0.1-0.1,0.5-0.3,0.7-0.3c2-0.4,87.1-14,87.4-14h0.4l-0.1,50.9
	c-0.1,49.3-0.1,51-0.4,52.3c-1.1,5.8-6.1,11.5-12.7,14.6c-8.5,3.9-19.1,3.4-26.9-1.3c-4.3-2.6-7.7-6.4-9.4-10.5
	c-3.9-9.4,0.1-19.6,9.7-25.3c4.7-2.8,10.9-4.2,16.5-3.7c2.7,0.2,5.8,0.8,7.6,1.5c2.3,0.8,2.7,0.9,3.3,0.2l0.4-0.5v-24.2
	c0-19.3,0-24.2-0.2-24.2c-0.1,0-14.4,2.3-31.8,5.1l-31.6,5.1l-0.1,38.1c-0.1,36.3-0.1,38.9-0.5,40.1c-0.3,0.9-1,2.8-1.3,3.4
	c-0.2,0.3-0.5,0.8-0.6,1.1c-0.1,0.3-0.2,0.5-0.3,0.5c-0.1,0-0.1,0.1-0.1,0.1c0,0.1-0.3,0.6-0.7,1.1c-3.2,4.3-8.1,7.6-13.8,9.2
	C705.2,473.6,700.4,473.9,697,473.5L697,473.5z"/>
<path class="st5" d="M453.9,631.7c0,0-10,11-8,23"/>
<path class="st5" d="M445.9,629.7c0,0-10,11-8,23"/>
<path class="st5" d="M1109.5,468.7c0,0-0.6-14.9-10.4-22"/>
<path class="st5" d="M1116.6,464.5c0,0-0.6-14.9-10.4-22"/>
<path class="st5" d="M1646.6,468.5c0,0-14.5,3.3-19.7,14.3"/>
<path class="st5" d="M1641.2,462.3c0,0-14.5,3.3-19.7,14.3"/>
<path class="st5" d="M1561.2,377.7c0,0-14.6-2.6-23.7,5.6"/>
<path class="st5" d="M1558.6,369.9c0,0-14.6-2.6-23.7,5.6"/>
<circle class="st178" cx="1083.9" cy="502" r="21"/>
</svg>
