<?xml version="1.0" encoding="utf-8"?>
<!-- Generator: Adobe Illustrator 24.0.2, SVG Export Plug-In . SVG Version: 6.00 Build 0)  -->
<svg version="1.1" id="Layer_1" xmlns="http://www.w3.org/2000/svg" xmlns:xlink="http://www.w3.org/1999/xlink" x="0px" y="0px"
	 viewBox="0 0 1920 1080" style="enable-background:new 0 0 1920 1080;" xml:space="preserve">
<style type="text/css">
	.st0{fill:#6CACEC;}
	.st1{fill:none;stroke:#000000;stroke-width:2;stroke-linecap:round;stroke-linejoin:round;stroke-miterlimit:10;}
	.st2{opacity:0.1;}
	.st3{fill:#FFFFFF;}
	.st4{fill:#FF81C4;}
	.st5{fill:#FFFFFF;stroke:#000000;stroke-width:2;stroke-linecap:round;stroke-linejoin:round;stroke-miterlimit:10;}
	.st6{fill:#5856D6;}
	.st7{fill:#FF81C4;stroke:#000000;stroke-width:2;stroke-linecap:round;stroke-linejoin:round;stroke-miterlimit:10;}
	.st8{fill:#3880BA;}
	.st9{fill:#FFFFFF;stroke:#000000;stroke-miterlimit:10;}
	.st10{fill:none;stroke:#000000;stroke-miterlimit:10;}
	.st11{fill:none;stroke:#000000;stroke-width:8;stroke-linecap:round;stroke-linejoin:round;stroke-miterlimit:10;}
	.st12{fill:url(#SVGID_1_);stroke:#F2566A;stroke-miterlimit:10;}
	.st13{fill:url(#SVGID_2_);}
	.st14{fill:none;stroke:#F2566A;stroke-miterlimit:10;}
	.st15{fill:none;stroke:#F2566A;stroke-miterlimit:10;stroke-dasharray:10.2805,139.8143;}
	.st16{fill:url(#SVGID_4_);stroke:#F2566A;stroke-miterlimit:10;}
	.st17{fill:url(#SVGID_5_);stroke:#F2566A;stroke-miterlimit:10;}
	.st18{fill:url(#SVGID_6_);fill-opacity:0.15;stroke:#549BF4;stroke-width:2;stroke-opacity:8.222246e-02;}
	.st19{fill:url(#SVGID_8_);fill-opacity:0.15;stroke:#549BF4;stroke-width:2;stroke-opacity:8.222246e-02;}
	.st20{opacity:0.62;fill:url(#SVGID_10_);fill-opacity:0.5;}
	.st21{opacity:0.62;fill:url(#SVGID_12_);fill-opacity:0.5;}
	.st22{opacity:0.62;fill:url(#SVGID_13_);fill-opacity:0.5;}
	.st23{opacity:0.62;fill:url(#SVGID_14_);fill-opacity:0.5;}
	.st24{opacity:0.62;fill:url(#SVGID_15_);fill-opacity:0.5;}
	.st25{opacity:0.62;fill:url(#SVGID_16_);fill-opacity:0.5;}
	.st26{opacity:0.62;fill:url(#SVGID_17_);fill-opacity:0.5;}
	.st27{opacity:0.62;fill:url(#SVGID_18_);fill-opacity:0.5;}
	.st28{fill:url(#SVGID_19_);stroke:#F2566A;stroke-miterlimit:10;stroke-dasharray:203,31,0,0,0;}
	.st29{fill:none;stroke:#F2566A;stroke-miterlimit:10;stroke-dasharray:110,0,0,0,0;}
	.st30{fill:none;stroke:#CBD6E8;stroke-miterlimit:10;}
	.st31{fill:url(#SVGID_20_);}
	.st32{fill:url(#SVGID_21_);}
	.st33{fill:url(#SVGID_22_);}
	.st34{fill:url(#SVGID_23_);}
	.st35{fill:url(#SVGID_24_);}
	.st36{fill:url(#SVGID_25_);}
	.st37{fill:none;stroke:#FFFFFF;stroke-miterlimit:10;}
	.st38{fill:url(#SVGID_27_);}
	.st39{fill:none;stroke:#FFFFFF;stroke-linecap:round;stroke-miterlimit:10;}
	.st40{fill:url(#SVGID_28_);}
	.st41{fill:url(#SVGID_29_);}
	.st42{opacity:0.36;fill:url(#SVGID_30_);enable-background:new    ;}
	.st43{opacity:0.36;fill:url(#SVGID_31_);enable-background:new    ;}
	.st44{fill:url(#SVGID_32_);fill-opacity:0.15;stroke:#549BF4;stroke-width:2;stroke-opacity:8.222246e-02;}
	.st45{fill:url(#SVGID_34_);fill-opacity:0.15;stroke:#549BF4;stroke-width:2;stroke-opacity:8.222246e-02;}
	.st46{fill:url(#SVGID_35_);fill-opacity:0.15;stroke:#549BF4;stroke-width:2;stroke-opacity:8.222246e-02;}
	.st47{fill:url(#SVGID_36_);fill-opacity:0.15;stroke:#549BF4;stroke-width:2;stroke-opacity:8.222246e-02;}
	.st48{fill:url(#SVGID_37_);fill-opacity:0.5;stroke:#FFFFFF;stroke-linejoin:round;}
	.st49{fill:url(#SVGID_38_);fill-opacity:0.15;stroke:#549BF4;stroke-width:2;stroke-opacity:8.222246e-02;}
	.st50{opacity:0.54;fill:#FFFFFF;enable-background:new    ;}
	.st51{fill:#363C61;}
	.st52{fill:none;stroke:url(#SVGID_39_);stroke-width:9;stroke-miterlimit:10;}
	.st53{fill:none;stroke:url(#SVGID_40_);stroke-width:9;stroke-miterlimit:10;}
	.st54{fill:none;stroke:#FFFFFF;stroke-width:3;stroke-miterlimit:10;}
	.st55{opacity:0.62;fill:url(#SVGID_41_);fill-opacity:0.5;}
	.st56{opacity:0.62;fill:url(#SVGID_42_);fill-opacity:0.5;}
	.st57{opacity:0.62;fill:url(#SVGID_43_);fill-opacity:0.5;}
	.st58{opacity:0.6;fill:url(#SVGID_44_);fill-opacity:0.5;}
	.st59{fill:url(#SVGID_45_);fill-opacity:0.15;stroke:#549BF4;stroke-width:2;stroke-opacity:8.222246e-02;}
	.st60{fill:url(#SVGID_46_);fill-opacity:0.15;stroke:#549BF4;stroke-width:2;stroke-opacity:8.222246e-02;}
	.st61{fill:url(#SVGID_47_);fill-opacity:0.15;stroke:#549BF4;stroke-width:2;stroke-opacity:8.222246e-02;}
	.st62{fill:url(#SVGID_48_);fill-opacity:0.15;stroke:#549BF4;stroke-width:2;stroke-opacity:8.222246e-02;}
	.st63{opacity:0.62;fill:url(#SVGID_49_);fill-opacity:0.5;}
	.st64{opacity:0.62;fill:url(#SVGID_50_);fill-opacity:0.5;}
	.st65{opacity:5.000000e-02;fill:none;stroke:#FFFFFF;stroke-width:2;stroke-miterlimit:10;}
	.st66{opacity:0.15;fill:url(#SVGID_51_);fill-opacity:0.5;}
	.st67{opacity:0.5;}
	.st68{fill:none;stroke:#FFFFFF;stroke-width:2;stroke-dasharray:11.8503,11.8503;}
	.st69{fill:url(#SVGID_52_);fill-opacity:0.5;stroke:#FFFFFF;stroke-linejoin:round;}
	.st70{fill:url(#SVGID_53_);fill-opacity:0.15;stroke:#549BF4;stroke-width:2;stroke-opacity:8.222246e-02;}
	.st71{fill:#CAD6E8;}
	.st72{fill:url(#SVGID_54_);}
	.st73{fill:url(#SVGID_55_);}
	.st74{opacity:0.89;fill:#F2566A;enable-background:new    ;}
	.st75{fill:#EBF1FC;}
	.st76{fill:#CEDEF2;}
	.st77{fill:url(#SVGID_56_);}
	.st78{fill:url(#SVGID-2_1_);}
	.st79{fill:url(#SVGID-3_1_);}
	.st80{fill:url(#SVGID_57_);}
	.st81{clip-path:url(#SVGID_58_);}
	.st82{fill:url(#SVGID_59_);}
	.st83{fill:#CBD6E8;}
	.st84{stroke:#000000;stroke-miterlimit:10;}
	.st85{fill:url(#SVGID_60_);}
	.st86{fill:url(#SVGID-4_1_);}
	.st87{fill:url(#SVGID_61_);}
	.st88{opacity:0.36;fill:url(#SVGID_62_);enable-background:new    ;}
	.st89{opacity:0.4;fill:#3574EC;enable-background:new    ;}
	.st90{fill:url(#SVGID-5_1_);}
	.st91{fill:url(#SVGID-6_1_);}
	.st92{fill:url(#SVGID_63_);}
	.st93{clip-path:url(#SVGID_64_);}
	.st94{fill:url(#SVGID_65_);}
	.st95{fill:url(#SVGID-7_1_);}
	.st96{opacity:0.4;fill:#FFFFFF;enable-background:new    ;}
	.st97{opacity:0.9;fill:#FFFFFF;enable-background:new    ;}
	.st98{opacity:0.9;}
	.st99{fill:url(#SVGID_66_);}
	.st100{opacity:0.36;fill:url(#SVGID_67_);enable-background:new    ;}
	.st101{fill:url(#SVGID_68_);}
	.st102{fill:url(#SVGID_69_);}
	.st103{fill:url(#SVGID_70_);fill-opacity:0.3;}
	.st104{opacity:8.000000e-02;fill:#549BF4;enable-background:new    ;}
	.st105{fill:url(#SVGID_71_);fill-opacity:0.15;}
	.st106{opacity:0.8;}
	.st107{fill:#9090D0;}
	.st108{fill:none;stroke:#000000;stroke-width:3;stroke-linecap:round;stroke-linejoin:round;stroke-miterlimit:10;}
	.st109{fill:#CFCED4;}
	.st110{fill:#FEAD91;}
	.st111{fill:#FFFFFF;stroke:#000000;stroke-width:3;stroke-linecap:round;stroke-linejoin:round;stroke-miterlimit:10;}
	.st112{fill:#FEAD91;stroke:#000000;stroke-width:3;stroke-miterlimit:10;}
	.st113{fill:#FFE2AA;}
	.st114{fill:#FFE2AA;stroke:#000000;stroke-width:3;stroke-linecap:round;stroke-linejoin:round;stroke-miterlimit:10;}
	.st115{fill:none;stroke:#000000;stroke-width:4;stroke-linecap:round;stroke-linejoin:round;stroke-miterlimit:10;}
	.st116{fill:#FFFFFF;stroke:#000000;stroke-width:5;stroke-linecap:round;stroke-linejoin:round;stroke-miterlimit:10;}
	.st117{fill:none;stroke:#000000;stroke-width:3;stroke-miterlimit:10;}
	.st118{fill:#FFFFFF;stroke:#000000;stroke-width:2;stroke-miterlimit:10;}
	.st119{fill:#FFC9E6;}
	.st120{fill:#FCA1BB;}
	.st121{fill:#151614;}
	.st122{fill:#FFFFFF;stroke:#1B0042;stroke-width:2;stroke-linecap:round;stroke-linejoin:round;stroke-miterlimit:10;}
	.st123{fill:none;stroke:#1B0042;stroke-width:2;stroke-linecap:round;stroke-linejoin:round;stroke-miterlimit:10;}
	.st124{fill:#1B0042;}
	
		.st125{opacity:0.15;clip-path:url(#XMLID_13_);fill:none;stroke:#FFFFFF;stroke-width:2;stroke-linecap:round;stroke-linejoin:round;stroke-miterlimit:10;}
	.st126{fill:none;stroke:#000000;stroke-linecap:round;stroke-linejoin:round;stroke-miterlimit:10;}
	.st127{fill:none;stroke:#FFFFFF;stroke-linecap:round;stroke-linejoin:round;stroke-miterlimit:10;}
	
		.st128{opacity:0.15;clip-path:url(#XMLID_15_);fill:none;stroke:#FFFFFF;stroke-width:2;stroke-linecap:round;stroke-linejoin:round;stroke-miterlimit:10;}
	
		.st129{opacity:0.15;clip-path:url(#XMLID_16_);fill:none;stroke:#FFFFFF;stroke-width:2;stroke-linecap:round;stroke-linejoin:round;stroke-miterlimit:10;}
	.st130{fill:none;stroke:#FFFFFF;stroke-width:2;stroke-linecap:round;stroke-linejoin:round;stroke-miterlimit:10;}
	
		.st131{opacity:0.15;clip-path:url(#XMLID_17_);fill:none;stroke:#FFFFFF;stroke-width:2;stroke-linecap:round;stroke-linejoin:round;stroke-miterlimit:10;}
	.st132{opacity:0.15;clip-path:url(#XMLID_18_);fill:none;stroke:#FFFFFF;stroke-width:2;stroke-miterlimit:10;}
	
		.st133{opacity:0.15;clip-path:url(#XMLID_19_);fill:none;stroke:#FFFFFF;stroke-width:2;stroke-linecap:round;stroke-linejoin:round;stroke-miterlimit:10;}
	.st134{fill:#FFFFFF;stroke:#2C234A;stroke-width:2;stroke-linecap:round;stroke-linejoin:round;stroke-miterlimit:10;}
	.st135{fill:#8AAFF6;}
	.st136{fill:none;stroke:#2C234A;stroke-width:2;stroke-linecap:round;stroke-linejoin:round;stroke-miterlimit:10;}
	.st137{opacity:0.2;}
	.st138{fill:#2C234A;}
	.st139{fill:none;stroke:#4417D7;stroke-width:2;stroke-linecap:round;stroke-linejoin:round;stroke-miterlimit:10;}
	.st140{fill:none;stroke:#EFCC4A;stroke-width:2;stroke-linecap:round;stroke-linejoin:round;stroke-miterlimit:10;}
	.st141{fill:#E3DFFF;}
	.st142{fill:none;stroke:#9D8AF6;stroke-width:2;stroke-linecap:round;stroke-linejoin:round;stroke-miterlimit:10;}
	.st143{clip-path:url(#SVGID_72_);}
	.st144{fill:none;stroke:#E3DFFF;stroke-width:4;stroke-linecap:round;stroke-linejoin:round;stroke-miterlimit:10;}
	.st145{fill:none;stroke:#D6D4D4;stroke-width:10;stroke-linecap:round;stroke-linejoin:round;stroke-miterlimit:10;}
	.st146{fill:none;stroke:#FF4B42;stroke-width:10;stroke-linecap:round;stroke-linejoin:round;stroke-miterlimit:10;}
	.st147{fill:#D7B9D8;}
	.st148{fill:#D6D4D4;}
	.st149{fill:#FFB69D;}
	.st150{fill:#D6D4D4;stroke:#FFFFFF;stroke-width:2;stroke-miterlimit:10;}
	.st151{clip-path:url(#XMLID_20_);}
	.st152{clip-path:url(#XMLID_21_);}
	.st153{fill:none;stroke:#FFFFFF;stroke-width:5;stroke-linecap:round;stroke-linejoin:round;stroke-miterlimit:10;}
	.st154{fill:#FF4B42;}
	.st155{clip-path:url(#XMLID_24_);}
	.st156{clip-path:url(#SVGID_74_);}
	.st157{clip-path:url(#XMLID_25_);}
	.st158{fill:#FEC0D9;}
	
		.st159{fill:none;stroke:#D6D4D4;stroke-width:3;stroke-linecap:round;stroke-linejoin:round;stroke-miterlimit:10;stroke-dasharray:20,20;}
	.st160{fill:#6BA5BD;}
	.st161{clip-path:url(#XMLID_28_);}
	.st162{clip-path:url(#SVGID_76_);}
	.st163{clip-path:url(#XMLID_29_);}
	.st164{clip-path:url(#XMLID_33_);}
	.st165{fill:none;stroke:#FFFFFF;stroke-width:4;stroke-linecap:round;stroke-linejoin:round;stroke-miterlimit:10;}
	.st166{fill:none;stroke:#FFFF00;stroke-width:2;stroke-linecap:round;stroke-linejoin:round;stroke-miterlimit:10;}
	.st167{fill:#FEC0D9;stroke:#000000;stroke-width:3;stroke-linecap:round;stroke-linejoin:round;stroke-miterlimit:10;}
	.st168{fill:#FFCDB2;stroke:#000000;stroke-width:2;stroke-linecap:round;stroke-linejoin:round;stroke-miterlimit:10;}
	.st169{stroke:#FFFFFF;stroke-width:2;stroke-miterlimit:10;}
	.st170{fill:#996533;stroke:#000000;stroke-width:2;stroke-linecap:round;stroke-linejoin:round;stroke-miterlimit:10;}
	.st171{stroke:#000000;stroke-width:2;stroke-linecap:round;stroke-linejoin:round;stroke-miterlimit:10;}
	.st172{fill:#996533;stroke:#000000;stroke-width:2;stroke-miterlimit:10;}
	.st173{fill:#FF6600;stroke:#000000;stroke-width:2;stroke-linecap:round;stroke-linejoin:round;stroke-miterlimit:10;}
	.st174{fill:#FFCDB2;}
	.st175{fill:none;stroke:#000000;stroke-width:2;stroke-miterlimit:10;}
	.st176{fill:none;stroke:#000000;stroke-width:5;stroke-linecap:round;stroke-linejoin:round;stroke-miterlimit:10;}
	.st177{fill:#9B4CB5;stroke:#000000;stroke-width:2;stroke-linecap:round;stroke-linejoin:round;stroke-miterlimit:10;}
	.st178{fill:#C8C8FF;stroke:#000000;stroke-width:2;stroke-linecap:round;stroke-linejoin:round;stroke-miterlimit:10;}
	.st179{fill:#DDDCDD;}
	.st180{fill:#FA6058;stroke:#000000;stroke-width:2;stroke-miterlimit:10;}
	.st181{fill:#FBBC2D;stroke:#000000;stroke-width:2;stroke-miterlimit:10;}
	.st182{fill:#30CA41;stroke:#000000;stroke-width:2;stroke-miterlimit:10;}
	.st183{stroke:#FFFFFF;stroke-width:2;stroke-linecap:round;stroke-linejoin:round;stroke-miterlimit:10;}
	.st184{fill:none;stroke:#C8C8FF;stroke-width:5;stroke-linecap:round;stroke-linejoin:round;stroke-miterlimit:10;}
	.st185{stroke:#000000;stroke-width:2;stroke-miterlimit:10;}
	.st186{fill:#FF2D55;}
	.st187{fill:#D4D7FF;}
	.st188{fill:#FFCBC2;}
	.st189{clip-path:url(#SVGID_77_);}
	.st190{fill:#352F84;}
	.st191{clip-path:url(#SVGID_78_);}
	.st192{clip-path:url(#SVGID_79_);}
	.st193{clip-path:url(#XMLID_37_);}
	.st194{opacity:0.4;clip-path:url(#XMLID_41_);}
	.st195{clip-path:url(#XMLID_44_);}
	.st196{fill:#FF3167;}
	.st197{fill:#91A3B4;}
	.st198{fill:#E05555;}
	.st199{fill:none;stroke:#EFA9A9;stroke-width:2;stroke-miterlimit:10;}
	.st200{clip-path:url(#XMLID_46_);}
	.st201{fill:#F2F2F2;}
	.st202{fill:#6F8393;}
	.st203{fill:#333333;}
	.st204{fill:#B5C7C3;}
	.st205{clip-path:url(#XMLID_47_);}
	.st206{clip-path:url(#SVGID_81_);}
	.st207{clip-path:url(#XMLID_50_);}
	.st208{fill:#5595E0;}
	.st209{fill:#FCFCFC;}
	.st210{fill:none;stroke:#CACBDB;stroke-width:10;stroke-linecap:round;stroke-linejoin:round;stroke-miterlimit:10;}
	
		.st211{fill:none;stroke:#CACBDB;stroke-width:10;stroke-linecap:round;stroke-linejoin:round;stroke-miterlimit:10;stroke-dasharray:30,30;}
	.st212{fill:none;stroke:#CACBDB;stroke-width:21;stroke-linecap:round;stroke-linejoin:round;stroke-miterlimit:10;}
	.st213{fill:#E45858;}
	.st214{fill:#CFD4FF;}
	.st215{fill:#2A2C67;}
	.st216{clip-path:url(#XMLID_51_);}
	.st217{fill:#585DE4;}
	.st218{fill:none;stroke:#324A81;stroke-width:5;stroke-linecap:round;stroke-linejoin:round;stroke-miterlimit:10;}
	.st219{fill:#CFD4FF;stroke:#2A2C67;stroke-width:5;stroke-linecap:round;stroke-linejoin:round;stroke-miterlimit:10;}
	.st220{clip-path:url(#XMLID_52_);}
	.st221{clip-path:url(#XMLID_53_);}
	.st222{fill:none;stroke:#FEFEFF;stroke-width:5;stroke-linecap:round;stroke-linejoin:round;stroke-miterlimit:10;}
	.st223{fill:#CFD4FF;stroke:#2A2C67;stroke-width:5;stroke-miterlimit:10;}
	.st224{fill:none;stroke:#2A2C67;stroke-width:5;stroke-linecap:round;stroke-linejoin:round;stroke-miterlimit:10;}
	.st225{fill:none;stroke:#585DE4;stroke-width:5;stroke-miterlimit:10;}
	.st226{fill:none;stroke:#585DE4;stroke-width:5;stroke-linecap:round;stroke-linejoin:round;stroke-miterlimit:10;}
	.st227{fill:#E8E8F7;}
	
		.st228{opacity:0.4;fill:none;stroke:#303044;stroke-width:2.5095;stroke-linecap:round;stroke-linejoin:round;stroke-miterlimit:10;}
	.st229{fill:#FEC5C4;}
	.st230{fill:#EF8D8B;}
	.st231{fill:#FEC5C4;stroke:#EF8D8B;stroke-width:2.5095;stroke-linecap:round;stroke-linejoin:round;stroke-miterlimit:10;}
	.st232{fill:#F048BA;}
	.st233{fill:#FFFFFF;stroke:#E8E8F7;stroke-width:2;stroke-linecap:round;stroke-linejoin:round;stroke-miterlimit:10;}
	.st234{fill:none;stroke:#E8E8F7;stroke-width:2;stroke-linecap:round;stroke-linejoin:round;stroke-miterlimit:10;}
	.st235{fill:#303044;}
	.st236{fill:none;}
	.st237{fill:none;stroke:#EF8D8B;stroke-width:2.5095;stroke-linecap:round;stroke-linejoin:round;stroke-miterlimit:10;}
	.st238{fill:none;stroke:#E8E8F7;stroke-width:7;stroke-linecap:round;stroke-linejoin:round;stroke-miterlimit:10;}
	.st239{fill:#FFFFFF;stroke:#E8E8F7;stroke-width:7;stroke-linecap:round;stroke-linejoin:round;stroke-miterlimit:10;}
	.st240{fill:#FFFFFF;stroke:#E8E8F7;stroke-width:5.62;stroke-miterlimit:10;}
	.st241{fill:#E8E8F7;stroke:#E8E8F7;stroke-width:5.62;stroke-miterlimit:10;}
	.st242{fill:#FEC5C4;stroke:#EF8D8B;stroke-width:2;stroke-linecap:round;stroke-linejoin:round;stroke-miterlimit:10;}
	.st243{fill:none;stroke:#EF8D8B;stroke-width:2;stroke-linecap:round;stroke-linejoin:round;stroke-miterlimit:10;}
	.st244{fill:#E8E8F7;stroke:#FFFFFF;stroke-width:5.62;stroke-miterlimit:10;}
	.st245{opacity:0.4;fill:none;stroke:#000000;stroke-width:2;stroke-linecap:round;stroke-linejoin:round;stroke-miterlimit:10;}
	.st246{fill:none;stroke:#E8E8F7;stroke-width:5.1321;stroke-miterlimit:10;}
	.st247{fill:none;stroke:#EF8D8B;stroke-width:2;stroke-linecap:round;stroke-miterlimit:10;}
	.st248{fill:#FFFFFF;stroke:#E8E8F7;stroke-width:5;stroke-miterlimit:10;}
	.st249{fill:#E8E8F7;stroke:#E8E8F7;stroke-width:5;stroke-miterlimit:10;}
	.st250{fill:#FFFFFF;stroke:#E8E8F7;stroke-width:5;stroke-miterlimit:10;stroke-dasharray:20,20;}
	.st251{fill:#F2F2F6;}
	.st252{opacity:0.4;fill:#FFFFFF;stroke:#000000;stroke-width:2.1161;stroke-linecap:round;stroke-miterlimit:10;}
	
		.st253{opacity:0.4;fill:none;stroke:#000000;stroke-width:2.1161;stroke-linecap:round;stroke-linejoin:round;stroke-miterlimit:10;stroke-dasharray:140.7185,204.2005;}
	.st254{opacity:0.4;fill:none;stroke:#000000;stroke-width:2.1161;stroke-linecap:round;stroke-miterlimit:10;}
	.st255{fill:#282828;}
	.st256{fill:#FEC5C4;stroke:#EF8D8B;stroke-width:1.058;stroke-linecap:round;stroke-miterlimit:10;}
	.st257{fill:none;stroke:#FFFFFF;stroke-width:8;stroke-linecap:round;stroke-linejoin:round;stroke-miterlimit:10;}
	
		.st258{fill:none;stroke:#E8E8F7;stroke-width:5;stroke-linecap:round;stroke-linejoin:round;stroke-miterlimit:10;stroke-dasharray:20,20;}
	.st259{fill:none;stroke:#E8E8F7;stroke-width:4.7431;stroke-linecap:round;stroke-linejoin:round;stroke-miterlimit:10;}
	
		.st260{opacity:0.4;fill:none;stroke:#000000;stroke-width:1.7088;stroke-linecap:round;stroke-linejoin:round;stroke-miterlimit:10;}
	.st261{fill-rule:evenodd;clip-rule:evenodd;fill:#F7931A;}
	.st262{fill:none;stroke:#EF8D8B;stroke-width:1.9557;stroke-linecap:round;stroke-linejoin:round;stroke-miterlimit:10;}
</style>
<g>
	<defs>
		<path id="SVGID_3_" d="M1001.1-513.9H436.6c-10.9,0-19.7-8.8-19.7-19.7v-348.7c0-10.9,8.8-19.7,19.7-19.7h564.5
			c10.9,0,19.7,8.8,19.7,19.7v348.7C1020.9-522.8,1012-513.9,1001.1-513.9z"/>
	</defs>
	<clipPath id="SVGID_1_">
		<use xlink:href="#SVGID_3_"  style="overflow:visible;"/>
	</clipPath>
	<g style="clip-path:url(#SVGID_1_);">
		<g>
			<path class="st135" d="M752.9-69.4l0.1,39.5c1,5.2,4.8,9.3,9.9,10.8l94.6,34.6c6.5,1.9,11.3,7.3,12.4,13.9v0
				c1.8,10.8-6.7,20.6-17.6,20.3l-150.2-3.6c-8.3-0.2-15.3-6.2-16.8-14.4l-3.7-100.3L752.9-69.4z"/>
			<g class="st137">
				<path d="M697.5-69.4l-3,80.6c1.8,12.8,11.5,23.1,24.2,25.6l56.7,11.1h-70.7c-10.7,0-17.7-7.8-19.4-18.4l-3.6-98L697.5-69.4z"/>
			</g>
		</g>
		<g>
			<path class="st135" d="M647.6-68.3l0.1,39.5c1,5.2,4.8,9.3,9.9,10.8l94.6,34.6c6.5,1.9,11.3,7.3,12.4,13.9v0
				C766.4,41.3,758,51,747,50.8l-150.2-3.6c-8.3-0.2-15.3-6.2-16.8-14.4l-3.7-100.3L647.6-68.3z"/>
			<g class="st137">
				<path d="M592.3-68.3l-3,80.6c1.8,12.8,11.5,23.1,24.2,25.6L670.1,49h-70.7c-10.7,0-17.7-7.8-19.4-18.4l-3.6-98L592.3-68.3z"/>
			</g>
		</g>
		<path class="st139" d="M684-8.1l73.5,24.6c0,0,18,6.1,8.5,24.8c0,0-4.3,8.3-15.6,8.3"/>
	</g>
</g>
<g>
	<g>
		<g>
			<path class="st3" d="M1295.8,427.6c0,0-52.3-1.4-51.5,0.8c0.7,2.1-4.6,23.1,11.8,43.2c6.3,7.8,13.1,10.6,19.4,12
				c13,2.9,11.6-3.6,17.8-3.1c10.2,0.8,10.3-6.6,10.3-6.6s12.7,3.8,12.2-11.8l0,0c-3-11.8-8.9-22.6-17.2-31.5L1295.8,427.6z"/>
			<g>
				<g>
					<path d="M1293.3,429.5c2.1,4,5.2,7.6,7.9,11.2c1,1.3,8.1,9.7,4.8,10.7c-4.9,1.6-2.8,9.3,2.1,7.7c6.2-2,8-8.4,5.4-14
						c-1.5-3.3-4.2-6.1-6.4-9c-2.8-3.6-5.4-7.6-8.7-10.6C1295.7,422.9,1291.6,426.1,1293.3,429.5L1293.3,429.5z"/>
				</g>
			</g>
			<g>
				<g>
					<path d="M1294.2,449.1c2.3,7.4,8.9,14,16.3,16.2c4.5,1.3,6.4-5.7,1.9-7c-6-1.7-9.4-6.7-12.9-11.4
						C1297.8,444.3,1293.2,445.6,1294.2,449.1L1294.2,449.1z"/>
				</g>
			</g>
			<g>
				<g>
					<path d="M1286.4,465.3c4.1,4.6,9.7,9.1,15.8,10.6c2.4,0.6,4.1-2.9,1.7-4.1c-5.3-2.8-10.2-5.2-14.5-9.5
						C1287.5,460.2,1284.6,463.2,1286.4,465.3L1286.4,465.3z"/>
				</g>
			</g>
			<g>
				<g>
					<path d="M1274.4,469.6c-1,3.5,3.3,7.2,5.9,9c3.1,2.2,7.7,4.4,11.5,3.3c1.9-0.5,1.9-2.8,0.5-3.9c-2.7-2-6.2-2.7-9-4.7
						c-2.4-1.6-4.3-4.8-7.3-5.1C1275.3,468.3,1274.6,468.9,1274.4,469.6L1274.4,469.6z"/>
				</g>
			</g>
		</g>
		<g>
			<g>
				<path d="M864.5,189.8c-6.1,9.1-3,19.7-1.5,29.7c0.9,5.8,1.2,11.6-2,16.8c-2.9,4.8-6.8,8.5-8.3,14c-0.5,1.7,0.6,3.8,2.4,4.2
					c3.7,0.8,7.1-0.4,10.8,0.1c5,0.6,7.1,8.2,9.2,12.2c2.4,4.7,4.8,9.4,7.3,14.1c1.6,3.1,3.4,6.2,6.5,8.1c6.2,3.8,14.3,1,19.9-2.6
					c7.7-5.1,14.6-11.5,21.7-17.3c2-1.6-0.7-5.2-2.8-3.6c-7.2,5.3-14.2,11.4-21.8,16.1c-3.3,2-7.1,3.7-11,2.6
					c-4.1-1.2-5.7-4.9-7.6-8.4c-2.2-4.1-4.3-8.2-6.5-12.3c-2-3.7-3.6-8-6.1-11.4c-4.8-6.4-11.3-2.7-17.8-4.1
					c0.8,1.4,1.6,2.8,2.4,4.2c1.5-5.5,6.2-9.2,8.8-14.1c2.2-4.3,2.8-9.2,2.6-14c-0.6-9.8-6-21.7-0.4-30.8
					C872.5,189.5,866.8,186.2,864.5,189.8L864.5,189.8z"/>
			</g>
		</g>
		<g>
			<g>
				<path d="M922.5,200.5c0.8,1.5,1.7,3.1,3.2,4.1c1.7,1.1,2.1,0.7,3.4,2.8c1.6,2.6,6.1,1.6,5.9-1.6c-0.6,0.2-0.6,0.3,0.1,0.3
					c0.6,0.1,1.2,0.3,1.7,0.5c1.3,0.4,2.6,0.7,3.9,1c3.2,0.6,5.6,0.7,7.5,3.9c3.8,6.4-1,13.5-8.1,13.6c-2.5,0-4.5,2.9-3,5.2
					c12.1,17.9,24.4,35.4,38.2,52.1c3.3,4,9-1.7,5.7-5.7c-13.4-15.9-26.5-32.5-37.9-49.9c-1,1.7-2,3.4-3,5.2
					c12.7-0.3,21-14.2,12.5-24.7c-4-5-9.3-5.8-15.2-7.2c-4.8-1.2-8.9,0-8.7,5.7c2-0.5,4-1.1,5.9-1.6c-0.9-1.5-1.9-3-3.4-4
					c-1.7-1.1-2.3-0.7-3.6-2.6C925.4,194.5,920.7,197.1,922.5,200.5L922.5,200.5z"/>
			</g>
		</g>
		<path class="st186" d="M942.7,428.5l-50.3,45.9c-18,16.4-42.1,24.6-66.3,22.5l-147.4-12.6l-9.1-42.4l158-16.6
			c39.5-61.7,73.7-90.9,100.4-103.9c-3.5,6.1-4.7,13.4-3.2,20.4L942.7,428.5z"/>
		<path class="st186" d="M941.3,335.5c0.2,5.9,23.3,75.1,190.6,32l127,95.5l22.2-37.3l-99.3-109.6c-16.4-18.1-39.5-28.5-63.9-28.7
			l-117.2-1.1C1000.7,286.2,939.7,289.6,941.3,335.5z"/>
		<path d="M921.3,189.9L921.3,189.9c0.1-1.2-0.9-2.2-2.2-2.1l-51.4,4.2c-10.4,0.9-20.3-4.4-25.4-13.4l-2.6-4.3
			C833.7,164,841.1,151,853,151h71.7c15.7,0,29.4,10.6,33.3,25.8l11.4,44.5c3,11.7-3,23.9-14.1,28.6l0,0L939.8,230
			c0,0,17.1-0.3,14-14.3c-3.2-14-23.1-9-23.1,2.7l-4.9-8.7C922.4,203.7,920.8,196.8,921.3,189.9z"/>
		<path class="st186" d="M1122.8,526.9h-127c-16.2,0-30.1-11.3-33.4-27.2l-14.8-71.2l-18-86.6c-1.5-7.1-0.3-14.3,3.2-20.4
			c1.3-2.3,2.9-4.4,4.8-6.3l2.9-2.9c-0.9,2.3-1.6,4.5-2.1,6.7c-5.9,25.5,14.5,42.7,16.3,44c0,0,12.5,11.7,39.9,18.3
			c19.9,4.8,47.6,7,84.1,0L1122.8,526.9z"/>
		<g>
			<path d="M1137.8,603.8c-4.2,10.5-12.4,21-26.7,30.4c-19.9,13.1-50.4,17.8-84.2,19.1c-69.2,2.6-152.5-8.9-189.4,8.4
				c-54.9,25.8-99,156.3-100.6,166.3s-88.2-10-88.2-10S697,684.1,772.6,610s205.4-75.7,205.4-75.7h144.7
				C1122.8,534.4,1151.5,569.4,1137.8,603.8z"/>
		</g>
		<g>
			<path d="M1496.9,819.4c0,0-136.8,39.4-241.1,21.5c-104.3-17.9-181.7-122.1-181.7-122.1l-43.9-60.6c33.8-1.3,64.3-6,84.2-19.1
				c14.2-9.4,22.4-19.8,26.7-30.4c42.9,54.6,82.6,129.5,118.4,149.3c53.1,29.4,184.7-11.5,193.7-16
				C1462.3,737.6,1496.9,819.4,1496.9,819.4z"/>
		</g>
		<g>
			<g>
				<path d="M651.6,440.4c-9.5,0.5-20,1.1-28.1,6.8c-6.5,4.6-11.1,11.9-10.5,20.1c0.3,4,6.6,4.1,6.3,0c-1.1-17,19.8-19.9,32.3-20.9
					C655.4,446.1,655.5,440.2,651.6,440.4L651.6,440.4z"/>
			</g>
		</g>
		<g>
			<g>
				<path d="M603.2,470.7c-3.2,8.3,3.5,18,10.6,21.9c4.2,2.3,9.3,3.4,14.1,3.3c3.6-0.1,9.8-0.2,10.6-4.6c0.3-1.5-0.4-2.9-1.9-3.4
					c-0.2,0-0.3-0.1-0.5-0.1c-0.8-0.3-2,0-2.5,0.7c-0.1,0.1-0.2,0.3-0.3,0.4c-1,1.3-0.8,3.3,1,3.8c-0.3-0.2-0.6-0.4-0.8-0.6
					c0.1-1.1,0.3-2.2,0.4-3.4c-2,2.1-7.9,1.5-10.5,1.2c-3.6-0.5-7.1-1.7-9.9-4c-4.8-4-5.8-9.2-6.6-15
					C606.6,468.6,603.8,469.2,603.2,470.7L603.2,470.7z"/>
			</g>
		</g>
		<g>
			<g>
				<path d="M607.3,500c1.4,2.5,2.4,4,4.8,5.7c2.3,1.5,4.9,2.7,7.5,3.4c3.7,0.8,10.9,1.8,12.9-2.3c0.3-0.6,0.1-1.2-0.4-1.5
					c-3-1.8-7.7-0.4-11.1-1.3c-3.9-1.1-7.8-3.5-10.9-6.2C608.6,496.4,606.2,498.1,607.3,500L607.3,500z"/>
			</g>
		</g>
		<g>
			<g>
				<path d="M619.5,520c9.3,5.6,22.8,2.4,25.6-8.9c0.2-0.7-0.6-1.1-1.1-0.6c-5.6,4.8-14.5,7.6-21.5,4.5
					C619.1,513.4,616.1,518,619.5,520L619.5,520z"/>
			</g>
		</g>
		<g>
			<g>
				<path d="M649.7,461.9c0.8,6.8,6.5,16.4-1.5,21.1c-1.4,0.8-2,2.5-1.6,4c0.1,0.3,0.2,0.6,0.4,0.8c1,1.6,3.2,2.3,4.9,1.3
					c9.7-5.9,9.4-20.2,3.1-28.6C653.4,458.6,649.3,458.8,649.7,461.9L649.7,461.9z"/>
			</g>
		</g>
		<g>
			<path d="M648.7,830.4c-5-1.9-61.2,12.9-88.1,20.2c-9,2.4-15.4,10.2-16.2,19.4c-0.6,7.4-0.5,14.7,2,15.2
				c18.3,3.3,108.9,0.8,157.7-0.4c12.5-0.3,22.8-10.8,22.8-23.4v-22L648.7,830.4z"/>
		</g>
		<g>
			<path d="M1500.1,812.5c0.8,5.3,41,47.3,60.4,67.3c6.5,6.7,16.4,8.5,24.8,4.7c6.8-3.1,13.2-6.7,12.3-9.1
				c-6-17.6-52.1-95.7-76.8-137.7c-6.4-10.8-20.5-14.7-31.5-8.6l-19.2,10.7L1500.1,812.5z"/>
		</g>
	</g>
	<g>
		<g>
			<path d="M875.6,209c0.8,0,0.8-1.3,0-1.3C874.8,207.8,874.7,209,875.6,209L875.6,209z"/>
		</g>
	</g>
	<g>
		<g>
			<path d="M875.4,209c3.6-1.3,6.9-3.1,10.7-3.7c4.2-0.6,8,0.5,12.1,0.8c2.1,0.1,2.6-2.8,1-3.8c-7-4.4-19.9-1.9-25.3,4.2
				C873.1,207.6,873.9,209.6,875.4,209L875.4,209z"/>
		</g>
	</g>
	<g>
		<g>
			<path d="M882.2,219.2c-0.2,3.6,1.1,7.9,3.9,10.3c1.2,1,2.8,1.2,4,0.2c1.1-0.9,1.7-2.7,0.8-3.9c-1.6-2.1-2.8-3.8-2.8-6.6
				C888.2,215.3,882.4,215.4,882.2,219.2L882.2,219.2z"/>
		</g>
	</g>
	<g>
		<g>
			<path d="M896,260.2c2.3,2.5,5.8,1.2,8.7,0.6c4.2-0.9,8.3-1.7,12.5-2.6c4.5-0.9,2.6-7.9-1.9-6.9c-5.1,1.2-10.4,2-15.4,3.6
				C898.2,255.5,893.7,257.7,896,260.2L896,260.2z"/>
		</g>
	</g>
	<path d="M927.5,318.5c-2,0-32,107,96,133l61,14l36-21l-32.2-27.9c0,0-90.8,7.9-138.8-37.1c0,0-18.6-19.2-13.3-61.6L927.5,318.5z"/>
	<g>
		<g>
			<path d="M916.3,280.7c0.2,1.1,0.6,1.7,1.4,2.4c0.7,0.6,1.4,1.3,2,1.9c1.3,1.2,2.5,2.4,3.6,3.7c2.4,2.7,4.4,5.6,6.1,8.8
				c0.8,1.5,1.6,3,2.2,4.6c0.3,0.9,0.7,1.7,1,2.6c0.2,0.7,0.7,1.6,0.7,2.3c0.1,1,0,1.9,0.8,2.7c0.8,1,2.3,1.3,3.5,0.7
				c2.2-1.3,1.4-5.1-1.3-5c-0.8,0-1.7,0.4-2,1.2c0,0,0,0.1,0,0.1c-0.5,1.2-0.2,3.1,1.4,3.4c0,0,0.1,0,0.1,0
				c-0.6-0.6-1.1-1.1-1.7-1.7c0-0.5,0-0.5,0-0.2c0.2-0.6,0.5-1.2,0.7-1.8c0,0-0.1,0.1-0.1,0.1c0.8-0.2,1.6-0.4,2.4-0.6
				c-0.1,0-0.2,0-0.3,0c0.4,0.2,0.7,0.4,1.1,0.6c-0.1-0.1-0.1-0.2-0.2-0.2c0.2,0.4,0.4,0.7,0.6,1.1c-0.1-0.4-0.1-1.4-0.3-2
				c-0.2-0.7-0.4-1.4-0.7-2.1c-0.5-1.5-1.1-3-1.8-4.5c-1.2-2.7-2.7-5.3-4.4-7.8c-1.7-2.5-3.7-4.9-5.8-7.1c-1-1-2.1-2.1-3.2-3
				c-0.7-0.5-1.4-1.1-2.1-1.6c-0.8-0.6-1.4-0.7-2.4-0.6C916.7,278.9,916.1,279.6,916.3,280.7L916.3,280.7z"/>
		</g>
	</g>
	<g>
		<g>
			<path d="M925.3,307.7c-0.4,1.1,0,2.4,0.2,3.4c0.3,1.1,0.5,2.2,0.8,3.2c0.5,1.9,0.8,3.9,1.5,5.8c0.8,2,2.4,3.7,4.7,3.4
				c1.1-0.1,2.1-0.7,3-1.2c1-0.5,1.9-1,2.9-1.5c1.8-1,3.6-1.9,5.5-2.9c1.7-0.9,3.5-2.1,4.1-4.1c1.2-3.8-2.5-6.4-5.8-7.1
				c-4.7-0.9-9.6-1-14.3-0.5c-1.2,0.1-2.1,0.7-2.4,1.9c-0.5,1.6-0.3,3.5,0.7,4.8c0.8,1.1,2.2,1.6,3.4,0.9c1.1-0.6,1.7-2.3,0.9-3.4
				c-0.2-0.3-0.3-0.4-0.3-0.6c0,0.1,0.1-0.1,0.1-0.3c-0.8,0.6-1.6,1.2-2.4,1.9c3.4-0.3,6.7-0.4,10.1-0.1c1.4,0.1,2.8,0.2,4.1,0.6
				c0.1,0,0.2,0.1,0.3,0.1c-0.1,0-0.4-0.2,0.1,0c0.2,0.1,0.4,0.2,0.6,0.3c0.1,0.1,0.3,0.3,0,0c0.1,0.1,0.2,0.1,0.2,0.2
				c0.1,0.3-0.1-0.1-0.1-0.1c0.1,0.5,0-0.1,0-0.2c0-0.4,0,0.1,0,0.1c0.2-0.2,0-0.2,0,0.1c0-0.2,0.2-0.3,0,0
				c-0.4,0.4-0.7,0.6-1.3,0.9c-1.5,0.8-3,1.6-4.4,2.4c-1.5,0.8-3.1,1.7-4.6,2.5c-0.1,0-0.9,0.4-0.9,0.5c0-0.1,0.7,0.2,0.8,0.2
				c0.2,0.1-0.1,0-0.1-0.1c0,0.2,0.1,0.1,0-0.1c0,0-0.2-0.4-0.1-0.1c0.1,0.2-0.1-0.3-0.1-0.4c-0.6-1.8-1-3.6-1.5-5.4
				c-0.3-0.9-0.5-1.9-0.8-2.8c-0.3-1.1-0.6-2.4-1.5-3.1C927.3,305.9,925.8,306.3,925.3,307.7L925.3,307.7z"/>
		</g>
	</g>
	<g>
		<g>
			<path class="st3" d="M863.9,177.6c-7.5-2.4-10.4-8.8-10.9-16c-0.3-3.8-6.1-5.1-7-0.9c-2.3,10.5,6.5,20.7,16.2,23.2
				C866.2,185,867.9,178.9,863.9,177.6L863.9,177.6z"/>
		</g>
	</g>
	<g>
		<g>
			<path class="st3" d="M1055.6,305c5.1,2.6,11.2,2.7,16.8,3c6.5,0.4,12.9,0.5,19.4,0.5c11.7,0.1,23.6,0,35.1,2.1
				c22.7,4.2,38.7,20.8,53.3,37.5c4.3,5,11.6-2.3,7.2-7.2c-15.1-17.3-32.3-34.6-55.5-39.5c-11.7-2.5-23.7-2.6-35.6-2.5
				c-6.7,0.1-13.4,0.2-20.1,0.2c-6.4,0-13.6-1.1-19.8,0.7C1054,300.4,1053.3,303.8,1055.6,305L1055.6,305z"/>
		</g>
	</g>
	<g>
		<g>
			<path class="st3" d="M778.4,643.9c24.9-31.5,59.2-53.3,98.7-61.1c1.9-0.4,3.9-2.3,4.3-4.3c0.4-1.7,0.4-3.2-0.6-4.7
				c-1.6-2.4-4.1-3.3-6.9-2.8c-41.1,8.1-79,32.6-102.9,67.1C767.8,642.5,775,648.2,778.4,643.9L778.4,643.9z"/>
		</g>
	</g>
	<g>
		<g>
			<path class="st3" d="M560.5,873.8c-0.1-9.5,9.8-13,17.4-15.3c8.8-2.8,17.7-5.4,26.5-8.1c3.2-1,1.8-6-1.4-5
				c-11.2,3.5-23.1,6.3-34,10.8c-7.4,3.1-13.9,9-13.3,17.6C556,876.8,560.5,876.9,560.5,873.8L560.5,873.8z"/>
		</g>
	</g>
	<g>
		<g>
			<path class="st3" d="M1482.8,742.4c0.1,0,0.1-0.1,0-0.1C1482.7,742.3,1482.7,742.4,1482.8,742.4L1482.8,742.4z"/>
		</g>
	</g>
	<g>
		<g>
			<path class="st3" d="M1545.6,844c-0.3,7.7,8,16.2,13.5,20.6c3.3,2.6,6.8,5,10.6,6.8c3.2,1.5,7.9,4.6,11.1,2.1
				c0.8-0.6,1.4-1.6,1.1-2.6c-1.2-3.5-4.3-3.5-7.4-4.9c-3.9-1.7-7.6-3.9-10.9-6.6c-3.2-2.5-5.9-5.4-8.6-8.4
				c-2.4-2.7-4.3-6.2-7.3-8.3C1546.9,842.1,1545.7,843,1545.6,844L1545.6,844z"/>
		</g>
	</g>
</g>
</svg>
