<svg id="Layer_1" data-name="Layer 1" xmlns="http://www.w3.org/2000/svg" viewBox="0 0 1920 1080">
  <title>Traced Tshirt</title>
  <g>
    <g>
      <path d="M932.62,287.1c2.85-13.2,5.86-26.41,10.42-39.12,2-5.47,4.26-10.92,8-15.35,4.17-4.91,9.88-8.24,15.46-11.47s11.11-6.42,16.93-9.11c1.3-.6,2.93-1.13,4-.24A2.7,2.7,0,0,1,988,215a7.9,7.9,0,0,1-2.36,2.56c-8,6.38-13.26,10.39-21.55,16.35-2.45,1.77-3.05,5.16-3.13,8.19" fill="none" stroke="#2c234a" stroke-linecap="round" stroke-linejoin="round" stroke-width="2"/>
      <path d="M944,264a16.42,16.42,0,0,1,6.23-9.93c4-2.95,9.24-4.08,12.59-7.72,1.61-1.75,2.69-4,4.62-5.43,1.21-.87,3.12-1.24,4-.07.71.89.45,2.2,0,3.26-1.24,3.18-5.46,10.28-6.93,13.37-2.29,4.82-.9,8-1.51,13.33s-1.51,8.77-5.37,12.45" fill="none" stroke="#2c234a" stroke-linecap="round" stroke-linejoin="round" stroke-width="2"/>
      <path d="M965.52,232.84c2.24-1.25,6.27-3.7,7.77-3.15a5.13,5.13,0,0,1,2.94,3.54,15.12,15.12,0,0,1,.27,4.75,45,45,0,0,1-.92,8,16.19,16.19,0,0,1-3.5,7.19,4.93,4.93,0,0,1-2.63,1.73,2.32,2.32,0,0,1-2.64-1.29" fill="none" stroke="#2c234a" stroke-linecap="round" stroke-linejoin="round" stroke-width="2"/>
      <path d="M974.8,230.24c.54-1.5,4.06-2.46,5.56-1.91a5.08,5.08,0,0,1,2.94,3.54,14.54,14.54,0,0,1,.27,4.75,46,46,0,0,1-.91,8,16.32,16.32,0,0,1-3.51,7.19,4.93,4.93,0,0,1-2.63,1.73,2.34,2.34,0,0,1-2.64-1.29" fill="none" stroke="#2c234a" stroke-linecap="round" stroke-linejoin="round" stroke-width="2"/>
      <path d="M969.31,289.83c2.63-5.58,5.29-11.26,6.1-17.38.44-3.37.31-6.82,1.14-10.12,1.08-4.31,3.75-8.2,4.12-12.63" fill="none" stroke="#2c234a" stroke-linecap="round" stroke-linejoin="round" stroke-width="2"/>
    </g>
    <g>
      <path d="M1165,846.85l10.15,53.42a15.88,15.88,0,0,0,11.23,12.27l107.59,30.86A19.84,19.84,0,0,1,1308,959.2h0a19.83,19.83,0,0,1-20,23.08l-170.8-4a19.84,19.84,0,0,1-19.06-16.37l-20.17-114Z" fill="#8aaff6"/>
      <g opacity="0.2">
        <path d="M1096,846.85l12.6,91.61a34.46,34.46,0,0,0,27.51,29.13l64.43,12.62h-80.4a24.81,24.81,0,0,1-24.51-20.92L1078,847.85Z"/>
      </g>
    </g>
    <path d="M1033,841.51l-25.83,44.68a15.11,15.11,0,0,0,.47,15.79l58.2,88.88a18.82,18.82,0,0,1,.34,20.09h0a18.83,18.83,0,0,1-28.71,4.18L917.15,906.33a18.82,18.82,0,0,1-3.54-23.58l58.08-85.92Z" fill="#8aaff6"/>
    <g opacity="0.2">
      <path d="M1009.69,824.54s-33.64,59.69,1.9,83.87l-5-8.21s-4.91-6.64,3.1-18.45l23.19-39.34Z"/>
    </g>
    <path d="M1090,530.5s74,23.35,76,81.35-132,236-132,236l-67-49,85-174-202-71s-6-90,0-87S1090,530.5,1090,530.5Z" fill="#2c234a"/>
    <path d="M721,473.85s-30,119,154,150c76.29,12.86,118.85,24.14,138.5,32,8.39,3.36,20.69,11.49,23,20.22L1078,852.85l87-2s-20-234-78-281c-44.5-36.05-182-55-221-93Z" fill="#2c234a"/>
    <path d="M1136.76,685C1116,554,979,524.85,979,524.85l-37-11.26" fill="none" stroke="#efcc4a" stroke-linecap="round" stroke-linejoin="round" stroke-width="2"/>
    <line x1="1063.4" y1="804.14" x2="1030.94" y2="667.23" fill="none" stroke="#efcc4a" stroke-linecap="round" stroke-linejoin="round" stroke-width="2"/>
    <path d="M841.76,181c-3.34-15.66-25.54-27.43-41-23.2,0,0-30.14,1.86-30.14,45.35a65.13,65.13,0,0,0,2.6,15.57,61,61,0,0,1-.85,37.26,76.59,76.59,0,0,1-5.54,12.1A20.18,20.18,0,0,0,765,283.77c2.11,7.12,7.3,15.48,20,17.23,16.14,2.23,23.59-5.71,27-13.19a20.9,20.9,0,0,0,.05-16.7,15.76,15.76,0,0,1,.56-14c15.37-.72,27.23-15.45,30.64-30.46a91.9,91.9,0,0,0,1.35-27.75" fill="none" stroke="#2c234a" stroke-linecap="round" stroke-linejoin="round" stroke-width="2"/>
    <path d="M820.66,204.87a8.58,8.58,0,0,0,1.05,6.34c1,1.94,4.48,4.63,5.65,6.49.86,1.37,1.6,3,1.13,4.56s-2.15,2.6-3.79,3c-2.74.72-7.77-.7-10.21-2.15" fill="none" stroke="#2c234a" stroke-linecap="round" stroke-linejoin="round" stroke-width="2"/>
    <path d="M834.64,206.4c-.87-2.38-2.66-3.9-4.44-3.75s-3.46,1.94-4.16,4.45" fill="none" stroke="#2c234a" stroke-linecap="round" stroke-linejoin="round" stroke-width="2"/>
    <path d="M812.64,206.4c-.87-2.38-2.66-3.9-4.44-3.75s-3.46,1.94-4.16,4.45" fill="none" stroke="#2c234a" stroke-linecap="round" stroke-linejoin="round" stroke-width="2"/>
    <path d="M820.38,235.51a14.22,14.22,0,0,1-8.66-.11c-2.73-1.07-5-3.69-5-6.62" fill="none" stroke="#9d8af6" stroke-linecap="round" stroke-linejoin="round" stroke-width="2"/>
    <path d="M813,256.23a26.52,26.52,0,0,1-17.71-9.79c2.51,8.81,7.59,17,15.89,20.86A14.58,14.58,0,0,1,813,256.23Z" fill="#2c234a"/>
    <path d="M788,210.31l.38.06a1.29,1.29,0,0,0,1.51-1.2,20.35,20.35,0,0,1,22.93-19.09c3.38.44,6.65,1.72,10.06,1.72s7.22-1.87,7.83-5.22a20.87,20.87,0,1,0-4.6-36.77,29.8,29.8,0,0,0-24.64-7.51,27.69,27.69,0,0,0-19.75,14.93A21.35,21.35,0,0,0,765,193.64c-6.19,3.49-8.26,12.66-4.17,18.47a11.58,11.58,0,0,0,3.25,3.07c5.08,3.23,11.36-1,11-7a5.44,5.44,0,0,1,0-1.14c.42-3.07,3.68-5.58,6.66-4.78,2.49.67,5.51,4.11,5.18,6.5A1.34,1.34,0,0,0,788,210.31Z" fill="#2c234a"/>
    <path d="M773.71,210S777,224,785,219" fill="none" stroke="#2c234a" stroke-linecap="round" stroke-linejoin="round" stroke-width="2"/>
    <path d="M779,206s5,4,4,9" fill="none" stroke="#2c234a" stroke-linecap="round" stroke-linejoin="round" stroke-width="2"/>
    <g>
      <path d="M744.38,483.45l120.22.71s10.92,35.8,55.52,8.28C954.91,471,972,286,972,286l-40-3L903,398.5l-8.21-90.73A46.56,46.56,0,0,0,861,271.59l-49.51-4s-15.38,20.92-44.55-2.55l-41.84,8.17-1.42.28c-21.75,4.78-38.44,29.8-37.15,52l.13,48.9s-6,119.32,65,128.32,96,18,96,18l13-47L746.16,432.35" fill="#8aaff6"/>
      <line x1="860.34" y1="328.28" x2="864.13" y2="483.9" fill="none" stroke="#4417d7" stroke-linecap="round" stroke-linejoin="round" stroke-width="2"/>
      <polyline points="751.42 336.18 754.52 435.9 860.68 473.74" fill="none" stroke="#4417d7" stroke-linecap="round" stroke-linejoin="round" stroke-width="2"/>
      <path d="M903,398.5l-20.88,37s2.79-34,19-58.28Z" fill="#2c234a"/>
    </g>
    <rect x="999.9" y="91.17" width="312.15" height="231.63" rx="16.71" fill="#e3dfff"/>
    <g>
      <g>
        <line x1="1025.34" y1="240.24" x2="1245.64" y2="240.24" fill="#3a12cf" stroke="#2c234a" stroke-linecap="round" stroke-linejoin="round" stroke-width="5"/>
        <line x1="1025.69" y1="294.18" x2="1246" y2="294.18" fill="#3a12cf" stroke="#2c234a" stroke-linecap="round" stroke-linejoin="round" stroke-width="5"/>
        <line x1="1025.69" y1="257.99" x2="1135.85" y2="257.99" fill="#3a12cf" stroke="#2c234a" stroke-linecap="round" stroke-linejoin="round" stroke-width="5"/>
        <line x1="1025.69" y1="275.91" x2="1206.89" y2="275.91" fill="#3a12cf" stroke="#2c234a" stroke-linecap="round" stroke-linejoin="round" stroke-width="5"/>
      </g>
      <g>
        <path d="M1102.71,197.1a6.3,6.3,0,0,0,3.81,1.82v2.3q-6.88-.34-17.42-.34-11.76,0-17.42.34v-2.3a17.14,17.14,0,0,0,6.19-1.06,3.2,3.2,0,0,0,1.88-3.14,17.59,17.59,0,0,0-1.4-5.43l-6.89-18.82h-25l-3,7.89q-3.14,8.07-3.13,12.77,0,4.26,2.52,5.94t7.62,1.85v2.3q-7.74-.34-14.23-.34-5.26,0-8.74.34v-2.3q5.71-.94,9.86-12l26.16-67.1c1.23.11,2.55.17,4,.17s2.82-.06,4-.17l27.84,71.8A14.51,14.51,0,0,0,1102.71,197.1Zm-43.46-59.9-11.88,31h23.25Z" fill="#2c234a"/>
        <path d="M1137.91,145.32q-2.27-2.74-7.08-2.75a15.16,15.16,0,0,0-4.48.7,9.23,9.23,0,0,0-3.7,2.1,10.3,10.3,0,0,1,5,3.34,8.89,8.89,0,0,1,1.79,5.68,7.9,7.9,0,0,1-1.15,4.23,8,8,0,0,1-3.28,3,10.46,10.46,0,0,1-4.87,1.09,7.49,7.49,0,0,1-5.91-2.52,9.27,9.27,0,0,1-2.21-6.33q0-5.94,6.39-9.63,7-3.87,17.47-3.87,11.76,0,16.75,5.16a12.23,12.23,0,0,1,3.25,6,46.27,46.27,0,0,1,.84,10v31.2a10.19,10.19,0,0,0,.53,4,1.89,1.89,0,0,0,1.87,1.15,7.12,7.12,0,0,0,4.26-2l1.18,2a17.25,17.25,0,0,1-5.72,3.19,23.91,23.91,0,0,1-7.39,1q-5.82,0-8.4-2.58a9.06,9.06,0,0,1-2.58-6.72,18.12,18.12,0,0,1-7.33,7,21.1,21.1,0,0,1-9.69,2.32q-6.56,0-10.51-3.44T1109,189a13.39,13.39,0,0,1,3.92-9.91q3.91-3.93,12.15-6.95l5.83-2.21A23.39,23.39,0,0,0,1138,166a5.7,5.7,0,0,0,2.18-4.31v-8.91A11.38,11.38,0,0,0,1137.91,145.32ZM1137.8,169a50.58,50.58,0,0,1-4.73,3.22,20.87,20.87,0,0,0-5.71,5.69,14.08,14.08,0,0,0-2.08,7.87c0,3,.66,5.22,2,6.69a6.55,6.55,0,0,0,5.16,2.21q4.53,0,7.78-4.7V166.43A9.51,9.51,0,0,1,1137.8,169Z" fill="#2c234a"/>
      </g>
    </g>
    <path d="M844.61,541.94l105,17.66a3.55,3.55,0,0,0,3.64-1.7l15.21-25.61a3.56,3.56,0,0,0-2.34-5.3l-99.84-20.52a3.54,3.54,0,0,0-3.61,1.41l-20.35,28.49A3.55,3.55,0,0,0,844.61,541.94Z" fill="#e3dfff"/>
    <path d="M883.55,455.21l37.59,78A3.15,3.15,0,0,0,924,535h0a3.14,3.14,0,0,0,2.83-4.5l-37.63-78a3.13,3.13,0,0,0-3.82-1.62h0A3.14,3.14,0,0,0,883.55,455.21Z" fill="#2c234a"/>
    <path d="M860.84,473c25.25,4.16,45,11.83,62.54,30.47,1.62,1.5,8,8.15,7.88,10a4.07,4.07,0,0,1-3.59,3.63c-1.64.14-3.18-.74-4.59-1.59l-18-10.82c2.43,2.65,3.65,5.52,3,9s-5,5.71-8.2,7.35c1.19,2.3,1.06,9.31-.15,11.61S895,538,891.62,538c-3.06,0-5,.11-7.67-1.37s-5.51-5.39-5.7-8.44c0,0-19.25,3.84-31.25-8.16" fill="#fff" stroke="#2c234a" stroke-linecap="round" stroke-linejoin="round" stroke-width="2"/>
    <path d="M877.54,496.42C890,495,900,501,906.16,505.46" fill="none" stroke="#2c234a" stroke-linecap="round" stroke-linejoin="round" stroke-width="2"/>
    <path d="M876.54,511.42C889,511,895,515,900.16,521.46" fill="none" stroke="#2c234a" stroke-linecap="round" stroke-linejoin="round" stroke-width="2"/>
    <path d="M879,528s7-1,8,2" fill="#fff" stroke="#2c234a" stroke-linecap="round" stroke-linejoin="round" stroke-width="2"/>
  </g>
  <path d="M934.8,236.11A22.86,22.86,0,0,1,950.31,217" fill="none" stroke="#2c234a" stroke-linecap="round" stroke-linejoin="round" stroke-width="2"/>
  <path d="M917.48,234.81a39.33,39.33,0,0,1,27.13-28.08" fill="none" stroke="#2c234a" stroke-linecap="round" stroke-linejoin="round" stroke-width="2"/>
</svg>
