<svg id="Layer_1" data-name="Layer 1" xmlns="http://www.w3.org/2000/svg" viewBox="0 0 1920 1080">
  <title>Traced Tshirt</title>
  <path d="M1150.48,235.14h0c18.52-.14,31.37,16.41,28.55,31l-39.54,157.4a49.34,49.34,0,0,1-37,38.6C1056.9,472.91,977.1,483.72,976.36,483c-1-1-10.36-37.31-10.36-37.31l97-21.42A49.35,49.35,0,0,0,1097.38,385l22.75-127a19.58,19.58,0,0,1,.33-2.15C1123.61,242,1136.49,232.84,1150.48,235.14Z" fill="#fff"/>
  <path d="M1110.71,313.91l62.76,7.26s23.39-67.65-5-76.92-35.29-2.49-35.29-2.49S1114.52,245.68,1110.71,313.91Z" fill="#8aaff6"/>
  <path d="M1150.58,233.78c4.88-4.23,7.63-10,5.81-16.24-13.32-3.67-20.79-18.91-20.8-32.72s4.57-27.16,10.36-39.7c6-13.05,27.79-19,40.47-12.21,0,0,32.15,9,23.55,47a48.93,48.93,0,0,1-5.16,12.89,55.56,55.56,0,0,0-7.89,25.93c-.28,7.84.8,16.67,5.33,23.85" fill="#fff"/>
  <path d="M1202.52,243.46c-6.33,14.49-22.76,23.85-38.45,21.9l-15.49-29.58c4.88-4.23,9.63-12,7.81-18.24-13.32-3.67-20.79-18.91-20.8-32.72" fill="none" stroke="#2c234a" stroke-linecap="round" stroke-linejoin="round" stroke-width="2"/>
  <path d="M1146,145.12c6-13.05,27.79-19,40.47-12.21,0,0,32.15,9,23.55,47a58.57,58.57,0,0,1-5.36,13.12,54.63,54.63,0,0,0-6.62,32.79,64.56,64.56,0,0,0,4.26,16.76s-3.4,21.2-37.49,23.42" fill="none" stroke="#2c234a" stroke-linecap="round" stroke-linejoin="round" stroke-width="2"/>
  <path d="M1191.67,122.45c1.16,3,21.58,10.4,24.09,31.47,1.59,13.36-4.74,32.74-13,42.67-2.29.18-4-2.47-3.73-4.76s1.73-4.22,3.08-6.08c2.15-3,4.15-6.4,3.9-10.06-.31-4.46-5.45-8.81-9.57-4.9a6.49,6.49,0,0,0-1.28,1.71c-2,3.89-.79,8.42-2.23,12.37l0,.09c-1.43,3.76-7.14,2.35-6.72-1.65.75-7.25,3.67-14.74-3-19.87a14.89,14.89,0,0,0-4.51-2.29,202.62,202.62,0,0,0-36.52-8c-13-1.62-26.9-9.84-25.51-23.9,0,0,1-20.76,22.84-15.82,0,0,12.31-13.78,26.77-.39C1166.2,113,1184.39,103.43,1191.67,122.45Z" fill="#2c234a"/>
  <path d="M1156.59,216.66s6.13,1.39,16.07-1.89c0,0-3.65,12.06-16.5,11.92A16.63,16.63,0,0,0,1156.59,216.66Z" fill="#2c234a"/>
  <path d="M1148.51,166.78a7.66,7.66,0,0,1-2.17,5.34c-1.3,1.49-4.84,3.17-6.23,4.57-1,1-2,2.32-1.89,3.77a4.55,4.55,0,0,0,2.71,3.4c2.26,1.18,6.94.93,9.36.15" fill="none" stroke="#2c234a" stroke-linecap="round" stroke-linejoin="round" stroke-width="2"/>
  <path d="M1162.88,172.06c-1.41,1.79-3.36,2.58-4.84,2s-2.41-2.63-2.3-5" fill="none" stroke="#2c234a" stroke-linecap="round" stroke-linejoin="round" stroke-width="2"/>
  <path d="M1144.92,167.09c-1.4,1.79-3.36,2.58-4.83,2s-2.41-2.63-2.31-5" fill="none" stroke="#2c234a" stroke-linecap="round" stroke-linejoin="round" stroke-width="2"/>
  <path d="M1167.74,189a12.75,12.75,0,0,0-7.78.08,6.74,6.74,0,0,0-4.48,5.93" fill="none" stroke="#9d8af6" stroke-linecap="round" stroke-linejoin="round" stroke-width="2"/>
  <path d="M1412.39,294.87,1401.77,430l5.12.4a27.72,27.72,0,0,1,25.46,29.81h0a27.72,27.72,0,0,1-29.81,25.46l-5.11-.4-1.63,20.67A31.41,31.41,0,0,1,1362,534.79h0A31.42,31.42,0,0,1,1333.16,501l1.63-20.68-108.24-8.51a48.38,48.38,0,0,1-44.59-48.1h0A48.39,48.39,0,0,1,1197.6,388l140.59-129.23a44.35,44.35,0,0,1,33.48-11.56h0A44.33,44.33,0,0,1,1412.39,294.87Zm-73.26,130.19,8-101.94-100.54,94.67Z" fill="#e3dfff"/>
  <g>
    <path d="M1016.5,909l-.11,35a12.4,12.4,0,0,1-8.75,9.56l-83.82,30.68a15.44,15.44,0,0,0-11,12.31h0a15.45,15.45,0,0,0,15.6,18l133.07-3.15a15.44,15.44,0,0,0,14.85-12.75l3.25-88.83Z" fill="#8aaff6"/>
    <g opacity="0.2">
      <path d="M1065.54,909l2.66,71.37a26.84,26.84,0,0,1-21.44,22.69l-50.2,9.84h62.65c9.5,0,15.7-6.91,17.19-16.3l3.21-86.82Z"/>
    </g>
  </g>
  <g>
    <path d="M1239.61,914.37l21,28a12.38,12.38,0,0,1-1.23,12.9l-48.42,75a15.45,15.45,0,0,0-1.35,16.44h0a15.45,15.45,0,0,0,23.29,5L1337.2,969a15.45,15.45,0,0,0,4.16-19.12L1290.45,877Z" fill="#8aaff6"/>
    <g opacity="0.2">
      <path d="M1278.75,884.82l45.11,55.37a26.85,26.85,0,0,1-3.44,31l-34.14,38.09,50-37.73c7.59-5.73,8.38-15,3.91-23.38L1290.45,877Z"/>
    </g>
  </g>
  <path d="M964.88,446.47l-26.64-7.42c-1.86-.52-3.83-1.05-5.68-.23a3.27,3.27,0,0,0-1.84,2c-.49,1.64.59,2.8,1.6,3.81,5.25,5.28,10.5,7.56,15.75,12.84-13.28,4.18-29,1.43-36.49-10.32-2-3.08-3.56-6.68-7.42-7.71a4.23,4.23,0,0,0-5.1,2.38c-.76,2,.51,3.84,1.71,5.42l8.61,11.38-10.52-.81c-1.84-.14-3.78-.26-5.39.85A3.1,3.1,0,0,0,892.1,461c-.08,2.08,2,3.13,3.87,3.75a73.4,73.4,0,0,0,11.23,2.78c0,.68,0-.38,0,.3l-.15,0c-4.45.6-3.88,7.16.61,7.16,10.65,0,21.1,5.32,31.74,7.66a59.17,59.17,0,0,0,35.1-3.11" fill="#fff" stroke="#2c234a" stroke-linecap="round" stroke-linejoin="round" stroke-width="2"/>
  <path d="M909,458a50,50,0,0,0,22,13" fill="none" stroke="#2c234a" stroke-linecap="round" stroke-linejoin="round" stroke-width="2"/>
  <line x1="905.48" y1="467.2" x2="920" y2="470" fill="none" stroke="#2c234a" stroke-linecap="round" stroke-linejoin="round" stroke-width="2"/>
  <path d="M1220,447s37,26,7,131c-19.29,67.51-24.25,114.81-28.25,132.88a19.92,19.92,0,0,0,2.69,15L1295,881l-47,47L1123.38,760.35a57.54,57.54,0,0,1-10.69-43.11c5.93-38.4,16.77-109.7,15.31-108.24s-17,46.87-27.85,72.25a98.82,98.82,0,0,0-7.89,34.86L1080,918s-68-3-65-5c2.19-1.46,1.18-133.71.48-205.24a193.14,193.14,0,0,1,18.93-85.3L1117,450Z" fill="#2c234a"/>
  <path d="M1201,250.29c-8.88,14.16-27.52,21.38-43.63,16.89" fill="#fff"/>
  <line x1="1141" y1="524" x2="1128" y2="609" fill="none" stroke="#efcc4a" stroke-linecap="round" stroke-linejoin="round" stroke-width="2"/>
  <path d="M806.26,267.38C806.26,165.83,873,119,951.86,119s142.81,49.15,142.81,148.38v46.83c0,99.23-65.84,148.84-141.89,148.84S806.26,416.68,806.26,314.67Zm71.87,47.29c0,57,30.6,84.39,72.33,84.39s72.8-27.36,72.8-84.39V267.84c0-55.18-30.14-83-71.4-83s-73.73,26-73.73,83Z" fill="#e3dfff"/>
  <path d="M718.27,366.45l52.12,127.22,4.82-2a28.12,28.12,0,0,1,36.68,15.36h0a28.12,28.12,0,0,1-15.36,36.68l-4.82,2,8,19.47a31.87,31.87,0,0,1-17.41,41.57h0a31.87,31.87,0,0,1-41.57-17.41l-8-19.47L630.82,611.63a49.07,49.07,0,0,1-62.36-23.2h0a49,49,0,0,1-2.17-39.51l68.28-181.27a45,45,0,0,1,25-25.77h0A45,45,0,0,1,718.27,366.45Zm-6.86,151.38-39.32-96-47.8,131.67Z" fill="#e3dfff"/>
  <path d="M1199,234s-29,21-51,0c0,0-20,17-26,49s-5,167-5,167l104-2s-.65-115.53,2-135C1229,269,1229,245,1199,234Z" fill="#8aaff6"/>
  <path d="M1116.21,420.34S1106,264,1149,235" fill="none" stroke="#4417d7" stroke-linecap="round" stroke-linejoin="round" stroke-width="2"/>
  <path d="M1004,445.67l137-36.42,7.12-142.59a33.4,33.4,0,0,1,20.9-29.83,26,26,0,0,1,13.46-1.69h0c18.52-.14,31.37,16.41,28.55,31l-6.54,164.4a49.34,49.34,0,0,1-37,38.6c-45.55,10.81-151.35,11.62-152.09,10.88" fill="#fff"/>
  <path d="M1104,477.18c-43.68,3.11-88.15,3.28-88.63,2.8" fill="none" stroke="#2c234a" stroke-linecap="round" stroke-linejoin="round" stroke-width="2"/>
  <line x1="1004" y1="445.67" x2="1115.15" y2="416.12" fill="none" stroke="#2c234a" stroke-linecap="round" stroke-linejoin="round" stroke-width="2"/>
  <path d="M1005.88,446.47l-26.64-7.42c-1.86-.52-3.83-1.05-5.68-.23a3.27,3.27,0,0,0-1.84,2c-.49,1.64.59,2.8,1.6,3.81,5.25,5.28,10.5,7.56,15.75,12.84-13.28,4.18-29,1.43-36.49-10.32-2-3.08-3.56-6.68-7.42-7.71a4.23,4.23,0,0,0-5.1,2.38c-.76,2,.51,3.84,1.71,5.42l8.61,11.38-10.52-.81c-1.84-.14-3.78-.26-5.39.85A3.1,3.1,0,0,0,933.1,461c-.08,2.08,2,3.13,3.87,3.75a73.4,73.4,0,0,0,11.23,2.78c0,.68,0-.38,0,.3l-.15,0c-4.45.6-3.88,7.16.61,7.16,10.65,0,21.1,5.32,31.74,7.66a59.17,59.17,0,0,0,35.1-3.11" fill="#fff" stroke="#2c234a" stroke-linecap="round" stroke-linejoin="round" stroke-width="2"/>
  <path d="M950,458a50,50,0,0,0,22,13" fill="none" stroke="#2c234a" stroke-linecap="round" stroke-linejoin="round" stroke-width="2"/>
  <line x1="946.48" y1="467.2" x2="961" y2="470" fill="none" stroke="#2c234a" stroke-linecap="round" stroke-linejoin="round" stroke-width="2"/>
  <path d="M1146,313.78h63.18s15.46-69.89-13.83-75.83-36,4.67-36,4.67S1141.9,245.56,1146,313.78Z" fill="#8aaff6"/>
  <path d="M1145.71,313.86c0-14.46,0-30.91,2-45.24,1.4-10.4,4-21.85,12.68-27.73" fill="none" stroke="#4417d7" stroke-linecap="round" stroke-linejoin="round" stroke-width="2"/>
  <path d="M1209,313.76a494.59,494.59,0,0,0,.31-54.59" fill="none" stroke="#4417d7" stroke-linecap="round" stroke-linejoin="round" stroke-width="2"/>
  <path d="M1051.13,426.87S1084,425.94,1096,391l15-77" fill="none" stroke="#2c234a" stroke-linecap="round" stroke-linejoin="round" stroke-width="2"/>
  <path d="M989.57,498.15a24.31,24.31,0,0,0,23.88-4.28" fill="none" stroke="#2c234a" stroke-linecap="round" stroke-linejoin="round" stroke-width="2"/>
  <path d="M994.3,506.81a17.82,17.82,0,0,0,19.46-5.19" fill="none" stroke="#2c234a" stroke-linecap="round" stroke-linejoin="round" stroke-width="2"/>
</svg>
