<svg id="Layer_1" data-name="Layer 1" xmlns="http://www.w3.org/2000/svg" viewBox="0 0 1920 1080">
  <title>Traced Tshirt</title>
  <g>
    <path d="M904.67,868.44l-.1,30.93a11,11,0,0,1-7.73,8.45l-74.11,27.12A13.66,13.66,0,0,0,813,945.83h0a13.66,13.66,0,0,0,13.8,15.9l117.65-2.79a13.66,13.66,0,0,0,13.13-11.28l2.87-78.53Z" fill="#8aaff6"/>
    <g opacity="0.2">
      <path d="M948,868.44l2.34,63.1a23.74,23.74,0,0,1-19,20.06l-44.38,8.7h55.38c8.41,0,13.89-6.11,15.21-14.41l2.83-76.76Z"/>
    </g>
  </g>
  <g>
    <path d="M1078.7,867.9l5.64,30.41a10.93,10.93,0,0,1-6,9.74l-67.79,40.42A13.64,13.64,0,0,0,1003,961h0a13.66,13.66,0,0,0,16.5,13.07l115.1-24.59a13.65,13.65,0,0,0,10.8-13.51l-11.75-77.71Z" fill="#8aaff6"/>
    <g opacity="0.2">
      <path d="M1121.31,859.85l14,61.57a23.75,23.75,0,0,1-14.9,23.24l-42,16.78,54.43-10.28c8.26-1.56,12.51-8.59,12.26-17l-11.46-75.95Z"/>
    </g>
  </g>
  <path d="M1047.64,229.41c-3,15.55-17,28.32-32.73,29.87S983.57,252.64,977.6,238a17.38,17.38,0,0,0,17.17-6.55c3.84-5.22,5.24-11.49,2.1-17.15-13.82-.65-24.48-13.88-27.54-27.36s-1.52-27.53,1.36-41.06c3-14.07,23-24.65,36.83-20.85,0,0,33.38,1.68,33.38,40.75a48.83,48.83,0,0,1-2.2,13.72,55.64,55.64,0,0,0-2,27.06c1.45,7.72,4.45,16.11,10.47,22.12" fill="#fff"/>
  <path d="M1047.64,229.41c-3,15.55-17,28.32-32.73,29.87S983.57,252.64,977.6,238a17.38,17.38,0,0,0,17.17-6.55c3.84-5.22,5.24-11.49,2.1-17.15-13.82-.65-24.48-13.88-27.54-27.36A82.92,82.92,0,0,1,968.12,162" fill="none" stroke="#2c234a" stroke-linecap="round" stroke-linejoin="round" stroke-width="2"/>
  <path d="M970.69,145.85c3-14.07,23-24.65,36.83-20.85,0,0,33.38,1.68,33.38,40.75a58.57,58.57,0,0,1-2.34,14,54.77,54.77,0,0,0,.76,33.48,65.1,65.1,0,0,0,7.87,15.43" fill="none" stroke="#2c234a" stroke-linecap="round" stroke-linejoin="round" stroke-width="2"/>
  <path d="M1040.81,139c-4.15-12.82-17.56-19.76-30.79-22.33a40.61,40.61,0,0,0-8.81-.59,90,90,0,0,0-13.66-10.45,27.13,27.13,0,0,0-9.64-4.18c-3.48-.59-7.33.11-9.87,2.56-2.25,2.18-3.6,7.06-1,9.53l.23.2-.26-.11c-4.67-2.07-10-1.55-15.07.32-9.27,3.4-14.64,13-13.42,22.82,1.74,14,17.12,19,30.18,17.71a202.71,202.71,0,0,1,37.44-.22,14.93,14.93,0,0,1,4.91,1.25c7.68,3.52,6.48,11.48,7.34,18.72.48,4,6.37,4.12,6.94.13a.28.28,0,0,1,0-.09c.53-4.17-1.65-8.34-.55-12.57a6.47,6.47,0,0,1,.86-2c3.16-4.72,9.15-1.61,10.43,2.68,1.06,3.52-.14,7.3-1.59,10.68-.9,2.12-1.93,4.33-1.66,6.62s2.49,4.51,4.69,3.82C1043.41,172.07,1045,151.86,1040.81,139Z" fill="#2c234a"/>
  <path d="M996.87,213.37s6.29,0,15.27-5.39c0,0-.9,12.58-13.48,15.28A16.7,16.7,0,0,0,996.87,213.37Z" fill="#2c234a"/>
  <path d="M988.76,166.44a7.72,7.72,0,0,1-1,5.7c-.93,1.74-4,4.16-5.08,5.83a5.2,5.2,0,0,0-1,4.1,4.58,4.58,0,0,0,3.41,2.73c2.46.65,7-.63,9.17-1.93" fill="none" stroke="#2c234a" stroke-linecap="round" stroke-linejoin="round" stroke-width="2"/>
  <path d="M976.2,167.82c.78-2.14,2.39-3.5,4-3.37s3.11,1.74,3.73,4" fill="none" stroke="#2c234a" stroke-linecap="round" stroke-linejoin="round" stroke-width="2"/>
  <path d="M996,167.82c.78-2.14,2.39-3.5,4-3.37s3.11,1.74,3.73,4" fill="none" stroke="#2c234a" stroke-linecap="round" stroke-linejoin="round" stroke-width="2"/>
  <path d="M989,194a12.83,12.83,0,0,0,7.78-.1,6.78,6.78,0,0,0,4.48-5.95" fill="none" stroke="#9d8af6" stroke-linecap="round" stroke-linejoin="round" stroke-width="2"/>
  <path d="M807.89,257.42c4,7.18,19.4,29.7,26.54,33.79,6.61,3.78,14.58,4.05,22.19,4.23,21.41.48,44.63,1.88,66,2.37,3.35-17,6.32-34.32,5.88-51.64a500.43,500.43,0,0,1-76.46.69c-22.86-28.66-47.76-59.37-70.62-88-7.62-9.57-15.62-19.43-26.61-24.81s-25.89-4.85-33.74,4.52C720,130,705,131,703,139c-8.62-5.76-16.58-5.79-20,4" fill="#fff" stroke="#2c234a" stroke-linecap="round" stroke-linejoin="round" stroke-width="2"/>
  <path d="M1157.13,370.73c6,27-7.18,121.42,1,148,8,26-2,35-1.23,53,.2,4.6,2.36,8.89,3.54,13.34a8,8,0,0,1,.4,3.51,2.77,2.77,0,0,1-2.31,2.37c-1.72.09-3.75-4.86-4.24-6.52a33.94,33.94,0,0,0-1.82-5c-.8,1.8-.47,8.87-.14,10.81.38,2.23.7,4.67-.74,6.57a3.1,3.1,0,0,1-4,1c-1.39-.85-1.45-2.61-1.43-4.14.07-4.45-.07-9,0-13.45l-13.35,12.28c-.93.86-2,1.78-3.4,1.35a2.9,2.9,0,0,1-1.9-2.76c0-2.17,1.46-3.78,2.88-5.26,5.45-5.66,10.85-11.72,13.35-19.16s1.68-16.7-4.34-21.74c-3.56,5.71-4.67,12.31-5.11,19-.17,2.67-.12,5.51-2.11,7.6a3.64,3.64,0,0,1-3.88,1c-2.24-.84-2.45-3.49-2.42-5.69.12-12.49.07-32.76,4.66-46.56a53.45,53.45,0,0,0,2.34-22.33c-3.53-34.59-13.58-85.07-17.13-113.66l-33.14-58.82L1123.67,293Z" fill="#fff" stroke="#2c234a" stroke-linecap="round" stroke-linejoin="round" stroke-width="2"/>
  <path d="M1145.5,580.56c6-5.27,11.11-14.55,12.62-22.36" fill="#fff" stroke="#2c234a" stroke-linecap="round" stroke-linejoin="round" stroke-width="2"/>
  <line x1="1152.81" y1="572.08" x2="1152.13" y2="582.73" fill="#fff" stroke="#2c234a" stroke-linecap="round" stroke-linejoin="round" stroke-width="2"/>
  <path d="M953.13,421.73l-60.47,165a301.27,301.27,0,0,0-9,77.1l20.52,204.86h56l6.12-204c-.75-29.85,6-51.65,14-80.42l16.9-60.61,19,105,63,240,56-1-32-190.59a759.13,759.13,0,0,1-10.56-127.28c.11-49.58,1-105.56-15.43-128.13Z" fill="#2c234a"/>
  <line x1="987.13" y1="446.73" x2="997.75" y2="529.73" fill="none" stroke="#efcc4a" stroke-linecap="round" stroke-linejoin="round" stroke-width="2"/>
  <path d="M979.92,230.74l-64.79,17v52l43,2-5,121h125l-7-114,14,23,44-28s-16.28-52.44-52.17-71.27c-20-10.46-30.43-4.09-36.7.47-7.73,5.63-22.4,12.4-39.93,1.23A26.3,26.3,0,0,0,979.92,230.74Z" fill="#8aaff6"/>
  <path d="M957.8,302.48c1.22-23.71,1.33-51.75,28.52-67.2" fill="none" stroke="#4417d7" stroke-linecap="round" stroke-linejoin="round" stroke-width="2"/>
  <path d="M1059.83,287.33a92.25,92.25,0,0,0,11.51,23.42" fill="none" stroke="#4417d7" stroke-linecap="round" stroke-linejoin="round" stroke-width="2"/>
  <rect x="565" y="145.71" width="243" height="256" rx="12.56" fill="#e3dfff"/>
  <path d="M686.45,137.26c-6.91,9.38-8.11,23.16-1.48,32.74a14.28,14.28,0,0,0,5.86,5.26,7.29,7.29,0,0,0,7.52-.82c2.28-2,2.64-5.31,2.76-8.32a163.26,163.26,0,0,0-.41-19.41" fill="#fff" stroke="#2c234a" stroke-linecap="round" stroke-linejoin="round" stroke-width="2"/>
  <path d="M704.45,136.26c-6.91,9.38-8.11,23.16-1.48,32.74a14.28,14.28,0,0,0,5.86,5.26,7.29,7.29,0,0,0,7.52-.82c2.28-2,2.64-5.31,2.76-8.32a163.26,163.26,0,0,0-.41-19.41" fill="#fff" stroke="#2c234a" stroke-linecap="round" stroke-linejoin="round" stroke-width="2"/>
  <path d="M723.45,136.26c-6.91,9.38-8.11,23.16-1.48,32.74a14.28,14.28,0,0,0,5.86,5.26,7.29,7.29,0,0,0,7.52-.82c2.28-2,2.64-5.31,2.76-8.32a163.26,163.26,0,0,0-.41-19.41" fill="#fff" stroke="#2c234a" stroke-linecap="round" stroke-linejoin="round" stroke-width="2"/>
  <g>
    <path d="M747.75,260.74v72.65a17.89,17.89,0,0,1-17.9,17.9H646.29a17.9,17.9,0,0,1-17.91-17.9V214a17.9,17.9,0,0,1,17.91-17.9h36.84a11.9,11.9,0,0,1,8.43,3.49l52.7,52.7A11.94,11.94,0,0,1,747.75,260.74Z" fill="#fff" stroke="#e3dfff" stroke-miterlimit="10" stroke-width="4"/>
    <path d="M688.07,199.1v44.76A11.93,11.93,0,0,0,700,255.8h44.76" fill="#fff" stroke="#e3dfff" stroke-linecap="round" stroke-linejoin="round" stroke-width="4"/>
  </g>
  <path d="M865.36,661.61a136.31,136.31,0,0,1-3.49-41.88" fill="none" stroke="#2c234a" stroke-linecap="round" stroke-linejoin="round" stroke-width="2"/>
  <path d="M856.36,664.13A54,54,0,0,1,846,622.61" fill="none" stroke="#2c234a" stroke-linecap="round" stroke-linejoin="round" stroke-width="2"/>
</svg>
