<svg id="Layer_1" data-name="Layer 1" xmlns="http://www.w3.org/2000/svg" viewBox="0 0 1920 1080">
  <title>Traced Tshirt</title>
  <g>
    <path d="M1324,303a116.42,116.42,0,0,1-10.63,10.56" fill="none" stroke="#e3dfff" stroke-linecap="round" stroke-linejoin="round" stroke-width="6"/>
    <path d="M1287.08,331.47c-19.88,9.64-45.16,13-69.08-9.47-41.23-38.76-5-94.78-61-113-31.44-10.22-41.88,28.37-68.7,53.13" fill="none" stroke="#e3dfff" stroke-linecap="round" stroke-linejoin="round" stroke-width="6" stroke-dasharray="31.9 31.9"/>
    <path d="M1075.61,271.76A66.12,66.12,0,0,1,1062,278" fill="none" stroke="#e3dfff" stroke-linecap="round" stroke-linejoin="round" stroke-width="6"/>
  </g>
  <path d="M1323.82,17c-51,0-92.42,39.4-92.42,87.92,0,55.84,61.61,144.32,84.23,174.88a10.12,10.12,0,0,0,14.14,2.23,9.83,9.83,0,0,0,2.23-2.23c22.62-30.54,84.23-119,84.23-174.88C1416.23,56.43,1374.84,17,1323.82,17Z" fill="#e3dfff"/>
  <circle cx="1323.82" cy="109.45" r="45.5" fill="#fff"/>
  <g>
    <path d="M926.16,867.82l.12,35.58a12.6,12.6,0,0,0,8.9,9.72l85.24,31.2a15.7,15.7,0,0,1,11.16,12.52h0a15.7,15.7,0,0,1-15.87,18.28l-135.32-3.2a15.73,15.73,0,0,1-15.1-13L862,868.62Z" fill="#8aaff6"/>
    <g opacity="0.2">
      <path d="M876.29,867.82l-2.7,72.58a27.31,27.31,0,0,0,21.8,23.08l51.05,10h-63.7c-9.67,0-16-7-17.49-16.58L862,868.62Z"/>
    </g>
  </g>
  <path d="M859.85,451.75A2276.85,2276.85,0,0,1,869,755.3q-2.13,58.23-6.94,112.81h64.86A1426.41,1426.41,0,0,0,948.08,642.5a1426.65,1426.65,0,0,0-10-189.78Z" fill="#2c234a"/>
  <g>
    <path d="M819,858.71l-6.15,34.84a12.53,12.53,0,0,0,7,11.08l77.94,45.55a15.62,15.62,0,0,1,8.72,14.22h0a15.62,15.62,0,0,1-18.75,15.1l-131.89-27a15.61,15.61,0,0,1-12.49-15.35l12.67-89Z" fill="#8aaff6"/>
    <g opacity="0.2">
      <path d="M770.21,849.93l-15.43,70.56a27.17,27.17,0,0,0,17.28,26.43l48.2,18.78-62.35-11.22c-9.47-1.7-14.4-9.7-14.2-19.31l12.36-87Z"/>
    </g>
  </g>
  <path d="M888.12,452,867.39,638.5Q860.84,690.67,849.22,742L818.67,877,751,867.9,783.6,703.82a254.64,254.64,0,0,0,4.45-64.67c-3-51.67-5.43-153.61,20-188Z" fill="#2c234a"/>
  <path d="M870,623.22c4.82-27,6.75-50.14,13.5-108" fill="none" stroke="#efcc4a" stroke-linecap="round" stroke-linejoin="round" stroke-width="2"/>
  <path d="M839.7,917.39l61,34.09s14.88,8.37,3.33,23.41c0,0-5.17,6.67-15.2,4.77" fill="none" stroke="#4417d7" stroke-linecap="round" stroke-linejoin="round" stroke-width="2"/>
  <g>
    <path d="M737.49,359.09c-5.78,26,6.93,115.13-1,140.77-7.71,25.06,1.93,33.74,1.18,51.14-.19,4.43-2.27,8.58-3.41,12.86a7.71,7.71,0,0,0-.38,3.39,2.65,2.65,0,0,0,2.22,2.28c1.66.09,3.62-4.69,4.09-6.28a32.65,32.65,0,0,1,1.75-4.84c.78,1.73.46,8.55.14,10.42s-.59,3.88.25,5.58,3.28,2.71,4.69,1.45c1-.88,1.05-2.39,1-3.72-.07-4.29.06-8.69,0-13L761,571a4.31,4.31,0,0,0,2.46,1.4c1.7.1,2.88-1.93,2.58-3.61s-1.53-3-2.71-4.22c-5.25-5.46-10.46-11.3-12.87-18.48s-1.62-16.1,4.19-21c3.42,5.5,4.5,11.86,4.92,18.33.13,2.07.13,4.25,1.13,6.08s3.44,3.06,5.21,2,1.79-3.29,1.77-5.21c-.14-14.53-1-30.3-8.8-42.55,1.35-32,14.62-99.71,18.57-131.53l32-58.64-39.61-31.4Z" fill="#fff" stroke="#2c234a" stroke-linecap="round" stroke-linejoin="round" stroke-width="2"/>
    <path d="M748.71,559.47c-5.75-5.08-10.72-14-12.17-21.56" fill="#fff" stroke="#2c234a" stroke-linecap="round" stroke-linejoin="round" stroke-width="2"/>
    <line x1="741.66" y1="551.29" x2="742.32" y2="561.56" fill="#fff" stroke="#2c234a" stroke-linecap="round" stroke-linejoin="round" stroke-width="2"/>
  </g>
  <path d="M1053,248c1.17,1.15,19.49-20.06.2-27.78" fill="#fff" stroke="#2c234a" stroke-linecap="round" stroke-linejoin="round" stroke-width="2"/>
  <path d="M1010.24,253.76l27.92,1.37a5.28,5.28,0,0,0,5.22-4.6l9.53-63.77a5.28,5.28,0,0,0-3.65-5.93l-29-3a4.77,4.77,0,0,0-6,4l-8.56,66.33A4.77,4.77,0,0,0,1010.24,253.76Z" fill="#2c234a"/>
  <g>
    <path d="M1025.31,197.07c-.31,2.47-1.87,13-2.16,15.52-1.79,15.33-7.07,13.53-12.4,27.86a55.55,55.55,0,0,0-3,32.1l-18.2,56.6-20.25-43.38-43.38,15.42,43.6,88.36c6.94,11.89,21.65,17.23,34.31,11.83,6.66-2.84,13.92-21.7,15.53-29.19l15.46-65.76a231,231,0,0,1,13-39.79c8.1-18.5,11.26-39.59,6.88-59.32,0,0-2.47-12.18-6.33-9.29,0,0-2.89-11.57-12.53-8.68C1035.82,189.35,1027.33,180.68,1025.31,197.07Z" fill="#fff" stroke="#2c234a" stroke-linecap="round" stroke-linejoin="round" stroke-width="2"/>
    <path d="M1045,238.67c4.34-14.07,4.65-29.54,2.75-44.14" fill="#fff" stroke="#2c234a" stroke-linecap="round" stroke-linejoin="round" stroke-width="2"/>
    <path d="M1032.2,240.37c4.33-14.07,5.61-35.82,3.71-50.41" fill="#fff" stroke="#2c234a" stroke-linecap="round" stroke-linejoin="round" stroke-width="2"/>
  </g>
  <g>
    <path d="M842.24,229.22c3.1,16.15,17.63,29.41,34,31s32.55-6.9,38.76-22.14a18.08,18.08,0,0,1-17.84-6.81c-4-5.41-5.45-11.94-2.17-17.81,14.35-.67,25.42-14.42,28.6-28.43s1.59-28.6-1.41-42.65c-3.12-14.62-23.85-25.61-38.26-21.66,0,0-34.68,1.74-34.68,42.33a50.79,50.79,0,0,0,2.28,14.26,57.72,57.72,0,0,1,2.06,28.11c-1.51,8-4.63,16.73-10.87,23" fill="#fff"/>
    <path d="M842.24,229.22c3.1,16.15,17.63,29.41,34,31s32.55-6.9,38.76-22.14a18.08,18.08,0,0,1-17.84-6.81c-4-5.41-5.45-11.94-2.17-17.81,14.35-.67,25.42-14.42,28.6-28.43a86,86,0,0,0,1.26-25.91" fill="none" stroke="#2c234a" stroke-linecap="round" stroke-linejoin="round" stroke-width="2"/>
    <path d="M922.18,142.41c-3.12-14.62-23.85-25.61-38.26-21.66,0,0-34.68,1.74-34.68,42.33a60.71,60.71,0,0,0,2.43,14.53,56.94,56.94,0,0,1-.79,34.79,68.07,68.07,0,0,1-8.17,16" fill="none" stroke="#2c234a" stroke-linecap="round" stroke-linejoin="round" stroke-width="2"/>
    <path d="M924.24,151.41a210.51,210.51,0,0,0-38.89-.22,15.27,15.27,0,0,0-5.1,1.29c-8,3.66-6.74,11.93-7.63,19.45-.49,4.17-6.61,4.29-7.2.14V172c-.56-4.34,1.71-8.67.57-13.06a6.79,6.79,0,0,0-.9-2c-3.29-4.91-9.5-1.67-10.84,2.78-1.09,3.66.15,7.58,1.65,11.1.94,2.2,2,4.5,1.73,6.87s-2.59,4.69-4.87,4c-6.12-12-7.73-33-3.42-46.28s18.25-20.53,32-23.19c9.77-1.9,19.89,1.11,29.79,0,10.28-1.13,20.27-6.64,30.55-2.86,9.63,3.53,15.2,13.52,13.94,23.71C953.79,147.6,937.82,152.75,924.24,151.41Z" fill="#2c234a"/>
    <path d="M895,212.56s-6.54,0-15.88-5.6c0,0,.94,13.06,14,15.87A17.25,17.25,0,0,1,895,212.56Z" fill="#2c234a"/>
    <path d="M903.41,163.8a8,8,0,0,0,1,5.92c1,1.81,4.18,4.32,5.28,6.06.8,1.27,1.49,2.81,1.05,4.26a4.73,4.73,0,0,1-3.54,2.83c-2.56.67-7.25-.65-9.53-2" fill="none" stroke="#2c234a" stroke-linecap="round" stroke-linejoin="round" stroke-width="2"/>
    <path d="M916.46,165.23c-.81-2.22-2.49-3.64-4.15-3.5s-3.23,1.81-3.88,4.15" fill="none" stroke="#2c234a" stroke-linecap="round" stroke-linejoin="round" stroke-width="2"/>
    <path d="M895.92,165.23c-.81-2.22-2.49-3.64-4.15-3.5s-3.23,1.81-3.88,4.15" fill="none" stroke="#2c234a" stroke-linecap="round" stroke-linejoin="round" stroke-width="2"/>
    <path d="M903.15,192.4a13.22,13.22,0,0,1-8.09-.1c-2.55-1-4.66-3.44-4.65-6.18" fill="none" stroke="#9d8af6" stroke-linecap="round" stroke-linejoin="round" stroke-width="2"/>
  </g>
  <path d="M897,232.74S871.45,250,842.76,227.4c0,0-21.94-12-48.94,8.23-12.65,9.49-28,54-28,54l40.49,23.14-1.92,140.77H936.51l1.93-139.8L978,303.12s-6.75-21.21-29.89-60.74C938.68,226.31,915.3,224.06,897,232.74Z" fill="#8aaff6"/>
  <line x1="938.44" y1="264.55" x2="938.44" y2="313.73" fill="none" stroke="#4417d7" stroke-linecap="round" stroke-linejoin="round" stroke-width="2"/>
  <line x1="806.35" y1="313.73" x2="830.46" y2="270.34" fill="none" stroke="#4417d7" stroke-linecap="round" stroke-linejoin="round" stroke-width="2"/>
  <line x1="990.51" y1="326.26" x2="979.9" y2="357.11" fill="none" stroke="#2c234a" stroke-linecap="round" stroke-linejoin="round" stroke-width="2"/>
  <path d="M1056.41,170.83A48.43,48.43,0,0,1,1066,198" fill="none" stroke="#2c234a" stroke-linecap="round" stroke-linejoin="round" stroke-width="2"/>
  <path d="M1063.59,161a47.25,47.25,0,0,1,12.67,35.17" fill="none" stroke="#2c234a" stroke-linecap="round" stroke-linejoin="round" stroke-width="2"/>
</svg>
