<svg id="Layer_1" data-name="Layer 1" xmlns="http://www.w3.org/2000/svg" viewBox="0 0 1920 1080">
  <title>Traced Tshirt</title>
  <rect x="1107.41" y="65.19" width="321" height="321" rx="21.48" fill="#e3dfff"/>
  <g>
    <circle cx="1212.79" cy="313.69" r="17.6" fill="#fff"/>
    <circle cx="1335.99" cy="313.69" r="17.6" fill="#fff"/>
    <path d="M1367.23,151.32a13.18,13.18,0,0,0-10.21-4.83H1189.63l-3.37-19.13a8.81,8.81,0,0,0-8.67-7.27h-35.2a8.8,8.8,0,0,0,0,17.6h27.82L1195.32,280a8.81,8.81,0,0,0,8.67,7.27h140.8a8.8,8.8,0,0,0,0-17.6H1211.37l-3.1-17.6h132.91a13.25,13.25,0,0,0,13-10.61l15.83-79.2A13.18,13.18,0,0,0,1367.23,151.32Z" fill="#fff"/>
  </g>
  <g>
    <path d="M995.26,830.71l.12,36.89a13.11,13.11,0,0,0,9.23,10.09L1093,910a16.31,16.31,0,0,1,11.58,13h0a16.3,16.3,0,0,1-16.45,19l-140.36-3.33a16.29,16.29,0,0,1-15.66-13.45l-3.43-93.69Z" fill="#8aaff6"/>
    <g opacity="0.2">
      <path d="M943.54,830.71,940.74,906a28.33,28.33,0,0,0,22.61,23.94l52.94,10.37H950.22c-10,0-16.57-7.29-18.14-17.19l-3.38-91.57Z"/>
    </g>
  </g>
  <path d="M926.49,399.16A2362,2362,0,0,1,936,714c-1.47,40.26-3.94,79.28-7.2,117h67.27A1480,1480,0,0,0,1018,597a1478.93,1478.93,0,0,0-10.4-196.84Z" fill="#2c234a"/>
  <path d="M1126.79,207.81C1128,209,1147,187,1127,179" fill="#fff" stroke="#2c234a" stroke-linecap="round" stroke-linejoin="round" stroke-width="2"/>
  <path d="M1082.47,213.8l29,1.43a5.48,5.48,0,0,0,5.42-4.78l9.89-66.14a5.5,5.5,0,0,0-3.79-6.15l-30.1-3.1a4.94,4.94,0,0,0-6.19,4.16L1077.77,208A4.94,4.94,0,0,0,1082.47,213.8Z" fill="#2c234a"/>
  <g>
    <path d="M1098.09,155c-.31,2.57-1.93,13.54-2.23,16.1-1.86,15.9-7.33,14-12.86,28.9a57.62,57.62,0,0,0-3.12,33.29L1061,292l-21-45-45,16,45.22,91.64c7.2,12.33,22.46,17.87,35.59,12.28,6.9-2.95,14.44-22.51,16.1-30.29l16-68.2a239.88,239.88,0,0,1,13.48-41.27c8.39-19.19,11.67-41.06,7.13-61.52,0,0-2.56-12.64-6.56-9.64,0,0-3-12-13-9C1109,147,1100.19,138,1098.09,155Z" fill="#fff" stroke="#2c234a" stroke-linecap="round" stroke-linejoin="round" stroke-width="2"/>
    <path d="M1118.47,198.15c4.5-14.59,4.82-30.64,2.85-45.78" fill="#fff" stroke="#2c234a" stroke-linecap="round" stroke-linejoin="round" stroke-width="2"/>
    <path d="M1105.24,199.91c4.5-14.59,5.82-37.14,3.85-52.28" fill="#fff" stroke="#2c234a" stroke-linecap="round" stroke-linejoin="round" stroke-width="2"/>
  </g>
  <path d="M906.22,189.29c3.32,17.3,18.88,31.51,36.42,33.24s34.87-7.4,41.52-23.72a19.36,19.36,0,0,1-19.11-7.29c-4.27-5.8-5.83-12.79-2.33-19.08C978.1,171.72,990,157,993.36,142s1.7-30.64-1.51-45.69c-3.34-15.66-25.54-27.44-41-23.2,0,0-37.14,1.86-37.14,45.34a54.16,54.16,0,0,0,2.45,15.27,62,62,0,0,1,2.2,30.11c-1.62,8.6-5,17.93-11.65,24.62" fill="#fff"/>
  <path d="M906.22,189.29c3.32,17.3,18.88,31.51,36.42,33.24s34.87-7.4,41.52-23.72a19.36,19.36,0,0,1-19.11-7.29c-4.27-5.8-5.83-12.79-2.33-19.08C978.1,171.72,990,157,993.36,142a92.13,92.13,0,0,0,1.36-27.76" fill="none" stroke="#2c234a" stroke-linecap="round" stroke-linejoin="round" stroke-width="2"/>
  <path d="M991.85,96.3c-3.34-15.66-25.54-27.44-41-23.2,0,0-37.14,1.86-37.14,45.34A64.72,64.72,0,0,0,916.33,134a60.94,60.94,0,0,1-.86,37.26,72.23,72.23,0,0,1-8.75,17.17" fill="none" stroke="#2c234a" stroke-linecap="round" stroke-linejoin="round" stroke-width="2"/>
  <path d="M994.06,105.94a226.46,226.46,0,0,0-41.66-.24,16.4,16.4,0,0,0-5.46,1.39c-8.55,3.92-7.22,12.77-8.18,20.84-.53,4.45-7.08,4.58-7.71.14a.34.34,0,0,1,0-.1c-.6-4.65,1.83-9.28.61-14a7,7,0,0,0-1-2.18c-3.51-5.26-10.17-1.79-11.6,3-1.17,3.91.16,8.12,1.77,11.88,1,2.36,2.15,4.83,1.85,7.37s-2.77,5-5.22,4.26c-6.55-12.82-8.28-35.3-3.66-49.57s19.54-22,34.26-24.85c10.47-2,21.31,1.19,31.91,0,11-1.2,21.71-7.11,32.73-3.06,10.31,3.79,16.29,14.49,14.93,25.4C1025.72,101.86,1008.6,107.38,994.06,105.94Z" fill="#2c234a"/>
  <path d="M962.72,171.44s-7,0-17-6c0,0,1,14,15,17A18.55,18.55,0,0,1,962.72,171.44Z" fill="#2c234a"/>
  <path d="M971.74,119.21a8.57,8.57,0,0,0,1.06,6.34c1,1.94,4.48,4.63,5.65,6.49.86,1.37,1.59,3,1.13,4.56s-2.16,2.61-3.79,3c-2.75.72-7.77-.7-10.21-2.15" fill="none" stroke="#2c234a" stroke-linecap="round" stroke-linejoin="round" stroke-width="2"/>
  <path d="M985.72,120.75c-.87-2.39-2.66-3.9-4.44-3.76s-3.46,1.94-4.16,4.45" fill="none" stroke="#2c234a" stroke-linecap="round" stroke-linejoin="round" stroke-width="2"/>
  <path d="M963.72,120.75c-.87-2.39-2.66-3.9-4.44-3.76s-3.46,1.94-4.16,4.45" fill="none" stroke="#2c234a" stroke-linecap="round" stroke-linejoin="round" stroke-width="2"/>
  <path d="M971.47,149.85a14.1,14.1,0,0,1-8.67-.11c-2.73-1.07-5-3.68-5-6.62" fill="none" stroke="#9d8af6" stroke-linecap="round" stroke-linejoin="round" stroke-width="2"/>
  <path d="M965,192s-26.48,17.93-56.24-5.54c0,0-22.76-12.46-50.76,8.54-13.12,9.84-29,56-29,56l42,24V399h137V276l41-11s-7-22-31-63C1008.24,185.33,984,183,965,192Z" fill="#8aaff6"/>
  <line x1="1008" y1="225" x2="1008" y2="276" fill="none" stroke="#4417d7" stroke-linecap="round" stroke-linejoin="round" stroke-width="2"/>
  <line x1="871" y1="276" x2="871" y2="225" fill="none" stroke="#4417d7" stroke-linecap="round" stroke-linejoin="round" stroke-width="2"/>
  <g>
    <path d="M884.14,821.25l-6.38,36.14A13,13,0,0,0,885,868.88l80.83,47.24a16.21,16.21,0,0,1,9,14.75h0a16.2,16.2,0,0,1-19.45,15.67l-136.79-28a16.22,16.22,0,0,1-13-15.93l13.15-92.31Z" fill="#8aaff6"/>
    <g opacity="0.2">
      <path d="M833.51,812.14l-16,73.19a28.16,28.16,0,0,0,17.92,27.41l50,19.48-64.67-11.64c-9.81-1.76-14.93-10.05-14.72-20l12.82-90.23Z"/>
    </g>
  </g>
  <path d="M955.8,399.45l-21.5,193.4Q927.52,647,915.46,700.23l-31.69,140-70.23-9.46L847.4,660.6A263.85,263.85,0,0,0,852,593.53c-3.17-53.59-5.63-159.33,20.78-195Z" fill="#2c234a"/>
  <path d="M937,577c5-28,7-52,14-112" fill="none" stroke="#efcc4a" stroke-linecap="round" stroke-linejoin="round" stroke-width="2"/>
  <path d="M905.58,882.11l63.25,35.37s15.43,8.67,3.45,24.27c0,0-5.37,6.92-15.77,5" fill="none" stroke="#4417d7" stroke-linecap="round" stroke-linejoin="round" stroke-width="2"/>
  <line x1="1062" y1="289" x2="1051" y2="321" fill="none" stroke="#2c234a" stroke-linecap="round" stroke-linejoin="round" stroke-width="2"/>
  <rect x="813" y="325" width="178" height="139" rx="8.66" transform="translate(-34.21 699.03) rotate(-41.64)" fill="#efcc4a"/>
  <g>
    <path d="M871.89,276.36l-27.5,73.8L905,409.77c8.54-3.46,13.15-.18,17.29,1.62s6.07,3.77,10.61,2.81c1.87-.4,3.65-1.27,5.54-1.49a4.74,4.74,0,0,1,5.07,3.24c.89,2.93-3.68,6.66-6.08,7.43-2.67.85-7.49-.12-10.16.74,6.06,6.47,17.48,10.33,26,12.83a6.26,6.26,0,0,1,2.45,1.28c2.65,2.37-.1,6.17-2.33,6.81a10.43,10.43,0,0,1-4.68-.1c2.12,1,3,4.57,1.72,6.54s-5.34,2.6-7.13,1.08c2.11.51,2.13,4.75.31,5.93s-4.2.78-6.33.34c-8.71-1.79-17.52-3.61-25.57-7.39a87.1,87.1,0,0,1-14.8-9,319,319,0,0,0-40.53-26.32c-6.22-3.39-12.58-7.07-20.08-11.47-8.74-5.14-17.52-10.67-23.81-18.62-6.06-7.66-9.44-17.17-11-26.8-3-18-.09-36.49,5.62-53.77s14-38.16,22.45-54.3" fill="#fff" stroke="#2c234a" stroke-linecap="round" stroke-linejoin="round" stroke-width="2"/>
    <path d="M950,445c-5.38-.83-12.11-3.49-17.26-5.23s-10.94-2.45-14.57-6.5" fill="none" stroke="#2c234a" stroke-linecap="round" stroke-linejoin="round" stroke-width="2"/>
    <path d="M948.36,453.39c-5.38-.84-11.78-1.52-16.93-3.26s-15.21-4.76-18.85-8.81" fill="none" stroke="#2c234a" stroke-linecap="round" stroke-linejoin="round" stroke-width="2"/>
  </g>
  <line x1="922.16" y1="291" x2="1005.6" y2="385.74" fill="none" stroke="#e84468" stroke-linecap="round" stroke-linejoin="round" stroke-width="10"/>
  <line x1="838" y1="344" x2="844" y2="350" fill="#fff" stroke="#2c234a" stroke-linecap="round" stroke-linejoin="round" stroke-width="2"/>
  <path d="M787.55,368.29a40.67,40.67,0,0,1,1-37.79" fill="none" stroke="#2c234a" stroke-linecap="round" stroke-linejoin="round" stroke-width="2"/>
  <path d="M779.25,372.06a42.13,42.13,0,0,1-5.35-28.53" fill="none" stroke="#2c234a" stroke-linecap="round" stroke-linejoin="round" stroke-width="2"/>
</svg>
