<svg id="Layer_1" data-name="Layer 1" xmlns="http://www.w3.org/2000/svg" viewBox="0 0 1920 1080">
  <title>Traced Tshirt</title>
  <g>
    <path d="M1087.46,882.23l6.38,36.14a13,13,0,0,1-7.26,11.49l-80.83,47.25a16.19,16.19,0,0,0-9,14.74h0a16.2,16.2,0,0,0,19.45,15.67l136.79-28a16.22,16.22,0,0,0,13-15.93l-13.14-92.3Z" fill="#8aaff6"/>
    <g opacity="0.2">
      <path d="M1138.09,873.12l16,73.19a28.16,28.16,0,0,1-17.92,27.41l-50,19.48,64.67-11.63c9.81-1.77,14.93-10.06,14.72-20l-12.81-90.22Z"/>
    </g>
  </g>
  <g>
    <path d="M925.9,890.86l-2.77,36.6a13,13,0,0,1-9.88,9.33l-90,25.74a16.19,16.19,0,0,0-12.42,12.05h0a16.21,16.21,0,0,0,15,20l139.46,6.79a16.2,16.2,0,0,0,16.5-12.22l10.14-92.68Z" fill="#8aaff6"/>
    <g opacity="0.2">
      <path d="M977.21,894.58l-2.63,74.88a28.17,28.17,0,0,1-24.15,22.11l-53.27,6.48,65.54,4.76c9.95.72,17-6,19.23-15.76l9.94-90.58Z"/>
    </g>
  </g>
  <path d="M1016.8,490.43l20.5,163.4q6.78,54.12,18.84,107.38l31.69,140,70.23-9.46L1124.2,721.58a264.28,264.28,0,0,1-4.62-67.07c3.17-53.59,5.63-159.32-20.78-195Z" fill="#2c234a"/>
  <path d="M995.87,489.16s-78,126.59-67.61,220.48c0,0-6,200.35-2.8,202S990.87,915,990.87,915l11.59-222.9,73.23-198.72Z" fill="#2c234a"/>
  <path d="M974.94,295.15c-20.57-24.75-34.08-54.5-40.92-85.94-8-36.55-9.6-85.45-7.2-122.77.81-12.68-2.41-13.79-5.21-26.18-.57-2.54-1.15-3.84-.37-6.77a5.26,5.26,0,0,1,4-3.87c2.14-.42,3.76.43,4.23,2.72-.79-2.23.89-4.9,3.12-5.72a4.75,4.75,0,0,1,5.86,2.63c.34-6.26.6-12.3.94-18.57.16-3.09.39-6.37,2.55-8.74a3,3,0,0,1,2.2-1c2.31,0,3,2.64,3.24,4.74A177.78,177.78,0,0,1,948,52.26a16.2,16.2,0,0,1,7.89,12.39,32.46,32.46,0,0,1-3,14.87,18.35,18.35,0,0,0-1.6,10.68C957,131.41,968.43,166.71,976,208c16,27,31.58,44.33,48.82,65.65" fill="none" stroke="#2c234a" stroke-linecap="round" stroke-linejoin="round" stroke-width="2"/>
  <path d="M1006.76,343.72l-33.31-48.37,50.35-25s49.88,47.27,31.23,80.08" fill="#8aaff6"/>
  <path d="M1042.08,280.32c4.66-4,7.28-9.58,5.54-15.49-12.69-3.5-19.82-18-19.83-31.2s4.36-25.89,9.88-37.85c5.74-12.44,26.49-18.08,38.59-11.64,0,0,30.65,8.56,22.45,44.86a46.54,46.54,0,0,1-4.92,12.28,53,53,0,0,0-7.52,24.72c-.27,7.48.76,15.9,5.08,22.75,0,0-2.52,21.11-35.89,22.06S1042.08,280.32,1042.08,280.32Z" fill="#fff"/>
  <path d="M1091.61,289.55c-6,13.81-21.71,22.74-36.67,20.88l-12.86-30.11c4.66-4,7.28-9.58,5.54-15.49-12.69-3.5-19.82-18-19.83-31.2" fill="none" stroke="#2c234a" stroke-linecap="round" stroke-linejoin="round" stroke-width="2"/>
  <path d="M1037.67,195.78c5.74-12.44,26.49-18.08,38.59-11.64,0,0,30.65,8.56,22.45,44.86a55.34,55.34,0,0,1-5.11,12.5,52.17,52.17,0,0,0-6.32,31.26,62.18,62.18,0,0,0,4.07,16s-3.24,20.2-35.75,22.32" fill="none" stroke="#2c234a" stroke-linecap="round" stroke-linejoin="round" stroke-width="2"/>
  <path d="M1047.81,264s5.85,1.32,15.32-1.81c0,0-3.47,11.5-15.72,11.36A15.8,15.8,0,0,0,1047.81,264Z" fill="#2c234a"/>
  <path d="M1040.12,216.44a7.41,7.41,0,0,1-2.08,5.09c-1.24,1.42-4.61,3-5.94,4.35a4.93,4.93,0,0,0-1.8,3.6,4.31,4.31,0,0,0,2.59,3.24c2.15,1.12,6.61.89,8.92.14" fill="none" stroke="#2c234a" stroke-linecap="round" stroke-linejoin="round" stroke-width="2"/>
  <path d="M1046,221.33c1.48-1.58,3.4-2.17,4.75-1.46s2.07,2.69,1.78,4.9" fill="none" stroke="#2c234a" stroke-linecap="round" stroke-linejoin="round" stroke-width="2"/>
  <path d="M1028,217.36c1.15-1.84,2.92-2.8,4.38-2.36s2.56,2.23,2.7,4.45" fill="none" stroke="#2c234a" stroke-linecap="round" stroke-linejoin="round" stroke-width="2"/>
  <path d="M1075.27,201.84c-.3-1.68-37.45,13-53.49-9.94s10.7-35.14,25.21-29c3.8,1.6,8.14,3.27,12,4.71a43.22,43.22,0,0,0,16.47,2.73c5.16-.16,12.94,1,21.23,7.08,14.52,10.69,13,30.56,3.82,51.19-10.55,23.75-9.3,17.68-9.3,17.68l-4.26-10.69a4.89,4.89,0,0,1,.43-4.47c3.13-4.84,10-16.59,4-17.8-4.65-.93-7.31,3.51-8.69,7.13a3.82,3.82,0,0,1-5.41,2h0a3.82,3.82,0,0,1-1.85-4.19C1076.05,215.32,1076.69,209.9,1075.27,201.84Z" fill="#2c234a"/>
  <path d="M1091.09,279.61s-28.67,20.76-50.42,0c0,0-30.64,6.92-36.57,38.56s-11.87,177-11.87,177l122.17,4s13.61-114.22,16.24-133.46C1136.57,322.12,1120.75,290.49,1091.09,279.61Z" fill="#8aaff6"/>
  <path d="M1082.18,327.48l35.23,47,39.76-39.76s-28.91-62.34-66-55.11" fill="#8aaff6"/>
  <polyline points="1078.56 322.06 1117.41 374.47 1131.14 361.46" fill="none" stroke="#4417d7" stroke-linecap="round" stroke-linejoin="round" stroke-width="2"/>
  <path d="M999,369c-.32-13.4,1.17-33.2,3.07-46.47s8.73-24.86,21.38-34.8" fill="none" stroke="#4417d7" stroke-linecap="round" stroke-linejoin="round" stroke-width="2"/>
  <line x1="1031.48" y1="613.26" x2="1023.09" y2="509.43" fill="none" stroke="#efcc4a" stroke-linecap="round" stroke-linejoin="round" stroke-width="2"/>
  <path d="M1117,373l40,60-51,68c-9-2-13,2-16.79,4.47s-5.35,4.71-10,4.52c-1.91-.08-3.81-.64-5.71-.55a4.76,4.76,0,0,0-4.47,4c-.39,3,4.73,5.95,7.23,6.31,2.77.4,6.55-.19,9.32.21-4.9,7.38-14.7,11.93-22.74,15.82a6.32,6.32,0,0,0-2.21,1.66c-2.21,2.78,1.13,6.07,3.43,6.34a10.58,10.58,0,0,0,4.61-.88c-1.94,1.32-2.19,5-.62,6.73s5.7,1.68,7.21-.11c-2,.85-1.31,5,.68,5.89s4.27.08,6.29-.71c8.3-3.21,16.69-6.46,24-11.53a86.55,86.55,0,0,0,13.09-11.36,319.27,319.27,0,0,1,35.61-32.68c5.58-4.37,11.24-9.05,17.9-14.64,7.77-6.51,15.51-13.42,20.4-22.3,4.7-8.56,6.46-18.5,6.44-28.27,0-18.2-6-36-14.46-52.09s-17.53-31.69-28.5-46.21" fill="#fff" stroke="#2c234a" stroke-linecap="round" stroke-linejoin="round" stroke-width="2"/>
  <path d="M1067.43,543.21c5.17-1.72,11.36-5.45,16.16-8s9.22-5.05,12.14-9.65" fill="none" stroke="#2c234a" stroke-linecap="round" stroke-linejoin="round" stroke-width="2"/>
  <path d="M1070.43,551.21c5.17-1.72,11.36-3.45,16.16-6s13.22-7.05,16.14-11.65" fill="none" stroke="#2c234a" stroke-linecap="round" stroke-linejoin="round" stroke-width="2"/>
  <path d="M929.9,49.48a22.76,22.76,0,0,0,1.86,14.14,5.4,5.4,0,0,0,2.17,2.62,3.76,3.76,0,0,0,4.31-.93,6.2,6.2,0,0,0,1.49-4.37c0-1.58-.46-2.12-.89-3.65" fill="none" stroke="#2c234a" stroke-linecap="round" stroke-linejoin="round" stroke-width="2"/>
  <path d="M921,57.57A44.12,44.12,0,0,0,923.74,65a6.16,6.16,0,0,0,3.72,2.85,3.88,3.88,0,0,0,4.17-1.67" fill="none" stroke="#2c234a" stroke-linecap="round" stroke-linejoin="round" stroke-width="2"/>
  <path d="M948.23,52.56a22.77,22.77,0,0,0-8.35-2,4,4,0,0,0-2.85.65,2.93,2.93,0,0,0-.41,3.5,7.41,7.41,0,0,0,2.72,2.61,12,12,0,0,1,3,2.35,25.61,25.61,0,0,0-6.79,16.25" fill="none" stroke="#2c234a" stroke-linecap="round" stroke-linejoin="round" stroke-width="2"/>
  <path d="M1037.33,244.18a15.85,15.85,0,0,0,9.52,1.87c3.25-.56,6.33-2.9,7-6.13" fill="none" stroke="#9d8af6" stroke-linecap="round" stroke-linejoin="round" stroke-width="2"/>
  <g>
    <path d="M748.05,334a58.33,58.33,0,1,0-27.54,77.76A58.34,58.34,0,0,0,748.05,334Z" fill="none" stroke="#e3dfff" stroke-miterlimit="10" stroke-width="4"/>
    <path d="M709,387.65a4.84,4.84,0,0,1-2.83.42c-14.27-2.18-21.33-5-25.39-6.88-8.67-4.07-14.58-9.68-18-17.14a17.13,17.13,0,0,1,7.86-22.71,18.19,18.19,0,0,1,14.76-.18,1.82,1.82,0,0,0,2.36-1l0-.1a18.21,18.21,0,0,1,9.42-11.36,17.15,17.15,0,0,1,22.6,8.18c3.62,7.4,4.26,15.52,2,24.81-1.08,4.37-3.35,11.61-10.64,24.06A4.8,4.8,0,0,1,709,387.65Z" fill="#e3dfff"/>
  </g>
  <g>
    <path d="M788.32,156.91a37.5,37.5,0,1,0-1.87,53A37.51,37.51,0,0,0,788.32,156.91Z" fill="none" stroke="#e3dfff" stroke-miterlimit="10" stroke-width="4"/>
    <path d="M774.73,197.34a3.16,3.16,0,0,1-1.65.8c-9.17,1.42-14,1.07-16.9.68-6.1-.81-10.8-3.12-14.37-7a11,11,0,0,1,.43-15.44,11.7,11.7,0,0,1,9-2.95,1.17,1.17,0,0,0,1.24-1.1s0,0,0-.07a11.65,11.65,0,0,1,3.58-8.78,11,11,0,0,1,15.43.65c3.65,3.84,5.62,8.69,6,14.83.19,2.89.19,7.77-1.87,16.81A3.16,3.16,0,0,1,774.73,197.34Z" fill="#e3dfff"/>
  </g>
  <g>
    <path d="M911.78,322.8a58.33,58.33,0,1,0-68,46.66A58.35,58.35,0,0,0,911.78,322.8Z" fill="none" stroke="#e3dfff" stroke-miterlimit="10" stroke-width="4"/>
    <path d="M802,315.85l48.44-55.49L906,308.81,857.5,364.3Z" fill="none"/>
    <path d="M831.31,343l4.63-1a3.77,3.77,0,0,0,2.84-4.51l-6.51-28.57a3.75,3.75,0,0,0-4.5-2.83l-4.64,1.05a3.76,3.76,0,0,0-2.83,4.5l6.51,28.58A3.75,3.75,0,0,0,831.31,343ZM886,296a6.16,6.16,0,0,0-7.34-4.63l-18.89,4.3-.27-14.32-.13-1a4.6,4.6,0,0,0-2-2.87h0a4.59,4.59,0,0,0-6.32,1.46l-12.77,20.33a6,6,0,0,0-.8,4.62l6.81,29.92a6.16,6.16,0,0,0,7.35,4.63l26.94-6.14a6.09,6.09,0,0,0,4.67-4.9l4.24-23.16a6.27,6.27,0,0,0-.08-2.28Z" fill="#e3dfff"/>
  </g>
  <g>
    <path d="M853.18,526.28a46.55,46.55,0,1,0-60.46,26.06A46.56,46.56,0,0,0,853.18,526.28Z" fill="none" stroke="#e3dfff" stroke-miterlimit="10" stroke-width="4"/>
    <path d="M779.31,480.41l58.76-1.73,1.73,58.77L781,539.18Z" fill="none"/>
    <path d="M787.05,529.71l3.79-.11a3,3,0,0,0,2.92-3.09l-.69-23.38a3,3,0,0,0-3.09-2.91l-3.79.11a3,3,0,0,0-2.92,3.09L784,526.8A3,3,0,0,0,787.05,529.71Zm50.07-28.43a4.9,4.9,0,0,0-5-4.75l-15.45.45,2-11.25,0-.79a3.68,3.68,0,0,0-1.15-2.56h0a3.67,3.67,0,0,0-5.18.16l-13.13,13.95a4.8,4.8,0,0,0-1.34,3.5l.72,24.48a4.92,4.92,0,0,0,5,4.76l22-.65a4.86,4.86,0,0,0,4.41-3.12L837,508a4.89,4.89,0,0,0,.29-1.8Z" fill="#e3dfff"/>
  </g>
  <path d="M923.93,235a60.18,60.18,0,0,1-5.69-22.73" fill="none" stroke="#2c234a" stroke-linecap="round" stroke-linejoin="round" stroke-width="2"/>
  <path d="M911.65,239.53a100.91,100.91,0,0,1-2.86-37.5" fill="none" stroke="#2c234a" stroke-linecap="round" stroke-linejoin="round" stroke-width="2"/>
  <path d="M1203.62,472.52a74.08,74.08,0,0,0,10.59-34" fill="none" stroke="#2c234a" stroke-linecap="round" stroke-linejoin="round" stroke-width="2"/>
  <path d="M1214.4,474.81a36.18,36.18,0,0,0,9.27-24.95" fill="none" stroke="#2c234a" stroke-linecap="round" stroke-linejoin="round" stroke-width="2"/>
</svg>
