<svg id="Layer_1" data-name="Layer 1" xmlns="http://www.w3.org/2000/svg" xmlns:xlink="http://www.w3.org/1999/xlink" viewBox="0 0 1920 1080">
  <defs>
    <clipPath id="clip-path">
      <path d="M1346.74,184.63s28.06.56,28.85,35.59-69.89,106.41-86.69,147.57c-13.63,33.39-60,57.27-84.55,31.55S1116.1,319,1135,275s56.87-60.32,78-35.48,19.12,36.95,41.55,44.71S1296.45,191.82,1346.74,184.63Z" fill="#5c04a0"/>
    </clipPath>
    <clipPath id="clip-path-2">
      <path d="M1376.72,181.4a54.64,54.64,0,0,1-8.37.79c-7.91.16-15.28,6.49-19.87,13.38-5.36,8-9,17.51-16.37,23.71-5.91,5-6.92,8.36-12.24,14-6.67,7-8.87,19.2-5.11,28.13,2.18,5.18-.06,10.58,4.39,14,5.94,4.62,9.71,23,8.15,30.36-3.25,15.27-5.83,17.11-10.48,32.12-2.86,9.24-5.47,20.16.36,27.87,6,7.91,17.44,6.79,25.72,1.34,11.95-7.87,38-3.7,49,2.94,9.24,5.56,35,20.17,45.41,23.09s21.11,6,31.77,4.41,21.26-9.18,22.56-19.88c1.53-12.51-9.29-22.59-15.87-33.34-9.59-15.67-46.6-43.91-44.35-82.75,1.07-18.34-.82-37.55-9.48-53.75C1414,193,1393.27,178.47,1376.72,181.4Z" fill="#5c04a0"/>
    </clipPath>
    <clipPath id="clip-path-3">
      <path d="M1392.8,236.89c13.18,34.48,18.23,75.57,36.42,107.69,4.18,7.38,4.67,14.22,4.49,21.77-.46,18.79-7.45,36.63-18.66,51.72-9.84,13.26-11.27,50.52.43,62.18,6,5.94,14.8,7.67,23.09,9.12l67.34,11.76c8.11,1.42,20-4.55,27.75-7.4,11.32-4.17,18.25-24.43,19.63-36.41,2.19-19.12-5.77-37.79-13.55-55.4-21.62-48.9-13.06-80.4-47.15-126.34-11.43-15.4-39.75-52-54.9-74.42-6.64-9.81-39.6-18.35-47.87-5.35C1381.9,208.25,1388.09,224.54,1392.8,236.89Z" fill="#5c04a0"/>
    </clipPath>
  </defs>
  <title>Vector 1</title>
  <g>
    <path d="M388.5,220.5a29,29,0,0,1,0-58h628a29,29,0,0,1,0,58Z" fill="#fff"/>
    <path d="M1016.5,163a28.5,28.5,0,0,1,0,57h-628a28.5,28.5,0,0,1,0-57h628m0-1h-628a29.5,29.5,0,0,0,0,59h628a29.5,29.5,0,0,0,0-59Z"/>
  </g>
  <g>
    <path d="M1346.74,184.63s28.06.56,28.85,35.59-69.89,106.41-86.69,147.57c-13.63,33.39-60,57.27-84.55,31.55S1116.1,319,1135,275s56.87-60.32,78-35.48,19.12,36.95,41.55,44.71S1296.45,191.82,1346.74,184.63Z" fill="#5c04a0"/>
    <g clip-path="url(#clip-path)">
      <path d="M1151.77,265c-11.46,14.4-8.16,31.79-5,39.51s8.54,14.29,13.81,20.76l33,40.45c10.07,12.34,22.22,25.75,38.15,26.1,10,.21,19.47-5.06,26.55-12.12s12.18-15.81,17.35-24.37a831.07,831.07,0,0,1,63-90.22c14.31-17.82,30.09-36.82,31.39-59.64" fill="none" stroke="#fff" stroke-linecap="round" stroke-linejoin="round" stroke-width="2" opacity="0.15"/>
      <path d="M1159.2,275.12c-5.48,10,2,25.26,6.39,30l44.14,47.08c5.07,5.4,10.66,11.1,18,12.41,6,1.08,12.26-1.13,17.21-4.72s8.78-8.49,12.41-13.41c20.08-27.26,35.9-57.78,58.92-82.6,9.61-10.37,20.41-19.65,29.49-30.5s16.55-23.69,17.85-37.78" fill="none" stroke="#fff" stroke-linecap="round" stroke-linejoin="round" stroke-width="2" opacity="0.15"/>
      <path d="M1173.5,273.17c8.49,13.08,30.66,42.51,43.06,52,3.77,2.87,8.08,5.66,12.81,5.37,4.18-.26,7.8-2.89,11-5.58,31.49-26.22,49.34-65.62,79.27-93.62,6.53-6.12,13.63-11.68,19.48-18.45s10.47-15.08,10.81-24" fill="none" stroke="#fff" stroke-linecap="round" stroke-linejoin="round" stroke-width="2" opacity="0.15"/>
      <path d="M1183,262.58c7-2.08,14.74.5,20.78,4.67s10.9,9.8,16.28,14.8,11.65,9.53,18.91,10.63,15.6-2.18,18.31-9" fill="none" stroke="#fff" stroke-linecap="round" stroke-linejoin="round" stroke-width="2" opacity="0.15"/>
      <path d="M1298.22,227.68l47-42.48" fill="none" stroke="#fff" stroke-linecap="round" stroke-linejoin="round" stroke-width="2" opacity="0.15"/>
      <path d="M1169,250.27c3-6.24,9.54-10.29,16.37-11.3s13.85.71,20.09,3.67,11.84,7.09,17.39,11.21" fill="none" stroke="#fff" stroke-linecap="round" stroke-linejoin="round" stroke-width="2" opacity="0.15"/>
    </g>
  </g>
  <path d="M1102,202.29c-11-5.22-23.54-20-25.43-32.26-.56-3.61,2-6.67,5.06-4.64a48.66,48.66,0,0,1,5.5,4.57,69.44,69.44,0,0,0,20.92,13.13c4.63,1.86,9.47,3.21,14,5.36s14.43,9,16.85,13.38" fill="#ffc9e6"/>
  <path d="M1153,214.3c-8.58-11.61-19.76-22.47-33.91-25.31-9.92-2-20.2.21-29.89,3.1a208.16,208.16,0,0,0-25.71,9.54c-5.45,2.44-11.24,5.59-13.38,11.17s2.38,13.46,8.17,12c-5.77,3.39-4.16,14,2.36,15.48-2.55,5.86-1.13,12.76,14,12.84,6.88,0,12.42-5.83,18.81-8.35,17.27-6.82,38.58-1.53,50.65,12.56,4.44,5.18,8,11.59,14.1,14.57,13.21,6.42,27.72-8,21.82-21.37-2.27-5.17-8-9.14-11.45-13.64C1163.1,229.6,1158.44,221.67,1153,214.3Z" fill="#ffc9e6"/>
  <path d="M1081.39,166a7.5,7.5,0,0,0,9.81,8.48l-9-7.94" fill="none" stroke="#000" stroke-linecap="round" stroke-linejoin="round"/>
  <path d="M1555.21,807.49c.62,2.24,43.11,88.85,43.11,88.85l39.69-11-44.68-91.65-38.95,10.77" fill="#ffc9e6"/>
  <polygon points="1569.93 838.24 1608.54 824.91 1638.01 885.37 1597.36 895.8 1569.93 838.24" fill="#fca1bb"/>
  <polygon points="1572.85 844.37 1611.38 830.74 1614.18 836.49 1575.8 850.57 1572.85 844.37" fill="#151614"/>
  <polygon points="1576.83 852.94 1616.11 839.11 1618.91 844.86 1579.79 859.14 1576.83 852.94" fill="#fff"/>
  <g>
    <path d="M1667.07,943.17c5.36-2.15,5.52-13.78,4.2-19.4-5.61-23.92-20.24-48.8-37.78-64.27a5.77,5.77,0,0,0-8.87,1.52c-4,7.35-13.42,17.4-33,10.1-7-2.62-9.5-12-16.29-15.18-8.7-4.07-21.44-1.68-22.8,9.93a16.35,16.35,0,0,0,1.28,8.28c3,7.07,9.25,11.56,15.39,15.76a177.13,177.13,0,0,1-47.69,38.83c-8.36,4.67-17.14,8.69-24.9,14.31s-14.58,13.18-17.1,22.42c-1.21,4.45-.63,12.22.82,19a9.69,9.69,0,0,0,12.06,7.33Z" fill="#fff" stroke="#000" stroke-miterlimit="10"/>
    <path d="M1479,975.25s141.61-34.23,188.71-63" fill="#fff" stroke="#000" stroke-miterlimit="10"/>
    <path d="M1528.71,925.28c10.25,3.59,21.91.51,30.91-5.56s15.83-14.79,22.32-23.5l-14.24-7" fill="none" stroke="#000" stroke-miterlimit="10"/>
    <path d="M1544.11,914.44c5.46,2.92,9.67,5.72,15.86,5.49" fill="none" stroke="#000" stroke-miterlimit="10"/>
    <path d="M1556.41,902.36a55.77,55.77,0,0,0,16.83,5.81" fill="none" stroke="#000" stroke-miterlimit="10"/>
    <path d="M1583.27,945.7c1.86-11,10.55-19.64,19.93-25.68s19.88-10.34,28.73-17.15,16.13-17.14,15.21-28.26" fill="none" stroke="#000" stroke-miterlimit="10"/>
    <path d="M1596.46,942.89c4.45-8.17,12.5-13.75,20.75-18s17-7.66,24.71-12.94,14.3-13,15.49-22.24" fill="none" stroke="#000" stroke-miterlimit="10"/>
  </g>
  <path d="M1231.23,809.15c-.23,2.32,8.15,98.42,8.15,98.42l41,4.08-8.62-101.59-40.2-4" fill="#ffc9e6"/>
  <polygon points="1233.86 846.08 1274.68 847.58 1280.36 914.59 1238.69 909.66 1233.86 846.08" fill="#fca1bb"/>
  <polygon points="1233.81 840.89 1274.68 840.47 1275.47 846.81 1234.6 847.72 1233.81 840.89" fill="#151614"/>
  <polygon points="1235 859.34 1276.62 860.61 1277.16 866.98 1235.52 866.19 1235 859.34" fill="#fff"/>
  <g>
    <path d="M1242.2,883.71c-5.62-5-4.54-14.62-9.72-20-6.64-6.93-19.39-9.3-24.84,1a16.31,16.31,0,0,0-1.8,8.18c.25,7.67,4.46,14.12,8.67,20.25a177.41,177.41,0,0,1-58.48,19c-9.49,1.33-19.13,1.91-28.4,4.36s-18.35,7-24,14.74c-4.31,5.85-8.06,14.45-7.26,21.71a8.42,8.42,0,0,0,6.9,7.3c58.58,10.82,95.86,12.39,182.72,11.3a11.75,11.75,0,0,0,11.54-10c3.4-24.33-1.27-52.81-12-73.56a5.78,5.78,0,0,0-8.83-1.79C1270.21,891.6,1257.84,897.59,1242.2,883.71Z" fill="#fff" stroke="#000" stroke-miterlimit="10"/>
    <path d="M1099.6,940.21s144.42,19.15,198.74,9.3" fill="#fff" stroke="#000" stroke-miterlimit="10"/>
    <path d="M1164,911.54c8.26,7,20.25,8.37,30.83,6s20.11-8.09,29.29-13.87L1213.35,892" fill="none" stroke="#000" stroke-miterlimit="10"/>
    <path d="M1182.27,907c4,4.69,7,8.82,12.81,10.84" fill="none" stroke="#000" stroke-miterlimit="10"/>
    <path d="M1198.1,900.15a55.7,55.7,0,0,0,13.6,11.49" fill="none" stroke="#000" stroke-miterlimit="10"/>
    <path d="M1207.52,950.26c5.7-9.59,16.92-14.5,27.85-16.76s22.28-2.47,33-5.63,21.23-10.16,24.39-20.87" fill="none" stroke="#000" stroke-miterlimit="10"/>
    <path d="M1220.83,952.4c7.1-6,16.62-8.32,25.87-9.35s18.66-1,27.71-3.16,18-7,22.47-15.15" fill="none" stroke="#000" stroke-miterlimit="10"/>
  </g>
  <path d="M1439,345.52s78.46,31.39,71.59,123.57,0,140.24,0,140.24l111,203.16a7.28,7.28,0,0,1-4.94,10.62l-72.31,14.61a24.24,24.24,0,0,1-24.34-9.43c-29.51-40.22-120.18-166.68-130-215-11.77-57.86,5.5-231.3-12-253.93Z" fill="#1b0042"/>
  <path d="M1402.05,346s47.37,70-10,142.46-78.62,116.13-78.62,116.13L1300.2,809.07a22.23,22.23,0,0,1-21.76,20.86L1224.5,831a22.23,22.23,0,0,1-22.65-21.2c-2.86-61.31-9.08-224.9,9.51-269.54,22.69-54.52,134.22-188.46,132.44-217Z" fill="#1b0042"/>
  <g>
    <path d="M1376.72,181.4a54.64,54.64,0,0,1-8.37.79c-7.91.16-15.28,6.49-19.87,13.38-5.36,8-9,17.51-16.37,23.71-5.91,5-6.92,8.36-12.24,14-6.67,7-8.87,19.2-5.11,28.13,2.18,5.18-.06,10.58,4.39,14,5.94,4.62,9.71,23,8.15,30.36-3.25,15.27-5.83,17.11-10.48,32.12-2.86,9.24-5.47,20.16.36,27.87,6,7.91,17.44,6.79,25.72,1.34,11.95-7.87,38-3.7,49,2.94,9.24,5.56,35,20.17,45.41,23.09s21.11,6,31.77,4.41,21.26-9.18,22.56-19.88c1.53-12.51-9.29-22.59-15.87-33.34-9.59-15.67-46.6-43.91-44.35-82.75,1.07-18.34-.82-37.55-9.48-53.75C1414,193,1393.27,178.47,1376.72,181.4Z" fill="#5c04a0"/>
    <g clip-path="url(#clip-path-2)">
      <path d="M1389.37,181.88c-6.12,8.59-12.29,17.27-16.41,27s-6,20.69-3.38,30.9c5,19,23.67,30.33,36.35,45.26,9.93,11.68,16.31,25.9,22.15,40.07s11.36,28.63,19.9,41.36,20.57,23.79,35.35,27.86" fill="none" stroke="#fff" stroke-linecap="round" stroke-linejoin="round" stroke-width="2" opacity="0.15"/>
      <path d="M1377.89,181c-7.55,11.27-15.16,22.66-19.91,35.36s-6.43,27-1.91,39.8c5.75,16.25,20.29,27.48,30.72,41.2,11.63,15.31,18.13,33.79,25.46,51.57s16.08,35.73,30.8,48.1" fill="none" stroke="#fff" stroke-linecap="round" stroke-linejoin="round" stroke-width="2" opacity="0.15"/>
      <path d="M1363.3,181.74l-21.51,42c-4.16,8.14-8.43,16.66-8.47,25.79-.07,15.21,11.22,27.67,20.65,39.6a215.48,215.48,0,0,1,40.17,82.48" fill="none" stroke="#fff" stroke-linecap="round" stroke-linejoin="round" stroke-width="2" opacity="0.15"/>
      <path d="M1328.1,222.43c-5.73,12.89-11.6,26.73-9.25,40.63s12.61,25.21,20,37.4a100.19,100.19,0,0,1,12.79,68.68" fill="none" stroke="#fff" stroke-linecap="round" stroke-linejoin="round" stroke-width="2" opacity="0.15"/>
      <path d="M1323.37,308.8a88.81,88.81,0,0,1,1.47,63.84" fill="none" stroke="#fff" stroke-linecap="round" stroke-linejoin="round" stroke-width="2" opacity="0.15"/>
    </g>
  </g>
  <path d="M1362.27,388c20.48,33.13,30.43,73.77,24,112.19" fill="none" stroke="#fff" stroke-linecap="round" stroke-linejoin="round" stroke-width="2"/>
  <path d="M1366.34,181.27c-6.52.79-13.85,7.57-17.65,12.93s-7.5,10.45-11.47,15.69c-5.81,7.67-21.22,22.11-24.63,30.14-8.74,20.57-3,29,14.17,52.52a113.38,113.38,0,0,1-3.23,26.84" fill="none" stroke="#fff" stroke-linecap="round" stroke-linejoin="round" stroke-width="2"/>
  <path d="M1111,222.49c-10.57-7.44-13.14-22.33-22.59-31.16" fill="none" stroke="#000" stroke-miterlimit="10"/>
  <g>
    <path d="M1392.8,236.89c13.18,34.48,18.23,75.57,36.42,107.69,4.18,7.38,4.67,14.22,4.49,21.77-.46,18.79-7.45,36.63-18.66,51.72-9.84,13.26-11.27,50.52.43,62.18,6,5.94,14.8,7.67,23.09,9.12l67.34,11.76c8.11,1.42,20-4.55,27.75-7.4,11.32-4.17,18.25-24.43,19.63-36.41,2.19-19.12-5.77-37.79-13.55-55.4-21.62-48.9-13.06-80.4-47.15-126.34-11.43-15.4-39.75-52-54.9-74.42-6.64-9.81-39.6-18.35-47.87-5.35C1381.9,208.25,1388.09,224.54,1392.8,236.89Z" fill="#5c04a0"/>
    <g clip-path="url(#clip-path-3)">
      <path d="M1532.53,495.34c10.19-33.34,1.82-69.18-6.59-103-7-28.27-14.1-56.71-26-83.28-13.89-30.87-34-58.45-54-85.78-9.45-12.92-19.09-26-31.82-35.74" fill="none" stroke="#fff" stroke-linecap="round" stroke-linejoin="round" stroke-width="2" opacity="0.15"/>
      <path d="M1519.74,499.48c2.44-34.54-4.7-69-11.79-102.86-5.8-27.69-11.64-55.53-22-81.85-18.19-46.14-49.48-85.72-80.34-124.54" fill="none" stroke="#fff" stroke-linecap="round" stroke-linejoin="round" stroke-width="2" opacity="0.15"/>
      <path d="M1490,451.43a507.15,507.15,0,0,0-95.37-258.69" fill="none" stroke="#fff" stroke-linecap="round" stroke-linejoin="round" stroke-width="2" opacity="0.15"/>
      <path d="M1457.67,492.34a371.36,371.36,0,0,0-32.91-213.59c-11.14-23.05-24.66-44.89-36-67.87" fill="none" stroke="#fff" stroke-linecap="round" stroke-linejoin="round" stroke-width="2" opacity="0.15"/>
      <path d="M1433.32,487.7c-7.91-24.59-2.6-51.21,1.67-76.7s7.1-53.07-5-75.92" fill="none" stroke="#fff" stroke-linecap="round" stroke-linejoin="round" stroke-width="2" opacity="0.15"/>
    </g>
  </g>
  <path d="M1500.53,450.82a10.46,10.46,0,0,1,8.56,11.28,124.2,124.2,0,0,0,.81,30.09c1.78,11.87,5.29,23.72,4,35.65-2.28,21.34-12.29,34.64-21.08,59.81-1.25,3.57-3,7.05-3.87,10.74-.31,1.38-.87,3-2.61,2.92a2.82,2.82,0,0,1-1.78-.79c-3.21-3-5.32-6.5-4.71-10.83a85.93,85.93,0,0,1-5.34,14.93,3.57,3.57,0,0,1-6.07.66,16.75,16.75,0,0,1-3.52-11.12,54,54,0,0,1-7.3,13.43,3.82,3.82,0,0,1-6.56-.78c-2.49-5.7.43-15.41,2.54-21.43,2.77-7.89,5.37-12.07,9.05-19.58,6.56-13.42,7.7-28.56,4.37-43.11-6.17,5.8-7.24,15-8,23.48s-2,17.71-8.36,23.31a1.66,1.66,0,0,1-1.55.56c-.65-.23-.76-1.08-.77-1.77-.24-18.46-.44-37.27,5-54.9,5.24-17,15.61-32.68,17.83-50a12.42,12.42,0,0,1,7.13-9.6A38,38,0,0,1,1500.53,450.82Z" fill="#ffc9e6"/>
  <path d="M1488.19,525.28c3.38,6.53.56,14.41-2.28,21.19-7.2,17.21-15.18,34-22.38,51.19" fill="none" stroke="#000" stroke-linecap="round" stroke-linejoin="round"/>
  <path d="M1499.07,526.69c2.55,10.95-2.06,23.92-6.93,34S1482,581,1479.35,592" fill="none" stroke="#000" stroke-linecap="round" stroke-linejoin="round"/>
  <path d="M1466,514.32l2.26,15.14" fill="none" stroke="#000" stroke-linecap="round" stroke-linejoin="round"/>
  <path d="M1460.21,590.93a2.22,2.22,0,0,0-2.6,2,43.41,43.41,0,0,0-1.68,9.25,5.09,5.09,0,0,0,.29,2.6,1.9,1.9,0,0,0,2.14,1.13,2.73,2.73,0,0,0,1.34-1.3,58,58,0,0,0,5.17-9.88C1466.54,590.45,1463.73,590.85,1460.21,590.93Z" fill="none" stroke="#000" stroke-linecap="round" stroke-linejoin="round"/>
  <path d="M1473.83,590a3.08,3.08,0,0,0-1.54.61,2.88,2.88,0,0,0-.7,1.83,44.09,44.09,0,0,0-.16,9.4,5.08,5.08,0,0,0,.71,2.52,1.91,1.91,0,0,0,2.3.77,2.74,2.74,0,0,0,1.11-1.5,57.9,57.9,0,0,0,3.5-10.59C1480,588.5,1477.29,589.34,1473.83,590Z" fill="none" stroke="#000" stroke-linecap="round" stroke-linejoin="round"/>
  <path d="M1486.66,589.05a2.31,2.31,0,0,0-1.17.49A2.26,2.26,0,0,0,1485,591a33,33,0,0,0,.11,7.17,3.84,3.84,0,0,0,.6,1.91,1.45,1.45,0,0,0,1.77.53,2,2,0,0,0,.81-1.17,43.72,43.72,0,0,0,2.42-8.16C1491.33,587.76,1489.28,588.47,1486.66,589.05Z" fill="none" stroke="#000" stroke-linecap="round" stroke-linejoin="round"/>
  <path d="M1448.26,554.52l4.79-.55s.43,10.91-3.29,14.66a.85.85,0,0,1-1.44-.6Z" fill="none" stroke="#000" stroke-linecap="round" stroke-linejoin="round"/>
  <path d="M1426.46,391.17c9.11-17.62,8.39-38.95,2.87-58s-15.45-36.47-24.45-54.15-18.24-34.27-20-54c-.63-7,.62-18.24,3.72-24.55s10.58-13.33,17.6-13" fill="none" stroke="#fff" stroke-linecap="round" stroke-linejoin="round" stroke-width="2"/>
  <g>
    <path d="M1080.86,229.75c-1.89,0-3.52-1.17-5-3.59-7.69-12.81-14.68-28.14-20.51-41.45l-.21-.47-.46.22a55.63,55.63,0,0,1-20.43,5c-1,0-2,.07-2.92.07a56,56,0,0,1-2.82-111.93c1,0,2-.07,2.92-.07A56,56,0,0,1,1065,178.31l-.32.23.16.36a400.3,400.3,0,0,0,20.67,42.48c1.1,1.89,1.45,3.51,1.06,4.79a4.89,4.89,0,0,1-2.79,2.79A6.8,6.8,0,0,1,1080.86,229.75Z" fill="#fff"/>
    <path d="M1031.46,77v1a55.5,55.5,0,0,1,33.28,99.88l-.63.47.31.72a402.35,402.35,0,0,0,20.7,42.53c1,1.77,1.36,3.25,1,4.39a4.39,4.39,0,0,1-2.53,2.49,6.24,6.24,0,0,1-2.74.74c-1.7,0-3.19-1.09-4.54-3.35-7.68-12.79-14.66-28.1-20.48-41.39l-.41-.93-.93.42a55.11,55.11,0,0,1-20.25,5c-1,0-1.93.07-2.89.07a55.5,55.5,0,0,1-2.79-110.93c1,0,1.93-.07,2.88-.07V77m0,0c-1,0-2,0-2.94.07A56.5,56.5,0,0,0,1031.36,190c1,0,2,0,2.94-.08a56,56,0,0,0,20.62-5c6.15,14,13,29,20.54,41.5,1.64,2.74,3.46,3.84,5.4,3.84a7.23,7.23,0,0,0,3.18-.84c3.15-1.55,4.37-4.08,2-8.28a396.85,396.85,0,0,1-20.65-42.42A56.5,56.5,0,0,0,1031.45,77Z"/>
  </g>
  <path d="M1031.44,92v1a40.5,40.5,0,0,1,2,80.94c-.7,0-1.41.06-2.11.06a40.5,40.5,0,0,1-2-80.95c.7,0,1.41,0,2.11,0V92m0,0c-.71,0-1.43,0-2.16,0a41.5,41.5,0,0,0,2.09,83q1.08,0,2.16-.06A41.5,41.5,0,0,0,1031.44,92Z"/>
  <path d="M1068.19,238.9a116.21,116.21,0,0,0,23.62-4.21c4.18-1.2,9.06-3.62,9.16-8,.07-3-2.37-5.52-5.16-6.5s-5.85-.74-8.79-.37c-8.58,1.07-19,2-27.25,4.8,8.54-2.33,18.41-4.61,26.68-7.75a21.7,21.7,0,0,0,7.06-3.79c2-1.82,3.3-4.6,2.65-7.21s-3.24-4.53-5.93-5.15a21.44,21.44,0,0,0-8.21.24,251.13,251.13,0,0,0-25.15,5.53" fill="#ffc9e6" stroke="#000" stroke-miterlimit="10"/>
  <path d="M1056.42,225.23c3.21-.67,14.7-3.21,21.74-4.68" fill="none" stroke="#000" stroke-linecap="round" stroke-linejoin="round"/>
  <path d="M1060.12,240.31c3.56-.59,16-2.41,19.55-3" fill="#fff" stroke="#000" stroke-linecap="round" stroke-linejoin="round"/>
  <path d="M1089.45,233.67l-3-9.57a20.84,20.84,0,0,1,5.75-1.63,5.84,5.84,0,0,1,4.92,1.84c1.65,2,1.07,5.22-.68,7.16S1092,233.12,1089.45,233.67Z" fill="none" stroke="#000" stroke-linecap="round" stroke-linejoin="round"/>
  <path d="M1085.78,214.18l-3-9.57a20.78,20.78,0,0,1,5.74-1.63,5.83,5.83,0,0,1,4.92,1.84c1.65,2,1.07,5.22-.68,7.16S1088.33,213.63,1085.78,214.18Z" fill="none" stroke="#000" stroke-linecap="round" stroke-linejoin="round"/>
  <path d="M1073.26,253.4c8.2.16,19.1-3.37,26.94-5.76,2.12-.65,4.53-1.75,4.9-3.93.52-3-3.22-4.89-6.25-5.45-10.49-2-20.88.36-32,.86" fill="#ffc9e6" stroke="#000" stroke-miterlimit="10"/>
  <path d="M1092.66,249.48l-2.45-6.5a19.7,19.7,0,0,1,7.17-.88c2.4.29,4.82,1.69,5.63,4l-9.84,3.71" fill="none" stroke="#000" stroke-linecap="round" stroke-linejoin="round"/>
  <g>
    <path d="M1365.55,96s-10.79,5.1-24.62,19.1c-15.2,15.39-8.91,55.49,1.29,55.1s26-6.54,26-6.54L1360.79,189a9,9,0,0,0,8.91,9.87l6.5.08a14.15,14.15,0,0,0,14.21-12.54c1.31-11.42,9.81-37.1,14.08-48.34.17-.46.34-.92.49-1.38,5.81-17.5-5.29-36-23.24-40.2A37.15,37.15,0,0,0,1365.55,96Z" fill="#ffc9e6"/>
    <path d="M1378.8,131.62a11.14,11.14,0,0,1,9.65-6.89c4.18-.07,8.33,3.08,8.94,7.21.4,2.8-.71,5.61-2.22,8a13,13,0,0,1-5.38,5.14,6.81,6.81,0,0,1-7.12-.68" fill="none" stroke="#000" stroke-linecap="round" stroke-linejoin="round"/>
    <path d="M1368,163.61l14-2.82s-4.17,11.9-16.94,16.07Z" fill="#1b0042"/>
    <path d="M1361.56,132.21a14.32,14.32,0,0,0-6-.87,6.8,6.8,0,0,0-4.7,2.61,1.13,1.13,0,0,0,.61,1.72,13.49,13.49,0,0,0,9.33,0,3.65,3.65,0,0,0,1.57-1A1.56,1.56,0,0,0,1361.56,132.21Z" fill="none" stroke="#000" stroke-linecap="round" stroke-linejoin="round"/>
    <path d="M1335.48,131a11.9,11.9,0,0,1,4.88-.76,5.75,5.75,0,0,1,4.05,2.17.93.93,0,0,1-.48,1.43,11.45,11.45,0,0,1-8,.15,4.21,4.21,0,0,1-1-.54A1.44,1.44,0,0,1,1335.48,131Z" fill="none" stroke="#000" stroke-linecap="round" stroke-linejoin="round"/>
    <path d="M1345.72,130.49a60.14,60.14,0,0,1-5.38,12.25c-.37.65-.77,1.46-.42,2.12a2.25,2.25,0,0,0,1.85.87l6.78.84" fill="none" stroke="#000" stroke-linecap="round" stroke-linejoin="round"/>
    <path d="M1354.43,133.48a1.68,1.68,0,0,1-3,1.51A1.68,1.68,0,1,1,1354.43,133.48Z"/>
    <path d="M1337.5,131.92a1.49,1.49,0,0,1-2.67,1.34A1.49,1.49,0,1,1,1337.5,131.92Z"/>
    <path d="M1346.87,153a6.89,6.89,0,0,0-9.33-1.27C1340.46,151.93,1344,152.7,1346.87,153Z" fill="none" stroke="#000" stroke-linecap="round" stroke-linejoin="round"/>
    <path d="M1337.49,152a4.73,4.73,0,0,0,4.06,3.28c1.85.14,4.88-.68,5.67-2.35"/>
    <circle cx="1354.95" cy="136.35" r="7.67" fill="none" stroke="#000" stroke-linecap="round" stroke-linejoin="round"/>
    <circle cx="1336.02" cy="134.4" r="7.67" fill="none" stroke="#000" stroke-linecap="round" stroke-linejoin="round"/>
    <line x1="1362.35" y1="134.63" x2="1378.12" y2="130.13" fill="none" stroke="#000" stroke-linecap="round" stroke-linejoin="round"/>
    <path d="M1382.76,137.15a11.2,11.2,0,0,1,9.53-6.23" fill="none" stroke="#000" stroke-linecap="round" stroke-linejoin="round"/>
    <path d="M1385.4,134.65c.51,2.8,1.55,3.29,2.06,6.09" fill="none" stroke="#000" stroke-linecap="round" stroke-linejoin="round"/>
    <path d="M1392.48,145.52c-15.27-1.88-14.47,14.07-16.56,30.07a11.8,11.8,0,0,0,11,13.32c7.43.42,15.9.18,23.19,0a11.83,11.83,0,0,0,11.52-10.32,178.73,178.73,0,0,0,1-32.69c-.89-14.29-5-28.71-13.79-40s-22.76-19-37.06-18.24-28.85,7.91-31.58,22c0,0,43.71-21.39,56.71,1S1403.27,146.84,1392.48,145.52Z" fill="#1b0042"/>
    <path d="M1381.4,88.88C1343.07,80,1328,106,1328.67,121c.07,1.75.34,3.4,2.09,3.53,13.39,1,34.08,1.9,47.19,6.52,0,0,11.13-12.49,18.12-2.32,6.77,9.86-8.3,17.68-8.3,17.68l4.65,15.33,22.21-7S1428.55,99.79,1381.4,88.88Z" fill="#1b0042"/>
    <path d="M1383.28,140.49c-3.62-1.88-8.68.56-10.21,4.93s.79,9.69,4.71,10.75,8.52-2.39,9.32-7" fill="none" stroke="#fff" stroke-miterlimit="10"/>
    <line x1="1347.84" y1="134.43" x2="1343.93" y2="133.87" fill="none" stroke="#000" stroke-linecap="round" stroke-linejoin="round"/>
  </g>
</svg>
