<svg id="Layer_1" data-name="Layer 1" xmlns="http://www.w3.org/2000/svg" xmlns:xlink="http://www.w3.org/1999/xlink" viewBox="0 0 1920 1080">
  <defs>
    <clipPath id="clip-path">
      <path d="M881.91,190.34c12.33,10.54,20,25.51,31.1,37.31s25.18,20,38.58,28.9,26.63,19.12,34.47,33.19,9.08,32.91-.88,45.57c-9.52,12.09-26.31,15.63-41.69,15.89s-31.11-1.87-45.94,2.24c-15,4.17-29.46,14.69-44.7,11.36-16.25-3.56-25-21.24-28.65-37.47-3.28-14.74-3.81-31.53,5.39-43.51,7.12-9.27,19-13.93,30.64-14.9s23.31,1.31,34.78,3.57c-1.32-.26-12.26-31.16-14.27-34.7a152.57,152.57,0,0,0-24.87-32.49c-6.07-6.06-19.88-15.9-9-24C856,174.52,875,184.46,881.91,190.34Z" fill="#5c04a0"/>
    </clipPath>
    <clipPath id="clip-path-2">
      <path d="M882.21,225.16c13.1,11.76,24.88,28.73,20.5,45.77-4.75,18.48-26.19,28.21-33,46-4.33,11.33-2.4,24.1-5.3,35.87-6.55,26.65-45.34,36.08-68.53,20.68-21-14-27.13-34-21.77-58.62,4.73-21.78,20.32-40.23,23.77-62.25,1.92-12.27-.08-24.81.61-37.21,1.14-20.75,16-43.73,39.6-32.32,7,3.39,10.3,1.55,15.17,7.28C861.84,200.49,872.38,216.34,882.21,225.16Z" fill="#5c04a0"/>
    </clipPath>
    <clipPath id="clip-path-3">
      <path d="M830.49,185.75c-16.71-10-37,1.26-49.24,16.38s-18.43,34.29-29.46,50.34c-9.12,13.26-21.36,24.09-31,37S704,318.55,707.43,334.27c4,17.9,20.53,30.28,37.48,37.25,34.87,14.36,74.59,12.46,111.17,3.3,20.14-5,40.14-12.41,56.34-25.39s28.24-32.3,28.7-53.05-12.6-42.17-32.57-47.86c-19.74-5.62-29.44-5.72-56,13.1-16.08,11.4-35.1,20.67-54.79,19.91,12.09-13.5,24.36-27.25,32-43.69s18.62-34,2-52.54c-1.46,2.76-9-4.58-10.45-1.83" fill="#5c04a0"/>
    </clipPath>
  </defs>
  <title>Vector 1</title>
  <rect x="959.96" y="75.12" width="436.53" height="292.05" rx="25.44" fill="#fff" stroke="#000" stroke-miterlimit="10" stroke-width="2"/>
  <g>
    <path d="M881.91,190.34c12.33,10.54,20,25.51,31.1,37.31s25.18,20,38.58,28.9,26.63,19.12,34.47,33.19,9.08,32.91-.88,45.57c-9.52,12.09-26.31,15.63-41.69,15.89s-31.11-1.87-45.94,2.24c-15,4.17-29.46,14.69-44.7,11.36-16.25-3.56-25-21.24-28.65-37.47-3.28-14.74-3.81-31.53,5.39-43.51,7.12-9.27,19-13.93,30.64-14.9s23.31,1.31,34.78,3.57c-1.32-.26-12.26-31.16-14.27-34.7a152.57,152.57,0,0,0-24.87-32.49c-6.07-6.06-19.88-15.9-9-24C856,174.52,875,184.46,881.91,190.34Z" fill="#5c04a0"/>
    <g clip-path="url(#clip-path)">
      <path d="M848.67,184.12c14.47,3.39,25.52,15,34.06,27.17s15.63,25.58,26.52,35.69" fill="none" stroke="#fff" stroke-linecap="round" stroke-linejoin="round" stroke-width="2" opacity="0.15"/>
      <path d="M944.68,282.07c7.68,6.59,13.69,15.44,15.64,25.37s-.56,20.94-7.62,28.19-18.81,10-27.86,5.44" fill="none" stroke="#fff" stroke-linecap="round" stroke-linejoin="round" stroke-width="2" opacity="0.15"/>
      <path d="M856.57,178.34c8.52.48,16.39,5,22.64,10.82s11.17,12.88,16.3,19.71a321.58,321.58,0,0,0,44.67,48.18c8.66,7.61,17.75,14.77,25.74,23.07s15,17.92,18.38,28.93,2.39,28.1-14.14,37.46" fill="none" stroke="#fff" stroke-linecap="round" stroke-linejoin="round" stroke-width="2" opacity="0.15"/>
    </g>
  </g>
  <path d="M891,800.7c0,2.63-20.15,109.5-20.15,109.5H824.46l21-113H891" fill="#ffc9e6"/>
  <polygon points="884.28 838.54 838.33 835.66 824.46 910.2 871.76 909.32 884.28 838.54" fill="#fca1bb"/>
  <path d="M924.09,338.16c10.89,129.37,4,321.88-19.77,449.51-1.19,6.35-2.48,12.87-6,18.28-6.12,9.38-18,13.65-29.22,13.5-8.45-.11-16.65-2.34-24.68-5.07a12.34,12.34,0,0,1-8.39-11C831.39,718.18,868.56,633,860.4,547.86c-5-52.17-22.45-138.49-16.08-190.52C873.38,355.27,895.76,331.35,924.09,338.16Z" fill="#151614"/>
  <polygon points="882.95 846.08 836.99 842.85 835.67 849.93 881.6 853.7 882.95 846.08" fill="#151614"/>
  <polygon points="881.2 856.59 834.37 853.36 833.05 860.44 879.85 864.21 881.2 856.59" fill="#fff"/>
  <path d="M828,808.44c0,2.63-20.15,109.5-20.15,109.5H761.45l21-113H828" fill="#ffc9e6"/>
  <polygon points="821.27 846.28 775.31 843.4 761.45 917.94 808.75 917.06 821.27 846.28" fill="#fca1bb"/>
  <path d="M864.52,353.3c10.89,129.37.58,314.48-23.22,442.11-1.18,6.35-2.48,12.87-6,18.28-6.12,9.38-18,13.65-29.22,13.5-8.44-.11-16.64-2.34-24.68-5.07a12.36,12.36,0,0,1-8.39-11c-4.63-85.23-5.82-170.39-14-255.55-5-52.17-16.67-101.33,20.61-198.45C808.68,355.07,836.19,346.49,864.52,353.3Z" fill="#151614"/>
  <polygon points="819.93 853.81 773.98 850.59 772.66 857.67 818.59 861.44 819.93 853.81" fill="#151614"/>
  <polygon points="818.18 864.33 771.35 861.1 770.03 868.18 816.83 871.95 818.18 864.33" fill="#fff"/>
  <path d="M882.48,385.24s6.92,231.08-42.8,424.12" fill="none" stroke="#fff" stroke-linecap="round" stroke-linejoin="round" stroke-width="2"/>
  <path d="M869.52,99.64s9,7.14,19,23.33c11,17.79-3.7,54.15-13.2,51.56s-23.09-11.82-23.09-11.82l-3.45,25-27.65-6s5.19-32,2.59-51c-.05-.39-.1-.79-.14-1.18-1.79-17.79,12.63-32.93,30.51-33A35.88,35.88,0,0,1,869.52,99.64Z" fill="#ffc9e6"/>
  <path d="M849.31,130.25a10.74,10.74,0,0,0-7.58-8.59c-3.92-1-8.51,1.08-10,4.84-1,2.54-.55,5.43.35,8a12.65,12.65,0,0,0,3.94,6,6.59,6.59,0,0,0,6.85.9" fill="none" stroke="#000" stroke-linecap="round" stroke-linejoin="round"/>
  <path d="M852.48,162.68,839.94,157a21.6,21.6,0,0,0,10.56,18.38Z" fill="#1b0042"/>
  <path d="M865.4,134.55a13.77,13.77,0,0,1,5.86.49,6.56,6.56,0,0,1,3.85,3.48,1.11,1.11,0,0,1-1,1.49,13,13,0,0,1-8.78-2,3.67,3.67,0,0,1-1.25-1.32A1.51,1.51,0,0,1,865.4,134.55Z" fill="none" stroke="#000" stroke-linecap="round" stroke-linejoin="round"/>
  <path d="M890.19,139.11a11.31,11.31,0,0,0-4.42-1.77,5.5,5.5,0,0,0-4.28,1.16.9.9,0,0,0,.14,1.45,11,11,0,0,0,7.44,1.87,4.08,4.08,0,0,0,1.09-.29A1.39,1.39,0,0,0,890.19,139.11Z" fill="none" stroke="#000" stroke-linecap="round" stroke-linejoin="round"/>
  <path d="M880.67,136.38a59,59,0,0,0,2.4,12.69c.21.7.41,1.54-.07,2.09a2.17,2.17,0,0,1-1.92.42l-6.56-.69" fill="none" stroke="#000" stroke-linecap="round" stroke-linejoin="round"/>
  <path d="M871.83,137.3a1.62,1.62,0,0,0,2.49,2.07A1.62,1.62,0,1,0,871.83,137.3Z"/>
  <path d="M888.1,139.51a1.45,1.45,0,0,0,2.22,1.85A1.45,1.45,0,1,0,888.1,139.51Z"/>
  <path d="M874.71,157.26a6.64,6.64,0,0,1,9,.84C881,157.7,877.51,157.66,874.71,157.26Z" fill="none" stroke="#000" stroke-linecap="round" stroke-linejoin="round"/>
  <path d="M883.74,158.42a4.56,4.56,0,0,1-4.54,2.19c-1.77-.27-4.44-1.7-4.82-3.44"/>
  <circle cx="870.72" cy="139.89" r="7.41" fill="none" stroke="#000" stroke-linecap="round" stroke-linejoin="round"/>
  <circle cx="888.96" cy="142.17" r="7.41" fill="none" stroke="#000" stroke-linecap="round" stroke-linejoin="round"/>
  <line x1="864.13" y1="136.65" x2="850.27" y2="128.98" fill="none" stroke="#000" stroke-linecap="round" stroke-linejoin="round"/>
  <path d="M844.38,134.59a10.79,10.79,0,0,0-7.61-7.94" fill="none" stroke="#000" stroke-linecap="round" stroke-linejoin="round"/>
  <path d="M842.44,131.65c-1.09,2.52-2.18,2.77-3.27,5.29" fill="none" stroke="#000" stroke-linecap="round" stroke-linejoin="round"/>
  <path d="M856.17,89.46c38,0,40.14,29.53,42.63,41.66a2.41,2.41,0,0,1-2.74,2.87c-12.81-2-32.48-5.63-45.82-4.14,0,0-7.75-14.17-16.54-6.12-8.52,7.79,4,18.44,4,18.44L830,155.58l-19.38-11.4S809.43,89.46,856.17,89.46Z" fill="#1b0042"/>
  <path d="M843.17,137.61c3.81-1,8,2.42,8.53,6.87s-2.86,8.94-6.77,9.08-7.5-4.1-7.25-8.58" fill="none" stroke="#fff" stroke-miterlimit="10"/>
  <line x1="877.82" y1="139.62" x2="881.63" y2="139.95" fill="none" stroke="#000" stroke-linecap="round" stroke-linejoin="round"/>
  <g>
    <path d="M882.21,225.16c13.1,11.76,24.88,28.73,20.5,45.77-4.75,18.48-26.19,28.21-33,46-4.33,11.33-2.4,24.1-5.3,35.87-6.55,26.65-45.34,36.08-68.53,20.68-21-14-27.13-34-21.77-58.62,4.73-21.78,20.32-40.23,23.77-62.25,1.92-12.27-.08-24.81.61-37.21,1.14-20.75,16-43.73,39.6-32.32,7,3.39,10.3,1.55,15.17,7.28C861.84,200.49,872.38,216.34,882.21,225.16Z" fill="#5c04a0"/>
    <g clip-path="url(#clip-path-2)">
      <path d="M846,184.53,877.72,228c11.63,15.95,23.6,32.65,27.06,52.09" fill="none" stroke="#fff" stroke-miterlimit="10" stroke-width="2" opacity="0.15"/>
      <path d="M827.35,177.47c13.58,17.46,33.4,39.34,43.3,59.13s14.47,43.48,6.48,64.11" fill="none" stroke="#fff" stroke-miterlimit="10" stroke-width="2" opacity="0.15"/>
      <path d="M811.67,180.44c13.33,15.26,33.25,35.7,45.42,61.43,10.83,22.93,14,50.22,4.41,73.69" fill="none" stroke="#fff" stroke-miterlimit="10" stroke-width="2" opacity="0.15"/>
      <path d="M802.7,194c21.93,28.42,44.58,58.41,50.45,93.83,5.72,34.56-6.45,71.59-31.55,96" fill="none" stroke="#fff" stroke-miterlimit="10" stroke-width="2" opacity="0.15"/>
    </g>
  </g>
  <path d="M926.46,240.93c6.15-1.24,13.47-1.6,15.7,4.28,3.55-1,9.74,2.25,10.8,5.8a11,11,0,0,1,8.63,12.59c-4.61-1.12-9.16,2.41-11.58,6.49s-3.53,8.85-6.09,12.84c-5.8,9.05-18.79,12.14-28.54,7.62S899.66,275,900.07,264.26c.3-8.27,4.09-13,11.29-16.45C917.14,245,920.05,242.22,926.46,240.93Z" fill="#ffc9e6"/>
  <g>
    <path d="M830.49,185.75c-16.71-10-37,1.26-49.24,16.38s-18.43,34.29-29.46,50.34c-9.12,13.26-21.36,24.09-31,37S704,318.55,707.43,334.27c4,17.9,20.53,30.28,37.48,37.25,34.87,14.36,74.59,12.46,111.17,3.3,20.14-5,40.14-12.41,56.34-25.39s28.24-32.3,28.7-53.05-12.6-42.17-32.57-47.86c-19.74-5.62-29.44-5.72-56,13.1-16.08,11.4-35.1,20.67-54.79,19.91,12.09-13.5,24.36-27.25,32-43.69s18.62-34,2-52.54c-1.46,2.76-9-4.58-10.45-1.83" fill="#5c04a0"/>
    <g clip-path="url(#clip-path-3)">
      <path d="M818.28,182.05c-13.95,6.07-23,19.78-29.36,33.57s-11.15,28.6-20.32,40.73c-14.59,19.29-40,31.62-45.66,55.13-4.94,20.66,8.65,42.16,26.79,53.21s39.9,14,61,16.69" fill="none" stroke="#fff" stroke-linecap="round" stroke-linejoin="round" stroke-width="2" opacity="0.15"/>
      <path d="M830.43,187.33c-16.92,9-26.55,27.32-33.66,45.12s-13.09,36.76-26.15,50.8c-5.24,5.64-11.49,10.31-16.54,16.12s-9,13.27-8.14,20.93c1.4,12.83,14.66,20.42,26.35,25.92,25.47,12,51.21,24,78.7,30.12" fill="none" stroke="#fff" stroke-linecap="round" stroke-linejoin="round" stroke-width="2" opacity="0.15"/>
      <path d="M837.85,192.29c-24.32,30.26-32.4,89.83-60.65,109.16A11.12,11.12,0,0,0,772.93,313c.85,3.1,3.72,5.16,6.43,6.9A219.6,219.6,0,0,0,907.9,354" fill="none" stroke="#fff" stroke-linecap="round" stroke-linejoin="round" stroke-width="2" opacity="0.15"/>
      <path d="M804.2,285.9c-2.9,5.27,0,12.21,4.75,15.84s10.95,4.77,16.87,5.81l108.89,19.1-4.61-.45" fill="none" stroke="#fff" stroke-linecap="round" stroke-linejoin="round" stroke-width="2" opacity="0.15"/>
      <path d="M835.17,270.42a121.8,121.8,0,0,0,57.12,9.35c15.6-1.24,32.47-5.24,46.05,2.54" fill="none" stroke="#fff" stroke-linecap="round" stroke-linejoin="round" stroke-width="2" opacity="0.15"/>
      <path d="M869.27,250.12a136,136,0,0,0,54.63,5" fill="none" stroke="#fff" stroke-linecap="round" stroke-linejoin="round" stroke-width="2" opacity="0.15"/>
    </g>
  </g>
  <path d="M817.17,182.49c13,.17,21.43,10.22,22.25,17.64,1.45,13.29-4.84,26.06-10.94,38q-12.36,24-24.7,48.06c30.66-4.56,52.49-38.58,83.3-41.91,19.81-2.14,39.91,9.79,49.06,27.48s7.71,40-2.12,57.29-27.35,29.68-46.55,35" fill="none" stroke="#fff" stroke-linecap="round" stroke-linejoin="round" stroke-width="2"/>
  <path d="M823.12,266.47c-6.25,4.32-6.78,9.48-8.7,16.83a11.63,11.63,0,0,0-.23,6.45c.66,2.07,2.56,3.89,4.74,3.83,2.66-.07,4.48-2.65,5.73-5,2.76-5.2,4-10.68,5.58-16.34-1.06,2.3-1.21,5-1.53,7.52s-.39,6.18.79,8.4,5,2.75,7.32,1.73a9,9,0,0,0,4.5-5.85c1.43-6.37.41-12.82,1-19.32,0,2.75-.07,5.32-.06,8s.13,7.55,1.41,9.94c2.68,5,7.18,3.11,9.77,2.28,3-1,4.08-5.61,4.7-8.72l5-25a16.76,16.76,0,0,0-19.6,8.19,10.07,10.07,0,0,0-11.68,7.43c-2.15-1.51-3.64-1.45-6.4-1.18Z" fill="#ffc9e6"/>
  <path d="M833.42,140.34c14.77,1.56,10.55,16.39,9,31.9a11.4,11.4,0,0,1-13.24,10.14c-7.09-1.23-15-3.3-21.83-5a11.41,11.41,0,0,1-8.59-12.22,172.62,172.62,0,0,1,6.12-31c4-13.26,10.93-25.93,21.68-34.63s25.55-13,38.83-9.11,25.43,13.72,24.94,27.54c0,0-36.47-29.64-53.57-11.4S823,139.24,833.42,140.34Z" fill="#1b0042"/>
  <path d="M924.24,252.5A20.19,20.19,0,0,1,942.3,245" fill="none" stroke="#000" stroke-linecap="round" stroke-linejoin="round" stroke-width="2"/>
  <path d="M933.31,257.6c4.92-5.27,14.83-6.38,19-6.82" fill="none" stroke="#000" stroke-linecap="round" stroke-linejoin="round" stroke-width="2"/>
  <path d="M815.13,281.5l8.71-1.49s-1.73,10.69-6.78,11.7S815.13,281.5,815.13,281.5Z" fill="none" stroke="#000" stroke-linecap="round" stroke-linejoin="round"/>
  <path d="M830.27,278.47,839,277s-1.72,10.69-6.77,11.7S830.27,278.47,830.27,278.47Z" fill="none" stroke="#000" stroke-linecap="round" stroke-linejoin="round"/>
  <path d="M844.41,274.43l9.72-1.49s-.72,10.69-5.77,11.7S844.41,274.43,844.41,274.43Z" fill="none" stroke="#000" stroke-linecap="round" stroke-linejoin="round"/>
  <path d="M829.6,275.31a43,43,0,0,1,2.09-9.78" fill="none" stroke="#000" stroke-linecap="round" stroke-linejoin="round"/>
  <path d="M842.44,270.33A30.67,30.67,0,0,1,844,258.08" fill="none" stroke="#000" stroke-linecap="round" stroke-linejoin="round"/>
  <g>
    <path d="M866.87,881.29c5.15-6.73,1.88-17.15,6.45-24.26s14.24-12.13,22.12-8.62c6.39,2.84,9.7,10.31,9.67,17.3s-2.78,13.65-5.57,20.06a199.57,199.57,0,0,0,68.81,8.47c10.79-.56,21.58-2,32.36-1.28s21.82,3.83,29.77,11.14c6,5.54,12,14.24,12.7,22.44a9.5,9.5,0,0,1-6,9.59c-64.76,25.46-106.36,35-210.48,53.75-14.1-30.33-15.61-73.64-3.8-103C822.85,886.83,845.59,909.11,866.87,881.29Z" fill="#fff" stroke="#000" stroke-miterlimit="10"/>
    <path d="M1036.83,913.13s-155.7,52.27-217.92,53" fill="#fff" stroke="#000" stroke-miterlimit="10"/>
    <path d="M959.4,895.26c-7.63,9.57-20.61,13.62-32.84,13.23s-24-4.62-35.4-9l9.43-15.17" fill="none" stroke="#000" stroke-miterlimit="10"/>
    <path d="M938.2,894.15c-3.47,6.06-5.8,11.26-11.85,14.75" fill="none" stroke="#000" stroke-miterlimit="10"/>
    <path d="M919.21,890a62.53,62.53,0,0,1-12.58,15.64" fill="none" stroke="#000" stroke-miterlimit="10"/>
    <path d="M919.57,947.47c-8.38-9.38-21.85-12.41-34.43-12.55s-25.18,2.05-37.71.86S821.76,929.1,816,917.93" fill="none" stroke="#000" stroke-miterlimit="10"/>
    <path d="M905.29,952.71c-9.15-5.13-20.17-5.64-30.63-4.79s-20.87,2.92-31.35,2.47-21.45-3.84-28.13-11.93" fill="none" stroke="#000" stroke-miterlimit="10"/>
  </g>
  <g>
    <path d="M813.21,888.11c6.86-5,6.72-15.89,13.14-21.38s17.13-7.53,23.67-1.91c5.3,4.56,6.33,12.66,4.29,19.35s-6.58,12.28-11.1,17.62a199.87,199.87,0,0,0,63.48,27.88c10.5,2.55,21.25,4.28,31.36,8.06s19.81,9.94,25.32,19.23c4.17,7,7.41,17.09,5.72,25.14a9.5,9.5,0,0,1-8.55,7.44c-69.35,5.79-111.93,3-217-9-4.79-33.1,6.2-75,26-99.79C769.45,880.78,784.83,908.64,813.21,888.11Z" fill="#fff" stroke="#000" stroke-miterlimit="10"/>
    <path d="M966.86,967.43s-164.15,5.34-224-11.78" fill="#fff" stroke="#000" stroke-miterlimit="10"/>
    <path d="M897.82,928.07c-10.06,7-23.65,7.13-35.25,3.24S840.92,920,831.26,912.48l13.39-11.83" fill="none" stroke="#000" stroke-miterlimit="10"/>
    <path d="M877.84,920.92c-5.07,4.8-8.79,9.11-15.59,10.72" fill="none" stroke="#000" stroke-miterlimit="10"/>
    <path d="M860.84,911.48a62.47,62.47,0,0,1-16.54,11.37" fill="none" stroke="#000" stroke-miterlimit="10"/>
    <path d="M844.68,966.64c-5.34-11.39-17.37-18.16-29.38-21.91s-24.71-5.27-36.37-10-22.67-13.77-25-26.13" fill="none" stroke="#000" stroke-miterlimit="10"/>
    <path d="M829.5,967.56c-7.3-7.55-17.71-11.2-28-13.39s-20.83-3.2-30.74-6.64-19.44-9.84-23.51-19.51" fill="none" stroke="#000" stroke-miterlimit="10"/>
  </g>
  <text transform="translate(1044.98 252.89)" font-size="116.52" font-family="NexaBlack" letter-spacing="0.06em">404</text>
  <path d="M1002.26,879.08a39.87,39.87,0,0,1,39.27,15" fill="none" stroke="#000" stroke-miterlimit="10"/>
  <path d="M1002.24,858.67A38.2,38.2,0,0,1,1048,878.92" fill="none" stroke="#000" stroke-miterlimit="10"/>
</svg>
