<svg id="Layer_1" data-name="Layer 1" xmlns="http://www.w3.org/2000/svg" xmlns:xlink="http://www.w3.org/1999/xlink" viewBox="0 0 1920 1080">
  <defs>
    <clipPath id="clip-path">
      <path d="M563.28,357.88c13.2,5.27,38.58,26.54,52.44,29.72s29.45,2.49,40.92-5.91c8.08-5.9,13.25-14.92,17.48-24a192.79,192.79,0,0,0,15.43-50c2-12.16,3-25.05,9.84-35.32,7-10.58,19.54-16.77,32.18-18s25.4,2,37,7.17c19.32,8.61,26.85,6.54,38.72,24,5.93,8.74,10.68,20.24,5.72,29.57-4.52,8.52-16.74,33.38-22.62,41-11.46,14.93-23.08,37.73-29,48.55-11.63,21.15-28.8,64.87-44.88,82.87s-23.71,27.88-47.78,26c-13.64-1-26.56-24.16-39-29.92-23.53-10.92-47.36-28.91-70.88-39.83-12.06-5.6-18.13-33.32-25.49-44.4-5.63-8.46-14.74-28.36-4.24-34.67S553.45,354,563.28,357.88Z" fill="#5c04a0"/>
    </clipPath>
    <clipPath id="clip-path-2">
      <path d="M546.94,357.35c6.49,4,15.42,8.72,20,14.79,11.53,15.23,19.45,41.22,22.54,58,3.51,19,20.32,42.92,23.14,51.54,2.17,6.59-3.24,14.43-9.49,17.43-7.19,3.44-15.52-.31-23.4-1.49-14.86-2.24-29.39,5-42.37,12.57s-26.43,16-41.46,16.38c-10.31.27-21.95-4.85-24.44-14.85-2.63-10.59,5.74-20.31,10.56-30.1,8.49-17.27,6.1-37.65,3.87-56.77s-3.81-39.78,5.95-56.37c3.83-6.52,9.83-12.35,17.31-13.52,8.07-1.26,11,5.09,17.68,7C533,363.78,540.8,353.6,546.94,357.35Z" fill="#5c04a0"/>
    </clipPath>
    <clipPath id="clip-path-3">
      <path d="M507.57,403.2C494.13,438.36,489,480.26,470.44,513c-4.26,7.52-4.77,14.49-4.58,22.19.47,19.16,7.59,37.36,19,52.74,10,13.52,11.49,51.52-.43,63.41-6.08,6.06-15.1,7.82-23.55,9.29l-68.67,12c-8.26,1.44-20.43-4.64-28.3-7.55-11.53-4.25-18.61-24.91-20-37.13-2.23-19.5,5.88-38.53,13.82-56.48,22-49.87,13.31-82,48.08-128.83,11.65-15.71,40.53-53.08,56-75.89,6.77-10,40.38-18.71,48.81-5.46C518.69,374,512.37,390.61,507.57,403.2Z" fill="#5c04a0"/>
    </clipPath>
  </defs>
  <title>Vector 1</title>
  <g>
    <rect x="1084.87" y="142.5" width="266.85" height="259" rx="25.44" fill="#fff"/>
    <rect x="1084.87" y="142.5" width="266.85" height="259" rx="25.44" stroke-dasharray="29.65 29.65" stroke="#000" stroke-linecap="round" stroke-linejoin="round" fill="none"/>
  </g>
  <path d="M536.2,338.4c7.89,1.79,18.13,3.05,24-2.54C565,331.23,565.31,323.7,565,317c-.34-7.86-3.77-15.61-8.19-22.13-5.23-7.72-11.94-12.05-21-14.4-11-2.86-23.05-4.06-33.47.48s-18.31,16.32-15.3,27.28c-7,3-10.1,12.62-6.17,19.12s13.92,8.22,19.8,3.42c4.11,8.48.77,21.46,3.55,27a20.57,20.57,0,0,0,14.15,11.1c5.07.95,15.48,0,18.81-4.69C540.15,360,535.38,343.23,536.2,338.4Z" fill="#ffc9e6"/>
  <path d="M553.1,290.22l-15.85-6.14s-24.47,28-47.52,25.12c0,0-10.11-1.92-10.84,11.38,0,0-13.68-22.09,5.94-37.48S547.48,263.46,553.1,290.22Z" fill="#1b0042"/>
  <path d="M536.6,338.24l-22.35-3.91s11.82,18.64,24.5,24.37Z"/>
  <circle cx="465.78" cy="265.51" r="25.23" fill="#1b0042"/>
  <path d="M495.88,328.35a9.88,9.88,0,0,0-10-11.87" fill="none" stroke="#000" stroke-linecap="round" stroke-linejoin="round"/>
  <path d="M493.94,320.91A7.77,7.77,0,0,0,489,326" fill="none" stroke="#000" stroke-linecap="round" stroke-linejoin="round"/>
  <path d="M503.74,318.13a16.33,16.33,0,0,0-17.08-9.41" fill="none" stroke="#000" stroke-linecap="round" stroke-linejoin="round"/>
  <path d="M544.64,299.24a64.4,64.4,0,0,0,7.2,12.22l-6.92,1.89" fill="none" stroke="#000" stroke-linecap="round" stroke-linejoin="round"/>
  <path d="M527.82,304.23c1.32-1.68,5-2.8,7.11-3.21a9,9,0,0,1,6.18,1c-1.42,1.78-2.15,3.45-5.13,4.06C531.81,306.93,529.78,305.4,527.82,304.23Z" fill="none" stroke="#000" stroke-linecap="round" stroke-linejoin="round"/>
  <circle cx="538.94" cy="302.68" r="1.77"/>
  <g>
    <path d="M548.87,300.78c1-1.31,3.83-2.22,5.43-2.56a7,7,0,0,1,4.77.69c-1.08,1.39-1.62,2.68-3.9,3.19C552,302.81,550.4,301.65,548.87,300.78Z" fill="none" stroke="#000" stroke-linecap="round" stroke-linejoin="round"/>
    <circle cx="556.34" cy="299.42" r="1.77"/>
  </g>
  <path d="M558.51,320.62s-4.62-5.44-13,2.45Z" stroke="#000" stroke-miterlimit="10"/>
  <path d="M558.51,320.62s0,4.52-3.53,5.17-10.39-2.56-10.39-2.56Z" fill="none" stroke="#000" stroke-linecap="round" stroke-linejoin="round"/>
  <path d="M538.72,294.65a12.56,12.56,0,0,0-10.64,1.77" fill="none" stroke="#000" stroke-linecap="round" stroke-linejoin="round"/>
  <path d="M557.25,292.31a6.57,6.57,0,0,0-7.86,1.41" fill="none" stroke="#000" stroke-linecap="round" stroke-linejoin="round"/>
  <g>
    <path d="M563.28,357.88c13.2,5.27,38.58,26.54,52.44,29.72s29.45,2.49,40.92-5.91c8.08-5.9,13.25-14.92,17.48-24a192.79,192.79,0,0,0,15.43-50c2-12.16,3-25.05,9.84-35.32,7-10.58,19.54-16.77,32.18-18s25.4,2,37,7.17c19.32,8.61,26.85,6.54,38.72,24,5.93,8.74,10.68,20.24,5.72,29.57-4.52,8.52-16.74,33.38-22.62,41-11.46,14.93-23.08,37.73-29,48.55-11.63,21.15-28.8,64.87-44.88,82.87s-23.71,27.88-47.78,26c-13.64-1-26.56-24.16-39-29.92-23.53-10.92-47.36-28.91-70.88-39.83-12.06-5.6-18.13-33.32-25.49-44.4-5.63-8.46-14.74-28.36-4.24-34.67S553.45,354,563.28,357.88Z" fill="#5c04a0"/>
    <g clip-path="url(#clip-path)">
      <path d="M541.88,423.68a240.51,240.51,0,0,1,107.29,52.39c7.19,6.14,15.07,13.12,24.52,12.83,6.09-.19,11.66-3.46,16.47-7.21,18.22-14.22,29.09-35.75,37.79-57.17s16-43.76,29.32-62.63c9-12.75,20.53-23.53,30-36s16.92-27.41,15.85-43" fill="none" stroke="#fff" stroke-linecap="round" stroke-linejoin="round" stroke-width="2" opacity="0.15"/>
      <path d="M540.37,408c18.49-2.49,37.29,2.34,54.42,9.74s33,17.31,49.69,25.74c6.87,3.48,14.47,6.78,22,5.31,9.28-1.82,15.62-10.19,20.92-18a922.21,922.21,0,0,0,89.76-167.45" fill="none" stroke="#fff" stroke-linecap="round" stroke-linejoin="round" stroke-width="2" opacity="0.15"/>
      <path d="M534.07,385.78a132.63,132.63,0,0,1,98.14,22c7.18,5.07,14.89,11.17,23.61,10.15,10.81-1.26,17.06-12.53,21.75-22.36a773.42,773.42,0,0,1,84.71-138.1" fill="none" stroke="#fff" stroke-linecap="round" stroke-linejoin="round" stroke-width="2" opacity="0.15"/>
      <path d="M560.47,367c-.81-.49-1.12.82-1.54-.31,10.17-2.65,23.65,5.85,33.71,7.39" fill="none" stroke="#fff" stroke-linecap="round" stroke-linejoin="round" stroke-width="2" opacity="0.15"/>
      <path d="M672.15,362.91a473,473,0,0,0,47.63-107.27" fill="none" stroke="#fff" stroke-linecap="round" stroke-linejoin="round" stroke-width="2" opacity="0.15"/>
    </g>
  </g>
  <path d="M846.48,748.3c1.17,2.25,31.67,102.46,31.67,102.46l-39.63,20.72L806,765.64l38.88-20.33" fill="#ffc9e6"/>
  <polygon points="857.6 783.61 817.09 801.66 838.52 871.48 878.51 849.62 857.6 783.61" fill="#fca1bb"/>
  <g>
    <path d="M865.89,824.47c3.63-7.29-1.36-16.56,1.67-24.11,3.09-7.71,11.26-14.07,19.35-12.19,6.56,1.52,11.05,8,12.3,14.6s-.14,13.42-1.61,20a192.36,192.36,0,0,0,66.63-4.54c10.1-2.5,20-5.82,30.37-7.11s21.33-.35,30.18,5.12c6.71,4.14,14,11.29,16.12,18.93a9.17,9.17,0,0,1-4,10.15c-55.16,35-92.27,51.64-182.11,86.43a9.55,9.55,0,0,1-11.62-4c-14.23-23.39-21.66-55.28-19.14-81.47a6.29,6.29,0,0,1,8.17-5.38C840.86,843.77,855.75,844.79,865.89,824.47Z" fill="#fff" stroke="#000" stroke-miterlimit="10"/>
    <path d="M1032.44,823.61S894.71,901.42,836,913.51" fill="#fff" stroke="#000" stroke-miterlimit="10"/>
    <path d="M955.94,820.82c-5.47,10.45-17,16.64-28.65,18.5s-23.53,0-35.13-2.1l6.16-16.07" fill="none" stroke="#000" stroke-miterlimit="10"/>
    <path d="M935.69,823.63c-2.18,6.37-3.43,11.71-8.52,16.11" fill="none" stroke="#000" stroke-miterlimit="10"/>
    <path d="M917,823.16a60.32,60.32,0,0,1-9.05,17.09" fill="none" stroke="#000" stroke-miterlimit="10"/>
    <path d="M927.79,877.46c-9.64-7.34-22.93-7.75-34.86-5.59s-23.43,6.53-35.5,7.69-25.5-1.64-33-11.15" fill="none" stroke="#000" stroke-miterlimit="10"/>
    <path d="M915.24,885c-9.59-3.19-20.11-1.65-29.85,1.05s-19.2,6.57-29.2,8.06-21,.27-28.77-6.17" fill="none" stroke="#000" stroke-miterlimit="10"/>
  </g>
  <polygon points="859.83 790.64 819.16 808.39 821.19 815.03 862.08 797.75 859.83 790.64" fill="#151614"/>
  <polygon points="863.02 800.39 821.61 818.54 823.64 825.17 865.27 807.5 863.02 800.39" fill="#fff"/>
  <path d="M478.43,437.92c-9.55,22.91-25.2,16.72-33.24,51-5.69,24.22-15.61,60.32-7.94,84,9.38,28.91,32,46.55,55.46,53.88,66.69,20.84,179.73-36.52,216.73-57.95a1.3,1.3,0,0,0-.65-2.42h0C718.4,638.56,758,714.3,785.88,781.53c27.64-2.27,40.87-8,66.41-18.85a.78.78,0,0,1-.44,1.4c-10.61-40.19-19.64-81.16-25.23-122.34-6.78-49.93,3.23-99.34-16.4-131.06S782.75,473.81,745.76,469c-26.86-3.47-90,10.57-116.23,17.48s-54.14,12.65-80,4.62c-26.37-8.19-34.37-36.93-56.93-52.86a23.49,23.49,0,0,0-7.11-3.92A6.23,6.23,0,0,0,478.43,437.92Z" fill="#1b0042"/>
  <path d="M1050.47,807.79a77.57,77.57,0,0,0-52.86-15.41" fill="none" stroke="#000" stroke-linecap="round" stroke-linejoin="round"/>
  <path d="M1038.25,787.84a67.32,67.32,0,0,0-42.08-6.37" fill="none" stroke="#000" stroke-linecap="round" stroke-linejoin="round"/>
  <path d="M672.58,824c-.43,2.41-36.72,97-36.72,97l-42.57-7.74,38.12-100.09,41.76,7.6" fill="#ffc9e6"/>
  <polygon points="660.09 857.53 618.44 847.23 593.29 913.25 636.8 920.34 660.09 857.53" fill="#fca1bb"/>
  <g>
    <path d="M642.12,893.64c7.11-3.4,8.81-13.45,15.61-17.41s17-4,22,2.2c4.1,5.07,3.69,12.66.7,18.45s-8.08,10.17-13.11,14.31a186.23,186.23,0,0,0,53.55,36.14c9.2,4.09,18.76,7.47,27.41,12.62s16.5,12.41,20,21.85c2.66,7.15,4,16.92,1.05,24a8.87,8.87,0,0,1-9.09,5.37c-62.89-6.1-101.12-15.43-190.37-42.28a9.26,9.26,0,0,1-6.51-9.93c3-26.31,16.32-55.07,33.82-73.56a6.08,6.08,0,0,1,9.43.75C611.55,893.5,622.3,903.13,642.12,893.64Z" fill="#fff" stroke="#000" stroke-miterlimit="10"/>
    <path d="M769.76,992s-151.38-22.47-203.38-48.15" fill="#fff" stroke="#000" stroke-miterlimit="10"/>
    <path d="M713,944.39c-10.39,4.72-22.87,2.59-32.87-2.91s-18-14-25.56-22.49l14.25-8.61" fill="none" stroke="#000" stroke-miterlimit="10"/>
    <path d="M695.9,934.5c-5.45,3.56-9.58,6.89-16.08,7.23" fill="none" stroke="#000" stroke-miterlimit="10"/>
    <path d="M681.89,923a58.25,58.25,0,0,1-17.06,7.66" fill="none" stroke="#000" stroke-miterlimit="10"/>
    <path d="M657.87,970.89c-3-11.34-12.89-19.55-23.28-25s-21.77-8.94-31.67-15.23-18.49-16.41-18.58-28.13" fill="none" stroke="#000" stroke-miterlimit="10"/>
    <path d="M643.8,969.19c-5.43-8.13-14.37-13.21-23.41-16.93s-18.56-6.41-27.07-11.21-16.18-12.27-18.3-21.81" fill="none" stroke="#000" stroke-miterlimit="10"/>
  </g>
  <polygon points="657.61 864.22 616.01 853.59 613.62 859.87 655.1 870.98 657.61 864.22" fill="#151614"/>
  <polygon points="654.25 873.56 611.85 862.79 609.46 869.07 651.74 880.33 654.25 873.56" fill="#fff"/>
  <path d="M559.33,413c-19.1,10.79-1.78,2.18-26,21.72-17.13,13.8-43.66,33.6-51.17,54.27-9.16,25.26-3,49.85,9.42,67.71,35.19,50.76,130.81,68.84,168.26,74,1.16.16,16.17,2,15.25,1.29l-21-2.08c-32.48,55.54-39.35,128.64-56.43,190.67,20.52,13.43,47.27,19.91,71,26.25.24.56-.63,1.16-1.07.73,14.43-33.79,29.12-68,43.54-101.78,13-30.33,26.06-61.22,29.59-94s4.47-60.65-18.74-84.08c-16.84-17-36.66-25.09-58.67-34.5s-44.64-20.58-58.31-40.23c-13.95-20-28.8-48.63-35.89-72a20.68,20.68,0,0,0-2.82-6.61A5.53,5.53,0,0,0,559.33,413Z" fill="#1b0042"/>
  <path d="M792.92,990.63a75,75,0,0,0-31.19-43.19" fill="none" stroke="#000" stroke-linecap="round" stroke-linejoin="round"/>
  <path d="M795.46,968.14a65.2,65.2,0,0,0-28.34-29.88" fill="none" stroke="#000" stroke-linecap="round" stroke-linejoin="round"/>
  <path d="M737.86,669.2s-24.54-58.28-26.93-94L579.84,623.91" fill="none" stroke="#fff" stroke-linecap="round" stroke-linejoin="round" stroke-width="2"/>
  <g>
    <path d="M546.94,357.35c6.49,4,15.42,8.72,20,14.79,11.53,15.23,19.45,41.22,22.54,58,3.51,19,20.32,42.92,23.14,51.54,2.17,6.59-3.24,14.43-9.49,17.43-7.19,3.44-15.52-.31-23.4-1.49-14.86-2.24-29.39,5-42.37,12.57s-26.43,16-41.46,16.38c-10.31.27-21.95-4.85-24.44-14.85-2.63-10.59,5.74-20.31,10.56-30.1,8.49-17.27,6.1-37.65,3.87-56.77s-3.81-39.78,5.95-56.37c3.83-6.52,9.83-12.35,17.31-13.52,8.07-1.26,11,5.09,17.68,7C533,363.78,540.8,353.6,546.94,357.35Z" fill="#5c04a0"/>
    <g clip-path="url(#clip-path-2)">
      <path d="M511.92,353.52c13,15.34,15.27,37.48,11.51,57.26s-12.72,38.12-20,56.88-13,39-9.92,58.87" fill="none" stroke="#fff" stroke-linecap="round" stroke-linejoin="round" stroke-width="2" opacity="0.15"/>
      <path d="M510.63,524.46c-.52-28.09,11.08-54.74,19.34-81.59s12.93-57.31-.45-82" fill="none" stroke="#fff" stroke-linecap="round" stroke-linejoin="round" stroke-width="2" opacity="0.15"/>
      <path d="M538,359.76a106.9,106.9,0,0,1,14.07,78.42c-2.45,11.56-6.82,22.65-9.1,34.24s-2.27,24.23,3.6,34.48" fill="none" stroke="#fff" stroke-linecap="round" stroke-linejoin="round" stroke-width="2" opacity="0.15"/>
      <path d="M565.21,496.83l3.7-60.31c.84-13.73,1.68-27.6-.57-41.17s-7.9-27-18.16-36.18c-.08,1.72-6.55-3.49-6.62-1.77" fill="none" stroke="#fff" stroke-linecap="round" stroke-linejoin="round" stroke-width="2" opacity="0.15"/>
      <path d="M584.77,396.55l4.36,73c.71,11.88,2.1,25.17,11.25,32.78" fill="none" stroke="#fff" stroke-linecap="round" stroke-linejoin="round" stroke-width="2" opacity="0.15"/>
    </g>
  </g>
  <g>
    <path d="M507.57,403.2C494.13,438.36,489,480.26,470.44,513c-4.26,7.52-4.77,14.49-4.58,22.19.47,19.16,7.59,37.36,19,52.74,10,13.52,11.49,51.52-.43,63.41-6.08,6.06-15.1,7.82-23.55,9.29l-68.67,12c-8.26,1.44-20.43-4.64-28.3-7.55-11.53-4.25-18.61-24.91-20-37.13-2.23-19.5,5.88-38.53,13.82-56.48,22-49.87,13.31-82,48.08-128.83,11.65-15.71,40.53-53.08,56-75.89,6.77-10,40.38-18.71,48.81-5.46C518.69,374,512.37,390.61,507.57,403.2Z" fill="#5c04a0"/>
    <g clip-path="url(#clip-path-3)">
      <path d="M365.09,666.74c-10.39-34-1.85-70.54,6.71-105,7.16-28.82,14.38-57.83,26.57-84.91,14.17-31.48,34.69-59.61,55.07-87.48,9.63-13.17,19.46-26.55,32.44-36.44" fill="none" stroke="#fff" stroke-linecap="round" stroke-linejoin="round" stroke-width="2" opacity="0.15"/>
      <path d="M378.13,671c-2.49-35.22,4.79-70.32,12-104.88,5.92-28.23,11.87-56.63,22.45-83.47,18.54-47.05,50.45-87.4,81.92-127" fill="none" stroke="#fff" stroke-linecap="round" stroke-linejoin="round" stroke-width="2" opacity="0.15"/>
      <path d="M408.44,622a517.24,517.24,0,0,1,97.25-263.79" fill="none" stroke="#fff" stroke-linecap="round" stroke-linejoin="round" stroke-width="2" opacity="0.15"/>
      <path d="M441.43,663.68A378.67,378.67,0,0,1,475,445.89c11.36-23.51,25.14-45.78,36.66-69.21" fill="none" stroke="#fff" stroke-linecap="round" stroke-linejoin="round" stroke-width="2" opacity="0.15"/>
      <path d="M466.25,659c8.07-25.09,2.65-52.23-1.7-78.21s-7.24-54.12,5.05-77.43" fill="none" stroke="#fff" stroke-linecap="round" stroke-linejoin="round" stroke-width="2" opacity="0.15"/>
    </g>
  </g>
  <path d="M505.88,360.78c14.49,32.55-4.35,60.06-16.6,81.82s-17,34.89-20.41,75.4" fill="none" stroke="#fff" stroke-linecap="round" stroke-linejoin="round" stroke-width="2"/>
  <path d="M397.71,621.35a10.67,10.67,0,0,0-8.72,11.5,127,127,0,0,1-.82,30.68c-1.82,12.1-5.4,24.18-4.1,36.35,2.33,21.77,12.53,35.33,21.5,61,1.27,3.64,3.1,7.19,3.94,11,.32,1.41.9,3,2.67,3A2.8,2.8,0,0,0,414,774c3.28-3.09,5.42-6.62,4.81-11a88.13,88.13,0,0,0,5.44,15.22,3.64,3.64,0,0,0,6.19.68A17.09,17.09,0,0,0,434,767.51a54.62,54.62,0,0,0,7.45,13.69,3.89,3.89,0,0,0,6.69-.79c2.53-5.81-.44-15.72-2.6-21.86-2.82-8-5.48-12.3-9.22-20-6.7-13.68-7.86-29.12-4.46-44,6.29,5.91,7.38,15.35,8.16,23.94s2,18.06,8.52,23.77c.45.39,1,.78,1.58.58s.78-1.11.79-1.81c.25-18.82.44-38-5.11-56-5.33-17.29-15.91-33.31-18.17-51a12.64,12.64,0,0,0-7.28-9.78A38.67,38.67,0,0,0,397.71,621.35Z" fill="#ffc9e6"/>
  <path d="M410.3,697.27c-3.44,6.66-.57,14.69,2.33,21.61,7.34,17.55,15.47,34.65,22.82,52.2" fill="none" stroke="#000" stroke-linecap="round" stroke-linejoin="round"/>
  <path d="M399.21,698.71c-2.61,11.16,2.1,24.39,7.06,34.72s10.4,20.68,13,31.83" fill="none" stroke="#000" stroke-linecap="round" stroke-linejoin="round"/>
  <path d="M432.9,686.1l-2.3,15.44" fill="none" stroke="#000" stroke-linecap="round" stroke-linejoin="round"/>
  <path d="M438.83,764.21a3.08,3.08,0,0,1,1.65.35,3,3,0,0,1,1,1.74,44.26,44.26,0,0,1,1.71,9.42,5.31,5.31,0,0,1-.3,2.66,1.94,1.94,0,0,1-2.19,1.15,2.9,2.9,0,0,1-1.36-1.32,60,60,0,0,1-5.27-10.08C432.38,763.73,435.24,764.13,438.83,764.21Z" fill="none" stroke="#000" stroke-linecap="round" stroke-linejoin="round"/>
  <path d="M425,763.26a3.1,3.1,0,0,1,1.57.62,2.92,2.92,0,0,1,.71,1.87,44.46,44.46,0,0,1,.16,9.58,5.28,5.28,0,0,1-.72,2.57,1.94,1.94,0,0,1-2.35.78,2.78,2.78,0,0,1-1.13-1.52,58.64,58.64,0,0,1-3.56-10.8C418.66,761.74,421.42,762.6,425,763.26Z" fill="none" stroke="#000" stroke-linecap="round" stroke-linejoin="round"/>
  <path d="M411.87,762.29a2.37,2.37,0,0,1,1.18.51,2.3,2.3,0,0,1,.5,1.45,34.35,34.35,0,0,1-.1,7.31,4,4,0,0,1-.62,2,1.49,1.49,0,0,1-1.81.54,2.17,2.17,0,0,1-.82-1.19,45.79,45.79,0,0,1-2.47-8.33C407.1,761,409.19,761.7,411.87,762.29Z" fill="none" stroke="#000" stroke-linecap="round" stroke-linejoin="round"/>
  <path d="M451,727.09l-4.89-.56s-.44,11.12,3.36,15a.87.87,0,0,0,1.47-.62Z" fill="none" stroke="#000" stroke-linecap="round" stroke-linejoin="round"/>
  <path d="M545.55,358c6.27-.66,31.52,16.45,38.47,42.62,6,22.47,1.35,50.62,25.45,72.48" fill="none" stroke="#fff" stroke-linecap="round" stroke-linejoin="round" stroke-width="2"/>
  <path d="M802.84,196.85a66.06,66.06,0,0,1,22.52-37.57c1.78-1.47,4-2.92,6.22-2.4,3.12.72,4.19,4.69,3.86,7.88a19.9,19.9,0,0,1-11.37,15.77" fill="#ffc9e6"/>
  <rect x="817.29" y="99.31" width="266.85" height="259" rx="25.44" transform="matrix(0.99, 0.15, -0.15, 0.99, 43.78, -136.82)" fill="#fff" stroke="#000" stroke-miterlimit="10"/>
  <path d="M740,270.47a17.51,17.51,0,0,0,1.68-1.42c20.27-19.58,21.91-53.63,43.14-72.36,9.45-8.34,21.69-12.6,33.27-17.56s23.37-11.31,29.93-22.08l.05,0a2.66,2.66,0,0,1,3.59,1.26c2,4.65,1.33,10.42-1.14,15-3,5.53-8.12,9.56-13.36,13a128,128,0,0,1-19.27,10.27A36.48,36.48,0,0,0,801.73,210a23.8,23.8,0,0,0-2.39,4.65c-1.25,3.39-5.31,11.5-1.69,11.51,12.83.07,22.69-7.67,32.78-16.67,7.74-6.9,11.25-5.4,15.68-5.22a3.14,3.14,0,0,1,2.4,5c-12.7,17.14-28.39,32.74-46.5,44-8.62,5.34-15.31,13.62-20.81,22.13-4.3,6.65-7.44,16.72-11.56,25.22-7.22,14.91-29.28,13.54-34.23-2.28-.13-.41-.25-.83-.37-1.26C730.25,279.28,737.83,272.12,740,270.47Z" fill="#ffc9e6"/>
  <line x1="795.08" y1="189.55" x2="824.63" y2="176.57" fill="none" stroke="#000" stroke-linecap="round" stroke-linejoin="round"/>
  <path d="M839.48,168.16l3.52,4.47s9.69-9,7.67-15.68c0,0-1-1.37-6.27,5.08C840.53,166.81,839.48,168.16,839.48,168.16Z" fill="none" stroke="#000" stroke-linecap="round" stroke-linejoin="round"/>
  <path d="M838.68,213.68a4.26,4.26,0,0,1,1.55-3.11,39.26,39.26,0,0,1,6.45-4.82,2.31,2.31,0,0,1,3.18,3.06,27.83,27.83,0,0,1-4.72,6.55C842.89,217.64,838.59,218.56,838.68,213.68Z" fill="none" stroke="#000" stroke-linecap="round" stroke-linejoin="round"/>
  <path d="M757.14,206.88a31,31,0,0,1,21-21" fill="none" stroke="#000" stroke-linecap="round" stroke-linejoin="round"/>
  <path d="M750.78,196.09a26.4,26.4,0,0,1,19.32-22.85" fill="none" stroke="#000" stroke-linecap="round" stroke-linejoin="round"/>
  <path d="M1031.73,188.39a90.61,90.61,0,1,0,7.94,23.74A90.71,90.71,0,0,0,1031.73,188.39ZM963.7,298a70.49,70.49,0,1,1,56.23-82.19A70.42,70.42,0,0,1,963.7,298Z" fill="none" stroke="#000" stroke-linecap="round" stroke-linejoin="round"/>
  <path d="M963.61,139.21l-2.79,19.89a70.57,70.57,0,0,1,52.92,38.24l18-9" fill="none" stroke="#000" stroke-linecap="round" stroke-linejoin="round"/>
</svg>
