<svg id="Layer_1" data-name="Layer 1" xmlns="http://www.w3.org/2000/svg" xmlns:xlink="http://www.w3.org/1999/xlink" viewBox="0 0 1920 1080">
  <defs>
    <clipPath id="clip-path">
      <path d="M943.05,198c4.48-8.19,15.2-11.37,24.38-9.63s17.11,7.38,24.36,13.27c15.29,12.44,29.06,26.7,44.72,38.67s33.81,21.75,53.46,23.27q10-39.66,19.93-79.33c2.19-8.73,4.56-17.81,10.41-24.65,11.33-13.26,31.28-13.79,48.72-13.28,13.61.41,27.47.85,40.34,5.33s24.81,13.69,29.1,26.62c4.09,12.32.69,25.95-4.86,37.68s-9.78,23.56-14.88,35.51c-6.15,14.42-28.27,53.65-19.37,40.73,3.18-4.62-23.71,43.1-37,54.76-12.34,10.8-30.8,11.89-46.93,9s-31.12-10.12-45.85-17.31c-37.72-18.43-58.18-48.5-95.71-67.33" fill="#5c04a0"/>
    </clipPath>
    <clipPath id="clip-path-2">
      <path d="M944.67,198.66c6.54-4.22,15.68-1.82,21.43,3.43S975,214.79,978,222c6.5,15.73,23.29,26.89,29.79,42.62,2.75,6.64-1.87,16.89-6.22,25.39-3.27,6.39-9.2,13.17-15.74,10.2-4.66,8.72-.54,19.31,3.22,28.45s6.89,20.42.85,28.24c-5,6.45-14.39,7.65-22.42,6.2s-15.61-5-23.7-6c-27-3.54-53,20.65-79.29,13.83-8.36-2.16-16.23-8.05-18.54-16.37-3.12-11.21,4.4-22.59,12.86-30.58s18.62-15,23.24-25.66a250.18,250.18,0,0,1,2.41-79.18c1.15-6,2.63-12.14,6.53-16.8s10.91-7.27,16.25-4.36Z" fill="#5c04a0"/>
    </clipPath>
    <clipPath id="clip-path-3">
      <path d="M912.72,234.27,912,299.15c-.07,5.77.24,12.37,4.71,16,2.69,2.18,6.33,2.75,9.79,2.91,18.35.85,35.68-7.41,53-13.4s37.56-9.52,53.3-.05c14.66,8.82,21.41,26.87,22.3,43.95,1.44,27.85-10.92,56.5-33.38,73s-54.61,19.58-78.92,5.92-38.68-41.36-63.15-55.07c-7.51-4.21-15.94-7.08-22.26-12.93-12.71-11.78-13-32-8.35-48.68s13.35-32.32,15.63-49.5c1.31-9.9.45-19.95,1-29.92s2.71-20.33,9.11-28c6.06-7.25,20.67-13.09,29.28-6.84C913.8,203.64,912.84,223.92,912.72,234.27Z" fill="#5c04a0"/>
    </clipPath>
    <clipPath id="clip-path-4">
      <path d="M906.88,199.9c5.66,6.25,15.3,7.17,23.53,5.31,5-1.13,10-3.21,13.58-6.88s5.66-9.12,4.37-14.1c-5.13,5.59-14.33,4.39-21.17,1.12-5.77-2.76-14.64-11-20.85-6.45C900.37,183.25,902.79,195.38,906.88,199.9Z" fill="#5c04a0"/>
    </clipPath>
  </defs>
  <title>Vector 1</title>
  <ellipse cx="869.43" cy="136.13" rx="31.93" ry="33.81" transform="translate(-9.66 95.69) rotate(-6.26)" fill="#1b0042"/>
  <g>
    <path d="M943.05,198c4.48-8.19,15.2-11.37,24.38-9.63s17.11,7.38,24.36,13.27c15.29,12.44,29.06,26.7,44.72,38.67s33.81,21.75,53.46,23.27q10-39.66,19.93-79.33c2.19-8.73,4.56-17.81,10.41-24.65,11.33-13.26,31.28-13.79,48.72-13.28,13.61.41,27.47.85,40.34,5.33s24.81,13.69,29.1,26.62c4.09,12.32.69,25.95-4.86,37.68s-9.78,23.56-14.88,35.51c-6.15,14.42-28.27,53.65-19.37,40.73,3.18-4.62-23.71,43.1-37,54.76-12.34,10.8-30.8,11.89-46.93,9s-31.12-10.12-45.85-17.31c-37.72-18.43-58.18-48.5-95.71-67.33" fill="#5c04a0"/>
    <g clip-path="url(#clip-path)">
      <path d="M960,193.7c7-1.33,13.75,2.91,19.36,7.29,26.68,20.83,49.77,46.39,80.37,60.86" fill="none" stroke="#fff" stroke-miterlimit="10" stroke-width="2" opacity="0.15"/>
      <path d="M965.49,203.07l68.76,61.36c6.43,5.74,13.46,11.75,22,12.67" fill="none" stroke="#fff" stroke-miterlimit="10" stroke-width="2" opacity="0.15"/>
      <path d="M980.48,232.18c11.5,9.52,23.08,21.71,34.56,32.36,11.76,10.9,21.19,26.26,37,28.64" fill="none" stroke="#fff" stroke-miterlimit="10" stroke-width="2" opacity="0.15"/>
      <path d="M1008.05,276.85a154.48,154.48,0,0,0,44,33.07" fill="none" stroke="#fff" stroke-miterlimit="10" stroke-width="2" opacity="0.15"/>
    </g>
  </g>
  <g>
    <path d="M975.55,809.64c0,2.72-20.85,113.28-20.85,113.28h-48L928.42,806h47.13" fill="#ffc9e6"/>
    <polygon points="968.56 848.78 921.02 845.8 906.67 922.91 955.61 922.01 968.56 848.78" fill="#fca1bb"/>
    <path d="M1009.43,395a1504.06,1504.06,0,0,1-20.14,401.21c-1.23,6.57-2.57,13.32-6.22,18.91-6.33,9.71-18.65,14.12-30.23,14-8.73-.12-17.22-2.43-25.53-5.25a12.77,12.77,0,0,1-8.68-11.35c-4.79-88.17,33.67-176.26,25.22-264.36-5.18-54-27.25-106.88-20.66-160.7C953.25,385.23,980.13,387.9,1009.43,395Z" fill="#151614"/>
    <g>
      <path d="M960.23,892.06c7.09-5.14,6.95-16.44,13.59-22.12s17.72-7.79,24.49-2c5.48,4.71,6.54,13.1,4.43,20s-6.81,12.71-11.48,18.23a206.67,206.67,0,0,0,65.67,28.84c10.86,2.64,22,4.43,32.45,8.34s20.48,10.28,26.18,19.89c4.32,7.28,7.68,17.68,5.92,26a9.83,9.83,0,0,1-8.84,7.7c-71.74,6-115.8,3.1-224.54-9.28-5-34.25,6.41-77.61,26.86-103.24C915,884.47,930.86,913.3,960.23,892.06Z" fill="#fff" stroke="#000" stroke-miterlimit="10"/>
      <path d="M1119.18,974.11s-169.82,5.53-231.71-12.18" fill="#fff" stroke="#000" stroke-miterlimit="10"/>
      <path d="M1047.76,933.4c-10.41,7.22-24.47,7.37-36.48,3.35S988.89,925,978.89,917.26L992.75,905" fill="none" stroke="#000" stroke-miterlimit="10"/>
      <path d="M1027.08,926c-5.24,5-9.09,9.43-16.12,11.09" fill="none" stroke="#000" stroke-miterlimit="10"/>
      <path d="M1009.5,916.24A64.81,64.81,0,0,1,992.39,928" fill="none" stroke="#000" stroke-miterlimit="10"/>
      <path d="M992.78,973.3c-5.52-11.79-18-18.79-30.39-22.67s-25.56-5.45-37.62-10.35-23.46-14.25-25.89-27" fill="none" stroke="#000" stroke-miterlimit="10"/>
      <path d="M977.07,974.25c-7.54-7.81-18.32-11.59-28.93-13.85s-21.55-3.31-31.8-6.87S896.23,943.35,892,933.35" fill="none" stroke="#000" stroke-miterlimit="10"/>
    </g>
    <polygon points="967.18 856.58 919.64 853.24 918.27 860.57 965.79 864.47 967.18 856.58" fill="#151614"/>
    <polygon points="965.37 867.45 916.92 864.11 915.56 871.44 963.98 875.34 965.37 867.45" fill="#fff"/>
  </g>
  <g>
    <path d="M910.35,817.65c0,2.72-20.84,113.27-20.84,113.27h-48L863.23,814h47.12" fill="#ffc9e6"/>
    <polygon points="903.37 856.79 855.83 853.81 841.48 930.92 890.42 930.01 903.37 856.79" fill="#fca1bb"/>
    <path d="M944.24,403a1503.63,1503.63,0,0,1-20.15,401.21c-1.22,6.57-2.56,13.32-6.21,18.92-6.33,9.7-18.65,14.12-30.23,14-8.74-.11-17.22-2.42-25.53-5.25a12.75,12.75,0,0,1-8.68-11.34c-4.79-88.17,33.67-176.27,25.22-264.37-5.18-54-25-151.48-18.38-205.3C890.35,348.64,914.94,395.91,944.24,403Z" fill="#151614"/>
    <g>
      <path d="M895,900.06c7.09-5.13,7-16.44,13.59-22.12s17.72-7.78,24.48-2c5.49,4.72,6.55,13.1,4.44,20s-6.81,12.7-11.48,18.23a206.87,206.87,0,0,0,65.67,28.83c10.86,2.65,22,4.44,32.45,8.35s20.48,10.28,26.18,19.89c4.32,7.27,7.67,17.68,5.92,26a9.84,9.84,0,0,1-8.84,7.7c-71.74,6-115.8,3.09-224.54-9.29-5-34.24,6.41-77.6,26.86-103.23C849.77,892.48,865.67,921.31,895,900.06Z" fill="#fff" stroke="#000" stroke-miterlimit="10"/>
      <path d="M1054,982.12s-169.81,5.53-231.7-12.19" fill="#fff" stroke="#000" stroke-miterlimit="10"/>
      <path d="M982.57,941.4c-10.41,7.22-24.47,7.38-36.48,3.36s-22.39-11.71-32.39-19.49L927.55,913" fill="none" stroke="#000" stroke-miterlimit="10"/>
      <path d="M961.89,934c-5.24,5-9.09,9.43-16.12,11.09" fill="none" stroke="#000" stroke-miterlimit="10"/>
      <path d="M944.31,924.24A64.85,64.85,0,0,1,927.2,936" fill="none" stroke="#000" stroke-miterlimit="10"/>
      <path d="M927.59,981.31c-5.52-11.79-18-18.79-30.39-22.68s-25.57-5.44-37.62-10.34-23.46-14.26-25.89-27" fill="none" stroke="#000" stroke-miterlimit="10"/>
      <path d="M911.88,982.25c-7.54-7.8-18.32-11.58-28.93-13.85s-21.55-3.3-31.8-6.86S831,951.36,826.83,941.35" fill="none" stroke="#000" stroke-miterlimit="10"/>
    </g>
    <polygon points="901.99 864.58 854.45 861.25 853.08 868.57 900.6 872.47 901.99 864.58" fill="#151614"/>
    <polygon points="900.18 875.46 851.73 872.12 850.37 879.45 898.78 883.35 900.18 875.46" fill="#fff"/>
  </g>
  <path d="M947.44,174.18c7.59,3.28,17.63,6.47,24.56,2,5.74-3.74,7.43-11.25,8.4-18,1.13-8-.85-16.38-4.06-23.75C972.54,125.62,966.63,120,958,116c-10.51-4.95-22.37-8.42-33.69-5.81s-21.46,12.92-20.5,24.5c-7.57,1.67-12.51,10.77-9.79,18s12.42,10.87,19.23,7.16c2.53,9.28-3.27,12.5-1.51,18.59a21,21,0,0,0,12.1,13.81c4.92,1.9,15.55,2.92,19.77-1.17C947.34,187.45,945.71,178.88,947.44,174.18Z" fill="#ffc9e6"/>
  <path d="M973.48,129l-14.75-9.15s-29.84,23.51-52.44,16.27c0,0-9.78-3.83-13,9.39,0,0-9.57-24.76,13-36.51S972.87,101.08,973.48,129Z" fill="#1b0042"/>
  <path d="M947.88,174.1,926.18,166s8.35,11.75,20,19.89Z"/>
  <path d="M908.86,156.51A10.11,10.11,0,0,0,901,142.69" fill="none" stroke="#000" stroke-linecap="round" stroke-linejoin="round"/>
  <path d="M908.31,148.66a7.94,7.94,0,0,0-5.89,4.18" fill="none" stroke="#000" stroke-linecap="round" stroke-linejoin="round"/>
  <path d="M918.67,147.72a16.67,16.67,0,0,0-15.37-12.66" fill="none" stroke="#000" stroke-linecap="round" stroke-linejoin="round"/>
  <path d="M963.29,136.46a66.56,66.56,0,0,0,4.92,13.62l-7.29.6" fill="none" stroke="#000" stroke-linecap="round" stroke-linejoin="round"/>
  <path d="M945.47,138.3c1.63-1.44,5.56-1.87,7.74-1.89a9.32,9.32,0,0,1,6,2.16c-1.77,1.52-2.81,3.06-5.92,3.12C949,141.77,947.22,139.84,945.47,138.3Z" fill="none" stroke="#000" stroke-linecap="round" stroke-linejoin="round"/>
  <circle cx="956.92" cy="138.84" r="1.81"/>
  <g>
    <path d="M967.25,138.8c1.24-1.13,4.26-1.5,5.93-1.55a7.17,7.17,0,0,1,4.66,1.6c-1.35,1.19-2.13,2.38-4.52,2.46C970,141.42,968.62,140,967.25,138.8Z" fill="none" stroke="#000" stroke-linecap="round" stroke-linejoin="round"/>
    <circle cx="975" cy="138.84" r="1.81"/>
  </g>
  <path d="M973.19,160.54s-3.61-6.33-13.56,0Z" stroke="#000" stroke-miterlimit="10"/>
  <path d="M973.19,160.54s-.9,4.52-4.52,4.52-9.94-4.52-9.94-4.52Z" fill="none" stroke="#000" stroke-linecap="round" stroke-linejoin="round"/>
  <path d="M958.21,130.74a12.83,12.83,0,0,0-11-.23" fill="none" stroke="#000" stroke-linecap="round" stroke-linejoin="round"/>
  <path d="M977.25,131.88a6.69,6.69,0,0,0-8.15-.06" fill="none" stroke="#000" stroke-linecap="round" stroke-linejoin="round"/>
  <g>
    <path d="M944.67,198.66c6.54-4.22,15.68-1.82,21.43,3.43S975,214.79,978,222c6.5,15.73,23.29,26.89,29.79,42.62,2.75,6.64-1.87,16.89-6.22,25.39-3.27,6.39-9.2,13.17-15.74,10.2-4.66,8.72-.54,19.31,3.22,28.45s6.89,20.42.85,28.24c-5,6.45-14.39,7.65-22.42,6.2s-15.61-5-23.7-6c-27-3.54-53,20.65-79.29,13.83-8.36-2.16-16.23-8.05-18.54-16.37-3.12-11.21,4.4-22.59,12.86-30.58s18.62-15,23.24-25.66a250.18,250.18,0,0,1,2.41-79.18c1.15-6,2.63-12.14,6.53-16.8s10.91-7.27,16.25-4.36Z" fill="#5c04a0"/>
    <g clip-path="url(#clip-path-2)">
      <path d="M913.3,194.37c7.48,7.9,10.1,19.22,10.9,30.07s.08,21.85,2.2,32.52c1.5,7.54,4.39,14.75,5.83,22.3s1.24,15.86-3,22.28c-2.71,4.12.45,9.42,3.75,13.08" fill="none" stroke="#fff" stroke-miterlimit="10" stroke-width="2" opacity="0.15"/>
      <path d="M928.59,194.26c4.45,5.14,6.39,12,7.24,18.75s.76,13.59,1.79,20.32c1.7,11.06,6.38,21.4,9.75,32.07s5.42,22.37,1.79,33c-1.27,3.7.52,8.66,4,10.49" fill="none" stroke="#fff" stroke-miterlimit="10" stroke-width="2" opacity="0.15"/>
      <path d="M944.16,201.2c4.62,4.72,6.91,11.27,8.08,17.77s1.36,13.15,2.51,19.66c2,11.44,6.92,22.12,10.88,33s7,22.6,5.18,34.06" fill="none" stroke="#fff" stroke-miterlimit="10" stroke-width="2" opacity="0.15"/>
      <path d="M951.68,196.75c8.12,8.32,11.74,20,14.21,31.32s4.11,23.09,9.3,33.49c2.75,5.52,6.44,10.52,9.26,16s4.79,11.71,3.7,17.78" fill="none" stroke="#fff" stroke-miterlimit="10" stroke-width="2" opacity="0.15"/>
      <path d="M971.12,216.67c.43,12.76,9.4,25.08,17.11,35.25s15.94,20.89,17.38,33.57" fill="none" stroke="#fff" stroke-miterlimit="10" stroke-width="2" opacity="0.15"/>
    </g>
  </g>
  <g>
    <path d="M912.72,234.27,912,299.15c-.07,5.77.24,12.37,4.71,16,2.69,2.18,6.33,2.75,9.79,2.91,18.35.85,35.68-7.41,53-13.4s37.56-9.52,53.3-.05c14.66,8.82,21.41,26.87,22.3,43.95,1.44,27.85-10.92,56.5-33.38,73s-54.61,19.58-78.92,5.92-38.68-41.36-63.15-55.07c-7.51-4.21-15.94-7.08-22.26-12.93-12.71-11.78-13-32-8.35-48.68s13.35-32.32,15.63-49.5c1.31-9.9.45-19.95,1-29.92s2.71-20.33,9.11-28c6.06-7.25,20.67-13.09,29.28-6.84C913.8,203.64,912.84,223.92,912.72,234.27Z" fill="#5c04a0"/>
    <g clip-path="url(#clip-path-3)">
      <path d="M876.72,199.56A231,231,0,0,1,863.4,308.47c-2.37,6.24-5.06,12.86-3.67,19.39,1.48,6.89,7.28,12.1,13.55,15.32s13.21,4.92,19.64,7.81c13.47,6,24.05,16.93,34.21,27.64s20.53,21.74,33.79,28.21,30.29,7.46,42-1.5" fill="none" stroke="#fff" stroke-miterlimit="10" stroke-width="2" opacity="0.15"/>
      <path d="M885.24,195.2a189.29,189.29,0,0,1,3.41,96.26c-2.08,9.15-4.67,19.44.36,27.36,3.35,5.28,9.35,8.15,15,10.75l72,32.95" fill="none" stroke="#fff" stroke-miterlimit="10" stroke-width="2" opacity="0.15"/>
      <path d="M895.75,192.11c9.56,8.26,10.89,22.34,11.53,35l2.61,51.19c.5,9.83,1.24,20.33,7.26,28.12,7.63,9.87,21.58,12.41,34,11.44s24.67-4.7,37.14-4.34,26.1,6.24,30.22,18" fill="none" stroke="#fff" stroke-miterlimit="10" stroke-width="2" opacity="0.15"/>
      <path d="M896.8,386.09c9.1,7.18,27.62,17,36.45,24.47,17.73,15.05,30.31,21.91,43.47,22.74,16,1,32.57-3.26,41.72-16.39,11.46-16.46,4.94-26,2.72-33.39" fill="none" stroke="#fff" stroke-miterlimit="10" stroke-width="2" opacity="0.15"/>
    </g>
  </g>
  <path d="M848.11,338.45c-.23,9.83,24.95,29.86,33.66,34.43" fill="none" stroke="#fff" stroke-linecap="round" stroke-linejoin="round" stroke-width="2"/>
  <path d="M947.78,190.55c5.43-1.66,11.23,2,14.39,6.7s4.48,10.38,6.72,15.59c4.05,9.4,11,17.17,17.72,24.89s15.7,13.51,19,23.18,2.65,21.37-4.26,28.9-20.8,8.4-26.84.15" fill="none" stroke="#fff" stroke-linecap="round" stroke-linejoin="round" stroke-width="2"/>
  <path d="M917.63,296.35c4.15,5,18.35,6,24.56,4s15.46-8.05,15.86-14.57" fill="none" stroke="#fff" stroke-linecap="round" stroke-linejoin="round" stroke-width="2"/>
  <g>
    <path d="M906.88,199.9c5.66,6.25,15.3,7.17,23.53,5.31,5-1.13,10-3.21,13.58-6.88s5.66-9.12,4.37-14.1c-5.13,5.59-14.33,4.39-21.17,1.12-5.77-2.76-14.64-11-20.85-6.45C900.37,183.25,902.79,195.38,906.88,199.9Z" fill="#5c04a0"/>
    <g clip-path="url(#clip-path-4)">
      <path d="M908.6,202.14A34.45,34.45,0,0,1,911,177.85" fill="none" stroke="#fff" stroke-miterlimit="10" stroke-width="2" opacity="0.15"/>
      <path d="M916.09,205.62l1.26-24.27" fill="none" stroke="#fff" stroke-miterlimit="10" stroke-width="2" opacity="0.15"/>
      <path d="M925.79,206.06a122.42,122.42,0,0,0-.55-20.26l-.25,1.63" fill="none" stroke="#fff" stroke-miterlimit="10" stroke-width="2" opacity="0.15"/>
      <path d="M936.76,203.47a35.3,35.3,0,0,0-3.15-15.15" fill="none" stroke="#fff" stroke-miterlimit="10" stroke-width="2" opacity="0.15"/>
      <path d="M945.84,195.67a11.1,11.1,0,0,0-3.09-7.79" fill="none" stroke="#fff" stroke-miterlimit="10" stroke-width="2" opacity="0.15"/>
    </g>
  </g>
  <path d="M1054.1,333c-10.11-38.89-51.62-34-51.62-34-15.44,4.08-46.89,10.46-62.33,14.54-5.92,1.57-12.44,3.08-17.93.4-9-4.37-9.78-16.6-9.33-26.56l2.46-54.58c.56-12.55.32-27.05-9.37-35.06" fill="none" stroke="#fff" stroke-linecap="round" stroke-linejoin="round" stroke-width="2"/>
  <g>
    <rect x="1046.26" y="123.79" width="225.45" height="225.45" rx="13.59" fill="#fff"/>
    <path d="M1258.13,124.29a13.1,13.1,0,0,1,13.08,13.09V335.66a13.11,13.11,0,0,1-13.08,13.09H1059.85a13.11,13.11,0,0,1-13.09-13.09V137.38a13.1,13.1,0,0,1,13.09-13.09h198.28m0-1H1059.85a14.09,14.09,0,0,0-14.09,14.09V335.66a14.09,14.09,0,0,0,14.09,14.09h198.28a14.08,14.08,0,0,0,14.08-14.09V137.38a14.08,14.08,0,0,0-14.08-14.09Z"/>
  </g>
  <path d="M1123.5,124a12.56,12.56,0,0,1,23.59-7.16,10.27,10.27,0,0,1,20.47-.65c-.82-4.47,1.85-6.66,6.33-7.42s9.09,1.58,12,5.1,1.87,3,6.14,10.23" fill="#ffc9e6"/>
  <path d="M1127.14,121.94c1.32,7.54,5,14,7.9,21.06s11.1,14.77,17.76,18.52c2.5,1.41,5.86,2.31,8.07.49a5.77,5.77,0,0,0,1.53-5.68,18.65,18.65,0,0,0-2.71-5.54c-6.31-10.17-9.81-21.38-12.55-33" fill="#ffc9e6"/>
  <path d="M1148.87,120.8c1.55,7.53,4.67,15.14,8.12,22.2s10.33,14.77,18.14,18.52c2.93,1.41,6.86,2.31,9.46.49a5.22,5.22,0,0,0,1.79-5.68,17.66,17.66,0,0,0-3.18-5.54c-7.4-10.17-11.5-21.38-14.7-33" fill="#ffc9e6"/>
  <path d="M1170.6,121.94c2.26,8.59,5.69,17.74,10.19,23.34,4.79,6,8.81,13.63,15.48,17.38,2.49,1.41,5.85,2.32,8.06.49,1.59-1.31,3.13-4.81,2.67-6.82s-3.08-7.06-3.85-9c-4-10-7.41-13.4-11.4-23.88" fill="#ffc9e6"/>
  <path d="M1146.84,115.41c2.08,3.66,4.29,20.84,13.44,38" fill="none" stroke="#000" stroke-linecap="round" stroke-linejoin="round"/>
  <path d="M1164.74,110c4.12,9.63,12.12,31.36,18.35,41.23" fill="none" stroke="#000" stroke-linecap="round" stroke-linejoin="round"/>
  <path d="M1157.45,148l-8.09,2a25.87,25.87,0,0,0,5.81,8.21,7,7,0,0,0,2.66,1.67,2.88,2.88,0,0,0,2.92-.68,4,4,0,0,0,.47-3.42A19.08,19.08,0,0,0,1157.45,148Z" fill="none" stroke="#000" stroke-miterlimit="10"/>
  <path d="M1180.61,147.55a23.91,23.91,0,0,1-9,1.61,14.47,14.47,0,0,0,8.87,9.6c1.56.57,3.68.67,4.48-.78a3.76,3.76,0,0,0-.2-3.13A27.44,27.44,0,0,0,1180.61,147.55Z" fill="none" stroke="#000" stroke-miterlimit="10"/>
  <path d="M1200.82,147.21a19.08,19.08,0,0,1-9.28,1.84,15,15,0,0,0,8.75,10c1.48.57,3.57.65,4.21-.8.38-.89,1.13-1.91.71-2.79A62.15,62.15,0,0,0,1200.82,147.21Z" fill="none" stroke="#000" stroke-miterlimit="10"/>
  <g>
    <path d="M1006.09,359.67a14.56,14.56,0,0,1,10.08-13.19c9.31-3,20.14-2,29.84.54,13.33,3.45,25.1.18,38.87.7,10.21.39,21.56,6.94,31.73,7.95s24.29,1.35,25.48,11.49c10.25-2.35,15.19-4.78,24.82-9s25.42-6.87,35.92-7.23c8.37-.29,16.42,1,22.61,5.73a2.69,2.69,0,0,1-1.36,4.78c-35.58,4.24-52.36,31-95.19,35.37-19.87,2-46.1-6-65.84-9.1-15.64-2.44-40.26-3.07-51.93-.5a5,5,0,0,1-6.1-5.09Z" fill="#ffc9e6"/>
    <path d="M1142.59,370c-10.82,6.79-45.13,5-57.85,3.88" fill="none" stroke="#000" stroke-linecap="round" stroke-linejoin="round"/>
    <path d="M1208,362.68a6.75,6.75,0,0,1-1-6.08,24.5,24.5,0,0,1,14.09-.38,4.8,4.8,0,0,1,2.52,1.36,1.88,1.88,0,0,1-.08,2.61,2.8,2.8,0,0,1-1.16.42l-14.55,2.89" fill="none" stroke="#000" stroke-linecap="round" stroke-linejoin="round"/>
    <path d="M1124.08,374.36c.31-1.75-.53-3.46-1-5.17s-.52-3.88.94-4.9a5.18,5.18,0,0,1,2.66-.69l5.79-.4c2.47-.17,5.12-.3,7.25,1s3.2,4.55,1.42,6.28" fill="none" stroke="#000" stroke-linecap="round" stroke-linejoin="round"/>
  </g>
  <path d="M1124.27,129.29a13.21,13.21,0,0,0,5.89-4.48c1.36-2.09,1.63-5.06.09-7-1.18-1.5-3.11-2.14-4.94-2.63a67.07,67.07,0,0,0-12.82-2.15c-3.57-.25-7.26-.21-10.6,1.1s-6.28,4.07-6.94,7.59C1092.38,135.34,1117.64,132.24,1124.27,129.29Z" fill="#ffc9e6"/>
  <path d="M1117.83,129.52l.18-10.38s13.17-2.89,12.09,2.73S1117.83,129.52,1117.83,129.52Z" fill="none" stroke="#000" stroke-miterlimit="10"/>
  <path d="M963.56,451.92s10.3,167-41.14,366.68" fill="none" stroke="#fff" stroke-linecap="round" stroke-linejoin="round" stroke-width="2"/>
  <path d="M1177.6,85.13c11-1.52,22,8.42,21.68,19.48" fill="none" stroke="#000" stroke-linecap="round" stroke-linejoin="round"/>
  <path d="M1185.29,78.72c10.07.75,18.85,9.78,19.31,19.87" fill="none" stroke="#000" stroke-linecap="round" stroke-linejoin="round"/>
  <g>
    <path d="M1133.22,220.9V190.3a25.77,25.77,0,1,1,51.54,0v30.6" fill="#fff" stroke="#000" stroke-miterlimit="10"/>
    <g>
      <rect x="1107.95" y="221.4" width="102.07" height="86.61" rx="14.96" fill="#fff"/>
      <path d="M1195.06,221.9a14.47,14.47,0,0,1,14.46,14.46v56.69a14.47,14.47,0,0,1-14.46,14.46h-72.15a14.48,14.48,0,0,1-14.46-14.46V236.36a14.47,14.47,0,0,1,14.46-14.46h72.15m0-1h-72.15a15.46,15.46,0,0,0-15.46,15.46v56.69a15.46,15.46,0,0,0,15.46,15.46h72.15a15.46,15.46,0,0,0,15.46-15.46V236.36a15.46,15.46,0,0,0-15.46-15.46Z"/>
    </g>
  </g>
  <circle cx="907.5" cy="167.5" r="9.5" fill="none" stroke="#1b0042" stroke-miterlimit="10"/>
</svg>
