<svg id="Layer_1" data-name="Layer 1" xmlns="http://www.w3.org/2000/svg" xmlns:xlink="http://www.w3.org/1999/xlink" viewBox="0 0 1920 1080">
  <defs>
    <clipPath id="clip-path">
      <path d="M1248,218.1c17.42,10.55,30.49,26.78,45.3,40.76a218.24,218.24,0,0,0,52.83,36.78c10.75,5.32,22.17,9.9,31,18.05,13.94,12.89,19.26,33.38,16.67,52.18s-12.24,36.05-24.27,50.73c-12.41,15.14-28.35,30-29.39,49.51-.56,10.71,3.21,23-3.67,31.19-6.65,8-19.26,6.81-29,3.11-33.8-12.89-56-46.77-64.7-81.88-3.55-14.25-4.94-30.44,3.29-42.61,8.65-12.78,25.89-17.94,33.78-31.21,6.74-11.35,4.78-26.31-1.94-37.67s-17.45-19.73-28.45-27-22.59-13.88-32.22-22.9c-7.56-7.09-30.29-33.14-20.7-44C1207.43,200.78,1237,211.48,1248,218.1Z" fill="#5c04a0"/>
    </clipPath>
    <clipPath id="clip-path-2">
      <path d="M1184.51,209.64a55.48,55.48,0,0,0,8.54.81c8.06.16,15.58,6.61,20.26,13.64,5.46,8.19,9.14,17.86,16.68,24.18,6,5.06,14.06,7.52,19.49,13.23,6.8,7.16,8,18.58,4.21,27.68a33.5,33.5,0,0,1-10.47,13.32,20,20,0,0,0-7.31,20c3.31,15.57,4.94,31.45,9.68,46.76,2.92,9.42,5.58,20.55-.36,28.42-6.1,8.06-17.79,6.92-26.23,1.36-12.19-8-38.73-3.78-50,3-9.42,5.66-35.72,20.57-46.3,23.54s-21.52,6.1-32.4,4.5-21.68-9.36-23-20.27c-1.55-12.76,9.48-23,16.19-34,9.78-16,47.52-44.77,45.22-84.38-1.08-18.7.84-38.29,9.67-54.81C1146.47,221.44,1167.64,206.66,1184.51,209.64Z" fill="#5c04a0"/>
    </clipPath>
    <clipPath id="clip-path-3">
      <path d="M1155.43,222s-26.83,10-15.83,44,103,79,133,113c24.33,27.57,77,35,92,2s58-107,25-143-75-39-87-8-6,42-25,57S1206.27,212.09,1155.43,222Z" fill="#5c04a0"/>
    </clipPath>
  </defs>
  <title>Vector 1</title>
  <g>
    <path d="M1248,218.1c17.42,10.55,30.49,26.78,45.3,40.76a218.24,218.24,0,0,0,52.83,36.78c10.75,5.32,22.17,9.9,31,18.05,13.94,12.89,19.26,33.38,16.67,52.18s-12.24,36.05-24.27,50.73c-12.41,15.14-28.35,30-29.39,49.51-.56,10.71,3.21,23-3.67,31.19-6.65,8-19.26,6.81-29,3.11-33.8-12.89-56-46.77-64.7-81.88-3.55-14.25-4.94-30.44,3.29-42.61,8.65-12.78,25.89-17.94,33.78-31.21,6.74-11.35,4.78-26.31-1.94-37.67s-17.45-19.73-28.45-27-22.59-13.88-32.22-22.9c-7.56-7.09-30.29-33.14-20.7-44C1207.43,200.78,1237,211.48,1248,218.1Z" fill="#5c04a0"/>
    <g clip-path="url(#clip-path)">
      <path d="M1253.32,273.39A56.39,56.39,0,0,1,1287,352c-10.71,21.89-35.17,36.29-40.55,60.05" fill="none" stroke="#fff" stroke-linecap="round" stroke-linejoin="round" stroke-width="2" opacity="0.15"/>
      <path d="M1248.11,262.33c19.55,6.28,40.61,13.67,51.91,30.83,10.19,15.48,10,35.93,4.33,53.6s-16,33.34-25.4,49.32-18.09,33-19.73,51.49l-2.45-2.05" fill="none" stroke="#fff" stroke-linecap="round" stroke-linejoin="round" stroke-width="2" opacity="0.15"/>
      <path d="M1229.32,245c18.06,4.45,36.24,9.26,52.65,18s31.13,21.88,38.37,39c8.22,19.46,6,41.89-.29,62.06s-16.31,39-23.8,58.7-12.44,41.33-7.92,62" fill="none" stroke="#fff" stroke-linecap="round" stroke-linejoin="round" stroke-width="2" opacity="0.15"/>
      <path d="M1217.39,226.56a263,263,0,0,1,63.79,20.05" fill="none" stroke="#fff" stroke-linecap="round" stroke-linejoin="round" stroke-width="2" opacity="0.15"/>
      <path d="M1335.17,289.16c14.21,11.35,20.17,30.73,19.19,48.9s-8,35.43-15.81,51.86S1322,422.49,1317.09,440c-5.75,20.58-5.93,42.24-6.08,63.6" fill="none" stroke="#fff" stroke-linecap="round" stroke-linejoin="round" stroke-width="2" opacity="0.15"/>
      <path d="M1206.26,213.34a325.5,325.5,0,0,1,44.41,6" fill="none" stroke="#fff" stroke-linecap="round" stroke-linejoin="round" stroke-width="2" opacity="0.15"/>
      <path d="M1366.43,306.26a103.76,103.76,0,0,1,2.36,84c-8,19.29-22.2,36.91-23,57.8" fill="none" stroke="#fff" stroke-linecap="round" stroke-linejoin="round" stroke-width="2" opacity="0.15"/>
    </g>
  </g>
  <rect x="483.71" y="21.6" width="511.92" height="342.48" rx="25.44" fill="#fff" stroke="#000" stroke-miterlimit="10" stroke-width="2"/>
  <path d="M1002.5,848.06c-.63,2.29-44,90.61-44,90.61l-40.48-11.19L963.64,834l39.71,11" fill="#ffc9e6"/>
  <polygon points="987.5 879.42 948.13 865.83 918.07 927.48 959.52 938.11 987.5 879.42" fill="#fca1bb"/>
  <polygon points="984.52 885.67 945.23 871.78 942.37 877.63 981.51 891.99 984.52 885.67" fill="#151614"/>
  <polygon points="980.46 894.41 940.4 880.31 937.55 886.17 977.45 900.73 980.46 894.41" fill="#fff"/>
  <g>
    <path d="M888.44,986.42c-5.47-2.2-5.63-14-4.28-19.79,5.72-24.39,20.64-49.76,38.52-65.53a5.9,5.9,0,0,1,9.05,1.55c4.11,7.49,13.68,17.74,33.66,10.3,7.18-2.68,9.69-12.24,16.61-15.48,8.87-4.15,21.86-1.71,23.25,10.12A16.8,16.8,0,0,1,1004,916c-3.06,7.2-9.44,11.79-15.7,16.07a181,181,0,0,0,48.63,39.6c8.53,4.76,17.48,8.85,25.39,14.59s14.87,13.43,17.44,22.86c1.23,4.53.64,12.46-.84,19.33a9.87,9.87,0,0,1-12.3,7.47Z" fill="#fff" stroke="#000" stroke-miterlimit="10"/>
    <path d="M1080.23,1019.13s-144.4-34.9-192.43-64.25" fill="#fff" stroke="#000" stroke-miterlimit="10"/>
    <path d="M1029.53,968.18c-10.45,3.66-22.34.51-31.52-5.67s-16.15-15.09-22.76-24l14.52-7.08" fill="none" stroke="#000" stroke-miterlimit="10"/>
    <path d="M1013.83,957.13c-5.58,3-9.87,5.82-16.18,5.59" fill="none" stroke="#000" stroke-miterlimit="10"/>
    <path d="M1001.29,944.8a56.92,56.92,0,0,1-17.17,5.93" fill="none" stroke="#000" stroke-miterlimit="10"/>
    <path d="M973.89,989c-1.9-11.22-10.76-20-20.32-26.19s-20.28-10.54-29.3-17.49-16.44-17.47-15.51-28.81" fill="none" stroke="#000" stroke-miterlimit="10"/>
    <path d="M960.44,986.14c-4.54-8.34-12.74-14-21.16-18.42s-17.38-7.8-25.2-13.19-14.57-13.27-15.79-22.68" fill="none" stroke="#000" stroke-miterlimit="10"/>
  </g>
  <path d="M1332.87,849.75c.23,2.37-8.32,100.36-8.32,100.36l-41.78,4.17,8.78-103.59,41-4.09" fill="#ffc9e6"/>
  <polygon points="1330.18 887.41 1288.56 888.94 1282.77 957.28 1325.26 952.25 1330.18 887.41" fill="#fca1bb"/>
  <polygon points="1330.23 882.13 1288.56 881.69 1287.76 888.16 1329.43 889.09 1330.23 882.13" fill="#151614"/>
  <polygon points="1329.03 900.93 1286.58 902.23 1286.03 908.72 1328.5 907.92 1329.03 900.93" fill="#fff"/>
  <g>
    <path d="M1321.68,925.78c5.73-5.08,4.63-14.9,9.91-20.42,6.77-7.07,19.77-9.48,25.33,1.06a16.74,16.74,0,0,1,1.84,8.34c-.26,7.82-4.55,14.4-8.85,20.65a180.6,180.6,0,0,0,59.64,19.39c9.68,1.36,19.51,2,29,4.45s18.71,7.17,24.51,15c4.39,6,8.22,14.74,7.4,22.14a8.6,8.6,0,0,1-7,7.45c-59.73,11-97.75,12.63-186.33,11.52a12,12,0,0,1-11.76-10.23c-3.46-24.81,1.3-53.85,12.28-75a5.9,5.9,0,0,1,9-1.83C1293.12,933.83,1305.73,939.94,1321.68,925.78Z" fill="#fff" stroke="#000" stroke-miterlimit="10"/>
    <path d="M1467.09,983.4s-147.26,19.53-202.65,9.48" fill="#fff" stroke="#000" stroke-miterlimit="10"/>
    <path d="M1401.42,954.17c-8.42,7.18-20.64,8.53-31.44,6.07s-20.5-8.24-29.87-14.14l11-11.84" fill="none" stroke="#000" stroke-miterlimit="10"/>
    <path d="M1382.8,949.52c-4.13,4.78-7.1,9-13.07,11.05" fill="none" stroke="#000" stroke-miterlimit="10"/>
    <path d="M1366.65,942.55a56.65,56.65,0,0,1-13.87,11.71" fill="none" stroke="#000" stroke-miterlimit="10"/>
    <path d="M1357.05,993.65c-5.82-9.78-17.26-14.79-28.41-17.09s-22.71-2.52-33.63-5.74-21.64-10.37-24.86-21.28" fill="none" stroke="#000" stroke-miterlimit="10"/>
    <path d="M1343.47,995.83c-7.24-6.13-17-8.49-26.38-9.54s-19-1-28.26-3.21-18.38-7.12-22.91-15.46" fill="none" stroke="#000" stroke-miterlimit="10"/>
  </g>
  <path d="M1121,377s-80,32-73,126,0,143,0,143L934.83,853.16a7.42,7.42,0,0,0,5,10.83l73.73,14.9a24.74,24.74,0,0,0,24.82-9.61c30.09-41,122.55-170,132.58-219.28,12-59-5.61-235.86,12.19-258.93Z" fill="#1b0042"/>
  <path d="M1158.69,377.52s-48.31,71.34,10.18,145.26S1249,641.2,1249,641.2l13.5,208.47A22.69,22.69,0,0,0,1284.72,871l55,1.08a22.69,22.69,0,0,0,23.1-21.62c2.91-62.51,9.25-229.33-9.7-274.85C1330,520,1216.26,383.39,1218.08,354.3Z" fill="#1b0042"/>
  <path d="M1119,117.55s-15.71,8.36-19.51,31.41c-3.62,21.87,7.6,67.52,18.78,62.88s31.66-20.13,31.66-20.13l8.14,30,32.75-11.7s-11.33-38.15-11.14-61.72c0-.49,0-1,0-1.46-.6-22-20.55-38.17-42.35-35.44A44.25,44.25,0,0,0,1119,117.55Z" fill="#ffc9e6"/>
  <path d="M1108.3,144.78c11.87,4.91,24.72,6.19,36.17,6.61,1.66.06,3.25.28,3.63-1.33.86-3.61,4.11-7.67,7-8.95,3.73-1.64,8.14-2.12,11.25.49,3.92,3.3,4.15,9.17,3.09,14.12-.23,1.07.69,1.89.08,2.79l-1.39.18c-1.76,2.61-4.8,3.62-2.28,5.52A153.17,153.17,0,0,0,1183,174.39a126.18,126.18,0,0,0-2.46-32.25c-2-10.34-7.18-20.5-16-26.33-7.82-5.19-17.82-6.43-27.06-4.8s-17.83,5.92-25.69,11a43.84,43.84,0,0,0-14,15.12,19.46,19.46,0,0,0,.66,18.62S1102.42,154,1108.3,144.78Z" fill="#1b0042"/>
  <path d="M1149.64,191.72l14.39-8.91a26.49,26.49,0,0,1-10,24.05Z" fill="#1b0042"/>
  <path d="M1129.48,159.45a16.8,16.8,0,0,0-7,1.52,8,8,0,0,0-4.15,4.84,1.33,1.33,0,0,0,1.39,1.66c3.88-.22,7.46-1.18,10.37-3.86a4.35,4.35,0,0,0,1.33-1.8A1.86,1.86,0,0,0,1129.48,159.45Z" fill="none" stroke="#000" stroke-linecap="round" stroke-linejoin="round"/>
  <path d="M1111.16,164.07a71.78,71.78,0,0,1-.94,15.85c-.15.88-.26,1.94.41,2.54a2.66,2.66,0,0,0,2.41.2l7.89-1.87" fill="none" stroke="#000" stroke-linecap="round" stroke-linejoin="round"/>
  <path d="M1122.08,163.81a2,2,0,0,1-2.71,2.91A2,2,0,1,1,1122.08,163.81Z"/>
  <g>
    <path d="M1100,170.14a14.15,14.15,0,0,1,5.48-2.08,6.85,6.85,0,0,1,5.24,1.53,1.1,1.1,0,0,1-.21,1.77c-2.87,1.67-5.86,2.67-9.19,2.13a4.61,4.61,0,0,1-1.33-.37A1.72,1.72,0,0,1,1100,170.14Z" fill="none" stroke="#000" stroke-linecap="round" stroke-linejoin="round"/>
    <path d="M1102.6,170.68a1.78,1.78,0,0,1-2.77,2.22A1.78,1.78,0,1,1,1102.6,170.68Z"/>
  </g>
  <path d="M1115.28,158.84c.16-1.35,1.38-2.32,2.56-3a19.68,19.68,0,0,1,10.08-2.56" fill="none" stroke="#000" stroke-linecap="round" stroke-linejoin="round"/>
  <path d="M1095.89,165.45a9.07,9.07,0,0,1,8.59-3.13" fill="none" stroke="#000" stroke-linecap="round" stroke-linejoin="round"/>
  <path d="M1121.7,188.59a8.16,8.16,0,0,0-10.9,2.44C1114.15,190.1,1118.35,189.51,1121.7,188.59Z" fill="none" stroke="#000" stroke-linecap="round" stroke-linejoin="round"/>
  <path d="M1110.87,191.42a5.61,5.61,0,0,0,5.88,2c2.11-.6,5.14-2.77,5.34-4.95"/>
  <path d="M1157.07,159.71c-4.81-.6-9.42,4.2-9.33,9.7s4.89,10.45,9.67,10,8.5-6.18,7.5-11.59" fill="none" stroke="#fff" stroke-linecap="round" stroke-linejoin="round"/>
  <path d="M1155.11,156.2a13.29,13.29,0,0,1,8-10.86" fill="none" stroke="#000" stroke-linecap="round" stroke-linejoin="round"/>
  <path d="M1158.66,148.55a8.93,8.93,0,0,1,3.17,9.71" fill="none" stroke="#000" stroke-linecap="round" stroke-linejoin="round"/>
  <ellipse cx="1214.92" cy="162.48" rx="29.56" ry="36.38" transform="translate(920.84 1352.42) rotate(-83.74)" fill="#1b0042"/>
  <path d="M1115.13,169.39c3.6-3,9.48-5.75,20.1-9.09a1.51,1.51,0,0,1,1.93,1.81c-1.07,4.14-4.25,12.09-13.1,14.77-6.46,2-9.52-.32-10.35-2.31A4.53,4.53,0,0,1,1115.13,169.39Z"/>
  <path d="M1107.52,172.15c-3.71-.11-8.79,1-17.07,3.95a1.52,1.52,0,0,0-.4,2.65c2.88,2.11,8.51,5.08,15.2,2.57,5.19-1.94,6.1-4.9,5.69-6.58A3.55,3.55,0,0,0,1107.52,172.15Z"/>
  <path d="M1136.05,161.45c0-.45,12.37-9.76,12.37-9.76.22-5,3.28-9.84,7.9-11.65s10.54,0,12.92,4.33c1.61,2.94,1.53,6.53.83,9.8a15.36,15.36,0,0,1-3.87,7.94c-2.12,2.1-5.4,3.22-8.2,2.18" fill="none" stroke="#000" stroke-linecap="round" stroke-linejoin="round"/>
  <path d="M1109.5,174.5s0-3,5-1" fill="none" stroke="#000" stroke-linecap="round" stroke-linejoin="round"/>
  <g>
    <path d="M1184.51,209.64a55.48,55.48,0,0,0,8.54.81c8.06.16,15.58,6.61,20.26,13.64,5.46,8.19,9.14,17.86,16.68,24.18,6,5.06,14.06,7.52,19.49,13.23,6.8,7.16,8,18.58,4.21,27.68a33.5,33.5,0,0,1-10.47,13.32,20,20,0,0,0-7.31,20c3.31,15.57,4.94,31.45,9.68,46.76,2.92,9.42,5.58,20.55-.36,28.42-6.1,8.06-17.79,6.92-26.23,1.36-12.19-8-38.73-3.78-50,3-9.42,5.66-35.72,20.57-46.3,23.54s-21.52,6.1-32.4,4.5-21.68-9.36-23-20.27c-1.55-12.76,9.48-23,16.19-34,9.78-16,47.52-44.77,45.22-84.38-1.08-18.7.84-38.29,9.67-54.81C1146.47,221.44,1167.64,206.66,1184.51,209.64Z" fill="#5c04a0"/>
    <g clip-path="url(#clip-path-2)">
      <path d="M1171.61,210.13c6.24,8.76,12.54,17.61,16.73,27.52s6.17,21.1,3.45,31.51c-5,19.33-24.13,30.93-37.07,46.16-10.12,11.91-16.62,26.41-22.58,40.86s-11.58,29.19-20.29,42.17-21,24.26-36,28.4" fill="none" stroke="#fff" stroke-linecap="round" stroke-linejoin="round" stroke-width="2" opacity="0.15"/>
      <path d="M1183.32,209.21c7.7,11.48,15.46,23.1,20.3,36s6.56,27.56,2,40.59c-5.87,16.56-20.69,28-31.32,42-11.87,15.62-18.49,34.46-26,52.59s-16.39,36.44-31.41,49.05" fill="none" stroke="#fff" stroke-linecap="round" stroke-linejoin="round" stroke-width="2" opacity="0.15"/>
      <path d="M1198.19,210l21.94,42.84c4.24,8.3,8.59,17,8.63,26.3.08,15.5-11.44,28.21-21,40.37a219.67,219.67,0,0,0-41,84.11" fill="none" stroke="#fff" stroke-linecap="round" stroke-linejoin="round" stroke-width="2" opacity="0.15"/>
      <path d="M1234.08,251.48c5.85,13.14,11.84,27.25,9.44,41.43s-12.86,25.71-20.37,38.14a102.19,102.19,0,0,0-13.05,70" fill="none" stroke="#fff" stroke-linecap="round" stroke-linejoin="round" stroke-width="2" opacity="0.15"/>
      <path d="M1238.91,339.55a90.55,90.55,0,0,0-1.49,65.09" fill="none" stroke="#fff" stroke-linecap="round" stroke-linejoin="round" stroke-width="2" opacity="0.15"/>
    </g>
  </g>
  <path d="M1199.24,420.29c-20.87,33.78-31,75.22-24.49,114.39" fill="none" stroke="#fff" stroke-linecap="round" stroke-linejoin="round" stroke-width="2"/>
  <g>
    <g>
      <path d="M739.68,325.83a9.67,9.67,0,0,1-7.79-4c-19.74-26.67-84.14-118.06-84.14-174.59,0-48.21,41.24-87.42,91.92-87.42s91.92,39.21,91.92,87.42c0,56.58-64.4,147.93-84.14,174.59a9.69,9.69,0,0,1-2.12,2.12,9.56,9.56,0,0,1-5.65,1.84Z" fill="#fff"/>
      <path d="M739.67,60.36c50.41,0,91.42,39,91.42,86.92,0,23.86-11.27,56.31-33.51,96.46-18.34,33.12-39.53,63-50.53,77.83a8.92,8.92,0,0,1-2,2,9.07,9.07,0,0,1-5.36,1.75,9.17,9.17,0,0,1-7.39-3.76c-11-14.86-32.18-44.73-50.53-77.85-22.23-40.16-33.51-72.6-33.51-96.44,0-47.93,41-86.92,91.42-86.92m0-1c-51,0-92.42,39.4-92.42,87.92,0,55.84,61.62,144.32,84.24,174.88a10.11,10.11,0,0,0,14.14,2.23,10,10,0,0,0,2.22-2.23c22.63-30.55,84.24-119,84.24-174.88,0-48.52-41.4-87.92-92.42-87.92Z"/>
    </g>
    <g>
      <circle cx="739.67" cy="151.77" r="45" fill="#fff"/>
      <path d="M739.67,107.27a44.51,44.51,0,1,1-44.5,44.5,44.56,44.56,0,0,1,44.5-44.5m0-1a45.51,45.51,0,1,0,45.51,45.5,45.5,45.5,0,0,0-45.51-45.5Z"/>
    </g>
  </g>
  <path d="M1195.09,209.51c6.66.8,14.12,7.72,18,13.18s6.63,11.68,10.67,17c5.93,7.83,14.31,13.4,21,20.6s13.74,17.33,10.71,26.67" fill="none" stroke="#fff" stroke-linecap="round" stroke-linejoin="round" stroke-width="2"/>
  <g>
    <path d="M1357.62,171.5c-7.7-2.69-15.71-5.57-20.69-12.4a15.77,15.77,0,0,1-3.1-11.42c1.1-7.63,7.8-10.67,13.94-13.23a102.36,102.36,0,0,1,12.08-4.38c7.82-2.11,14,6.72,9.56,13.47a41.16,41.16,0,0,1-9.46,10.11,8.11,8.11,0,0,1,6.87,2.1" fill="#ffc9e6"/>
    <path d="M1380.8,75.34,1345,79.71a2.64,2.64,0,0,0-2.32,2.72l3.8,99.72a2.64,2.64,0,0,0,2.94,2.52L1389.6,180l-5.84-102.19A2.65,2.65,0,0,0,1380.8,75.34Z" fill="#1b0042"/>
    <g>
      <path d="M1155.43,222s-26.83,10-15.83,44,103,79,133,113c24.33,27.57,77,35,92,2s58-107,25-143-75-39-87-8-6,42-25,57S1206.27,212.09,1155.43,222Z" fill="#5c04a0"/>
      <g clip-path="url(#clip-path-3)">
        <path d="M1380.13,247c6.21,5.82,8.53,14.88,8,23.37s-3.43,16.64-6.34,24.64q-9.09,25-18.2,50c-5.55,15.27-12.75,32.26-28,37.94-9.55,3.56-20.44,1.66-29.63-2.75s-17-11.14-24.89-17.65a843.4,843.4,0,0,0-91-65.72c-19.76-12.36-41.32-25.36-50.23-46.89" fill="none" stroke="#fff" stroke-linecap="round" stroke-linejoin="round" stroke-width="2" opacity="0.15"/>
        <path d="M1374.38,258.23c1.32,6.46-1.42,13-4.09,19q-13.36,30.08-26.71,60.15c-3.06,6.9-6.53,14.26-13.11,18-5.43,3.06-12.19,3-18.16,1.23s-11.3-5.22-16.45-8.75c-28.48-19.51-53.95-43.58-84.45-59.76-12.74-6.76-26.25-12.07-38.64-19.47s-23.88-17.26-29.87-30.38" fill="none" stroke="#fff" stroke-linecap="round" stroke-linejoin="round" stroke-width="2" opacity="0.15"/>
        <path d="M1347,270.16a139,139,0,0,1-19,43.49c-2.66,4-5.88,8.16-10.53,9.46-4.11,1.15-8.48-.17-12.48-1.67-39.13-14.68-69.53-46.63-107.75-63.55-8.35-3.69-17.05-6.66-25-11.22s-15.14-11-18.47-19.51" fill="none" stroke="#fff" stroke-linecap="round" stroke-linejoin="round" stroke-width="2" opacity="0.15"/>
        <path d="M1339.3,242.13c-7.48.37-14,5.44-18.44,11.48s-7.21,13.09-10.71,19.71-8,13.08-14.64,16.58-15.75,3.14-20.65-2.52" fill="none" stroke="#fff" stroke-linecap="round" stroke-linejoin="round" stroke-width="2" opacity="0.15"/>
        <path d="M1216.6,247.21l-59.55-25.12" fill="none" stroke="#fff" stroke-linecap="round" stroke-linejoin="round" stroke-width="2" opacity="0.15"/>
        <path d="M1348.65,225.58c-5-5-12.65-6.7-19.57-5.38S1316,225.53,1311,230.47s-9,10.81-13,16.63" fill="none" stroke="#fff" stroke-linecap="round" stroke-linejoin="round" stroke-width="2" opacity="0.15"/>
      </g>
    </g>
    <path d="M1348.79,217.06c.63,12-13.1,21.25-13.2,33.29-.1,10.63,9.27,20.45,19.89,20.85s18.35-10.39,20.75-20.75c5.06-21.92,43.28-80.73,43.41-93.38.34-33.28-9.45-66.61-6.72-99.52a3.67,3.67,0,0,0-6.64-2.45,42.25,42.25,0,0,0-7,17.55c-1.64,9.91-.52,20,.61,30l-9.11-38.23a3.66,3.66,0,0,0-6.81-.85c-7.07,13.1-9.4,33.73-6.21,48.28-3.3-7.51-6-20.3-8.06-28.24a3.65,3.65,0,0,0-6.57-1.11,50.66,50.66,0,0,0-7.9,38.4c1.56,7.56,4.85,14.63,7.17,22,1.41,4.49,2.09,7,1.84,10C1364.28,152.86,1346,163.12,1348.79,217.06Z" fill="#ffc9e6"/>
    <path d="M1405.7,136.1a217.34,217.34,0,0,1-7-36.71" fill="none" stroke="#000" stroke-linecap="round" stroke-linejoin="round" stroke-width="2"/>
    <path d="M1389.75,140.2l-13.85-34" fill="none" stroke="#000" stroke-linecap="round" stroke-linejoin="round" stroke-width="2"/>
    <path d="M1372.89,96l-8.31,1.12a15.66,15.66,0,0,1,4.29-15.64,67.85,67.85,0,0,1,4.35,14.83" fill="none" stroke="#000" stroke-linecap="round" stroke-linejoin="round" stroke-width="2"/>
    <path d="M1394.09,79.19c-2.4-1.9-6,2.51-8.68,1-1.27-.73-1.5-2.43-1.6-3.89a28.37,28.37,0,0,1,.2-7.92,9.57,9.57,0,0,1,4.27-6.43,56.54,56.54,0,0,1,6.13,17.75" fill="none" stroke="#000" stroke-linecap="round" stroke-linejoin="round" stroke-width="2"/>
    <path d="M1412.34,72.05l-6.15-.18a14.41,14.41,0,0,1,7-16.49l-.36,16.67" fill="none" stroke="#000" stroke-linecap="round" stroke-linejoin="round" stroke-width="2"/>
  </g>
</svg>
