<svg id="Layer_1" data-name="Layer 1" xmlns="http://www.w3.org/2000/svg" xmlns:xlink="http://www.w3.org/1999/xlink" viewBox="0 0 1920 1080">
  <defs>
    <clipPath id="clip-path">
      <path d="M1554.63,269.19c-13.08,17.72-19,39.51-27.15,60s-19.79,41.19-39.41,51.19l-68.51-138.5c-5.65-11.41-11.83-23.42-22.71-30-20.6-12.52-23.38-.31-43.69,12.67-13.81,8.82-28.1,19-34.1,34.21-6.81,17.31-1.23,36.9,6,54,18.56,44,49.17,84.26,91.39,106.51s73.22,23.72,112.61-3.21c40.1-27.43,57.67-76.91,72.83-123.07,4.41-13.41,17.07-43.41-.22-49.56C1585.75,237.75,1562.85,258.06,1554.63,269.19Z" fill="#5c04a0"/>
    </clipPath>
    <clipPath id="clip-path-2">
      <path d="M1610.59,247.65a12.58,12.58,0,0,0,4.41-.23c18.18-4.39,36.85,9.41,46.62,25.71,10.12,16.88,14.42,36.74,24.59,53.58,18.22,30.18,53.36,47.64,67.82,80.43a23.57,23.57,0,0,1,1.74,14.18c-3.71,18.17-26.6,18.26-41.87,11.49-14-6.22-28.24-16.07-43.28-13-12.78,2.64-21.54,14-31.72,22.13-21.38,17.13-48.41,16.18-57.54,6.86-7.69-7.85-5.36-23.59-1.61-33.91s8.4-21.84,3.84-31.84c-4.31-9.46-15.14-13.67-23.33-20.08-20.2-15.82-23.55-47.13-12-70,11.16-22,33.22-36.81,56.68-44.78a12.85,12.85,0,0,1,5.61-.56Z" fill="#5c04a0"/>
    </clipPath>
    <clipPath id="clip-path-3">
      <path d="M1539.49,276.31c-17.74,21.64-34.18,46.72-60.18,57.05-25.2,10-53.72,3.78-79.62-4.23-18.86-5.84-39.45-12.53-57.73-5.1-15.63,6.35-26,22.39-28.53,39.07-4.06,26.9,10.79,54.48,33.09,70.06s50.79,20.38,77.91,18.16,63.58-4.94,89.1-14.39c36.49-13.52,66-38.72,78.28-75.64,5.28-15.82,4.79-33.46,12.33-48.33,5.47-10.79,14.7-19.14,21.76-29,14.67-20.4,9.18-49.59-19.79-50.08C1580.59,233.49,1554.26,258.3,1539.49,276.31Z" fill="#5c04a0"/>
    </clipPath>
  </defs>
  <title>Vector 1</title>
  <path d="M1316.14,770.74c-.88,2.86-14.48,126-14.48,126l50.58,15.45,14.7-130.12-49.63-15.16" fill="#ffc9e6"/>
  <polygon points="1310.9 814.21 1361.94 826.36 1352.24 912.2 1300.99 895.5 1310.9 814.21" fill="#fca1bb"/>
  <g>
    <path d="M1310.18,863.52c-5.82-7.69-2-19.55-7.2-27.67-5.27-8.29-16.16-13.9-25.16-10-7.29,3.2-11.1,11.69-11.1,19.65s3.08,15.57,6.22,22.89a227.48,227.48,0,0,1-78.45,9.25c-12.28-.7-24.57-2.4-36.85-1.64s-24.88,4.23-34,12.52c-6.9,6.28-13.78,16.17-14.61,25.52a10.84,10.84,0,0,0,6.86,10.93c71.75,28.63,118.53,39.92,230.55,60.79a11.31,11.31,0,0,0,12.64-7.14c11.46-30.3,13.14-69,4.5-98.89a7.43,7.43,0,0,0-10.67-4.47C1343.49,880.5,1326.4,884.93,1310.18,863.52Z" fill="#fff" stroke="#000" stroke-miterlimit="10"/>
    <path d="M1116.37,898.82s177.08,60.44,248,61.69" fill="#fff" stroke="#000" stroke-miterlimit="10"/>
    <path d="M1204.69,878.91c8.64,10.94,23.4,15.63,37.34,15.26s27.35-5.13,40.38-10.11l-10.65-17.34" fill="none" stroke="#000" stroke-miterlimit="10"/>
    <path d="M1228.85,877.76c3.92,6.92,6.54,12.86,13.41,16.87" fill="none" stroke="#000" stroke-miterlimit="10"/>
    <path d="M1250.5,873.13A71.31,71.31,0,0,0,1264.75,891" fill="none" stroke="#000" stroke-miterlimit="10"/>
    <path d="M1249.77,938.62c9.6-10.64,25-14,39.3-14.11s28.67,2.49,43,1.21,29.29-7.47,36-20.16" fill="none" stroke="#000" stroke-miterlimit="10"/>
    <path d="M1266,944.67c10.46-5.8,23-6.31,34.93-5.28s23.76,3.44,35.7,3,24.46-4.26,32.11-13.44" fill="none" stroke="#000" stroke-miterlimit="10"/>
  </g>
  <polygon points="1309.85 822.86 1361 834.64 1360.08 842.8 1308.78 831.62 1309.85 822.86" fill="#151614"/>
  <polygon points="1308.26 834.9 1360.37 846.97 1359.45 855.13 1307.19 843.66 1308.26 834.9" fill="#fff"/>
  <path d="M1676.35,329.67c16.1,24.55,33,13.95,49.77,52,11.89,26.92,31.3,66.73,27.54,95.92-4.6,35.65-27.05,61.08-52.73,74.73-73,38.76-216.91-3.28-264.6-20.13a1.54,1.54,0,0,1,.23-3h0c4.55,86-25,182.65-42.73,266.89-32.63,3.38-49.26-.45-81.32-7.44-.62.51,0,1.77.83,1.53,3.57-49,5.14-98.63,2.66-147.73-3-59.52-25.42-114.77-9.51-155.93s23.9-48.86,65.87-62.48c30.46-9.89,107-7.34,138.92-5s65.7,2.91,94-12.06c28.88-15.27,31.91-50.43,54.67-73.86,2.24-2.31,4.51-4.7,7.41-6.12A7.37,7.37,0,0,1,1676.35,329.67Z" fill="#1b0042"/>
  <path d="M1092,884.36a91.85,91.85,0,0,1,58.11-29.44" fill="none" stroke="#000" stroke-linecap="round" stroke-linejoin="round"/>
  <path d="M1101.81,858.51a79.58,79.58,0,0,1,47.54-16.58" fill="none" stroke="#000" stroke-linecap="round" stroke-linejoin="round"/>
  <path d="M1534.8,820.8c1,2.7,63.84,104.79,63.84,104.79l47.8-18.28-66.13-108-46.89,17.93" fill="#ffc9e6"/>
  <polygon points="1556.64 857.09 1602.81 836.03 1646.44 907.31 1597.4 925.03 1556.64 857.09" fill="#fca1bb"/>
  <g>
    <path d="M1585.4,895.15c-9-2.41-13.17-13.71-22-16.84-9-3.19-20.59-1-25.11,7.36-3.66,6.78-1.53,15.53,3.2,21.61s11.61,10.05,18.36,13.77a220,220,0,0,1-54.38,53.69c-9.79,6.76-20.18,12.77-29.1,20.65s-16.48,18-18.49,29.76c-1.53,8.89-.91,20.53,4,28.16a10.48,10.48,0,0,0,11.73,4.27c71.78-20.81,114.2-40,212.1-90.65a11,11,0,0,0,5.41-13c-9.27-29.93-31-60.46-55.35-78.14a7.18,7.18,0,0,0-10.8,2.93C1620.91,888.32,1610.5,901.86,1585.4,895.15Z" fill="#fff" stroke="#000" stroke-miterlimit="10"/>
    <path d="M1458.45,1037.3S1629.54,978.17,1684.39,937" fill="#fff" stroke="#000" stroke-miterlimit="10"/>
    <path d="M1514,969.61c13.1,3.22,27.15-2,37.57-10.55s17.83-20.18,24.82-31.72l-18.44-6.9" fill="none" stroke="#000" stroke-miterlimit="10"/>
    <path d="M1531.79,954.37c7.1,3,12.64,5.93,20.26,4.9" fill="none" stroke="#000" stroke-miterlimit="10"/>
    <path d="M1545.57,938a69.31,69.31,0,0,0,21.5,5.18" fill="none" stroke="#000" stroke-miterlimit="10"/>
    <path d="M1583.93,988.39c1-13.83,10.72-25.54,21.61-34.13s23.37-15.15,33.5-24.61,17.92-23.11,15.47-36.76" fill="none" stroke="#000" stroke-miterlimit="10"/>
    <path d="M1599.91,983.35c4.54-10.63,13.83-18.49,23.53-24.79s20.18-11.49,29-18.93,16.13-17.79,16.52-29.35" fill="none" stroke="#000" stroke-miterlimit="10"/>
  </g>
  <polygon points="1560.98 864.32 1607.02 842.9 1611.17 849.68 1565.37 871.64 1560.98 864.32" fill="#151614"/>
  <polygon points="1566.92 874.45 1613.87 852.69 1618.01 859.47 1571.31 881.77 1566.92 874.45" fill="#fff"/>
  <path d="M1552,318.31c24.56,8.38,27.38,2.15,59.8,19.58,22.92,12.32,58.08,29.55,71.31,51.95,16.16,27.36,14.33,57.29,3.82,80.76-29.85,66.69-137.07,108.54-179.49,122.69-1.31.44-18.36,5.86-17.44,4.82l24-7c49.87,57.49,73.79,141,107.17,209.36-20.92,20.08-50.61,33.45-76.76,46a.82.82,0,0,0,1.4.62c-24.14-36.14-48.67-72.69-72.81-108.83-21.67-32.44-43.63-65.49-54.89-102.84s-18.42-69.54,3.46-101.84c15.87-23.45,37.15-37.16,60.69-52.89s47.4-33.66,59-59.48c11.85-26.34-2-62.82,1.18-91.53.31-2.83.6-5.73,1.85-8.29A6.53,6.53,0,0,1,1552,318.31Z" fill="#1b0042"/>
  <path d="M1431.23,1040.78a88.77,88.77,0,0,1,26.84-57" fill="none" stroke="#000" stroke-linecap="round" stroke-linejoin="round"/>
  <path d="M1423.38,1015.19a77,77,0,0,1,26.43-40.91" fill="none" stroke="#000" stroke-linecap="round" stroke-linejoin="round"/>
  <path d="M1227.5,344.61a31.38,31.38,0,0,1-21.25-4.5c-1.93-1.22-3.93-3.21-3.35-5.42s3.47-3,5.83-3.25l24-2.74c6.2-.71,12.46-1.42,18.67-.82s12.47,2.61,17.14,6.75" fill="#ffc9e6"/>
  <path d="M1205,373.84c1.39-2.77,31.89-92.9,31.89-92.9" fill="none" stroke="#000" stroke-linecap="round" stroke-linejoin="round" stroke-width="4"/>
  <path d="M1272.94,370.55c6.26-4.33,15.4-6.45,21.51-1.56,13.87,11.09,23.28,18.63,33.15,24.87s23.7,7,32.92-2.1c5.74-5.69,6.45-14.52,4.69-22.41a26.74,26.74,0,0,0-14.72-18.19c-6.23-2.86-13.29-3.17-20-4.76-14.35-3.42-26.49-12.63-38.88-20.64-11-7.07-17.68-10.14-30.52-12.05-8.25-1.23-20,2.39-25.83,8.34-5.54,5.66-10,9.82-14.33,16.44s-14.38,14.45-21.37,18c-3.3,1.68-7.71,4.11-6.46,7.71a4.82,4.82,0,0,0,5.11,3,46,46,0,0,0,31.4-17.71c-1,2.54-2.25,6-.6,8.19a8.07,8.07,0,0,0,7.2,3.08,8.19,8.19,0,0,0,4,9.18C1250.52,375.7,1263.29,377.22,1272.94,370.55Z" fill="#ffc9e6"/>
  <path d="M1229.26,350.87c4.14-5.13,9.67-14.42,13.81-19.54a26.38,26.38,0,0,1,6.09-6.07c2.44-1.55,5.59-2.25,8.23-1.11" fill="none" stroke="#000" stroke-linecap="round" stroke-linejoin="round"/>
  <path d="M1236.37,360.28c4.55-5.91,11.4-20.83,17.52-25.09,2.64-1.85,6.59-4.33,10-2.94" fill="none" stroke="#000" stroke-linecap="round" stroke-linejoin="round"/>
  <path d="M1264,374.05c4.78-.21,12-4.08,13.21-7s.62-6.86-2.14-8.43c-1.67-.95-3.72-.84-5.64-.72-6.06.41-12.85,1.18-16.67,5.91" fill="none" stroke="#000" stroke-linecap="round" stroke-linejoin="round"/>
  <path d="M1217.26,342.68c3.88-5.2,15.49-22.91,25.4-25.48" fill="none" stroke="#000" stroke-linecap="round" stroke-linejoin="round"/>
  <path d="M1277,367.71l10.72-.84c2.17-.17,4.43-.38,6.27-1.54a9.06,9.06,0,0,0,3.47-4.67,26.91,26.91,0,0,0,1.17-5.79" fill="none" stroke="#000" stroke-linecap="round" stroke-linejoin="round"/>
  <path d="M1311.78,175.7c-8.83-8.71-15.94-27.17-13.66-39.6.68-3.66,4.19-5.74,6.43-2.77a48.17,48.17,0,0,1,3.76,6.25,71,71,0,0,0,15.74,19.66c3.84,3.34,8,6.28,11.67,9.86s10.87,13.51,11.73,18.53" fill="#ffc9e6"/>
  <g>
    <path d="M1546.06,152.43s-15.7,8.37-19.51,31.41c-3.61,21.87,7.61,67.53,18.78,62.88S1577,226.59,1577,226.59l8.13,30,32.75-11.7s-11.32-38.15-11.14-61.72c0-.49,0-1,0-1.46-.6-22-20.55-38.17-42.36-35.44A44.3,44.3,0,0,0,1546.06,152.43Z" fill="#ffc9e6"/>
    <path d="M1535.36,179.66c11.88,4.91,24.73,6.19,36.17,6.61,1.66.06,3.25.28,3.64-1.33.86-3.61,4.11-7.66,7-8.95,3.72-1.64,8.13-2.12,11.25.5,3.92,3.3,4.14,9.16,3.08,14.12-.23,1.06.69,1.88.09,2.78l-1.39.18c-1.76,2.61-4.8,3.63-2.29,5.53a154.78,154.78,0,0,0,17.1,10.17,126.64,126.64,0,0,0-2.46-32.25c-2-10.34-7.19-20.5-16-26.32-7.82-5.19-17.81-6.44-27.06-4.81s-17.83,5.93-25.69,11.05a44,44,0,0,0-14,15.13,19.5,19.5,0,0,0,.66,18.61S1529.49,188.89,1535.36,179.66Z" fill="#1b0042"/>
    <path d="M1575.49,186.57c.21-5,3.27-9.84,7.89-11.65s10.54,0,12.92,4.34c1.61,2.93,1.53,6.52.84,9.8a15.55,15.55,0,0,1-3.87,7.94c-2.13,2.1-5.41,3.21-8.21,2.17" fill="none" stroke="#000" stroke-linecap="round" stroke-linejoin="round"/>
    <path d="M1576.7,226.6l14.39-8.91a26.5,26.5,0,0,1-10,24.05Z" fill="#1b0042"/>
    <path d="M1556.55,194.33a17.12,17.12,0,0,0-7.06,1.52,8.05,8.05,0,0,0-4.15,4.85,1.35,1.35,0,0,0,1.39,1.66c3.89-.23,7.46-1.19,10.38-3.86a4.48,4.48,0,0,0,1.32-1.8A1.86,1.86,0,0,0,1556.55,194.33Z" fill="none" stroke="#000" stroke-linecap="round" stroke-linejoin="round"/>
    <path d="M1527.05,203.78a13.92,13.92,0,0,1,5.11-2.86,6.81,6.81,0,0,1,5.4.75,1.1,1.1,0,0,1,.06,1.78c-2.6,2.07-5.41,3.5-8.78,3.45a4.82,4.82,0,0,1-1.37-.18A1.71,1.71,0,0,1,1527.05,203.78Z" fill="none" stroke="#000" stroke-linecap="round" stroke-linejoin="round"/>
    <path d="M1538.22,199a72.35,72.35,0,0,1-.93,15.85c-.15.88-.26,1.94.41,2.54a2.64,2.64,0,0,0,2.4.2l7.9-1.87" fill="none" stroke="#000" stroke-linecap="round" stroke-linejoin="round"/>
    <path d="M1549.15,198.69a2,2,0,0,1-2.71,2.91C1544.38,199.83,1547.22,196.77,1549.15,198.69Z"/>
    <path d="M1529.66,203.93a1.78,1.78,0,0,1-2.42,2.61A1.78,1.78,0,1,1,1529.66,203.93Z"/>
    <path d="M1541.35,192.73c.15-1.36,1.37-2.33,2.56-3a19.66,19.66,0,0,1,10.08-2.56" fill="none" stroke="#000" stroke-linecap="round" stroke-linejoin="round"/>
    <path d="M1523,196.33a9.06,9.06,0,0,1,8.59-3.13" fill="none" stroke="#000" stroke-linecap="round" stroke-linejoin="round"/>
    <path d="M1548.76,223.47a8.17,8.17,0,0,0-10.9,2.44C1541.21,225,1545.41,224.4,1548.76,223.47Z" fill="none" stroke="#000" stroke-linecap="round" stroke-linejoin="round"/>
    <path d="M1537.93,226.3a5.62,5.62,0,0,0,5.88,2c2.11-.6,5.14-2.76,5.34-4.95"/>
    <circle cx="1550.9" cy="201.67" r="9.11" fill="none" stroke="#000" stroke-linecap="round" stroke-linejoin="round"/>
    <circle cx="1529.03" cy="207.31" r="9.11" fill="none" stroke="#000" stroke-linecap="round" stroke-linejoin="round"/>
    <line x1="1558.43" y1="196.7" x2="1574.12" y2="185.18" fill="none" stroke="#000" stroke-linecap="round" stroke-linejoin="round"/>
    <path d="M1584.13,194.59c-4.8-.6-9.42,4.2-9.32,9.7s4.88,10.45,9.67,10,8.5-6.18,7.5-11.59" fill="none" stroke="#000" stroke-linecap="round" stroke-linejoin="round"/>
    <path d="M1582.17,191.09a13.29,13.29,0,0,1,8-10.87" fill="none" stroke="#000" stroke-linecap="round" stroke-linejoin="round"/>
    <path d="M1583.73,184.43l5.16,8.71" fill="none" stroke="#000" stroke-linecap="round" stroke-linejoin="round"/>
    <ellipse cx="1641.99" cy="197.36" rx="29.56" ry="36.38" transform="translate(1266.62 1808.01) rotate(-83.74)" fill="#1b0042"/>
    <path d="M1460.53,121.5a1.5,1.5,0,0,0,0-3,1.5,1.5,0,0,0,0,3Z" fill="#fff"/>
  </g>
  <g>
    <path d="M1554.63,269.19c-13.08,17.72-19,39.51-27.15,60s-19.79,41.19-39.41,51.19l-68.51-138.5c-5.65-11.41-11.83-23.42-22.71-30-20.6-12.52-23.38-.31-43.69,12.67-13.81,8.82-28.1,19-34.1,34.21-6.81,17.31-1.23,36.9,6,54,18.56,44,49.17,84.26,91.39,106.51s73.22,23.72,112.61-3.21c40.1-27.43,57.67-76.91,72.83-123.07,4.41-13.41,17.07-43.41-.22-49.56C1585.75,237.75,1562.85,258.06,1554.63,269.19Z" fill="#5c04a0"/>
    <g clip-path="url(#clip-path)">
      <path d="M1325.15,249c-3.69,7.55-1.12,16.56,1.78,24.45a338.87,338.87,0,0,0,31.38,63.66" fill="none" stroke="#fff" stroke-miterlimit="10" stroke-width="2" opacity="0.15"/>
      <path d="M1338.88,255.88c.79,11.6,7.27,21.93,13.57,31.71l33.4,51.89" fill="none" stroke="#fff" stroke-miterlimit="10" stroke-width="2" opacity="0.15"/>
      <path d="M1365.63,260.28q26,43.35,47.77,89.05" fill="none" stroke="#fff" stroke-miterlimit="10" stroke-width="2" opacity="0.15"/>
      <path d="M1370.07,241.79c14.13,5.85,22.72,20,30.35,33.25l42.7,74.28" fill="none" stroke="#fff" stroke-miterlimit="10" stroke-width="2" opacity="0.15"/>
      <path d="M1361.83,227.88c6.46-4.65,15.56-4.2,22.75-.78s12.84,9.34,18.06,15.36c24.83,28.6,43.58,61.87,62.15,94.88" fill="none" stroke="#fff" stroke-miterlimit="10" stroke-width="2" opacity="0.15"/>
    </g>
  </g>
  <g>
    <path d="M1610.59,247.65a12.58,12.58,0,0,0,4.41-.23c18.18-4.39,36.85,9.41,46.62,25.71,10.12,16.88,14.42,36.74,24.59,53.58,18.22,30.18,53.36,47.64,67.82,80.43a23.57,23.57,0,0,1,1.74,14.18c-3.71,18.17-26.6,18.26-41.87,11.49-14-6.22-28.24-16.07-43.28-13-12.78,2.64-21.54,14-31.72,22.13-21.38,17.13-48.41,16.18-57.54,6.86-7.69-7.85-5.36-23.59-1.61-33.91s8.4-21.84,3.84-31.84c-4.31-9.46-15.14-13.67-23.33-20.08-20.2-15.82-23.55-47.13-12-70,11.16-22,33.22-36.81,56.68-44.78a12.85,12.85,0,0,1,5.61-.56Z" fill="#5c04a0"/>
    <g clip-path="url(#clip-path-2)">
      <path d="M1562.66,303.51c-6.51,15.79,2.73,33.52,13.17,47s23,27.27,24,44.33c.64,10.95-3.7,21.52-5.61,32.33s-.54,23.66,8.4,30" fill="none" stroke="#fff" stroke-miterlimit="10" stroke-width="2" opacity="0.15"/>
      <path d="M1620.2,453.59c-9.3-20.45,2.68-44.65-1.77-66.67-5.21-25.81-32.13-44.86-31.93-71.19" fill="none" stroke="#fff" stroke-miterlimit="10" stroke-width="2" opacity="0.15"/>
      <path d="M1596.66,295.63a530,530,0,0,1,50.74,140" fill="none" stroke="#fff" stroke-miterlimit="10" stroke-width="2" opacity="0.15"/>
      <path d="M1615.44,285.19c21.47,13.7,31.92,39.31,38.6,63.89s11.23,50.57,25.73,71.51" fill="none" stroke="#fff" stroke-miterlimit="10" stroke-width="2" opacity="0.15"/>
      <path d="M1628.32,265.74c21.23,11.26,33.06,34.43,41.67,56.87s15.78,46.36,32.11,64c6.94,7.49,15.33,13.59,21.66,21.59s10.43,18.88,6.9,28.45" fill="none" stroke="#fff" stroke-miterlimit="10" stroke-width="2" opacity="0.15"/>
    </g>
  </g>
  <g>
    <path d="M1539.49,276.31c-17.74,21.64-34.18,46.72-60.18,57.05-25.2,10-53.72,3.78-79.62-4.23-18.86-5.84-39.45-12.53-57.73-5.1-15.63,6.35-26,22.39-28.53,39.07-4.06,26.9,10.79,54.48,33.09,70.06s50.79,20.38,77.91,18.16,63.58-4.94,89.1-14.39c36.49-13.52,66-38.72,78.28-75.64,5.28-15.82,4.79-33.46,12.33-48.33,5.47-10.79,14.7-19.14,21.76-29,14.67-20.4,9.18-49.59-19.79-50.08C1580.59,233.49,1554.26,258.3,1539.49,276.31Z" fill="#5c04a0"/>
    <g clip-path="url(#clip-path-3)">
      <path d="M1320.87,402.88a184.47,184.47,0,0,0,198.18,10.89c27-15.23,56.73-37,79.11-58.45" fill="none" stroke="#fff" stroke-miterlimit="10" stroke-width="2" opacity="0.15"/>
      <path d="M1314,383.06c60.36,37.8,141.87,38.8,203.14,2.5,28-16.61,51.79-40.16,81.13-54.35" fill="none" stroke="#fff" stroke-miterlimit="10" stroke-width="2" opacity="0.15"/>
      <path d="M1316.35,362.33c60.42,26.23,132.51,24,191.21-5.87,38.09-19.4,70.86-49.74,111.77-62.12" fill="none" stroke="#fff" stroke-miterlimit="10" stroke-width="2" opacity="0.15"/>
      <path d="M1323.92,338.5c62.37,21.3,134.32,12.38,189.59-23.51,24.64-16,47-37.42,75.6-44.21a81.36,81.36,0,0,1,43.76,1.81" fill="none" stroke="#fff" stroke-miterlimit="10" stroke-width="2" opacity="0.15"/>
      <path d="M1540.54,274.21a230.45,230.45,0,0,1,60.1-28.7c10.67-3.31,23.38-5.48,32.1,1.49" fill="none" stroke="#fff" stroke-miterlimit="10" stroke-width="2" opacity="0.15"/>
    </g>
  </g>
  <path d="M1470.8,335.66s-45.83,10.81-102.06-14.31c-29.92-13.37-52.81,26.55-52.81,26.55" fill="none" stroke="#fff" stroke-linecap="round" stroke-linejoin="round" stroke-width="2"/>
  <path d="M1630.83,244.41c6.19,11,2.76,29.18-3.46,40.15s-15,20.42-20.32,31.87c-10.31,22.25-7.17,51.21-24.77,68.28" fill="none" stroke="#fff" stroke-linecap="round" stroke-linejoin="round" stroke-width="2"/>
  <path d="M1356.83,204.37c-4.36-14.06-11.48-28.27-24.16-35.75-8.89-5.24-19.51-6.58-29.82-7.05a213.88,213.88,0,0,0-28,.56c-6.06.52-12.7,1.61-16.63,6.26s-2.22,13.77,3.83,14.33c-6.69,1.32-8.69,12.05-2.92,15.69-4.42,4.8-5.37,11.91,9.22,17.09,6.61,2.34,13.91-1.45,20.92-1.73,18.91-.77,37.66,11.47,44.55,29.09,2.54,6.48,3.78,13.83,8.68,18.76,10.58,10.62,29.37,1.64,28.19-13.25-.45-5.75-4.69-11.5-6.45-17C1361.42,222.49,1359.6,213.29,1356.83,204.37Z" fill="#ffc9e6"/>
  <path d="M1316.64,180.49s12.8-18.63,26.77-12.81,10.48,32.6,0,39.58-26.77-2.33-26.77-2.33" fill="none" stroke="#000" stroke-miterlimit="10" stroke-width="3"/>
  <path d="M1425.17,655.1S1441,582,1436,540l163,28" fill="none" stroke="#fff" stroke-linecap="round" stroke-linejoin="round" stroke-width="2"/>
  <path d="M1018,252l49.59,133.11A30.56,30.56,0,0,0,1096.23,405H1221" fill="none" stroke="#000" stroke-linecap="round" stroke-miterlimit="10" stroke-width="10"/>
  <rect x="255" y="72" width="688" height="404" rx="25.44" fill="#fff" stroke="#000" stroke-miterlimit="10" stroke-width="2"/>
  <g>
    <path d="M402.36,227.63a7.75,7.75,0,0,0,4.69,2.25v2.83q-8.49-.42-21.47-.42-14.5,0-21.48.42v-2.83q5.32-.21,7.63-1.31A3.94,3.94,0,0,0,374,224.7a21.6,21.6,0,0,0-1.72-6.7l-8.49-23.2H333l-3.73,9.73q-3.87,9.94-3.87,15.75,0,5.25,3.11,7.32t9.39,2.28v2.83q-9.53-.42-17.54-.42-6.5,0-10.77.42v-2.83q7-1.17,12.15-14.85L354,132.3c1.52.14,3.15.21,4.9.21s3.48-.07,4.91-.21l34.31,88.53A18,18,0,0,0,402.36,227.63Zm-53.59-73.85L334.13,192h28.66Z"/>
    <path d="M445.76,163.79q-2.81-3.37-8.74-3.38a18.57,18.57,0,0,0-5.52.86,11.43,11.43,0,0,0-4.56,2.59,12.84,12.84,0,0,1,6.15,4.11,11,11,0,0,1,2.21,7,9.67,9.67,0,0,1-5.46,8.87,13,13,0,0,1-6,1.35,9.21,9.21,0,0,1-7.28-3.11,11.38,11.38,0,0,1-2.73-7.8q0-7.32,7.87-11.88,8.64-4.75,21.55-4.76,14.49,0,20.64,6.35a15.05,15.05,0,0,1,4,7.39,57.1,57.1,0,0,1,1,12.36v38.46a12.65,12.65,0,0,0,.65,4.87,2.36,2.36,0,0,0,2.32,1.42q2.27,0,5.24-2.42l1.45,2.42a21.46,21.46,0,0,1-7,3.93,29.42,29.42,0,0,1-9.12,1.25c-4.78,0-8.24-1.06-10.35-3.18a11.21,11.21,0,0,1-3.18-8.29,22.36,22.36,0,0,1-9,8.6,25.83,25.83,0,0,1-11.94,2.87q-8.09,0-13-4.25t-4.87-11.84a16.56,16.56,0,0,1,4.84-12.23q4.83-4.83,15-8.56c.74-.28,3.13-1.18,7.18-2.73s7-3.12,8.77-4.73a7,7,0,0,0,2.69-5.31v-11Q448.55,167.17,445.76,163.79ZM445.62,193a63.3,63.3,0,0,1-5.84,4,25.79,25.79,0,0,0-7,7,17.36,17.36,0,0,0-2.55,9.7q0,5.52,2.41,8.25a8.08,8.08,0,0,0,6.36,2.73q5.6,0,9.59-5.8v-29A11.91,11.91,0,0,1,445.62,193Z"/>
  </g>
  <line x1="310" y1="281" x2="870" y2="281" fill="#fff" stroke="#000" stroke-linecap="round" stroke-linejoin="round" stroke-width="2"/>
  <line x1="310" y1="368" x2="870" y2="368" fill="#fff" stroke="#000" stroke-linecap="round" stroke-linejoin="round" stroke-width="2"/>
  <line x1="310" y1="414" x2="730" y2="414" fill="#fff" stroke="#000" stroke-linecap="round" stroke-linejoin="round" stroke-width="2"/>
  <line x1="310" y1="324" x2="599" y2="324" fill="#fff" stroke="#000" stroke-linecap="round" stroke-linejoin="round" stroke-width="2"/>
  <g>
    <path d="M1287.61,230.72a18.52,18.52,0,0,1-18.5-18.5V161.44a.82.82,0,0,1,.82-.82h50.43a.82.82,0,0,1,.82.82v50.78a18.52,18.52,0,0,1-18.5,18.5Z" fill="#fff"/>
    <path d="M1320.18,161.62v50.6a17.52,17.52,0,0,1-17.5,17.5h-15.07a17.52,17.52,0,0,1-17.5-17.5v-50.6h50.07m.18-2h-50.43a1.82,1.82,0,0,0-1.82,1.82v50.78a19.5,19.5,0,0,0,19.5,19.5h15.07a19.5,19.5,0,0,0,19.5-19.5V161.44a1.82,1.82,0,0,0-1.82-1.82Z"/>
  </g>
  <path d="M1266.91,199.59a119,119,0,0,0,24.16,3.88c4.43.24,9.94-.45,11.49-4.6,1.06-2.82-.43-6.1-2.79-8s-5.38-2.67-8.33-3.3a130.3,130.3,0,0,0-26.26-2.89c9,.62,17.68.1,26.7-.15a21.67,21.67,0,0,0,8.06-1.28c2.52-1.08,4.72-3.32,5-6s-1.59-5.46-4-6.95a21.74,21.74,0,0,0-8-2.53,256.59,256.59,0,0,0-26.08-3.11,2.11,2.11,0,0,0-.55,2.67" fill="#ffc9e6"/>
  <path d="M1261.13,182.81c5.26.69,16.27,1.77,21.54,2.46" fill="none" stroke="#000" stroke-linecap="round" stroke-linejoin="round"/>
  <path d="M1266.93,215.26c7.84,2.9,19.52,3.16,27.88,3.49,2.25.09,5-.16,6-2.14,1.51-2.75-1.47-5.78-4.2-7.34-9.44-5.41-20.22-6.67-31.15-9.93" fill="#ffc9e6"/>
  <path d="M1258.67,198.25c3.62.62,16.21,3,19.84,3.66" fill="#fff" stroke="#000" stroke-linecap="round" stroke-linejoin="round"/>
  <path d="M1289.14,201.69l.29-10.23a21.33,21.33,0,0,1,6.08.35,6,6,0,0,1,4.12,3.43c.9,2.5-.72,5.39-3.06,6.66S1291.79,202,1289.14,201.69Z" fill="none" stroke="#000" stroke-linecap="round" stroke-linejoin="round"/>
  <path d="M1292.14,181.69l.29-10.23a21.33,21.33,0,0,1,6.08.35,6,6,0,0,1,4.12,3.43c.9,2.5-.72,5.39-3.06,6.66S1294.79,182,1292.14,181.69Z" fill="none" stroke="#000" stroke-linecap="round" stroke-linejoin="round"/>
  <path d="M1286.92,218l-.17-7.08a19.93,19.93,0,0,1,7.19,1.56c2.22,1.09,4.08,3.24,4.09,5.71l-10.71.27" fill="none" stroke="#000" stroke-linecap="round" stroke-linejoin="round"/>
  <path d="M1304.08,133.86a7.66,7.66,0,0,0,6.6,11.46l-6-10.67" fill="none" stroke="#000" stroke-linecap="round" stroke-linejoin="round"/>
  <path d="M1263.44,374.12h0a4.59,4.59,0,0,1,2.16-4.78c.57-.34,1.12-.72,1.67-1.09a7.77,7.77,0,0,1,4.66-1.75c1.69.1,3.36,1.72,2.89,3.34" fill="none" stroke="#000" stroke-linecap="round" stroke-linejoin="round"/>
  <path d="M1205.09,333.42c1.18,2,3.64,2.23,6,1.93a6.17,6.17,0,0,0,5-4.37,23.56,23.56,0,0,0-11,2.24" fill="none" stroke="#000" stroke-linecap="round" stroke-linejoin="round"/>
  <path d="M1197.09,363.23a7.66,7.66,0,0,0,3.89-.75,25.11,25.11,0,0,0,6.2-3.74,25.06,25.06,0,0,0-4.09-3.32s-2.69,1.75-2.95,1.89c-1.11.55-2.26,1-3.34,1.63-.63.36-2.59,1.34-2.61,2.18C1194.16,362.2,1196.26,363.12,1197.09,363.23Z" fill="none" stroke="#000" stroke-linecap="round" stroke-linejoin="round"/>
</svg>
