<svg id="Layer_1" data-name="Layer 1" xmlns="http://www.w3.org/2000/svg" xmlns:xlink="http://www.w3.org/1999/xlink" viewBox="0 0 1920 1080">
  <defs>
    <clipPath id="clip-path">
      <path d="M1100.37,225.46c-19.1,26.09-46.91,49.34-61.88,78-3.43,6.58-8.23,10.2-13.86,13.65-14,8.6-30.48,11.95-46.91,10.89-14.43-.94-42.51,15.74-45.52,29.88-1.53,7.21,1.4,14.54,4.28,21.32q11.7,27.56,23.38,55.11c2.81,6.63,12.88,12.56,18.64,16.89,8.45,6.33,26.65,1.8,36.11-2.89,15.1-7.49,25-22.22,34.29-36.31,25.68-39.16,52.91-47.84,70.47-94.76,5.89-15.73,19.37-54,28.62-75.77,4-9.54-5.35-37.84-18.84-37.74C1116.24,203.82,1107.2,216.12,1100.37,225.46Z" fill="#5c04a0"/>
    </clipPath>
    <clipPath id="clip-path-2">
      <path d="M1143.78,200.36c-5.78-3.3-14.57,3-20.91,10.63s-9.26,18.17-16.84,27.23c-6.08,7.26-11.82,14-15,22.94s-4.45,19-.85,27.75,13,15.52,22.33,13.83c1.77,9.64-.81,19.63-5,28.46s-10.06,16.79-15.29,25.08c-3.55,5.65-6.91,12.71-4,18.7,2.5,5.13,8.63,7.27,14.26,8.19a67.62,67.62,0,0,0,53.15-14.38c4.92-4.07,9.26-8.84,14.47-12.53s11.63-6.28,17.92-5.16c5.13.92,9.6,4.21,14.73,5.11,11.14,1.94,21.45-8.55,23.19-19.71s-2.79-22.32-8-32.34c-8.52-16.31-15.33-28-12.09-46.12,1.8-10.1,6-22.65,6.18-32.91s0-23.76-7.79-30.49-22.38-9.89-28.85-1.93c-3.84,4.71-6.43,9.24-11.9,11.88C1144.42,213.76,1144.52,200.78,1143.78,200.36Z" fill="#5c04a0"/>
    </clipPath>
    <clipPath id="clip-path-3">
      <path d="M1173.28,202.06c-2.42,6.46-2.27,13.58-1.74,20.47a210.24,210.24,0,0,0,11.89,55.22,28.42,28.42,0,0,1-24.49,38.09c-30.91,2.28-62.45,11.57-93.72,11.38-12.93-.07-27.26-1.38-37.38,6.67-7.65,6.07-10.9,16.13-12.39,25.78-3.79,24.63,1.85,51.13,17.67,70.38s42.25,30.06,66.6,24.77c20.71-4.5,37.4-19.2,54.24-32.06a385.51,385.51,0,0,1,69.35-42.18c12.25-5.78,25.69-11.69,32.27-23.53,9-16.17,1.61-36.17-5.84-53.1-13.65-31-17.31-71.09-31-102.14C1212.19,186.86,1182.54,177.4,1173.28,202.06Z" fill="#5c04a0"/>
    </clipPath>
  </defs>
  <title>Vector 1</title>
  <g>
    <path d="M1100.37,225.46c-19.1,26.09-46.91,49.34-61.88,78-3.43,6.58-8.23,10.2-13.86,13.65-14,8.6-30.48,11.95-46.91,10.89-14.43-.94-42.51,15.74-45.52,29.88-1.53,7.21,1.4,14.54,4.28,21.32q11.7,27.56,23.38,55.11c2.81,6.63,12.88,12.56,18.64,16.89,8.45,6.33,26.65,1.8,36.11-2.89,15.1-7.49,25-22.22,34.29-36.31,25.68-39.16,52.91-47.84,70.47-94.76,5.89-15.73,19.37-54,28.62-75.77,4-9.54-5.35-37.84-18.84-37.74C1116.24,203.82,1107.2,216.12,1100.37,225.46Z" fill="#5c04a0"/>
    <g clip-path="url(#clip-path)">
      <path d="M976.78,451.13c29.36-8.36,51.73-31.57,72.61-53.84,17.45-18.61,35-37.34,48.84-58.76,16.1-24.9,26.8-52.82,37.39-80.51,5-13.1,10.07-26.42,11.15-40.4" fill="none" stroke="#fff" stroke-linecap="round" stroke-linejoin="round" stroke-width="2" opacity="0.15"/>
      <path d="M967.65,443.69c26.56-14.63,48.48-36.25,70-57.59,17.61-17.43,35.3-35,49.72-55.12,25.28-35.31,39.5-77.14,53.37-118.3" fill="none" stroke="#fff" stroke-linecap="round" stroke-linejoin="round" stroke-width="2" opacity="0.15"/>
      <path d="M988.84,399A444.13,444.13,0,0,0,1133.7,205.82" fill="none" stroke="#fff" stroke-linecap="round" stroke-linejoin="round" stroke-width="2" opacity="0.15"/>
      <path d="M943.38,394.66a325.3,325.3,0,0,0,141.4-125.79c11.66-19.16,21.29-39.48,32.81-58.72" fill="none" stroke="#fff" stroke-linecap="round" stroke-linejoin="round" stroke-width="2" opacity="0.15"/>
      <path d="M935.21,374.55c14.33-17.52,36.42-26.27,57.19-35.26s42.41-20,53.47-39.75" fill="none" stroke="#fff" stroke-linecap="round" stroke-linejoin="round" stroke-width="2" opacity="0.15"/>
    </g>
  </g>
  <path d="M1144.3,780.7c0,2.63,20.15,109.5,20.15,109.5h46.43l-21-113H1144.3" fill="#ffc9e6"/>
  <polygon points="1151.06 818.54 1197.01 815.66 1210.88 890.2 1163.58 889.32 1151.06 818.54" fill="#fca1bb"/>
  <path d="M1111.25,318.16c-10.89,129.37-4,321.88,19.77,449.51,1.19,6.35,2.48,12.87,6,18.28,6.12,9.38,18,13.65,29.22,13.5,8.45-.11,16.65-2.34,24.68-5.07a12.34,12.34,0,0,0,8.39-11c4.63-85.23-32.54-170.39-24.38-255.55,5-52.17,22.45-138.49,16.08-190.52C1162,335.27,1139.58,311.35,1111.25,318.16Z" fill="#151614"/>
  <polygon points="1152.39 826.08 1198.35 822.85 1199.67 829.93 1153.74 833.7 1152.39 826.08" fill="#151614"/>
  <polygon points="1154.14 836.59 1200.97 833.36 1202.29 840.44 1155.49 844.21 1154.14 836.59" fill="#fff"/>
  <path d="M1207.32,788.44c0,2.63,20.15,109.5,20.15,109.5h46.43l-21-113h-45.55" fill="#ffc9e6"/>
  <polygon points="1214.07 826.28 1260.03 823.4 1273.89 897.94 1226.59 897.06 1214.07 826.28" fill="#fca1bb"/>
  <path d="M1170.82,333.3c-10.89,129.37-.58,314.48,23.22,442.11,1.18,6.35,2.48,12.87,6,18.28,6.12,9.38,18,13.65,29.22,13.5,8.44-.11,16.64-2.34,24.68-5.07a12.36,12.36,0,0,0,8.39-11c4.63-85.23-14.18-223.39-6-308.55,5-52.17,24.67-98.6-.61-145.45C1226.66,335.07,1199.15,326.49,1170.82,333.3Z" fill="#151614"/>
  <polygon points="1215.41 833.81 1261.37 830.59 1262.68 837.67 1216.76 841.44 1215.41 833.81" fill="#151614"/>
  <polygon points="1217.16 844.33 1263.99 841.1 1265.31 848.18 1218.51 851.95 1217.16 844.33" fill="#fff"/>
  <path d="M1152.86,365.24s-6.92,231.08,42.8,424.12" fill="none" stroke="#fff" stroke-linecap="round" stroke-linejoin="round" stroke-width="2"/>
  <g>
    <path d="M1160.27,848.55c-6.83-5-6.65-15.92-13-21.44s-17.1-7.6-23.66-2c-5.32,4.54-6.38,12.63-4.37,19.33s6.53,12.31,11,17.66a199.75,199.75,0,0,1-63.6,27.62c-10.51,2.51-21.26,4.2-31.4,7.94s-19.84,9.85-25.39,19.12c-4.2,7-7.48,17.05-5.82,25.12a9.5,9.5,0,0,0,8.52,7.47c69.32,6.07,111.92,3.46,217.08-8.08,4.93-33.08-5.89-75-25.55-99.89C1204.06,841.4,1188.57,869.2,1160.27,848.55Z" fill="#fff" stroke="#000" stroke-miterlimit="10"/>
    <path d="M1006.3,927.23s164.12,6,224-10.86" fill="#fff" stroke="#000" stroke-miterlimit="10"/>
    <path d="M1075.5,888.16c10,7,23.62,7.22,35.24,3.39s21.7-11.23,31.39-18.71L1128.79,861" fill="none" stroke="#000" stroke-miterlimit="10"/>
    <path d="M1095.51,881.09c5,4.83,8.76,9.15,15.54,10.78" fill="none" stroke="#000" stroke-miterlimit="10"/>
    <path d="M1112.54,871.72a62.91,62.91,0,0,0,16.5,11.44" fill="none" stroke="#000" stroke-miterlimit="10"/>
    <path d="M1128.48,927c5.38-11.37,17.45-18.09,29.47-21.8s24.73-5.16,36.41-9.85,22.73-13.68,25.13-26" fill="none" stroke="#000" stroke-miterlimit="10"/>
    <path d="M1143.66,927.93c7.32-7.52,17.75-11.13,28-13.28s20.84-3.11,30.77-6.5,19.48-9.77,23.59-19.42" fill="none" stroke="#000" stroke-miterlimit="10"/>
  </g>
  <g>
    <path d="M1222.13,868.11c-6.86-5-6.72-15.89-13.14-21.38s-17.13-7.53-23.67-1.91c-5.3,4.56-6.33,12.66-4.29,19.35s6.58,12.28,11.1,17.62a199.87,199.87,0,0,1-63.48,27.88c-10.5,2.55-21.24,4.28-31.36,8.06s-19.8,9.94-25.32,19.23c-4.17,7-7.41,17.09-5.72,25.14a9.5,9.5,0,0,0,8.55,7.44c69.35,5.79,111.93,3,217-9,4.79-33.1-6.2-75-26-99.79C1265.89,860.78,1250.51,888.64,1222.13,868.11Z" fill="#fff" stroke="#000" stroke-miterlimit="10"/>
    <path d="M1068.48,947.43s164.15,5.34,224-11.78" fill="#fff" stroke="#000" stroke-miterlimit="10"/>
    <path d="M1137.52,908.07c10.06,7,23.65,7.13,35.26,3.24s21.64-11.32,31.3-18.83l-13.38-11.83" fill="none" stroke="#000" stroke-miterlimit="10"/>
    <path d="M1157.5,900.92c5.07,4.8,8.8,9.11,15.59,10.72" fill="none" stroke="#000" stroke-miterlimit="10"/>
    <path d="M1174.5,891.48A62.79,62.79,0,0,0,1191,902.85" fill="none" stroke="#000" stroke-miterlimit="10"/>
    <path d="M1190.67,946.64c5.33-11.39,17.36-18.16,29.37-21.91s24.71-5.27,36.37-10,22.67-13.77,25-26.13" fill="none" stroke="#000" stroke-miterlimit="10"/>
    <path d="M1205.84,947.56c7.3-7.55,17.71-11.2,28-13.39s20.83-3.2,30.74-6.64,19.44-9.84,23.51-19.51" fill="none" stroke="#000" stroke-miterlimit="10"/>
  </g>
  <path d="M1121.38,110.64s-15.26,5.77-21.41,26.28c-5.84,19.46-1,62.28,9.73,59.36s31.14-14.6,31.14-14.6l3.89,28.22,31.14-6.81s-5.83-36-2.91-57.41c.06-.45.11-.89.15-1.33,2-20-14.22-37.1-34.37-37.17A40.52,40.52,0,0,0,1121.38,110.64Z" fill="#ffc9e6"/>
  <path d="M1176.57,313.2c-4.65,5.66-20.6,6.78-27.56,4.52s-17.36-9.05-17.81-16.36" fill="none" stroke="#fff" stroke-linecap="round" stroke-linejoin="round" stroke-width="2"/>
  <g>
    <path d="M1143.78,200.36c-5.78-3.3-14.57,3-20.91,10.63s-9.26,18.17-16.84,27.23c-6.08,7.26-11.82,14-15,22.94s-4.45,19-.85,27.75,13,15.52,22.33,13.83c1.77,9.64-.81,19.63-5,28.46s-10.06,16.79-15.29,25.08c-3.55,5.65-6.91,12.71-4,18.7,2.5,5.13,8.63,7.27,14.26,8.19a67.62,67.62,0,0,0,53.15-14.38c4.92-4.07,9.26-8.84,14.47-12.53s11.63-6.28,17.92-5.16c5.13.92,9.6,4.21,14.73,5.11,11.14,1.94,21.45-8.55,23.19-19.71s-2.79-22.32-8-32.34c-8.52-16.31-15.33-28-12.09-46.12,1.8-10.1,6-22.65,6.18-32.91s0-23.76-7.79-30.49-22.38-9.89-28.85-1.93c-3.84,4.71-6.43,9.24-11.9,11.88C1144.42,213.76,1144.52,200.78,1143.78,200.36Z" fill="#5c04a0"/>
    <g clip-path="url(#clip-path-2)">
      <path d="M1146.35,204.47l-18.53,25.45c-8.72,12-17.56,24.18-22.29,38.21s-4.79,30.42,3.41,42.74" fill="none" stroke="#fff" stroke-linecap="round" stroke-linejoin="round" stroke-width="2" opacity="0.15"/>
      <path d="M1126.76,313.43c-9.23-9.31-11.1-24-8.21-36.78s9.82-24.22,16.32-35.6,12.82-23.32,14.26-36.35" fill="none" stroke="#fff" stroke-linecap="round" stroke-linejoin="round" stroke-width="2" opacity="0.15"/>
      <path d="M1158.76,204.25c2.83,9,.5,18.79-3.28,27.41s-9,16.58-12.3,25.39a65.16,65.16,0,0,0,6,57.11" fill="none" stroke="#fff" stroke-linecap="round" stroke-linejoin="round" stroke-width="2" opacity="0.15"/>
      <path d="M1168.86,313.14a80.61,80.61,0,0,1,7-53.73" fill="none" stroke="#fff" stroke-linecap="round" stroke-linejoin="round" stroke-width="2" opacity="0.15"/>
    </g>
  </g>
  <path d="M1107.23,234.16c3.57-2.69,12.5-15.52,14.81-19.36s4.56-7.78,7.79-10.88,7.67-5.29,12.1-4.67" fill="none" stroke="#fff" stroke-linecap="round" stroke-linejoin="round" stroke-width="2"/>
  <path d="M1108.47,134.15c10.22,5.85,21.75,8.51,32.11,10.23,1.51.25,2.92.64,3.46-.78,1.2-3.19,4.63-6.49,7.44-7.32,3.58-1.05,7.64-1,10.17,1.77,3.18,3.45,2.69,8.81,1.15,13.19-.33.94.41,1.8-.24,2.55h-1.29c-1.9,2.17-4.79,2.73-2.72,4.75a140.42,140.42,0,0,0,14.35,11.25,115.6,115.6,0,0,0,1.53-29.61c-.64-9.63-4.13-19.47-11.44-25.79-6.5-5.64-15.44-7.93-24-7.53s-16.9,3.3-24.65,7A40.12,40.12,0,0,0,1099.83,126a17.85,17.85,0,0,0-1.58,17S1102.05,141.85,1108.47,134.15Z" fill="#1b0042"/>
  <path d="M1144.14,145.12a12.1,12.1,0,0,1,8.54-9.67c4.42-1.11,9.59,1.21,11.24,5.45,1.12,2.86.63,6.11-.38,9a14.23,14.23,0,0,1-4.45,6.76,7.43,7.43,0,0,1-7.72,1" fill="none" stroke="#000" stroke-linecap="round" stroke-linejoin="round"/>
  <path d="M1140.57,181.66l14.13-6.42a24.3,24.3,0,0,1-11.89,20.69Z" fill="#1b0042"/>
  <path d="M1126,150a15.61,15.61,0,0,0-6.6.56,7.3,7.3,0,0,0-4.33,3.92,1.22,1.22,0,0,0,1.07,1.67c3.55.25,6.91-.2,9.88-2.3a4.08,4.08,0,0,0,1.41-1.48A1.7,1.7,0,0,0,1126,150Z" fill="none" stroke="#000" stroke-linecap="round" stroke-linejoin="round"/>
  <path d="M1098.09,155.1a12.86,12.86,0,0,1,5-2,6.25,6.25,0,0,1,4.82,1.31,1,1,0,0,1-.16,1.63,12.41,12.41,0,0,1-8.38,2.11,4.29,4.29,0,0,1-1.23-.32A1.57,1.57,0,0,1,1098.09,155.1Z" fill="none" stroke="#000" stroke-linecap="round" stroke-linejoin="round"/>
  <path d="M1108.81,152a65.82,65.82,0,0,1-2.7,14.3,2.51,2.51,0,0,0,.08,2.36,2.43,2.43,0,0,0,2.16.46l7.4-.77" fill="none" stroke="#000" stroke-linecap="round" stroke-linejoin="round"/>
  <path d="M1118.78,153.06a1.83,1.83,0,0,1-2.81,2.33A1.83,1.83,0,1,1,1118.78,153.06Z"/>
  <path d="M1100.45,155.55a1.63,1.63,0,0,1-2.5,2.08A1.63,1.63,0,1,1,1100.45,155.55Z"/>
  <path d="M1112.38,146.73a4.1,4.1,0,0,1,2.68-2.44,18.14,18.14,0,0,1,9.47-1.15" fill="none" stroke="#000" stroke-linecap="round" stroke-linejoin="round"/>
  <path d="M1095.24,147.85a8.34,8.34,0,0,1,8.18-1.84" fill="none" stroke="#000" stroke-linecap="round" stroke-linejoin="round"/>
  <path d="M1115.54,175.54a7.51,7.51,0,0,0-10.2,1C1108.49,176,1112.38,176,1115.54,175.54Z" fill="none" stroke="#000" stroke-linecap="round" stroke-linejoin="round"/>
  <path d="M1105.36,176.85a5.13,5.13,0,0,0,5.11,2.47c2-.3,5-1.91,5.44-3.88"/>
  <circle cx="1120.03" cy="155.98" r="8.35" fill="none" stroke="#000" stroke-linecap="round" stroke-linejoin="round"/>
  <circle cx="1099.48" cy="158.54" r="8.35" fill="none" stroke="#000" stroke-linecap="round" stroke-linejoin="round"/>
  <line x1="1127.45" y1="152.33" x2="1143.06" y2="143.69" fill="none" stroke="#000" stroke-linecap="round" stroke-linejoin="round"/>
  <path d="M1151.07,153.42c-4.3-1.11-9.06,2.72-9.62,7.73s3.22,10.07,7.63,10.23,8.45-4.62,8.17-9.66" fill="none" stroke="#000" stroke-linecap="round" stroke-linejoin="round"/>
  <path d="M1149.69,150a12.17,12.17,0,0,1,8.58-8.93" fill="none" stroke="#000" stroke-linecap="round" stroke-linejoin="round"/>
  <path d="M1151.88,144.13l3.68,8.53" fill="none" stroke="#000" stroke-linecap="round" stroke-linejoin="round"/>
  <ellipse cx="1185.16" cy="82.35" rx="44.25" ry="35.95" transform="translate(521.26 1067.56) rotate(-60)" fill="#1b0042"/>
  <g>
    <path d="M1173.28,202.06c-2.42,6.46-2.27,13.58-1.74,20.47a210.24,210.24,0,0,0,11.89,55.22,28.42,28.42,0,0,1-24.49,38.09c-30.91,2.28-62.45,11.57-93.72,11.38-12.93-.07-27.26-1.38-37.38,6.67-7.65,6.07-10.9,16.13-12.39,25.78-3.79,24.63,1.85,51.13,17.67,70.38s42.25,30.06,66.6,24.77c20.71-4.5,37.4-19.2,54.24-32.06a385.51,385.51,0,0,1,69.35-42.18c12.25-5.78,25.69-11.69,32.27-23.53,9-16.17,1.61-36.17-5.84-53.1-13.65-31-17.31-71.09-31-102.14C1212.19,186.86,1182.54,177.4,1173.28,202.06Z" fill="#5c04a0"/>
    <g clip-path="url(#clip-path-3)">
      <path d="M1037.72,360.47c2.84-8.52,11.18-14.22,19.85-16.54s17.8-1.87,26.77-1.78a317.61,317.61,0,0,0,124.18-24,177.33,177.33,0,0,1-25.8-128.29" fill="none" stroke="#fff" stroke-linecap="round" stroke-linejoin="round" stroke-width="2" opacity="0.15"/>
      <path d="M1062.51,367.06a423.67,423.67,0,0,0,166.58-40.46A371.21,371.21,0,0,1,1199,187.9" fill="none" stroke="#fff" stroke-linecap="round" stroke-linejoin="round" stroke-width="2" opacity="0.15"/>
      <path d="M1065.45,396.09c30.19,7.94,61.27-6.5,89.15-20.55l73.33-37c6-3,12.5-6.57,15-12.83,2.06-5.21.82-11.07-.44-16.53q-11.27-48.48-22.51-97l3.76-.9" fill="none" stroke="#fff" stroke-linecap="round" stroke-linejoin="round" stroke-width="2" opacity="0.15"/>
      <path d="M1040.27,395.84c-10.74,9.39-13.51,26.67-6.24,38.94" fill="none" stroke="#fff" stroke-linecap="round" stroke-linejoin="round" stroke-width="2" opacity="0.15"/>
      <path d="M1051.18,401.61c.87,18.81,17.74,35.5,36.56,36.16,14.24.5,27.4-6.9,39.71-14.08l131.31-76.57" fill="none" stroke="#fff" stroke-linecap="round" stroke-linejoin="round" stroke-width="2" opacity="0.15"/>
    </g>
  </g>
  <path d="M1111.68,324.29l78.38-12.93C1178.88,273.51,1162,208,1176.78,195.73" fill="none" stroke="#fff" stroke-linecap="round" stroke-linejoin="round" stroke-width="2"/>
  <path d="M1077.85,252.16a6.89,6.89,0,0,0-6.89-5.06c-21.72.77-102.35,10.64-128.74,11.87a6.89,6.89,0,0,0-6.41,8.36l14.55,67a6.9,6.9,0,0,0,7.06,5.43l133.78-8.37a5.59,5.59,0,0,0,5.23-6.13Z" fill="#1b0042"/>
  <path d="M1059.88,401.54c-5.58,3.58-12.88,2.22-17.51-2.53-7.8-8-18.47-13.09-28.6-18.17-11.92-6-24.28-13.06-30.5-24.86s-5-25.89-5.1-39.22A192.7,192.7,0,0,0,971.94,269a1.75,1.75,0,0,1,2.29-2.09,9.84,9.84,0,0,1,4.28,3.19,21.84,21.84,0,0,1,3.39,7.64,105.67,105.67,0,0,1,3.54,18.82c-.77-10.95-1.2-21.88-2-32.84a3,3,0,0,1,.09-1.26,2.08,2.08,0,0,1,2.74-.9,5.6,5.6,0,0,1,2.25,2.25,48,48,0,0,1,7.53,30.45,244.19,244.19,0,0,0,.61-31.29,1.88,1.88,0,0,1,2.85-1.73,11.17,11.17,0,0,1,4.07,4.36,29,29,0,0,1,2.52,8.9q3.71,21.86,7.42,43.71a.36.36,0,0,0,.71,0,109.64,109.64,0,0,1,8.52-21.94,3.42,3.42,0,0,1,2.06-1.83c2.65-.76,3.91,2.32,4,4.72.37,7.47-2.61,14.73-2.85,22.2-.18,5.56,1.18,11,1.81,16.58s.44,11.46-2.48,16.19a66.08,66.08,0,0,0,27.76,7.17c3.53.14,7.24,0,10.34,1.72,3.34,1.81,5.35,5.41,6.41,9.05a27.85,27.85,0,0,1-8,28A15,15,0,0,1,1059.88,401.54Z" fill="#ffc9e6"/>
  <path d="M985.23,309.64a174,174,0,0,0-.72-23.73" fill="none" stroke="#000" stroke-linecap="round" stroke-linejoin="round"/>
  <path d="M995.28,310.92a182,182,0,0,0,.48-26.21" fill="none" stroke="#000" stroke-linecap="round" stroke-linejoin="round"/>
  <line x1="1013.63" y1="317.03" x2="1009.52" y2="326.62" fill="none" stroke="#000" stroke-linecap="round" stroke-linejoin="round"/>
  <g>
    <path d="M772,493.5a27.5,27.5,0,0,1,0-55h266a27.5,27.5,0,0,1,0,55Z" fill="#fff"/>
    <path d="M1038,439a27,27,0,0,1,0,54H772a27,27,0,0,1,0-54h266m0-1H772a28,28,0,0,0,0,56h266a28,28,0,0,0,0-56Z"/>
  </g>
  <path d="M958.23,437.6c10.17-11.75,14-19.74,25.9-29.45A10.88,10.88,0,0,0,988,398.4a33.21,33.21,0,0,0-8.15-17.85,9.15,9.15,0,0,0-12.34-1.12,109.4,109.4,0,0,1-22.73,13.35c-9.64,4.18-20.07,7.07-28.34,13.56-14.79,11.59-20,25.2-34.65,43.4-2.07,2.59-3.82,5.53-6.18,7.86-.88.87-1.8,2-1,3.29a2.42,2.42,0,0,0,1.42.95c3.74,1,7.29.94,10.23-1.52a75.22,75.22,0,0,0-8.61,10.89A3.13,3.13,0,0,0,880,476a14.74,14.74,0,0,0,9.89-2.54,46.68,46.68,0,0,0-6.58,11.65,3.33,3.33,0,0,0,3.61,4.51c5.39-.8,11.25-7.47,14.75-11.83,4.57-5.72,6.47-9.59,10.34-15.81,6.92-11.09,17.64-19,30-23.24" fill="#ffc9e6"/>
  <path d="M930.23,424.25c-6.42.53-11,6.27-14.69,11.53-9.44,13.33-18.2,27-27.64,40.37" fill="none" stroke="#000" stroke-linecap="round" stroke-linejoin="round"/>
  <path d="M924.13,416.83c-9.32,3.18-16.81,12.62-22.08,20.94s-10.33,17-17.25,24" fill="none" stroke="#000" stroke-linecap="round" stroke-linejoin="round"/>
  <path d="M948.65,435.64,936.35,441" fill="none" stroke="#000" stroke-linecap="round" stroke-linejoin="round"/>
  <path d="M894.44,475.49a2.66,2.66,0,0,1,.5,1.36,2.54,2.54,0,0,1-.81,1.52,37.68,37.68,0,0,1-6.09,5.54,4.35,4.35,0,0,1-2.06,1,1.67,1.67,0,0,1-1.84-1.07,2.39,2.39,0,0,1,.34-1.59,50.78,50.78,0,0,1,4.95-8.42C891.86,470.57,892.87,472.84,894.44,475.49Z" fill="none" stroke="#000" stroke-linecap="round" stroke-linejoin="round"/>
  <path d="M888.82,464.94a2.58,2.58,0,0,1,.26,1.43,2.54,2.54,0,0,1-1,1.37,38.07,38.07,0,0,1-6.9,4.47,4.5,4.5,0,0,1-2.2.65,1.67,1.67,0,0,1-1.64-1.36,2.38,2.38,0,0,1,.6-1.51,50.46,50.46,0,0,1,6.24-7.51C887.07,459.67,887.69,462.07,888.82,464.94Z" fill="none" stroke="#000" stroke-linecap="round" stroke-linejoin="round"/>
  <path d="M883.57,455a2,2,0,0,1,.17,1.09,2,2,0,0,1-.82,1,29.17,29.17,0,0,1-5.38,3.25,3.41,3.41,0,0,1-1.69.44,1.28,1.28,0,0,1-1.22-1.07,1.86,1.86,0,0,1,.49-1.15,39.06,39.06,0,0,1,4.94-5.58C882.36,450.91,882.78,452.76,883.57,455Z" fill="none" stroke="#000" stroke-linecap="round" stroke-linejoin="round"/>
  <polyline points="765.5 464.5 776.5 476.5 804.5 452.5" fill="#fff" stroke="#000" stroke-miterlimit="10"/>
  <g>
    <path d="M589,206.5a27.5,27.5,0,0,1,0-55H855a27.5,27.5,0,0,1,0,55Z" fill="#fff"/>
    <path d="M855,152a27,27,0,0,1,0,54H589a27,27,0,0,1,0-54H855m0-1H589a28,28,0,0,0,0,56H855a28,28,0,0,0,0-56Z"/>
  </g>
  <polyline points="582.5 179.5 593.5 191.5 621.5 167.5" fill="#fff" stroke="#000" stroke-miterlimit="10"/>
  <g>
    <path d="M589,312.5a27.5,27.5,0,0,1,0-55H855a27.5,27.5,0,0,1,0,55Z" fill="#fff"/>
    <path d="M855,258a27,27,0,0,1,0,54H589a27,27,0,0,1,0-54H855m0-1H589a28,28,0,0,0,0,56H855a28,28,0,0,0,0-56Z"/>
  </g>
  <polyline points="582.5 285.5 593.5 297.5 621.5 273.5" fill="#fff" stroke="#000" stroke-miterlimit="10"/>
  <rect x="561" y="363" width="322" height="56" rx="28" stroke-dasharray="30 30" stroke="#000" stroke-linecap="round" stroke-linejoin="round" fill="#fff"/>
</svg>
