<svg id="Layer_1" data-name="Layer 1" xmlns="http://www.w3.org/2000/svg" xmlns:xlink="http://www.w3.org/1999/xlink" viewBox="0 0 1920 1080">
  <defs>
    <clipPath id="clip-path">
      <path d="M959.23,242.77a55.51,55.51,0,0,0-48.86,27.11c-10.31,17.83-10.24,40.95-23.42,56.78-7.32-4.76-12.51-11.9-18.12-18.6-.44-12.36-3.28-25.53-11.46-34.8s-22.22-14.06-33.48-8.92c-9.25,4.22-14.71,13.74-19.56,22.67-6.71,12.36-13.59,25.29-14.09,39.35-.3,8.16,1.59,16.23,3.72,24.11,3.39,12.54,7.53,25.11,14.94,35.78s18.55,19.33,31.41,21.14c11.21,1.59,22.48-2.07,32.89-6.5,18-7.68,35.83-18.69,45.09-36-2.73,6.43,1.83,13.92,8.07,17.07s13.72,2.58,20.48.82,13.21-4.64,20.06-6a47,47,0,0,1,32.53,5.52c7,4.11,12.8,10,19.58,14.44s15.28,7.5,23,5c2.47,11,4.67,21.36,9.18,31.66s11.22,19.94,20.6,26.16a44,44,0,0,0,67.61-28.8c1.8-10,.08-20.25-2-30.17-2-9.17-4.3-18.35-8.47-26.74-12.62-25.39-39.84-40-57-62.53-7.06-9.27-10.62-20.76-16.52-30.81-7.81-13.31-16.2-27.21-29.57-34.94-9.8-5.66-21.45-7.43-32.76-6.94S970.54,243.16,959.23,242.77Z" fill="#5c04a0"/>
    </clipPath>
  </defs>
  <title>Vector 1</title>
  <rect x="523" y="56.94" width="270" height="234" rx="11.16" fill="#fff" stroke="#000" stroke-miterlimit="10" stroke-width="2"/>
  <g>
    <rect x="549.05" y="205.36" width="42.45" height="42.61" rx="6.21" fill="#fff" stroke="#000" stroke-miterlimit="10" stroke-width="2"/>
    <rect x="607.67" y="185.86" width="42.45" height="62.11" rx="6.21" fill="#fff" stroke="#000" stroke-miterlimit="10" stroke-width="2"/>
    <rect x="666.28" y="151.91" width="42.45" height="96.06" rx="6.21" fill="#fff" stroke="#000" stroke-miterlimit="10" stroke-width="2"/>
    <rect x="724.9" y="99.91" width="42.45" height="148.06" rx="6.21" fill="#fff" stroke="#000" stroke-miterlimit="10" stroke-width="2"/>
  </g>
  <polygon points="1063.61 690.19 1115.11 747.23 1145.22 714.75 1093.72 658.49 1063.61 690.19" fill="#ffc9e6"/>
  <polygon points="1090.09 719.94 1120.73 688 1148.39 717.13 1117.49 749.61 1090.09 719.94" fill="#fca1bb"/>
  <polygon points="1089.33 718.86 1120.78 688.22 1125.04 692.34 1093.92 724.13 1089.33 718.86" fill="#151614"/>
  <polygon points="1095.89 725.89 1127.15 694.74 1132.2 699.65 1101.27 731.96 1095.89 725.89" fill="#fff"/>
  <path d="M965.36,740.1c0,2.38,18.23,99,18.23,99h42l-19-102.21h-41.2" fill="#ffc9e6"/>
  <polygon points="971.47 774.32 1013.03 771.72 1025.58 839.14 982.79 838.35 971.47 774.32" fill="#fca1bb"/>
  <path d="M935.73,377.52a1314.69,1314.69,0,0,0,17.62,350.79c1.07,5.75,2.24,11.65,5.44,16.54,5.53,8.49,16.3,12.35,26.42,12.21,7.64-.1,15.06-2.12,22.33-4.59a11.15,11.15,0,0,0,7.58-9.92c4.2-77.09-29.43-154.12-22-231.14,4.53-47.2,23.83-93.46,18.07-140.51C984.86,369,961.35,371.36,935.73,377.52Z" fill="#151614"/>
  <path d="M986.75,370.27s-82.4,98.07-73.68,144.81c7.17,38.47,110.4,154.76,146.72,194.72a15.89,15.89,0,0,0,24.13-.72l26.21-32.55a15.88,15.88,0,0,0-.15-20.11L986.75,508s71.31-62.59,64.18-121.22Z" fill="#151614"/>
  <g>
    <path d="M959.23,242.77a55.51,55.51,0,0,0-48.86,27.11c-10.31,17.83-10.24,40.95-23.42,56.78-7.32-4.76-12.51-11.9-18.12-18.6-.44-12.36-3.28-25.53-11.46-34.8s-22.22-14.06-33.48-8.92c-9.25,4.22-14.71,13.74-19.56,22.67-6.71,12.36-13.59,25.29-14.09,39.35-.3,8.16,1.59,16.23,3.72,24.11,3.39,12.54,7.53,25.11,14.94,35.78s18.55,19.33,31.41,21.14c11.21,1.59,22.48-2.07,32.89-6.5,18-7.68,35.83-18.69,45.09-36-2.73,6.43,1.83,13.92,8.07,17.07s13.72,2.58,20.48.82,13.21-4.64,20.06-6a47,47,0,0,1,32.53,5.52c7,4.11,12.8,10,19.58,14.44s15.28,7.5,23,5c2.47,11,4.67,21.36,9.18,31.66s11.22,19.94,20.6,26.16a44,44,0,0,0,67.61-28.8c1.8-10,.08-20.25-2-30.17-2-9.17-4.3-18.35-8.47-26.74-12.62-25.39-39.84-40-57-62.53-7.06-9.27-10.62-20.76-16.52-30.81-7.81-13.31-16.2-27.21-29.57-34.94-9.8-5.66-21.45-7.43-32.76-6.94S970.54,243.16,959.23,242.77Z" fill="#5c04a0"/>
    <g clip-path="url(#clip-path)">
      <path d="M795.07,312.49c5.65,20,11.45,40.26,22.68,57.71s28.88,31.95,49.5,34.27" fill="none" stroke="#fff" stroke-miterlimit="10" stroke-width="2" opacity="0.15"/>
      <path d="M803.7,292.08c10.67,11.64,17.38,26.27,24.11,40.55s13.87,28.79,25.16,39.83,27.66,18.15,43,14.4" fill="none" stroke="#fff" stroke-miterlimit="10" stroke-width="2" opacity="0.15"/>
      <path d="M827.08,261.42c9,22.18,18.23,44.6,32.2,64.05s33.41,36,56.66,41.72" fill="none" stroke="#fff" stroke-miterlimit="10" stroke-width="2" opacity="0.15"/>
      <path d="M905,338.73l18.62,8.4" fill="none" stroke="#fff" stroke-miterlimit="10" stroke-width="2" opacity="0.15"/>
      <path d="M896.14,331.65c7-7.92,10.59-18.3,13.09-28.59s4.12-20.85,8-30.69,10.54-19.14,20.2-23.48" fill="none" stroke="#fff" stroke-miterlimit="10" stroke-width="2" opacity="0.15"/>
      <path d="M909.79,340.55c10-15.47,13.07-34.26,17.79-52.09s12.25-36.35,27.73-46.38" fill="none" stroke="#fff" stroke-miterlimit="10" stroke-width="2" opacity="0.15"/>
      <path d="M935.59,384.54c-5.77-8.59-5.87-19.87-3.62-30s6.57-19.64,9-29.69c3.31-13.52,3.18-27.61,4.76-41.43s5.23-28.09,14.61-38.37" fill="none" stroke="#fff" stroke-miterlimit="10" stroke-width="2" opacity="0.15"/>
      <path d="M969.42,244.65c-3.38,24.11-3.64,48.53-3.9,72.87l-.45,42.62c-.07,6.39.49,14,6,17.27" fill="none" stroke="#fff" stroke-miterlimit="10" stroke-width="2" opacity="0.15"/>
      <path d="M984,243.67c14.5,24.47,6.12,55.94,12.85,83.57,2.59,10.61,7.39,20.55,10.58,31s4.69,22,.63,32.12" fill="none" stroke="#fff" stroke-miterlimit="10" stroke-width="2" opacity="0.15"/>
      <path d="M993.72,238.53c18.41,21.77,15.81,54.13,26.95,80.39,6.53,15.4,18.15,30.19,15.94,46.78" fill="none" stroke="#fff" stroke-miterlimit="10" stroke-width="2" opacity="0.15"/>
      <path d="M1007.55,240c12.31,7.62,20,20.89,25.2,34.42,8.3,21.74,11.16,45.11,13.69,68.24s4.84,46.51,12.14,68.6,20.13,43.15,39.64,55.83" fill="none" stroke="#fff" stroke-miterlimit="10" stroke-width="2" opacity="0.15"/>
      <path d="M1019.54,242.23c17.15,13.3,26.28,34.58,31,55.77s5.72,43.06,10.37,64.26a192.25,192.25,0,0,0,60.3,102.35l-3.28-3.76" fill="none" stroke="#fff" stroke-miterlimit="10" stroke-width="2" opacity="0.15"/>
      <path d="M1060.33,286.81a406.55,406.55,0,0,0,72.16,163.46" fill="none" stroke="#fff" stroke-miterlimit="10" stroke-width="2" opacity="0.15"/>
      <path d="M1079.55,318.72a663.42,663.42,0,0,1,58,123.33" fill="none" stroke="#fff" stroke-miterlimit="10" stroke-width="2" opacity="0.15"/>
      <path d="M1111.5,350.1a501,501,0,0,1,28.35,66.8" fill="none" stroke="#fff" stroke-miterlimit="10" stroke-width="2" opacity="0.15"/>
    </g>
  </g>
  <path d="M801,308.68s-7.13,13.47,3.17,28.53c0,0,35.66-4.76,31.7-57.84,0,0-7.13-12.68-13.47-7.13Z" fill="none" stroke="#5c04a0" stroke-miterlimit="10"/>
  <path d="M939.12,259.05c2.27,4.15,1.31,9.4-.9,13.59s-5.51,7.68-8.2,11.57-4.81,8.55-4.13,13.23,5.08,9,9.74,8.16c-2,16.06-6.13,32.36-13.76,46.63-3.15,5.91-6.85,14.39-4.08,20.48" fill="none" stroke="#fff" stroke-linecap="round" stroke-linejoin="round" stroke-width="2"/>
  <path d="M1009.72,266.84A169.57,169.57,0,0,1,1036.46,340c2.71,23,3.92,62.66,11.17,84.65" fill="none" stroke="#fff" stroke-linecap="round" stroke-linejoin="round" stroke-width="2"/>
  <path d="M959.4,228.34c-6.64,2.87-15.45,5.67-21.52,1.72-5-3.27-6.51-9.86-7.36-15.8-1-7,.75-14.36,3.56-20.82,3.33-7.66,8.51-12.57,16.07-16.13,9.21-4.33,19.61-7.37,29.53-5.09s18.8,11.33,18,21.47c6.64,1.46,11,9.44,8.59,15.8s-10.9,9.53-16.86,6.28c-2.22,8.13,2.86,10.95,1.33,16.29a18.43,18.43,0,0,1-10.61,12.1c-4.31,1.67-13.63,2.56-17.33-1C959.49,240,960.92,232.45,959.4,228.34Z" fill="#ffc9e6"/>
  <path d="M936.58,188.74l12.94-8s26.14,20.6,46,14.26c0,0,8.57-3.36,11.42,8.23,0,0,8.39-21.7-11.42-32S937.12,164.27,936.58,188.74Z" fill="#1b0042"/>
  <path d="M959,228.26l19-7.13a82.43,82.43,0,0,1-17.53,17.43Z"/>
  <path d="M958.31,236.46a2.93,2.93,0,0,1,3.28-3,75.15,75.15,0,0,0,13.4.67,32.2,32.2,0,0,0,14.15-3.87,2.16,2.16,0,0,1,3,.88,35.67,35.67,0,0,1,3.41,12.52c.35,4.37-21.9,6.1-24.52,6s-10.18-.27-11.77-2.59C958,245.21,958.4,240.28,958.31,236.46Z" fill="#5c04a0"/>
  <circle cx="1009.34" cy="152.59" r="22.58" fill="#1b0042"/>
  <path d="M993.22,212.85a8.85,8.85,0,0,1,6.87-12.11" fill="none" stroke="#000" stroke-linecap="round" stroke-linejoin="round"/>
  <path d="M993.7,206a7,7,0,0,1,5.16,3.66" fill="none" stroke="#000" stroke-linecap="round" stroke-linejoin="round"/>
  <path d="M984.62,205.14a14.61,14.61,0,0,1,13.47-11.09" fill="none" stroke="#000" stroke-linecap="round" stroke-linejoin="round"/>
  <path d="M945.52,195.28a58.06,58.06,0,0,1-4.32,11.93l6.39.53" fill="none" stroke="#000" stroke-linecap="round" stroke-linejoin="round"/>
  <path d="M961.14,196.89c-1.44-1.26-4.88-1.63-6.79-1.65a8.11,8.11,0,0,0-5.27,1.89c1.55,1.33,2.46,2.68,5.18,2.73C958.07,199.93,959.6,198.24,961.14,196.89Z" fill="none" stroke="#000" stroke-linecap="round" stroke-linejoin="round"/>
  <circle cx="951.1" cy="197.36" r="1.58"/>
  <g>
    <path d="M942.05,197.33c-1.09-1-3.73-1.32-5.2-1.36a6.3,6.3,0,0,0-4.08,1.4c1.17,1,1.86,2.09,4,2.16C939.65,199.63,940.85,198.35,942.05,197.33Z" fill="none" stroke="#000" stroke-linecap="round" stroke-linejoin="round"/>
    <circle cx="935.25" cy="197.36" r="1.58"/>
  </g>
  <path d="M936.84,216.38s3.17-5.55,11.88,0Z" stroke="#000" stroke-miterlimit="10"/>
  <path d="M936.84,216.38s.79,4,4,4,8.72-4,8.72-4Z" fill="none" stroke="#000" stroke-linecap="round" stroke-linejoin="round"/>
  <line x1="973.28" y1="385.14" x2="931.18" y2="451.25" fill="none" stroke="#fff" stroke-linecap="round" stroke-linejoin="round" stroke-width="2"/>
  <line x1="933.67" y1="555.75" x2="1006.89" y2="649.17" fill="none" stroke="#fff" stroke-linecap="round" stroke-linejoin="round" stroke-width="2"/>
  <polyline points="997.33 520.81 986.75 507.95 1006.43 488.51" fill="none" stroke="#fff" stroke-linecap="round" stroke-linejoin="round" stroke-width="2"/>
  <path d="M950,190.27a11.22,11.22,0,0,1,9.65-.2" fill="none" stroke="#000" stroke-linecap="round" stroke-linejoin="round"/>
  <path d="M933.28,191.26a5.87,5.87,0,0,1,7.14,0" fill="none" stroke="#000" stroke-linecap="round" stroke-linejoin="round"/>
  <path d="M803.58,309.3a38.27,38.27,0,0,0-.27,10.19,13.21,13.21,0,0,0,4.8,8.74c4.34,3.17,10.71,2.17,15-1.09s6.8-8.28,8.69-13.3a82.15,82.15,0,0,0,4.84-20.51c.37-3.63.46-7.47-1.22-10.71s-5.67-5.54-9-4.18" fill="none" stroke="#fff" stroke-linecap="round" stroke-linejoin="round" stroke-width="2"/>
  <path d="M812.2,330.13l-1.6-14.81" fill="none" stroke="#fff" stroke-linecap="round" stroke-linejoin="round" stroke-width="2"/>
  <path d="M819.3,311.19l7.87,10.51" fill="none" stroke="#fff" stroke-linecap="round" stroke-linejoin="round" stroke-width="2"/>
  <path d="M825.68,300.77l8.25,9" fill="none" stroke="#fff" stroke-linecap="round" stroke-linejoin="round" stroke-width="2"/>
  <path d="M828.35,287.29a21.16,21.16,0,0,1,8.83,4.38" fill="none" stroke="#fff" stroke-linecap="round" stroke-linejoin="round" stroke-width="2"/>
  <path d="M1096.48,453.92c-3.24,4.09-10.13,3.9-13.9.29s-4.58-9.57-3-14.54,5.16-9.07,9.15-12.43A54.37,54.37,0,0,1,1107.3,417c4.78-1.51,9.92-2.36,14.79-1.21s9.41,4.63,10.76,9.45-1.33,10.72-6.17,12" fill="none" stroke="#fff" stroke-linecap="round" stroke-linejoin="round" stroke-width="2"/>
  <path d="M1081.22,435.58a53.39,53.39,0,0,0,18.34,13.47" fill="none" stroke="#fff" stroke-linecap="round" stroke-linejoin="round" stroke-width="2"/>
  <path d="M1085.68,430.51l15.5,12.16" fill="none" stroke="#fff" stroke-linecap="round" stroke-linejoin="round" stroke-width="2"/>
  <path d="M1100,419.7l10.88,16.77" fill="none" stroke="#fff" stroke-linecap="round" stroke-linejoin="round" stroke-width="2"/>
  <path d="M1105.83,417.31a47.11,47.11,0,0,0,9.49,16" fill="none" stroke="#fff" stroke-linecap="round" stroke-linejoin="round" stroke-width="2"/>
  <path d="M1122.55,433.41l1.25-16.21" fill="none" stroke="#fff" stroke-linecap="round" stroke-linejoin="round" stroke-width="2"/>
  <path d="M1116,434.06a9.34,9.34,0,0,1,11.61,5,111.48,111.48,0,0,0,13.82,23.1c6.59,8.47,14.53,16.17,18.76,26,7.58,17.64,5.61,32.4,9.79,55.88.59,3.33.72,6.82,1.69,10.06.36,1.21.62,2.71-.76,3.42a2.46,2.46,0,0,1-1.73.17c-3.84-1-7-2.74-8.42-6.38a77.1,77.1,0,0,1,2.38,14,3.2,3.2,0,0,1-4.45,3.18,15,15,0,0,1-7.61-7.13,47.8,47.8,0,0,1,.19,13.67,3.41,3.41,0,0,1-5.45,2.27c-4.44-3.35-6.42-12.2-7.42-17.82-1.3-7.37-1.1-11.77-1.53-19.24-.76-13.33-6.51-25.63-15.48-35.52-2.27,7.22.95,14.91,4,21.82s6.19,14.68,3.7,21.83c-.17.49-.45,1-1,1.12s-1.07-.51-1.38-1c-8.28-14.29-16.67-28.87-20.16-45-3.36-15.52-2.16-32.31-8-46.83a11.09,11.09,0,0,1,1.35-10.61A33.85,33.85,0,0,1,1116,434.06Z" fill="#ffc9e6"/>
  <path d="M1139,497.51c5.49,3.61,6.75,11,7.51,17.52,1.93,16.58,3.06,33.15,5,49.72" fill="none" stroke="#000" stroke-linecap="round" stroke-linejoin="round"/>
  <path d="M1148.14,493.85c6.79,7.41,8.88,19.54,9.52,29.58s.94,20.28,3.72,29.94" fill="none" stroke="#000" stroke-linecap="round" stroke-linejoin="round"/>
  <path d="M1117,498.69l8.4,10.81" fill="none" stroke="#000" stroke-linecap="round" stroke-linejoin="round"/>
  <path d="M1146,561a2.64,2.64,0,0,0-1.11,1,2.56,2.56,0,0,0,0,1.75,38.53,38.53,0,0,0,2.74,7.95,4.61,4.61,0,0,0,1.37,1.9,1.71,1.71,0,0,0,2.17-.06,2.5,2.5,0,0,0,.47-1.6,51,51,0,0,0-.3-10C1150.73,557.81,1148.71,559.35,1146,561Z" fill="none" stroke="#000" stroke-linecap="round" stroke-linejoin="round"/>
  <path d="M1156.21,554.26a2,2,0,0,0-.68,2.89,39.38,39.38,0,0,0,4,7.39,4.71,4.71,0,0,0,1.66,1.66,1.72,1.72,0,0,0,2.13-.41,2.54,2.54,0,0,0,.21-1.66,52.39,52.39,0,0,0-1.92-9.78C1160.36,550.39,1158.62,552.24,1156.21,554.26Z" fill="none" stroke="#000" stroke-linecap="round" stroke-linejoin="round"/>
  <path d="M1165.79,547.9a2,2,0,0,0-.68.9,1.94,1.94,0,0,0,.24,1.32,29.75,29.75,0,0,0,3.22,5.54,3.56,3.56,0,0,0,1.3,1.23,1.3,1.3,0,0,0,1.62-.37,1.86,1.86,0,0,0,.12-1.26,39.29,39.29,0,0,0-1.69-7.42C1168.87,544.85,1167.59,546.3,1165.79,547.9Z" fill="none" stroke="#000" stroke-linecap="round" stroke-linejoin="round"/>
  <path d="M1120.73,537.81l3.49-2.52s5.12,8.31,3.86,12.87a.76.76,0,0,1-1.39.16Z" fill="none" stroke="#000" stroke-linecap="round" stroke-linejoin="round"/>
  <g>
    <path d="M978.75,812.16c-6.2-4.49-6.07-14.37-11.88-19.34s-15.49-6.81-21.41-1.72c-4.79,4.12-5.72,11.45-3.88,17.5s6,11.11,10,15.94a180.63,180.63,0,0,1-57.42,25.21c-9.49,2.32-19.21,3.88-28.37,7.3s-17.91,9-22.89,17.39c-3.78,6.36-6.71,15.45-5.18,22.74a8.6,8.6,0,0,0,7.74,6.73c62.72,5.23,101.24,2.71,196.32-8.12,4.33-29.94-5.61-67.85-23.49-90.26C1018.33,805.53,1004.43,830.74,978.75,812.16Z" fill="#fff" stroke="#000" stroke-miterlimit="10"/>
    <path d="M839.78,883.91s148.47,4.83,202.59-10.66" fill="#fff" stroke="#000" stroke-miterlimit="10"/>
    <path d="M902.22,848.31c9.1,6.31,21.39,6.45,31.89,2.93s19.58-10.24,28.32-17l-12.11-10.69" fill="none" stroke="#000" stroke-miterlimit="10"/>
    <path d="M920.3,841.84c4.58,4.35,8,8.24,14.1,9.7" fill="none" stroke="#000" stroke-miterlimit="10"/>
    <path d="M935.67,833.3a56.74,56.74,0,0,0,15,10.28" fill="none" stroke="#000" stroke-miterlimit="10"/>
    <path d="M950.3,883.2c4.82-10.31,15.7-16.43,26.57-19.83s22.35-4.76,32.89-9,20.51-12.46,22.63-23.65" fill="none" stroke="#000" stroke-miterlimit="10"/>
    <path d="M964,884c6.59-6.83,16-10.13,25.29-12.12s18.84-2.89,27.81-6,17.58-8.9,21.26-17.65" fill="none" stroke="#000" stroke-miterlimit="10"/>
  </g>
  <g>
    <path d="M1108.52,732.16c-7.62.72-14-6.79-21.69-6.69-7.8.1-16.13,5.1-17.22,12.83-.89,6.26,3.25,12.38,8.63,15.71s11.8,4.42,18.06,5.35a180.72,180.72,0,0,1-26.52,56.83c-5.61,8-11.88,15.59-16.5,24.2s-7.53,18.57-5.73,28.18c1.36,7.27,5.15,16,11.11,20.5a8.61,8.61,0,0,0,10.26,0c50.58-37.46,77.86-64.77,142.17-135.63-16.5-25.36-49-47.29-77.2-52.34C1133.89,701.06,1140.07,729.18,1108.52,732.16Z" fill="#fff" stroke="#000" stroke-miterlimit="10"/>
    <path d="M1051.42,877.77s114.76-94.33,145.21-141.68" fill="#fff" stroke="#000" stroke-miterlimit="10"/>
    <path d="M1074.86,809.82c11-1.26,20.33-9.27,25.9-18.84s8-20.62,10-31.49l-16.16,0" fill="none" stroke="#000" stroke-miterlimit="10"/>
    <path d="M1084.17,793c6.32.24,11.42,1,17-2" fill="none" stroke="#000" stroke-miterlimit="10"/>
    <path d="M1090.09,776.47a56.59,56.59,0,0,0,18-2.15" fill="none" stroke="#000" stroke-miterlimit="10"/>
    <path d="M1134,804.32c-3.17-10.93,1-22.71,6.89-32.43s13.66-18.32,18.75-28.5,7.19-22.9,1.41-32.7" fill="none" stroke="#000" stroke-miterlimit="10"/>
    <path d="M1144.87,795.88c.45-9.48,5.35-18.18,11-25.79s12.25-14.6,16.93-22.86,7.34-18.29,4.34-27.29" fill="none" stroke="#000" stroke-miterlimit="10"/>
  </g>
  <path d="M863.23,328.9c1.57-7.19,7-15.07,5.49-30.29" fill="none" stroke="#fff" stroke-linecap="round" stroke-linejoin="round" stroke-width="2"/>
  <path d="M883.43,323.15c5.41,2.85,15,12.15,21.07,15.35" fill="none" stroke="#fff" stroke-linecap="round" stroke-linejoin="round" stroke-width="2"/>
  <path d="M958.46,242.2c10.07,5.87,26.71,2.7,36.37-3.42" fill="none" stroke="#fff" stroke-linecap="round" stroke-linejoin="round" stroke-width="2"/>
  <polygon points="972.67 781.14 1014.24 778.22 1015.44 784.63 973.89 788.04 972.67 781.14" fill="#151614"/>
  <polygon points="974.26 790.65 1016.62 787.73 1017.81 794.14 975.48 797.55 974.26 790.65" fill="#fff"/>
  <path d="M781.08,250.66c9.31,17.7,18.26,36.68,22,56.61a9.05,9.05,0,0,0,15.21,4.79,30.72,30.72,0,0,0,6.79-9.82c3.63-8.48,4.92-18.72-.48-26.2s-6.76-16.76-6.67-25.8,1.57-18,1.51-27.06c-.14-22.55-9.8-43.81-19.27-64.27-.44-.93-1.06-2-2.26-1.75a2,2,0,0,0-1.42,1.45,45.7,45.7,0,0,0,.44,25c-9.08-22.18-22.1-36.54-33.64-64.59-.7-1.69-2.69-3.14-4.52-1.91a3.17,3.17,0,0,0-1.33,2.83c.9,17.45,5.84,34,16.47,47.81a6.41,6.41,0,0,0-7,.22c-2,1.47-2.48,4.43-1.84,6.84-2.49-1.11-5.55.49-6.88,2.87s-1.36,5.26-1.12,8c.92,10.38,6,20.19,12.71,28.14C769.72,213.77,769.53,228.7,781.08,250.66Z" fill="#ffc9e6"/>
  <path d="M764.86,174.4a56.29,56.29,0,0,0,11.33,29.27,7.28,7.28,0,0,0,2.57,2.37c1.07.49,3.29-.42,4-1.35s.46-2.36.13-3.55l-5.36-19.44" fill="none" stroke="#000" stroke-linecap="round" stroke-linejoin="round"/>
  <path d="M796.19,182.43a70.65,70.65,0,0,0,5,14.76c-5.33,3.81-8.14,10.36-8.48,16.9s1.42,13,3.59,19.18" fill="none" stroke="#000" stroke-linecap="round" stroke-linejoin="round"/>
  <path d="M766.82,209.08c.76,1.42,4.33,4.81,5.8,4.15,1.79-.81,3-1.62,3.12-3.21a34.15,34.15,0,0,0-.52-7.14" fill="none" stroke="#000" stroke-linecap="round" stroke-linejoin="round"/>
  <path d="M772.38,164.75c2.26,3.2,9.16,12,9.17,16.75" fill="none" stroke="#000" stroke-linecap="round" stroke-linejoin="round"/>
  <path d="M799.6,158.83a6.54,6.54,0,0,0,4.73,10.87C802.73,166.37,801.21,162.17,799.6,158.83Z" fill="none" stroke="#000" stroke-linecap="round" stroke-linejoin="round"/>
  <path d="M762.08,118.39a9.48,9.48,0,0,0,5.28,11.11C766.4,125.55,764.89,121.32,762.08,118.39Z" fill="none" stroke="#000" stroke-linecap="round" stroke-linejoin="round"/>
  <path d="M773.62,201.09l3.46-1.93a2.34,2.34,0,0,1,3.12.72c1.08,2.09,2.47,5.24,1.35,5.81C778.37,207.29,773.62,201.09,773.62,201.09Z" fill="#ffc9e6" stroke="#000" stroke-miterlimit="10"/>
  <path d="M764.9,206.87l3.46-2.47a2.08,2.08,0,0,1,3.13.91c1.08,2.68,2.47,6.71,1.34,7.43C769.66,214.79,764.9,206.87,764.9,206.87Z" fill="#ffc9e6" stroke="#000" stroke-miterlimit="10"/>
  <path d="M964.75,292.18A20.47,20.47,0,0,0,997.52,291" fill="none" stroke="#fff" stroke-linecap="round" stroke-linejoin="round" stroke-width="2"/>
  <path d="M1200.63,706a69.85,69.85,0,0,1,20.94,48.22" fill="none" stroke="#000" stroke-linecap="round" stroke-linejoin="round"/>
  <path d="M1220.18,710.86a97.9,97.9,0,0,1,9.82,38.82" fill="none" stroke="#000" stroke-linecap="round" stroke-linejoin="round"/>
  <path d="M816.45,172.31a75.26,75.26,0,0,1,7.2,24.32" fill="none" stroke="#000" stroke-linecap="round" stroke-linejoin="round"/>
  <path d="M823.11,168.56l6.17,15.37" fill="none" stroke="#000" stroke-linecap="round" stroke-linejoin="round"/>
</svg>
